<svg width="1761" height="2160" viewBox="0 0 1761 2160" fill="none" xmlns="http://www.w3.org/2000/svg">
<g opacity="0.5">
<mask id="mask0_14_3622" style="mask-type:luminance" maskUnits="userSpaceOnUse" x="-5141" y="-3393" width="6902" height="6902">
<path d="M-3684.23 -3392.19L-5140.15 -1936.27L304.315 3508.19L1760.24 2052.27L-3684.23 -3392.19Z" fill="white"/>
</mask>
<g mask="url(#mask0_14_3622)">
<path opacity="0.9" d="M240.229 1852.46L90.2383 2002.45L239.942 2152.16L388.529 2003.57L240.229 1852.46Z" fill="#073E48"/>
<g opacity="0.9">
<path d="M290.708 2578.75L321.83 2547.63L472.468 2698.27L514.353 2656.38L365.583 2507.61L396.47 2476.72L544.072 2624.33L586.191 2582.21L438.823 2434.84L469.945 2403.72L617.313 2551.09L660.602 2507.8L515.102 2362.3L546.224 2331.18L691.724 2476.68L732.439 2435.96L587.873 2291.39L618.994 2260.27L763.093 2404.37L803.574 2363.89L660.176 2220.49L691.298 2189.37L834.462 2332.54L870.966 2296.03L728.268 2153.34L759.389 2122.21L901.619 2264.45L938.592 2227.47L796.595 2085.47L827.716 2054.35L969.245 2195.88L1022.36 2142.77L873.827 1994.23L1020.54 1847.52L975.234 1802.21L820.329 1957.11L789.735 1926.52L944.64 1771.61L907.739 1734.71L752.834 1889.62L722.239 1859.02L877.144 1704.12L841.411 1668.38L686.506 1823.29L655.912 1792.69L810.582 1638.02L770.412 1597.85L616.21 1752.06L585.615 1721.46L739.817 1567.26L699.414 1526.85L545.211 1681.06L514.85 1650.7L668.818 1496.73L625.846 1453.76L472.812 1606.79L441.983 1575.96L595.017 1422.93L552.979 1380.89L400.882 1532.99L370.287 1502.39L522.384 1350.29L480.812 1308.72L329.886 1459.65L295.321 1425.08L446.247 1274.16L393.699 1221.61L243.239 1372.07L92.3668 1221.2L40.1863 1273.38L177.512 1410.7L146.392 1441.82L9.06588 1304.5L-27.9073 1341.47L109.419 1478.8L78.2984 1509.92L-59.0277 1372.59L-95.0625 1408.63L42.0302 1545.72L11.1426 1576.61L-125.95 1439.51L-166.431 1479.99L-29.8054 1616.62L-60.9272 1647.74L-197.553 1511.12L-238.268 1551.83L-101.876 1688.22L-132.763 1719.11L-269.155 1582.72L-313.147 1626.71L-177.689 1762.17L-208.577 1793.06L-344.034 1657.6L-386.387 1699.95L-251.63 1834.71L-282.752 1865.83L-417.509 1731.07L-459.394 1772.96L-325.805 1906.55L-356.927 1937.67L-490.282 1804.31L-538.952 1852.98L-393.455 2001.29L-542.277 2150.11L-485.992 2206.4L-334.596 2055L-303.768 2085.83L-455.164 2237.22L-413.592 2278.8L-263.366 2128.57L-232.771 2159.16L-382.997 2309.39L-340.959 2351.43L-191.669 2202.14L-161.075 2232.73L-310.364 2382.02L-267.391 2425L-119.037 2276.64L-88.4428 2307.24L-236.797 2455.59L-196.393 2496L-48.5076 2348.11L-17.6792 2378.94L-165.565 2526.82L-125.628 2566.76L22.0231 2419.11L52.8515 2449.94L-94.7997 2597.59L-59.3004 2633.09L88.1166 2485.67L118.945 2516.5L-28.4723 2663.92L8.19485 2700.58L155.612 2553.17L186.207 2583.76L38.7895 2731.18L92.5056 2784.89L242.029 2635.37L387.059 2783.68L441.346 2729.39L290.708 2578.75ZM237.641 2335.68L-94.2303 2003.81L238.277 1671.3L567.106 2006.21L237.641 2335.68Z" fill="#073E48"/>
</g>
<g opacity="0.9">
<path d="M-637.956 1470.83L-511.832 1344.71L-332.701 1523.84L-222.022 1413.16L-401.153 1234.03L-275.263 1108.14L-96.132 1287.27L178.344 1012.79L-98.8765 735.573L-284.902 921.598L-409.616 796.884L-223.591 610.859L-333.359 501.091L-519.384 687.116L-644.098 562.402L-458.073 376.377L-731.557 102.893L-1005.8 377.135L-826.201 556.733L-952.091 682.622L-1131.69 503.025L-1242.6 613.938L-1063 793.536L-1189.13 919.66L-1368.73 740.062L-1649.52 1020.86L-1376.04 1294.34L-1199.61 1117.91L-1074.89 1242.62L-1251.32 1419.06L-1141.79 1528.59L-965.357 1352.16L-840.409 1477.11L-1016.84 1653.54L-740.554 1929.82L-459.759 1649.03L-637.956 1470.83ZM-91.0973 912.296L10.7295 1014.12L-92.2292 1117.08L-194.056 1015.26L-91.0973 912.296ZM-1374.7 1121.58L-1476.53 1019.76L-1373.57 916.798L-1271.74 1018.62L-1374.7 1121.58ZM-835.611 373.7L-732.653 270.741L-630.826 372.568L-733.785 475.526L-835.611 373.7ZM-1152.52 1017.58L-736.008 601.063L-322.162 1014.91L-738.674 1431.42L-1152.52 1017.58ZM-741.089 1756.6L-842.916 1654.77L-739.959 1551.82L-638.132 1653.64L-741.089 1756.6Z" fill="#073E48"/>
</g>
</g>
</g>
</svg>
