<svg width="414" height="107" viewBox="0 0 414 107" fill="none" xmlns="http://www.w3.org/2000/svg">
<g clip-path="url(#clip0_49_1799)">
<mask id="mask0_49_1799" style="mask-type:luminance" maskUnits="userSpaceOnUse" x="0" y="-1" width="190" height="104">
<path d="M189.422 -0.145142H0V102.849H189.422V-0.145142Z" fill="white"/>
</mask>
<g mask="url(#mask0_49_1799)">
<path d="M102.467 79.0825H92.7247V98.4441H90.0186V76.6152H102.474L102.467 79.0825Z" fill="#ACEEFA"/>
<path d="M105.928 88.7306C105.928 94.1407 107.732 96.2271 111.084 96.2271C114.436 96.2271 116.244 94.1407 116.244 88.7306V86.3286C116.244 80.9185 114.418 78.8285 111.084 78.8285C107.75 78.8285 105.928 80.9185 105.928 86.3286V88.7306ZM111.08 98.698C106.27 98.698 103.218 95.7953 103.218 88.7306V86.3286C103.218 79.2712 106.27 76.3612 111.08 76.3612C115.89 76.3612 118.943 79.264 118.943 86.3286V88.7306C118.946 95.7844 115.897 98.698 111.08 98.698Z" fill="#ACEEFA"/>
<path d="M130.117 87.6566C133.794 87.6566 135.302 86.0746 135.302 83.3859C135.302 80.6972 133.794 79.0825 130.117 79.0825H125.902V87.6566H130.117ZM125.902 90.1276V98.4441H123.196V76.6188H130.117C135.118 76.6188 138.008 79.1587 138.008 83.3895C138.008 87.6203 135.147 90.1276 130.117 90.1276H125.902Z" fill="#ACEEFA"/>
<path d="M143.294 88.7306C143.294 94.1407 145.12 96.2271 148.45 96.2271C151.781 96.2271 153.61 94.1407 153.61 88.7306V86.3286C153.61 80.9185 151.784 78.8285 148.45 78.8285C145.116 78.8285 143.294 80.9185 143.294 86.3286V88.7306ZM148.45 98.698C143.64 98.698 140.588 95.7953 140.588 88.7306V86.3286C140.588 79.2712 143.64 76.3612 148.45 76.3612C153.26 76.3612 156.313 79.264 156.313 86.3286V88.7306C156.313 95.7844 153.264 98.698 148.45 98.698Z" fill="#ACEEFA"/>
<path d="M162.606 95.9767H172.781V79.0825H165.204V81.6225C165.204 87.2901 164.699 91.0855 163.884 93.5166C163.613 94.409 163.18 95.2431 162.606 95.9767ZM158.204 102.555V95.9767H159.146C160.124 95.4034 160.972 93.7307 161.444 92.2103C162.105 90.0913 162.484 86.4846 162.484 81.6116V76.6152H175.502V95.9767H178.194V102.555H175.491V98.4441H160.91V102.555H158.204Z" fill="#ACEEFA"/>
<path d="M103.373 39.8987L96.0195 57.9648C94.7999 60.9583 93.519 61.8691 89.8241 61.8691V59.3836C91.9891 59.3836 92.8262 59.1659 93.703 56.9924L93.8004 56.7384L86.3818 39.8987H89.3226L95.1751 53.324L100.555 39.8987H103.373Z" fill="#ACEEFA"/>
<path d="M115.569 53.4365L122.013 39.8987H124.676V61.6187H121.985V45.6934L116.727 57.0867H114.328L109.154 45.7877V61.6187H106.462V39.8987H109.092L115.569 53.4365Z" fill="#ACEEFA"/>
<path d="M132.679 49.1549H141.938V39.9023H144.637V61.6187H141.945V51.6114H132.679V61.6187H129.983V39.9023H132.679V49.1549Z" fill="#ACEEFA"/>
<path d="M168.902 61.6187H166.214V39.8987H168.902V61.6187ZM152.632 50.9401V59.1586H156.295C159.542 59.1586 161.05 57.4242 161.05 55.0657C161.05 52.7072 159.549 50.9401 156.295 50.9401H152.632ZM152.632 39.895V48.4873H156.295C161.833 48.4873 163.738 51.9162 163.738 55.0657C163.738 58.2152 161.833 61.5969 156.295 61.5969H149.94V39.8805L152.632 39.895Z" fill="#ACEEFA"/>
<path d="M187.608 33.9516C187.608 37.1011 185.605 38.4219 182.163 38.4219C178.72 38.4219 176.685 37.1011 176.685 33.9516H179.255C179.255 35.2107 179.785 36.4698 182.163 36.4698C184.541 36.4698 185.075 35.2107 185.075 33.9516H187.608ZM176.906 39.8987V56.2268L187.171 39.8987H189.423V61.6187H186.731V45.4393L176.53 61.6187H174.225V39.8987H176.906Z" fill="#ACEEFA"/>
<path d="M103.373 39.8987L96.0195 57.9648C94.7999 60.9583 93.519 61.8691 89.8241 61.8691V59.3836C91.9891 59.3836 92.8262 59.1659 93.703 56.9924L93.8004 56.7384L86.3818 39.8987H89.3226L95.1751 53.324L100.555 39.8987H103.373Z" fill="#ACEEFA"/>
<path d="M115.569 53.4365L122.013 39.8987H124.676V61.6187H121.985V45.6934L116.727 57.0867H114.328L109.154 45.7877V61.6187H106.462V39.8987H109.092L115.569 53.4365Z" fill="#ACEEFA"/>
<path d="M132.679 49.1549H141.938V39.9023H144.637V61.6187H141.945V51.6114H132.679V61.6187H129.983V39.9023H132.679V49.1549Z" fill="#ACEEFA"/>
<path d="M168.902 61.6187H166.214V39.8987H168.902V61.6187ZM152.632 50.9401V59.1586H156.295C159.542 59.1586 161.05 57.4242 161.05 55.0657C161.05 52.7072 159.549 50.9401 156.295 50.9401H152.632ZM152.632 39.895V48.4873H156.295C161.833 48.4873 163.738 51.9162 163.738 55.0657C163.738 58.2152 161.833 61.5969 156.295 61.5969H149.94V39.8805L152.632 39.895Z" fill="#ACEEFA"/>
<path d="M187.608 33.9516C187.608 37.1011 185.605 38.4219 182.163 38.4219C178.72 38.4219 176.685 37.1011 176.685 33.9516H179.255C179.255 35.2107 179.785 36.4698 182.163 36.4698C184.541 36.4698 185.075 35.2107 185.075 33.9516H187.608ZM176.906 39.8987V56.2268L187.171 39.8987H189.423V61.6187H186.731V45.4393L176.53 61.6187H174.225V39.8987H176.906Z" fill="#ACEEFA"/>
<path d="M102.467 79.0825H92.7247V98.4441H90.0186V76.6152H102.474L102.467 79.0825Z" fill="#ACEEFA"/>
<path d="M105.928 88.7306C105.928 94.1407 107.732 96.2271 111.084 96.2271C114.436 96.2271 116.244 94.1407 116.244 88.7306V86.3286C116.244 80.9185 114.418 78.8285 111.084 78.8285C107.75 78.8285 105.928 80.9185 105.928 86.3286V88.7306ZM111.08 98.698C106.27 98.698 103.218 95.7953 103.218 88.7306V86.3286C103.218 79.2712 106.27 76.3612 111.08 76.3612C115.89 76.3612 118.943 79.264 118.943 86.3286V88.7306C118.946 95.7844 115.897 98.698 111.08 98.698Z" fill="#ACEEFA"/>
<path d="M130.117 87.6566C133.794 87.6566 135.302 86.0746 135.302 83.3859C135.302 80.6972 133.794 79.0825 130.117 79.0825H125.902V87.6566H130.117ZM125.902 90.1276V98.4441H123.196V76.6188H130.117C135.118 76.6188 138.008 79.1587 138.008 83.3895C138.008 87.6203 135.147 90.1276 130.117 90.1276H125.902Z" fill="#ACEEFA"/>
<path d="M143.294 88.7306C143.294 94.1407 145.12 96.2271 148.45 96.2271C151.781 96.2271 153.61 94.1407 153.61 88.7306V86.3286C153.61 80.9185 151.784 78.8285 148.45 78.8285C145.116 78.8285 143.294 80.9185 143.294 86.3286V88.7306ZM148.45 98.698C143.64 98.698 140.588 95.7953 140.588 88.7306V86.3286C140.588 79.2712 143.64 76.3612 148.45 76.3612C153.26 76.3612 156.313 79.264 156.313 86.3286V88.7306C156.313 95.7844 153.264 98.698 148.45 98.698Z" fill="#ACEEFA"/>
<path d="M162.606 95.9767H172.781V79.0825H165.204V81.6225C165.204 87.2901 164.699 91.0855 163.884 93.5166C163.613 94.409 163.18 95.2431 162.606 95.9767ZM158.204 102.555V95.9767H159.146C160.124 95.4034 160.972 93.7307 161.444 92.2103C162.105 90.0913 162.484 86.4846 162.484 81.6116V76.6152H175.502V95.9767H178.194V102.555H175.491V98.4441H160.91V102.555H158.204Z" fill="#ACEEFA"/>
<path fill-rule="evenodd" clip-rule="evenodd" d="M0 76.6805H7.54847V48.7195H0V76.6805Z" fill="#ACEEFA"/>
<path fill-rule="evenodd" clip-rule="evenodd" d="M45.2725 89.6958H52.8173V61.7312H45.2725V89.6958Z" fill="#ACEEFA"/>
<path fill-rule="evenodd" clip-rule="evenodd" d="M33.9573 0C24.95 0.00192448 16.3123 3.60172 9.94414 10.0076C3.57603 16.4134 -0.000956913 25.1006 1.92022e-07 34.1584V39.866H7.54847V34.1548C7.548 30.6668 8.2307 27.2129 9.55761 23.9903C10.8845 20.7677 12.8296 17.8394 15.2819 15.3727C17.7342 12.906 20.6456 10.9492 23.8499 9.61394C27.0543 8.27872 30.4887 7.59124 33.9573 7.59077C37.4263 7.59124 40.8612 8.27881 44.066 9.61422C47.2707 10.9496 50.1825 12.9067 52.6352 15.3738C55.0878 17.8408 57.0332 20.7695 58.3603 23.9925C59.6873 27.2156 60.3702 30.67 60.3697 34.1584V61.6876H67.9181V34.1584C67.9186 29.6732 67.0406 25.2317 65.3341 21.0877C63.6277 16.9436 61.1263 13.1782 57.9727 10.0063C54.8192 6.83438 51.0752 4.31816 46.9546 2.60128C42.8341 0.884396 38.4175 0.000476472 33.9573 0Z" fill="#ACEEFA"/>
<path fill-rule="evenodd" clip-rule="evenodd" d="M30.1826 98.5819H37.7311V89.6668H30.1826V98.5819Z" fill="#ACEEFA"/>
<path fill-rule="evenodd" clip-rule="evenodd" d="M30.1826 80.7553H37.7311V52.9358H30.1826V80.7553Z" fill="#ACEEFA"/>
<path fill-rule="evenodd" clip-rule="evenodd" d="M22.6454 41.2267C22.645 39.7321 22.9373 38.252 23.5057 36.8711C24.0742 35.4901 24.9076 34.2353 25.9584 33.1783C27.0092 32.1213 28.2567 31.2828 29.6298 30.7107C31.0029 30.1386 32.4746 29.8442 33.9609 29.8442C35.4472 29.8442 36.9189 30.1386 38.292 30.7107C39.6651 31.2828 40.9127 32.1213 41.9634 33.1783C43.0142 34.2353 43.8476 35.4901 44.4161 36.8711C44.9845 38.252 45.2769 39.7321 45.2764 41.2267V52.8777H52.8212V41.2267C52.8217 38.7356 52.3343 36.2687 51.3867 33.967C50.4391 31.6654 49.05 29.5739 47.2987 27.8121C45.5473 26.0502 43.4681 24.6525 41.1796 23.6988C38.8911 22.745 36.4382 22.2539 33.9609 22.2534C31.4837 22.2539 29.0308 22.745 26.7423 23.6988C24.4538 24.6525 22.3745 26.0502 20.6232 27.8121C18.8718 29.5739 17.4827 31.6654 16.5351 33.967C15.5876 36.2687 15.1001 38.7356 15.1006 41.2267V89.6958H22.6491V41.2267H22.6454Z" fill="#ACEEFA"/>
</g>
<path d="M290.598 28.6577L280.242 52.914C279.116 55.5374 277.474 57.3952 274.624 57.3952H272.134V54.6484H273.938C275.905 54.6484 276.868 53.763 277.709 51.7855L278.874 49.0787L269.442 28.6577H272.69L280.397 45.6498L287.339 28.6577H290.598ZM319.171 57.3952H316.122V35.559L308.296 52.8741H305.684L297.745 35.559V57.3952H294.693V28.6577H297.745L307.055 49.0388L316.13 28.6577H319.179L319.171 57.3952ZM346.72 57.3952H343.671V44.2782H330.101V57.3952H327.052V28.6577H330.101V41.5315H343.668V28.6577H346.717L346.72 57.3952ZM374.504 57.3952H371.256L368.965 50.8966H356.484L354.197 57.3952H350.949L361.464 28.6577H364.018L374.504 57.3952ZM368.081 48.2333L362.784 33.0554L357.404 48.2333H368.081ZM386.638 45.57L380.418 57.3952H376.846L383.434 45.1345C379.66 44.2057 377.3 41.2194 377.3 37.1047C377.3 31.9777 380.829 28.6685 386.126 28.6685H396.763V57.406H393.714V45.57H386.638ZM393.703 42.8232V31.3464H386.389C382.579 31.3464 380.331 33.4871 380.331 37.0793C380.331 40.6715 382.579 42.8087 386.389 42.8087L393.703 42.8232ZM292.001 89.9353C291.081 95.3417 287.188 98.4912 282.089 98.4912C280.736 98.5068 279.393 98.2507 278.139 97.738C276.885 97.2252 275.745 96.4661 274.786 95.505C272.094 92.7981 272.094 89.9752 272.094 83.8939C272.094 77.8126 272.094 74.9751 274.786 72.2828C275.745 71.3217 276.885 70.5625 278.139 70.0498C279.393 69.537 280.736 69.2809 282.089 69.2965C287.227 69.2965 291.041 72.446 292.001 77.8525H288.873C288.108 74.3437 285.661 72.0469 282.089 72.0469C281.174 72.0364 280.266 72.2094 279.418 72.5558C278.569 72.9022 277.798 73.415 277.15 74.0643C275.345 75.9221 275.143 77.8996 275.143 83.912C275.143 89.9244 275.345 91.8947 277.15 93.7597C277.798 94.409 278.569 94.9218 279.418 95.2682C280.266 95.6146 281.174 95.7876 282.089 95.7771C285.661 95.7771 288.191 93.4767 288.945 89.9716L292.001 89.9353ZM314.585 72.2537H306.315V98.2481H303.266V72.2537H294.996V69.5106H314.585V72.2537ZM338.981 77.9468C338.981 83.0267 335.448 86.4229 330.151 86.4229H322.574V98.2481H319.525V69.5106H330.162C335.463 69.5106 338.995 72.8996 338.995 77.9468H338.981ZM335.932 77.9468C335.932 74.3546 333.684 72.2537 329.87 72.2537H322.563V83.6762H329.87C333.709 83.6762 335.946 81.539 335.946 77.9468H335.932ZM362.304 98.2481H359.057L356.769 91.7495H344.288L342.008 98.2481H338.761L349.279 69.5106H351.848L362.304 98.2481ZM355.882 89.0862L350.585 73.9083L345.205 89.0862H355.882ZM386.191 98.2481H383.142V85.1312H369.575V98.2481H366.544V69.5106H369.593V82.3844H383.16V69.5106H386.209L386.191 98.2481ZM413.975 98.2481H410.727L408.439 91.7495H395.955L393.667 98.2481H390.42L400.938 69.5106H403.507L413.975 98.2481ZM407.552 89.0862L402.266 73.9083L396.886 89.0862H407.552Z" fill="#ACEEFA"/>
<mask id="mask1_49_1799" style="mask-type:luminance" maskUnits="userSpaceOnUse" x="218" y="22" width="24" height="86">
<path d="M241.053 22.5183H218.603V107.105H241.053V22.5183Z" fill="white"/>
</mask>
<g mask="url(#mask1_49_1799)">
<path opacity="0.9" d="M220.229 22.5183H219.425V107H220.229V22.5183Z" fill="#ACEEFA"/>
<path opacity="0.9" d="M219.008 22.5183H218.603V107H219.008V22.5183Z" fill="#ACEEFA"/>
<path opacity="0.9" d="M240.263 22.5183H239.458V107H240.263V22.5183Z" fill="#ACEEFA"/>
<path opacity="0.9" d="M241.057 22.5183H240.652V107H241.057V22.5183Z" fill="#ACEEFA"/>
<path opacity="0.9" d="M230.874 93.7452H228.562V96.071H230.853L230.874 93.7452Z" fill="#ACEEFA"/>
<g opacity="0.9">
<path d="M225.663 99.7793H226.143V102.12H226.789V99.8084H227.265V102.102H227.915V99.812H228.395V102.102H229.062V99.841H229.542V102.102H230.17V99.8555H230.65V102.094H231.274V99.8664H231.754V102.091H232.317V99.8737H232.797V102.083H233.367V99.8773H233.847V102.076H234.666V99.7685H236.928V99.0645H234.54V98.5892H236.928V98.0159H234.54V97.5406H236.928V96.9854H234.54V96.5101H236.925V95.886H234.547V95.4107H236.925V94.7829H234.547V94.3112H236.921V93.6436H234.561V93.1646H236.921V92.5115H234.576V92.0362H236.921V91.3903H234.594V90.8533H236.921V90.0369H234.601V87.6929H233.796V89.8264H233.317V87.6929H232.746V89.8264H232.267V87.6929H231.711V89.8228H231.235V87.6929H230.61V89.8156H230.13V87.6929H229.503V89.8119H229.026V87.6929H228.348V89.7974H227.872V87.6929H227.219V89.7865H226.739V87.6929H226.093V89.7684H225.613V87.6965H224.862L224.841 89.9788H222.546V90.8533H224.88V91.3323H222.546V91.9781H224.862V92.4535H222.546V93.1066H224.848V93.5819H222.546V94.2496H224.834V94.7249H222.546V95.3526H224.826V95.8316H222.546V96.452H224.823V96.931H222.546V97.4825H224.819V97.9615H222.546V98.5311H224.819V99.0065H222.546V99.841H224.852L224.826 102.12H225.663V99.7793ZM227.128 97.4789V92.3228H232.256L232.209 97.4789H227.128Z" fill="#ACEEFA"/>
</g>
<g opacity="0.9">
<path d="M227.046 83.9592H228.991V86.7422H230.697V83.9592H232.639V86.7422H236.871V82.4352H234.002V80.4976H236.871V78.7923H234.002V76.8547H236.871V72.6057H232.642V75.396H230.701V72.6057H228.991V75.396H227.046V72.6057H222.716V76.8547H225.436V78.7923H222.716V80.494H225.436V82.4352H222.716V86.7277H227.046V83.9592ZM235.568 83.8685V85.4505H233.981V83.8685H235.568ZM224.058 75.523V73.941H225.646V75.523H224.058ZM233.981 73.9011H235.568V75.4831H233.981V73.9011ZM226.573 76.441H232.996V82.8707H226.573V76.441ZM224.047 85.3779V83.7959H225.635V85.3779H224.047Z" fill="#ACEEFA"/>
</g>
<g opacity="0.9">
<path d="M233.302 40.7804H234.172V37.9466H236.856V37.1519H234.139V36.3863H236.853V35.7005H234.121V34.9349H236.838V34.1729H234.121V33.4073H236.838V32.6562H234.121V31.8906H236.838V31.0996H234.121V30.334H236.838V29.4704H234.165V26.7164H233.288V29.3362H232.519V26.7164H231.726V29.3362H230.957V26.7164H230.206V29.3362H229.442V26.7164H228.673V29.3362H227.912V26.7164H227.19V29.3362H226.425V26.7164H225.646V29.5938H222.727V30.3195H225.382V31.0851H222.727V31.8761H225.382V32.6417H222.727V33.3928H225.382V34.1584H222.727V34.9204H225.382V35.7005H222.727V36.4008H225.382V37.1519H222.727V37.9647H225.613V40.7804H226.429V38.1171H227.194V40.7804H227.915V38.1171H228.709V40.7804H229.474V38.1171H230.243V40.7804H230.989V38.1171H231.762V40.7804H232.555V38.1171H233.32L233.302 40.7804ZM226.385 37.1519V30.2832H233.266V37.1519H226.385Z" fill="#ACEEFA"/>
</g>
<g opacity="0.9">
<path d="M232.101 31.3464H227.291V36.1505H232.101V31.3464ZM228.514 32.5256H230.921V34.9277H228.514V32.5256Z" fill="#ACEEFA"/>
</g>
<g opacity="0.9">
<path d="M231.596 77.8271H227.93V81.4882H231.596V77.8271ZM228.864 78.7269H230.697V80.5412H228.864V78.7269Z" fill="#ACEEFA"/>
</g>
<g opacity="0.9">
<path d="M223.351 57.2101H222.629V58.422C222.629 58.5309 222.629 58.6397 222.629 58.7486C222.629 58.9554 222.629 59.1586 222.629 59.3654C222.629 59.5722 222.629 59.75 222.629 59.9423V60.6463C222.629 60.7406 222.629 60.8349 222.629 60.9293C222.629 61.1361 222.629 61.3429 222.629 61.5498C222.629 61.7566 222.629 61.9307 222.629 62.1231V63.0991C222.629 63.3059 222.629 63.5164 222.629 63.7268C222.629 63.9373 222.629 64.0897 222.629 64.2929V64.9859C222.629 65.0803 222.629 65.1746 222.629 65.2653C222.629 65.356 222.629 65.5266 222.629 65.6572C222.629 65.7878 222.629 65.8713 222.629 65.9801C222.629 66.2087 222.629 66.4373 222.629 66.6623V66.9562C222.629 67.163 222.629 67.3662 222.629 67.573C222.629 67.7798 222.629 67.9576 222.629 68.1463C222.629 68.335 222.647 68.5491 222.647 68.7523C222.647 68.9555 222.647 69.1478 222.647 69.3473C222.647 69.5469 222.647 69.7428 222.647 69.9388C222.647 70.1347 222.647 70.3452 222.629 70.5447C222.629 70.6354 222.629 70.7262 222.629 70.8169V71.216V71.5172H222.708H232.162H233.244H235.824H236.441C236.604 71.5172 236.762 71.5172 236.921 71.5172C236.94 71.5107 236.958 71.4994 236.972 71.4845C236.984 71.4709 236.992 71.4548 236.997 71.4373C236.997 71.2813 236.997 71.1217 236.997 70.9656C236.997 70.8096 236.997 70.5701 236.997 70.3742C236.997 70.1783 236.997 69.9642 236.997 69.761V68.8829C236.997 68.6942 236.997 68.5201 236.997 68.3132C236.997 68.1064 236.997 67.8923 236.997 67.6819C236.997 67.4714 236.997 67.29 236.997 67.1013C236.997 66.8183 236.997 66.5389 236.997 66.2559C236.997 66.0563 236.997 65.8531 236.997 65.6536C236.997 65.3705 236.997 65.0839 236.997 64.8009C236.997 64.6013 236.997 64.4054 236.997 64.2058C236.997 63.9337 236.997 63.6579 236.997 63.3858C236.997 63.1136 236.997 62.8088 236.997 62.5186C236.997 62.2283 236.997 61.9416 236.997 61.6513V60.0113C236.997 59.7319 236.997 59.4452 236.997 59.1659C236.997 58.803 236.997 58.4402 236.997 58.0773C236.997 57.8161 236.997 57.5548 236.997 57.2972C236.997 57.2682 236.957 57.2137 236.928 57.2137C236.784 57.2137 236.636 57.1956 236.485 57.1956H235.868C235.676 57.1956 235.481 57.1956 235.294 57.1956H234.659C234.323 57.1956 234.071 57.1956 233.937 57.1956L233.41 57.2137H223.365M225.256 57.7725H232.988H233.984H235.427H236.344C236.42 57.7725 236.445 57.8015 236.441 57.8777C236.441 58.1571 236.441 58.4329 236.441 58.7123C236.441 58.9917 236.441 59.2638 236.441 59.536C236.441 59.7428 236.441 59.9496 236.441 60.1564C236.441 60.3632 236.441 60.5447 236.459 60.7406C236.459 60.864 236.459 60.9837 236.459 61.1035C236.459 61.2232 236.459 61.3248 236.459 61.4373C236.459 61.5498 236.459 61.6151 236.459 61.7058C236.459 61.909 236.459 62.1122 236.459 62.3117C236.459 62.4242 236.459 62.5367 236.459 62.6492C236.459 62.7617 236.459 62.827 236.459 62.9177C236.459 63.0084 236.459 63.1572 236.459 63.2805C236.459 63.4039 236.459 63.5019 236.459 63.6144C236.459 63.7268 236.459 63.7849 236.459 63.872C236.459 63.9591 236.459 64.0969 236.459 64.2094C236.459 64.3219 236.459 64.4598 236.459 64.5723C236.459 64.6848 236.459 64.7537 236.459 64.8444C236.459 64.9351 236.459 65.0839 236.459 65.2073C236.459 65.4032 236.459 65.5991 236.459 65.7951C236.459 65.8858 236.459 65.9801 236.459 66.0745C236.459 66.1688 236.441 66.3139 236.441 66.4373C236.441 66.5607 236.441 66.6623 236.463 66.7711C236.485 66.88 236.463 66.9453 236.463 67.0324C236.463 67.1195 236.445 67.2755 236.445 67.3952C236.445 67.515 236.445 67.6166 236.445 67.729V67.9867C236.445 68.1935 236.445 68.4003 236.445 68.6035C236.445 68.8067 236.445 68.9954 236.463 69.1877C236.463 69.2675 236.463 69.351 236.463 69.4344C236.463 69.6412 236.463 69.8444 236.445 70.0513C236.445 70.1601 236.463 70.2726 236.463 70.3815C236.463 70.4903 236.463 70.6246 236.463 70.7443V70.8278C236.463 70.9185 236.434 70.9548 236.344 70.9439C236.25 70.9384 236.156 70.9384 236.062 70.9439C235.864 70.9439 235.666 70.9439 235.471 70.9439C235.276 70.9439 235.074 70.9439 234.875 70.9439H234.572H234.15H233.879C233.677 70.9439 233.479 70.9439 233.273 70.9439C233.068 70.9439 232.884 70.9439 232.689 70.9439C232.58 70.9439 232.472 70.9439 232.364 70.9439H231.971H231.7H230.845C230.6 70.9439 230.358 70.9439 230.123 70.9439C229.889 70.9439 229.64 70.9439 229.402 70.9439H228.579C228.377 70.9439 228.175 70.9439 227.969 70.9439C227.763 70.9439 227.572 70.9439 227.374 70.9439C227.175 70.9439 226.98 70.9439 226.786 70.9439C226.591 70.9439 226.374 70.9439 226.169 70.9439H225.876H225.18C224.895 70.9439 224.61 70.9439 224.321 70.9439H223.387C223.307 70.9439 223.275 70.9148 223.275 70.835V69.8626C223.275 69.4997 223.275 69.1369 223.275 68.7523C223.275 68.491 223.275 68.2261 223.275 67.9649V66.2196C223.275 65.61 223.275 65.0004 223.275 64.4054C223.275 63.9554 223.275 63.5055 223.275 63.0556V60.8785C223.275 60.0512 223.275 59.2166 223.275 58.3857V57.914C223.275 57.8814 223.293 57.8451 223.304 57.8124C223.341 57.8005 223.38 57.792 223.419 57.787H225.303L225.256 57.7725Z" fill="#ACEEFA"/>
</g>
<g opacity="0.9">
<path d="M232.596 70.2255C232.596 70.1565 232.596 70.0839 232.596 70.0114C232.596 69.8844 232.596 69.7574 232.596 69.6304V69.3582C232.596 69.2204 232.596 69.0825 232.596 68.9446C232.596 68.8067 232.596 68.6725 232.596 68.5346C232.596 68.3967 232.596 68.3532 232.596 68.2625C232.596 68.0665 232.596 67.8669 232.57 67.671C232.57 67.5585 232.57 67.4497 232.57 67.3372C232.574 67.301 232.574 67.2645 232.57 67.2283C232.57 67.1485 232.592 67.1086 232.671 67.1122C232.805 67.1122 232.938 67.1122 233.072 67.1122H233.433C233.519 67.1122 233.606 67.1122 233.693 67.1122H234.053H234.356H234.797C234.916 67.1122 235.031 67.1122 235.157 67.1122H235.518C235.724 67.1122 235.778 67.1558 235.753 67.3444C235.753 67.4533 235.753 67.5622 235.753 67.671C235.753 67.7799 235.753 67.9649 235.753 68.1137C235.753 68.2625 235.753 68.3386 235.753 68.4511C235.753 68.5636 235.753 68.6942 235.753 68.814C235.753 68.9337 235.753 68.9918 235.753 69.0825C235.753 69.1732 235.753 69.3147 235.753 69.4453C235.753 69.576 235.753 69.6739 235.753 69.79C235.745 69.9108 235.745 70.0321 235.753 70.1529C235.753 70.2654 235.724 70.3053 235.608 70.2908C235.5 70.2835 235.392 70.2835 235.284 70.2908H234.844H234.483C234.367 70.2908 234.245 70.2908 234.122 70.2908H233.4H233.039H232.715C232.672 70.2757 232.631 70.2536 232.596 70.2255ZM233.602 69.2639L233.761 69.2821H233.876H234.277C234.396 69.2821 234.512 69.2821 234.638 69.2821C234.655 69.2856 234.672 69.2856 234.688 69.2821C234.704 69.2771 234.717 69.2684 234.728 69.2566C234.742 69.2453 234.752 69.2302 234.757 69.2131C234.762 69.1966 234.762 69.1788 234.757 69.1623C234.753 69.1176 234.753 69.0727 234.757 69.0281C234.757 68.9156 234.757 68.8031 234.757 68.6906C234.748 68.5698 234.748 68.4486 234.757 68.3278C234.757 68.1645 234.699 68.081 234.53 68.0955C234.36 68.1101 234.263 68.0955 234.125 68.0955C233.988 68.0955 233.808 68.0955 233.649 68.0955C233.63 68.0993 233.612 68.1095 233.599 68.1246C233.583 68.1389 233.571 68.1579 233.566 68.179C233.561 68.2575 233.561 68.3363 233.566 68.4148V68.8067C233.566 68.9156 233.566 69.0244 233.566 69.1333C233.572 69.1782 233.585 69.2222 233.602 69.2639Z" fill="#ACEEFA"/>
</g>
<g opacity="0.9">
<path d="M232.596 58.4873C232.715 58.4873 232.838 58.4692 232.957 58.4692C233.635 58.4692 234.317 58.4692 234.999 58.4692H235.601C235.699 58.4692 235.746 58.5381 235.739 58.6397C235.731 58.7413 235.739 58.9119 235.739 59.0461C235.739 59.1804 235.739 59.2348 235.739 59.3292C235.739 59.4235 235.739 59.5505 235.739 59.663C235.739 59.7755 235.739 59.8952 235.739 60.0258V60.7515C235.739 60.864 235.739 60.9801 235.739 61.0962C235.739 61.2123 235.739 61.3321 235.739 61.4591C235.739 61.5861 235.739 61.626 235.605 61.626H232.805C232.61 61.626 232.556 61.5607 232.578 61.3611C232.587 61.2209 232.587 61.0804 232.578 60.9402V60.6935C232.578 60.5774 232.578 60.4649 232.578 60.3488C232.578 60.2326 232.578 60.1456 232.578 60.044C232.578 59.9424 232.578 59.7428 232.578 59.5904C232.578 59.438 232.578 59.1949 232.578 58.999C232.578 58.803 232.589 58.6688 232.596 58.4873ZM233.581 60.6136C233.631 60.6256 233.681 60.6341 233.732 60.639H234.555C234.768 60.639 234.764 60.639 234.743 60.4358C234.741 60.4141 234.741 60.3923 234.743 60.3705C234.743 60.2544 234.743 60.1383 234.743 60.0077C234.743 59.8771 234.743 59.7283 234.743 59.5868C234.743 59.4453 234.71 59.4308 234.598 59.4308H233.685C233.61 59.4308 233.541 59.4308 233.548 59.5505C233.559 59.71 233.559 59.87 233.548 60.0294C233.548 60.1419 233.548 60.2508 233.548 60.3633C233.548 60.4758 233.566 60.5338 233.581 60.6136Z" fill="#ACEEFA"/>
</g>
<g opacity="0.9">
<path d="M227.046 58.4801C227.046 58.6071 227.064 58.7341 227.064 58.8611V60.5302C227.064 60.8495 227.064 61.1688 227.064 61.4881C227.064 61.5679 227.017 61.6151 226.923 61.6151H224.065C223.961 61.6151 223.921 61.5752 223.921 61.4627C223.921 60.6838 223.921 59.9025 223.921 59.1187V58.5926C223.921 58.5127 223.953 58.4728 224.036 58.4728H225.729L227.046 58.4801ZM226.064 60.61C226.075 60.5745 226.082 60.5381 226.086 60.5012C226.086 60.1964 226.086 59.8952 226.086 59.594C226.086 59.5178 226.061 59.4489 225.97 59.4453H225.021C225.004 59.4417 224.985 59.4417 224.967 59.4453C224.951 59.4524 224.937 59.4622 224.924 59.4743C224.911 59.486 224.903 59.5011 224.899 59.5178C224.895 59.5346 224.895 59.5519 224.899 59.5686C224.899 59.8734 224.899 60.1818 224.899 60.4866C224.895 60.5046 224.895 60.5231 224.899 60.5411C224.905 60.5587 224.915 60.5748 224.928 60.5882C224.939 60.603 224.954 60.6143 224.971 60.6209C224.989 60.6244 225.007 60.6244 225.025 60.6209H225.97C226.002 60.6175 226.032 60.609 226.061 60.5955L226.064 60.61Z" fill="#ACEEFA"/>
</g>
<g opacity="0.9">
<path d="M223.939 70.2508C223.928 70.2116 223.921 70.1716 223.917 70.1311C223.917 69.1877 223.917 68.2407 223.917 67.2973C223.917 67.1376 224.007 67.0904 224.198 67.1122C224.335 67.1195 224.473 67.1195 224.61 67.1122C224.696 67.1122 224.783 67.1122 224.87 67.1122H225.205H225.508H226.201C226.316 67.1122 226.432 67.1122 226.562 67.1122C226.692 67.1122 226.865 67.1122 227.016 67.134C227.038 67.134 227.063 67.1993 227.063 67.2319C227.063 67.5948 227.063 67.9286 227.063 68.2769C227.063 68.6253 227.063 69.0462 227.063 69.4272V70.1529C227.063 70.2436 227.009 70.2799 226.915 70.2762C226.822 70.2726 226.645 70.2762 226.508 70.2762H226.147H225.386C225.274 70.2762 225.158 70.2762 225.043 70.2762H224.772C224.657 70.2762 224.541 70.2762 224.411 70.2762C224.281 70.2762 224.18 70.2762 224.051 70.2762C224.013 70.27 223.975 70.2615 223.939 70.2508ZM224.92 68.1064C224.908 68.1577 224.899 68.2099 224.895 68.2624C224.895 68.5636 224.895 68.8648 224.895 69.1659C224.895 69.2603 224.942 69.2893 225.025 69.2857H225.173C225.299 69.2857 225.418 69.2857 225.534 69.2857C225.649 69.2857 225.79 69.2857 225.92 69.2857C226.049 69.2857 226.068 69.2566 226.071 69.155V68.8938C226.071 68.6543 226.071 68.4148 226.071 68.1681C226.071 68.1427 226.042 68.0955 226.028 68.0955C225.873 68.0955 225.718 68.0955 225.559 68.0774H225.169L224.92 68.1064Z" fill="#ACEEFA"/>
</g>
<path opacity="0.9" d="M230.657 64.5723H231.094H231.505H231.866C231.956 64.5723 232.054 64.5723 232.144 64.5723C232.234 64.5723 232.386 64.5723 232.505 64.5723C232.624 64.5723 232.725 64.5723 232.837 64.5723C232.948 64.5723 233.017 64.5723 233.107 64.5723C233.197 64.5723 233.345 64.5723 233.468 64.5723C233.55 64.5595 233.633 64.5652 233.713 64.5891C233.792 64.6129 233.865 64.6543 233.926 64.7102C234.341 65.1528 234.785 65.5737 235.214 66.0019L235.323 66.1071C235.292 66.1234 235.259 66.1356 235.225 66.1434H234.864H234.597C234.486 66.1434 234.374 66.1434 234.258 66.1434H233.897C233.807 66.1434 233.717 66.1434 233.627 66.1434H233.031C232.833 66.1434 232.635 66.1434 232.44 66.1434C232.44 66.1434 232.44 66.1434 232.414 66.1434C232.241 66.216 232.151 66.0926 232.054 65.991L230.78 64.721L230.657 64.5723Z" fill="#ACEEFA"/>
<path opacity="0.9" d="M228.969 64.1441L228.886 64.1623H226.544C226.357 64.1623 226.184 64.1623 225.982 64.1623C225.924 64.1576 225.87 64.1347 225.826 64.0969L224.448 62.7254C224.448 62.7072 224.416 62.6855 224.387 62.6492C224.433 62.6259 224.483 62.61 224.535 62.602H227.421C227.46 62.6061 227.497 62.6227 227.526 62.6492L228.933 64.0534C228.949 64.0819 228.961 64.1124 228.969 64.1441Z" fill="#ACEEFA"/>
<path opacity="0.9" d="M234.511 63.4221L233.862 64.0716C233.83 64.1002 233.795 64.1246 233.757 64.1441C233.715 64.159 233.671 64.1652 233.627 64.1623H230.95C230.906 64.1623 230.86 64.1623 230.82 64.1623C230.782 64.1553 230.744 64.1443 230.708 64.1296C230.723 64.0982 230.74 64.0679 230.759 64.0389L231.202 63.5962C231.469 63.3277 231.754 63.0701 232.007 62.7871C232.073 62.7139 232.155 62.6577 232.246 62.6229C232.338 62.5882 232.437 62.5761 232.534 62.5875C232.754 62.5875 232.97 62.5875 233.191 62.5875H234.049H234.609H235.168C235.193 62.5875 235.24 62.6165 235.236 62.6274C235.236 62.665 235.222 62.7011 235.197 62.729C234.969 62.9612 234.742 63.1862 234.511 63.4148V63.4221Z" fill="#ACEEFA"/>
<path opacity="0.9" d="M224.379 66.0854L224.494 65.9656L225.768 64.6957C225.806 64.6491 225.855 64.6128 225.91 64.59C225.966 64.5672 226.026 64.5586 226.086 64.565C226.292 64.5759 226.5 64.5759 226.706 64.565C226.901 64.565 227.089 64.565 227.284 64.565C227.406 64.565 227.529 64.565 227.644 64.565H227.976H228.269H228.629C228.712 64.5578 228.796 64.5578 228.878 64.565C228.9 64.565 228.925 64.6231 228.933 64.6558C228.94 64.6884 228.907 64.6957 228.886 64.7138C228.435 65.1674 227.984 65.6209 227.525 66.0709C227.471 66.1083 227.407 66.1285 227.341 66.1289C227.233 66.1362 227.125 66.1362 227.017 66.1289H226.627C226.533 66.1289 226.439 66.1289 226.345 66.1289C226.147 66.1289 225.948 66.1289 225.746 66.1289C225.544 66.1289 225.353 66.1289 225.151 66.1289H224.826C224.722 66.1289 224.603 66.1289 224.491 66.1289C224.452 66.1191 224.414 66.1044 224.379 66.0854Z" fill="#ACEEFA"/>
<path opacity="0.9" d="M228.078 58.901L228.197 59.0062L229.539 60.3451C229.57 60.3712 229.594 60.405 229.608 60.4431C229.622 60.4801 229.629 60.5195 229.629 60.5592C229.629 61.0745 229.629 61.5933 229.629 62.1086C229.629 62.5476 229.629 62.983 229.629 63.4185C229.629 63.4475 229.629 63.4729 229.629 63.5273L229.51 63.4366C229.085 63.0121 228.67 62.5803 228.233 62.1703C228.173 62.1139 228.126 62.0442 228.098 61.9668C228.069 61.8893 228.058 61.8062 228.067 61.724V60.7951C228.067 60.5193 228.067 60.2472 228.067 59.9714C228.067 59.6956 228.067 59.3945 228.067 59.1042C228.056 59.0461 228.067 58.9917 228.078 58.901Z" fill="#ACEEFA"/>
<path opacity="0.9" d="M231.56 69.8082L231.463 69.7284L230.11 68.3786C230.08 68.3495 230.057 68.315 230.041 68.277C230.032 68.2363 230.032 68.1942 230.041 68.1536C230.041 67.9504 230.041 67.7472 230.041 67.544C230.041 67.4352 230.041 67.3263 230.041 67.2211C230.041 67.1159 230.041 66.9635 230.041 66.8328C230.041 66.7022 230.041 66.655 230.041 66.5643C230.041 66.372 230.041 66.1725 230.041 65.9765C230.041 65.7806 230.041 65.5738 230.041 65.3742C230.044 65.3197 230.055 65.266 230.073 65.2145L230.185 65.2944L231.513 66.6188C231.554 66.6519 231.586 66.6959 231.604 66.7459C231.621 66.7958 231.625 66.8498 231.614 66.9018C231.602 67.0127 231.602 67.1247 231.614 67.2356V67.4932C231.614 67.613 231.614 67.7327 231.614 67.8561C231.614 67.9794 231.614 68.0847 231.614 68.1971C231.614 68.3096 231.614 68.3677 231.614 68.4548C231.614 68.5418 231.614 68.687 231.614 68.8176C231.614 68.9482 231.614 69.0607 231.614 69.1805V69.4961C231.614 69.5542 231.614 69.6159 231.614 69.6739C231.601 69.7205 231.583 69.7655 231.56 69.8082Z" fill="#ACEEFA"/>
<path opacity="0.9" d="M231.56 58.9228C231.578 58.9795 231.591 59.0378 231.6 59.0969C231.607 59.1645 231.607 59.2326 231.6 59.3001C231.6 59.4235 231.6 59.5469 231.6 59.663C231.6 59.7791 231.6 59.8843 231.6 59.9968C231.6 60.1093 231.6 60.1782 231.6 60.2653C231.6 60.3524 231.6 60.5048 231.6 60.6281C231.6 60.7515 231.6 60.8495 231.6 60.962C231.6 61.0744 231.6 61.1579 231.6 61.2522C231.6 61.3466 231.6 61.4917 231.6 61.6151C231.587 61.7041 231.587 61.7945 231.6 61.8836C231.607 61.9232 231.603 61.964 231.589 62.0017C231.575 62.0395 231.551 62.0726 231.52 62.0977L230.167 63.4438C230.142 63.4692 230.091 63.4729 230.055 63.4838C230.053 63.4487 230.053 63.4136 230.055 63.3785C230.055 63.2588 230.055 63.1427 230.055 63.0157C230.055 62.8887 230.055 62.7726 230.055 62.6528C230.055 62.5331 230.055 62.3916 230.055 62.261C230.055 62.1303 230.055 62.0832 230.055 61.9924C230.055 61.9017 230.055 61.7711 230.055 61.6586C230.055 61.5461 230.055 61.4083 230.055 61.2958C230.055 61.1833 230.055 61.089 230.055 60.9837C230.066 60.863 230.066 60.7416 230.055 60.6209C230.043 60.5733 230.043 60.5233 230.055 60.4757C230.073 60.4308 230.102 60.391 230.138 60.3596L231.405 59.0933L231.56 58.9228Z" fill="#ACEEFA"/>
<path opacity="0.9" d="M229.59 65.2218C229.609 65.2557 229.622 65.2924 229.63 65.3306C229.63 65.6935 229.63 66.0563 229.63 66.4192C229.63 66.782 229.63 67.1449 229.63 67.5077C229.63 67.7544 229.63 67.9939 229.63 68.2334C229.623 68.2916 229.596 68.3457 229.554 68.3858C229.107 68.8406 228.656 69.2905 228.201 69.7356C228.17 69.7567 228.136 69.7715 228.1 69.7791C228.085 69.7416 228.074 69.7027 228.067 69.663C228.067 69.4526 228.067 69.2421 228.067 69.0317V68.4729C228.067 68.2697 228.067 68.0701 228.067 67.8706C228.067 67.671 228.067 67.4533 228.067 67.2465C228.067 67.1303 228.067 67.0106 228.067 66.8836C228.068 66.8063 228.093 66.7313 228.14 66.6695C228.605 66.1906 229.078 65.7225 229.547 65.2508L229.59 65.2218Z" fill="#ACEEFA"/>
<path opacity="0.9" d="M232.17 46.5061H227.446V51.2195H232.17V46.5061Z" fill="#ACEEFA"/>
<g opacity="0.9">
<path d="M237.008 56.0853V41.7238H222.611V56.0853H237.008ZM223.918 50.8748H226.602V49.4887H223.918V48.2986H226.602V46.8472H223.918V45.6607H226.602V43.1207H227.796V45.6607H229.175V43.1207H230.365V45.6607H231.83V43.1207H233.018V45.6607H235.706V46.8472H233.018V48.2986H235.706V49.4887H233.018V50.8675H235.706V52.054H233.018V54.8842H231.83V52.0504H230.365V54.8806H229.175V52.0504H227.793V54.8806H226.602V52.0504H223.918V50.8748Z" fill="#ACEEFA"/>
</g>
</g>
</g>
<defs>
<clipPath id="clip0_49_1799">
<rect width="414" height="107" fill="white"/>
</clipPath>
</defs>
</svg>
