<svg width="958" height="247" viewBox="0 0 958 247" fill="none" xmlns="http://www.w3.org/2000/svg">
<g clip-path="url(#clip0_233_5385)">
<mask id="mask0_233_5385" style="mask-type:luminance" maskUnits="userSpaceOnUse" x="0" y="-1" width="439" height="239">
<path d="M438.325 -0.334961H0V237.418H438.325V-0.334961Z" fill="white"/>
</mask>
<g mask="url(#mask0_233_5385)">
<path d="M237.11 182.555H214.566V227.249H208.304V176.859H237.127L237.11 182.555Z" fill="white"/>
<path d="M245.117 204.827C245.117 217.315 249.292 222.132 257.049 222.132C264.805 222.132 268.988 217.315 268.988 204.827V199.282C268.988 186.793 264.764 181.969 257.049 181.969C249.334 181.969 245.117 186.793 245.117 199.282V204.827ZM257.04 227.836C245.91 227.836 238.847 221.135 238.847 204.827V199.282C238.847 182.991 245.91 176.273 257.04 176.273C268.17 176.273 275.234 182.974 275.234 199.282V204.827C275.242 221.11 268.187 227.836 257.04 227.836Z" fill="white"/>
<path d="M301.093 202.347C309.601 202.347 313.091 198.696 313.091 192.489C313.091 186.282 309.601 182.555 301.093 182.555H291.34V202.347H301.093ZM291.34 208.052V227.249H285.078V176.868H301.093C312.665 176.868 319.353 182.731 319.353 192.497C319.353 202.264 312.732 208.052 301.093 208.052H291.34Z" fill="white"/>
<path d="M331.585 204.827C331.585 217.315 335.81 222.132 343.516 222.132C351.223 222.132 355.456 217.315 355.456 204.827V199.282C355.456 186.793 351.231 181.969 343.516 181.969C335.801 181.969 331.585 186.793 331.585 199.282V204.827ZM343.516 227.836C332.386 227.836 325.323 221.135 325.323 204.827V199.282C325.323 182.991 332.386 176.273 343.516 176.273C354.646 176.273 361.71 182.974 361.71 199.282V204.827C361.71 221.11 354.655 227.836 343.516 227.836Z" fill="white"/>
<path d="M376.271 221.554H399.817V182.555H382.283V188.418C382.283 201.502 381.114 210.263 379.227 215.875C378.6 217.935 377.598 219.86 376.271 221.554ZM366.085 236.739V221.554H368.264C370.527 220.23 372.489 216.369 373.583 212.859C375.111 207.968 375.988 199.642 375.988 188.393V176.859H406.113V221.554H412.341V236.739H406.088V227.249H372.347V236.739H366.085Z" fill="white"/>
<path d="M239.206 92.1025L222.189 133.807C219.367 140.717 216.403 142.819 207.853 142.819V137.082C212.863 137.082 214.8 136.579 216.829 131.562L217.054 130.976L199.888 92.1025H206.693L220.235 123.094L232.685 92.1025H239.206Z" fill="white"/>
<path d="M267.427 123.353L282.339 92.1025H288.501V142.241H282.273V105.479L270.107 131.78H264.555L252.582 105.697V142.241H246.353V92.1025H252.44L267.427 123.353Z" fill="white"/>
<path d="M307.021 113.47H328.446V92.1108H334.691V142.241H328.462V119.14H307.021V142.241H300.784V92.1108H307.021V113.47Z" fill="white"/>
<path d="M390.842 142.241H384.621V92.1024H390.842V142.241ZM353.194 117.591V136.562H361.668C369.183 136.562 372.673 132.559 372.673 127.114C372.673 121.67 369.2 117.591 361.668 117.591H353.194ZM353.194 92.0941V111.928H361.668C374.485 111.928 378.893 119.844 378.893 127.114C378.893 134.385 374.485 142.191 361.668 142.191H346.965V92.0605L353.194 92.0941Z" fill="white"/>
<path d="M434.126 78.3743C434.126 85.6446 429.492 88.6935 421.526 88.6935C413.561 88.6935 408.852 85.6446 408.852 78.3743H414.796C414.796 81.2807 416.024 84.1872 421.526 84.1872C427.029 84.1872 428.264 81.2807 428.264 78.3743H434.126ZM409.361 92.1026V129.795L433.115 92.1026H438.325V142.241H432.097V104.893L408.493 142.241H403.157V92.1026H409.361Z" fill="white"/>
<path d="M239.206 92.1025L222.189 133.807C219.367 140.717 216.403 142.819 207.853 142.819V137.082C212.863 137.082 214.8 136.579 216.829 131.562L217.054 130.976L199.888 92.1025H206.693L220.235 123.094L232.685 92.1025H239.206Z" fill="white"/>
<path d="M267.427 123.353L282.339 92.1025H288.501V142.241H282.273V105.479L270.107 131.78H264.555L252.582 105.697V142.241H246.353V92.1025H252.44L267.427 123.353Z" fill="white"/>
<path d="M307.021 113.47H328.446V92.1108H334.691V142.241H328.462V119.14H307.021V142.241H300.784V92.1108H307.021V113.47Z" fill="white"/>
<path d="M390.842 142.241H384.621V92.1024H390.842V142.241ZM353.194 117.591V136.562H361.668C369.183 136.562 372.673 132.559 372.673 127.114C372.673 121.67 369.2 117.591 361.668 117.591H353.194ZM353.194 92.0941V111.928H361.668C374.485 111.928 378.893 119.844 378.893 127.114C378.893 134.385 374.485 142.191 361.668 142.191H346.965V92.0605L353.194 92.0941Z" fill="white"/>
<path d="M434.126 78.3743C434.126 85.6446 429.492 88.6935 421.526 88.6935C413.561 88.6935 408.852 85.6446 408.852 78.3743H414.796C414.796 81.2807 416.024 84.1872 421.526 84.1872C427.029 84.1872 428.264 81.2807 428.264 78.3743H434.126ZM409.361 92.1026V129.795L433.115 92.1026H438.325V142.241H432.097V104.893L408.493 142.241H403.157V92.1026H409.361Z" fill="white"/>
<path d="M237.11 182.555H214.566V227.249H208.304V176.859H237.127L237.11 182.555Z" fill="white"/>
<path d="M245.117 204.827C245.117 217.315 249.292 222.132 257.049 222.132C264.805 222.132 268.988 217.315 268.988 204.827V199.282C268.988 186.793 264.764 181.969 257.049 181.969C249.334 181.969 245.117 186.793 245.117 199.282V204.827ZM257.04 227.836C245.91 227.836 238.847 221.135 238.847 204.827V199.282C238.847 182.991 245.91 176.273 257.04 176.273C268.17 176.273 275.234 182.974 275.234 199.282V204.827C275.242 221.11 268.187 227.836 257.04 227.836Z" fill="white"/>
<path d="M301.093 202.347C309.601 202.347 313.091 198.696 313.091 192.489C313.091 186.282 309.601 182.555 301.093 182.555H291.34V202.347H301.093ZM291.34 208.052V227.249H285.078V176.868H301.093C312.665 176.868 319.353 182.731 319.353 192.497C319.353 202.264 312.732 208.052 301.093 208.052H291.34Z" fill="white"/>
<path d="M331.585 204.827C331.585 217.315 335.81 222.132 343.516 222.132C351.223 222.132 355.456 217.315 355.456 204.827V199.282C355.456 186.793 351.231 181.969 343.516 181.969C335.801 181.969 331.585 186.793 331.585 199.282V204.827ZM343.516 227.836C332.386 227.836 325.323 221.135 325.323 204.827V199.282C325.323 182.991 332.386 176.273 343.516 176.273C354.646 176.273 361.71 182.974 361.71 199.282V204.827C361.71 221.11 354.655 227.836 343.516 227.836Z" fill="white"/>
<path d="M376.271 221.554H399.817V182.555H382.283V188.418C382.283 201.502 381.114 210.263 379.227 215.875C378.6 217.935 377.598 219.86 376.271 221.554ZM366.085 236.739V221.554H368.264C370.527 220.23 372.489 216.369 373.583 212.859C375.111 207.968 375.988 199.642 375.988 188.393V176.859H406.113V221.554H412.341V236.739H406.088V227.249H372.347V236.739H366.085Z" fill="white"/>
<path fill-rule="evenodd" clip-rule="evenodd" d="M0 177.01H17.4672V112.465H0V177.01Z" fill="white"/>
<path fill-rule="evenodd" clip-rule="evenodd" d="M104.762 207.055H122.221V142.501H104.762V207.055Z" fill="white"/>
<path fill-rule="evenodd" clip-rule="evenodd" d="M78.5774 0C57.7344 0.00444248 37.7467 8.31425 23.0108 23.1016C8.27496 37.8889 -0.00221431 57.9426 4.44341e-07 78.8517V92.0272H17.4672V78.8433C17.4661 70.7917 19.0459 62.8186 22.1164 55.3795C25.1869 47.9403 29.6879 41.1807 35.3625 35.4865C41.0371 29.7924 47.7742 25.2752 55.189 22.1929C62.6038 19.1107 70.5512 17.5237 78.5774 17.5226C86.6047 17.5237 94.5532 19.1109 101.969 22.1936C109.385 25.2762 116.123 29.794 121.798 35.489C127.474 41.1839 131.975 47.9444 135.046 55.3846C138.117 62.8248 139.697 70.799 139.696 78.8517V142.4H157.163V78.8517C157.164 68.4978 155.133 58.2452 151.184 48.679C147.235 39.1129 141.447 30.4207 134.149 23.0986C126.852 15.7765 118.189 9.96808 108.653 6.00481C99.1184 2.04155 88.8986 0.00109989 78.5774 0Z" fill="white"/>
<path fill-rule="evenodd" clip-rule="evenodd" d="M69.8438 227.568H87.311V206.988H69.8438V227.568Z" fill="white"/>
<path fill-rule="evenodd" clip-rule="evenodd" d="M69.8438 186.416H87.311V122.198H69.8438V186.416Z" fill="white"/>
<path fill-rule="evenodd" clip-rule="evenodd" d="M52.4017 95.1683C52.4006 91.7181 53.0771 88.3015 54.3925 85.1137C55.7079 81.9258 57.6364 79.0292 60.0679 76.5892C62.4995 74.1491 65.3863 72.2136 68.5637 70.893C71.741 69.5724 75.1466 68.8927 78.5858 68.8927C82.0251 68.8927 85.4307 69.5724 88.608 70.893C91.7854 72.2136 94.6722 74.1491 97.1038 76.5892C99.5353 79.0292 101.464 81.9258 102.779 85.1137C104.095 88.3015 104.771 91.7181 104.77 95.1683V122.064H122.229V95.1683C122.23 89.4177 121.102 83.7232 118.909 78.41C116.717 73.0967 113.502 68.2688 109.45 64.2018C105.397 60.1347 100.585 56.9083 95.2899 54.7066C89.9943 52.505 84.3182 51.3712 78.5858 51.3701C72.8535 51.3712 67.1775 52.505 61.8818 54.7066C56.5862 56.9083 51.7748 60.1347 47.7221 64.2018C43.6695 68.2688 40.4551 73.0967 38.2624 78.41C36.0698 83.7232 34.9418 89.4177 34.9429 95.1683V207.055H52.4101V95.1683H52.4017Z" fill="white"/>
</g>
<path d="M672.446 66.1536L648.483 122.147C645.878 128.203 642.079 132.492 635.483 132.492H629.721V126.151H633.896C638.447 126.151 640.676 124.107 642.621 119.542L645.318 113.294L623.493 66.1536H631.007L648.842 105.378L664.906 66.1536H672.446ZM738.566 132.492H731.511V82.0847L713.4 122.055H707.355L688.986 82.0847V132.492H681.923V66.1536H688.986L710.528 113.202L731.527 66.1536H738.583L738.566 132.492ZM802.315 132.492H795.259V102.212H763.857V132.492H756.801V66.1536H763.857V95.8716H795.251V66.1536H802.306L802.315 132.492ZM866.606 132.492H859.091L853.789 117.49H824.908L819.615 132.492H812.1L836.431 66.1536H842.342L866.606 132.492ZM851.744 111.342L839.487 76.3053L827.038 111.342H851.744ZM894.685 105.194L880.291 132.492H872.025L887.271 104.189C878.537 102.045 873.077 95.1513 873.077 85.6529C873.077 73.8176 881.243 66.1787 893.5 66.1787H918.114V132.517H911.059V105.194H894.685ZM911.034 98.8535V72.3602H894.109C885.292 72.3602 880.09 77.302 880.09 85.5943C880.09 93.8865 885.292 98.82 894.109 98.82L911.034 98.8535ZM675.694 207.608C673.565 220.088 664.556 227.358 652.758 227.358C649.625 227.394 646.518 226.803 643.616 225.619C640.714 224.436 638.077 222.683 635.858 220.465C629.63 214.216 629.63 207.7 629.63 193.661C629.63 179.623 629.63 173.073 635.858 166.858C638.077 164.64 640.714 162.887 643.616 161.704C646.518 160.52 649.625 159.929 652.758 159.965C664.647 159.965 673.473 167.235 675.694 179.715H668.455C666.685 171.616 661.024 166.314 652.758 166.314C650.64 166.29 648.538 166.689 646.575 167.489C644.613 168.288 642.829 169.472 641.327 170.971C637.152 175.259 636.685 179.824 636.685 193.703C636.685 207.582 637.152 212.131 641.327 216.436C642.829 217.935 644.613 219.119 646.575 219.918C648.538 220.718 650.64 221.117 652.758 221.093C661.024 221.093 666.877 215.783 668.622 207.691L675.694 207.608ZM727.954 166.791H708.816V226.797H701.761V166.791H682.624V160.459H727.954V166.791ZM784.405 179.933C784.405 191.66 776.231 199.5 763.974 199.5H746.44V226.797H739.384V160.459H763.999C776.264 160.459 784.438 168.282 784.438 179.933H784.405ZM777.349 179.933C777.349 171.641 772.148 166.791 763.322 166.791H746.414V193.159H763.322C772.206 193.159 777.383 188.225 777.383 179.933H777.349ZM838.376 226.797H830.862L825.568 211.796H796.687L791.41 226.797H783.895L808.234 160.459H814.179L838.376 226.797ZM823.514 205.648L811.257 170.611L798.808 205.648H823.514ZM893.65 226.797H886.595V196.518H855.201V226.797H848.187V160.459H855.242V190.177H886.637V160.459H893.692L893.65 226.797ZM957.941 226.797H950.427L945.133 211.796H916.244L910.95 226.797H903.436L927.775 160.459H933.719L957.941 226.797ZM943.079 205.648L930.847 170.611L918.398 205.648H943.079Z" fill="white"/>
<mask id="mask1_233_5385" style="mask-type:luminance" maskUnits="userSpaceOnUse" x="505" y="51" width="53" height="197">
<path d="M557.798 51.9814H505.848V247.243H557.798V51.9814Z" fill="white"/>
</mask>
<g mask="url(#mask1_233_5385)">
<path opacity="0.9" d="M509.613 51.9814H507.751V247H509.613V51.9814Z" fill="white"/>
<path opacity="0.9" d="M506.786 51.9812H505.848V247H506.786V51.9812Z" fill="white"/>
<path opacity="0.9" d="M555.97 51.9814H554.108V247H555.97V51.9814Z" fill="white"/>
<path opacity="0.9" d="M557.809 51.9814H556.872V247H557.809V51.9814Z" fill="white"/>
<path opacity="0.9" d="M534.244 216.402H528.892V221.771H534.194L534.244 216.402Z" fill="white"/>
<g opacity="0.9">
<path d="M522.188 230.332H523.298V235.734H524.793V230.399H525.895V235.692H527.398V230.407H528.508V235.692H530.053V230.474H531.163V235.692H532.616V230.508H533.727V235.676H535.171V230.533H536.282V235.667H537.584V230.549H538.695V235.65H540.014V230.558H541.124V235.634H543.02V230.307H548.255V228.682H542.728V227.584H548.255V226.261H542.728V225.164H548.255V223.882H542.728V222.785H548.247V221.344H542.744V220.247H548.247V218.798H542.744V217.709H548.238V216.168H542.778V215.062H548.238V213.554H542.811V212.457H548.238V210.966H542.853V209.727H548.238V207.842H542.869V202.431H541.007V207.356H539.897V202.431H538.578V207.356H537.467V202.431H536.181V207.348H535.079V202.431H533.635V207.331H532.524V202.431H531.072V207.323H529.969V202.431H528.4V207.289H527.298V202.431H525.786V207.264H524.676V202.431H523.181V207.222H522.071V202.44H520.334L520.284 207.708H514.974V209.727H520.376V210.832H514.974V212.323H520.334V213.42H514.974V214.928H520.301V216.025H514.974V217.567H520.267V218.664H514.974V220.113H520.251V221.219H514.974V222.651H520.242V223.756H514.974V225.03H520.234V226.135H514.974V227.45H520.234V228.548H514.974V230.474H520.309L520.251 235.734H522.188V230.332ZM525.578 225.021V213.119H537.442L537.334 225.021H525.578Z" fill="white"/>
</g>
<g opacity="0.9">
<path d="M525.385 193.812H529.886V200.237H533.835V193.812H538.327V200.237H548.121V190.294H541.483V185.822H548.121V181.885H541.483V177.412H548.121V167.604H538.335V174.045H533.843V167.604H529.886V174.045H525.385V167.604H515.366V177.412H521.661V181.885H515.366V185.813H521.661V190.294H515.366V200.203H525.385V193.812ZM545.107 193.603V197.255H541.433V193.603H545.107ZM518.472 174.338V170.686H522.146V174.338H518.472ZM541.433 170.594H545.107V174.246H541.433V170.594ZM524.291 176.457H539.154V191.299H524.291V176.457ZM518.447 197.087V193.435H522.12V197.087H518.447Z" fill="white"/>
</g>
<g opacity="0.9">
<path d="M539.864 94.1378H541.876V87.5961H548.088V85.7618H541.801V83.9944H548.079V82.4114H541.759V80.644H548.046V78.8851H541.759V77.1177H548.046V75.3839H541.759V73.6166H548.046V71.7906H541.759V70.0232H548.046V68.0297H541.859V61.6724H539.83V67.7198H538.052V61.6724H536.215V67.7198H534.436V61.6724H532.7V67.7198H530.93V61.6724H529.151V67.7198H527.389V61.6724H525.719V67.7198H523.949V61.6724H522.146V68.3146H515.391V69.9898H521.536V71.7571H515.391V73.583H521.536V75.3504H515.391V77.0842H521.536V78.8516H515.391V80.6105H521.536V82.4114H515.391V84.0279H521.536V85.7618H515.391V87.638H522.071V94.1378H523.958V87.9898H525.728V94.1378H527.398V87.9898H529.235V94.1378H531.005V87.9898H532.783V94.1378H534.512V87.9898H536.298V94.1378H538.135V87.9898H539.905L539.864 94.1378ZM523.858 85.7618V69.906H539.78V85.7618H523.858Z" fill="white"/>
</g>
<g opacity="0.9">
<path d="M537.083 72.3604H525.953V83.4502H537.083V72.3604ZM528.784 75.0826H534.353V80.6275H528.784V75.0826Z" fill="white"/>
</g>
<g opacity="0.9">
<path d="M535.914 179.657H527.431V188.108H535.914V179.657ZM529.594 181.734H533.835V185.922H529.594V181.734Z" fill="white"/>
</g>
<g opacity="0.9">
<path d="M516.835 132.065H515.166V134.862C515.166 135.113 515.166 135.365 515.166 135.616C515.166 136.093 515.166 136.562 515.166 137.04C515.166 137.517 515.166 137.928 515.166 138.372V139.997C515.166 140.214 515.166 140.432 515.166 140.65C515.166 141.127 515.166 141.605 515.166 142.082C515.166 142.56 515.166 142.962 515.166 143.406V145.659C515.166 146.136 515.166 146.622 515.166 147.108C515.166 147.594 515.166 147.945 515.166 148.414V150.014C515.166 150.232 515.166 150.45 515.166 150.659C515.166 150.869 515.166 151.262 515.166 151.564C515.166 151.865 515.166 152.058 515.166 152.309C515.166 152.837 515.166 153.365 515.166 153.884V154.562C515.166 155.04 515.166 155.509 515.166 155.986C515.166 156.464 515.166 156.874 515.166 157.31C515.166 157.745 515.207 158.24 515.207 158.709C515.207 159.178 515.207 159.622 515.207 160.082C515.207 160.543 515.207 160.995 515.207 161.448C515.207 161.9 515.207 162.386 515.166 162.846C515.166 163.056 515.166 163.265 515.166 163.475V164.396V165.091H515.349H537.225H539.73H545.7H547.128C547.503 165.091 547.871 165.091 548.238 165.091C548.283 165.076 548.323 165.05 548.355 165.016C548.382 164.984 548.402 164.947 548.413 164.907C548.413 164.547 548.413 164.178 548.413 163.818C548.413 163.458 548.413 162.905 548.413 162.453C548.413 162 548.413 161.506 548.413 161.037V159.01C548.413 158.575 548.413 158.173 548.413 157.695C548.413 157.218 548.413 156.723 548.413 156.238C548.413 155.752 548.413 155.333 548.413 154.897C548.413 154.244 548.413 153.599 548.413 152.946C548.413 152.485 548.413 152.016 548.413 151.555C548.413 150.902 548.413 150.24 548.413 149.587C548.413 149.126 548.413 148.674 548.413 148.213C548.413 147.585 548.413 146.949 548.413 146.32C548.413 145.692 548.413 144.989 548.413 144.319C548.413 143.649 548.413 142.987 548.413 142.317V138.531C548.413 137.886 548.413 137.224 548.413 136.579C548.413 135.742 548.413 134.904 548.413 134.066C548.413 133.463 548.413 132.86 548.413 132.266C548.413 132.199 548.322 132.073 548.255 132.073C547.921 132.073 547.578 132.031 547.228 132.031H545.8C545.357 132.031 544.907 132.031 544.472 132.031H543.003C542.226 132.031 541.642 132.031 541.333 132.031L540.114 132.073H516.869M521.244 133.363H539.137H541.441H544.781H546.902C547.077 133.363 547.136 133.43 547.128 133.606C547.128 134.251 547.128 134.887 547.128 135.532C547.128 136.177 547.128 136.805 547.128 137.434C547.128 137.911 547.128 138.388 547.128 138.866C547.128 139.343 547.127 139.762 547.169 140.214C547.169 140.499 547.169 140.776 547.169 141.052C547.169 141.328 547.169 141.563 547.169 141.823C547.169 142.082 547.169 142.233 547.169 142.442C547.169 142.911 547.169 143.38 547.169 143.841C547.169 144.101 547.169 144.36 547.169 144.62C547.169 144.88 547.169 145.031 547.169 145.24C547.169 145.449 547.169 145.793 547.169 146.078C547.169 146.362 547.169 146.589 547.169 146.848C547.169 147.108 547.169 147.242 547.169 147.443C547.169 147.644 547.169 147.962 547.169 148.222C547.169 148.481 547.169 148.8 547.169 149.059C547.169 149.319 547.169 149.478 547.169 149.688C547.169 149.897 547.169 150.24 547.169 150.525C547.169 150.978 547.169 151.43 547.169 151.882C547.169 152.092 547.169 152.309 547.169 152.527C547.169 152.745 547.128 153.08 547.128 153.365C547.128 153.649 547.128 153.884 547.178 154.135C547.228 154.387 547.178 154.537 547.178 154.738C547.178 154.939 547.136 155.3 547.136 155.576C547.136 155.852 547.136 156.087 547.136 156.347V156.941C547.136 157.419 547.136 157.896 547.136 158.365C547.136 158.834 547.136 159.27 547.178 159.714C547.178 159.898 547.178 160.091 547.178 160.283C547.178 160.761 547.178 161.23 547.136 161.707C547.136 161.958 547.178 162.218 547.178 162.469C547.178 162.721 547.178 163.031 547.178 163.307V163.5C547.178 163.709 547.111 163.793 546.902 163.768C546.685 163.755 546.468 163.755 546.251 163.768C545.792 163.768 545.332 163.768 544.881 163.768C544.431 163.768 543.963 163.768 543.504 163.768H542.802H541.826H541.199C540.732 163.768 540.273 163.768 539.797 163.768C539.321 163.768 538.895 163.768 538.444 163.768C538.194 163.768 537.943 163.768 537.693 163.768H536.782H536.156H534.177C533.61 163.768 533.05 163.768 532.507 163.768C531.965 163.768 531.389 163.768 530.838 163.768H528.934C528.466 163.768 527.999 163.768 527.523 163.768C527.047 163.768 526.604 163.768 526.145 163.768C525.686 163.768 525.235 163.768 524.784 163.768C524.333 163.768 523.832 163.768 523.356 163.768H522.68H521.069C520.409 163.768 519.749 163.768 519.081 163.768H516.919C516.735 163.768 516.66 163.701 516.66 163.516V161.272C516.66 160.434 516.66 159.596 516.66 158.709C516.66 158.106 516.66 157.494 516.66 156.891V152.862C516.66 151.455 516.66 150.048 516.66 148.674C516.66 147.636 516.66 146.597 516.66 145.558V140.533C516.66 138.623 516.66 136.696 516.66 134.778V133.689C516.66 133.614 516.702 133.53 516.727 133.455C516.814 133.427 516.903 133.408 516.994 133.396H521.353L521.244 133.363Z" fill="white"/>
</g>
<g opacity="0.9">
<path d="M538.227 162.109C538.227 161.95 538.227 161.783 538.227 161.615C538.227 161.322 538.227 161.029 538.227 160.736V160.107C538.227 159.789 538.227 159.471 538.227 159.153C538.227 158.834 538.227 158.524 538.227 158.206C538.227 157.888 538.227 157.787 538.227 157.578C538.227 157.126 538.227 156.665 538.168 156.213C538.168 155.953 538.168 155.702 538.168 155.442C538.177 155.358 538.177 155.274 538.168 155.191C538.168 155.006 538.219 154.914 538.402 154.923C538.711 154.923 539.02 154.923 539.329 154.923H540.164C540.364 154.923 540.565 154.923 540.765 154.923H541.6H542.302H543.32C543.596 154.923 543.863 154.923 544.155 154.923H544.99C545.466 154.923 545.591 155.023 545.533 155.459C545.533 155.71 545.533 155.961 545.533 156.213C545.533 156.464 545.533 156.891 545.533 157.234C545.533 157.578 545.533 157.754 545.533 158.013C545.533 158.273 545.533 158.575 545.533 158.851C545.533 159.127 545.533 159.261 545.533 159.471C545.533 159.68 545.533 160.007 545.533 160.308C545.533 160.61 545.533 160.836 545.533 161.104C545.514 161.383 545.514 161.663 545.533 161.942C545.533 162.201 545.466 162.294 545.199 162.26C544.949 162.243 544.698 162.243 544.447 162.26H543.429H542.594C542.327 162.26 542.043 162.26 541.759 162.26H540.089H539.254H538.502C538.403 162.225 538.31 162.174 538.227 162.109ZM540.557 159.89L540.924 159.931H541.191H542.118C542.393 159.931 542.661 159.931 542.953 159.931C542.991 159.94 543.031 159.94 543.07 159.931C543.105 159.92 543.136 159.9 543.162 159.873C543.193 159.847 543.216 159.812 543.228 159.772C543.241 159.734 543.241 159.693 543.228 159.655C543.22 159.552 543.22 159.448 543.228 159.345C543.228 159.086 543.228 158.826 543.228 158.566C543.209 158.287 543.209 158.007 543.228 157.729C543.228 157.352 543.095 157.159 542.702 157.193C542.31 157.226 542.084 157.193 541.767 157.193C541.45 157.193 541.032 157.193 540.665 157.193C540.62 157.201 540.579 157.225 540.548 157.26C540.511 157.293 540.484 157.337 540.473 157.385C540.461 157.566 540.461 157.748 540.473 157.93V158.834C540.473 159.086 540.473 159.337 540.473 159.588C540.487 159.692 540.515 159.793 540.557 159.89Z" fill="white"/>
</g>
<g opacity="0.9">
<path d="M538.227 135.013C538.502 135.013 538.786 134.971 539.062 134.971C540.632 134.971 542.21 134.971 543.788 134.971H545.182C545.407 134.971 545.516 135.13 545.499 135.365C545.483 135.599 545.499 135.993 545.499 136.303C545.499 136.613 545.499 136.738 545.499 136.956C545.499 137.174 545.499 137.467 545.499 137.727C545.499 137.986 545.499 138.263 545.499 138.564V140.239C545.499 140.499 545.499 140.767 545.499 141.035C545.499 141.303 545.499 141.58 545.499 141.873C545.499 142.166 545.499 142.258 545.19 142.258H538.711C538.26 142.258 538.135 142.107 538.185 141.647C538.206 141.323 538.206 140.999 538.185 140.675V140.105C538.185 139.837 538.185 139.578 538.185 139.31C538.185 139.042 538.185 138.841 538.185 138.606C538.185 138.372 538.185 137.911 538.185 137.559C538.185 137.207 538.185 136.646 538.185 136.194C538.185 135.742 538.21 135.432 538.227 135.013ZM540.506 139.921C540.622 139.949 540.739 139.968 540.857 139.98H542.761C543.253 139.98 543.245 139.98 543.195 139.511C543.191 139.461 543.191 139.41 543.195 139.36C543.195 139.092 543.195 138.824 543.195 138.522C543.195 138.221 543.195 137.877 543.195 137.551C543.195 137.224 543.12 137.191 542.861 137.191H540.749C540.573 137.191 540.415 137.191 540.431 137.467C540.456 137.835 540.456 138.205 540.431 138.573C540.431 138.832 540.431 139.084 540.431 139.343C540.431 139.603 540.473 139.737 540.506 139.921Z" fill="white"/>
</g>
<g opacity="0.9">
<path d="M525.386 134.996C525.386 135.289 525.427 135.582 525.427 135.875V139.728C525.427 140.466 525.427 141.203 525.427 141.94C525.427 142.124 525.319 142.233 525.102 142.233H518.489C518.247 142.233 518.155 142.141 518.155 141.881C518.155 140.083 518.155 138.279 518.155 136.47V135.256C518.155 135.071 518.23 134.979 518.422 134.979H522.338L525.386 134.996ZM523.114 139.913C523.139 139.831 523.156 139.747 523.165 139.661C523.165 138.958 523.165 138.263 523.165 137.567C523.165 137.392 523.106 137.232 522.897 137.224H520.701C520.66 137.216 520.618 137.216 520.576 137.224C520.539 137.24 520.505 137.263 520.476 137.291C520.447 137.318 520.427 137.353 520.418 137.392C520.409 137.43 520.409 137.47 520.418 137.509C520.418 138.212 520.418 138.924 520.418 139.628C520.409 139.669 520.409 139.712 520.418 139.754C520.432 139.794 520.454 139.832 520.484 139.862C520.51 139.897 520.545 139.923 520.585 139.938C520.626 139.946 520.668 139.946 520.71 139.938H522.897C522.97 139.93 523.04 139.91 523.106 139.879L523.114 139.913Z" fill="white"/>
</g>
<g opacity="0.9">
<path d="M518.197 162.168C518.172 162.077 518.155 161.985 518.146 161.891C518.146 159.713 518.146 157.527 518.146 155.35C518.146 154.981 518.355 154.872 518.798 154.922C519.115 154.939 519.433 154.939 519.75 154.922C519.95 154.922 520.15 154.922 520.351 154.922H521.127H521.829H523.432C523.699 154.922 523.966 154.922 524.267 154.922C524.567 154.922 524.968 154.922 525.319 154.973C525.369 154.973 525.427 155.123 525.427 155.199C525.427 156.036 525.427 156.807 525.427 157.611C525.427 158.415 525.427 159.387 525.427 160.266V161.942C525.427 162.151 525.302 162.235 525.085 162.226C524.868 162.218 524.459 162.226 524.141 162.226H523.307H521.545C521.286 162.226 521.019 162.226 520.752 162.226H520.125C519.858 162.226 519.591 162.226 519.29 162.226C518.99 162.226 518.756 162.226 518.455 162.226C518.368 162.212 518.282 162.192 518.197 162.168ZM520.468 157.217C520.44 157.336 520.42 157.456 520.409 157.578C520.409 158.273 520.409 158.968 520.409 159.663C520.409 159.881 520.518 159.948 520.71 159.94H521.052C521.344 159.94 521.62 159.94 521.887 159.94C522.154 159.94 522.48 159.94 522.781 159.94C523.081 159.94 523.123 159.873 523.131 159.638V159.035C523.131 158.482 523.131 157.929 523.131 157.36C523.131 157.301 523.064 157.192 523.031 157.192C522.672 157.192 522.313 157.192 521.946 157.15H521.044L520.468 157.217Z" fill="white"/>
</g>
<path opacity="0.9" d="M533.743 149.059H534.753H535.705H536.54C536.749 149.059 536.974 149.059 537.183 149.059C537.392 149.059 537.743 149.059 538.018 149.059C538.294 149.059 538.527 149.059 538.786 149.059C539.045 149.059 539.204 149.059 539.412 149.059C539.621 149.059 539.963 149.059 540.247 149.059C540.437 149.03 540.63 149.043 540.813 149.098C540.997 149.153 541.166 149.249 541.308 149.378C542.268 150.399 543.295 151.371 544.289 152.359L544.539 152.602C544.468 152.64 544.392 152.668 544.314 152.686H543.479H542.861C542.602 152.686 542.343 152.686 542.076 152.686H541.241C541.032 152.686 540.824 152.686 540.615 152.686H539.237C538.778 152.686 538.319 152.686 537.868 152.686C537.868 152.686 537.868 152.686 537.809 152.686C537.409 152.854 537.2 152.569 536.974 152.334L534.027 149.403L533.743 149.059Z" fill="white"/>
<path opacity="0.9" d="M529.836 148.071L529.644 148.113H524.225C523.791 148.113 523.39 148.113 522.922 148.113C522.79 148.102 522.664 148.049 522.563 147.962L519.374 144.796C519.374 144.754 519.299 144.704 519.232 144.62C519.34 144.566 519.455 144.53 519.574 144.511H526.254C526.344 144.521 526.429 144.559 526.496 144.62L529.752 147.862C529.789 147.927 529.818 147.998 529.836 148.071Z" fill="white"/>
<path opacity="0.9" d="M542.661 146.404L541.158 147.903C541.085 147.97 541.003 148.026 540.916 148.071C540.819 148.105 540.717 148.12 540.615 148.113H534.42C534.32 148.113 534.211 148.113 534.119 148.113C534.031 148.097 533.944 148.071 533.86 148.037C533.894 147.965 533.933 147.895 533.977 147.828L535.004 146.806C535.622 146.186 536.282 145.592 536.866 144.938C537.018 144.769 537.208 144.64 537.42 144.559C537.632 144.479 537.86 144.451 538.085 144.478C538.595 144.478 539.096 144.478 539.605 144.478H541.592H542.886H544.18C544.239 144.478 544.347 144.545 544.339 144.57C544.338 144.657 544.305 144.74 544.247 144.804C543.721 145.34 543.195 145.86 542.661 146.387V146.404Z" fill="white"/>
<path opacity="0.9" d="M519.215 152.552L519.482 152.276L522.429 149.344C522.517 149.237 522.631 149.153 522.759 149.1C522.887 149.047 523.026 149.028 523.164 149.043C523.643 149.068 524.122 149.068 524.6 149.043C525.051 149.043 525.485 149.043 525.936 149.043C526.22 149.043 526.504 149.043 526.771 149.043H527.539H528.216H529.051C529.242 149.026 529.435 149.026 529.627 149.043C529.677 149.043 529.735 149.177 529.752 149.252C529.769 149.327 529.693 149.344 529.643 149.386C528.6 150.433 527.556 151.48 526.496 152.519C526.37 152.605 526.222 152.652 526.07 152.653C525.82 152.669 525.569 152.669 525.318 152.653H524.417C524.199 152.653 523.982 152.653 523.765 152.653C523.306 152.653 522.847 152.653 522.379 152.653C521.912 152.653 521.469 152.653 521.002 152.653H520.25C520.008 152.653 519.733 152.653 519.474 152.653C519.384 152.63 519.297 152.596 519.215 152.552Z" fill="white"/>
<path opacity="0.9" d="M527.773 135.968L528.049 136.21L531.155 139.301C531.226 139.361 531.281 139.439 531.313 139.527C531.347 139.613 531.364 139.704 531.364 139.795C531.364 140.985 531.364 142.183 531.364 143.372C531.364 144.385 531.364 145.391 531.364 146.396C531.364 146.463 531.364 146.521 531.364 146.647L531.088 146.438C530.103 145.458 529.143 144.461 528.132 143.514C527.993 143.384 527.886 143.223 527.819 143.045C527.752 142.866 527.728 142.674 527.748 142.484V140.34C527.748 139.703 527.748 139.075 527.748 138.438C527.748 137.802 527.748 137.107 527.748 136.437C527.723 136.303 527.748 136.177 527.773 135.968Z" fill="white"/>
<path opacity="0.9" d="M535.831 161.146L535.605 160.962L532.474 157.846C532.406 157.779 532.353 157.699 532.315 157.611C532.295 157.518 532.295 157.42 532.315 157.327C532.315 156.858 532.315 156.388 532.315 155.919C532.315 155.668 532.315 155.417 532.315 155.174C532.315 154.931 532.315 154.579 532.315 154.278C532.315 153.976 532.315 153.867 532.315 153.658C532.315 153.214 532.315 152.753 532.315 152.301C532.315 151.849 532.315 151.371 532.315 150.911C532.324 150.785 532.349 150.661 532.391 150.542L532.649 150.726L535.722 153.784C535.818 153.86 535.89 153.962 535.931 154.077C535.973 154.192 535.981 154.317 535.956 154.437C535.927 154.693 535.927 154.951 535.956 155.207V155.802C535.956 156.079 535.956 156.355 535.956 156.64C535.956 156.925 535.956 157.167 535.956 157.427C535.956 157.687 535.956 157.821 535.956 158.022C535.956 158.223 535.956 158.558 535.956 158.859C535.956 159.161 535.956 159.421 535.956 159.697V160.426C535.956 160.56 535.956 160.702 535.956 160.836C535.925 160.944 535.883 161.048 535.831 161.146Z" fill="white"/>
<path opacity="0.9" d="M535.83 136.018C535.873 136.149 535.904 136.283 535.922 136.42C535.939 136.576 535.939 136.733 535.922 136.889C535.922 137.174 535.922 137.459 535.922 137.727C535.922 137.995 535.922 138.237 535.922 138.497C535.922 138.757 535.922 138.916 535.922 139.117C535.922 139.318 535.922 139.67 535.922 139.955C535.922 140.239 535.922 140.465 535.922 140.725C535.922 140.985 535.922 141.177 535.922 141.395C535.922 141.613 535.922 141.948 535.922 142.233C535.893 142.438 535.893 142.647 535.922 142.853C535.939 142.944 535.931 143.038 535.899 143.125C535.867 143.212 535.811 143.289 535.739 143.347L532.607 146.454C532.549 146.513 532.432 146.521 532.349 146.546C532.344 146.466 532.344 146.384 532.349 146.304C532.349 146.027 532.349 145.759 532.349 145.466C532.349 145.173 532.349 144.905 532.349 144.628C532.349 144.352 532.349 144.025 532.349 143.724C532.349 143.422 532.349 143.313 532.349 143.104C532.349 142.895 532.349 142.593 532.349 142.333C532.349 142.074 532.349 141.755 532.349 141.496C532.349 141.236 532.349 141.018 532.349 140.775C532.373 140.497 532.373 140.216 532.349 139.938C532.32 139.828 532.32 139.713 532.349 139.603C532.39 139.499 532.456 139.407 532.541 139.335L535.471 136.411L535.83 136.018Z" fill="white"/>
<path opacity="0.9" d="M531.272 150.559C531.315 150.637 531.346 150.722 531.363 150.81C531.363 151.647 531.363 152.485 531.363 153.323C531.363 154.16 531.363 154.998 531.363 155.835C531.363 156.405 531.363 156.958 531.363 157.511C531.348 157.645 531.286 157.77 531.188 157.862C530.153 158.912 529.109 159.951 528.057 160.978C527.987 161.027 527.907 161.061 527.823 161.079C527.789 160.992 527.764 160.902 527.748 160.811C527.748 160.325 527.748 159.839 527.748 159.353V158.063C527.748 157.594 527.748 157.134 527.748 156.673C527.748 156.212 527.748 155.71 527.748 155.232C527.748 154.964 527.748 154.688 527.748 154.395C527.75 154.216 527.808 154.043 527.915 153.901C528.992 152.795 530.086 151.714 531.171 150.626L531.272 150.559Z" fill="white"/>
<path opacity="0.9" d="M537.242 107.355H526.312V118.236H537.242V107.355Z" fill="white"/>
<g opacity="0.9">
<path d="M548.439 129.468V96.3157H515.124V129.468H548.439ZM518.147 117.44H524.359V114.24H518.147V111.493H524.359V108.143H518.147V105.404H524.359V99.5404H527.122V105.404H530.312V99.5404H533.067V105.404H536.457V99.5404H539.204V105.404H545.424V108.143H539.204V111.493H545.424V114.24H539.204V117.423H545.424V120.162H539.204V126.695H536.457V120.154H533.067V126.687H530.312V120.154H527.114V126.687H524.359V120.154H518.147V117.44Z" fill="white"/>
</g>
</g>
</g>
<defs>
<clipPath id="clip0_233_5385">
<rect width="958" height="247" fill="white"/>
</clipPath>
</defs>
</svg>
