<svg width="3401" height="2160" viewBox="0 0 3401 2160" fill="none" xmlns="http://www.w3.org/2000/svg">
<g opacity="0.5">
<mask id="mask0_14_3694" style="mask-type:luminance" maskUnits="userSpaceOnUse" x="0" y="-3237" width="6901" height="6901">
<path d="M1455.92 -3237L0 -1781.08L5444.46 3663.38L6900.38 2207.46L1455.92 -3237Z" fill="white"/>
</mask>
<g mask="url(#mask0_14_3694)">
<g opacity="0.9">
<path d="M2540.88 143.934L2494.08 190.733L2572.09 268.738C2579.09 275.745 2586.1 282.751 2593.1 289.757C2606.42 303.07 2619.5 316.149 2632.81 329.461C2646.12 342.773 2657.56 354.217 2669.94 366.595L2715.25 411.903C2721.32 417.975 2727.39 424.047 2733.47 430.12C2746.78 443.432 2760.09 456.744 2773.4 470.056C2786.72 483.368 2797.93 494.579 2810.3 506.957L2873.13 569.781C2886.44 583.094 2899.99 596.639 2913.53 610.185C2927.08 623.731 2936.89 633.54 2949.97 646.618L2994.57 691.226C3000.65 697.298 3006.72 703.37 3012.56 709.209C3018.4 715.048 3029.37 726.024 3037.78 734.432C3046.19 742.84 3051.56 748.211 3058.57 755.218C3073.28 769.931 3087.99 784.645 3102.47 799.125L3121.39 818.042C3134.7 831.355 3147.78 844.433 3161.09 857.745C3174.4 871.058 3185.85 882.501 3197.99 894.646C3210.14 906.79 3225.09 919.4 3238.17 932.479C3251.24 945.557 3263.62 957.935 3276.47 970.78C3289.31 983.625 3301.92 996.237 3314.54 1008.85C3327.15 1021.46 3340.69 1035.01 3352.37 1049.02C3358.21 1054.86 3364.05 1060.7 3369.88 1066.54L3395.57 1092.23L3414.96 1111.61L3420.11 1106.46L4033.17 493.397L4103.37 423.198L4270.68 255.891L4310.7 215.876C4321.23 205.346 4331.52 195.051 4341.82 184.755C4342.65 183.087 4343.05 181.238 4342.99 179.377C4342.88 177.732 4342.4 176.136 4341.59 174.704C4331.55 164.662 4321.27 154.385 4311.23 144.343C4301.19 134.3 4285.77 118.886 4273.16 106.274C4260.55 93.6629 4246.77 79.8836 4233.69 66.8049L4177.17 10.2865C4165.03 -1.85805 4153.82 -13.0682 4140.51 -26.3804C4127.19 -39.6926 4113.41 -53.472 4099.87 -67.0178C4086.32 -80.5635 4074.65 -92.241 4062.5 -104.386C4044.28 -122.602 4026.3 -140.585 4008.08 -158.802C3995.24 -171.647 3982.16 -184.726 3969.32 -197.571C3951.1 -215.788 3932.65 -234.238 3914.43 -252.455C3901.59 -265.3 3888.98 -277.911 3876.13 -290.756C3858.61 -308.272 3840.86 -326.022 3823.35 -343.538C3805.83 -361.054 3786.21 -380.672 3767.53 -399.356C3748.85 -418.04 3730.4 -436.49 3711.71 -455.174L3606.15 -560.737C3588.17 -578.721 3569.72 -597.17 3551.73 -615.154C3528.38 -638.508 3505.02 -661.863 3481.67 -685.218C3464.85 -702.033 3448.04 -718.849 3431.46 -735.431C3429.59 -737.3 3423.51 -738.23 3421.64 -736.358C3412.28 -726.998 3401.52 -718.573 3391.69 -708.745L3351.68 -668.73C3339.27 -656.328 3326.64 -643.693 3314.47 -631.525L3273.29 -590.342C3251.53 -568.58 3235.15 -552.2 3226.49 -543.543L3193.49 -508.212L2542.05 143.233M2700.63 56.5849L3202.08 -444.868L3266.66 -509.451L3360.26 -603.049L3419.7 -662.485C3424.61 -667.399 3428.12 -667.169 3432.79 -662.03C3450.77 -644.047 3468.52 -626.297 3486.51 -608.314C3504.49 -590.33 3522.01 -572.815 3539.52 -555.299C3552.83 -541.986 3566.15 -528.674 3579.46 -515.362C3592.77 -502.05 3604.45 -490.371 3618.23 -478.929C3626.17 -470.988 3633.88 -463.281 3641.58 -455.574C3649.29 -447.867 3655.83 -441.328 3663.07 -434.088C3670.31 -426.848 3674.51 -422.644 3680.35 -416.805C3693.43 -403.727 3706.51 -390.648 3719.35 -377.803C3726.59 -370.563 3733.83 -363.323 3741.07 -356.083C3748.31 -348.843 3752.52 -344.639 3758.36 -338.8C3764.19 -332.962 3773.77 -323.386 3781.71 -315.446C3789.65 -307.505 3795.96 -301.2 3803.2 -293.96C3810.44 -286.72 3814.17 -282.983 3819.78 -277.378C3825.38 -271.772 3834.26 -262.897 3841.5 -255.658C3848.74 -248.418 3857.61 -239.543 3864.85 -232.303C3872.09 -225.063 3876.53 -220.625 3882.37 -214.787C3888.21 -208.948 3897.78 -199.373 3905.72 -191.432C3918.34 -178.82 3930.95 -166.209 3943.56 -153.597C3949.4 -147.759 3955.47 -141.686 3961.54 -135.614C3967.61 -129.542 3975.79 -119.032 3983.73 -111.091C3991.67 -103.15 3998.21 -96.6096 4006.62 -91.0072C4015.03 -85.4047 4017.83 -79.7969 4023.43 -74.1917C4029.04 -68.5866 4037.91 -57.3729 4045.62 -49.6658C4053.32 -41.9588 4059.86 -35.4195 4067.1 -28.1795L4083.68 -11.5978C4097 1.71438 4110.31 15.0265 4123.39 28.1052C4136.47 41.1839 4148.61 53.3272 4162.16 64.5352C4167.3 69.6732 4172.67 75.0451 4178.04 80.4167C4191.35 93.7289 4204.43 106.809 4216.57 121.291C4223.58 128.297 4231.99 134.366 4239 141.373C4246 148.379 4254.65 157.02 4262.35 164.727L4267.72 170.099C4273.56 175.938 4274.03 180.144 4267.48 185.293C4261.05 191.022 4254.95 197.117 4249.22 203.546C4236.35 216.416 4223.48 229.286 4210.85 241.921C4198.21 254.557 4185.11 267.661 4172.24 280.531L4152.58 300.186L4125.21 327.565L4107.66 345.114C4094.55 358.218 4081.68 371.086 4068.35 384.424C4055.01 397.762 4043.07 409.695 4030.44 422.331C4023.42 429.351 4016.4 436.371 4009.38 443.391L3983.87 468.896L3966.32 486.447L3910.87 541.904C3894.95 557.816 3879.28 573.493 3864.07 588.703C3848.86 603.913 3832.71 620.059 3817.27 635.502L3763.92 688.853C3750.81 701.956 3737.71 715.06 3724.37 728.398C3711.03 741.736 3698.63 754.138 3685.76 767.008C3672.89 779.878 3660.26 792.513 3647.62 805.149C3634.98 817.785 3620.95 831.824 3607.61 845.162L3588.65 864.115L3543.49 909.278C3525.01 927.763 3506.52 946.248 3487.8 964.967L3427.2 1025.57C3422.05 1030.72 3418.07 1030.96 3412.94 1025.82L3350.35 963.229C3326.99 939.874 3303.64 916.52 3278.88 891.764C3262.06 874.948 3245.02 857.899 3228.2 841.084L3115.86 728.747C3076.63 689.511 3037.39 650.275 2999.09 611.974C2970.13 583.014 2941.17 554.054 2912.21 525.094L2772.08 384.966C2718.83 331.717 2665.12 278 2611.63 224.518L2581.27 194.157C2579.17 192.055 2578.01 188.549 2576.61 185.745C2578.28 182.536 2580.24 179.483 2582.46 176.622L2704.61 54.4772L2700.63 56.5849Z" fill="#073E48"/>
</g>
<g opacity="0.9">
<path d="M2862.26 -13.9162C2870.43 -5.74207 2879.77 1.26212 2887.95 9.43628L2995.38 116.868C3015.93 137.421 3036.48 157.973 3057.04 178.525C3062.17 183.663 3062.17 189.742 3056.08 195.826L2870.76 381.15C2863.97 387.936 2858.83 387.941 2851.59 380.701C2801.46 330.566 2751.17 280.276 2700.72 229.83L2666.85 195.965C2661.72 190.827 2661.25 186.152 2666.64 180.77L2776.38 71.026L2862.26 -13.9162ZM2935.7 186.824C2934.11 183.846 2932.23 181.03 2930.1 178.414C2910.48 158.796 2891.1 139.411 2871.71 120.027C2866.81 115.122 2860.73 112.323 2854.65 117.939L2793.11 179.479C2791.72 180.411 2790.53 181.604 2789.6 182.989C2789.02 184.483 2788.7 186.064 2788.66 187.665C2788.6 189.229 2789 190.774 2789.82 192.107C2790.67 193.412 2791.79 194.525 2793.09 195.376C2812.71 214.994 2832.56 234.845 2852.18 254.463C2853.11 255.847 2854.3 257.037 2855.68 257.966C2857.21 258.711 2858.89 259.108 2860.59 259.13C2862.26 259.363 2863.96 259.119 2865.5 258.424C2866.89 257.492 2868.08 256.301 2869.01 254.915L2930.32 193.608C2932.13 191.366 2933.55 188.836 2934.53 186.124L2935.7 186.824Z" fill="#073E48"/>
</g>
<g opacity="0.9">
<path d="M3418.38 945.141C3415.16 943.311 3412.11 941.204 3409.27 938.839C3348.55 878.117 3287.59 817.161 3226.87 756.438C3216.59 746.162 3219.41 737.276 3233.21 726.275C3242.56 717.857 3251.47 708.952 3259.88 699.599C3265.5 693.984 3271.12 688.368 3276.73 682.752L3298.49 660.991L3318.15 641.335L3363.08 596.408C3370.56 588.92 3378.05 581.432 3386.48 573.008C3394.9 564.585 3406.13 553.352 3417.36 544.926C3418.76 543.522 3424.61 546.087 3426.71 548.189C3450.06 571.544 3471.55 593.031 3493.97 615.451C3516.39 637.872 3543.48 664.963 3568 689.486L3614.71 736.195C3620.55 742.034 3619.38 747.879 3613.06 753.729C3606.74 759.579 3595.51 771.279 3586.62 780.171L3563.22 803.57L3513.85 852.944C3506.59 860.198 3499.11 867.685 3491.62 875.173L3474.07 892.723C3466.58 900.21 3459.09 907.698 3450.67 916.122C3442.24 924.546 3435.69 931.098 3427.27 939.522C3424.42 941.567 3421.45 943.443 3418.38 945.141ZM3344 743.468C3346.51 747.561 3349.32 751.465 3352.4 755.149C3371.79 774.533 3391.17 793.918 3410.56 813.302C3416.63 819.374 3421.54 818.201 3426.69 812.586L3436.28 802.991C3444.47 794.801 3452.19 787.079 3459.68 779.591C3467.17 772.104 3476.3 762.978 3484.72 754.554C3493.14 746.13 3492.44 743.092 3486.14 736.319L3469.32 719.503C3453.91 704.089 3438.5 688.675 3422.61 672.794C3420.98 671.159 3416.07 669.995 3415.14 670.931C3405.07 680.992 3395.01 691.054 3383.55 700.182L3358.28 725.454L3344 743.468Z" fill="#073E48"/>
</g>
<path opacity="0.9" d="M3351.53 225.904L3347.32 232.453L3195.45 384.316C3183.29 396.484 3172.05 407.715 3158.95 420.819C3154.93 424.236 3149.94 426.288 3144.68 426.677L2967.02 427.783C2965.85 426.615 2962.34 427.319 2958.13 426.855C2959.66 422.334 2961.87 418.075 2964.69 414.226L3151.89 227.03C3154.68 224.767 3158.12 223.453 3161.71 223.28L3343.35 222.404C3346.22 223.196 3348.97 224.374 3351.53 225.904Z" fill="#073E48"/>
<path opacity="0.9" d="M3664.45 -180.01L3664.14 -96.0869C3663.93 -92.1938 3663.22 -88.3422 3662.02 -84.6293C3660.28 -80.9731 3657.81 -77.7096 3654.77 -75.0379L3481.14 98.5865C3478.34 101.394 3475.29 104.437 3472.72 107.011C3469.78 109.043 3466.65 110.77 3463.36 112.163C3462.29 109.191 3461.44 106.144 3460.8 103.048L3461.09 45.7746C3461.12 11.1764 3463.03 -23.8924 3461.19 -58.4888C3460.73 -67.45 3462.43 -76.3941 3466.14 -84.5724C3469.85 -92.7508 3475.46 -99.9243 3482.51 -105.496C3496.78 -119.77 3510.82 -133.811 3525.1 -148.085L3580.79 -203.776L3617.05 -240.044L3653.32 -276.314C3654.96 -277.952 3659.87 -279.125 3660.34 -278.19C3662.71 -275.731 3664.12 -272.495 3664.3 -269.077C3664.51 -239.388 3664.25 -210.166 3663.98 -180.477L3664.45 -180.01Z" fill="#073E48"/>
<path opacity="0.9" d="M3178.82 648.503L3178.6 633.308L3179.46 468.966C3178.93 463.506 3179.76 457.994 3181.89 452.932C3184.02 447.869 3187.37 443.414 3191.64 439.967C3205.75 427.259 3219.18 413.825 3231.89 399.719C3244.53 387.083 3256.69 374.916 3269.33 362.28C3277.29 354.324 3285.24 346.368 3292.73 338.88L3314.26 317.353L3333.21 298.398L3356.61 274.999C3361.52 269.163 3366.92 263.762 3372.76 258.854C3374.16 257.45 3379.54 259.549 3382.11 261.183C3384.68 262.816 3383.04 265.39 3382.8 267.961C3382.74 326.404 3382.69 384.847 3381.93 443.525C3380.83 449.448 3377.97 454.906 3373.73 459.194C3367.19 466.673 3360.15 473.709 3352.67 480.254L3327.4 505.526C3321.32 511.61 3315.24 517.693 3309.15 523.777C3296.28 536.647 3283.41 549.518 3270.31 562.621C3257.2 575.725 3244.8 588.126 3231.7 601.23L3210.64 622.29C3203.85 629.076 3196.13 636.798 3188.88 644.051C3185.72 645.941 3182.34 647.435 3178.82 648.503Z" fill="#073E48"/>
<path opacity="0.9" d="M2956.26 -53.7728L2970.75 -54.722L3143.98 -55.5885C3147.67 -55.9198 3151.37 -55.2789 3154.73 -53.729C3158.05 -52.2832 3161.06 -50.2237 3163.61 -47.6592C3196.77 -14.4954 3230.17 18.9016 3263.33 52.0654C3291.59 80.3247 3319.62 108.351 3347.64 136.376C3349.51 138.245 3351.15 139.879 3354.65 143.383L3341.09 145.266C3286.15 145.553 3231.45 144.67 3176.75 146.592C3169.22 146.867 3161.73 145.387 3154.88 142.27C3148.02 139.153 3141.99 134.483 3137.26 128.63L3077.47 68.8418C3059.72 51.0922 3042.2 33.5764 3024.45 15.8267C3006.7 -1.92289 2987.32 -21.3077 2968.63 -39.9915C2964.2 -43.0263 2961.4 -47.2321 2956.26 -53.7728Z" fill="#073E48"/>
<path opacity="0.9" d="M3183.47 -278.17C3188.31 -275.707 3192.92 -272.816 3197.25 -269.533C3202.07 -265.654 3206.45 -261.27 3210.33 -256.455C3218.27 -248.514 3226.21 -240.573 3233.69 -233.1C3241.16 -225.626 3247.93 -218.854 3255.17 -211.614C3262.41 -204.374 3266.85 -199.936 3272.45 -194.331C3278.06 -188.726 3287.87 -178.917 3295.81 -170.976C3303.75 -163.035 3310.05 -156.73 3317.29 -149.49C3324.53 -142.25 3329.91 -136.878 3335.98 -130.806C3342.05 -124.734 3351.39 -115.392 3359.33 -107.451C3364.25 -100.9 3370.07 -95.0813 3376.62 -90.1687C3379.64 -88.1005 3382.04 -85.2442 3383.56 -81.9091C3385.09 -78.5739 3385.67 -74.8857 3385.25 -71.2408L3384.14 103.153C3384.14 106.426 3381.1 109.936 3379.46 112.977C3377.07 110.85 3374.81 108.589 3372.69 106.204C3364.98 98.4966 3357.51 91.023 3349.33 82.8489C3341.16 74.6747 3333.68 67.2012 3325.98 59.4941C3318.27 51.787 3309.16 42.679 3300.75 34.2713C3292.35 25.8635 3289.31 22.8269 3283.47 16.9882C3277.63 11.1496 3269.23 2.74224 3261.99 -4.49774C3254.75 -11.7377 3245.87 -20.6125 3238.63 -27.8525C3231.39 -35.0925 3225.32 -41.1651 3218.55 -47.938C3211.46 -56.3945 3203.65 -64.2096 3195.19 -71.2927C3191.33 -73.5522 3188.11 -76.7692 3185.85 -80.6345C3184.12 -84.6839 3183.4 -89.0976 3183.76 -93.4911L3184.38 -257.13L3183.47 -278.17Z" fill="#073E48"/>
<path opacity="0.9" d="M3461.13 255.038C3464.55 255.992 3467.78 257.489 3470.71 259.471C3494.07 282.825 3517.42 306.18 3540.78 329.535C3564.13 352.89 3587.49 376.244 3610.84 399.599C3626.72 415.48 3642.14 430.894 3657.55 446.309C3660.88 450.476 3662.62 455.694 3662.45 461.031C3662.7 519.317 3662.42 577.527 3661.58 635.659C3660.97 638.994 3659.69 642.175 3657.83 645.014C3654.47 643.546 3651.26 641.749 3648.25 639.647C3634.7 626.101 3621.16 612.555 3607.61 599.01L3571.65 563.043C3558.57 549.965 3545.72 537.12 3532.88 524.274C3520.03 511.429 3506.02 497.416 3492.71 484.104C3485.23 476.631 3477.53 468.924 3469.35 460.749C3464.43 455.726 3461.24 449.259 3460.25 442.29C3459.61 381.276 3460.14 320.495 3460.2 259.714L3461.13 255.038Z" fill="#073E48"/>
<g opacity="0.9">
<path d="M3354.15 -814.143L2429.76 -1738.52L1496.12 -804.881L2420.5 119.5L3354.15 -814.143ZM2169.83 -300.58L2343.93 -474.673L2254.71 -563.889L2080.62 -389.796L2004.02 -466.399L2178.11 -640.492L2084.69 -733.911L1910.6 -559.818L1834.23 -636.188L2008.32 -810.281L1844.84 -973.764L1922.29 -1051.22L2085.77 -887.734L2175.16 -977.12L2011.68 -1140.6L2088.89 -1217.82L2252.38 -1054.34L2347.38 -1149.34L2183.9 -1312.83L2260.88 -1389.81L2424.36 -1226.32L2598.69 -1400.65L2675.06 -1324.28L2500.73 -1149.95L2594.15 -1056.54L2768.48 -1230.86L2845.08 -1154.26L2670.76 -979.932L2759.5 -891.184L2933.83 -1065.51L3010.2 -989.142L2835.87 -814.814L3018.04 -632.647L2941.06 -555.664L2758.66 -738.065L2663.66 -643.063L2845.82 -460.896L2768.6 -383.676L2586.44 -565.843L2496.82 -476.224L2678.98 -294.057L2601.76 -216.837L2419.6 -399.004L2245.5 -224.911L2169.83 -300.58Z" fill="#073E48"/>
</g>
</g>
</g>
</svg>
