<svg width="240" height="240" viewBox="0 0 240 240" fill="none" xmlns="http://www.w3.org/2000/svg">
<g id="Icon">
<g id="Vector">
<path d="M223.445 56.6362L87.876 11.8394L86.6972 11.25H66.0671L15.376 56.6362H11.25V90.8231H40.7215V56.6362H34.2378L70.7825 24.2175V46.0264H49.563V88.4654H104.97V46.0264H83.75V24.2175H84.3394L182.774 56.6362H113.222V81.9817H228.75V56.6362H223.445Z" fill="#73E2F7"/>
<path d="M228.75 174.522H123.242V199.868H228.75V174.522Z" fill="#73E2F7"/>
<path d="M161.555 165.681L176.291 154.481L191.026 165.681H211.656L187.49 147.408C191.616 143.872 194.563 138.567 194.563 132.673H181.596C181.596 135.62 179.238 138.567 175.701 138.567C172.165 138.567 169.807 136.209 169.807 132.673C169.807 129.725 172.165 126.778 175.701 126.778H182.185V111.453H182.774L195.152 99.075V90.2336H156.839V99.6644L169.217 112.042H169.807V115.579C162.734 117.937 157.429 125.01 157.429 132.673C157.429 138.567 160.376 143.872 164.502 147.408L140.335 165.681H161.555Z" fill="#73E2F7"/>
<path d="M62.5305 122.063V101.433H49.563V228.75H104.97V101.433H83.1606L62.5305 122.063ZM62.5305 143.872H83.1606L62.5305 164.502V143.872ZM62.5305 186.311H83.1606L62.5305 206.941V186.311ZM92.002 215.783H71.3719L92.002 195.152V215.783ZM92.002 173.343H71.3719L92.002 152.713V173.343ZM92.002 130.904H71.3719L92.002 110.274V130.904Z" fill="#73E2F7"/>
</g>
</g>
</svg>
