<svg width="121" height="120" viewBox="0 0 121 120" fill="none" xmlns="http://www.w3.org/2000/svg">
<g id="Icon">
<g id="Vector">
<path fill-rule="evenodd" clip-rule="evenodd" d="M23 89.1727H31.1272V59.3913H23V89.1727Z" fill="#73E2F7"/>
<path fill-rule="evenodd" clip-rule="evenodd" d="M71.7444 103.035H79.8677V73.2501H71.7444V103.035Z" fill="#73E2F7"/>
<path fill-rule="evenodd" clip-rule="evenodd" d="M59.5606 7.5C49.8627 7.50205 40.5628 11.3362 33.7065 18.1591C26.8502 24.982 22.999 34.2348 23 43.8823V49.9615H31.1272V43.8784C31.1267 40.1634 31.8617 36.4846 33.2903 33.0522C34.719 29.6197 36.8132 26.5008 39.4535 23.8735C42.0938 21.2462 45.2284 19.162 48.6784 17.7398C52.1283 16.3177 55.8261 15.5855 59.5606 15.585C63.2955 15.5855 66.9938 16.3178 70.4442 17.7401C73.8947 19.1625 77.0297 21.247 79.6704 23.8747C82.311 26.5023 84.4055 29.6216 85.8344 33.0545C87.2632 36.4875 87.9984 40.1667 87.9978 43.8823V73.2038H96.125V43.8823C96.1255 39.105 95.1802 34.3744 93.3429 29.9606C91.5056 25.5467 88.8124 21.5361 85.4171 18.1577C82.0218 14.7793 77.9908 12.0993 73.5544 10.2706C69.1179 8.44197 64.3628 7.50051 59.5606 7.5Z" fill="#73E2F7"/>
<path fill-rule="evenodd" clip-rule="evenodd" d="M55.4981 112.5H63.6253V103.004H55.4981V112.5Z" fill="#73E2F7"/>
<path fill-rule="evenodd" clip-rule="evenodd" d="M55.4981 93.5127H63.6253V63.8821H55.4981V93.5127Z" fill="#73E2F7"/>
<path fill-rule="evenodd" clip-rule="evenodd" d="M47.3806 51.4107C47.3801 49.8188 47.6948 48.2424 48.3069 46.7715C48.9189 45.3006 49.8162 43.9641 50.9475 42.8383C52.0789 41.7125 53.4221 40.8194 54.9004 40.2101C56.3788 39.6008 57.9633 39.2871 59.5636 39.2871C61.1638 39.2871 62.7483 39.6008 64.2267 40.2101C65.705 40.8194 67.0482 41.7125 68.1796 42.8383C69.3109 43.9641 70.2082 45.3006 70.8203 46.7715C71.4323 48.2424 71.747 49.8188 71.7465 51.4107V63.8202H79.8698V51.4107C79.8703 48.7574 79.3455 46.13 78.3253 43.6784C77.3051 41.2269 75.8094 38.9993 73.9238 37.1227C72.0382 35.2462 69.7996 33.7575 67.3356 32.7417C64.8717 31.7258 62.2307 31.2027 59.5636 31.2022C56.8964 31.2027 54.2554 31.7258 51.7915 32.7417C49.3276 33.7575 47.0889 35.2462 45.2033 37.1227C43.3177 38.9993 41.8221 41.2269 40.8018 43.6784C39.7816 46.13 39.2568 48.7574 39.2573 51.4107V103.035H47.3845V51.4107H47.3806Z" fill="#73E2F7"/>
</g>
</g>
</svg>
