<svg width="240" height="240" viewBox="0 0 240 240" fill="none" xmlns="http://www.w3.org/2000/svg">
<g id="Icon">
<path id="fire 1 (Traced)" fill-rule="evenodd" clip-rule="evenodd" d="M136.33 20.8076C131.512 23.9398 128.022 26.8584 124.421 30.7678C108.986 47.5244 100.327 74.2729 100.296 105.29L100.288 113.722L97.7247 112.413C92.8235 109.909 87.3541 104.086 84.6703 98.5119C82.3831 93.7617 80.5861 85.8539 80.5824 80.5244L80.5812 78.8308L78.2205 80.2672C70.8736 84.7384 62.346 92.3471 57.2408 98.986C29.7136 134.783 38.6555 184.735 76.9158 208.896C99.8945 223.406 129.302 225.267 154.01 213.775C182.811 200.378 200.015 172.57 198.677 141.571C197.896 123.471 192.31 108.503 180.217 92.1105C178.612 89.9342 173.966 84.1694 169.893 79.3001C154.884 61.3569 151.241 56.374 146.86 47.7935C142.662 39.5691 140.52 31.9743 139.808 22.786L139.496 18.75L136.33 20.8076ZM157.105 117.237C158.861 127.565 159.185 131.308 159.188 141.374C159.191 148.727 159.015 152.167 158.46 155.618C155.426 174.472 147.953 186.122 134.98 192.223C122.869 197.919 110.936 196.969 101.208 189.536C94.2042 184.184 90.3101 176.204 90.3524 167.291C90.393 158.707 94.1697 150.954 100.925 145.583C104.47 142.766 108.308 141.008 114.726 139.263C128.77 135.446 139.235 130.185 146.512 123.284C149.962 120.012 153.403 115.437 154.717 112.375C155.149 111.368 155.628 110.671 155.782 110.824C155.936 110.978 156.531 113.863 157.105 117.237Z" fill="#73E2F7"/>
</g>
</svg>
