<svg width="240" height="240" viewBox="0 0 240 240" fill="none" xmlns="http://www.w3.org/2000/svg">
<g id="Icon">
<path id="Vector" d="M121.765 86.1945C117.489 86.5988 114.282 90.4402 114.683 94.7533L117.289 122.721C117.489 125.214 119.427 127.236 121.965 127.438C124.838 127.708 127.377 125.619 127.645 122.721L130.25 94.7533C130.317 94.2815 130.317 93.7424 130.25 93.2706C129.85 88.9575 126.041 85.7901 121.765 86.1945ZM122.5 133.234C119.092 133.234 116.286 136.065 116.286 139.502C116.286 142.939 119.092 145.769 122.5 145.769C125.908 145.769 128.714 142.939 128.714 139.502C128.714 135.997 125.908 133.234 122.5 133.234ZM229.736 84.2401C229.736 66.0442 219.714 49.8701 211.362 43.1309C203.011 36.3917 168.267 14.1523 150.896 6.06529C133.524 -2.02176 111.476 -2.02176 94.1042 6.06529C76.7326 14.1523 41.9895 36.3917 33.6377 43.1309C25.286 49.8701 15.264 66.0442 15.264 84.2401C15.264 102.436 13.9277 119.284 17.2684 160.056C19.2728 178.926 29.6957 191.124 33.3037 193.752C36.9116 196.38 70.0512 221.383 98.113 233.177C116.153 242.274 128.847 242.274 146.887 233.177C174.949 221.383 205.483 198.402 211.696 193.752C217.91 189.102 225.727 178.926 227.732 160.056C231.072 119.284 229.736 102.436 229.736 84.2401ZM122.5 169.221C114.482 169.221 106.932 167.402 100.184 164.234C99.7833 164.437 99.4493 164.571 98.9816 164.706L76.3317 170.098C72.1893 171.108 68.715 166.93 70.3185 163.021L77.8016 144.219C72.7906 136.065 69.8508 126.428 69.8508 116.184C69.8508 86.8684 93.436 63.079 122.5 63.079C151.564 63.079 175.149 86.8684 175.149 116.184C175.149 145.499 151.564 169.221 122.5 169.221Z" fill="#73E2F7"/>
</g>
</svg>
