<svg width="120" height="120" viewBox="0 0 120 120" fill="none" xmlns="http://www.w3.org/2000/svg">
<g id="Icon">
<g id="5">
<path id="Subtract" d="M103.978 43.0526C103.595 38.0432 99.7651 31.6209 95.9348 28.5381C91.6276 25.3833 87.1523 22.4675 82.5289 19.8038C77.9405 17.0677 73.2098 14.5808 68.357 12.3538C65.7647 11.29 62.985 10.7657 60.1857 10.8125C57.3854 10.7533 54.6033 11.2781 52.0145 12.3538C47.1625 14.5824 42.4318 17.0692 37.8425 19.8038C30.4374 24.2994 24.4366 28.5381 24.4366 28.5381C21.8385 30.7257 19.7599 33.4311 18.3131 36.4551C17.5012 38.152 18.8493 39.9694 20.7304 39.9694H22.5035C24.5931 39.9694 26.4581 38.7676 27.7374 37.1154C28.5897 36.0144 29.5634 35.0007 30.6463 34.0951C30.6463 34.0951 35.601 30.6194 41.7153 26.933C45.5046 24.6906 49.4106 22.6514 53.4168 20.824C55.5543 19.9419 57.8515 19.5116 60.1636 19.5601C62.4749 19.5217 64.77 19.9517 66.9104 20.824C70.9173 22.6501 74.8234 24.6894 78.6119 26.933C82.4293 29.1172 86.1245 31.5082 89.6809 34.0951C92.8435 36.623 96.006 41.8893 96.3223 45.997C96.3223 45.997 97.0602 52.106 97.1656 59.3419C97.1592 63.8107 96.9128 68.2759 96.4277 72.7183C95.6921 77.3698 93.2954 81.5978 89.6809 84.6202C89.6809 84.6202 84.7262 88.2013 78.6119 91.8877C74.8227 94.13 70.9166 96.1692 66.9104 97.9966C64.7729 98.8788 62.4758 99.3091 60.1636 99.2606C57.8545 99.309 55.5594 98.8898 53.4168 98.0282C49.4099 96.2021 45.5038 94.1629 41.7153 91.9193C35.601 88.3382 30.6463 84.6518 30.6463 84.6518C29.6717 83.8728 28.6971 82.8337 27.8027 81.6485C26.5647 80.0082 24.7189 78.8513 22.6639 78.8513H20.8059C18.9007 78.8513 17.567 80.7053 18.4292 82.4043C20.0025 85.5049 22.2196 88.4082 24.4366 90.1926C24.4366 90.1926 30.4374 94.6882 37.8425 99.0554C42.4309 101.791 47.1617 104.278 52.0145 106.505C54.6095 107.556 57.3891 108.067 60.1857 108.008C62.986 108.067 65.7682 107.543 68.357 106.467C73.209 104.238 77.9397 101.751 82.5289 99.0169C89.9341 94.5212 95.9348 90.154 95.9348 90.154C100.312 86.4682 103.215 81.3121 104.106 75.6396C104.694 70.222 104.992 64.7766 105 59.3268C104.872 50.5025 103.978 43.0526 103.978 43.0526Z" fill="#73E2F7"/>
<g id="1">
<path id="Rectangle 1486" d="M16.6436 48.7206C16.6436 47.6469 17.514 46.7765 18.5877 46.7765H48.7214C49.7951 46.7765 50.6655 47.6469 50.6655 48.7206V54.5529C50.6655 55.6266 49.7951 56.497 48.7214 56.497H16.6436V48.7206Z" fill="#73E2F7"/>
<path id="Rectangle 1487" d="M16.6436 62.3265H77.883C78.9567 62.3265 79.8271 63.1969 79.8271 64.2706V70.1029C79.8271 71.1766 78.9567 72.047 77.883 72.047H18.5877C17.514 72.047 16.6436 71.1766 16.6436 70.1029V62.3265Z" fill="#73E2F7"/>
</g>
</g>
</g>
</svg>
