<svg width="240" height="240" viewBox="0 0 240 240" fill="none" xmlns="http://www.w3.org/2000/svg">
<g id="Icon">
<path id="Vector" d="M221.25 219.358L185.712 18.7612C185.077 16.8806 183.173 15 181.269 15H133.673C132.404 15 131.135 15.6269 130.5 16.2537C129.865 16.8806 129.231 18.1343 129.231 19.3881L130.5 67.6567H107.019L108.288 19.3881C108.288 18.1343 107.654 16.8806 107.019 16.2537C105.75 15.6269 104.481 15 103.212 15H55.6154C53.0769 15 51.1731 16.8806 51.1731 18.7612L15 219.358C15 220.612 15 221.866 16.2692 223.119C16.9038 224.373 18.1731 225 20.0769 225H98.7692C101.308 225 103.212 223.119 103.212 220.612L103.846 171.716H132.404L133.673 219.985C133.673 222.493 135.577 224.373 138.115 224.373H216.808C218.077 224.373 219.346 223.746 220.615 222.493C221.25 221.866 221.25 220.612 221.25 219.358ZM104.481 156.045L106.385 83.9552H130.5L132.404 156.045H104.481Z" fill="#73E2F7"/>
</g>
</svg>
