<svg width="226" height="204" viewBox="0 0 226 204" fill="none" xmlns="http://www.w3.org/2000/svg">
<g id="Frame 1">
<g id="Vector">
<path d="M214.25 104.475C214.25 42.7125 166.325 0.75 113 0.75C60.2375 0.75 11.75 41.8125 11.75 105.15C5 108.975 0.5 116.175 0.5 124.5V147C0.5 159.375 10.625 169.5 23 169.5H34.25V100.875C34.25 57.3375 69.4625 22.125 113 22.125C156.538 22.125 191.75 57.3375 191.75 100.875V180.75H101.75V203.25H191.75C204.125 203.25 214.25 193.125 214.25 180.75V167.025C220.887 163.538 225.5 156.675 225.5 148.575V122.7C225.5 114.825 220.887 107.963 214.25 104.475Z" fill="#73E2F7"/>
<path d="M79.25 124.5C85.4632 124.5 90.5 119.463 90.5 113.25C90.5 107.037 85.4632 102 79.25 102C73.0368 102 68 107.037 68 113.25C68 119.463 73.0368 124.5 79.25 124.5Z" fill="#73E2F7"/>
<path d="M146.75 124.5C152.963 124.5 158 119.463 158 113.25C158 107.037 152.963 102 146.75 102C140.537 102 135.5 107.037 135.5 113.25C135.5 119.463 140.537 124.5 146.75 124.5Z" fill="#73E2F7"/>
<path d="M180.5 91.0875C175.1 59.025 147.2 34.5 113.562 34.5C79.475 34.5 42.8 62.7375 45.725 107.062C73.5125 95.7 94.4375 70.95 100.4 40.8C115.137 70.3875 145.4 90.75 180.5 91.0875Z" fill="#73E2F7"/>
</g>
</g>
</svg>
