<svg width="51" height="71" viewBox="0 0 51 71" xmlns="http://www.w3.org/2000/svg">
<g clip-path="url(#clip0_1_174)">
<path d="M50.3 37.382C50.36 37.351 50.39 37.351 50.39 37.351L50.3 37.382C50.0826 35.1374 49.6931 32.9119 49.135 30.727C48.865 30.177 43.607 36.771 32.762 36.893L30.79 38.663C36.676 33.353 38.05 28.133 38.17 27.431C38.767 25.661 37.482 26.149 37.482 26.149C37.482 26.149 39.424 19.647 38.916 17.877C38.439 16.777 38.08 17.571 38.08 17.571C38.08 17.571 38.737 12.565 37.512 12.504C36.825 12.504 36.437 12.993 36.437 12.993C36.437 12.993 36.825 7.682 35.212 7.315C34.584 7.285 33.957 8.597 33.957 8.597C33.957 8.597 33.33 3.927 32.224 3.927C31.567 3.927 31.089 5.331 30.999 5.637C30.999 5.607 30.999 5.545 30.969 5.514V5.606C30.909 5.026 30.342 0.996004 29.057 1.089C28.221 1.149 28.101 2.859 28.101 2.859C28.101 2.859 27.474 0.173004 26.069 1.21C25.651 1.759 27.414 22.851 20.333 31.245C18.451 31.245 17.106 25.598 15.643 23.34C14.895 21.996 9.54699 19.554 7.30599 22.729C5.63299 22.515 2.88499 22.302 1.21099 22.943C1.06199 23.065 4.94599 25.69 6.58899 28.437C7.03699 31.215 8.11299 33.84 8.23299 34.511C8.41199 35.671 8.71099 39.181 12.326 44.462C12.863 45.256 13.581 45.897 14.387 46.446C10.294 57.894 -0.0730058 67.051 0.195994 67.478C1.53999 69.157 3.75099 67.234 3.75099 67.234L3.69099 67.295L3.42199 67.6C3.45199 67.6 3.48199 67.57 3.54199 67.54C3.18299 68.089 2.52599 69.249 2.97399 69.645C3.89999 70.408 6.85799 68.669 7.90399 67.997C8.11299 67.875 8.23299 67.783 8.23299 67.783C8.23299 67.783 6.85799 69.615 7.84399 70.043C9.33799 70.653 11.788 68.607 12.594 67.875L12.534 67.966C12.534 67.966 12.624 67.906 12.774 67.783C12.564 68.211 12.117 69.34 13.073 69.645C14.806 70.47 17.643 66.959 17.643 66.959V66.989C17.673 67.203 17.793 68.149 18.331 68.18C19.974 68.272 22.096 64.945 22.096 64.945C22.096 64.945 22.006 65.647 22.663 65.647C24.396 65.647 27.503 58.504 27.503 58.504C27.503 58.504 27.145 59.664 27.952 59.481C30.222 58.992 30.909 53.559 31.059 49.255C39.903 48.981 47.282 56.886 47.282 56.886C47.282 56.886 51.465 49.257 50.3 37.382ZM11.668 27.309C10.772 27.309 10.085 26.576 10.085 25.691C10.085 24.775 10.772 24.073 11.668 24.073C12.535 24.073 13.252 24.775 13.252 25.691C13.252 26.576 12.535 27.309 11.668 27.309Z"/>
</g>
<defs>
<clipPath id="clip0_1_174">
<rect width="51" height="71" fill="white"/>
</clipPath>
</defs>
</svg>
