<svg width="86" height="61" viewBox="0 0 86 61" xmlns="http://www.w3.org/2000/svg">
<g clip-path="url(#clip0_1_48)">
<path d="M85.223 27.715C85.475 27.635 87.409 25.555 83.631 24.897C81.777 24.479 72.708 27.058 72.708 27.058C72.708 27.058 72.335 27.367 71.691 27.805C72.023 27.556 72.315 27.307 72.577 27.068C73.967 25.903 74.723 24.898 74.723 24.898L74.553 24.977C77.223 23.334 77.454 22 77.434 21.521V21.481C77.424 21.382 77.414 21.322 77.414 21.322H77.374C77.948 20.814 78.341 20.337 78.603 19.928C79.187 19.032 79.157 18.395 79.107 18.196C79.4833 17.8791 79.8337 17.5326 80.155 17.16C81.061 16.104 81.122 15.298 81.011 14.8C80.9765 14.6051 80.8971 14.4209 80.779 14.262C83.802 11.354 82.714 9.861 82.714 9.861C82.714 9.861 78.935 16.751 62.561 20.068C59.649 20.864 55.971 24.15 56.042 27.068C55.9097 26.9 55.7884 26.7237 55.679 26.54C55.347 26.122 53.079 19.74 59.377 18.245C63.327 17.329 66.934 18.664 68.778 16.582C70.622 14.512 68.275 12.102 68.355 11.932C68.587 10.478 68.577 8.855 68.445 7.312C68.175 3.498 67.248 0.5 67.248 0.5V0.76V0.75V0.869C67.248 2.82 67.127 11.823 64.809 13.525C59.015 17.339 50.199 13.445 47.005 24.23C44.677 32.774 51.045 36.528 56.497 36.976C56.607 38.042 57.504 39.167 57.917 39.416C59.681 40.83 61.363 41.159 61.363 41.159L61.111 42.403L53.051 56.513C53.051 56.513 52.97 56.513 52.627 56.185C52.043 54.94 50.36 55.687 50.36 55.687C50.36 55.687 51.368 55.607 52.456 56.763C48.677 55.269 48.002 57.679 48.002 57.679C48.002 57.679 50.269 56.265 52.788 57.43C49.433 57.181 49.262 59.093 49.262 59.093C49.262 59.093 50.35 58.177 51.357 58.346C52.285 58.426 52.788 58.018 53.373 58.018C53.877 58.018 54.38 58.346 54.713 58.266C54.965 58.266 55.721 57.769 55.721 57.769C55.721 57.769 55.801 57.769 56.557 57.689C55.882 56.862 54.542 57.44 54.542 57.44C54.542 57.44 53.957 57.36 54.29 56.773C57.484 51.4077 60.674 46.0401 63.86 40.67C64.364 39.345 62.853 40.42 61.845 38.26C61.432 37.115 61.593 37.095 61.593 36.378L62.56 36.138C63.074 37.254 64.263 37.981 64.535 38.091C66.299 39.584 70.752 39.415 70.914 40.749C70.914 41.168 70.662 41.496 70.662 41.496C70.662 41.496 62.35 57.68 61.423 57.68C61.423 57.68 61.251 57.76 60.999 57.431C60.324 56.186 58.732 56.853 58.732 56.853C58.732 56.853 59.659 56.853 60.748 57.929C56.969 56.515 56.294 58.845 56.294 58.845C56.294 58.845 58.561 57.431 61.08 58.596C57.725 58.347 57.554 60.259 57.554 60.259C57.554 60.259 58.732 59.343 59.649 59.512C60.657 59.682 61.08 59.184 61.665 59.184C62.249 59.184 62.753 59.512 63.005 59.433C63.337 59.433 64.012 59.014 64.012 59.014C64.012 59.014 64.093 59.014 64.849 58.845C64.264 58.098 62.914 58.596 62.914 58.596C62.914 58.596 62.33 58.516 62.581 57.929C69.051 47.055 73.081 40.921 73.333 39.676C73 38.849 72.829 39.347 71.237 38.103C70.532 37.714 69.121 36.33 67.862 35.085C70.35 34.697 72.728 34.498 75.096 34.538C79.802 34.538 82.482 36.529 82.482 36.529C82.482 36.529 84.497 37.605 83.742 35.036C84.749 34.956 85.172 33.373 84.497 33.044C85.173 32.964 86.009 31.63 84.921 30.474C85.303 30.544 86.896 29.05 85.223 27.715ZM29.621 36.986C35.082 36.538 41.441 32.784 39.113 24.24C35.929 13.446 27.112 17.35 21.318 13.525C19.001 11.822 18.88 2.82 18.88 0.87V0.75V0.76V0.5C18.88 0.5 17.953 3.498 17.7 7.331C17.57 8.875 17.56 10.498 17.791 11.951C17.872 12.121 15.524 14.521 17.368 16.602C19.212 18.674 22.83 17.349 26.769 18.265C33.067 19.759 30.799 26.152 30.467 26.56C30.417 26.65 30.297 26.84 30.105 27.088C30.175 24.17 26.497 20.874 23.585 20.088C7.21098 16.762 3.43298 9.88 3.43298 9.88C3.43298 9.88 2.34498 11.373 5.36698 14.281C5.36698 14.281 5.20698 14.461 5.13598 14.819C5.03498 15.307 5.09598 16.113 5.99198 17.179C6.26398 17.498 6.59698 17.846 7.03998 18.214C6.98998 18.414 6.95998 19.051 7.54398 19.947C7.80598 20.365 8.19898 20.833 8.77398 21.341H8.72298C8.72298 21.341 8.70298 21.401 8.70298 21.501V21.541C8.68298 22.018 8.91398 23.353 11.585 24.996L11.413 24.916C11.413 24.916 12.169 25.922 13.549 27.077C13.811 27.317 14.114 27.565 14.436 27.814C13.791 27.376 13.418 27.067 13.418 27.067C13.418 27.067 4.34998 24.5 2.50598 24.908C-1.27302 25.574 0.661977 27.646 0.913977 27.725C-0.769023 29.05 0.833977 30.544 1.16598 30.464C0.076977 31.629 0.913977 32.954 1.58898 33.033C0.913977 33.362 1.33698 34.945 2.34498 35.025C1.58898 37.594 3.60498 36.518 3.60498 36.518C3.60498 36.518 6.37498 34.527 10.99 34.527C13.358 34.487 15.736 34.686 18.225 35.074C16.965 36.319 15.565 37.704 14.849 38.092C13.257 39.336 13.086 38.839 12.753 39.665C13.005 40.91 17.036 47.054 23.505 57.918C23.757 58.496 23.172 58.585 23.172 58.585C23.172 58.585 21.832 58.087 21.238 58.835C21.993 59.003 22.074 59.003 22.074 59.003C22.074 59.003 22.749 59.422 23.081 59.422C23.333 59.502 23.837 59.172 24.421 59.172C25.006 59.172 25.429 59.671 26.437 59.502C27.364 59.332 28.533 60.248 28.533 60.248C28.533 60.248 28.361 58.336 25.006 58.585C27.526 57.42 29.792 58.835 29.792 58.835C29.792 58.835 29.117 56.514 25.339 57.918C26.427 56.843 27.354 56.843 27.354 56.843C27.354 56.843 25.762 56.175 25.087 57.42C24.835 57.749 24.663 57.669 24.663 57.669C23.736 57.669 15.423 41.487 15.423 41.487C15.423 41.487 15.172 41.159 15.172 40.74C15.342 39.416 19.787 39.575 21.55 38.082C21.822 37.972 23.011 37.255 23.525 36.13C23.847 36.21 24.16 36.29 24.492 36.369C24.492 37.086 24.653 37.106 24.24 38.251C23.233 40.411 21.721 39.326 22.225 40.661C23.061 42.075 25.328 45.889 31.797 56.763C32.13 57.34 31.546 57.43 31.546 57.43C31.546 57.43 30.206 56.852 29.53 57.679C30.286 57.759 30.367 57.759 30.367 57.759C30.367 57.759 31.122 58.257 31.374 58.257C31.707 58.337 32.211 58.007 32.714 58.007C33.299 58.007 33.803 58.426 34.73 58.337C35.737 58.167 36.826 59.083 36.826 59.083C36.826 59.083 36.654 57.171 33.299 57.42C35.818 56.255 38.085 57.669 38.085 57.669C38.085 57.669 37.44 55.269 33.662 56.763C34.75 55.598 35.758 55.687 35.758 55.687C35.758 55.687 34.075 54.941 33.49 56.185C33.158 56.514 33.067 56.514 33.067 56.514L25.007 42.404L24.754 41.159C24.754 41.159 26.437 40.83 28.2 39.416C28.613 39.177 29.52 38.042 29.621 36.986Z"/>
</g>
<defs>
<clipPath id="clip0_1_48">
<rect width="86" height="61" fill="white"/>
</clipPath>
</defs>
</svg>
