<svg width="42" height="64" viewBox="0 0 42 64" xmlns="http://www.w3.org/2000/svg">
<g clip-path="url(#clip0_1_37)">
<path d="M41.652 52.435C41.302 51.022 38.393 50.203 35.009 50.429C34.029 50.584 32.813 51.149 31.736 51.743C32.757 47.887 33.275 43.113 33.023 38.904C32.561 32.435 27.666 22.549 25.793 22.196C25.6074 22.1573 25.4206 22.1243 25.233 22.097C25.3156 21.4696 25.3484 20.8366 25.331 20.204C25.093 17.733 21.946 12.084 21.722 11.264C21.372 10.318 21.261 8.32599 20.911 7.37999C20.673 6.43399 19.862 5.37499 19.401 4.79499C19.331 4.65499 19.191 4.47099 18.981 4.24499C19.345 3.97599 19.526 3.52499 19.163 2.78999C18.631 1.88599 18.226 2.09799 16.897 2.35199C16.422 1.98499 16.002 1.70199 15.778 1.61799C15.191 1.37799 11.82 -0.614005 8.086 1.15199C7.86193 1.29264 7.65107 1.4533 7.456 1.63199C7.023 1.67399 6.464 1.80199 5.918 2.13999C5.178 2.29599 4.44999 2.64899 4.01599 3.38299C3.72299 4.11699 3.792 4.97899 3.89 5.52999C3.639 5.83999 3.42899 6.07999 3.31699 6.20799C2.50599 7.02699 2.506 7.26799 2.617 7.50799C2.617 7.53499 2.716 7.63399 2.841 7.74799C2.421 8.36799 2.044 9.258 2.506 10.106C2.758 10.544 3.17699 10.742 3.62499 10.784C3.918 11.137 5.135 12.677 5.639 12.775C6.044 12.917 6.478 12.733 6.869 12.747C6.813 13.58 6.715 14.795 6.576 15.374C6.464 16.434 5.764 17.493 5.526 18.552C5.289 19.498 5.066 20.911 4.827 21.842C4.477 22.902 4.24 22.902 3.89 24.074C3.303 25.84 3.429 28.424 2.953 30.077C2.366 31.602 1.443 31.955 1.093 33.142C0.812995 34.102 0.519995 35.782 1.331 36.545C1.513 36.715 1.73699 36.842 2.03099 36.899C3.66699 37.139 3.77799 35.486 4.01599 34.78C4.25399 34.074 4.128 33.72 4.366 33.128C4.827 31.475 6.114 29.95 6.352 29.357C6.366 29.328 6.394 29.286 6.436 29.215C6.632 31.108 7.009 32.563 6.939 33.947C6.827 36.065 6.129 38.537 6.24 41.009C6.254 41.63 6.296 42.237 6.366 42.831C5.596 43.184 4.856 43.664 4.492 44.314C3.681 46.079 4.953 51.375 6.59 54.2C7.219 55.02 8.198 56.742 10.114 57.547C8.911 58.564 7.401 59.963 7.764 60.316C8.002 60.556 8.366 60.386 8.715 60.118C8.604 60.33 8.562 60.528 8.701 60.668C8.911 60.938 9.30299 60.725 9.68099 60.415C9.48499 60.711 9.415 61.008 9.751 61.149C10.072 61.29 10.436 61.093 10.743 60.824C10.632 61.064 10.603 61.276 10.799 61.389C11.051 61.559 13.666 59.242 15.009 58.014C15.261 58.127 15.527 58.24 15.806 58.338C16.687 58.621 17.624 58.663 18.352 58.621C18.366 58.635 18.394 58.649 18.408 58.663C17.065 59.906 14.898 62.011 15.218 62.335C15.471 62.519 15.988 62.166 16.422 61.799C16.114 62.138 15.862 62.519 16.03 62.689C16.282 62.816 16.827 62.392 17.289 61.982C17.023 62.322 16.855 62.702 17.191 62.929C17.568 63.225 18.281 62.561 18.729 62.053C18.394 62.491 18.03 63.084 18.239 63.282C18.953 63.607 20.981 61.403 22.184 59.977C23.89 60.259 26.337 60.259 28.379 58.579C28.953 58.112 29.499 57.378 30.002 56.446C31.596 56.601 33.918 56.728 35.834 56.46C39.092 55.853 42.002 53.847 41.652 52.435Z"/>
</g>
<defs>
<clipPath id="clip0_1_37">
<rect width="42" height="64" fill="white"/>
</clipPath>
</defs>
</svg>
