<svg width="84" height="64" viewBox="0 0 84 64" xmlns="http://www.w3.org/2000/svg">
<g clip-path="url(#clip0_1_59)">
<path d="M75.164 29.515C76.616 29.794 77.844 29.479 78.926 29.199C79.629 29.019 80.234 28.866 80.748 28.92C82.002 29.055 82.543 29.497 82.552 29.497C82.5928 29.5331 82.6404 29.5608 82.6919 29.5786C82.7435 29.5963 82.798 29.6037 82.8524 29.6004C82.9068 29.597 82.9601 29.583 83.0091 29.5591C83.0581 29.5352 83.1019 29.5018 83.138 29.461C83.1741 29.4202 83.2018 29.3726 83.2195 29.3211C83.2373 29.2695 83.2447 29.215 83.2413 29.1605C83.238 29.1061 83.224 29.0529 83.2001 29.0039C83.1761 28.9549 83.1428 28.9111 83.102 28.875C83.03 28.812 82.353 28.262 80.847 28.1C80.18 28.028 79.476 28.208 78.727 28.406C77.726 28.668 76.598 28.956 75.317 28.713H75.29C74.686 28.632 73.585 28.127 72.422 27.596C70.537 26.73 68.39 25.757 66.937 25.856C65.693 25.937 64.096 26.658 62.554 27.442C62.58 27.424 62.617 27.406 62.644 27.388C64.051 26.496 65.504 25.586 67.298 25.415C68.976 25.298 70.374 26.135 71.728 26.947C72.864 27.622 73.938 28.271 75.128 28.343C76.662 28.488 77.78 28.091 78.673 27.767C79.196 27.577 79.656 27.415 80.017 27.442H80.044C81.334 27.442 82.444 28.127 82.453 28.127C82.499 28.1558 82.5503 28.1752 82.6039 28.184C82.6575 28.1928 82.7124 28.1909 82.7652 28.1783C82.8181 28.1657 82.8679 28.1428 82.9118 28.1108C82.9557 28.0788 82.9928 28.0384 83.021 27.992C83.0498 27.946 83.0692 27.8946 83.078 27.841C83.0868 27.7874 83.0848 27.7326 83.0723 27.6798C83.0597 27.6269 83.0368 27.5771 83.0048 27.5332C82.9728 27.4893 82.9324 27.4522 82.886 27.424C82.832 27.388 81.569 26.614 80.044 26.614C79.512 26.577 78.989 26.766 78.384 26.983C77.518 27.289 76.544 27.64 75.182 27.514H75.164C74.172 27.451 73.18 26.866 72.134 26.234C70.735 25.397 69.156 24.451 67.217 24.586H67.208C65.215 24.776 63.672 25.748 62.184 26.686C61.182 27.316 60.244 27.911 59.243 28.208C58.449 28.415 57.782 28.542 57.24 28.623C56.203 27.668 54.913 26.992 53.11 26.577C50.177 25.901 45.144 27.027 44.386 26.956C43.592 26.884 39.082 26.469 36.123 24.189C36.845 24.009 37.377 24.144 37.865 24.262C38.135 24.325 38.405 24.397 38.676 24.397C38.893 24.397 39.109 24.352 39.326 24.235C39.3741 24.2096 39.4166 24.1748 39.4509 24.1326C39.4853 24.0904 39.5108 24.0417 39.5259 23.9894C39.541 23.9371 39.5455 23.8824 39.5389 23.8283C39.5324 23.7743 39.5151 23.7222 39.488 23.675C39.4624 23.6271 39.4274 23.5848 39.3852 23.5506C39.3429 23.5164 39.2942 23.4911 39.242 23.4761C39.1898 23.4611 39.1351 23.4567 39.0812 23.4632C39.0272 23.4697 38.9751 23.487 38.928 23.514C38.73 23.622 38.496 23.568 38.072 23.46C37.467 23.306 36.647 23.1 35.519 23.505C35.483 23.433 35.447 23.369 35.419 23.297C35.817 23.027 36.638 23.171 37.314 23.288C38.044 23.415 38.685 23.523 39.082 23.225C39.1257 23.193 39.1626 23.1525 39.1904 23.1059C39.2182 23.0594 39.2364 23.0078 39.244 22.9541C39.2515 22.9004 39.2483 22.8457 39.2343 22.7934C39.2204 22.741 39.1962 22.6919 39.163 22.649C39.0967 22.5624 38.9991 22.5054 38.8911 22.4902C38.7831 22.4751 38.6735 22.503 38.586 22.568C38.451 22.648 37.828 22.541 37.459 22.478C36.709 22.351 35.889 22.208 35.249 22.468C35.239 22.369 35.239 22.261 35.23 22.144C35.483 21.991 36.376 22.144 36.908 22.234C37.368 22.315 37.801 22.387 38.162 22.387C38.469 22.387 38.73 22.333 38.929 22.189C38.9727 22.1569 39.0096 22.1165 39.0374 22.0699C39.0652 22.0234 39.0834 21.9718 39.091 21.9181C39.0985 21.8644 39.0953 21.8097 39.0813 21.7574C39.0674 21.705 39.0432 21.6559 39.01 21.613C38.9779 21.5692 38.9374 21.5322 38.8908 21.5043C38.8442 21.4763 38.7925 21.458 38.7388 21.4504C38.685 21.4427 38.6302 21.4459 38.5777 21.4598C38.5252 21.4736 38.476 21.4978 38.433 21.531C38.261 21.631 37.477 21.495 37.053 21.423C36.376 21.306 35.727 21.198 35.231 21.288C35.231 21.216 35.239 21.153 35.239 21.072C36.557 20.603 37.251 20.874 37.756 21.081C37.991 21.171 38.226 21.271 38.478 21.271C38.6086 21.2698 38.7376 21.2419 38.857 21.189C39.064 21.099 39.163 20.847 39.064 20.639C38.974 20.432 38.721 20.333 38.514 20.432C38.442 20.468 38.261 20.396 38.063 20.315C37.819 20.215 37.503 20.09 37.098 20.035L37.585 20.09C38.198 20.162 38.685 20.225 39.019 20.054C39.1182 20.005 39.1939 19.9186 39.2295 19.8138C39.2652 19.709 39.2578 19.5943 39.209 19.495C39.1597 19.3957 39.0732 19.32 38.9682 19.2844C38.8633 19.2487 38.7485 19.2562 38.649 19.305C38.523 19.36 38.036 19.297 37.684 19.261C37.026 19.18 36.204 19.081 35.438 19.243C35.438 19.233 35.438 19.216 35.447 19.207C35.871 19.189 36.349 19.08 36.854 18.963C37.639 18.783 38.532 18.576 38.92 18.828C39.0123 18.888 39.1245 18.9094 39.2324 18.8875C39.3403 18.8656 39.4353 18.8023 39.497 18.711C39.557 18.6187 39.5784 18.5065 39.5565 18.3986C39.5346 18.2907 39.4712 18.1956 39.38 18.134C38.703 17.684 37.666 17.918 36.674 18.152C36.3117 18.2452 35.9445 18.3176 35.574 18.369C35.6 18.152 35.636 17.936 35.664 17.719C36.394 17.711 37.062 17.558 37.639 17.423C38.315 17.269 38.911 17.134 39.236 17.333C39.2821 17.3618 39.3335 17.3811 39.3871 17.3898C39.4407 17.3985 39.4956 17.3965 39.5484 17.3839C39.6013 17.3712 39.6511 17.3482 39.695 17.3161C39.7388 17.284 39.7759 17.2435 39.804 17.197C39.8326 17.1509 39.8518 17.0996 39.8604 17.0461C39.8691 16.9926 39.867 16.9378 39.8543 16.8851C39.8417 16.8324 39.8187 16.7827 39.7867 16.7389C39.7547 16.6951 39.7144 16.6581 39.668 16.63C39.046 16.251 38.307 16.422 37.45 16.62C36.935 16.738 36.376 16.864 35.78 16.891C35.79 16.791 35.808 16.693 35.817 16.594C36.304 16.53 36.827 16.404 37.341 16.278C38.108 16.098 39.154 15.846 39.425 16.044C39.615 16.179 39.867 16.134 40.002 15.954C40.066 15.8654 40.0925 15.755 40.0756 15.647C40.0588 15.5389 40 15.4419 39.912 15.377C39.326 14.954 38.316 15.197 37.142 15.477C36.737 15.575 36.304 15.674 35.916 15.747L35.97 15.206C36.385 15.206 36.854 15.161 37.36 15.125C38.18 15.053 39.416 14.954 39.687 15.197C39.7638 15.2663 39.8635 15.3047 39.967 15.305C40.0247 15.3057 40.0818 15.2939 40.1346 15.2707C40.1874 15.2474 40.2346 15.213 40.273 15.17C40.3453 15.0879 40.383 14.9809 40.3779 14.8715C40.3729 14.7622 40.3256 14.6591 40.246 14.584C39.705 14.098 38.532 14.197 37.287 14.304C36.881 14.341 36.421 14.377 36.042 14.386C36.052 14.296 36.052 14.206 36.06 14.116C36.53 14.143 37.089 14.098 37.693 14.044C38.568 13.972 39.759 13.872 40.065 14.152C40.1418 14.2213 40.2415 14.2597 40.345 14.26C40.4288 14.2608 40.5109 14.236 40.5804 14.189C40.6498 14.1419 40.7033 14.0749 40.7337 13.9967C40.764 13.9186 40.7699 13.833 40.7505 13.7514C40.7311 13.6698 40.6873 13.5961 40.625 13.54C40.047 13.016 38.865 13.116 37.621 13.215C37.116 13.26 36.529 13.305 36.096 13.287C36.096 13.197 36.106 13.116 36.106 13.025C36.52 13.035 37.007 13.025 37.585 13.007C38.415 12.98 39.966 12.927 40.21 13.161C40.291 13.241 40.4 13.278 40.507 13.278C40.5619 13.2792 40.6166 13.2695 40.6677 13.2494C40.7189 13.2293 40.7655 13.1993 40.805 13.161C40.8436 13.1226 40.8743 13.077 40.8952 13.0267C40.9161 12.9764 40.9269 12.9225 40.9269 12.868C40.9269 12.8135 40.9161 12.7596 40.8952 12.7093C40.8743 12.659 40.8436 12.6134 40.805 12.575C40.355 12.125 39.281 12.125 37.567 12.178C37.134 12.196 36.575 12.214 36.114 12.196C36.114 12.124 36.114 12.043 36.106 11.971C36.583 11.971 37.106 11.953 37.648 11.926C38.514 11.89 39.975 11.827 40.21 12.034C40.2869 12.1093 40.3903 12.1513 40.498 12.151C40.5529 12.1522 40.6076 12.1425 40.6587 12.1224C40.7099 12.1023 40.7565 12.0723 40.796 12.034C40.8345 11.9956 40.865 11.95 40.8858 11.8999C40.9067 11.8497 40.9174 11.7958 40.9174 11.7415C40.9174 11.6872 40.9067 11.6333 40.8858 11.5831C40.865 11.533 40.8345 11.4874 40.796 11.449C40.354 11.007 39.299 11.025 37.612 11.097C37.125 11.115 36.565 11.142 36.06 11.142L36.006 10.647C36.403 10.656 36.846 10.637 37.314 10.62C38.352 10.584 39.768 10.53 40.138 10.899C40.218 10.98 40.327 11.016 40.435 11.016C40.4899 11.0171 40.5445 11.0074 40.5957 10.9873C40.6468 10.9672 40.6935 10.9372 40.733 10.899C40.7716 10.8606 40.8023 10.815 40.8232 10.7647C40.8441 10.7144 40.8549 10.6605 40.8549 10.606C40.8549 10.5515 40.8441 10.4976 40.8232 10.4473C40.8023 10.397 40.7716 10.3514 40.733 10.313C40.111 9.692 38.749 9.737 37.296 9.791C36.818 9.809 36.304 9.827 35.88 9.809C35.88 9.791 35.87 9.773 35.87 9.746C36.322 9.764 36.836 9.746 37.386 9.728C38.442 9.692 39.759 9.646 40.201 9.962C40.2452 9.99385 40.2954 10.0166 40.3486 10.0288C40.4017 10.041 40.4567 10.0425 40.5105 10.0332C40.5642 10.0239 40.6155 10.0039 40.6615 9.97455C40.7074 9.94516 40.747 9.90689 40.778 9.862C40.8099 9.81787 40.8327 9.76778 40.845 9.71469C40.8573 9.6616 40.8588 9.60659 40.8495 9.5529C40.8402 9.49921 40.8202 9.44793 40.7907 9.40209C40.7613 9.35625 40.7229 9.31678 40.678 9.286C40.5923 9.2278 40.502 9.17663 40.408 9.133C40.4936 9.12298 40.574 9.0866 40.638 9.02891C40.7021 8.97123 40.7466 8.89507 40.7655 8.81097C40.7844 8.72686 40.7767 8.63897 40.7434 8.55944C40.7102 8.47991 40.6531 8.41267 40.58 8.367C39.488 7.7 37.937 7.862 36.584 7.997H36.556C37.594 7.745 38.785 7.511 39.308 7.862C39.4003 7.92203 39.5125 7.94341 39.6204 7.92152C39.7283 7.89964 39.8233 7.83625 39.885 7.745C39.9449 7.65284 39.9663 7.5408 39.9444 7.43305C39.9225 7.32529 39.8592 7.23046 39.768 7.169C39.6295 7.07636 39.4773 7.00616 39.317 6.961C39.373 6.92558 39.4197 6.87725 39.4532 6.82006C39.4868 6.76288 39.5061 6.69849 39.5096 6.6323C39.5131 6.56611 39.5008 6.50004 39.4735 6.43961C39.4462 6.37919 39.4049 6.32617 39.353 6.285C39.253 6.205 38.947 5.961 36.854 5.979C35.961 5.989 35.041 6.042 34.247 6.141C34.1859 6.0612 34.1225 5.98317 34.057 5.907C35.221 5.709 36.845 5.547 38.27 5.817C38.496 5.862 38.712 5.717 38.757 5.493C38.7679 5.43973 38.7682 5.38483 38.7578 5.33146C38.7474 5.27809 38.7265 5.2273 38.6964 5.18203C38.6663 5.13676 38.6275 5.09789 38.5823 5.06768C38.5371 5.03747 38.4863 5.01651 38.433 5.006C37.946 4.916 37.45 4.862 36.953 4.844C37.179 4.772 37.386 4.673 37.567 4.528C37.6091 4.49325 37.6439 4.4505 37.6694 4.40223C37.695 4.35396 37.7107 4.30111 37.7157 4.24674C37.7207 4.19236 37.7149 4.13753 37.6987 4.08541C37.6824 4.03328 37.656 3.98488 37.621 3.943C37.5861 3.90085 37.5433 3.86601 37.4949 3.84046C37.4466 3.81492 37.3937 3.79919 37.3392 3.79417C37.2847 3.78915 37.2298 3.79495 37.1776 3.81122C37.1254 3.8275 37.0769 3.85393 37.035 3.889C36.439 4.375 34.779 4.051 33.445 3.789C32.569 3.619 31.821 3.474 31.27 3.501C30.9157 3.26958 30.5517 3.05339 30.179 2.853C30.991 2.564 31.956 2.88 33.048 3.231C33.886 3.501 34.752 3.781 35.6 3.781C35.817 3.781 36.042 3.763 36.259 3.718C36.3124 3.70761 36.3633 3.68673 36.4086 3.65657C36.4539 3.62641 36.4928 3.58756 36.523 3.54228C36.5532 3.49699 36.5742 3.44617 36.5847 3.39274C36.5951 3.33931 36.5949 3.28434 36.584 3.231C36.5735 3.17755 36.5525 3.12671 36.5222 3.08142C36.4919 3.03613 36.453 2.9973 36.4076 2.96717C36.3622 2.93704 36.3113 2.9162 36.2578 2.90588C36.2043 2.89555 36.1493 2.89593 36.096 2.907C35.646 2.997 35.158 2.943 34.653 2.835C35.023 2.88 35.393 2.862 35.781 2.735C35.8849 2.70026 35.9708 2.62564 36.0198 2.52756C36.0687 2.42947 36.0767 2.31597 36.042 2.212C36.0072 2.10804 35.9326 2.02213 35.8345 1.97318C35.7364 1.92424 35.6229 1.91626 35.519 1.951C34.798 2.195 34.067 1.871 33.209 1.501C31.902 0.933001 30.305 0.239001 28.465 1.771C27.68 1.068 26.49 0.122001 26.147 0.276001C25.759 0.663001 26.057 1.285 26.327 1.807C26.075 1.654 25.84 1.555 25.768 1.555C25.615 1.483 24.262 0.879001 23.964 1.258C23.747 1.51 24.244 2.303 24.704 2.934C24.4785 2.95934 24.2552 3.00145 24.036 3.06C23.359 4.033 21.258 5.385 20.806 5.763C18.552 7.412 15.169 8.917 14.871 9.214C14.267 9.962 14.574 10.791 14.574 10.791C14.574 10.791 15.07 10.836 15.503 10.656C15.043 10.89 14.501 10.944 14.501 10.944C14.501 10.944 14.348 11.845 14.501 12.07C14.574 12.223 14.799 12.368 15.106 12.449C15.556 12.602 18.488 10.799 18.642 11.395C18.795 11.917 15.187 12.674 16.162 13.647C17.063 14.62 22.025 11.692 22.025 11.692L22.115 11.674C23.26 12.206 24.911 12.476 26.454 12.287H26.463C26.463 12.287 23.008 15.287 21.573 17.765C20.148 20.243 19.995 21.369 19.697 22.27C19.589 22.523 19.309 23.18 18.957 23.991C17.153 25.145 16.423 27.091 16.188 28.776C15.358 28.406 13.843 27.766 13.158 27.605C12.183 27.379 11.128 27.082 10.451 27.001C9.70297 26.848 8.87297 25.721 7.51997 26.028C6.09397 26.325 4.20997 31.506 3.61397 32.56C3.00897 33.533 0.456974 37.444 0.456974 38.192C0.383974 38.868 1.06097 39.165 1.13297 39.922C1.13297 40.598 0.682974 41.652 0.682974 42.022C0.682974 45.779 1.35897 46.229 1.35897 46.229C1.35897 46.229 3.45997 44.427 3.68597 43.229C3.61397 42.481 2.85597 41.049 2.85597 41.049C2.85597 41.049 2.47697 40.444 2.78397 39.922C3.16297 39.472 3.83897 40.445 3.83897 40.445C3.83897 40.445 3.54197 38.715 3.61397 38.57C3.68597 38.417 4.36197 39.543 4.36197 39.543L4.20897 37.813C4.20897 37.813 6.84297 30.083 8.04297 29.479C8.65597 29.109 10.713 30.74 11.453 31.353C10.758 31.299 9.28797 29.965 7.88897 31.578C6.83397 32.704 8.33997 34.66 8.63897 34.958C8.86397 35.254 11.949 41.039 12.246 41.49C12.923 42.39 12.77 44.643 14.05 45.391C14.8 45.841 15.476 45.319 16.378 45.545C17.28 45.842 17.433 46.445 17.803 46.671C19.003 47.347 20.663 47.347 20.663 47.347C20.663 47.347 20.437 44.49 19.012 43.067C18.11 42.616 16.152 43.895 15.476 42.769C15.178 42.391 17.054 42.093 17.054 42.093C17.054 42.093 15.476 42.021 15.404 41.715C15.178 41.111 16.684 41.336 16.684 41.336C16.684 41.336 15.178 40.733 14.501 40.138C13.825 39.615 11.723 36.606 12.319 35.48C12.842 34.426 20.816 39.688 22.241 39.084C22.845 38.768 23.378 38.291 23.838 37.75C25.29 38.814 29.07 41.364 32.614 42.012C39.614 43.067 41.482 41.949 44.296 41.112C44.422 41.552 44.594 42.012 44.792 42.462C46.596 46.364 50.277 47.716 50.277 49.446C50.123 52.302 42.681 56.582 42.384 57.033C42.086 57.483 42.23 57.862 41.933 58.385C41.553 58.835 38.848 62.142 38.848 63.115C38.776 63.791 42.907 62.818 43.205 62.367C43.43 61.989 43.132 60.493 43.205 59.817C43.205 59.141 43.655 58.537 43.953 58.466C44.251 58.538 44.855 59.817 44.855 59.817C44.855 59.817 45.009 57.943 45.081 57.862C45.306 57.79 45.604 59.06 45.604 59.06C45.604 59.06 46.353 56.735 46.578 56.654C47.101 56.276 48.382 54.402 51.539 52.978C54.624 51.554 55.896 51.104 56.049 50.122C56.203 49.292 54.624 49.292 53.948 47.644C53.199 45.995 53.497 44.788 53.65 44.265C53.695 44.094 53.758 43.868 53.822 43.589C58.07 45.085 60.172 43.859 62.59 45.31C65.142 46.887 66.126 54.546 66.72 55.375C67.397 56.204 69.274 56.573 69.427 56.88C70.933 59.88 72.963 59.583 72.963 59.583C72.963 59.583 72.665 55.303 71.989 54.924C70.933 55.222 68.904 54.771 68.904 54.096C68.832 53.42 69.878 53.348 69.878 53.348C69.878 53.348 68.976 52.744 68.976 52.672C68.976 52.519 69.653 52.519 69.653 52.519C69.653 52.519 68.299 51.843 67.551 50.644C66.198 48.392 66.495 40.804 65.675 41.111C64.249 41.49 62.968 40.958 62.139 40.282C61.759 39.832 61.309 39.832 60.785 38.102C60.325 36.669 60.722 34.507 59.613 31.957C60.1019 31.6966 60.6154 31.4853 61.146 31.326C63.789 30.786 66.18 30.983 67.01 31.353L67.028 31.362C67.461 31.524 68.236 32.254 68.994 32.957C70.167 34.056 71.493 35.291 72.638 35.579H72.656C73.82 35.822 74.839 35.606 75.823 35.399C76.463 35.263 77.076 35.137 77.699 35.137C79.079 35.137 79.801 35.759 79.828 35.786C79.9048 35.8553 80.0045 35.8937 80.108 35.894C80.1918 35.8948 80.2739 35.87 80.3434 35.8229C80.4128 35.7759 80.4663 35.7089 80.4967 35.6307C80.527 35.5525 80.5329 35.467 80.5135 35.3854C80.4941 35.3038 80.4503 35.2301 80.388 35.174C80.351 35.137 79.431 34.317 77.726 34.317C78.123 34.263 78.511 34.227 78.88 34.245C79.8 34.308 80.694 34.921 80.703 34.921C80.7942 34.9819 80.9057 35.0047 81.0135 34.9845C81.1213 34.9644 81.217 34.9028 81.28 34.813C81.3417 34.722 81.3649 34.6103 81.3447 34.5023C81.3245 34.3942 81.2624 34.2985 81.172 34.236C81.127 34.209 80.089 33.497 78.926 33.416C78.339 33.389 77.771 33.47 77.176 33.56C76.246 33.696 75.29 33.84 74.109 33.578C73.225 33.38 72.16 32.632 71.141 31.902C70.086 31.155 69.012 30.389 67.957 30.082C68.137 30.092 68.317 30.1 68.48 30.118H68.489C70.059 30.272 71.042 31.028 71.989 31.758C72.855 32.425 73.748 33.118 75.011 33.272C76.381 33.443 77.041 33.245 77.627 33.065C78.096 32.921 78.511 32.804 79.296 32.894C80.937 33.092 81.442 33.588 81.442 33.588L81.433 33.578L82.056 33.028C81.993 32.957 81.37 32.299 79.386 32.065C78.421 31.948 77.888 32.11 77.374 32.263C76.824 32.434 76.292 32.587 75.101 32.443C74.064 32.317 73.333 31.749 72.485 31.101C72.097 30.803 71.682 30.479 71.222 30.2C71.294 30.245 71.376 30.29 71.448 30.335C72.494 30.947 73.577 31.587 75.065 31.839H75.074C76.228 32.011 77.104 31.759 77.879 31.533C78.529 31.343 79.097 31.182 79.719 31.308H79.738C81.523 31.569 82.028 32.128 82.038 32.137L82.028 32.127L82.688 31.623C82.624 31.543 82.002 30.813 79.873 30.497C79.061 30.335 78.348 30.542 77.653 30.74C76.923 30.947 76.174 31.164 75.2 31.02C73.865 30.794 72.855 30.19 71.872 29.614C70.662 28.902 69.4 28.164 67.623 28.164C66.685 28.164 65.747 28.388 64.818 28.694C65.792 28.262 66.685 27.929 67.578 27.866C69.247 27.749 70.789 28.623 72.278 29.47C73.441 30.127 74.533 30.758 75.579 30.794C76.806 30.839 77.509 30.587 78.132 30.362C78.664 30.172 79.115 30.01 79.855 30.046C81.451 30.109 82.281 30.821 82.299 30.839C82.3392 30.8758 82.3862 30.9043 82.4374 30.9229C82.4886 30.9415 82.5429 30.9498 82.5974 30.9474C82.6518 30.945 82.7052 30.9318 82.7545 30.9088C82.8039 30.8857 82.8482 30.8532 82.885 30.813C82.9217 30.7728 82.9502 30.7258 82.9688 30.6746C82.9874 30.6234 82.9958 30.569 82.9933 30.5146C82.9909 30.4602 82.9778 30.4068 82.9548 30.3574C82.9317 30.3081 82.8992 30.2638 82.859 30.227C82.814 30.19 81.821 29.299 79.891 29.217C78.989 29.181 78.411 29.389 77.852 29.587C77.275 29.794 76.671 30.01 75.606 29.974C74.767 29.947 73.756 29.37 72.684 28.758C72.214 28.488 71.718 28.208 71.204 27.956C71.493 28.082 71.781 28.217 72.052 28.343C73.342 28.911 74.442 29.416 75.164 29.515ZM16.044 10.142C16.107 10.007 16.144 9.845 16.144 9.655C16.1602 9.82369 16.1254 9.99337 16.044 10.142ZM23.441 6.358C23.287 6.204 23.891 5.006 24.343 4.934C24.793 4.781 25.317 5.312 25.993 5.538C25.317 6.43 23.585 6.583 23.441 6.358ZM36.358 19.945C36.43 19.945 36.511 19.945 36.593 19.955C36.232 19.955 35.817 20.009 35.339 20.144C35.339 20.126 35.339 20.117 35.348 20.099C35.6734 19.9905 36.015 19.9384 36.358 19.945ZM36.647 8.781C37.819 8.664 39.137 8.529 40.002 8.961C39.578 8.854 39.064 8.827 38.505 8.827C38.135 8.827 37.747 8.836 37.35 8.854C36.827 8.872 36.232 8.89 35.763 8.863C36.043 8.845 36.34 8.818 36.647 8.781ZM38.261 6.826C37.486 6.862 36.62 7.087 35.808 7.295C35.591 7.349 35.338 7.412 35.095 7.475C34.9955 7.27488 34.8871 7.07935 34.77 6.889C36.087 6.763 37.486 6.754 38.261 6.826ZM33.255 4.574C33.877 4.7 34.509 4.817 35.095 4.889C34.5139 4.94929 33.936 5.03638 33.363 5.15C33.1094 4.90056 32.8445 4.66297 32.569 4.438C32.795 4.483 33.029 4.528 33.255 4.574ZM32.84 2.213C33.02 2.293 33.2 2.375 33.39 2.447C33.345 2.429 33.3 2.42 33.264 2.402C31.938 1.97 30.45 1.492 29.232 2.366C29.1817 2.34261 29.1303 2.32159 29.078 2.303C29.078 2.303 29.07 2.293 29.061 2.285C30.45 1.168 31.568 1.655 32.84 2.213ZM70.663 32.578C71.808 33.389 72.882 34.155 73.937 34.389C74.677 34.552 75.344 34.579 75.957 34.543C75.859 34.561 75.76 34.579 75.669 34.606C74.722 34.804 73.839 34.993 72.846 34.786C71.916 34.552 70.672 33.389 69.58 32.362C68.976 31.794 68.435 31.29 67.957 30.947C68.805 31.263 69.752 31.93 70.663 32.578ZM67.641 28.992C68.958 28.992 69.941 29.452 70.924 30.01C70.203 29.6121 69.4078 29.367 68.588 29.29C67.578 29.172 66.278 29.299 64.953 29.524C65.864 29.217 66.757 28.992 67.641 28.992ZM59.378 29.01C59.2465 29.0683 59.1108 29.1165 58.972 29.154C58.612 29.235 58.287 29.308 57.998 29.361C57.989 29.352 57.98 29.334 57.962 29.326C58.377 29.244 58.846 29.146 59.378 29.01ZM67.533 27.046C66.189 27.145 64.872 27.758 63.483 28.416C62.03 29.091 60.433 29.839 58.557 30.109L58.548 30.1C58.738 30.064 58.936 30.02 59.153 29.965L59.171 29.956C59.802 29.776 60.722 29.299 61.796 28.74C63.492 27.857 65.602 26.758 66.974 26.667C67.028 26.667 67.073 26.658 67.127 26.658C67.867 26.658 68.877 26.983 69.914 27.398C69.165 27.136 68.372 26.983 67.533 27.046Z"/>
<path d="M23.89 5.82601C23.89 5.52901 24.116 5.30301 24.342 5.30301C24.639 5.30301 24.865 5.52901 24.865 5.82601C24.865 6.05101 24.639 6.27601 24.342 6.27601C24.2252 6.26809 24.1152 6.21816 24.0323 6.13545C23.9494 6.05274 23.8992 5.94283 23.891 5.82601H23.89Z"/>
</g>
<defs>
<clipPath id="clip0_1_59">
<rect width="84" height="64" fill="white"/>
</clipPath>
</defs>
</svg>
