<svg width="53" height="71" viewBox="0 0 53 71" xmlns="http://www.w3.org/2000/svg">
<g clip-path="url(#clip0_1_98)">
<path d="M52.192 18.04C52.0857 17.9335 51.9587 17.8498 51.819 17.794C53.163 15.573 52.682 14.168 52.359 13.784C52.2754 13.6985 52.1699 13.6376 52.054 13.608C52.388 12.665 52.467 11.918 52.437 11.495C52.359 10.435 51.867 10.022 51.534 10.022C51.044 10.022 49.571 15.102 46.214 17.96C42.856 20.83 40.647 21.566 40.647 21.566V21.596C39.175 22.126 35.219 23.796 33.118 26.892C31.724 29.102 30.173 33.199 29.515 33.769C28.946 34.428 28.21 34.428 28.21 34.428C28.21 34.428 25.834 32.05 25.677 29.515C25.353 23.944 34.345 15.681 34.188 12.891C34.109 11.584 32.716 11.093 32.716 11.093C32.716 11.093 28.298 1.00301 27.562 0.433014C27.592 0.511014 27.621 0.599014 27.65 0.678014V0.688014C29.24 5.50201 30.428 12.056 30.428 12.056C30.428 12.056 31.331 15.573 28.956 18.609C27.316 21.478 22.084 23.846 21.515 30.154C21.348 31.136 21.593 33.425 21.593 33.425C21.593 33.425 20.936 33.504 20.533 32.365C20.043 31.215 18.983 26.715 18.737 26.056C18.423 25.428 17.137 22.48 13.004 20.506L13.014 20.496C13.014 20.496 12.954 20.476 12.847 20.436C12.768 20.407 12.7 20.368 12.621 20.338C11.924 20.004 10.285 19.09 7.77099 16.821C4.25699 13.628 2.94099 8.22401 2.94099 8.05701C2.86299 7.89001 2.77499 7.56501 2.52999 7.56501C2.21499 7.56501 1.07699 9.36301 1.55799 11.24C1.40099 11.23 1.24399 11.25 1.13599 11.328C0.722986 11.653 0.477985 11.741 0.565985 13.785C0.605985 14.335 0.830986 14.974 1.16599 15.652C0.909986 15.632 0.654985 15.701 0.477985 15.996C0.0659855 16.732 0.398986 17.882 0.801986 18.864C0.919986 19.14 1.15499 19.582 1.50899 20.093C0.830985 21.046 1.00799 21.812 1.53899 22.716C1.77399 23.226 2.12699 23.747 2.83399 24.278C2.69322 24.3798 2.58431 24.5196 2.51999 24.681C2.27399 25.339 2.59799 26.155 3.00999 26.646C3.14878 26.8156 3.31109 26.9644 3.49199 27.088C3.40055 27.2537 3.34982 27.4388 3.34399 27.628C3.34399 28.12 3.75699 28.532 4.00199 28.857C4.17899 29.034 4.36499 29.259 5.50399 29.495C5.30799 29.682 5.10199 29.967 5.15099 30.33C5.21899 30.89 5.52399 31.618 6.97599 31.775C6.90357 31.9943 6.89662 32.2299 6.95599 32.453C7.03599 32.777 7.36899 33.357 8.26199 33.435C8.55699 33.435 8.87199 33.415 9.18499 33.386C8.99899 33.592 8.78299 33.956 8.83199 34.496C8.90099 36.137 10.01 36.196 10.667 36.117C10.5962 36.1696 10.5305 36.2289 10.471 36.294C10.393 36.461 9.73499 37.522 10.55 38.426C11.433 39.311 11.845 39.016 12.09 38.927L11.944 39.085C11.944 39.085 11.374 40.235 12.268 41.217C13.023 41.973 13.495 41.865 13.818 41.708C13.848 42.13 14.005 42.897 14.722 43.506C15.772 44.41 16.204 44.066 16.459 43.938L16.439 43.998C16.439 43.998 16.194 44.98 17.745 45.638C18.943 46.139 19.315 45.678 19.463 45.353C19.748 45.844 20.327 46.473 21.348 46.375C22.388 46.247 22.497 45.805 22.585 45.461C22.791 45.579 23.095 45.697 23.478 45.717L23.557 46.945C23.557 46.945 23.724 51.12 23.557 52.27C23.419 53.223 22.437 56.829 22.114 58.028C22.0589 58.0926 22.0216 58.1705 22.006 58.254C19.63 64.227 17.264 65.21 16.606 65.701C15.949 66.271 15.949 66.684 16.037 67.008C16.283 67.823 17.186 67.578 17.677 67.499C17.932 67.459 18.913 67.028 19.837 66.566C19.375 67.096 18.953 67.636 18.904 68.079C18.825 68.816 18.904 68.737 19.228 68.983C20.455 69.798 22.418 67.509 22.418 67.509L22.595 67.312C22.29 67.862 22.055 68.324 22.005 68.816C22.005 69.552 22.005 69.798 23.557 69.552C24.254 69.317 25.088 68.512 25.765 67.735C25.334 68.57 25.117 68.885 25.117 69.72C24.872 70.624 25.775 71.026 27.081 70.21C27.66 69.74 28.21 68.737 28.651 67.735C28.5408 68.4545 28.5913 69.1894 28.799 69.887C29.289 71.282 30.026 70.545 30.349 70.054C30.703 69.582 31.057 68.167 31.351 66.949C31.41 68.069 31.459 68.875 31.655 69.562C33.206 72.264 33.785 69.238 33.785 68.992C33.845 68.835 33.865 68.492 33.865 68.03C34.168 68.855 34.522 69.474 34.935 69.887C35.592 70.624 35.995 69.641 36.161 69.15C36.201 68.708 36.181 68.04 36.141 67.312C36.426 67.951 36.701 68.364 37.231 69.228C37.967 70.289 39.194 69.641 38.871 67.833C38.782 67.47 38.664 66.978 38.527 66.428C38.861 67.028 39.293 67.627 39.852 68.324C40.667 69.228 41.894 68.649 41.325 66.772C41.295 66.399 41.089 65.731 40.825 64.994C41.207 65.465 41.619 65.947 42.061 66.448C44.839 68.826 44.103 65.711 43.612 65.053C43.2 64.483 37.889 56.456 37.398 56.21C37.339 56.18 37.28 56.18 37.212 56.18L29.869 47.033V45.727C30.85 45.647 31.341 45.068 31.419 44.911C31.419 45.078 31.587 45.894 32.569 45.727C33.619 45.647 34.267 44.842 34.365 44.194C34.522 44.371 34.767 44.498 35.189 44.42C35.637 44.36 36.0512 44.1492 36.3634 43.8224C36.6757 43.4956 36.8674 43.0723 36.907 42.622V42.209C37.0134 42.3119 37.1429 42.388 37.2847 42.4307C37.4264 42.4735 37.5764 42.4819 37.722 42.455C38.704 42.209 39.116 41.227 39.116 40.568C39.156 40.274 39.126 40.008 39.076 39.812C39.214 39.89 39.371 39.939 39.519 39.91C40.667 39.831 40.912 38.436 40.912 38.112C40.8142 37.8192 40.6962 37.5335 40.559 37.257C40.873 37.375 41.423 37.395 41.973 36.717C42.787 35.734 42.385 35.164 42.297 34.83C42.2492 34.7432 42.1933 34.6612 42.13 34.585C43.22 34.938 45.006 35.253 45.241 33.848C45.2621 33.715 45.2451 33.5788 45.192 33.455C45.899 33.475 46.724 33.386 46.792 32.05C46.8069 31.9409 46.798 31.8299 46.7659 31.7246C46.7338 31.6193 46.6792 31.5222 46.606 31.44C48.137 31.126 48.52 29.986 48.599 29.593C48.619 29.358 48.599 29.171 48.549 29.033C48.854 28.925 48.942 28.817 49.089 28.611C49.335 28.365 49.747 27.55 49.747 26.891C49.717 26.666 49.571 26.499 49.384 26.391C49.767 26.135 50.042 25.909 50.238 25.742C50.808 25.172 51.544 24.102 51.22 22.794C51.1711 22.6148 51.0912 22.4456 50.984 22.294C52.682 20.338 52.614 18.52 52.192 18.039V18.04ZM25.117 44.144C25.117 44.124 25.117 44.094 25.107 44.074V43.967V43.997C25.107 43.987 25.117 44.045 25.117 44.144ZM23.488 45.716C23.586 45.726 23.694 45.726 23.802 45.716C24.519 45.656 24.902 45.195 25.049 44.714C24.941 45.146 24.656 45.627 23.959 45.716C23.822 45.784 23.557 45.726 23.488 45.716Z"/>
</g>
<defs>
<clipPath id="clip0_1_98">
<rect width="53" height="71" fill="white"/>
</clipPath>
</defs>
</svg>
