<svg width="62" height="55" viewBox="0 0 62 55" xmlns="http://www.w3.org/2000/svg">
<g clip-path="url(#clip0_1_20)">
<path d="M60.22 23.464C60.22 23.464 61.294 19.083 55.46 17.237C54.993 17.237 51.912 16.967 48.82 20.251C48.1236 19.6363 47.3509 19.114 46.521 18.697C43.896 17.529 38.937 18.02 38.551 18.113C30.873 20.158 29.508 19.773 29.216 19.773C25.517 19.866 22.799 16.851 22.506 16.267C20.173 12.668 21.924 8.087 21.924 8.087C21.924 8.087 22.6 9.747 23.289 10.039C25.424 10.915 25.821 11.593 25.821 11.885C25.622 15.098 26.206 15.192 26.404 15.39C26.789 15.59 27.081 15.776 27.186 15.59C27.384 15.39 26.894 13.054 27.186 12.96C27.478 12.867 27.571 15.297 27.77 15.39C29.135 15.975 30.01 14.608 30.01 14.316C29.812 11.686 28.936 10.425 29.041 9.151C28.948 8.076 29.041 6.522 29.041 5.844C29.033 5.74237 29.0055 5.64323 28.96 5.552C29.637 5.365 30.64 4.722 30.5 4.582C30.5 4.512 29.03 4.372 28.248 4.279C29.555 4.057 30.313 3.227 30.313 3.227C30.313 3.227 28.808 2.865 27.209 2.503C26.871 2.047 26.229 1.323 25.354 0.890003C23.895 0.213003 21.655 0.598003 21.655 0.598003C21.655 0.598003 20.395 0.797003 19.811 0.797003C19.228 0.797003 17.279 0.307003 16.404 0.411003C15.739 0.575003 14.806 1.229 14.245 1.486L13.195 1.58C13.265 1.603 13.323 1.615 13.394 1.626C12.857 1.65 12.18 1.661 11.34 1.872C10.453 2.164 10.126 2.748 9.54298 3.321C9.53098 3.332 9.50798 3.332 9.49598 3.332H9.53098C9.40298 3.461 9.25098 3.589 9.07598 3.706L8.87798 3.695C8.91298 3.706 8.94798 3.706 8.99398 3.718C8.95898 3.741 8.92398 3.765 8.87798 3.788C7.71098 4.372 8.58598 3.402 4.69998 6.324C4.69998 6.417 5.66898 7.001 5.57498 7.001C5.48198 7.001 4.69998 7.293 4.40898 7.2C4.12898 7.106 4.83998 7.83 5.77398 7.878H5.66898H5.85598C5.08598 8.158 4.20998 8.064 4.02398 8.064C3.92998 8.064 4.99198 8.649 5.57498 8.649C5.57498 8.684 5.55198 8.707 5.51698 8.73L5.37698 8.766C5.39998 8.777 5.42398 8.777 5.45898 8.789C5.09698 8.929 4.02398 8.871 4.02398 8.871C4.02398 9.361 5.48198 9.455 5.48198 9.548C5.50498 9.583 5.49398 9.618 5.44698 9.642H5.38998C5.40098 9.642 5.41298 9.654 5.42498 9.654C5.05098 9.829 3.41798 9.829 3.83798 9.829C3.63898 9.829 4.80598 10.507 5.00498 10.507C5.09798 10.507 4.22298 10.799 3.83798 10.705C3.93098 11.289 5.58798 11.383 5.58798 11.383C5.58798 11.967 3.83798 11.476 3.74398 11.476C3.74398 12.259 5.49398 12.259 5.49398 12.259C5.48165 12.2972 5.45704 12.3302 5.42398 12.353H5.39998C5.39998 12.353 5.41198 12.353 5.41198 12.364C5.16698 12.551 4.45498 12.551 4.03498 12.551C4.20998 12.901 5.03898 13.019 5.24898 13.031H5.20198H5.30698C5.29498 13.077 4.67698 13.416 4.12898 13.416C5.00398 14 5.78498 13.801 5.78498 13.801C5.69198 14.187 4.32698 14.292 4.41998 14.292C4.60698 14.958 5.92598 14.596 6.06598 14.678C6.06598 14.876 4.40898 15.168 4.40898 15.168C5.37698 15.753 6.15898 15.262 6.15898 15.262C6.16775 15.3089 6.1636 15.3573 6.14698 15.402C6.07698 15.437 6.04198 15.449 6.06598 15.449H6.12398C5.91398 15.764 5.01498 15.846 4.60698 15.928C4.89898 16.512 6.15898 16.314 6.15898 16.314L6.06598 16.407C5.89098 16.571 5.46998 16.897 4.89898 16.897C5.28398 17.283 6.15898 17.19 6.15898 17.097C6.15898 17.12 6.15898 17.143 6.14698 17.155C6.05383 17.1681 5.96049 17.1798 5.86698 17.19L6.12398 17.202C5.91398 17.482 4.89898 17.482 4.89898 17.482C5.24898 17.926 6.57898 17.962 6.59098 18.042C6.54398 18.054 6.50898 18.054 6.46198 18.066H6.55598C6.63698 18.358 5.38898 18.452 5.29598 18.452C5.74998 19.094 6.98698 18.872 7.12698 18.767C6.54398 19.62 5.87898 19.433 5.67998 19.433C5.58698 20.017 6.75398 20.111 6.75398 20.111C6.75324 20.1433 6.74538 20.1751 6.73098 20.204C6.59098 20.497 5.86698 20.497 5.78498 20.497C6.07698 20.987 7.15098 20.987 7.04498 21.081C7.04498 21.092 7.05698 21.116 7.05698 21.128C7.02198 21.139 6.98698 21.163 6.95198 21.174H7.04598C6.94098 21.384 6.25198 21.466 6.07698 21.466C6.50898 21.816 7.17398 21.77 7.38398 21.758H7.43098C7.23198 22.051 6.94098 22.144 6.36898 22.331C6.81198 22.775 7.34898 22.728 7.50098 22.717H7.53598C7.33698 23.196 6.75398 23.009 6.75398 23.009C6.75398 23.009 6.83598 23.347 7.48898 23.476C7.46598 23.488 7.45398 23.488 7.43098 23.499L7.61698 23.511C7.59398 23.698 6.94098 23.885 7.03398 23.885C7.41898 23.967 8.11898 23.85 8.38798 23.803L8.49298 23.827C8.43398 24.177 7.61698 24.177 7.33698 24.177C7.55898 24.399 7.96698 24.457 8.13098 24.469H8.10798L8.18898 24.493C8.07298 24.68 7.61698 24.855 7.61698 24.855C8.20098 24.855 8.69098 24.948 8.98298 25.053C9.18098 25.147 9.27398 25.544 10.15 25.731C10.453 25.766 10.698 25.801 10.896 25.836C10.558 27.168 10.745 27.975 10.896 28.559C10.371 28.675 9.64798 28.862 8.69098 29.143C5.77398 30.019 3.82498 31.772 3.14798 32.064C2.47198 32.356 0.323978 32.52 0.125978 34.272C-0.0720216 35.534 4.69998 39.916 6.15898 41.669C6.94098 42.451 6.74198 42.93 7.41898 43.222C8.29398 43.222 9.16898 43.129 9.16898 43.129C9.16898 43.129 9.95098 43.515 10.919 43.807C11.597 44.005 12.472 44.099 13.639 44.099C13.93 44.099 11.305 40.886 11.305 40.886C11.305 40.886 10.92 41.178 10.231 41.376C9.74098 41.47 9.06398 41.575 8.38798 41.283C8.29398 41.189 9.06398 40.605 9.26298 40.313C9.26298 40.22 7.80398 40.313 7.80398 40.313C7.80398 40.313 8.77298 39.729 8.58598 39.823C7.71098 39.916 4.40898 38.268 3.24198 35.441C2.94998 33.595 10.336 33.688 11.317 33.104C12.133 33.057 12.903 32.73 13.44 32.438C13.51 32.496 13.557 32.52 13.557 32.52C13.557 32.52 14.724 37.871 14.724 38.56C14.63 39.238 13.942 40.313 14.047 41.096C14.245 41.774 15.412 44.309 14.829 46.062C14.444 48.691 13.86 49.766 13.755 49.952C13.662 50.152 14.047 50.537 14.047 51.121C14.047 51.611 13.557 51.904 12.88 52.967C12.682 53.061 12.297 54.042 11.912 54.72C12.005 55.012 15.506 54.813 15.506 54.813L15.412 53.551C15.319 52.769 15.214 51.892 15.319 51.799C15.611 51.705 16.287 52.289 16.287 52.289L15.797 50.736L16.672 51.226C16.672 51.226 15.891 48.796 16.381 46.938C16.474 42.171 17.349 41.878 17.548 40.71C16.766 39.449 16.964 38.666 16.964 38.373C17.058 38.081 17.548 34.191 17.548 34.191C17.548 34.191 20.173 35.266 22.705 35.067C25.425 35.067 29.905 33.116 30.675 32.929C31.772 32.496 33.137 32.204 34.455 32.017C34.725 33.045 35.168 34.529 35.635 35.359C36.51 36.726 38.353 39.355 38.353 40.617C38.353 41.879 38.26 42.86 33.393 49.182C33.196 49.766 33.3 50.35 32.903 50.934C32.705 51.32 32.32 51.028 31.153 52.394C30.768 52.885 30.372 53.47 29.788 54.241C29.987 54.439 33.581 54.533 33.674 54.241C33.767 54.042 33.767 53.563 33.767 52.979C33.767 52.489 33.767 51.904 34.059 51.612C34.549 50.934 34.643 51.997 34.841 52.395C34.841 52.687 34.934 50.443 34.934 50.443C34.934 50.537 35.226 51.518 35.319 51.705C36.976 46.249 42.321 40.804 42.321 40.804C42.321 40.804 41.154 39.437 40.955 37.883C40.874 37.217 41.177 35.709 41.55 34.203C41.97 34.611 42.379 34.973 42.706 35.16C43.581 35.838 48.738 38.467 49.216 39.343C50.874 40.605 46.206 48.2 46.206 48.493C46.113 48.784 46.206 49.567 46.206 49.859C46.113 50.058 45.238 50.934 44.456 51.705C44.363 51.904 43.196 53.165 42.997 53.75C42.997 54.042 46.883 53.657 47.081 53.458C46.988 53.072 47.081 52.78 46.988 52.488C47.081 50.736 47.77 50.058 47.77 50.058L48.26 50.443V48.89C48.26 48.89 48.843 50.152 48.937 49.965C48.26 46.554 53.803 38.573 53.697 37.405C53.697 37.206 50.874 36.236 50.489 35.652C49.124 33.992 49.999 31.27 50.29 30.978C52.04 26.702 51.166 24.365 51.166 23.874L54.153 27.59C53.803 29.33 54.281 31.574 54.468 31.96C54.666 32.252 56.51 35.559 61.959 34.297C58.377 31.06 60.22 23.464 60.22 23.464Z"/>
</g>
<defs>
<clipPath id="clip0_1_20">
<rect width="62" height="55" fill="white"/>
</clipPath>
</defs>
</svg>
