<svg width="78" height="54" viewBox="0 0 78 54" xmlns="http://www.w3.org/2000/svg">
<g clip-path="url(#clip0_1_165)">
<path d="M77.036 25.482C77.0044 25.4276 76.9551 25.3857 76.8962 25.3634C76.8374 25.3412 76.7726 25.34 76.713 25.36C76.7434 25.3184 76.7611 25.2687 76.7637 25.2172C76.7664 25.1657 76.754 25.1145 76.728 25.07C76.658 24.956 76.513 24.902 76.39 24.956C76.328 24.964 75.782 25.025 73.867 24.056C73.105 23.674 72.428 22.971 71.713 22.231C71.29 21.796 70.836 21.323 70.321 20.873C70.682 21.17 71.021 21.468 71.344 21.765C72.144 22.483 72.898 23.162 73.774 23.529C76.044 24.475 76.674 24.322 76.836 24.208C76.8943 24.1674 76.9349 24.106 76.9492 24.0364C76.9636 23.9668 76.9506 23.8943 76.913 23.834C76.8765 23.779 76.8212 23.7393 76.7574 23.7224C76.6937 23.7054 76.6259 23.7124 76.567 23.742C76.505 23.758 75.967 23.857 73.982 23.032C73.7218 22.9198 73.4721 22.7846 73.236 22.628C73.366 22.689 73.497 22.75 73.636 22.803C75.936 23.658 76.559 23.483 76.721 23.368C76.7807 23.3302 76.8229 23.2702 76.8383 23.2013C76.8538 23.1324 76.8413 23.0602 76.8035 23.0005C76.7657 22.9408 76.7057 22.8986 76.6368 22.8831C76.5679 22.8677 76.4956 22.8802 76.436 22.918C76.374 22.933 75.844 23.055 73.828 22.308C73.028 22.01 72.282 21.392 71.49 20.728C69.982 19.476 68.106 17.911 64.936 17.865H64.821C62.859 17.865 61.006 18.667 59.444 20.178C58.9522 20.657 58.509 21.1836 58.121 21.75C57.814 21.651 57.537 21.56 57.26 21.468C54.545 20.568 53.306 20.155 46.045 22.712C43.553 23.612 41.837 23.521 40.368 22.895C40.4124 22.9014 40.4562 22.9114 40.499 22.925C40.5332 22.9333 40.5687 22.9348 40.6035 22.9293C40.6383 22.9239 40.6717 22.9116 40.7017 22.8932C40.7317 22.8748 40.7578 22.8506 40.7784 22.8221C40.7991 22.7936 40.8139 22.7613 40.822 22.727C40.8301 22.6928 40.8314 22.6574 40.8257 22.6228C40.82 22.5881 40.8075 22.5549 40.7889 22.5252C40.7703 22.4954 40.746 22.4696 40.7173 22.4493C40.6886 22.429 40.6562 22.4147 40.622 22.407C40.5779 22.4006 40.5344 22.3906 40.492 22.377C40.592 22.361 40.692 22.323 40.792 22.254C40.8502 22.2133 40.8905 22.1518 40.9047 22.0822C40.9188 22.0126 40.9057 21.9402 40.868 21.88C40.853 21.857 40.83 21.834 40.814 21.819C40.814 21.819 40.822 21.819 40.822 21.811C40.8539 21.797 40.8826 21.7767 40.9065 21.7514C40.9304 21.726 40.9489 21.6962 40.9611 21.6635C40.9732 21.6309 40.9786 21.5961 40.9771 21.5613C40.9755 21.5265 40.967 21.4924 40.952 21.461C40.9298 21.4149 40.895 21.3761 40.8517 21.349C40.8083 21.3219 40.7581 21.3077 40.707 21.308C40.822 21.3 40.937 21.278 41.053 21.247C41.0889 21.2397 41.123 21.2251 41.1531 21.2042C41.1832 21.1833 41.2088 21.1564 41.2281 21.1252C41.2475 21.094 41.2602 21.0593 41.2656 21.023C41.271 20.9867 41.2689 20.9497 41.2595 20.9142C41.2501 20.8788 41.2335 20.8456 41.2108 20.8168C41.1881 20.788 41.1597 20.7642 41.1275 20.7467C41.0952 20.7293 41.0597 20.7186 41.0232 20.7154C40.9866 20.7122 40.9498 20.7165 40.915 20.728C40.6908 20.7821 40.4587 20.7949 40.23 20.766C40.46 20.743 40.737 20.697 41.084 20.606C41.1197 20.5984 41.1534 20.5836 41.1832 20.5625C41.213 20.5414 41.2382 20.5145 41.2572 20.4834C41.2763 20.4523 41.2888 20.4176 41.294 20.3815C41.2993 20.3454 41.2971 20.3086 41.2877 20.2733C41.2782 20.2381 41.2617 20.2051 41.2391 20.1765C41.2165 20.1478 41.1884 20.124 41.1563 20.1066C41.1243 20.0892 41.089 20.0784 41.0527 20.0751C41.0163 20.0717 40.9797 20.0758 40.945 20.087C39.961 20.346 39.691 20.224 39.437 20.102C39.2932 20.0266 39.137 19.9775 38.976 19.957C38.753 19.934 38.406 19.98 38.061 20.041L38.014 19.804C38.2918 19.6797 38.5949 19.6222 38.899 19.636C39.237 19.659 39.499 19.758 39.753 19.866C40.176 20.033 40.623 20.209 41.291 19.949C41.3238 19.9368 41.3538 19.9182 41.3793 19.8943C41.4049 19.8704 41.4254 19.8416 41.4397 19.8097C41.4541 19.7778 41.4619 19.7433 41.4628 19.7084C41.4637 19.6734 41.4576 19.6386 41.445 19.606C41.4193 19.5399 41.3684 19.4867 41.3036 19.458C41.2387 19.4293 41.1652 19.4275 41.099 19.453C40.622 19.636 40.345 19.522 39.953 19.369C39.676 19.255 39.353 19.132 38.93 19.102C38.5809 19.0842 38.232 19.1415 37.907 19.27C37.891 19.194 37.876 19.117 37.861 19.033C38.161 18.964 38.43 18.926 38.622 18.934C38.852 18.942 39.038 19.01 39.261 19.087C39.676 19.232 40.138 19.392 40.976 19.201C41.0106 19.194 41.0434 19.18 41.0724 19.1599C41.1014 19.1397 41.126 19.1139 41.1448 19.084C41.1635 19.054 41.1759 19.0206 41.1813 18.9857C41.1866 18.9508 41.1848 18.9152 41.176 18.881C41.1686 18.8463 41.1543 18.8134 41.1339 18.7845C41.1134 18.7555 41.0873 18.7309 41.0571 18.7123C41.0269 18.6937 40.9932 18.6814 40.9582 18.6762C40.9231 18.671 40.8873 18.673 40.853 18.682C40.168 18.835 39.814 18.712 39.437 18.582C39.199 18.499 38.961 18.415 38.645 18.4C38.407 18.392 38.091 18.438 37.768 18.507C37.753 18.407 37.73 18.308 37.715 18.201C37.9633 18.1549 38.2154 18.1321 38.468 18.133C38.684 18.14 38.83 18.209 39.014 18.293C39.276 18.415 39.599 18.56 40.16 18.56C40.322 18.56 40.507 18.545 40.707 18.522C40.853 18.499 40.961 18.369 40.937 18.224C40.9275 18.1539 40.8906 18.0903 40.8344 18.0474C40.7781 18.0045 40.7071 17.9856 40.637 17.995C39.868 18.102 39.553 17.957 39.245 17.812C39.03 17.712 38.815 17.614 38.491 17.598C38.1995 17.5963 37.9086 17.622 37.622 17.675L37.599 17.53C37.899 17.453 38.215 17.4 38.484 17.43C38.837 17.469 39.061 17.56 39.291 17.66C39.638 17.804 39.999 17.965 40.707 17.865C40.7775 17.8541 40.8409 17.8161 40.8839 17.7592C40.9268 17.7022 40.9459 17.6308 40.937 17.56C40.93 17.5072 40.9072 17.4578 40.8715 17.4183C40.8357 17.3788 40.7888 17.3511 40.737 17.339C40.807 17.339 40.876 17.347 40.953 17.347C41.099 17.347 41.222 17.224 41.222 17.079C41.2209 17.008 41.1921 16.9402 41.1416 16.8903C41.0911 16.8404 41.023 16.8122 40.952 16.812C40.476 16.812 40.176 16.728 39.838 16.629C39.514 16.537 39.145 16.431 38.576 16.385C38.491 16.377 38.406 16.377 38.322 16.377C38.645 16.317 38.952 16.263 39.192 16.255C39.584 16.232 39.714 16.308 39.868 16.415C40.068 16.545 40.322 16.705 40.953 16.652C41.0232 16.6442 41.0879 16.6098 41.1336 16.5559C41.1793 16.502 41.2027 16.4326 41.199 16.362C41.1905 16.2918 41.1555 16.2275 41.1013 16.1822C41.047 16.1369 40.9775 16.1139 40.907 16.118C40.461 16.156 40.33 16.072 40.168 15.965C39.976 15.843 39.73 15.683 39.161 15.721C38.814 15.744 38.361 15.82 37.907 15.919C38.307 15.805 38.73 15.713 39.091 15.698C39.614 15.683 39.937 15.767 40.222 15.835C40.492 15.904 40.745 15.973 41.076 15.935C41.1459 15.9279 41.2102 15.8934 41.2548 15.8391C41.2994 15.7848 41.3207 15.715 41.314 15.645C41.3064 15.575 41.2715 15.5108 41.2168 15.4664C41.1621 15.422 41.0921 15.401 41.022 15.408C40.784 15.431 40.607 15.385 40.361 15.324C40.053 15.248 39.676 15.148 39.076 15.164C38.9267 15.1722 38.7779 15.1873 38.63 15.209C38.8039 15.1646 38.9812 15.1342 39.16 15.118C39.83 15.057 40.068 15.118 40.284 15.171C40.537 15.232 40.784 15.293 41.468 15.171C41.5029 15.1651 41.5363 15.1523 41.5662 15.1332C41.5961 15.1142 41.6218 15.0893 41.6419 15.0601C41.662 15.0309 41.6759 14.998 41.683 14.9632C41.69 14.9285 41.69 14.8927 41.683 14.858C41.6692 14.7881 41.6283 14.7265 41.5693 14.6866C41.5103 14.6467 41.438 14.6318 41.368 14.645C40.799 14.744 40.622 14.705 40.407 14.652C40.168 14.592 39.868 14.522 39.107 14.584C38.453 14.637 37.753 14.889 37.168 15.156C37.153 15.08 37.138 14.996 37.122 14.919C37.753 14.659 38.514 14.385 39.022 14.355C39.384 14.339 39.692 14.355 39.999 14.377C40.584 14.416 41.137 14.447 41.876 14.194C41.9095 14.1826 41.9403 14.1646 41.9667 14.141C41.9931 14.1174 42.0144 14.0888 42.0294 14.0567C42.0445 14.0247 42.0529 13.99 42.0542 13.9546C42.0555 13.9193 42.0496 13.884 42.037 13.851C42.0252 13.8175 42.0068 13.7867 41.9828 13.7604C41.9589 13.7341 41.93 13.7129 41.8977 13.698C41.8655 13.6831 41.8306 13.6748 41.7951 13.6736C41.7596 13.6724 41.7242 13.6783 41.691 13.691C41.061 13.911 40.584 13.881 40.03 13.851C39.714 13.828 39.384 13.813 38.991 13.828C38.438 13.858 37.661 14.126 37.007 14.393C36.977 14.255 36.945 14.118 36.914 13.981C37.43 13.805 38.03 13.645 38.468 13.661C38.707 13.668 38.953 13.683 39.222 13.698C40.13 13.752 41.076 13.805 41.692 13.546C41.7575 13.5184 41.8095 13.466 41.8366 13.4003C41.8638 13.3346 41.8639 13.2608 41.837 13.195C41.783 13.057 41.622 12.996 41.484 13.049C40.976 13.263 40.06 13.209 39.253 13.164C38.983 13.149 38.723 13.134 38.483 13.126C37.983 13.111 37.345 13.271 36.792 13.454L36.768 13.37C37.022 13.309 37.307 13.24 37.607 13.164C38.153 13.027 38.776 12.866 38.968 12.889C39.114 12.905 39.284 12.935 39.453 12.958C40.014 13.049 40.599 13.141 41.007 12.92C41.0381 12.903 41.0655 12.8798 41.0875 12.8519C41.1095 12.8241 41.1257 12.792 41.135 12.7578C41.1444 12.7235 41.1467 12.6877 41.1419 12.6525C41.1371 12.6173 41.1252 12.5835 41.107 12.553C41.0894 12.522 41.0658 12.4949 41.0376 12.4731C41.0094 12.4513 40.9771 12.4353 40.9427 12.4261C40.9083 12.4169 40.8723 12.4146 40.837 12.4194C40.8017 12.4242 40.7677 12.436 40.737 12.454C40.499 12.592 39.991 12.508 39.537 12.431C39.3637 12.3987 39.1893 12.3733 39.014 12.355C38.745 12.332 38.253 12.446 37.468 12.645C37.245 12.698 36.945 12.775 36.638 12.843L36.615 12.752C37.43 12.546 38.361 12.309 38.661 12.232C38.853 12.179 39.237 12.225 39.614 12.263C40.222 12.333 40.853 12.401 41.276 12.187C41.3387 12.1544 41.3864 12.099 41.4093 12.0321C41.4322 11.9653 41.4285 11.8922 41.399 11.828C41.3653 11.7656 41.3092 11.7183 41.242 11.6957C41.1748 11.673 41.1015 11.6767 41.037 11.706C40.753 11.844 40.184 11.783 39.676 11.729C39.214 11.676 38.814 11.638 38.522 11.714C38.23 11.79 37.299 12.027 36.484 12.233C37.245 11.966 38.138 11.668 38.491 11.592C38.799 11.523 39.176 11.562 39.545 11.592C39.968 11.63 40.415 11.668 40.791 11.562C40.8249 11.5528 40.8566 11.5369 40.8843 11.5153C40.912 11.4937 40.9351 11.4668 40.9523 11.4362C40.9695 11.4056 40.9805 11.3719 40.9845 11.337C40.9886 11.3021 40.9857 11.2667 40.976 11.233C40.9562 11.1651 40.9104 11.1078 40.8486 11.0736C40.7868 11.0393 40.714 11.0308 40.646 11.05C40.361 11.134 39.984 11.096 39.591 11.065C39.184 11.027 38.768 10.996 38.384 11.08C38.007 11.164 37.114 11.462 36.345 11.73C36.322 11.66 36.307 11.584 36.284 11.515C36.714 11.455 37.238 11.363 37.453 11.295C37.576 11.255 37.768 11.172 37.983 11.088C38.391 10.92 39.068 10.638 39.314 10.638C39.453 10.638 39.684 10.668 39.93 10.691C40.545 10.767 40.968 10.806 41.23 10.714C41.368 10.661 41.445 10.508 41.391 10.371C41.3658 10.3043 41.3154 10.2502 41.2507 10.2202C41.186 10.1903 41.1121 10.187 41.045 10.211C40.891 10.264 40.345 10.203 39.991 10.157C39.73 10.127 39.484 10.096 39.314 10.096C38.984 10.096 38.445 10.309 37.776 10.592C37.568 10.676 37.391 10.752 37.284 10.782C37.114 10.836 36.676 10.912 36.261 10.973C37.091 10.523 38.245 9.92799 38.691 9.92799C39.045 9.92799 39.291 9.98099 39.561 10.035C39.93 10.111 40.314 10.187 40.945 10.111C41.0159 10.1024 41.0806 10.0665 41.1253 10.0108C41.17 9.95505 41.191 9.88406 41.184 9.81299C41.1745 9.74237 41.1378 9.67822 41.0818 9.63416C41.0258 9.5901 40.9549 9.5696 40.884 9.57699L40.676 9.59999C40.706 9.59999 40.73 9.59199 40.76 9.59199C40.795 9.58819 40.8288 9.57738 40.8595 9.56021C40.8903 9.54304 40.9172 9.51985 40.9388 9.49204C40.9603 9.46423 40.976 9.43236 40.985 9.39833C40.994 9.36431 40.996 9.32882 40.991 9.29399C40.9868 9.25905 40.9757 9.22529 40.9582 9.19473C40.9408 9.16416 40.9174 9.13741 40.8894 9.11605C40.8614 9.0947 40.8295 9.07918 40.7954 9.07041C40.7613 9.06164 40.7258 9.0598 40.691 9.06499C40.414 9.10399 40.222 9.11099 40.076 9.11899C40.1159 9.08918 40.1474 9.04959 40.1675 9.00405C40.1877 8.95852 40.1957 8.90856 40.191 8.85899C40.1794 8.78852 40.1409 8.72528 40.0837 8.68258C40.0264 8.63987 39.9548 8.62102 39.884 8.62999C39.522 8.68399 39.23 8.62999 38.914 8.57699C38.499 8.50799 38.076 8.43999 37.553 8.61499C37.5417 8.61699 37.5313 8.6222 37.523 8.62999C36.991 8.88199 36.223 9.09599 35.599 9.27199C35.561 9.27899 35.522 9.29399 35.484 9.30199C35.476 9.28699 35.476 9.27899 35.468 9.26399C36.261 8.79799 37.207 8.28699 37.614 8.17999C37.922 8.09599 38.068 8.12699 38.299 8.16499C38.615 8.21799 38.999 8.27899 39.845 8.12699C39.9143 8.1127 39.9754 8.07213 40.0155 8.01378C40.0556 7.95543 40.0715 7.88384 40.06 7.81399C40.045 7.74469 40.0039 7.68381 39.9453 7.64397C39.8867 7.60412 39.8149 7.58838 39.745 7.59999C38.999 7.73699 38.676 7.68399 38.391 7.63799C38.0885 7.5691 37.7733 7.57944 37.476 7.66799C37.006 7.79099 36.03 8.32499 35.246 8.77499C35.199 8.67599 35.153 8.57699 35.099 8.47799C35.638 8.09599 36.384 7.65299 37.129 7.51599C37.6127 7.41974 38.1075 7.39146 38.599 7.43199C38.969 7.45499 39.284 7.47799 39.722 7.27899C39.7538 7.26487 39.7824 7.24453 39.8062 7.21918C39.83 7.19383 39.8485 7.16397 39.8607 7.13136C39.8728 7.09875 39.8782 7.06405 39.8767 7.0293C39.8753 6.99455 39.8668 6.96045 39.852 6.92899C39.8374 6.89719 39.8168 6.86858 39.7911 6.84481C39.7655 6.82104 39.7354 6.80258 39.7025 6.7905C39.6697 6.77841 39.6348 6.77294 39.5999 6.7744C39.565 6.77586 39.5307 6.78422 39.499 6.79899C39.191 6.93599 38.984 6.92899 38.638 6.90599C38.103 6.8614 37.5644 6.89203 37.038 6.99699C36.222 7.14999 35.43 7.59999 34.861 8.00499C34.83 7.95099 34.807 7.89799 34.776 7.85199C35.453 7.49299 36.299 7.07299 36.822 6.93599C37.299 6.80599 37.614 6.83599 37.922 6.85999C38.222 6.88999 38.538 6.91299 38.938 6.77599C38.9717 6.76474 39.0027 6.74676 39.0293 6.72313C39.0558 6.6995 39.0772 6.67072 39.0923 6.63854C39.1074 6.60637 39.1157 6.57146 39.1169 6.53595C39.118 6.50045 39.1119 6.46508 39.099 6.43199C39.0872 6.39848 39.0688 6.36767 39.0448 6.34139C39.0209 6.31511 38.992 6.29388 38.9597 6.27897C38.9275 6.26406 38.8926 6.25575 38.8571 6.25456C38.8216 6.25336 38.7862 6.25929 38.753 6.27199C38.5372 6.34282 38.3087 6.36635 38.083 6.34099C38.376 6.31099 38.668 6.25699 38.953 6.12699C38.9855 6.11352 39.015 6.09363 39.0396 6.06852C39.0643 6.0434 39.0837 6.01357 39.0965 5.98081C39.1094 5.94805 39.1156 5.91302 39.1146 5.87784C39.1137 5.84265 39.1056 5.80801 39.091 5.77599C39.0676 5.72523 39.0294 5.68275 38.9813 5.65418C38.9333 5.62561 38.8777 5.61229 38.822 5.61599C38.8611 5.58485 38.8906 5.54318 38.9069 5.49589C38.9231 5.4486 38.9256 5.39764 38.914 5.34899C38.9066 5.31429 38.8923 5.28145 38.8719 5.25245C38.8514 5.22345 38.8253 5.19891 38.7951 5.1803C38.7649 5.16169 38.7312 5.14941 38.6962 5.1442C38.6611 5.13899 38.6253 5.14096 38.591 5.14999C38.276 5.22599 37.976 5.20399 37.599 5.18799C36.9411 5.13362 36.2789 5.16725 35.63 5.28799C34.915 5.41799 34.192 5.80599 33.615 6.19599C33.553 6.12699 33.492 6.05799 33.43 5.99699C33.93 5.65399 34.538 5.26499 34.868 5.14199C35.145 5.04299 35.599 5.02799 36.03 5.01199C36.56 4.98999 37.114 4.97499 37.53 4.80699C37.5629 4.7948 37.593 4.77616 37.6186 4.75218C37.6443 4.7282 37.6648 4.69935 37.6792 4.66732C37.6935 4.63529 37.7013 4.60072 37.7022 4.56564C37.703 4.53056 37.6968 4.49566 37.684 4.46299C37.6581 4.39709 37.6072 4.34411 37.5423 4.31563C37.4775 4.28715 37.404 4.28548 37.338 4.31099C37.007 4.44099 36.507 4.45599 36.015 4.47799C35.515 4.49399 35.045 4.51699 34.691 4.63799C34.269 4.79099 33.553 5.25699 33.038 5.61599C33.022 5.59999 32.999 5.58599 32.984 5.56999C33.499 5.11999 34.084 4.68499 34.53 4.54699C35.015 4.39499 35.46 4.35699 35.822 4.32599C36.299 4.27999 36.645 4.24899 36.814 3.97499C36.8328 3.94507 36.8453 3.91164 36.8509 3.87673C36.8565 3.84182 36.8549 3.80615 36.8463 3.77186C36.8377 3.73757 36.8223 3.70538 36.8009 3.67722C36.7795 3.64906 36.7527 3.62551 36.722 3.60799C36.6617 3.57109 36.5893 3.55922 36.5204 3.57492C36.4514 3.59061 36.3914 3.63262 36.353 3.69199C36.299 3.74599 35.992 3.76899 35.768 3.79199C35.384 3.82999 34.907 3.86799 34.368 4.03599C33.807 4.21099 33.115 4.73799 32.561 5.22599C32.545 5.21099 32.531 5.20399 32.515 5.18799C33.015 4.66899 33.615 4.11999 34.038 3.98999C34.376 3.88999 34.699 3.83699 34.984 3.78399C35.476 3.69999 35.907 3.63099 36.207 3.34899C36.2326 3.32547 36.2533 3.29712 36.2679 3.26556C36.2826 3.234 36.2908 3.19987 36.2922 3.16511C36.2936 3.13036 36.2881 3.09567 36.2761 3.06304C36.264 3.03042 36.2456 3.00049 36.222 2.97499C36.1737 2.92353 36.1071 2.89312 36.0365 2.89032C35.966 2.88751 35.8972 2.91254 35.845 2.95999C35.668 3.11999 35.361 3.18099 34.968 3.24999C35.13 3.19599 35.291 3.11999 35.468 3.01299C35.591 2.92899 35.63 2.76899 35.545 2.64699C35.5259 2.61755 35.5013 2.59217 35.4723 2.57234C35.4434 2.5525 35.4109 2.5386 35.3766 2.53144C35.3422 2.52428 35.3068 2.524 35.2724 2.53062C35.238 2.53723 35.2052 2.55062 35.176 2.56999C35.015 2.66999 34.868 2.72999 34.706 2.77599C34.776 2.70799 34.806 2.60899 34.776 2.50899C34.7562 2.44114 34.7104 2.38385 34.6486 2.34957C34.5868 2.3153 34.514 2.30683 34.446 2.32599C34.007 2.44799 33.753 2.45599 33.484 2.46399C33.054 2.47899 32.645 2.48599 31.684 2.95199C31.522 3.02799 31.369 3.11199 31.214 3.19599C31.223 3.18899 31.23 3.18099 31.246 3.17299C31.284 3.13499 31.33 3.09699 31.376 3.05099C31.692 2.74599 32.176 2.28799 33.015 2.26499C33.161 2.25699 33.284 2.13499 33.276 1.98999C33.2717 1.91969 33.2407 1.85367 33.1894 1.80537C33.1382 1.75707 33.0704 1.73012 33 1.72999C32.6351 1.74146 32.2763 1.82756 31.946 1.98299C32.062 1.86099 32.162 1.76099 32.246 1.74599C32.3161 1.73515 32.379 1.69696 32.421 1.63978C32.463 1.58261 32.4806 1.51113 32.47 1.44099C32.4582 1.3709 32.4192 1.30828 32.3616 1.26672C32.3039 1.22516 32.2322 1.20801 32.162 1.21899C31.885 1.26499 31.685 1.47099 31.5 1.66899C31.339 1.83799 31.177 2.01299 30.947 2.12799C30.685 2.25799 30.377 2.33399 30.077 2.40999C30.0404 2.41648 30.0046 2.42653 29.97 2.43999C30.066 2.36857 30.1584 2.29248 30.247 2.21199C30.539 1.96699 30.847 1.71599 31.177 1.60899C31.316 1.56299 31.4 1.40999 31.354 1.27299C31.3313 1.20568 31.2834 1.14977 31.2204 1.11696C31.1574 1.08415 31.0841 1.077 31.016 1.09699C30.577 1.23499 30.223 1.53199 29.9 1.79999C29.693 1.97499 29.493 2.14299 29.331 2.20399C28.824 2.40999 28.516 2.58599 27.908 3.03599C27.554 3.29599 27.331 3.75299 27.193 4.14299C27.0849 4.15189 26.9772 4.16457 26.87 4.18099C26.954 3.87599 27.047 3.57799 27.131 3.40999C27.27 3.14999 27.77 2.91399 28.162 2.72299C28.416 2.60099 28.654 2.48599 28.824 2.36399L28.831 2.35699C29.447 1.88299 29.877 1.52499 29.877 1.15099C29.8757 1.08024 29.8469 1.01278 29.7966 0.962929C29.7464 0.913078 29.6787 0.884763 29.608 0.883995C29.5727 0.883598 29.5376 0.890211 29.5049 0.903451C29.4721 0.916691 29.4423 0.936295 29.4172 0.961128C29.3921 0.985961 29.3722 1.01553 29.3586 1.04812C29.345 1.08071 29.338 1.11568 29.338 1.15099C29.308 1.31899 28.716 1.77699 28.501 1.94499L28.493 1.95199C28.3143 2.0688 28.1263 2.1708 27.931 2.25699C27.439 2.49399 26.885 2.76099 26.662 3.17299C26.524 3.43999 26.392 3.89099 26.292 4.28799C26.124 4.31799 25.954 4.35599 25.792 4.38699C26.07 3.74599 26.447 3.05099 26.901 2.66999C27.385 2.25699 27.747 2.09699 28.047 1.95999C28.377 1.80699 28.67 1.67699 28.901 1.29599C28.9197 1.26601 28.9322 1.23253 28.9377 1.19758C28.9432 1.16262 28.9416 1.12692 28.9329 1.09263C28.9242 1.05834 28.9086 1.02616 28.8872 0.998033C28.8657 0.96991 28.8388 0.946425 28.808 0.928995C28.7778 0.910417 28.7442 0.898051 28.7092 0.892622C28.6742 0.887193 28.6385 0.888811 28.6041 0.897381C28.5698 0.90595 28.5374 0.921299 28.5091 0.942526C28.4807 0.963753 28.4569 0.990431 28.439 1.02099C28.293 1.26499 28.124 1.34099 27.824 1.47899C27.516 1.61599 27.093 1.80699 26.554 2.26499C25.931 2.79199 25.454 3.77599 25.147 4.55499C25.024 4.58499 24.908 4.62299 24.785 4.66199C25.078 3.91399 25.47 3.05199 25.831 2.69199C26.108 2.41799 26.416 2.22699 26.678 2.05899C27.116 1.78399 27.531 1.52499 27.601 1.01299C27.604 0.94668 27.5824 0.881585 27.5405 0.830145C27.4985 0.778705 27.4391 0.744525 27.3735 0.734134C27.308 0.723742 27.2409 0.737869 27.185 0.773814C27.1292 0.809759 27.0886 0.865003 27.071 0.928995C27.031 1.18099 26.801 1.34199 26.385 1.60099C26.093 1.78399 25.762 1.99099 25.447 2.31099C24.917 2.83799 24.408 4.10399 24.124 4.88299C23.885 4.97499 23.654 5.06599 23.424 5.16499C23.716 4.87499 24.016 4.53999 24.162 4.14999C24.201 4.05099 24.239 3.95199 24.27 3.85999C24.562 3.06599 24.724 2.62399 25.762 1.84499C25.8173 1.8015 25.8537 1.73841 25.8638 1.66879C25.8738 1.59917 25.8567 1.52835 25.816 1.47099C25.7714 1.41626 25.7078 1.38039 25.6379 1.37056C25.568 1.36074 25.4969 1.37768 25.439 1.41799C24.269 2.29599 24.069 2.84499 23.762 3.67799C23.732 3.76799 23.693 3.85999 23.655 3.95899C23.532 4.29499 23.224 4.60099 22.924 4.89899C22.67 5.14999 22.385 5.43199 22.247 5.74499C22.1667 5.78933 22.0873 5.83534 22.009 5.88299C22.032 5.78299 22.062 5.66899 22.109 5.54699C22.232 5.37899 22.455 5.17299 22.67 4.96699C22.893 4.75299 23.108 4.55499 23.255 4.36399C23.37 4.21099 23.478 3.94399 23.616 3.59399C23.846 3.01399 24.162 2.21899 24.546 1.97499C24.6053 1.93732 24.6475 1.87784 24.6634 1.80939C24.6793 1.74093 24.6676 1.66896 24.631 1.60899C24.5922 1.55003 24.5322 1.50834 24.4634 1.49268C24.3946 1.47702 24.3224 1.4886 24.262 1.52499C23.739 1.85299 23.393 2.70799 23.124 3.39499C23.016 3.66199 22.901 3.94499 22.831 4.03499C22.716 4.18799 22.509 4.37899 22.309 4.56999C22.055 4.80699 21.801 5.04999 21.647 5.27199C21.634 5.29071 21.6239 5.31128 21.617 5.33299C21.5105 5.63101 21.4433 5.94162 21.417 6.25699C21.332 6.31699 21.239 6.37099 21.162 6.43199C21.124 6.46199 21.078 6.49299 21.039 6.52399C21.216 5.74499 21.832 4.69999 22.224 4.27199C22.594 3.87599 22.847 3.34199 23.047 2.90599C23.147 2.68499 23.285 2.38699 23.355 2.33399C23.3842 2.31405 23.4091 2.28853 23.4284 2.2589C23.4477 2.22927 23.4609 2.19612 23.4673 2.16135C23.4737 2.12659 23.4732 2.0909 23.4658 2.05635C23.4583 2.02179 23.4441 1.98904 23.424 1.95999C23.3828 1.90128 23.3202 1.86113 23.2496 1.84822C23.1791 1.83531 23.1063 1.85067 23.047 1.89099C22.862 2.01299 22.731 2.29599 22.555 2.67699C22.37 3.07399 22.139 3.56299 21.824 3.89799C21.7368 3.99296 21.6547 4.09243 21.578 4.19599C21.732 3.89099 21.839 3.53999 21.862 3.05899C21.864 3.02419 21.859 2.98934 21.8473 2.95651C21.8356 2.92367 21.8174 2.89353 21.7938 2.86788C21.7702 2.84222 21.7416 2.82157 21.7099 2.80716C21.6781 2.79275 21.6438 2.78487 21.609 2.78399C21.462 2.77599 21.332 2.89099 21.332 3.03599C21.301 3.76899 21.039 4.11199 20.686 4.58599C20.586 4.71599 20.486 4.85199 20.378 5.01299C19.801 5.87499 19.578 6.65299 19.724 7.32499C19.7304 7.36417 19.7404 7.40267 19.754 7.43999C19.709 7.48599 19.654 7.53099 19.601 7.57699C19.485 7.08099 19.416 6.40899 19.593 5.74499C19.786 5.03499 20.116 4.71499 20.432 4.40199C20.701 4.13499 20.978 3.86799 21.109 3.40199C21.1183 3.36778 21.1206 3.33205 21.1159 3.29691C21.1112 3.26176 21.0995 3.22792 21.0815 3.19736C21.0636 3.1668 21.0396 3.14014 21.0112 3.11896C20.9828 3.09777 20.9504 3.08248 20.916 3.07399C20.8818 3.06477 20.8462 3.06236 20.8111 3.06692C20.7761 3.07148 20.7422 3.08291 20.7116 3.10056C20.6809 3.1182 20.654 3.14172 20.6325 3.16977C20.6109 3.19781 20.5951 3.22983 20.586 3.26399C20.501 3.58499 20.301 3.78399 20.055 4.02099C19.716 4.34899 19.301 4.75299 19.07 5.60799C18.824 6.53899 18.986 7.44799 19.155 8.01999C18.839 8.34799 18.478 8.77499 18.07 9.32499C18.024 9.38599 18.009 9.46199 18.024 9.53099C18.0308 9.5674 18.0452 9.60193 18.0665 9.63229C18.0877 9.66264 18.1151 9.68811 18.147 9.70699C18.37 9.85199 18.732 9.77499 19.493 9.56899C19.0927 9.91141 18.727 10.2922 18.401 10.706C18.3668 10.7475 18.3468 10.7988 18.3441 10.8525C18.3414 10.9062 18.3561 10.9593 18.386 11.004C18.432 11.088 18.524 11.134 18.616 11.134H18.655C18.993 11.088 19.355 11.042 19.678 11.019V11.027C20.524 13.217 20.924 15.751 21.216 17.606C21.493 19.376 21.632 20.163 21.947 20.422C21.993 20.46 22.039 20.499 22.093 20.529C22.101 20.537 22.109 20.552 22.116 20.559C22.1995 20.6709 22.3239 20.7453 22.462 20.766C22.485 20.766 22.509 20.773 22.532 20.773C22.993 20.979 23.508 21.079 23.824 21.041C23.985 21.018 24.108 20.956 24.178 20.857C24.2182 20.7977 24.2442 20.73 24.254 20.659C24.324 20.789 24.424 20.895 24.547 20.949C24.762 21.04 25.008 20.979 25.262 20.773C26.17 20.056 25.978 18.483 25.77 16.828C25.7228 16.4518 25.6795 16.0751 25.64 15.698C26.34 15.484 26.97 14.835 27.347 13.92C27.385 13.82 27.424 13.713 27.462 13.607C27.954 15.782 26.554 20.071 25.824 21.895C25.539 22.094 24.478 22.895 23.501 24.208C22.67 25.33 22.139 26.528 21.924 27.765C19.794 26.856 17.324 26.276 16.132 25.994C15.839 25.925 15.609 25.872 15.502 25.841C15.2949 25.78 15.0995 25.6847 14.924 25.559C14.624 25.368 14.294 25.154 13.463 25.017C12.432 24.849 10.271 26.567 8.13998 28.345C7.76298 28.658 7.46298 28.909 7.31698 29.009C6.93998 29.276 6.33998 29.566 5.81698 29.825C5.40198 30.031 5.04698 30.207 4.85498 30.345C4.43998 30.635 3.80198 31.725 3.61698 32.054C3.39398 32.214 2.46298 32.909 1.88698 33.458C1.73626 33.594 1.59958 33.7447 1.47898 33.908C0.599976 35.206 0.492976 35.588 0.599976 35.832C0.653976 35.946 0.753976 36.022 0.876976 36.038L0.906976 36.046H0.939976C4.25498 35.71 5.18598 34.526 5.22498 34.481L5.30198 34.381L5.27098 34.26C5.27098 34.26 5.20098 33.985 5.22498 33.634V33.626C5.23198 33.451 5.26298 33.275 5.31698 33.107C5.36437 32.9502 5.46522 32.8151 5.60198 32.725L5.56298 33.038C5.55889 33.0827 5.56587 33.1277 5.58331 33.169C5.60075 33.2104 5.62812 33.2468 5.66298 33.275C5.73298 33.336 5.83298 33.351 5.91698 33.321C6.01698 33.283 6.93998 32.962 7.27798 32.496C8.79398 30.413 11.232 28.016 13.178 28.016H13.24C14.463 28.367 16.078 29.589 17.493 30.672L17.886 30.97C17.67 30.97 17.501 30.97 17.416 30.955C17.247 30.932 16.986 30.871 16.686 30.802C15.77 30.596 14.632 30.337 14.001 30.505C13.232 30.703 12.732 31.703 12.493 32.184C12.455 32.26 12.417 32.329 12.401 32.359C12.393 32.367 12.386 32.389 12.371 32.412C11.924 33.199 11.209 34.176 10.34 35.152C8.22398 37.542 7.16298 39.106 6.65498 39.854C6.60898 39.923 6.57098 39.976 6.53998 40.029C6.50098 40.083 6.46998 40.136 6.43198 40.189C6.42498 40.205 6.40898 40.22 6.40198 40.236L6.33198 40.343C5.93583 40.9424 5.5887 41.5728 5.29398 42.228C4.91698 43.052 4.97098 43.182 5.00198 43.258C5.02581 43.3138 5.06534 43.3614 5.11576 43.3952C5.16618 43.4289 5.22532 43.4473 5.28598 43.448H5.30898C5.58598 43.448 6.30898 43.174 7.47898 42.632C9.25498 41.808 9.33898 41.648 9.37098 41.594V41.586C9.42398 41.48 9.41698 41.358 9.39398 41.113C9.37798 40.923 9.36298 40.693 9.37798 40.457C9.40898 40.022 9.53198 39.762 9.76298 39.656C9.91698 39.579 9.98598 39.617 10.009 39.625C10.194 39.725 10.324 40.152 10.355 40.419C10.363 40.526 10.44 40.609 10.54 40.64C10.6541 40.6733 10.7739 40.6824 10.8917 40.6665C11.0096 40.6507 11.1227 40.6103 11.224 40.548C11.532 40.365 11.732 39.999 11.824 39.458L11.917 38.878C12.24 36.855 12.601 34.558 14.87 34.122C16.124 33.886 18.455 34.389 20.709 34.885C23.27 35.443 25.493 35.931 26.439 35.458C26.5884 35.4106 26.735 35.3545 26.878 35.29C29.37 36.626 33.369 37.862 39.154 37.137H39.169C41.592 36.694 43.369 35.977 44.931 35.328C45.569 36.122 46.584 37.137 47.877 37.618C48.807 37.968 49.738 38.182 50.723 38.404C52.053 38.709 53.553 39.053 55.315 39.808C57.615 40.793 60.199 45.608 61.307 47.669C61.745 48.479 61.899 48.769 62.007 48.875C62.222 49.097 62.537 49.249 62.83 49.395C63.114 49.539 63.414 49.685 63.622 49.883C63.968 50.409 64.33 50.883 64.684 51.295L64.745 51.363C65.868 52.623 66.868 53.088 67.383 53.111H67.406C67.53 53.111 67.622 53.081 67.691 53.012C67.799 52.905 67.799 52.768 67.737 52.409C67.599 51.623 66.799 48.341 65.653 47.807C65.63 47.791 65.599 47.784 65.576 47.769C65.5601 47.7329 65.5367 47.7006 65.5074 47.6743C65.4781 47.6479 65.4435 47.628 65.406 47.616C65.2563 47.5722 65.1018 47.5466 64.946 47.54L64.753 47.479V47.539C64.6622 47.5461 64.572 47.5591 64.483 47.578C64.414 47.586 64.33 47.601 64.299 47.593C64.191 47.501 63.976 47.242 63.745 46.944C63.945 47.014 64.137 47.074 64.291 47.104C64.407 47.127 64.522 47.074 64.576 46.967C64.6059 46.9084 64.614 46.8411 64.599 46.777C64.6234 46.7402 64.6382 46.6979 64.6422 46.6539C64.6462 46.6099 64.6393 46.5656 64.622 46.525C64.592 46.455 64.552 46.311 64.514 46.165C64.399 45.754 64.299 45.418 64.168 45.235C63.976 44.975 63.56 44.723 63.122 44.456C62.83 44.281 62.53 44.097 62.399 43.968C62.3882 43.9558 62.3753 43.9456 62.361 43.938C62.13 43.762 61.476 42.182 60.999 41.029C59.984 38.579 59.484 37.473 59.053 37.274C58.753 37.106 58.653 37.099 58.33 37.129C58.2 37.145 58.03 37.159 57.753 37.167C57.007 37.167 56.461 36.763 56.053 36.237C57.045 36.351 57.983 36.419 58.83 36.48C60.76 36.618 62.43 36.74 63.699 37.343C65.737 38.305 68.668 43.449 69.014 44.243C69.176 44.609 69.237 44.945 69.299 45.265C69.36 45.585 69.422 45.914 69.576 46.257C69.822 46.769 70.291 47.036 70.576 47.197C70.622 47.227 70.683 47.257 70.714 47.28C70.868 47.593 71.406 48.211 72.006 48.784L72.129 48.898C72.806 49.524 73.675 50.173 74.329 50.173C74.502 50.1787 74.6713 50.1219 74.806 50.013C75.276 49.631 75.16 48.799 74.452 47.379C73.999 46.471 73.468 45.662 73.399 45.555C73.337 45.448 73.068 45.059 72.299 45.036H72.26L72.222 45.044C72.175 45.059 72.122 45.059 72.068 45.067H72.06C71.553 45.09 71.19 44.487 71.006 44.097C71.122 44.09 71.26 44.082 71.391 44.067C72.137 44.006 72.352 43.96 72.406 43.731C72.4201 43.6709 72.4143 43.6079 72.3894 43.5514C72.3645 43.4949 72.3219 43.4481 72.268 43.418C69.053 41.167 66.922 33.688 66.898 33.611C66.8873 33.5656 66.8645 33.5239 66.8322 33.4903C66.7998 33.4567 66.759 33.4324 66.714 33.42C66.6699 33.4085 66.6236 33.408 66.5793 33.4187C66.535 33.4293 66.494 33.4507 66.46 33.481C66.414 33.511 65.853 33.871 64.23 33.618C62.484 33.336 62.399 30.688 62.414 29.886C62.43 29.23 62.314 27.696 61.814 26.139C61.376 24.765 60.745 23.681 59.938 22.887C61.438 22.277 63.161 21.689 63.714 21.797C63.984 21.849 64.261 21.964 64.537 22.124C64.984 22.605 65.453 23.277 65.922 23.941C66.845 25.254 67.792 26.604 68.799 26.887C68.968 26.933 69.16 26.971 69.368 27.009C70.96 28.276 73.183 28.359 73.283 28.359H73.291C73.429 28.359 73.537 28.261 73.561 28.131C73.5975 28.1259 73.6326 28.1135 73.6641 28.0945C73.6957 28.0755 73.7231 28.0502 73.7446 28.0203C73.7661 27.9904 73.7813 27.9564 73.7893 27.9204C73.7973 27.8844 73.7978 27.8472 73.791 27.811C74.691 27.963 75.329 27.955 75.383 27.948C75.529 27.94 75.653 27.818 75.645 27.673C75.644 27.6269 75.6305 27.582 75.606 27.543C75.845 27.551 75.991 27.551 76.021 27.551C76.168 27.551 76.291 27.429 76.283 27.276C76.2836 27.239 76.2757 27.2024 76.26 27.169C76.354 27.1797 76.4493 27.1667 76.537 27.131C76.5833 27.1093 76.6225 27.0748 76.6498 27.0316C76.6771 26.9883 76.6914 26.9381 76.691 26.887C76.6908 26.8475 76.683 26.8085 76.668 26.772C76.6397 26.7138 76.5918 26.6674 76.5328 26.6409C76.4738 26.6144 76.4073 26.6095 76.345 26.627C76.329 26.627 76.26 26.635 76.122 26.604C76.398 26.597 76.575 26.589 76.606 26.581C76.752 26.566 76.868 26.436 76.852 26.291C76.849 26.2557 76.839 26.2214 76.8227 26.1901C76.8063 26.1587 76.7839 26.1309 76.7568 26.1082C76.7297 26.0855 76.6983 26.0684 76.6645 26.0579C76.6307 26.0474 76.5952 26.0437 76.56 26.047C76.545 26.047 75.722 26.108 74.668 25.987C74.629 25.963 74.583 25.94 74.545 25.917C74.799 25.94 75.022 25.94 75.199 25.895C75.263 25.8804 75.3195 25.8428 75.3577 25.7894C75.3958 25.7359 75.413 25.6703 75.406 25.605C76.483 26.017 76.86 25.94 76.991 25.865C77.06 25.773 77.105 25.612 77.036 25.482ZM39.684 17.132C39.976 17.217 40.261 17.301 40.645 17.324H40.637C40.076 17.4 39.83 17.293 39.507 17.156C39.322 17.079 39.122 16.988 38.845 16.934C39.191 16.988 39.445 17.063 39.684 17.132ZM38.661 21.857L38.645 21.842L38.784 21.819C38.737 21.827 38.699 21.842 38.661 21.857ZM29.515 4.08199C29.5562 4.01077 29.6081 3.94634 29.669 3.89099C29.799 3.76899 30.115 3.65399 30.399 3.54699C30.576 3.47899 30.746 3.41699 30.899 3.34899C30.5355 3.5805 30.1911 3.84066 29.869 4.12699C29.7521 4.10402 29.6339 4.08898 29.515 4.08199ZM39.191 22.254C39.2489 22.2393 39.3083 22.2316 39.368 22.231C39.491 22.223 39.638 22.261 39.799 22.3C39.807 22.3 39.814 22.3 39.822 22.307C39.652 22.315 39.499 22.338 39.376 22.369L39.191 22.254ZM39.584 21.178C39.945 21.262 40.299 21.338 40.684 21.308C40.6542 21.3083 40.6249 21.3162 40.599 21.331C40.307 21.468 40.076 21.407 39.791 21.331C39.668 21.3 39.538 21.261 39.391 21.247C39.153 21.216 38.768 21.277 38.414 21.353C38.399 21.308 38.384 21.254 38.361 21.201C38.653 21.117 38.961 21.056 39.184 21.101C39.322 21.117 39.453 21.147 39.584 21.178ZM38.914 20.483C38.999 20.491 39.061 20.513 39.138 20.552C38.845 20.529 38.515 20.59 38.215 20.682C38.207 20.644 38.199 20.605 38.184 20.567C38.484 20.499 38.761 20.468 38.914 20.483ZM37.961 16.911C37.815 16.934 37.661 16.965 37.514 16.995V16.972C37.653 16.95 37.807 16.927 37.961 16.912V16.911ZM37.753 9.08799C37.976 9.01999 38.176 9.00399 38.376 9.01999C38.322 9.02699 38.268 9.02699 38.215 9.03499C38.045 9.04999 37.876 9.08099 37.715 9.11099C37.722 9.10399 37.738 9.09599 37.753 9.08799ZM37.623 9.66799C37.13 9.88199 36.561 10.18 35.968 10.493C35.9434 10.4151 35.9154 10.3384 35.884 10.263C36.384 10.05 36.992 9.81299 37.623 9.66799ZM36.692 6.37099C36.115 6.53099 35.222 6.97399 34.515 7.34099L34.445 7.22599C35.115 6.84399 35.899 6.42499 36.245 6.33299C36.468 6.27199 36.753 6.27999 37.053 6.28699C36.938 6.31699 36.823 6.34099 36.692 6.37099ZM35.738 5.76799C36.553 5.61599 37.099 5.64599 37.584 5.67699C37.945 5.69999 38.261 5.71499 38.599 5.65399C38.153 5.79899 37.669 5.78399 37.207 5.76799C36.815 5.75299 36.445 5.74499 36.115 5.82899C35.684 5.94399 34.815 6.40899 34.145 6.79899C34.092 6.72199 34.03 6.64599 33.976 6.57699C34.492 6.21899 35.122 5.88299 35.738 5.76799ZM34.115 3.37199C34.038 3.39499 33.961 3.40999 33.876 3.43199C33.299 3.60799 32.584 4.27999 32.053 4.84499C31.938 4.77599 31.823 4.71499 31.707 4.65399C32.099 4.21099 32.615 3.73099 33.137 3.57799C33.53 3.47099 33.837 3.41799 34.115 3.37199ZM31.915 3.38699C32.738 2.98999 33.076 2.96699 33.445 2.95199C33.299 2.98199 33.145 3.02099 32.976 3.07399C32.284 3.27999 31.63 3.91399 31.184 4.43999C30.9777 4.36256 30.7674 4.29646 30.554 4.24199C30.9752 3.90887 31.4312 3.62221 31.914 3.38699H31.915ZM29.538 3.09699C29.692 3.01299 29.938 2.95199 30.208 2.88299C30.446 2.82299 30.715 2.75299 30.968 2.65399C30.938 2.68399 30.908 2.70799 30.884 2.73799C30.769 2.83799 30.476 2.95199 30.214 3.05099C29.876 3.18099 29.523 3.31099 29.314 3.50099C29.154 3.66137 29.0219 3.84725 28.923 4.05099C28.838 4.05099 28.753 4.04299 28.676 4.04299C28.792 3.78299 29.038 3.45599 29.538 3.09699ZM28.223 3.42499C28.43 3.26499 28.6 3.14999 28.753 3.05099C28.369 3.41799 28.184 3.75299 28.092 4.04299C27.984 4.04299 27.884 4.05099 27.776 4.05899C27.892 3.79899 28.038 3.56299 28.223 3.42499ZM20.815 5.27999C20.915 5.13499 21.007 5.00499 21.108 4.87499C21.123 4.85999 21.131 4.83699 21.146 4.82199C20.761 5.48599 20.431 6.30199 20.446 6.91299C20.392 6.93599 20.323 6.98199 20.223 7.04299C20.177 6.63799 20.293 6.05799 20.815 5.27999ZM75.505 26.963C75.321 26.955 75.082 26.933 74.813 26.902C74.828 26.864 74.836 26.826 74.828 26.788C74.8267 26.7347 74.8077 26.6833 74.774 26.642C75.059 26.788 75.305 26.894 75.505 26.963ZM64.845 21.673C64.7107 21.5308 64.5663 21.3985 64.413 21.277C65.213 21.704 66.159 22.667 67.159 23.674C67.282 23.804 67.413 23.926 67.536 24.055L67.629 24.193C67.798 24.445 67.967 24.689 68.129 24.918C68.1057 24.8854 68.0799 24.8547 68.052 24.826C67.113 23.704 65.998 22.369 64.844 21.674L64.845 21.673ZM66.475 23.819C66.882 24.261 67.275 24.735 67.636 25.162C67.913 25.498 68.19 25.818 68.444 26.108C67.805 25.681 67.136 24.758 66.474 23.818L66.475 23.819ZM67.952 23.712C67.406 22.918 66.829 22.078 66.19 21.437C67.16 22.087 67.744 23.04 68.282 23.91C68.352 24.025 68.421 24.14 68.498 24.254L67.952 23.712ZM69.082 24.17C69.275 24.43 69.459 24.681 69.659 24.918C69.459 24.719 69.275 24.46 69.082 24.17ZM70.552 27.108C70.605 27.108 70.659 27.116 70.713 27.116C71.09 27.284 71.475 27.429 71.828 27.566C71.3895 27.4527 70.9624 27.2994 70.552 27.108ZM70.921 26.215C70.982 26.238 71.044 26.253 71.105 26.276C71.298 26.398 71.49 26.506 71.69 26.604C71.4266 26.4882 71.1705 26.3583 70.921 26.215ZM71.336 25.788C71.236 25.719 71.136 25.65 71.044 25.574C70.405 25.078 69.874 24.345 69.305 23.567C69.159 23.368 69.021 23.17 68.867 22.971L69.228 23.399C69.867 24.162 70.475 24.887 71.205 25.383C71.6395 25.6724 72.1102 25.9034 72.605 26.07C72.1775 25.9975 71.7539 25.9034 71.336 25.788ZM71.513 24.948C70.843 24.49 70.267 23.803 69.652 23.063C69.321 22.673 68.982 22.262 68.613 21.873C69.143 22.33 69.567 22.811 69.959 23.253C70.298 23.635 70.621 24.002 70.959 24.292C71.5239 24.7617 72.1538 25.1474 72.829 25.437C72.921 25.521 73.013 25.597 73.105 25.673C72.544 25.505 71.99 25.276 71.513 24.948ZM68.675 21.231C69.836 21.994 70.652 22.979 71.405 23.887L71.613 24.139C71.5029 24.0616 71.3977 23.9774 71.298 23.887C70.982 23.62 70.675 23.269 70.344 22.895C69.882 22.369 69.36 21.781 68.675 21.231ZM74.567 26.543H74.544L74.144 26.566C74.144 26.559 74.151 26.543 74.151 26.536C74.151 26.506 74.151 26.475 74.144 26.452L74.459 26.497C74.497 26.513 74.529 26.528 74.567 26.543ZM73.12 24.98C72.673 24.575 72.258 24.071 71.827 23.553C70.797 22.316 69.566 20.828 67.435 19.996C69.351 20.652 70.55 21.896 71.627 23.018C72.373 23.797 73.081 24.522 73.927 24.949C74.266 25.125 74.573 25.262 74.843 25.384C74.443 25.399 73.804 25.262 73.12 24.98Z"/>
</g>
<defs>
<clipPath id="clip0_1_165">
<rect width="78" height="54" fill="white"/>
</clipPath>
</defs>
</svg>
