<svg width="46" height="63" viewBox="0 0 46 63" xmlns="http://www.w3.org/2000/svg">
<g clip-path="url(#clip0_1_190)">
<path d="M0.393982 62.569C0.393982 62.569 2.86898 60.095 2.96798 57.522C2.96798 56.186 0.591982 51.746 0.591982 50.101C0.491982 48.344 2.24998 44.535 2.24998 42.568C2.24998 38.648 1.53198 38.239 1.41998 37.41C1.32198 36.693 2.34898 37.002 2.34898 37.002C2.34898 37.002 3.68598 37.41 4.61398 39.575C5.44298 41.64 4.20498 45.759 4.20498 46.068C4.20498 49.161 5.44298 51.325 6.27198 51.325C7.10198 51.325 7.29898 49.062 7.29898 48.851C7.29898 48.641 6.77898 47.714 6.77898 46.477C6.87898 45.24 8.73498 44.003 9.04398 44.003C9.35398 44.003 9.56398 44.411 9.56398 44.411C9.56398 44.411 9.15598 44.931 9.04398 45.549C8.94498 46.687 10.381 50.707 10.381 52.451C10.381 56.471 8.42598 57.807 8.42598 58.846C8.21598 61.629 10.492 62.556 10.492 62.556H0.393982V62.569ZM22.571 62.569C22.571 62.569 20.096 60.07 19.997 57.46C19.997 56.1 22.373 51.622 22.373 49.952C22.373 48.184 20.727 44.325 20.727 42.346C20.628 38.388 21.445 37.966 21.557 37.138C21.557 36.408 20.628 36.718 20.628 36.718C20.628 36.718 19.18 37.138 18.363 39.328C17.435 41.418 18.673 45.586 18.673 45.895C18.673 49.025 17.534 51.215 16.717 51.215C15.888 51.215 15.579 48.925 15.579 48.715C15.678 48.505 16.198 47.565 16.099 46.316C16.099 45.066 14.242 43.817 13.933 43.817C13.623 43.817 13.313 44.238 13.313 44.238C13.313 44.238 13.723 44.758 13.933 45.388C14.032 46.538 12.596 50.596 12.596 52.377C12.497 56.447 14.453 57.794 14.453 58.846C14.762 61.666 12.497 62.594 12.497 62.594H22.571V62.569Z"/>
<path d="M34.427 21.343C34.427 15.988 30.096 11.757 24.836 11.757C19.477 11.757 15.146 15.987 15.146 21.343V43.818L16.383 44.844H16.903C16.073 38.35 18.858 36.904 18.858 36.904V21.344C18.8593 19.7592 19.4897 18.2398 20.6106 17.1194C21.7314 15.9991 23.2512 15.3695 24.836 15.369C28.029 15.369 30.715 18.053 30.715 21.343V61.543L34.427 59.378V21.343Z"/>
<path d="M39.898 21.343C39.898 12.994 33.19 6.19101 24.836 6.19101C16.483 6.19101 9.67603 12.994 9.67603 21.343V43.508C9.67603 43.508 11.223 42.271 13.29 42.37V21.343C13.29 15.06 18.45 9.90201 24.836 9.90201C31.123 9.90201 36.284 15.06 36.284 21.343V59.588L39.898 62.062V21.343Z"/>
<path d="M45.467 21.343C45.467 10.001 36.185 0.723999 24.837 0.723999C13.389 0.723999 4.20599 10.001 4.20599 21.344V36.186C4.20599 36.186 6.27199 36.706 6.89099 42.89H7.81899V21.343C7.81899 11.955 15.455 4.435 24.836 4.435C34.118 4.435 41.754 11.955 41.754 21.343V62.062L45.467 59.588V21.343Z"/>
</g>
<defs>
<clipPath id="clip0_1_190">
<rect width="46" height="63" fill="white"/>
</clipPath>
</defs>
</svg>
