<svg width="70" height="55" viewBox="0 0 70 55" xmlns="http://www.w3.org/2000/svg">
<g clip-path="url(#clip0_1_30)">
<path d="M28.157 2.10501H28.229C28.211 2.11401 28.184 2.11401 28.157 2.10501Z"/>
<path d="M69.978 38.715C69.978 38.715 66.641 35.151 64.71 29.582C63.75 26.909 62.415 19.852 58.037 20.004C55.163 20.102 53.374 21.768 52.467 22.944C51.221 21.946 49.61 21.26 47.582 21.26C44.983 21.26 40.837 22.89 38.31 22.89C36.352 22.89 34.893 22.686 33.78 22.356C34.0606 22.2834 34.3348 22.1881 34.6 22.071C32.669 20.735 34.003 20.361 31.334 18.73C34.154 20.066 32.891 19.024 35.56 19.844C32.962 18.356 34.448 16.574 31.263 15.683C32.597 15.906 33.043 16.503 34.528 16.351C32.748 14.943 32.678 13.749 30.595 12.271C32.526 13.384 31.04 12.867 34.305 13.758C31.565 11.308 32.82 10.64 29.857 9.598C30.817 9.82 30.23 9.82 33.265 10.043C30.302 8.48301 31.485 6.853 27.33 5.882C28.664 5.659 27.997 5.214 30.595 5.142C28.371 4.92 27.41 2.763 24.74 2.398C25.915 2.398 25.568 2.033 28.157 2.095C27.641 2.077 26.271 1.855 25.71 1.507C25.337 1.284 24.447 1.213 23.334 0.990004C22.596 0.840004 21.627 0.768004 20.665 0.840004C20.458 0.84976 20.2539 0.89194 20.06 0.965004C19.366 0.805004 18.191 0.733004 17.853 0.617004C17.933 0.787004 18.467 1.277 18.913 1.677C18.752 1.82 18.61 1.971 18.476 2.123L18.45 2.096C18.076 1.722 16.599 1.873 16.296 1.722C16.536 2.114 17.355 2.631 17.889 2.942C17.8388 3.02591 17.7998 3.11601 17.773 3.21V3.228C17.311 3.486 16.625 3.708 16.287 4.181C15.914 4.627 13.912 7.522 13.547 7.968C13.253 8.342 11.989 9.75 11.767 9.973C11.473 10.267 11.171 10.489 10.807 10.863C10.512 11.157 10.361 11.603 10.432 11.826C10.432 12.049 10.584 12.2 10.655 12.494C10.806 12.788 10.726 13.162 10.948 13.385C11.1 13.608 11.242 13.608 11.464 13.537C11.7499 13.3855 12.024 13.2127 12.284 13.02C12.657 12.726 13.244 11.835 13.467 12.057C13.76 12.432 12.799 12.948 12.577 13.242C12.283 13.465 12.203 13.617 12.283 13.839C12.363 14.062 12.577 14.133 13.102 13.911C13.547 13.759 13.618 13.394 14.062 13.02C14.365 12.77 16.367 11.55 17.658 10.774C18.405 11.211 19.117 11.274 19.766 11.104C19.766 11.122 19.776 11.149 19.776 11.166C19.776 13.768 18.289 14.953 17.551 17.697C16.883 20.37 17.035 23.489 17.035 23.489L17.025 23.605C16.287 24.505 15.522 25.957 15.317 28.273C14.285 28.131 13.075 27.979 12.443 27.943C11.26 27.793 10.441 27.873 8.95499 27.65C7.54899 27.498 5.54699 26.02 4.50599 27.133C3.54599 28.247 3.90999 29.289 3.98999 29.734C4.14099 30.109 5.25399 32.701 5.54699 33.673C5.84099 34.643 6.43699 36.417 6.81099 37.237C6.91799 37.45 7.14899 37.709 7.44299 37.967C7.12299 38.662 6.86399 39.482 6.14299 40.649C4.36299 43.251 2.80699 43.919 2.51299 44.659C2.21899 45.327 2.66399 45.772 2.51299 46.441C2.36199 47.18 1.55299 47.706 1.47199 47.848C1.32099 48.071 1.40099 48.222 1.24999 48.668C0.875993 49.336 0.804993 51.047 0.804993 51.047C0.804993 51.047 4.51499 48.748 4.58599 48.445C4.58599 48.151 4.29299 47.705 4.29299 47.705C4.29299 47.705 3.84799 47.26 4.06999 46.815C4.22199 46.369 4.73799 46.146 4.73799 46.146C4.73799 46.146 5.33399 46.521 5.69799 45.995C5.99199 45.478 6.96199 41.692 8.96399 40.052C9.46199 39.732 9.63199 39.669 9.77399 39.607C9.88999 39.677 9.96999 39.731 10.005 39.749C10.076 39.821 10.77 40.159 11.491 40.471V40.489C11.651 40.542 11.803 40.604 11.954 40.667C12.176 40.756 12.381 40.837 12.568 40.899C12.915 41.023 13.155 41.086 13.2 41.014C13.27 39.954 12.328 38.074 12.239 37.904C13.653 37.504 16.296 37.13 17.871 36.702C19.802 36.105 21.279 35.437 21.279 35.437C21.279 35.437 24.019 36.773 28.842 36.702C31.12 36.675 33.469 36.302 35.569 35.811C35.596 35.954 35.632 36.105 35.667 36.256C36.334 38.332 43.453 38.858 44.12 40.266C44.788 41.826 36.93 45.541 36.112 46.726C35.667 47.394 35.738 47.839 35.596 48.285C35.445 48.659 34.333 49.47 34.039 50.067C33.745 50.664 33.371 52.74 33.371 52.74L37.001 50.512C37.001 50.512 37.295 49.995 37.073 49.692C36.851 49.39 36.628 49.096 36.922 48.65C37.073 48.383 37.456 48.472 37.812 48.623C38.141 48.775 38.443 48.98 38.479 49.015C38.63 49.015 38.995 48.945 39.075 48.275C39.146 47.608 39.226 46.342 40.481 45.38C41.664 44.338 45.971 41.745 46.265 41.522C46.638 41.299 48.783 40.034 48.935 39.446C49.085 38.849 48.338 38.849 47.822 38.706C47.377 38.556 45.304 37.816 44.779 36.479C44.654 36.167 44.592 35.713 44.565 35.214C46.051 36.167 48.515 37.352 52.413 38.19C56.195 39.01 56.489 40.934 56.489 40.934C56.489 40.934 57.601 42.644 58.197 46.503C58.793 50.361 58.126 51.697 58.126 51.697L57.005 54.085L60.938 53.265C60.938 53.265 60.938 52.08 60.786 51.706C60.716 51.261 60.19 50.744 60.119 50.146C59.968 49.63 60.19 49.327 60.413 49.104C60.4318 49.0766 60.4556 49.0528 60.483 49.034C60.742 48.81 61.223 48.793 61.223 48.588C61.293 48.294 61.151 47.991 61.151 47.991C61.151 47.991 60.484 46.503 60.261 45.915C60.111 45.318 59.078 42.199 58.998 39.526C58.998 36.854 58.704 36.479 58.402 36.408C58.028 36.337 57.885 36.56 57.289 36.56C56.693 36.56 54.842 35.82 54.771 34.403C54.842 32.399 55.812 31.882 55.812 29.28C55.768 27.864 55.029 25.618 53.445 23.863C53.677 23.418 53.962 22.999 54.255 22.821C55.074 22.304 56.48 21.778 57.663 23.641C58.998 25.868 59.513 28.986 59.816 32.773C60.11 36.488 61.89 39.829 61.89 39.829L62.112 36.711L64.408 41.166C64.408 41.166 63.963 39.536 63.892 36.64C64.932 40.052 67.077 41.985 67.077 41.985C67.077 41.985 66.41 39.981 65.52 37.085C67.077 40.052 68.928 40.649 68.928 40.649C68.928 40.649 68.412 39.607 67.3 37.085C68.643 38.422 69.978 38.715 69.978 38.715ZM11.482 38.189C11.634 38.099 11.847 38.019 12.114 37.939C11.9087 38.0352 11.6976 38.1187 11.482 38.189ZM10.957 35.373C10.183 35.819 9.65799 35.766 9.00899 36.14C8.80399 35.89 8.54599 35.516 8.21699 34.928C7.10399 32.923 6.65999 31.293 6.65999 31.293C6.65999 31.293 6.43699 30.25 6.88199 29.733C7.32699 29.217 10.37 30.919 10.957 31.293C12.301 32.211 14.009 32.763 15.184 33.066C14.686 33.297 14.098 33.565 13.698 33.743C12.879 34.188 11.625 35.079 10.958 35.373H10.957Z"/>
</g>
<defs>
<clipPath id="clip0_1_30">
<rect width="70" height="55" fill="white"/>
</clipPath>
</defs>
</svg>
