<svg width="111" height="58" viewBox="0 0 111 58" xmlns="http://www.w3.org/2000/svg">
<g clip-path="url(#clip0_1_139)">
<path d="M53.675 10.053V0.647003H52.605V11.51L53.675 10.053ZM54.37 28.628C54.37 28.628 54.528 26.148 53.716 24.574C53.419 23.925 50.606 21.957 50.606 21.957C50.606 21.957 50.546 24.574 50.864 25.184C51.18 25.794 54.37 28.628 54.37 28.628ZM54.37 24.18C54.37 24.18 54.528 21.682 53.716 20.127C53.419 19.477 50.606 17.491 50.606 17.491C50.606 17.491 50.546 20.127 50.864 20.737C51.18 21.347 54.369 24.181 54.369 24.181L54.37 24.18Z"/>
<path d="M53.715 15.66C53.536 15.287 52.507 14.44 51.675 13.83V0.648003H50.625V14.46H50.645C50.665 15.208 50.724 15.995 50.882 16.29C51.199 16.9 54.408 19.734 54.408 19.734C54.408 19.734 54.527 17.234 53.715 15.661V15.66ZM56.646 10.053V0.647003H57.736V11.51L56.646 10.053ZM55.953 28.628C55.953 28.628 55.795 26.148 56.607 24.574C56.904 23.925 59.717 21.957 59.717 21.957C59.717 21.957 59.776 24.574 59.459 25.184C59.162 25.794 55.953 28.628 55.953 28.628ZM55.953 24.18C55.953 24.18 55.795 21.682 56.607 20.127C56.904 19.477 59.717 17.491 59.717 17.491C59.717 17.491 59.776 20.127 59.459 20.737C59.162 21.347 55.953 24.18 55.953 24.18Z"/>
<path d="M59.716 0.647003H58.666V13.831C57.814 14.461 56.804 15.287 56.626 15.661C55.814 17.235 55.972 19.714 55.972 19.714C55.972 19.714 59.181 16.881 59.498 16.271C59.656 15.975 59.716 15.188 59.736 14.441H59.756V0.647003H59.716Z"/>
<path d="M55.695 9.935V0.647003H54.645V9.935C53.972 10.565 52.902 11.705 52.902 12.571C52.902 14.578 54.546 15.444 54.546 15.444H54.843V51.748H55.497V15.444L55.794 15.424C55.794 15.424 57.438 14.578 57.438 12.571C57.438 11.686 56.368 10.545 55.695 9.935ZM37.098 12.61L34.642 3.54L33.612 3.796L36.444 14.283L37.098 12.611V12.61ZM42.584 30.379C42.584 30.379 42.089 27.939 40.9 26.64C40.445 26.09 37.216 24.889 37.216 24.889C37.216 24.889 37.85 27.447 38.306 27.959C38.761 28.45 42.584 30.379 42.584 30.379ZM41.436 26.07C41.436 26.07 40.94 23.65 39.752 22.331C39.277 21.781 36.048 20.6 36.048 20.6C36.048 20.6 36.702 23.158 37.138 23.67C37.613 24.161 41.436 26.07 41.436 26.07Z"/>
<path d="M40.286 21.76C40.286 21.76 39.791 19.34 38.583 18.022C38.326 17.688 37.098 17.156 36.147 16.762L32.721 4.03199L31.671 4.30699L34.998 16.684L35.018 16.704L35.276 17.648H35.296C35.513 18.337 35.771 19.084 36.008 19.36C36.444 19.872 40.286 21.76 40.286 21.76ZM39.95 11.824L37.513 2.77199L38.543 2.47699L41.375 12.985L39.95 11.824ZM44.128 29.966C44.128 29.966 43.336 27.605 43.712 25.873C43.832 25.164 46.03 22.528 46.03 22.528C46.03 22.528 46.782 25.066 46.624 25.735C46.485 26.405 44.128 29.966 44.128 29.966ZM42.98 25.676C42.98 25.676 42.188 23.315 42.564 21.583C42.683 20.855 44.881 18.238 44.881 18.238C44.881 18.238 45.614 20.757 45.475 21.446C45.337 22.095 42.98 25.676 42.98 25.676Z"/>
<path d="M44.07 15.326L40.484 1.98599L39.434 2.24099L42.861 14.991C42.227 15.818 41.455 16.881 41.376 17.313C40.999 19.045 41.792 21.387 41.792 21.387C41.792 21.387 44.148 17.825 44.307 17.176C44.367 16.822 44.228 16.034 44.07 15.326Z"/>
<path d="M49.714 52.417L40.247 17.333L40.544 17.255C40.544 17.255 41.891 16.015 41.376 14.067C41.138 13.221 39.831 12.394 39.019 11.942L36.583 3.009L35.553 3.284L37.969 12.237C37.494 13.024 36.761 14.382 36.999 15.247C37.533 17.176 39.316 17.589 39.316 17.589L39.613 17.53L49.06 52.574L49.714 52.417ZM21.806 18.651L17.093 10.525L16.162 11.036L21.628 20.462L21.806 18.652V18.651ZM31.77 34.393C31.77 34.393 30.661 32.169 29.156 31.205C28.562 30.792 25.136 30.477 25.136 30.477C25.136 30.477 26.403 32.779 26.977 33.153C27.571 33.547 31.77 34.393 31.77 34.393ZM29.533 30.537C29.533 30.537 28.403 28.313 26.899 27.349C26.304 26.936 22.878 26.621 22.878 26.621C22.878 26.621 24.165 28.923 24.72 29.297C25.334 29.69 29.533 30.537 29.533 30.537Z"/>
<path d="M24.68 23.512C24.323 23.256 23.015 23.059 21.966 22.942L15.33 11.528L14.399 12.058L20.836 23.118C20.856 23.157 20.856 23.176 20.876 23.196L21.351 24.022H21.371C21.767 24.632 22.222 25.282 22.519 25.478C23.074 25.852 27.293 26.718 27.293 26.718C27.293 26.718 26.163 24.455 24.678 23.511L24.68 23.512ZM24.382 17.176L19.668 9.04899L20.598 8.49899L26.046 17.924L24.382 17.176ZM33.137 33.606C33.137 33.606 31.77 31.54 31.691 29.788C31.631 29.06 33.038 25.951 33.038 25.951C33.038 25.951 34.405 28.214 34.464 28.883C34.484 29.572 33.137 33.606 33.137 33.606ZM30.898 29.75C30.898 29.75 29.532 27.683 29.453 25.912C29.393 25.184 30.819 22.095 30.819 22.095C30.819 22.095 32.166 24.358 32.225 25.027C32.245 25.696 30.898 29.75 30.898 29.75Z"/>
<path d="M29.255 19.478L28.779 18.632C28.779 18.612 28.759 18.592 28.759 18.572L22.323 7.51501L21.392 8.04701L28.027 19.459C27.611 20.404 27.155 21.663 27.175 22.076C27.255 23.847 28.641 25.913 28.641 25.913C28.641 25.913 29.987 21.86 29.948 21.191C29.948 20.856 29.611 20.127 29.255 19.478Z"/>
<path d="M44.367 53.853L26.087 22.41L26.344 22.252C26.344 22.252 27.334 20.718 26.304 18.966C25.849 18.199 24.363 17.726 23.472 17.53L18.837 9.521L17.907 10.053L22.581 18.081C22.323 18.947 21.967 20.481 22.422 21.229C23.432 22.961 25.254 22.902 25.254 22.902L25.512 22.744L43.792 54.188L44.367 53.853ZM9.013 28.45L2.318 21.82L1.565 22.567L9.29 30.261L9.013 28.45ZM22.718 41.122C22.718 41.122 21.054 39.272 19.371 38.722C18.677 38.466 15.291 39.056 15.291 39.056C15.291 39.056 17.132 40.946 17.786 41.162C18.42 41.358 22.718 41.122 22.718 41.122ZM19.55 37.974C19.55 37.974 17.886 36.124 16.203 35.574C15.509 35.318 12.123 35.908 12.123 35.908C12.123 35.908 13.964 37.797 14.618 38.013C15.252 38.21 19.55 37.974 19.55 37.974Z"/>
<path d="M13.033 32.425C12.637 32.268 11.291 32.405 10.28 32.563L0.892015 23.236L0.140015 23.984L9.25001 33.055H9.27001L9.96301 33.763L9.98301 33.743C10.538 34.236 11.132 34.767 11.449 34.865C12.102 35.082 16.381 34.826 16.381 34.826C16.381 34.826 14.737 32.975 13.033 32.425ZM11.093 26.385L4.41802 19.734L5.17101 18.986L12.895 26.68L11.093 26.385ZM23.828 40.001C23.828 40.001 21.966 38.368 21.411 36.695C21.154 36.007 21.748 32.642 21.748 32.642C21.748 32.642 23.669 34.472 23.888 35.122C24.085 35.751 23.828 40.001 23.828 40.001ZM20.678 36.853C20.678 36.853 18.797 35.219 18.242 33.547C17.984 32.858 18.579 29.493 18.579 29.493C18.579 29.493 20.499 31.323 20.718 31.973C20.916 32.603 20.678 36.853 20.678 36.853Z"/>
<path d="M17.529 28.825C17.41 28.49 16.895 27.88 16.38 27.368L16.4 27.348L6.59602 17.569L5.84302 18.317L15.212 27.644C15.072 28.667 14.934 29.966 15.072 30.379C15.628 32.051 17.509 33.685 17.509 33.685C17.509 33.685 17.747 29.455 17.529 28.825Z"/>
<path d="M39.97 56.687L14.123 31.009L14.341 30.792C14.341 30.792 14.895 29.061 13.449 27.624C12.816 26.994 11.271 26.936 10.339 26.975L3.744 20.423L2.992 21.17L9.587 27.723C9.567 28.648 9.647 30.183 10.241 30.812C11.687 32.229 13.449 31.697 13.449 31.697L13.667 31.481L39.494 57.14L39.97 56.687ZM73.245 12.61L75.7 3.54001L76.73 3.79601L73.897 14.283L73.244 12.611L73.245 12.61ZM67.738 30.379C67.738 30.379 68.233 27.939 69.422 26.64C69.877 26.09 73.106 24.889 73.106 24.889C73.106 24.889 72.472 27.447 72.016 27.959C71.581 28.45 67.738 30.379 67.738 30.379ZM68.906 26.07C68.906 26.07 69.401 23.65 70.59 22.331C71.065 21.781 74.293 20.6 74.293 20.6C74.293 20.6 73.64 23.158 73.204 23.67C72.729 24.161 68.906 26.07 68.906 26.07Z"/>
<path d="M75.323 16.703L78.67 4.32699L77.62 4.05099L74.194 16.782C73.244 17.176 72.016 17.727 71.758 18.042C70.55 19.36 70.055 21.78 70.055 21.78C70.055 21.78 73.877 19.871 74.353 19.36C74.59 19.104 74.848 18.337 75.066 17.648H75.086L75.323 16.703ZM70.392 11.824L72.828 2.77199L71.798 2.47699L68.966 12.985L70.392 11.824ZM66.212 29.966C66.212 29.966 67.004 27.605 66.628 25.873C66.509 25.164 64.311 22.528 64.311 22.528C64.311 22.528 63.558 25.066 63.717 25.735C63.855 26.405 66.212 29.966 66.212 29.966ZM67.362 25.676C67.362 25.676 68.154 23.315 67.778 21.583C67.658 20.855 65.46 18.238 65.46 18.238C65.46 18.238 64.727 20.757 64.866 21.446C65.005 22.095 67.362 25.676 67.362 25.676Z"/>
<path d="M67.46 14.972L70.887 2.22199L69.857 1.98499L66.252 15.326L66.272 15.346C66.114 16.054 65.955 16.841 66.015 17.176C66.173 17.825 68.53 21.386 68.53 21.386C68.53 21.386 69.322 19.045 68.946 17.313C68.866 16.861 68.093 15.798 67.46 14.972Z"/>
<path d="M74.769 3.284L73.739 3.009L71.303 11.961C70.491 12.414 69.163 13.221 68.946 14.087C68.411 16.035 69.778 17.274 69.778 17.274L70.075 17.353L60.607 52.437L61.261 52.594L70.728 17.53L71.025 17.59C71.025 17.59 72.808 17.176 73.343 15.248C73.58 14.401 72.848 13.024 72.373 12.237L74.769 3.284ZM88.535 18.651L93.249 10.525L94.179 11.036L88.713 20.462L88.535 18.652V18.651ZM78.571 34.393C78.571 34.393 79.681 32.169 81.186 31.205C81.78 30.792 85.206 30.477 85.206 30.477C85.206 30.477 83.919 32.779 83.364 33.153C82.77 33.547 78.571 34.393 78.571 34.393ZM80.81 30.537C80.81 30.537 81.939 28.313 83.444 27.349C84.038 26.936 87.464 26.621 87.464 26.621C87.464 26.621 86.177 28.923 85.623 29.297C85.009 29.69 80.81 30.537 80.81 30.537Z"/>
<path d="M95.921 12.04L94.991 11.509L88.355 22.921C87.305 23.059 85.998 23.256 85.642 23.492C84.156 24.436 83.027 26.68 83.027 26.68C83.027 26.68 87.246 25.834 87.801 25.44C88.098 25.243 88.553 24.594 88.949 23.984H88.969L95.921 12.04ZM85.96 17.176L90.674 9.04899L89.743 8.49899L84.276 17.924L85.96 17.176ZM77.206 33.606C77.206 33.606 78.572 31.54 78.671 29.788C78.731 29.06 77.305 25.951 77.305 25.951C77.305 25.951 75.938 28.214 75.879 28.883C75.859 29.572 77.206 33.606 77.206 33.606ZM79.443 29.75C79.443 29.75 80.81 27.683 80.889 25.912C80.949 25.184 79.523 22.095 79.523 22.095C79.523 22.095 78.176 24.358 78.116 25.027C78.096 25.696 79.443 29.75 79.443 29.75Z"/>
<path d="M88.93 8.04601L88 7.51401L81.048 19.478H81.068C80.711 20.128 80.374 20.855 80.354 21.19C80.295 21.859 81.662 25.912 81.662 25.912C81.662 25.912 83.048 23.846 83.127 22.075C83.167 21.662 82.692 20.422 82.276 19.458L88.93 8.04601Z"/>
<path d="M92.417 10.053L91.486 9.521L86.811 17.55C85.921 17.766 84.435 18.219 83.979 18.986C82.949 20.737 83.939 22.272 83.939 22.272L84.197 22.43L65.916 53.873L66.49 54.208L84.771 22.764L85.029 22.921C85.029 22.921 86.871 22.981 87.861 21.249C88.317 20.501 87.961 18.966 87.703 18.101L92.417 10.053ZM101.329 28.45L108.024 21.82L108.776 22.567L101.052 30.261L101.329 28.45ZM87.623 41.122C87.623 41.122 89.286 39.272 90.97 38.722C91.663 38.466 95.05 39.056 95.05 39.056C95.05 39.056 93.208 40.946 92.554 41.162C91.901 41.358 87.623 41.122 87.623 41.122ZM90.793 37.974C90.793 37.974 92.457 36.124 94.14 35.574C94.814 35.318 98.22 35.908 98.22 35.908C98.22 35.908 96.378 37.797 95.725 38.013C95.071 38.21 90.793 37.974 90.793 37.974Z"/>
<path d="M110.202 23.984L109.449 23.236L100.081 32.563C99.051 32.406 97.724 32.288 97.328 32.425C95.644 32.976 93.981 34.826 93.981 34.826C93.981 34.826 98.278 35.082 98.912 34.866C99.229 34.767 99.843 34.236 100.378 33.744L100.398 33.764L110.202 23.984ZM99.23 26.385L105.924 19.734L105.171 18.986L97.447 26.68L99.229 26.385H99.23ZM86.514 40.001C86.514 40.001 88.376 38.368 88.93 36.695C89.188 36.007 88.594 32.642 88.594 32.642C88.594 32.642 86.673 34.472 86.454 35.122C86.257 35.751 86.514 40.001 86.514 40.001ZM89.682 36.853C89.682 36.853 91.544 35.219 92.098 33.547C92.356 32.858 91.762 29.493 91.762 29.493C91.762 29.493 89.841 31.323 89.622 31.973C89.425 32.603 89.682 36.853 89.682 36.853Z"/>
<path d="M104.498 18.317L103.745 17.569L93.922 27.349L93.942 27.369C93.426 27.899 92.912 28.509 92.792 28.825C92.575 29.474 92.832 33.705 92.832 33.705C92.832 33.705 94.714 32.071 95.268 30.399C95.427 29.985 95.268 28.667 95.13 27.664L104.498 18.317Z"/>
<path d="M107.35 21.17L106.597 20.423L100.002 26.975C99.072 26.935 97.526 27.015 96.892 27.625C95.447 29.061 96.002 30.792 96.002 30.792L96.219 31.009L70.372 56.687L70.847 57.14L96.675 31.48L96.892 31.696C96.892 31.696 98.655 32.228 100.101 30.811C100.715 30.181 100.774 28.646 100.755 27.721L107.35 21.17Z"/>
</g>
<defs>
<clipPath id="clip0_1_139">
<rect width="111" height="58" fill="white"/>
</clipPath>
</defs>
</svg>
