<svg width="81" height="57" viewBox="0 0 81 57" xmlns="http://www.w3.org/2000/svg">
<g clip-path="url(#clip0_1_39)">
<path d="M80.55 38.256C80.545 38.2201 80.5284 38.1869 80.5027 38.1613C80.4771 38.1357 80.4439 38.1191 80.408 38.114C80.281 38.083 67.403 35.204 60.885 32.358C58.855 31.478 56.112 29.826 54.573 28.708C54.573 28.708 54.557 28.708 54.557 28.693C53.003 27.797 45.724 21.505 44.138 20.058C43.567 19.586 42.346 18.674 40.934 17.62C39.269 16.378 37.192 14.836 35.479 13.468C35.463 13.437 35.447 13.405 35.415 13.374C34.305 12.509 33.227 11.596 32.529 10.904C31.974 10.354 31.387 9.48901 30.721 8.49801C28.532 5.25801 25.567 0.854014 19.445 0.744014C13.403 0.634014 11.024 4.23501 10.611 4.92701C8.56601 4.73901 1.35001 5.93401 1.04801 5.99701C0.953015 6.01301 0.890015 6.09101 0.890015 6.20101C0.890015 6.31101 0.985015 6.37401 1.08001 6.35901C1.14301 6.35901 6.71001 6.18601 10.294 8.49801C10.31 8.51401 10.326 8.54501 10.342 8.56101L10.865 8.95401C11.452 9.41001 11.928 9.88201 12.293 10.417C12.737 11.077 13.038 11.832 13.181 12.65C13.181 12.666 13.181 12.682 13.197 12.682C13.307 12.965 13.545 13.845 13.878 15.057C14.751 18.281 16.384 24.305 18.24 28.253C18.541 28.929 18.89 29.574 19.27 30.172C19.413 30.408 19.556 30.628 19.699 30.817C20.9632 32.5304 22.3862 34.1208 23.949 35.567C23.981 35.597 24.029 35.614 24.076 35.614C26.756 37.926 29.532 39.2 32.306 39.404C32.941 40.081 34.448 41.764 34.591 42.377C34.273 44.044 28.485 52.742 27.724 53.072C27.454 53.104 26.217 52.946 25.012 52.789C22.332 52.427 20.381 52.191 19.889 52.443C19.033 52.868 18.747 53.686 18.747 53.733C18.715 53.812 18.747 53.89 18.811 53.937C18.8405 53.9599 18.8767 53.9723 18.914 53.9723C18.9513 53.9723 18.9876 53.9599 19.017 53.937C19.017 53.937 19.778 53.434 20.412 53.182C21.031 53.104 24.219 53.324 26.106 53.544H25.456C23.727 53.56 21.586 53.576 20.73 53.733H20.714C19.286 54.158 19.254 55.73 19.254 55.746C19.254 55.825 19.318 55.903 19.397 55.919C19.477 55.935 19.572 55.903 19.604 55.825C19.604 55.825 19.984 55.085 20.968 54.598C21.459 54.394 23.537 54.378 27.168 54.582C27.422 54.598 27.549 54.598 27.613 54.598C27.708 54.629 27.866 54.645 28.104 54.661C28.39 54.692 28.77 54.724 29.214 54.802C29.262 54.865 29.341 54.881 29.421 54.85L29.452 54.834C30.784 55.086 32.006 55.557 33.1 56.265C33.1289 56.2827 33.1614 56.2936 33.195 56.297C33.227 56.297 33.258 56.297 33.275 56.281L33.544 56.155C33.592 56.124 33.639 56.076 33.639 56.013C33.639 55.951 33.623 55.888 33.576 55.856C33.528 55.809 32.466 54.881 31.673 54.33H39.57C39.681 54.3 39.808 54.268 39.967 54.22C40.379 54.11 41.236 53.89 41.426 53.906C41.442 53.906 41.458 53.922 41.458 53.922C41.6366 53.9724 41.7903 54.0869 41.8897 54.2435C41.9892 54.4002 42.0274 54.588 41.997 54.771C41.9904 54.8125 41.9976 54.855 42.0177 54.8919C42.0378 54.9289 42.0696 54.9581 42.108 54.975C42.188 55.007 42.282 54.975 42.33 54.897C42.393 54.787 42.758 54.189 42.758 53.89C42.758 53.874 42.774 53.843 42.79 53.812C42.853 53.654 42.98 53.355 42.727 52.994C42.727 52.978 42.711 52.978 42.711 52.962C42.393 52.648 41.822 52.522 41.394 52.522H38.381C39.079 51.106 42.393 44.437 42.742 43.745C42.932 43.384 43.519 42.785 44.042 42.267C44.82 41.497 45.137 41.15 45.137 40.914C45.137 40.898 45.137 40.883 45.121 40.851C45.026 40.568 44.788 40.411 44.582 40.269C44.471 40.191 44.344 40.112 44.312 40.033C44.297 40.018 44.297 40.002 44.281 39.986C44.1244 39.7936 43.9763 39.5944 43.837 39.389C45.993 39.326 47.579 39.247 47.611 39.247C47.754 39.231 47.96 39.184 48.23 39.137C49.958 39.797 51.719 40.427 53.48 41.008L53.59 41.071C53.622 41.087 53.67 41.087 53.701 41.087C56.302 41.937 57.967 42.393 57.983 42.393C58.0213 42.4006 58.061 42.3972 58.0974 42.3832C58.1339 42.3693 58.1656 42.3453 58.189 42.314C58.237 42.251 58.221 42.157 58.173 42.094C58.158 42.078 56.714 40.301 54.668 37.847C58.491 38.24 71.353 40.82 74.493 41.857C74.54 41.874 74.603 41.874 74.635 41.842L80.455 38.429C80.519 38.398 80.566 38.335 80.55 38.256ZM29.707 53.78C29.58 53.764 29.485 53.749 29.39 53.733C29.437 53.639 29.5 53.544 29.58 53.418C29.58 53.434 29.596 53.45 29.612 53.465C29.659 53.528 29.755 53.56 29.834 53.528C29.834 53.528 29.944 53.481 30.088 53.434C29.945 53.513 29.818 53.639 29.707 53.78ZM35.448 53.497C35.3599 53.5417 35.2618 53.5634 35.163 53.56C35.099 53.56 34.719 53.528 34.29 53.497C32.625 53.355 31.436 53.277 30.817 53.277H30.96C31.658 53.135 35.052 53.292 35.416 53.481C35.432 53.481 35.448 53.497 35.448 53.497ZM31.705 51.861C30.944 51.971 30.135 52.695 29.786 53.041C31.166 50.713 34.686 44.736 35.052 44.013C35.226 43.808 35.48 43.557 35.733 43.289C36.447 42.581 36.923 42.079 36.923 41.685C36.923 41.307 36.162 40.081 35.813 39.515C37.161 39.53 38.763 39.515 40.634 39.467C41.934 40.552 42.569 41.229 42.632 41.402C42.442 41.984 38.747 48.275 36.257 52.475C35.591 52.365 32.451 51.751 31.705 51.861Z"/>
</g>
<defs>
<clipPath id="clip0_1_39">
<rect width="81" height="57" fill="white"/>
</clipPath>
</defs>
</svg>
