<svg width="79" height="63" viewBox="0 0 79 63" xmlns="http://www.w3.org/2000/svg">
<g clip-path="url(#clip0_1_123)">
<path d="M59.458 41.535C67.432 47.674 78.06 56.242 78.06 56.242C78.06 56.242 65.442 31.493 52.511 18.286C39.568 5.103 31.23 5.904 31.23 5.904C31.23 5.904 29.032 5.787 27.575 7.119C25.766 8.967 29.11 12.715 26.872 14.136C26.092 14.55 25.246 14.679 24.374 14.601C22.709 13.063 21.643 11.526 21.643 9.911C21.643 7.481 23.021 7.739 23.399 6.395C25.857 6.511 26.222 7.894 26.222 7.894C26.274 7.804 27.782 4.857 24.179 3.138C24.101 2.712 23.386 1.135 19.496 0.993002C15.306 0.852002 9.11498 7.753 9.45198 12.483C9.47798 13.685 9.59498 14.887 9.81698 16.088C9.50734 16.3709 9.16687 16.6182 8.80198 16.825C6.77198 17.898 3.23398 15.985 1.07498 18.932C-1.08502 21.878 -0.291024 26.014 6.32998 29.697C10.05 31.558 13.355 32.941 16.256 33.949C16.529 34.065 16.686 34.143 16.686 34.143V34.103C18.4858 34.7205 20.3182 35.2387 22.175 35.655C23.561 36.7913 25.026 37.8275 26.559 38.756C26.143 41.729 25.96 48.423 31.606 52.507C31.554 52.714 29.486 60.274 27.769 60.3C26.026 60.313 25.791 59.693 24.412 59.886C24.2421 59.9062 24.0758 59.95 23.918 60.016C23.424 59.809 22.708 59.602 21.993 59.693C20.757 59.861 20.731 60.817 21.551 61.217L20.341 61.334L20.848 60.649C19.664 61.139 19.82 62.135 19.82 62.135C19.82 62.135 20.458 61.205 22.331 61.398C22.37 61.398 22.396 61.398 22.435 61.411C21.875 61.967 21.98 62.639 21.98 62.639C21.98 62.639 22.682 61.592 24.816 61.812C24.816 61.812 25.869 61.709 27.613 61.942C28.042 61.992 28.484 61.915 28.913 61.76V61.786C28.913 61.786 28.926 61.773 28.939 61.747C29.382 61.579 29.811 61.347 30.162 61.101C30.5737 61.0215 30.995 61.004 31.412 61.049C31.437 61.049 31.476 61.049 31.502 61.062C30.942 61.618 31.047 62.29 31.047 62.29C31.047 62.29 31.762 61.243 33.883 61.463C33.883 61.463 34.845 62.019 36.289 61.941C37.733 61.838 38.539 61.231 39.242 60.752C39.242 60.752 39.828 61.631 40.608 61.631C41.402 61.631 42.404 61.024 43.626 61.153C43.861 61.179 44.056 61.179 44.225 61.153C44.238 61.217 44.303 61.269 44.472 61.283C45.552 61.333 45.474 62.368 45.474 62.368C45.474 62.368 46.319 61.889 46.046 60.959C45.876 60.377 45.356 60.39 44.992 60.494C44.927 60.209 44.745 59.718 44.16 59.46C43.288 59.072 40.673 60.339 40.361 59.847C40.088 59.421 42.273 54.368 42.651 53.489C42.871 53.554 43.093 53.579 43.301 53.593C45.681 53.67 47.411 49.715 48.101 46.187L53.045 54.523L53.005 54.51L55.972 59.447L57.207 61.527L58.703 59.77L60.759 60.649L61.253 59.382L63.113 59.99V59.977L63.153 59.99L63.465 58.788L66.183 59.964L66.561 58.542L69.201 59.124L69.149 57.25L69.006 57.108L72.376 57.806L72.883 57.909C72.857 57.948 66.6 48.94 59.458 41.535ZM22.565 61.76L22.799 61.437C23.0432 61.4335 23.2851 61.3896 23.515 61.307C23.619 61.424 23.762 61.54 23.931 61.618L22.565 61.76ZM30.487 60.907C30.514 60.894 30.54 60.869 30.566 60.856C30.592 60.868 30.605 60.881 30.631 60.894L30.488 60.907H30.487ZM31.632 61.411L31.866 61.088C32.1101 61.0849 32.3521 61.0413 32.582 60.959C32.686 61.075 32.816 61.179 32.985 61.256L31.632 61.411ZM36.849 59.964C35.119 59.977 34.884 59.344 33.493 59.537C33.3194 59.5617 33.1491 59.6053 32.985 59.667C32.634 59.525 32.165 59.369 31.671 59.343L34.104 54.109C34.104 54.109 34.234 53.773 34.273 53.347C35.665 52.882 37.278 51.279 38.293 50.117C39.06 51.034 39.853 51.822 40.621 52.417C40.244 53.773 38.41 59.951 36.849 59.964Z"/>
</g>
<defs>
<clipPath id="clip0_1_123">
<rect width="79" height="63" fill="white"/>
</clipPath>
</defs>
</svg>
