<svg width="57" height="78" viewBox="0 0 57 78" xmlns="http://www.w3.org/2000/svg">
<g clip-path="url(#clip0_1_26)">
<path d="M27.26 33.91V37.673C27.26 38.133 27.628 38.585 27.917 38.939C28.102 39.169 28.286 39.391 28.286 39.515H28.435C28.435 39.391 28.628 39.169 28.821 38.939C29.137 38.576 29.531 38.125 29.531 37.664V33.901H29.382V37.168C29.2537 36.948 29.1007 36.7433 28.926 36.558H28.944V33.9H28.794V36.415C28.7766 36.3974 28.7593 36.3797 28.742 36.362C28.602 36.212 28.435 36.025 28.426 35.972V33.91H28.277V35.973C28.277 36.026 28.11 36.213 27.987 36.371C27.961 36.398 27.944 36.425 27.917 36.451V33.91H27.768V36.628C27.6321 36.794 27.5116 36.9721 27.408 37.16V33.91H27.26Z"/>
<path d="M56.21 57.1C56.184 57.126 53.807 60.066 49.571 63.085C45.668 65.865 39.345 69.292 31.381 69.832L39.151 61.916L40.239 60.668C40.2884 60.7015 40.3464 60.7199 40.406 60.721H40.441C40.494 60.712 40.564 60.677 40.616 60.579C40.633 60.5617 40.6454 60.5403 40.652 60.517C40.691 60.6535 40.7631 60.7782 40.862 60.88C41.012 61.03 41.212 61.102 41.441 61.102C41.923 61.102 42.52 60.801 42.941 60.367C43.212 60.092 43.783 59.517 44.423 58.941L44.475 58.888L44.388 58.791C44.572 58.676 44.756 58.543 44.914 58.375C45.151 58.18 45.449 57.87 45.8 57.498C45.984 57.303 46.186 57.091 46.405 56.869C46.422 56.852 46.449 56.834 46.466 56.807L46.414 56.754C46.624 56.63 46.817 56.471 46.975 56.294C47.054 56.214 47.159 56.108 47.282 55.993C47.589 55.701 48.019 55.293 48.44 54.815L48.37 54.745C48.58 54.62 48.773 54.47 48.948 54.302C49.228 54.018 49.79 53.452 50.431 52.876L50.483 52.823L50.404 52.743C50.624 52.628 50.825 52.478 50.992 52.309C51.272 52.026 51.869 51.424 52.456 50.759L52.36 50.671C52.605 50.547 52.834 50.371 53.035 50.175L54.333 48.865C54.4214 48.8236 54.5017 48.7667 54.57 48.697L56.693 46.483L56.587 46.377L54.246 48.741C53.877 48.918 53.263 49.007 52.676 49.086C52.132 49.157 51.614 49.236 51.264 49.37C51.43 49.016 51.518 48.467 51.606 47.891C51.693 47.298 51.79 46.678 51.983 46.341C53.044 45.279 54.272 44.066 54.289 44.048L54.184 43.942L51.992 46.085C51.948 46.129 51.904 46.191 51.86 46.253C51.4068 46.7047 50.9624 47.1651 50.527 47.634C50.22 47.944 49.983 48.334 49.869 48.714C49.738 49.148 49.79 49.502 50.019 49.733C50.167 49.883 50.343 49.972 50.519 49.972H50.545C50.615 49.972 50.694 49.954 50.764 49.919C50.641 50.299 50.851 50.574 50.974 50.698C51.124 50.848 51.325 50.919 51.554 50.919C51.79 50.919 52.044 50.849 52.298 50.724C51.974 50.972 51.272 51.087 50.588 51.203C50.457 51.229 50.316 51.247 50.194 51.273C50.273 51.211 50.351 51.149 50.43 51.07C50.79 50.707 50.746 50.432 50.72 50.255C50.702 50.167 50.702 50.131 50.72 50.113L50.615 50.007C50.597 50.025 50.553 50.025 50.475 50.007C50.299 49.981 50.027 49.937 49.667 50.299C49.5816 50.3857 49.5052 50.4808 49.439 50.583C49.4652 50.4331 49.4859 50.2824 49.501 50.131C49.606 49.387 49.711 48.626 49.992 48.343L49.887 48.236L48.422 49.715C48.2487 49.8876 48.1012 50.0843 47.984 50.299L47.914 50.229C47.256 50.893 46.738 51.415 46.449 51.779C46.291 51.937 46.151 52.123 46.036 52.309L45.94 52.221L44.379 53.779C44.204 53.956 44.054 54.159 43.94 54.364L43.923 54.346L43.87 54.293L42.406 55.771C42.2356 55.9467 42.0881 56.1432 41.967 56.356L41.897 56.285L41.844 56.338C41.441 56.79 41.038 57.17 40.748 57.454C40.625 57.569 40.52 57.675 40.441 57.754C39.81 58.392 39.459 59.454 39.932 59.924C40.012 60.004 40.125 60.074 40.248 60.11C40.2118 60.1312 40.1794 60.1582 40.152 60.19C40.055 60.287 40.055 60.464 40.134 60.57L38.844 61.589L30.601 69.912L30.04 69.965L36.03 59.543L36.687 57.985C36.722 57.994 36.757 58.003 36.793 58.003C36.8465 58.0047 36.8993 57.9904 36.9445 57.9619C36.9898 57.9334 37.0255 57.892 37.047 57.843C37.056 57.817 37.073 57.79 37.082 57.773C37.1365 57.8729 37.2148 57.9577 37.31 58.02L37.319 58.03C37.4322 58.0901 37.5589 58.1204 37.687 58.118C38.266 58.118 38.941 57.587 39.24 56.976C39.3 56.869 39.38 56.746 39.468 56.604C39.696 56.232 40.02 55.718 40.336 55.134L40.266 55.099C40.432 54.93 40.581 54.744 40.696 54.549L40.704 54.541C40.784 54.328 40.967 54.027 41.195 53.638C41.362 53.363 41.546 53.044 41.73 52.708L41.643 52.655C41.8135 52.4915 41.9664 52.3105 42.099 52.115C42.186 51.964 42.309 51.743 42.441 51.485C42.616 51.158 42.835 50.751 43.072 50.344C43.09 50.317 43.107 50.291 43.116 50.264L43.028 50.211C43.212 50.034 43.37 49.821 43.476 49.6C43.537 49.494 43.616 49.37 43.704 49.22C43.932 48.847 44.256 48.334 44.572 47.75L44.467 47.687C44.642 47.51 44.809 47.307 44.94 47.085C45.142 46.749 45.467 46.165 45.966 45.235L45.87 45.182C46.0735 45.0018 46.2533 44.7965 46.405 44.571C46.984 43.552 48.94 40.028 48.965 39.993L48.835 39.922L47.3 42.649C47.133 42.959 46.458 43.251 45.8 43.535C45.265 43.765 44.756 43.986 44.458 44.235C44.511 43.871 44.449 43.358 44.388 42.826C44.308 42.145 44.23 41.445 44.379 41.056C45.116 39.772 45.949 38.319 45.966 38.293L45.905 38.257L45.844 38.222L44.309 40.878C44.2831 40.9165 44.2623 40.9582 44.247 41.002C43.835 41.719 43.467 42.392 43.283 42.729C43.133 42.977 43.028 43.26 42.967 43.544L42.906 43.508L42.844 43.473C42.414 44.199 41.967 44.943 41.818 45.323C41.695 45.509 41.598 45.73 41.538 45.961L41.458 45.908C41.1542 46.391 40.8618 46.8812 40.581 47.378C40.494 47.528 40.423 47.652 40.362 47.749C40.2311 47.9698 40.1334 48.2087 40.072 48.458L39.994 48.413C39.739 48.847 39.503 49.29 39.31 49.635C39.178 49.883 39.055 50.105 38.968 50.255C38.845 50.459 38.758 50.68 38.696 50.901L38.599 50.848C38.591 50.866 38.582 50.884 38.573 50.893C38.266 51.459 37.959 51.946 37.731 52.309C37.643 52.459 37.564 52.584 37.494 52.69C37.388 52.9097 37.3088 53.1414 37.258 53.38L37.205 53.345L36.109 55.195C35.696 55.949 35.617 56.985 36.214 57.365C36.328 57.418 36.433 57.454 36.547 57.454C36.5219 57.4797 36.5013 57.5094 36.486 57.542C36.389 57.648 36.468 57.817 36.556 57.923L35.609 59.251L29.487 69.983H29.189L32.381 57.896L32.671 56.285C32.688 56.285 32.697 56.294 32.714 56.294C32.7632 56.2958 32.8118 56.2832 32.854 56.258C32.8869 56.2368 32.9144 56.2082 32.9343 56.1745C32.9543 56.1409 32.9662 56.103 32.969 56.064C32.9869 56.0251 32.9957 55.9828 32.995 55.94C33.083 56.02 33.197 56.081 33.311 56.117C33.372 56.134 33.425 56.134 33.486 56.134C34.074 56.134 34.653 55.417 34.863 54.664C35.013 54.222 35.231 53.398 35.451 52.593L35.381 52.575L35.337 52.566C35.451 52.371 35.538 52.159 35.6 51.937C35.749 51.495 35.968 50.662 36.187 49.865L36.047 49.83C35.942 50.21 35.354 50.671 34.793 51.114C34.653 51.22 34.521 51.327 34.398 51.433C34.4466 51.3307 34.4847 51.2239 34.512 51.114C34.574 50.831 34.539 50.636 34.477 50.485C34.565 50.565 34.67 50.627 34.793 50.654C34.846 50.662 34.898 50.671 34.951 50.671C35.53 50.671 36.135 49.901 36.345 49.131C36.477 48.803 36.67 48.103 36.933 47.059L36.819 47.023C36.9334 46.8259 37.0218 46.6148 37.082 46.395C37.17 46.129 37.407 45.395 37.67 44.323L37.564 44.296C37.687 44.075 37.774 43.836 37.819 43.588C37.95 43.251 38.143 42.561 38.406 41.516L38.284 41.48C38.433 41.241 38.556 40.976 38.626 40.701C38.915 39.603 39.932 35.725 39.941 35.681L39.801 35.645L38.994 38.594C38.889 38.992 38.292 39.479 37.722 39.958C37.302 40.303 36.898 40.639 36.67 40.949C36.626 40.569 36.433 40.055 36.223 39.533C35.995 38.957 35.758 38.363 35.749 37.956C36.135 36.496 36.565 34.831 36.573 34.804L36.433 34.769L35.626 37.717C35.6081 37.7896 35.5994 37.8642 35.6 37.939C35.398 38.7 35.214 39.409 35.117 39.78C35.043 40.0539 35.0106 40.3374 35.021 40.621L34.898 40.586C34.898 40.595 34.889 40.604 34.889 40.613C34.81 40.923 34.732 41.223 34.661 41.48C34.539 41.959 34.425 42.366 34.381 42.65C34.311 42.906 34.276 43.172 34.284 43.42L34.161 43.384C33.942 44.181 33.723 45.004 33.583 45.367V45.385C33.5392 45.6335 33.5214 45.8858 33.53 46.138L33.434 46.111C33.434 46.121 33.424 46.129 33.424 46.138C33.2559 46.8234 33.0631 47.5025 32.846 48.174C32.786 48.3963 32.7564 48.6257 32.758 48.856L32.697 48.838C32.697 48.848 32.688 48.856 32.688 48.865C32.434 49.875 32.241 50.583 32.109 50.901C32.0494 51.1234 32.0201 51.3528 32.022 51.583L31.96 51.566C31.96 51.574 31.951 51.583 31.951 51.592C31.697 52.602 31.504 53.31 31.373 53.62V53.638C31.215 54.532 31.408 55.558 32.083 55.718C32.1597 55.755 32.243 55.7761 32.328 55.78C32.355 55.78 32.39 55.78 32.416 55.771C32.408 55.798 32.399 55.824 32.399 55.851C32.3784 55.8942 32.3684 55.9416 32.3698 55.9895C32.3712 56.0373 32.3839 56.0841 32.407 56.126C32.4376 56.1754 32.4842 56.2128 32.539 56.232L31.96 57.772L28.689 69.965H28.6V57.339L28.451 55.648C28.609 55.621 28.741 55.523 28.741 55.355C28.741 55.329 28.741 55.311 28.731 55.293C28.828 55.338 28.933 55.364 29.039 55.364C29.767 55.284 30.205 54.328 30.205 53.443V51.38H30.1C30.1692 51.1411 30.2046 50.8937 30.205 50.645V48.502H30.082C30.152 48.262 30.188 48.015 30.188 47.767V45.713H30.083C30.153 45.473 30.189 45.217 30.189 44.978V42.835H30.083C30.153 42.596 30.189 42.339 30.189 42.1V39.958H30.049C30.145 39.674 30.197 39.373 30.197 39.072V33.91H30.048V37.009C30.048 37.389 29.61 37.983 29.188 38.549C28.847 39.01 28.514 39.462 28.373 39.834C28.233 39.462 27.899 39.01 27.557 38.55C27.137 37.983 26.698 37.39 26.698 37.009V33.909H26.548V39.072C26.548 39.373 26.602 39.674 26.698 39.958H26.558V42.1C26.558 42.348 26.593 42.596 26.663 42.835H26.558V44.978C26.558 45.226 26.593 45.474 26.663 45.713H26.558V47.776C26.558 48.024 26.593 48.281 26.663 48.511H26.558V50.654C26.558 50.901 26.593 51.149 26.663 51.388H26.558V53.452C26.558 54.328 26.996 55.293 27.724 55.373C27.8529 55.3784 27.9808 55.3476 28.093 55.284C28.083 55.311 28.083 55.338 28.083 55.364C28.083 55.524 28.163 55.63 28.303 55.656L28.153 57.356V69.903H27.917L24.637 57.702L24.076 56.143C24.198 56.073 24.277 55.975 24.277 55.816V55.806L24.269 55.789C24.2529 55.7468 24.2251 55.7101 24.189 55.683C24.3167 55.7094 24.4487 55.7063 24.575 55.674C24.769 55.621 24.935 55.488 25.067 55.267C25.312 54.842 25.374 54.169 25.216 53.584C24.9986 52.9125 24.8055 52.2334 24.637 51.548C24.637 51.539 24.637 51.53 24.628 51.521L24.567 51.539C24.567 51.309 24.541 51.079 24.479 50.857C24.4061 50.6295 24.3417 50.3993 24.286 50.167C24.19 49.786 24.066 49.307 23.891 48.785L23.831 48.803C23.831 48.573 23.804 48.343 23.742 48.121C23.6756 47.9049 23.6172 47.6864 23.567 47.466C23.462 47.059 23.339 46.554 23.155 46.049L23.093 46.067C23.1031 45.8104 23.0738 45.5537 23.006 45.306C22.936 45.137 22.874 44.872 22.786 44.544C22.69 44.172 22.576 43.721 22.418 43.242L22.357 43.26C22.357 43.03 22.33 42.8 22.269 42.578C22.119 42.136 21.901 41.312 21.681 40.515L21.559 40.551C21.5751 40.2642 21.5423 39.9768 21.462 39.701C21.366 39.329 21.182 38.611 20.98 37.832C20.9803 37.7634 20.9712 37.6951 20.953 37.629L20.147 34.601L20.007 34.636C20.015 34.662 20.453 36.363 20.831 37.85C20.831 38.257 20.594 38.86 20.357 39.444C20.147 39.975 19.945 40.48 19.91 40.861C19.682 40.56 19.278 40.223 18.857 39.869C18.287 39.391 17.691 38.904 17.586 38.505L16.779 35.557L16.639 35.592C16.647 35.628 17.665 39.515 17.954 40.612C18.033 40.896 18.147 41.162 18.296 41.383L18.173 41.418C18.182 41.445 18.191 41.463 18.2 41.489C18.357 41.985 18.471 42.428 18.568 42.799C18.638 43.074 18.699 43.313 18.761 43.49C18.963 44.252 19.541 44.97 20.138 44.97C20.199 44.97 20.252 44.96 20.313 44.951C20.4346 44.9332 20.5495 44.8847 20.647 44.81C20.577 44.96 20.524 45.173 20.585 45.491C20.611 45.589 20.655 45.686 20.699 45.784L20.357 45.518C19.813 45.093 19.243 44.659 19.085 44.288C19.0773 44.254 19.0656 44.2211 19.05 44.19L18.91 44.234C18.9178 44.2676 18.9295 44.3002 18.945 44.331C19.095 44.756 19.199 45.173 19.287 45.518C19.366 45.81 19.427 46.067 19.489 46.226C19.559 46.474 19.664 46.722 19.796 46.935L19.708 46.952C19.717 46.979 19.717 47.006 19.726 47.032C19.796 47.324 19.866 47.608 19.919 47.856C20.033 48.334 20.12 48.741 20.217 49.024C20.278 49.246 20.375 49.467 20.489 49.671L20.427 49.68C20.436 49.706 20.436 49.733 20.445 49.76C20.515 50.051 20.585 50.344 20.638 50.6C20.752 51.114 20.848 51.521 20.936 51.751C21.146 52.54 21.743 53.301 22.383 53.301C22.444 53.301 22.497 53.292 22.558 53.283C22.6287 53.2657 22.6967 53.2388 22.76 53.203C22.725 53.336 22.716 53.513 22.76 53.743V53.753C22.786 53.841 22.83 53.93 22.874 54.018L22.48 53.699C21.945 53.275 21.383 52.841 21.243 52.495C21.234 52.478 21.234 52.46 21.225 52.442L21.085 52.486C21.0947 52.5053 21.1005 52.5264 21.102 52.548C21.252 52.982 21.366 53.416 21.462 53.77C21.542 54.062 21.602 54.32 21.664 54.479C21.874 55.267 22.471 56.029 23.111 56.029C23.172 56.029 23.225 56.019 23.286 56.01C23.3884 55.9849 23.4822 55.9332 23.558 55.86V55.878L23.567 55.895C23.637 56.037 23.717 56.135 23.865 56.152L24.145 57.799L27.338 69.876H27.189L21.102 59.171L20.129 57.834C20.1748 57.7919 20.2056 57.7361 20.217 57.675C20.2234 57.5861 20.2051 57.4971 20.164 57.418L20.147 57.401C20.147 57.401 20.137 57.401 20.137 57.391C20.2606 57.3882 20.3815 57.3548 20.489 57.294L20.497 57.286C21.059 56.878 20.962 55.806 20.524 55.054C20.436 54.833 20.252 54.523 20.024 54.134C19.8493 53.8433 19.6826 53.5478 19.524 53.248C19.515 53.23 19.506 53.213 19.498 53.204L19.401 53.257C19.3401 53.03 19.2486 52.8124 19.129 52.61C18.7873 52.0157 18.454 51.4166 18.129 50.813L18.103 50.76L18.024 50.804C17.9617 50.5793 17.8674 50.3648 17.744 50.167L16.674 48.369C16.6671 48.3532 16.658 48.3384 16.647 48.325L16.595 48.36C16.5439 48.1214 16.4643 47.8897 16.358 47.67C16.296 47.563 16.218 47.44 16.121 47.289C15.8168 46.8126 15.5299 46.3252 15.261 45.828L15.183 45.872C15.1215 45.6231 15.0238 45.3845 14.893 45.164C14.7 44.836 14.367 44.234 13.876 43.322L13.744 43.393C13.911 43.729 13.832 44.447 13.753 45.146C13.735 45.332 13.709 45.509 13.7 45.686C13.665 45.606 13.63 45.536 13.586 45.465C13.367 45.075 13.148 44.969 12.972 44.925C13.1038 44.9209 13.2329 44.8874 13.35 44.827C13.56 44.695 13.71 44.464 13.77 44.172C13.867 43.702 13.744 43.101 13.446 42.658C13.244 42.295 12.867 41.631 12.464 40.914C12.4548 40.8791 12.44 40.846 12.42 40.816L10.876 38.08L10.745 38.151C10.754 38.178 11.578 39.648 12.315 40.967C12.429 41.303 12.358 41.941 12.288 42.561C12.218 43.154 12.157 43.756 12.236 44.172C11.929 43.933 11.456 43.721 10.956 43.499C10.316 43.207 9.64903 42.915 9.39403 42.579C8.64003 41.294 7.82403 39.869 7.80703 39.842L7.67503 39.922L9.21003 42.578L9.26303 42.658C9.69303 43.393 10.096 44.075 10.306 44.42C10.429 44.677 10.622 44.916 10.841 45.11L10.745 45.164C10.754 45.1737 10.7599 45.1859 10.762 45.199C11.245 46.094 11.569 46.687 11.771 47.006C11.902 47.226 12.061 47.431 12.244 47.608L12.139 47.67C12.394 48.103 12.63 48.537 12.815 48.892C12.946 49.148 13.069 49.361 13.157 49.52C13.279 49.724 13.428 49.91 13.587 50.07L13.517 50.105C13.832 50.689 14.147 51.203 14.384 51.575C14.472 51.725 14.551 51.849 14.613 51.946C14.727 52.168 14.884 52.38 15.069 52.566L14.981 52.61C14.998 52.637 15.007 52.663 15.025 52.69C15.261 53.097 15.481 53.505 15.656 53.832C15.788 54.089 15.911 54.302 15.998 54.461C16.121 54.665 16.261 54.859 16.419 55.01L16.358 55.045C16.858 55.966 17.182 56.559 17.384 56.895C17.752 57.525 18.384 58.038 18.945 58.038C19.0705 58.0395 19.1944 58.0092 19.305 57.95C19.4062 57.9013 19.4935 57.8281 19.559 57.737C19.559 57.746 19.568 57.755 19.568 57.764C19.59 57.8072 19.6223 57.8444 19.662 57.8721C19.7018 57.8999 19.7479 57.9174 19.796 57.923C19.813 57.923 19.84 57.932 19.857 57.932C19.901 57.932 19.937 57.923 19.971 57.914L20.673 59.393L26.672 69.903H26.102L17.936 61.58L16.674 60.517C16.6957 60.4636 16.7075 60.4066 16.709 60.349C16.709 60.305 16.699 60.181 16.629 60.11L16.612 60.092C16.5815 60.0765 16.5493 60.0648 16.516 60.057C16.6414 60.0114 16.7551 59.9386 16.849 59.844C17.314 59.375 16.963 58.374 16.34 57.746C16.068 57.471 15.498 56.896 14.928 56.25C14.9107 56.2319 14.8934 56.2139 14.876 56.196L14.779 56.285C14.6645 56.0914 14.5261 55.913 14.367 55.754C14.095 55.479 13.525 54.904 12.955 54.257L12.902 54.204L12.823 54.284C12.7103 54.0658 12.5654 53.8659 12.393 53.691C12.104 53.398 11.517 52.805 10.859 52.212L10.789 52.282C10.6657 52.0711 10.5184 51.8751 10.35 51.698L8.88503 50.22L8.83303 50.273C8.70944 50.0391 8.55283 49.8243 8.36803 49.635C8.08803 49.352 7.49103 48.75 6.83303 48.157L6.74603 48.254C6.61653 48.0037 6.45074 47.7738 6.25403 47.572L2.59703 43.88L2.49203 43.986L4.68503 46.2C4.95603 46.474 5.07003 47.2 5.17503 47.891C5.26303 48.458 5.34203 48.998 5.50903 49.361C5.14103 49.193 4.58803 49.113 4.01803 49.024C3.30803 48.918 2.58003 48.803 2.30803 48.529L0.194027 46.395L0.0900269 46.5L3.74703 50.192C3.94003 50.387 4.18603 50.555 4.43103 50.679L4.32603 50.785L5.79103 52.255C5.95703 52.424 6.15903 52.583 6.36903 52.698L6.29903 52.768C6.69403 53.168 7.06203 53.513 7.36003 53.787C7.55303 53.964 7.72003 54.124 7.83403 54.239C8.00103 54.424 8.19403 54.584 8.39503 54.708L8.34303 54.752C8.93003 55.416 9.52703 56.018 9.80703 56.302C9.98303 56.479 10.185 56.629 10.387 56.744L10.317 56.815L10.369 56.868C10.816 57.276 11.193 57.683 11.474 57.984C11.588 58.108 11.693 58.214 11.772 58.294C11.939 58.462 12.14 58.613 12.359 58.737L12.333 58.763L12.281 58.816C12.938 59.48 13.456 60.003 13.815 60.295C14.122 60.605 14.508 60.844 14.885 60.959C15.035 61.003 15.184 61.029 15.315 61.029C15.552 61.029 15.754 60.959 15.894 60.809C15.9753 60.7288 16.0381 60.6319 16.078 60.525C16.1003 60.5532 16.1274 60.5772 16.158 60.596C16.21 60.64 16.28 60.666 16.358 60.666C16.42 60.666 16.482 60.649 16.552 60.631L17.613 61.924L25.393 69.849L25.357 69.84H25.348C17.402 69.309 11.061 65.873 7.15003 63.084C2.90403 60.065 0.501027 57.126 0.484027 57.1L0.361027 56.95L0.281027 59.33L0.326027 59.357C1.23803 59.853 1.37803 60.234 1.55403 60.712C1.69403 61.084 1.85203 61.5 2.35203 62.067C3.16703 63.023 3.82503 63.2 4.46503 63.377C4.92103 63.501 5.40403 63.634 5.94703 64.059C6.50003 64.546 6.65703 64.856 6.82403 65.192C6.98203 65.512 7.15803 65.874 7.70203 66.414C8.29803 66.972 8.88503 67.034 9.51703 67.087C10.078 67.14 10.648 67.194 11.289 67.601C11.727 67.893 11.92 68.211 12.13 68.548C12.429 69.026 12.736 69.531 13.788 69.974C14.472 70.284 14.972 70.231 15.498 70.177C16.13 70.115 16.788 70.045 17.884 70.558C18.357 70.753 18.542 71.01 18.752 71.311C19.094 71.798 19.489 72.347 21.112 72.843C21.725 72.993 22.155 72.86 22.699 72.693C23.216 72.533 23.856 72.329 24.847 72.329C26.33 72.453 27.049 72.958 27.049 73.879C27.119 75.313 26.259 76.925 26.251 76.933L26.189 77.048H30.601L30.539 76.933C30.531 76.916 29.671 75.313 29.671 73.879C29.733 73.197 30.04 72.479 31.864 72.32C32.864 72.32 33.504 72.524 34.021 72.683C34.565 72.851 35.004 72.993 35.609 72.833C37.222 72.338 37.617 71.789 37.959 71.302C38.169 71.001 38.362 70.744 38.836 70.541C39.932 70.027 40.634 70.098 41.256 70.16C41.783 70.213 42.283 70.266 42.932 69.956C44.063 69.496 44.37 68.982 44.668 68.486C44.861 68.168 45.037 67.866 45.423 67.592C46.098 67.185 46.685 67.132 47.256 67.079C47.887 67.016 48.492 66.963 49.089 66.406C49.632 65.856 49.79 65.493 49.931 65.175C50.08 64.847 50.211 64.528 50.764 64.05C51.307 63.625 51.781 63.492 52.246 63.36C52.886 63.182 53.544 62.997 54.36 62.05C54.86 61.474 55.035 61.058 55.184 60.686C55.377 60.208 55.526 59.826 56.394 59.331L56.429 59.304L56.35 56.922L56.21 57.1ZM48.685 52.044C48.685 52.053 48.676 52.053 48.676 52.061L48.668 52.053C48.668 52.053 48.676 52.054 48.685 52.044ZM48.685 52.54C48.7198 52.6302 48.7737 52.7117 48.843 52.779C49.027 52.938 49.264 53.009 49.518 53.009C49.755 53.009 50.01 52.947 50.255 52.841C49.905 53.062 49.238 53.151 48.58 53.239C48.405 53.266 48.238 53.283 48.071 53.309C48.176 53.239 48.273 53.159 48.361 53.062C48.562 52.858 48.651 52.682 48.685 52.54ZM47.501 52.053C47.571 51.61 47.633 51.158 47.747 50.813C47.642 51.22 47.685 51.619 47.957 51.893C48.019 51.955 48.097 52.008 48.177 52.043C48.01 52.07 47.817 52.15 47.597 52.38C47.5363 52.4428 47.4779 52.5078 47.422 52.575C47.449 52.407 47.474 52.23 47.501 52.053ZM46.659 54.063C46.659 54.071 46.659 54.071 46.651 54.08L46.641 54.071C46.651 54.063 46.651 54.063 46.659 54.063ZM46.387 55.133C46.589 54.93 46.668 54.744 46.685 54.585C46.7286 54.6801 46.7881 54.767 46.861 54.842C46.9377 54.916 47.0285 54.9737 47.128 55.0116C47.2275 55.0496 47.3336 55.0671 47.44 55.063C47.51 55.063 47.589 55.054 47.668 55.045C47.361 55.125 46.993 55.178 46.633 55.24C46.483 55.267 46.343 55.284 46.203 55.311C46.265 55.249 46.326 55.195 46.387 55.133ZM45.493 54.169C45.607 53.487 45.721 52.788 45.958 52.425C45.668 52.965 45.589 53.558 45.914 53.885C45.984 53.956 46.054 54.009 46.133 54.045C45.993 54.08 45.817 54.169 45.624 54.364C45.545 54.444 45.484 54.523 45.414 54.612L45.493 54.169ZM44.66 56.099C44.66 56.108 44.65 56.108 44.65 56.117L44.642 56.107L44.633 56.099C44.651 56.108 44.66 56.108 44.66 56.099ZM44.66 56.595C44.6947 56.6852 44.7486 56.7667 44.818 56.834C45.0015 56.9885 45.2353 57.0703 45.475 57.064C45.598 57.064 45.73 57.046 45.852 57.011C45.467 57.144 44.958 57.223 44.493 57.294C44.343 57.321 44.186 57.339 44.046 57.365C44.142 57.295 44.239 57.215 44.336 57.126C44.546 56.923 44.624 56.746 44.66 56.595ZM43.484 56.188C43.546 55.718 43.616 55.24 43.73 54.878C43.6948 55.0076 43.6799 55.1419 43.686 55.276C43.6868 55.3876 43.7106 55.4978 43.7558 55.5999C43.8011 55.7019 43.8668 55.7935 43.949 55.869C44.011 55.949 44.072 56.011 44.151 56.055C44.001 56.072 43.835 56.152 43.66 56.355C43.5745 56.4416 43.4982 56.5368 43.432 56.639C43.44 56.497 43.458 56.347 43.484 56.188ZM42.686 58.605C42.721 58.685 42.774 58.755 42.844 58.817C42.984 58.986 43.195 59.083 43.432 59.092H43.476C43.739 59.092 44.046 58.994 44.336 58.835C44.019 59.092 43.291 59.189 42.59 59.287C42.414 59.313 42.248 59.331 42.081 59.357C42.186 59.287 42.283 59.207 42.371 59.109C42.563 58.924 42.651 58.746 42.686 58.605ZM41.511 58.1C41.572 57.693 41.634 57.277 41.731 56.95C41.643 57.32 41.678 57.684 41.897 57.94C41.9655 58.0112 42.0493 58.0659 42.142 58.1C41.985 58.135 41.809 58.224 41.607 58.419C41.5443 58.4735 41.4858 58.5327 41.432 58.596L41.511 58.1ZM40.661 60.083C40.6428 60.1281 40.6336 60.1763 40.634 60.225C40.634 60.216 40.625 60.216 40.625 60.208C40.608 60.172 40.581 60.145 40.555 60.118C40.5912 60.1104 40.6275 60.0986 40.661 60.083ZM44.475 45.563C44.5889 45.6222 44.7157 45.6525 44.844 45.651C45.134 45.651 45.44 45.509 45.73 45.297C45.449 45.597 44.844 45.872 44.265 46.137C44.133 46.2 44.011 46.253 43.888 46.315C43.949 46.235 44.011 46.147 44.063 46.049C44.247 45.669 44.186 45.429 44.133 45.252C44.107 45.155 44.098 45.102 44.116 45.058C44.142 45.288 44.291 45.465 44.476 45.562L44.475 45.563ZM42.949 43.553C42.8875 43.8269 42.8875 44.1111 42.949 44.385C43.011 44.615 43.134 44.792 43.3 44.889C43.4221 44.9525 43.5575 44.9861 43.695 44.987C43.835 44.987 43.985 44.943 44.107 44.854C44.0982 44.9009 44.0982 44.9491 44.107 44.996L44.002 44.925C43.967 44.978 43.905 44.995 43.8 45.022C43.616 45.066 43.37 45.12 43.125 45.518C43.0635 45.6318 43.0107 45.7502 42.967 45.872L42.914 45.412C42.835 44.686 42.748 43.924 42.949 43.552V43.553ZM42.616 47.439C42.616 47.457 42.616 47.475 42.607 47.493H42.6L42.573 47.475C42.591 47.457 42.607 47.448 42.616 47.439ZM42.599 48.555C42.748 48.316 42.783 48.112 42.774 47.953C42.835 48.033 42.924 48.095 43.011 48.139C43.1217 48.1982 43.2455 48.2285 43.371 48.227C43.695 48.227 44.046 48.05 44.353 47.776C44.081 48.086 43.467 48.369 42.87 48.644C42.704 48.724 42.546 48.794 42.388 48.865C42.468 48.7688 42.5393 48.6649 42.599 48.555ZM41.449 46.412C41.423 46.846 41.537 47.254 41.827 47.466L41.836 47.475C41.932 47.519 42.02 47.555 42.107 47.563C41.958 47.634 41.801 47.767 41.66 48.033C41.625 48.095 41.59 48.157 41.564 48.227C41.554 48.121 41.537 48.007 41.529 47.891C41.467 47.36 41.415 46.82 41.449 46.412ZM41.23 49.945C41.23 49.963 41.222 49.981 41.222 49.998L41.212 49.99L41.195 49.972C41.205 49.962 41.222 49.954 41.23 49.945ZM41.204 51.061C41.336 50.813 41.371 50.627 41.362 50.477C41.415 50.547 41.476 50.609 41.537 50.645L41.547 50.654C41.6599 50.7139 41.7862 50.7442 41.914 50.742C42.221 50.742 42.554 50.592 42.844 50.362C42.564 50.645 41.976 50.892 41.406 51.132C41.283 51.185 41.169 51.229 41.046 51.282C41.108 51.212 41.16 51.132 41.204 51.061ZM39.994 48.847C39.959 49.325 40.09 49.768 40.45 49.989C40.529 50.034 40.608 50.052 40.687 50.069C40.555 50.131 40.415 50.246 40.274 50.476C40.2128 50.5902 40.1603 50.7089 40.117 50.831L40.064 50.371C40.003 49.812 39.941 49.246 39.994 48.847ZM39.8 52.39V52.443L39.756 52.426H39.747C39.765 52.416 39.782 52.399 39.8 52.39ZM39.747 53.506C39.914 53.24 39.94 53.036 39.923 52.877C39.984 52.966 40.072 53.045 40.168 53.09C40.2819 53.1492 40.4087 53.1795 40.537 53.178C40.817 53.178 41.115 53.054 41.387 52.85C41.08 53.116 40.545 53.355 40.027 53.594C39.861 53.674 39.703 53.744 39.546 53.816C39.616 53.709 39.686 53.612 39.747 53.506ZM38.625 51.195C38.5887 51.4305 38.5976 51.6708 38.651 51.903C38.721 52.151 38.861 52.328 39.054 52.426C39.1412 52.4818 39.2408 52.5151 39.344 52.523C39.204 52.576 39.037 52.7 38.879 52.983C38.8159 53.087 38.763 53.1968 38.721 53.311L38.668 52.841C38.608 52.231 38.546 51.602 38.625 51.195ZM38.353 55.941C38.484 55.728 38.528 55.551 38.528 55.409C38.589 55.48 38.668 55.551 38.765 55.595C38.87 55.657 38.985 55.684 39.107 55.684C39.239 55.684 39.379 55.649 39.519 55.595C39.256 55.745 38.94 55.887 38.633 56.02C38.467 56.1 38.309 56.17 38.151 56.242C38.221 56.144 38.291 56.047 38.353 55.941ZM37.195 54.055C37.221 54.426 37.335 54.745 37.59 54.922L37.598 54.932C37.678 54.976 37.765 55.002 37.844 55.011C37.713 55.081 37.564 55.197 37.424 55.409L37.414 55.419C37.379 55.498 37.353 55.578 37.327 55.657C37.317 55.542 37.3 55.418 37.291 55.303C37.239 54.869 37.186 54.426 37.195 54.055ZM36.985 57.331C36.985 57.357 36.975 57.384 36.975 57.411C36.958 57.401 36.949 57.393 36.932 57.384C36.923 57.384 36.923 57.384 36.914 57.375C36.941 57.357 36.968 57.34 36.985 57.331ZM32.766 55.604L32.748 55.595H32.731C32.748 55.578 32.766 55.56 32.775 55.542C32.775 55.569 32.784 55.595 32.792 55.622C32.784 55.622 32.784 55.613 32.766 55.604ZM35.23 52.709C35.038 53.063 34.529 53.453 34.038 53.842C33.898 53.948 33.766 54.055 33.643 54.161C33.687 54.064 33.722 53.957 33.757 53.851C33.836 53.603 33.836 53.417 33.792 53.276C33.862 53.329 33.95 53.364 34.038 53.391C34.0952 53.4054 34.1542 53.4111 34.213 53.408C34.59 53.408 34.959 53.117 35.23 52.709ZM34.932 47.334C34.95 47.317 34.959 47.299 34.976 47.281C34.976 47.299 34.985 47.316 34.985 47.334H34.932ZM35.502 48.344C35.362 48.459 35.23 48.564 35.108 48.671C35.152 48.583 35.187 48.485 35.222 48.388V48.379C35.292 48.042 35.248 47.83 35.187 47.679C35.274 47.759 35.38 47.812 35.494 47.839C35.555 47.857 35.608 47.857 35.669 47.857C36.046 47.857 36.423 47.564 36.695 47.148C36.511 47.529 36.002 47.945 35.502 48.344ZM36.23 45.581C36.09 45.687 35.958 45.793 35.836 45.9C35.879 45.802 35.923 45.696 35.95 45.581C36.011 45.315 35.985 45.121 35.94 44.979C36.02 45.049 36.116 45.094 36.222 45.121C36.283 45.129 36.336 45.138 36.397 45.138C36.5918 45.1337 36.781 45.0721 36.941 44.961C37.028 44.899 37.116 44.828 37.195 44.749C36.95 45.014 36.59 45.298 36.23 45.581ZM36.678 42.854C36.8 42.429 36.721 42.207 36.625 42.057C36.713 42.146 36.827 42.207 36.958 42.243C37.02 42.252 37.072 42.261 37.134 42.261C37.528 42.261 37.914 41.968 38.194 41.552C38.046 41.924 37.494 42.376 36.967 42.81C36.827 42.925 36.695 43.03 36.572 43.137C36.607 43.049 36.652 42.951 36.678 42.854ZM34.985 40.729C35.011 41.021 35.081 41.278 35.195 41.481C35.327 41.694 35.494 41.827 35.713 41.88C35.757 41.889 35.827 41.906 35.915 41.906C36.073 41.906 36.275 41.862 36.432 41.667C36.441 41.756 36.467 41.827 36.511 41.907C36.485 41.871 36.467 41.836 36.467 41.809H36.327C36.327 41.844 36.309 41.853 36.222 41.898C36.072 41.978 35.818 42.101 35.678 42.598C35.645 42.6919 35.6241 42.7897 35.616 42.889C35.5702 42.7609 35.5205 42.6341 35.467 42.509C35.195 41.836 34.932 41.145 34.985 40.729ZM34.248 43.562C34.266 43.872 34.336 44.155 34.468 44.359C34.599 44.572 34.766 44.704 34.985 44.758C35.029 44.766 35.099 44.784 35.187 44.784C35.222 44.784 35.248 44.784 35.283 44.775C35.16 44.873 35.02 45.032 34.923 45.325C34.8904 45.4282 34.8703 45.535 34.863 45.643C34.818 45.519 34.766 45.395 34.713 45.271C34.468 44.634 34.213 43.978 34.248 43.562ZM34.257 47.555C34.31 47.573 34.362 47.573 34.424 47.573C34.45 47.573 34.476 47.573 34.511 47.564C34.406 47.653 34.292 47.804 34.213 48.042C34.178 48.158 34.16 48.282 34.143 48.397C34.099 48.273 34.047 48.149 34.003 48.025C33.775 47.44 33.547 46.847 33.529 46.422C33.599 46.972 33.827 47.414 34.257 47.555ZM32.967 49.858C33.108 50.088 33.301 50.238 33.52 50.292C33.564 50.3 33.634 50.318 33.722 50.318H33.731C33.626 50.424 33.521 50.584 33.468 50.868C33.441 50.965 33.415 51.062 33.406 51.159C33.362 51.035 33.31 50.911 33.257 50.779C33.117 50.407 32.967 50.026 32.88 49.689C32.906 49.743 32.932 49.805 32.967 49.858ZM32.152 52.408C32.178 52.47 32.205 52.532 32.24 52.585C32.38 52.815 32.564 52.965 32.792 53.019C32.869 53.0562 32.9527 53.0773 33.038 53.081H33.055C32.9079 53.2222 32.7994 53.3989 32.74 53.594C32.7069 53.6883 32.686 53.7864 32.678 53.886C32.6321 53.7579 32.5824 53.6312 32.529 53.506C32.389 53.125 32.239 52.744 32.152 52.408ZM27.872 50.566C27.784 50.442 27.688 50.318 27.6 50.194C27.25 49.724 26.89 49.238 26.74 48.839C26.943 49.291 27.267 49.619 27.688 49.627C27.734 49.6373 27.7809 49.6433 27.828 49.645C27.881 49.645 27.934 49.636 27.986 49.628C27.907 49.76 27.846 49.938 27.846 50.221C27.837 50.336 27.855 50.451 27.872 50.566ZM27.872 47.715C27.767 47.565 27.653 47.414 27.53 47.255C27.197 46.803 26.855 46.343 26.723 45.979C26.925 46.458 27.267 46.821 27.688 46.821C27.7776 46.8205 27.8664 46.8053 27.951 46.776C27.881 46.9 27.828 47.077 27.828 47.334C27.838 47.467 27.855 47.592 27.872 47.715ZM27.872 53.399C27.767 53.249 27.653 53.099 27.53 52.939C27.197 52.487 26.855 52.027 26.723 51.664C26.925 52.142 27.267 52.505 27.688 52.505C27.802 52.505 27.898 52.487 27.986 52.461C27.899 52.576 27.828 52.753 27.828 53.019C27.838 53.143 27.855 53.276 27.872 53.399ZM27.837 44.536C27.837 44.642 27.846 44.758 27.872 44.873C27.776 44.74 27.671 44.598 27.565 44.448C27.205 43.961 26.846 43.456 26.715 43.084C26.916 43.571 27.267 43.952 27.688 43.952C27.7996 43.9555 27.9106 43.9343 28.013 43.89C27.925 44.014 27.837 44.209 27.837 44.536ZM28.179 40.835C28.048 40.959 27.846 41.145 27.846 41.658C27.846 41.765 27.855 41.88 27.881 41.995C27.784 41.862 27.679 41.72 27.574 41.57C27.136 40.977 26.688 40.366 26.679 39.976C26.864 40.516 27.214 40.941 27.697 40.994C27.951 40.994 28.144 40.906 28.267 40.738C28.2407 40.7729 28.2112 40.8054 28.179 40.835ZM20.163 41.729L20.093 41.765C20.093 41.782 20.058 41.827 20.032 41.862C19.926 42.004 19.76 42.242 19.865 42.712C19.891 42.81 19.935 42.907 19.979 43.004L19.637 42.739C19.076 42.305 18.497 41.862 18.347 41.481C18.514 41.721 18.716 41.915 18.927 42.031C19.067 42.111 19.216 42.145 19.357 42.145C19.4371 42.1469 19.5169 42.1351 19.593 42.11C19.6866 42.0904 19.7753 42.052 19.8537 41.9972C19.9321 41.9424 19.9985 41.8722 20.049 41.791C20.0813 41.7299 20.1049 41.6646 20.119 41.597C20.154 41.641 20.189 41.677 20.224 41.703L20.163 41.729ZM20.233 41.694C20.2485 41.7087 20.2664 41.7205 20.286 41.729C20.26 41.72 20.242 41.712 20.233 41.694ZM22.215 44.067C22.128 44.377 22.005 44.731 21.873 45.085C21.812 45.253 21.751 45.413 21.698 45.572C21.6831 45.464 21.6597 45.3573 21.628 45.253C21.566 44.97 21.47 44.802 21.365 44.704H21.444C21.531 44.704 21.61 44.687 21.663 44.678C21.917 44.581 22.101 44.35 22.215 44.067ZM21.628 47.263L21.61 47.273C21.619 47.255 21.619 47.228 21.628 47.21C21.636 47.228 21.645 47.237 21.654 47.254L21.628 47.263ZM20.418 41.791C20.496 41.818 20.567 41.827 20.637 41.827C20.724 41.827 20.803 41.809 20.847 41.8C21.303 41.65 21.531 41.171 21.567 40.631C21.627 41.03 21.382 41.676 21.145 42.305C21.084 42.465 21.023 42.624 20.97 42.783C20.9551 42.6694 20.9317 42.5571 20.9 42.447C20.803 42.022 20.584 41.871 20.418 41.791ZM20.908 44.457H20.891C20.891 44.447 20.891 44.439 20.9 44.43C20.9 44.439 20.909 44.448 20.909 44.456L20.908 44.457ZM19.988 47.21C20.26 47.555 20.602 47.795 20.961 47.795C21.023 47.795 21.075 47.785 21.137 47.777C21.2146 47.7556 21.2884 47.7226 21.356 47.679C21.312 47.821 21.286 47.999 21.347 48.246C21.373 48.344 21.417 48.441 21.452 48.53C21.356 48.45 21.259 48.379 21.162 48.3C20.681 47.927 20.198 47.555 19.988 47.21ZM21.882 51.07C21.505 50.76 21.119 50.442 20.865 50.15C21.101 50.38 21.382 50.53 21.672 50.53C21.733 50.53 21.794 50.522 21.865 50.513C21.952 50.495 22.022 50.46 22.093 50.424C22.04 50.566 22.013 50.761 22.066 51.044V51.053C22.093 51.142 22.128 51.221 22.171 51.31C22.075 51.23 21.987 51.15 21.882 51.07ZM22.382 49.982V49.972L22.391 49.982H22.382ZM22.61 47.848C22.549 48.008 22.487 48.167 22.435 48.326C22.4201 48.2121 22.3967 48.0994 22.365 47.989C22.303 47.724 22.207 47.573 22.093 47.467H22.136C22.225 47.4687 22.3128 47.4473 22.391 47.405C22.584 47.352 22.751 47.219 22.873 46.998C22.9185 46.9265 22.9538 46.8491 22.978 46.768C22.891 47.104 22.75 47.476 22.61 47.848ZM23.163 51.106C23.145 51 23.127 50.894 23.093 50.787C23.031 50.504 22.934 50.336 22.82 50.238C22.847 50.238 22.882 50.248 22.908 50.248C22.9789 50.2488 23.0496 50.2398 23.118 50.221C23.382 50.123 23.566 49.893 23.68 49.61C23.592 49.92 23.47 50.274 23.338 50.62C23.277 50.779 23.215 50.947 23.163 51.106ZM23.82 55.525H23.812C23.82 55.507 23.82 55.48 23.829 55.462C23.847 55.489 23.873 55.507 23.891 55.533C23.864 55.525 23.846 55.525 23.82 55.525ZM23.89 53.833C23.8751 53.725 23.8517 53.6183 23.82 53.514C23.759 53.231 23.662 53.063 23.557 52.966C23.583 52.966 23.61 52.974 23.637 52.974C23.724 52.974 23.794 52.957 23.837 52.948C24.031 52.895 24.197 52.762 24.329 52.541L24.382 52.434C24.294 52.726 24.18 53.036 24.066 53.346C24.005 53.506 23.943 53.674 23.891 53.833H23.89ZM17.646 52.346C17.856 52.213 18.006 51.983 18.067 51.691C18.102 51.549 18.111 51.39 18.093 51.231C18.146 51.629 18.085 52.186 18.023 52.726C18.006 52.895 17.988 53.063 17.97 53.222C17.9257 53.1162 17.876 53.0127 17.821 52.912C17.672 52.638 17.523 52.505 17.383 52.434C17.471 52.417 17.558 52.39 17.646 52.346ZM16.901 52.336L16.883 52.355L16.874 52.363V52.31C16.874 52.32 16.883 52.328 16.901 52.337V52.336ZM16.261 49.831C16.506 49.689 16.629 49.38 16.655 49.025C16.664 49.38 16.611 49.822 16.567 50.256C16.55 50.371 16.541 50.496 16.532 50.61C16.5037 50.5377 16.4716 50.467 16.436 50.398C16.286 50.15 16.12 50.035 15.971 49.973C16.0784 49.9517 16.1783 49.9027 16.261 49.831ZM14.796 47.405C15.146 47.184 15.278 46.75 15.243 46.272C15.296 46.679 15.234 47.237 15.173 47.786L15.12 48.282C15.0757 48.1762 15.0259 48.0727 14.971 47.972C14.822 47.706 14.673 47.573 14.541 47.502C14.6314 47.486 14.7179 47.4531 14.796 47.405ZM14.112 47.405L14.068 47.432V47.37C14.076 47.387 14.094 47.396 14.112 47.405ZM12.594 44.802C12.621 44.819 12.656 44.846 12.682 44.855L12.638 44.899L12.594 44.943C12.6027 44.8964 12.6027 44.8486 12.594 44.802ZM12.577 45.067C12.586 45.032 12.594 45.005 12.594 44.97C12.604 44.997 12.586 45.032 12.559 45.112C12.559 45.121 12.551 45.129 12.551 45.129C12.5613 45.109 12.57 45.0883 12.577 45.067ZM10.954 45.209C11.024 45.262 11.094 45.315 11.164 45.351C11.402 45.493 11.638 45.572 11.858 45.572C11.989 45.5744 12.1186 45.5441 12.235 45.484C12.3804 45.4129 12.4934 45.2892 12.551 45.138C12.489 45.324 12.411 45.59 12.647 45.971C12.708 46.077 12.779 46.174 12.849 46.271L12.454 46.086C11.84 45.811 11.217 45.528 10.954 45.209ZM12.349 47.706C12.656 47.981 13.007 48.158 13.331 48.158C13.4566 48.1591 13.5804 48.1285 13.691 48.069C13.7867 48.0236 13.8682 47.9531 13.927 47.865C13.919 48.016 13.954 48.22 14.103 48.476C14.147 48.556 14.191 48.636 14.252 48.716L13.831 48.529C13.235 48.273 12.621 48.016 12.349 47.706ZM14.243 50.522C14.323 50.557 14.41 50.584 14.489 50.602C14.559 50.619 14.62 50.619 14.682 50.619C14.831 50.619 14.972 50.575 15.085 50.495C15.1758 50.4536 15.2566 50.3933 15.322 50.318C15.313 50.468 15.339 50.663 15.497 50.911C15.559 51.027 15.629 51.124 15.707 51.221C15.55 51.151 15.392 51.071 15.225 51C14.875 50.85 14.533 50.69 14.243 50.522ZM16.681 53.488C16.12 53.248 15.541 53.001 15.251 52.726C15.321 52.78 15.401 52.833 15.471 52.886C15.708 53.028 15.945 53.107 16.164 53.107C16.295 53.1094 16.4246 53.0791 16.541 53.019L16.55 53.009C16.62 52.966 16.673 52.904 16.725 52.842C16.716 52.992 16.752 53.187 16.883 53.426C16.927 53.496 16.979 53.568 17.033 53.639C16.918 53.585 16.804 53.532 16.681 53.488ZM18.067 55.95C17.7602 55.8146 17.4589 55.6668 17.164 55.507C17.199 55.516 17.234 55.533 17.269 55.542C17.348 55.56 17.427 55.569 17.506 55.569C17.6552 55.5698 17.8012 55.5266 17.926 55.445C18.0094 55.4036 18.0841 55.3466 18.146 55.277C18.137 55.427 18.155 55.622 18.269 55.852C18.321 55.941 18.374 56.029 18.444 56.109C18.321 56.065 18.199 56.004 18.067 55.95ZM19.417 55.197C19.4 55.357 19.383 55.516 19.365 55.667C19.3213 55.5536 19.2685 55.4439 19.207 55.339C19.076 55.109 18.953 54.975 18.83 54.896C18.9074 54.8687 18.9788 54.8266 19.04 54.772C19.234 54.674 19.365 54.488 19.435 54.249C19.497 54.046 19.505 53.798 19.461 53.55C19.549 53.966 19.478 54.595 19.417 55.197ZM19.76 57.313C19.742 57.322 19.733 57.331 19.725 57.34C19.725 57.313 19.725 57.287 19.715 57.26C19.733 57.278 19.76 57.286 19.777 57.304C19.769 57.304 19.769 57.303 19.76 57.313ZM14.085 58.048C14.077 58.048 14.077 58.048 14.085 58.048ZM12.84 55.87C13.147 55.507 13.12 54.975 12.919 54.48C13.121 54.834 13.209 55.48 13.296 56.118C13.322 56.304 13.349 56.481 13.375 56.649C13.3027 56.5439 13.2203 56.4461 13.129 56.357C12.919 56.144 12.743 56.065 12.603 56.029C12.6939 55.9958 12.7753 55.9419 12.84 55.87ZM12.13 56.038L12.12 56.047C12.12 56.038 12.12 56.038 12.112 56.029C12.121 56.038 12.13 56.038 12.13 56.038ZM10.867 53.807C11.086 53.577 11.121 53.231 11.024 52.859C11.138 53.214 11.209 53.674 11.288 54.126C11.314 54.258 11.331 54.4 11.358 54.524C11.296 54.444 11.235 54.364 11.156 54.284C10.963 54.09 10.796 54.01 10.656 53.984C10.7395 53.9431 10.8126 53.8823 10.867 53.807ZM10.157 54.046L10.13 54.072C10.13 54.064 10.121 54.046 10.121 54.037C10.139 54.037 10.148 54.037 10.157 54.046ZM8.81403 51.823C8.89988 51.7463 8.9685 51.6523 9.01538 51.5471C9.06227 51.442 9.08634 51.3281 9.08603 51.213C9.08603 51.115 9.07703 51.009 9.06003 50.893C9.15603 51.221 9.21803 51.629 9.28003 52.036C9.30503 52.196 9.32303 52.346 9.35003 52.496C9.29911 52.4274 9.2433 52.3625 9.18303 52.302C9.02767 52.1343 8.82567 52.0169 8.60303 51.965C8.68165 51.9313 8.75323 51.8832 8.81403 51.823ZM8.11303 51.983L8.09503 52C8.09503 51.992 8.08603 51.983 8.08603 51.974C8.09603 51.974 8.10403 51.974 8.11303 51.983ZM6.27103 49.946H6.31503C6.40816 49.9383 6.49834 49.9096 6.57885 49.8622C6.65936 49.8147 6.72813 49.7497 6.78003 49.672C7.07803 49.362 7.03403 48.839 6.79703 48.335C7.04303 48.662 7.16603 49.371 7.27103 50.07C7.29703 50.203 7.31503 50.345 7.34103 50.477C7.28074 50.3916 7.21316 50.3117 7.13903 50.238C6.78903 49.938 6.53403 49.955 6.35903 49.964C6.27103 49.973 6.22703 49.973 6.20103 49.946H6.27103ZM6.21003 51.177C5.48203 51.08 4.73603 50.973 4.44703 50.69C4.70103 50.805 4.96403 50.876 5.20103 50.876C5.44703 50.876 5.66603 50.806 5.83203 50.636C6.01703 50.451 6.13903 50.186 6.04203 49.902C6.09603 49.92 6.14803 49.937 6.19203 49.946L6.13903 49.999L6.08703 50.052C6.10403 50.07 6.10403 50.115 6.08703 50.194C6.06003 50.371 6.01703 50.646 6.37703 51.009C6.46403 51.097 6.55203 51.169 6.65703 51.239C6.50703 51.212 6.35903 51.195 6.21003 51.177ZM8.12103 53.169C7.71803 53.107 7.31503 53.045 6.98103 52.957C7.09503 52.983 7.20903 53.001 7.32303 53.001C7.54973 53.0096 7.7716 52.9341 7.94603 52.789C8.01675 52.7158 8.07067 52.6281 8.10403 52.532C8.13903 52.692 8.21803 52.877 8.42803 53.081C8.49003 53.143 8.55103 53.196 8.62103 53.249C8.45585 53.2137 8.28896 53.187 8.12103 53.169ZM10.305 55.232C9.84003 55.162 9.34103 55.082 8.96303 54.958C9.06903 54.984 9.16503 55.002 9.26203 55.002H9.29703C9.55103 55.002 9.76203 54.922 9.91103 54.772C9.98103 54.701 10.042 54.612 10.086 54.515C10.104 54.665 10.174 54.852 10.384 55.065C10.464 55.144 10.56 55.223 10.656 55.295C10.542 55.277 10.427 55.25 10.305 55.232ZM12.2 57.224C11.7 57.154 11.191 57.083 10.831 56.959C10.8503 56.9691 10.8714 56.9753 10.893 56.977C11.024 57.012 11.156 57.03 11.279 57.03C11.4051 57.0341 11.5307 57.0127 11.6482 56.967C11.7658 56.9213 11.8729 56.8522 11.963 56.764C12.0273 56.7013 12.0781 56.6261 12.112 56.543C12.138 56.711 12.217 56.906 12.445 57.136C12.498 57.189 12.559 57.242 12.629 57.296C12.48 57.269 12.341 57.242 12.2 57.224ZM14.094 59.217C13.612 59.146 13.121 59.067 12.778 58.942C12.8177 58.9581 12.8589 58.9702 12.901 58.978C13.059 59.022 13.217 59.048 13.349 59.048C13.594 59.048 13.796 58.978 13.945 58.828C14.0157 58.7579 14.0698 58.6728 14.103 58.579C14.138 58.739 14.226 58.916 14.419 59.119C14.48 59.181 14.55 59.243 14.612 59.296C14.4395 59.2686 14.2668 59.2429 14.094 59.217ZM15.103 58.349C14.9726 58.2086 14.8099 58.1022 14.629 58.039C14.7241 57.9965 14.8103 57.9365 14.883 57.862C15.217 57.526 15.129 56.915 14.822 56.366C15.076 56.684 15.172 57.419 15.269 58.128C15.296 58.305 15.313 58.473 15.339 58.641C15.2657 58.5395 15.1869 58.442 15.103 58.349ZM16.173 60.111C16.1504 60.1226 16.1295 60.1374 16.111 60.155C16.103 60.129 16.094 60.093 16.076 60.067C16.111 60.076 16.156 60.084 16.19 60.093C16.19 60.103 16.181 60.111 16.173 60.111ZM29.17 52.939C29.056 53.099 28.942 53.249 28.828 53.399C28.846 53.276 28.863 53.143 28.863 53.019C28.863 52.735 28.784 52.567 28.697 52.443C28.7943 52.4836 28.8986 52.5047 29.004 52.505C29.424 52.505 29.767 52.142 29.968 51.664C29.845 52.027 29.503 52.487 29.17 52.939ZM28.714 49.609C28.7738 49.6266 28.8357 49.6357 28.898 49.636C28.942 49.636 28.978 49.628 29.021 49.619C29.442 49.609 29.767 49.282 29.968 48.831C29.828 49.229 29.468 49.716 29.108 50.185C29.0149 50.3069 28.9245 50.4309 28.837 50.557C28.854 50.442 28.863 50.327 28.863 50.203C28.863 49.92 28.802 49.732 28.714 49.609ZM29.17 47.255C29.056 47.414 28.942 47.565 28.828 47.715C28.8483 47.5893 28.86 47.4623 28.863 47.335C28.863 47.068 28.811 46.891 28.74 46.767C28.8263 46.8027 28.9187 46.821 29.012 46.821C29.433 46.821 29.775 46.458 29.977 45.979C29.845 46.343 29.503 46.803 29.17 47.255ZM29.135 44.448C29.03 44.589 28.925 44.731 28.828 44.873C28.846 44.758 28.863 44.643 28.863 44.536C28.863 44.191 28.767 43.987 28.662 43.863C28.7662 43.9222 28.8842 43.9529 29.004 43.952C29.434 43.952 29.775 43.58 29.977 43.084C29.863 43.456 29.495 43.961 29.135 44.448ZM28.355 40.569C28.4132 40.6947 28.5058 40.8013 28.6221 40.8765C28.7383 40.9517 28.8736 40.9925 29.012 40.994C29.486 40.941 29.837 40.516 30.021 39.976C30.012 40.366 29.565 40.976 29.126 41.57C29.021 41.712 28.925 41.844 28.828 41.986C28.846 41.88 28.854 41.765 28.854 41.658C28.854 41.145 28.653 40.959 28.521 40.835C28.451 40.773 28.416 40.738 28.416 40.693H28.284C28.319 40.658 28.338 40.613 28.355 40.569ZM28.337 46.449L28.363 46.396C28.373 46.413 28.381 46.431 28.39 46.449H28.337ZM28.363 52.133H28.346C28.346 52.124 28.355 52.124 28.355 52.116C28.363 52.124 28.363 52.124 28.363 52.133ZM28.355 43.571H28.337L28.363 43.518L28.39 43.571H28.355ZM28.355 55.011H28.337L28.363 54.958C28.373 54.975 28.381 54.993 28.39 55.011H28.355Z"/>
<path d="M36.758 40.72C36.81 40.55 37.065 40.374 37.337 40.188C37.723 39.922 38.161 39.612 38.293 39.161L39.24 35.548L39.1 35.513L38.275 38.656C38.222 38.426 38.117 38.186 38.021 37.966L38.082 37.983L38.74 35.398L38.6 35.362L37.968 37.842L37.916 37.735C37.819 37.54 37.706 37.301 37.723 37.248L37.653 37.222L37.723 37.239L38.231 35.247L38.091 35.212L37.582 37.204C37.565 37.257 37.354 37.399 37.196 37.504L37.039 37.611L37.731 35.105L37.591 35.061L36.863 37.717L36.881 37.727C36.7134 37.8478 36.555 37.9808 36.407 38.125L37.223 34.955L37.083 34.919L36.135 38.612C36.012 39.002 36.232 39.479 36.425 39.896C36.574 40.206 36.705 40.506 36.653 40.675L36.758 40.72ZM44.51 41.835C44.29 42.189 44.387 42.72 44.475 43.189C44.536 43.517 44.589 43.836 44.51 43.969L44.641 44.049C44.721 43.915 45.001 43.809 45.291 43.703C45.738 43.535 46.246 43.349 46.466 42.941L48.369 39.691L48.237 39.612L46.606 42.392C46.6102 42.1665 46.5924 41.9411 46.553 41.719L46.606 41.755L47.921 39.391L47.79 39.32L46.527 41.587L46.501 41.437C46.466 41.241 46.421 41.002 46.448 40.958L46.395 40.905L46.457 40.94L47.483 39.099L47.351 39.028L46.334 40.861C46.29 40.896 46.114 40.958 45.948 41.011C45.887 41.029 45.816 41.055 45.746 41.081L46.974 38.886L46.843 38.816L45.536 41.162C45.316 41.242 45.08 41.348 44.886 41.472L46.536 38.594L46.404 38.514L44.51 41.835ZM51.982 47.139C51.675 47.413 51.614 47.944 51.57 48.405C51.535 48.724 51.509 49.025 51.403 49.131L51.456 49.184L51.509 49.237C51.614 49.131 51.912 49.113 52.228 49.095C52.701 49.069 53.236 49.033 53.552 48.724L56.253 46.067L56.148 45.961L53.815 48.254C53.895 48.015 53.92 47.749 53.947 47.493L53.999 47.537L55.824 45.616L55.718 45.509L53.964 47.359C53.964 47.333 53.964 47.316 53.973 47.289C53.991 47.059 54.008 46.775 54.069 46.731L54.026 46.669L54.078 46.722L55.464 45.244L55.359 45.137L53.982 46.607C53.92 46.643 53.702 46.66 53.491 46.678C53.429 46.687 53.368 46.687 53.307 46.696L55.104 44.881L54.999 44.774L53.096 46.696L53.122 46.722C52.9114 46.7446 52.7032 46.7861 52.5 46.846L54.745 44.518L54.64 44.411L52.026 47.121C51.991 47.121 51.982 47.131 51.982 47.139ZM20.462 38.532C20.462 38.523 20.453 38.514 20.453 38.505L19.506 34.84L19.366 34.875L20.164 37.992C20.0238 37.8376 19.868 37.6982 19.699 37.576L19.725 37.566L18.997 34.981L18.857 35.025L19.55 37.461C19.4908 37.4167 19.4293 37.3753 19.366 37.337C19.208 37.23 19.015 37.097 18.997 37.044L18.489 35.132L18.349 35.167L18.857 37.089L18.927 37.071L18.857 37.097C18.875 37.159 18.752 37.407 18.664 37.611C18.655 37.62 18.655 37.638 18.647 37.646L17.98 35.282L17.84 35.327L18.559 37.859C18.454 38.089 18.357 38.337 18.305 38.576L17.48 35.362L17.34 35.397L18.287 39.09C18.427 39.559 18.91 39.878 19.304 40.134C19.55 40.294 19.778 40.444 19.822 40.568L19.892 40.542L19.962 40.515C19.91 40.382 20.042 40.117 20.182 39.825C20.357 39.417 20.585 38.939 20.462 38.532ZM10.165 42.87C10.402 43.304 10.972 43.49 11.419 43.65C11.682 43.738 11.919 43.818 11.998 43.915L12.059 43.871L12.121 43.827C12.041 43.729 12.103 43.42 12.156 43.127C12.243 42.658 12.34 42.127 12.121 41.773L12.068 41.666L10.296 38.443L10.165 38.514L11.709 41.312C11.5299 41.1996 11.3387 41.1076 11.139 41.038L11.174 41.02L9.78802 38.736L9.66502 38.816L10.981 40.985C10.9338 40.9685 10.8871 40.9505 10.841 40.931C10.639 40.861 10.419 40.781 10.375 40.728L9.35802 38.957L9.22602 39.037L10.253 40.807L10.314 40.772L10.253 40.816C10.288 40.878 10.226 41.153 10.183 41.374L10.156 41.48L8.92002 39.258L8.78802 39.328L10.104 41.693L10.112 41.684C10.0632 41.8988 10.0397 42.1187 10.042 42.339L8.40202 39.479L8.27102 39.55L10.165 42.87ZM3.22902 48.714C3.23702 48.724 3.23702 48.714 3.22902 48.714C3.52702 48.98 4.03502 49.024 4.48302 49.06C4.79802 49.086 5.11402 49.113 5.20202 49.22L5.26302 49.175L5.32502 49.131C5.25502 49.033 5.23702 48.768 5.21102 48.484C5.17602 47.997 5.13102 47.395 4.80702 47.059L2.17702 44.402L2.07102 44.509L4.33402 46.793C4.12798 46.7325 3.91614 46.694 3.70201 46.678L1.81702 44.774L1.71102 44.88L3.47402 46.66C3.44802 46.66 3.43002 46.66 3.40402 46.651C3.17602 46.634 2.89502 46.616 2.85102 46.554L2.79102 46.598L2.84302 46.545L1.45702 45.146L1.35202 45.252L2.72902 46.642C2.76402 46.705 2.78102 46.926 2.79902 47.147C2.79902 47.183 2.80802 47.218 2.80802 47.254L1.01002 45.509L0.904015 45.615L2.81602 47.484C2.84302 47.732 2.87802 47.988 2.95602 48.219L0.634015 45.88L0.528015 45.986L3.23002 48.713L3.22902 48.714ZM20.69 16.856C18.077 18.822 16.586 21.213 16.586 21.213C16.586 21.213 19.384 21.089 22.383 19.787C20.796 22.665 20.393 25.489 20.393 25.489C20.393 25.489 22.91 24.214 25.111 21.789C24.821 25.055 25.576 27.783 25.576 27.783C25.576 27.783 27.347 25.605 28.382 22.497C29.426 25.613 31.206 27.783 31.206 27.783C31.206 27.783 31.961 25.064 31.662 21.797C33.882 24.232 36.398 25.498 36.398 25.498C36.398 25.498 35.995 22.665 34.39 19.788C37.39 21.098 40.205 21.222 40.205 21.222C40.205 21.222 38.714 18.831 36.1 16.865C39.354 16.812 41.959 15.767 41.959 15.767C41.959 15.767 39.582 14.191 36.389 13.483C39.38 12.102 41.362 10.073 41.362 10.073C41.362 10.073 38.591 9.59599 35.398 10.243C37.548 7.77199 38.512 5.12399 38.512 5.12399C38.512 5.12399 35.784 5.82399 33.118 7.72699C34.1 4.57499 33.908 1.73299 33.908 1.73299C33.908 1.73299 31.706 3.52199 30.04 6.38199C29.67 3.08799 28.356 0.554993 28.356 0.554993C28.356 0.554993 27.076 3.06999 26.707 6.33699C25.058 3.50399 22.874 1.73299 22.874 1.73299C22.874 1.73299 22.682 4.59299 23.664 7.75399C20.998 5.82399 18.27 5.12399 18.27 5.12399C18.27 5.12399 19.235 7.76299 21.366 10.234C18.174 9.58699 15.42 10.065 15.42 10.065C15.42 10.065 17.402 12.093 20.384 13.465C17.183 14.174 14.832 15.741 14.832 15.741C14.832 15.741 17.436 16.803 20.69 16.856ZM28.356 8.67499C31.575 8.67499 34.206 11.26 34.206 14.501C34.206 17.751 31.575 20.327 28.356 20.327C25.216 20.327 22.585 17.742 22.585 14.501C22.576 11.251 25.207 8.67499 28.355 8.67499H28.356Z"/>
</g>
<defs>
<clipPath id="clip0_1_26">
<rect width="57" height="78" fill="white"/>
</clipPath>
</defs>
</svg>
