<svg width="64" height="59" viewBox="0 0 64 59" xmlns="http://www.w3.org/2000/svg">
<g clip-path="url(#clip0_1_169)">
<path d="M62.584 42.95C62.584 42.95 61.075 41.151 60.48 39.502C59.875 37.852 59.726 36.203 60.024 32.607C60.321 29.01 60.48 24.722 59.142 21.689C58.25 20.061 53.852 16.518 49.901 16.39C45.939 16.252 41.488 17.486 39.991 16.943C38.493 16.401 35.922 14.007 35.147 13.485C34.372 12.975 32.29 11.112 29.677 10.846C27.074 10.57 24.759 11.623 24.281 11.772C24.121 11.815 23.495 11.9 22.709 11.995C22.964 11.559 23.155 11.145 23.239 10.835C28.52 8.74001 36.635 4.82501 36.306 0.738014C36.168 -0.357986 33.778 2.87801 33.194 2.84501C32.609 2.80301 32.949 0.835014 32.578 0.855014C32.206 0.877014 31.027 3.88801 30.634 3.90901C29.784 3.93101 30.74 0.749014 30.156 0.792014C29.571 0.824014 29.232 4.52701 28.392 4.65401C27.808 4.73901 27.819 4.06901 27.479 4.14401C27.139 4.21801 27.139 4.91001 26.703 4.95201C25.386 4.98401 26.353 0.558014 25.524 0.579014C24.696 0.600014 24.218 5.66501 23.432 6.01601C22.656 6.36701 22.869 5.32501 22.072 5.61201C21.265 5.91001 21.775 7.04801 20.606 7.27201C19.449 7.46301 15.763 0.228014 14.871 0.952014C14 1.67501 18.631 6.93201 17.696 7.79301C16.761 8.65501 15.593 5.85701 15.168 5.84601C14.754 5.84601 14.796 6.66601 14.138 6.69701C14.0086 6.62272 13.8735 6.55885 13.734 6.50601C13.022 5.86701 12.003 3.89901 11.387 4.45201C11.037 4.77201 11.833 6.03801 12.704 7.37801C12.672 7.50601 12.587 7.62301 12.396 7.70801C10.876 8.26201 9.42201 5.10101 8.95401 5.43101C8.48701 5.75101 9.62401 7.58101 9.19801 7.88901C8.77401 8.19801 8.37001 8.21901 7.60501 7.88901C6.16101 7.10201 5.44901 4.56901 4.97101 4.81401C4.49301 5.05901 5.37501 6.70801 5.08801 6.91001C4.81201 7.11201 4.15301 6.09001 3.86601 6.24001C3.56901 6.37801 3.91901 7.06001 3.55801 7.23001C3.18601 7.37801 1.34801 5.12301 0.977012 5.61201C0.244013 6.59101 4.47201 9.60201 6.37301 10.464C7.58301 11.007 9.90001 11.784 11.429 12.274C10.739 12.72 9.87901 13.284 9.26201 13.667C8.44401 14.177 5.39601 15.561 4.41901 16.391C3.44101 17.221 2.59201 19.158 2.36901 19.775C2.13501 20.392 1.67901 21.669 2.65501 22.382C3.64301 23.105 4.34501 22.467 4.64201 22.722C4.93901 22.967 4.55701 23.265 5.19401 23.414C5.82101 23.563 6.56401 22.009 7.43501 21.871C8.29501 21.733 8.65701 21.722 8.97501 21.988C9.29401 22.254 9.79301 24.276 10.367 24.67C10.951 25.074 12.3 25.117 12.863 25.266C13.426 25.404 14.966 26.245 15.433 26.149C15.901 26.053 15.625 25.564 16.06 25.372C16.496 25.18 18.694 25.702 19.438 26.362C20.182 27.022 21.966 30.33 22.189 31.107C22.412 31.884 22.38 31.99 23.804 33.374C23.984 33.544 24.207 33.714 24.462 33.874C23.974 35.268 22.646 39.088 22.402 40.088C22.094 41.333 21.786 41.854 21.934 42.333C22.083 42.823 23.188 43.94 23.878 45.026C24.568 46.111 25.238 48.505 25.62 49.506C26.003 50.495 26.183 52.006 26.927 53.123L26.895 53.155C26.895 53.155 26.905 53.145 26.937 53.134C26.9452 53.153 26.956 53.1709 26.969 53.187C26.969 53.187 27.213 55.081 27.649 55.177C28.892 55.177 29.529 52.059 29.147 51.676C28.53 51.08 27.967 50.122 27.967 50.122L28.679 50.102C28.679 50.102 28.339 49.622 27.798 49.005C26.958 48.048 27.585 48.292 26.703 46.579L25.216 43.397C25.216 43.397 25.057 43.067 25.291 42.217C25.524 41.365 25.068 40.747 25.068 40.747C25.068 40.747 25.631 39.152 27.405 36.832C27.798 36.322 28.095 35.874 28.318 35.492C29.274 35.864 30.038 36.204 30.198 36.566C30.644 37.524 32.153 43.802 32.269 44.728C32.376 45.653 33.098 46.494 33.14 47.303C33.172 48.111 33.46 51.314 33.183 52.708C32.907 54.102 32.939 55.453 32.535 56.007C32.535 56.007 32.408 56.124 32.238 56.305C32.195 56.315 32.174 56.315 32.174 56.315L32.206 56.326C31.802 56.762 31.165 57.518 31.346 57.869C31.643 58.263 34.468 58.22 34.967 57.954C35.159 57.784 35.084 56.315 35.159 55.922C35.233 55.528 35.307 54.985 35.307 54.985L35.668 55.762C35.668 55.762 35.828 55.028 35.913 54.442C36.019 53.666 35.69 52.825 35.69 52.825C35.69 52.825 35.276 49.75 35.18 48.271C35.02 45.749 35.042 39.992 35.042 39.407C35.042 38.811 35.318 37.173 35.435 36.609C35.541 36.055 35.35 33.821 35.35 33.821C35.35 33.821 35.807 34.597 35.658 35.374C36.497 35.928 37.75 35.183 38.228 35.183C38.706 35.183 40.533 34.672 41.224 34.715C41.596 34.735 43.157 34.363 44.612 33.991C45.94 35.066 48.468 37.524 48.755 40.695C49.296 45.005 44.538 52.421 43.083 53.975C43.03 53.985 42.148 55.07 42.148 55.07C42.148 55.07 39.918 56.57 40.831 56.975C41.755 57.379 44.771 57.22 45.005 56.985C45.25 56.752 44.984 54.985 45.409 54.719C45.526 54.613 46.503 54.751 46.705 54.517C47.31 51.559 52.09 41.663 52.196 41.217C52.302 40.769 51.708 40.387 51.559 39.897C51.474 39.588 51.92 37.587 52.271 36.14C53.035 36.758 53.598 37.151 54.236 37.662C55.596 38.769 59.462 42.632 60.195 45.196C60.928 47.76 61.395 51.506 61.395 51.506C61.395 51.506 60.258 54.379 60.248 54.517C60.248 54.655 60.099 54.826 60.099 54.826C60.099 54.826 59.759 55.134 59.334 55.592C58.708 56.272 57.922 57.262 57.869 57.986C57.889 58.22 59.229 58.348 62.181 57.369C62.521 57.209 62.701 55.794 62.744 55.581C62.797 55.368 62.627 54.996 62.595 54.751C62.553 54.506 62.595 53.602 62.595 53.602C62.595 53.602 63.265 54.294 63.721 52.644C64.146 50.995 62.584 42.95 62.584 42.95Z"/>
</g>
<defs>
<clipPath id="clip0_1_169">
<rect width="64" height="59" fill="white"/>
</clipPath>
</defs>
</svg>
