<svg width="80" height="80" viewBox="0 0 80 80" xmlns="http://www.w3.org/2000/svg">
<g clip-path="url(#clip0_1_195)">
<path d="M78.722 67.59C78.742 67.474 78.78 67.116 78.712 66.642C78.6734 66.5115 78.6056 66.3914 78.5138 66.291C78.422 66.1905 78.3086 66.1122 78.182 66.062C78.249 65.946 78.365 65.685 78.23 65.423C77.816 64.591 77.305 64.746 77.054 64.833C76.823 64.833 76.553 64.872 76.215 64.93C76.215 64.92 76.215 64.91 76.205 64.891C75.984 63.914 75.001 62.047 73.67 61.931C73.651 61.931 73.632 61.931 73.622 61.921C73.372 61.834 73.121 61.921 72.87 62.008L72.803 62.028L72.813 62.038C72.764 62.048 72.725 62.067 72.677 62.076C72.34 62.183 72.022 62.289 71.694 62.163C71.53 62.096 71.424 61.999 71.395 61.893C71.3842 61.8462 71.3838 61.7976 71.3938 61.7506C71.4038 61.7036 71.424 61.6593 71.453 61.621C71.492 61.611 71.52 61.611 71.52 61.611C71.53 61.611 71.54 61.602 71.54 61.602L72.195 61.525V61.486C72.195 61.476 72.273 60.635 71.28 60.383C70.884 60.286 70.71 60.315 70.537 60.354C70.277 60.403 70.007 60.451 68.957 60.064C68.012 59.658 66.874 57.926 65.871 56.388C65.081 55.178 64.396 54.144 63.905 53.853C63.394 53.602 63.028 53.902 62.632 54.231C62.131 54.647 61.562 55.131 60.531 54.501C59.49 53.892 59.258 52.209 59.008 50.419C58.805 48.919 58.583 47.372 57.898 46.211C57.477 45.5277 57.0269 44.8628 56.549 44.218C56.539 44.208 56.539 44.198 56.529 44.198L56.52 44.179C55.855 43.299 55.103 42.439 54.255 41.751C54.495 41.597 54.775 41.451 54.882 41.451C54.978 41.451 55.19 41.587 55.412 41.732C55.711 41.926 56.048 42.138 56.318 42.177C56.366 42.187 56.424 42.187 56.482 42.187C56.722 42.187 57.06 42.119 57.388 42.051C57.668 41.993 57.928 41.935 58.092 41.935H58.102C58.256 41.897 58.41 41.955 58.583 42.032C58.767 42.1 58.969 42.177 59.21 42.177C59.73 42.177 60.694 41.722 61.07 41.529C61.08 41.529 61.1 41.519 61.119 41.519C61.176 41.529 61.244 41.529 61.302 41.529V41.461C61.986 41.287 63.374 40.968 63.876 41.045C64.059 41.045 64.252 41.084 64.454 41.123L64.782 41.181C64.792 41.191 64.802 41.191 64.811 41.2L64.821 41.19C65.042 41.22 65.283 41.239 65.563 41.21C65.919 41.17 66.488 40.852 67.038 40.552C67.626 40.222 68.243 39.884 68.522 39.923C68.744 39.962 69.052 40.049 69.39 40.136C69.795 40.242 70.22 40.358 70.537 40.406C71.183 40.406 72.127 39.942 72.167 39.913L72.301 39.846L72.147 39.826C72.127 39.826 70.065 39.497 69.679 39.188C69.669 39.178 69.669 39.178 69.66 39.178C69.698 39.091 70.287 38.985 70.576 38.936C71.029 38.849 71.096 38.84 71.096 38.772C71.096 38.723 71.038 38.704 71.029 38.704C70.903 38.675 70.373 38.424 69.814 38.162C68.937 37.756 67.944 37.292 67.645 37.243C67.395 37.243 67.135 37.292 66.874 37.34C66.546 37.398 66.228 37.456 65.968 37.408C65.775 37.34 65.611 37.185 65.438 37.021C65.206 36.789 64.936 36.537 64.512 36.441C64.126 36.344 63.712 36.441 63.374 36.528C63.144 36.586 62.95 36.634 62.825 36.605H62.815C62.719 36.605 62.507 36.44 62.305 36.275C62.054 36.073 61.765 35.85 61.543 35.802C61.08 35.724 60.27 36.072 60.164 36.122C60.039 36.112 59.017 36.053 58.554 36.208C58.265 36.305 57.928 36.721 57.629 37.098C57.426 37.35 57.234 37.592 57.099 37.659H57.041V37.669C56.9222 37.6787 56.8028 37.6787 56.684 37.669C56.308 37.649 55.797 37.63 55.392 37.911C53.995 39.188 53.165 39.343 52.674 39.439C52.539 39.469 52.443 39.488 52.346 39.517C52.056 39.662 51.806 40.049 51.633 40.349C51.6123 40.3594 51.5928 40.3722 51.575 40.387C51.4669 40.3591 51.3574 40.3368 51.247 40.32C49.734 40.078 46.88 40.494 44.21 41.026L43.815 40.194C43.805 40.174 43.245 38.162 42.764 37.282C42.6648 37.0567 42.5747 36.8276 42.494 36.595C42.368 36.257 42.253 35.947 42.07 35.667C42.4317 35.6453 42.7903 35.5866 43.14 35.492L43.188 35.482L43.178 35.434C43.158 35.357 42.687 33.48 42.128 32.677C41.674 32.097 40.18 30.568 39.611 29.987L39.66 29.978L39.554 29.92L39.409 29.775C39.3382 29.5379 39.2867 29.2954 39.255 29.05C39.255 29.001 39.245 28.953 39.245 28.914V28.856H39.235C39.2238 28.714 39.2272 28.5713 39.245 28.43C39.303 27.966 40.122 26.534 40.614 25.683C40.797 25.363 40.942 25.113 41.009 24.986C41.086 24.87 41.173 24.686 41.269 24.464C41.395 24.619 41.511 24.735 41.588 24.764C41.713 24.832 41.915 24.88 42.147 24.938C42.523 25.025 42.947 25.132 43.178 25.325C43.487 25.635 44.219 26.215 44.48 26.302C44.682 26.38 45.01 26.428 45.29 26.428C45.511 26.428 45.694 26.398 45.781 26.35C45.829 26.321 45.839 26.283 45.839 26.263C45.839 26.089 45.589 25.847 45.347 25.606C45.2303 25.5036 45.1238 25.3901 45.029 25.267L45.019 25.257C44.904 25.18 44.739 24.851 44.605 24.561C44.47 24.281 44.345 24.009 44.219 23.893C44.094 23.768 43.911 23.603 43.737 23.448C43.564 23.294 43.381 23.129 43.246 23.003C43.14 22.936 42.87 22.578 42.619 22.21C43.449 21.94 45.473 21.523 46.6 21.32H46.62L46.668 21.33C46.668 21.33 46.736 21.34 46.851 21.34C47.266 21.34 48.288 21.243 48.808 20.343C48.8874 20.2004 48.946 20.0472 48.982 19.888C49.406 19.821 50.013 19.676 50.872 19.395C51.402 19.202 52.491 18.515 53.648 17.789C54.197 17.441 54.766 17.083 55.277 16.773C55.325 16.957 55.392 17.112 55.479 17.209C55.605 17.363 55.749 17.596 55.894 17.828C56.202 18.331 56.53 18.863 56.877 18.921C57.34 18.921 61.022 18.679 61.379 18.601C61.524 18.592 61.678 18.253 62.006 17.499C62.179 17.093 62.42 16.541 62.506 16.512C62.642 16.483 62.921 16.561 63.191 16.638C63.326 16.677 63.461 16.715 63.596 16.744C63.808 16.793 64.001 16.812 64.126 16.754C64.502 16.599 66.411 15.796 66.604 15.709L67.809 16.029L67.829 16.019C67.848 16.029 67.867 16.029 67.876 16.029C67.944 16.029 68.011 15.989 68.05 15.893L70.373 14.655L71.569 14.819L73.583 14.336L73.564 14.239C73.42 14.249 70.017 14.481 69.689 14.645C69.554 14.703 69.342 14.81 69.091 14.935C68.609 15.177 68.001 15.477 67.693 15.535C67.491 15.535 67.231 15.429 66.98 15.322C66.652 15.187 66.305 15.042 66.074 15.139C65.939 15.168 65.727 15.313 65.466 15.496C65.071 15.767 64.58 16.096 64.146 16.193C63.712 16.29 63.24 16.116 62.902 15.99C62.662 15.903 62.488 15.835 62.372 15.874L62.362 15.884C62.131 16.038 61.909 16.512 61.678 17.006C61.514 17.363 61.321 17.76 61.148 17.973C61.0975 17.9791 61.0488 17.9962 61.0055 18.0229C60.9622 18.0497 60.9252 18.0855 60.897 18.128C60.107 18.089 59.297 18.205 58.632 18.292C58.034 18.37 57.522 18.447 57.253 18.37C57.233 18.37 57.214 18.36 57.195 18.35C57.157 18.224 57.07 18.128 56.925 18.128C56.8951 18.13 56.8658 18.1367 56.838 18.148C56.395 17.789 55.884 17.112 55.768 16.628C55.758 16.59 55.739 16.561 55.73 16.522C56.26 16.222 56.713 15.98 57.022 15.883C57.302 15.787 57.774 15.642 58.265 15.487C60.039 14.945 60.665 14.723 60.665 14.548V14.529C60.608 14.355 60.058 14.403 59.605 14.471C60.222 14.219 61.061 13.842 61.061 13.649V13.639L61.051 13.629C60.993 13.523 60.666 13.6 59.644 13.929C59.364 14.016 59.056 14.113 58.892 14.152C59.046 14.055 59.364 13.891 59.634 13.755C60.531 13.3 60.945 13.068 60.887 12.904C60.781 12.701 60.319 12.914 59.577 13.281C59.326 13.407 59.007 13.561 58.834 13.62C60.097 12.914 60.56 12.556 60.492 12.343C60.4842 12.3182 60.467 12.2973 60.444 12.285C60.347 12.246 60.174 12.333 59.769 12.527C59.162 12.827 58.246 13.262 57.465 13.204C57.55 13.1215 57.6367 13.0408 57.725 12.962C58.159 12.575 58.506 12.236 58.515 12.033C58.516 12.0137 58.5132 11.9944 58.5067 11.9762C58.5001 11.958 58.4901 11.9413 58.477 11.927C58.333 11.782 58.072 11.975 57.87 12.13C57.803 12.178 57.745 12.227 57.706 12.246L57.696 12.256C57.667 12.285 57.523 12.333 57.398 12.382C57.166 12.469 56.916 12.556 56.809 12.662C56.617 12.855 56.289 13.417 56.029 13.872C55.9697 13.9813 55.9053 14.0878 55.836 14.191C55.026 14.781 53.754 14.974 52.636 15.138C52.124 15.216 51.642 15.284 51.276 15.39C50.206 15.7 48.23 16.967 48.066 17.083H48.027C47.9357 16.9873 47.828 16.9087 47.709 16.851C47.237 16.59 46.591 16.773 46.147 17.035C46.07 17.083 45.82 17.238 45.791 17.354C45.714 17.334 45.646 17.305 45.579 17.286C45.328 17.189 45.097 17.102 44.47 17.247C44.065 17.247 42.436 17.692 42.301 17.731C41.935 17.731 41.53 17.644 41.067 17.547C40.8232 17.496 40.5789 17.4476 40.334 17.402C40.286 16.299 40.132 13.146 39.862 12.594C39.544 12.004 39.072 11.54 38.676 11.211C38.715 10.659 38.744 9.121 38.001 8.705L37.953 8.676L37.933 8.734C37.915 8.792 37.886 8.85101 37.866 8.90901L37.481 9.412C36.97 9.857 36.305 9.915 36.295 9.915L36.141 9.925L36.17 9.94401C35.4883 9.79047 34.779 9.81042 34.107 10.002C34.087 10.012 34.049 10.022 34.001 10.04C33.606 10.176 32.391 10.582 32.314 11.82C32.314 11.898 32.314 11.975 32.324 12.043V12.063C32.362 12.594 32.516 12.981 32.68 13.233L32.69 13.243C32.7 13.262 32.709 13.271 32.719 13.291C32.844 13.465 32.959 13.571 33.037 13.591V13.842C33.037 13.862 32.998 13.9 32.969 13.929C32.921 13.978 32.873 14.026 32.873 14.084V15.525C32.873 15.555 32.796 16.261 32.873 16.512C32.94 16.725 33.133 16.735 33.239 16.706C33.287 16.754 33.365 16.802 33.461 16.86C33.5578 16.9039 33.6627 16.9271 33.769 16.928L33.837 17.567H33.807C33.258 17.586 31.793 17.634 31.581 17.567C31.485 17.499 31.224 17.218 30.945 16.919C30.53 16.474 30.019 15.912 29.74 15.719C29.402 15.449 28.583 15.022 28.303 14.877C28.342 14.848 28.371 14.839 28.371 14.829L28.409 14.809L28.399 14.771C28.38 14.703 27.812 13.204 26.905 13.291C26.877 13.291 26.799 13.339 26.703 13.426C26.636 13.097 26.356 11.676 26.076 10.834C25.98 10.534 25.758 9.992 25.517 9.373C24.987 7.951 24.245 6.093 24.245 5.561C24.283 5.378 24.505 4.981 24.717 4.604C24.967 4.149 25.209 3.714 25.209 3.549C25.247 3.375 25.199 3.239 25.132 3.056C25.035 2.795 24.891 2.408 24.891 1.605V1.585L24.881 1.575C24.785 1.479 24.707 1.489 24.659 1.508C24.331 1.643 24.312 3.066 24.312 3.375C24.302 3.385 24.293 3.414 24.264 3.414C24.216 3.414 24.042 3.346 23.676 2.398C23.4738 1.86353 23.3753 1.29537 23.386 0.724004C23.386 0.444004 23.377 0.279004 23.233 0.279004C23.2001 0.278541 23.1675 0.285281 23.1374 0.298755C23.1073 0.312228 23.0806 0.332109 23.059 0.357004C22.885 0.560004 22.992 1.14 23.079 1.653C23.117 1.885 23.175 2.195 23.155 2.273C22.895 1.953 22.895 1.353 22.905 0.870004C22.905 0.492004 22.905 0.221004 22.799 0.125004C22.76 0.0950043 22.722 0.0860043 22.683 0.0950043C22.6427 0.0968939 22.6046 0.114476 22.577 0.144004C22.413 0.318004 22.413 0.966004 22.452 1.731C22.375 1.015 22.307 0.511004 22.182 0.434004C22.162 0.424004 22.134 0.414004 22.114 0.424004C22.085 0.424004 22.056 0.444004 22.037 0.464004C21.912 0.608004 21.96 1.16 22.037 1.992C22.076 2.359 22.124 2.814 22.095 2.92C21.796 2.853 21.748 2.34 21.7 1.837C21.661 1.421 21.623 1.034 21.42 0.908004C21.372 0.888004 21.333 0.888004 21.295 0.928004C21.054 1.15 21.295 3.046 21.43 3.385C21.517 3.646 21.71 3.945 21.893 4.217C22.047 4.459 22.201 4.691 22.24 4.836C22.307 5.087 22.326 5.716 22.336 6.509C22.384 9.209 22.481 14.103 24.881 16.009C24.785 16.319 24.746 16.638 24.814 16.929C25.218 18.069 25.864 18.244 25.894 18.244L25.942 18.254L25.952 18.205L25.999 18.021C26.424 18.611 26.915 19.114 27.156 19.356C27.359 19.559 27.754 19.85 28.206 20.188C28.959 20.749 29.894 21.436 30.039 21.843C30.145 22.123 30.173 22.443 30.202 22.82C30.241 23.313 30.289 23.864 30.521 24.503C30.646 24.967 30.848 25.499 31.08 26.06C31.514 27.154 31.986 28.363 32.063 29.591V29.611C32.083 29.891 32.073 30.171 32.043 30.452C31.957 30.491 31.88 30.539 31.813 30.578C31.591 30.801 30.887 31.207 29.981 31.536L29.951 31.546C29.6924 31.4911 29.4383 31.4166 29.191 31.323C29.0597 31.2715 28.9237 31.2327 28.785 31.207C28.554 31.207 28.072 31.255 27.609 31.313C27.821 31.226 28.024 31.12 28.169 30.965C28.554 30.578 29.99 29.823 30.203 29.765L30.28 29.852V29.678L30.26 29.668C29.99 29.378 28.882 29.562 27.667 29.794C27.397 29.843 27.166 29.891 27.021 29.91C26.549 29.91 25.508 29.998 24.987 30.046C25.488 29.833 26.501 29.398 26.799 29.282C27.127 29.117 27.985 28.102 28.024 28.062L28.304 27.734L27.966 27.995C27.956 27.995 27.33 28.469 26.944 28.547C26.79 28.576 26.51 28.527 26.192 28.469C25.739 28.392 25.17 28.285 24.688 28.382C24.178 28.488 23.464 28.75 23.011 28.933C23.377 28.682 23.994 28.295 24.717 27.908C25.758 27.415 26.134 27.482 26.192 27.502C26.202 27.502 26.202 27.512 26.212 27.512L26.25 27.424C26.25 27.424 26.24 27.424 26.23 27.414C26.221 27.414 26.221 27.414 26.211 27.405C26.192 27.395 26.173 27.395 26.144 27.385C26.119 27.3741 26.0932 27.3647 26.067 27.357C26.057 27.347 26.037 27.347 26.019 27.337C25.98 27.327 25.942 27.308 25.893 27.299C25.826 27.279 25.749 27.25 25.672 27.231C25.614 27.211 25.546 27.192 25.479 27.173H25.469C24.91 27.008 24.187 26.843 23.811 26.941C23.31 26.999 23.001 27.27 22.77 27.473C22.6939 27.5462 22.6101 27.6109 22.52 27.666C22.0969 27.7444 21.6642 27.7575 21.237 27.705C21.449 27.647 21.748 27.57 21.902 27.521H21.912L21.922 27.511C22.047 27.386 23.117 26.834 23.512 26.631L23.637 26.563L23.503 26.534C23.493 26.534 23.463 26.524 23.416 26.515C22.8862 26.4079 22.3525 26.3208 21.816 26.254C21.623 26.234 21.459 26.215 21.333 26.215C21.2822 26.2053 21.2299 26.2053 21.179 26.215C20.794 26.264 20.292 26.612 19.869 26.912L19.781 26.97C19.579 27.105 19.415 27.221 19.299 27.27C19.0866 27.3255 18.8708 27.3672 18.653 27.395C18.133 27.473 17.545 27.57 17.265 27.84C16.985 28.12 16.398 28.866 16.06 29.291C15.385 29.427 14.132 30.152 12.821 30.926C11.578 31.652 10.295 32.396 9.38003 32.726L9.33103 32.745C9.22503 32.784 9.12903 32.813 9.03203 32.842C8.92453 32.869 8.81525 32.8884 8.70503 32.9H8.68503L8.67503 32.91C8.65703 32.92 8.63703 32.939 8.61803 32.958C8.57903 32.987 8.52203 33.006 8.46403 33.035C8.35621 33.0896 8.25015 33.1476 8.14603 33.209C8.07803 33.248 8.00103 33.277 7.92403 33.316C7.36403 33.586 6.73803 33.886 6.58403 34.206C6.38103 34.506 6.36203 34.689 6.34303 34.873C6.33303 34.989 6.31303 35.105 6.25603 35.26C6.21803 35.338 6.15003 35.425 6.08303 35.521C5.91903 35.744 5.73603 36.005 5.79303 36.218C5.82303 36.324 5.89903 36.402 6.03403 36.46C6.33403 36.605 6.89203 36.45 7.49003 36.276C8.05003 36.111 8.62803 35.947 8.86903 36.092C8.92819 36.1332 8.96934 36.1954 8.98403 36.266C9.07103 36.76 8.27103 36.905 7.62503 37.031C7.15303 37.118 6.76703 37.185 6.73803 37.379C6.70903 37.543 6.77703 37.746 6.95003 37.93C7.18203 38.191 7.64403 38.453 8.24203 38.404C8.62803 38.365 9.13903 38.056 9.67803 37.727C9.98703 37.533 10.324 37.34 10.652 37.176C10.729 37.263 10.797 37.35 10.845 37.408C10.903 37.524 10.951 37.678 10.999 37.843C11.086 38.133 11.173 38.443 11.346 38.549C11.664 38.791 12.706 39.12 13.216 39.207C13.467 39.246 13.776 39.478 14.065 39.7C14.335 39.904 14.585 40.087 14.807 40.165H14.817C15.675 40.223 16.34 39.894 16.88 39.633C17.15 39.497 17.38 39.391 17.555 39.362C17.785 39.362 18.017 39.401 18.258 39.449C18.422 39.478 18.586 39.507 18.76 39.526C19.617 41.732 20.543 44.673 20.716 45.514C20.379 45.998 20.09 46.956 19.916 48.059C19.589 48.31 19.347 48.823 19.347 49.394C19.347 49.877 19.521 50.332 19.781 50.613C19.82 51.328 19.936 52.006 20.148 52.557C20.321 53.089 20.524 53.573 20.745 54.008C19.357 54.376 17.458 54.946 16.947 55.411C16.7733 55.5684 16.6062 55.7328 16.446 55.904C16.128 56.234 16.07 56.291 15.202 56.533C14.846 56.639 14.556 56.707 14.306 56.765C13.756 56.901 13.39 56.988 12.946 57.259C12.493 57.462 12.011 57.849 11.443 58.303C11.095 58.574 10.71 58.893 10.286 59.193C9.55303 59.716 8.32903 59.938 7.33603 60.113C6.80603 60.209 6.34303 60.286 6.03403 60.403C5.28203 60.703 4.87803 61.486 4.81003 61.621C4.05902 61.879 3.32201 62.1761 2.60203 62.511C2.57403 62.511 2.55403 62.501 2.52503 62.501H2.50603L2.48603 62.511C1.90803 62.801 1.28203 63.189 0.896028 63.576C0.694028 63.769 0.559028 63.972 0.530028 64.156C0.526086 64.1852 0.528323 64.2149 0.536592 64.2431C0.544862 64.2714 0.558979 64.2976 0.578028 64.32C0.588028 64.34 0.607028 64.35 0.626028 64.369C0.935028 64.62 2.07203 64.698 3.04603 64.698C3.81703 64.698 4.50203 64.649 4.60803 64.62C4.61803 64.62 4.62703 64.61 4.63703 64.61C4.81003 64.524 4.99303 64.204 5.18603 63.808C5.42703 63.343 5.63903 62.84 5.67803 62.753C5.87003 62.376 6.60303 62.25 6.84403 62.221L6.61303 62.841L6.67103 62.851C6.72803 62.86 8.06803 63.169 8.63703 62.686C8.88703 62.511 9.05203 62.241 9.23503 61.97C9.46603 61.602 9.70703 61.225 10.16 61.002C10.671 60.742 11.828 60.654 12.754 60.577C13.274 60.538 13.718 60.499 14.007 60.441C14.364 60.364 14.614 60.045 14.894 59.716C15.202 59.338 15.52 58.952 16.022 58.826C16.456 58.681 17.429 58.69 18.355 58.729C18.104 59.039 17.853 59.349 17.497 59.629C17.072 60.054 15.53 60.867 14.508 61.399C13.978 61.679 13.592 61.883 13.477 61.96C13.332 62.105 13.187 62.299 13.033 62.53C12.918 62.686 12.802 62.85 12.677 63.014C12.513 63.179 12.223 63.256 11.857 63.363C11.539 63.45 11.173 63.547 10.767 63.73C10.189 64.02 9.36003 64.93 9.09003 65.51C9.02303 65.646 8.98403 65.762 8.99403 65.849C8.99403 65.926 9.03203 65.975 9.07103 65.994L9.08103 66.004C9.11003 66.014 9.15803 66.024 9.21603 66.033C9.38903 66.062 9.66903 66.081 10.006 66.081C11.056 66.081 12.657 65.936 13.265 65.588C13.3055 65.5653 13.344 65.5393 13.38 65.51C13.477 65.4608 13.5649 65.3956 13.64 65.317C13.752 65.22 13.8327 65.0919 13.872 64.949C13.872 64.939 13.882 64.929 13.882 64.929L13.911 64.872H13.881C13.891 64.775 13.871 64.688 13.862 64.601C13.843 64.485 13.833 64.379 13.882 64.281C13.93 64.137 14.45 63.904 14.817 63.779C14.759 64.059 14.691 64.466 14.768 64.543C14.874 64.649 15.52 64.378 15.838 64.233C15.858 64.233 15.868 64.223 15.878 64.214C15.954 64.185 16.002 64.156 16.022 64.146C16.032 64.146 16.041 64.136 16.051 64.136C16.195 64.069 16.359 63.769 16.639 63.266C16.947 62.715 17.314 62.037 17.709 61.689C17.767 61.641 17.824 61.602 17.882 61.563C18.509 61.167 19.347 60.925 20.331 60.644C20.726 60.528 21.141 60.412 21.574 60.277C22.201 60.035 22.625 59.571 22.963 59.193C23.194 58.942 23.396 58.719 23.58 58.661C23.801 58.565 24.823 58.351 26.009 58.11C26.183 58.071 26.356 58.042 26.539 58.003C27.233 57.858 27.927 57.713 28.544 57.578C28.631 57.588 28.718 57.598 28.804 57.616C27.127 57.81 25.633 58.196 24.843 58.971C24.438 59.368 24.226 59.851 24.226 60.403C24.226 62.212 25.701 63.595 26.78 64.369C25.71 64.369 24.785 64.379 24.254 64.389H23.869C22.172 64.389 21.073 64.679 20.697 65.22C20.206 66.042 20.447 66.536 20.457 66.555L20.533 66.7L20.553 66.536C20.553 66.526 20.563 66.449 20.61 66.352L22.346 66.023C23.166 66.323 24.013 66.943 24.659 67.416C24.804 67.522 24.939 67.619 25.064 67.706C26.221 68.442 27.32 68.876 28.534 69.08C28.564 69.08 28.66 69.1 28.814 69.128C27.378 69.622 25.758 70.608 25.758 72.582C25.758 75.445 27.658 77.525 31.418 78.754C34.588 79.789 37.876 79.808 38.021 79.808H44.133C44.239 79.798 44.373 79.798 44.537 79.789C45.029 79.769 45.743 79.741 46.543 79.712C49.984 79.586 51.324 79.528 51.835 79.46H51.874C51.922 79.45 51.951 79.45 51.989 79.44C52.115 79.412 52.144 79.392 52.144 79.363C52.144 79.044 51.295 78.589 49.763 78.589C49.522 78.599 49.184 78.609 48.76 78.629C48.095 77.825 46.716 77.806 45.685 77.864L45.617 77.796C45.116 77.293 43.959 76.471 41.887 76.655H41.857C41.761 76.103 41.096 75.726 39.862 75.532C39.862 75.397 39.804 75.01 39.206 74.41C39.043 74.246 38.706 74.14 38.281 74.062L38.368 74.004C38.503 73.869 38.56 73.617 38.503 73.394C38.406 72.853 38.253 72.659 37.221 72.553C37.731 72.523 37.982 72.456 38.098 72.33C38.214 72.205 38.204 72.04 38.185 71.866C38.175 71.827 38.175 71.798 38.165 71.76L38.136 71.653C38.126 71.633 38.126 71.615 38.117 71.605C38.03 71.411 37.809 71.237 37.192 71.112C37.683 71.092 38.011 71.034 38.223 70.899C38.2693 70.8687 38.3116 70.8328 38.349 70.792C38.522 70.599 38.561 70.299 38.522 69.854C38.609 69.844 38.705 69.844 38.792 69.834C40.652 69.651 41.973 69.206 43.034 68.857C43.824 68.597 44.509 68.374 45.222 68.307C46.359 68.132 57.041 68.248 64.117 68.326C66.999 68.355 69.497 68.384 70.605 68.384C72.629 68.344 74.875 68.412 76.515 68.461C78.645 68.529 79.107 68.529 79.165 68.431C79.262 67.851 78.857 67.648 78.722 67.591V67.59ZM71.174 63.875C71.549 64.04 71.627 64.224 71.714 64.437C71.781 64.611 71.868 64.804 72.128 64.997L72.138 65.007C72.215 65.037 72.301 65.075 72.388 65.104C71.116 65.134 69.554 65.172 67.828 65.201C67.8587 65.1921 67.888 65.179 67.915 65.162H67.925L67.935 65.152C68.011 65.046 68.011 64.901 67.954 64.717C67.934 64.669 67.915 64.611 67.896 64.553C67.529 63.73 66.266 62.453 65.717 62.202C65.6995 62.191 65.6796 62.1842 65.659 62.182C65.544 62.124 65.36 62.105 65.158 62.124C64.955 62.134 64.743 62.164 64.512 62.202C63.934 62.289 63.336 62.376 62.941 62.115C62.902 62.076 62.902 62.057 62.902 62.057C62.941 61.989 63.374 61.979 63.866 62.037L63.992 62.057L63.905 61.96C63.866 61.921 62.999 60.973 62.584 60.973C62.5221 60.9691 62.4601 60.9783 62.4021 61C62.344 61.0217 62.2912 61.0554 62.247 61.099C62.141 61.177 62.035 61.264 61.63 61.215C60.974 61.167 59.77 59.571 58.901 58.294C60.501 58.255 63.548 58.284 64.271 58.41C64.772 58.536 66.035 59.851 67.269 61.128C68.378 62.279 69.429 63.372 69.891 63.566C70.411 63.779 70.528 63.769 70.634 63.759C70.72 63.74 70.807 63.729 71.174 63.875ZM39.467 57.268C42.368 56.823 44.248 55.827 45.367 55.237C45.675 55.072 45.916 54.947 46.119 54.859C46.129 55.633 46.263 56.794 46.842 57.849C43.9504 57.7249 41.058 57.6182 38.165 57.529C38.599 57.452 39.033 57.374 39.467 57.268ZM11.5 36.876C16.735 37.814 17.082 37.136 17.217 36.876L17.237 36.837C17.256 36.837 17.314 36.876 17.42 36.943C17.641 37.079 17.969 37.708 18.345 38.578C18.008 38.617 17.728 38.608 17.525 38.608C17.342 38.608 17.207 38.598 17.121 38.627C16.976 38.656 16.802 38.762 16.61 38.887C16.263 39.11 15.829 39.381 15.376 39.275C14.903 39.178 14.634 38.975 14.383 38.791C14.209 38.665 14.055 38.54 13.853 38.471C13.573 38.395 13.216 38.375 12.879 38.346C12.541 38.326 12.214 38.307 12.021 38.23C11.905 38.143 11.731 37.862 11.539 37.572C11.404 37.369 11.269 37.156 11.134 36.972C11.25 36.924 11.375 36.895 11.5 36.876ZM36.498 64.408C37.105 64.175 37.578 63.895 37.722 63.518C37.744 63.4521 37.7568 63.3834 37.76 63.314C37.77 63.111 37.693 62.879 37.529 62.647C38.089 62.502 38.291 62.124 38.454 61.302C39.274 61.167 39.592 60.819 40.199 60.18C40.701 60.132 41.106 60.054 41.327 59.928C41.983 59.6 42.513 59.145 42.879 58.778C43.776 58.806 44.615 58.835 45.319 58.855C45.714 58.865 46.07 58.884 46.369 58.893C46.793 58.903 47.169 58.893 47.507 58.864C47.574 59.048 47.671 59.222 47.806 59.368C48.008 59.59 48.288 59.696 48.625 59.696H48.712C48.962 59.648 49.039 59.319 49.126 58.971C49.156 58.835 49.194 58.691 49.242 58.565C50.1243 59.3985 51.212 59.9827 52.394 60.258C54.554 60.712 55.604 60.625 56.444 60.567C56.964 60.528 57.417 60.49 58.014 60.587C59.239 60.789 60.135 61.96 60.858 62.898C61.263 63.421 61.61 63.875 61.928 64.05C62.305 64.282 62.68 64.204 63.076 64.127C63.394 64.059 63.731 63.992 64.116 64.059C64.396 64.108 64.724 64.311 65.1 64.553C65.515 64.813 65.977 65.104 66.498 65.249C57.995 65.414 46.533 65.597 45.251 65.501C43.024 65.346 38.791 64.621 37.857 64.456C37.587 64.407 37.086 64.407 36.497 64.407L36.498 64.408Z"/>
</g>
<defs>
<clipPath id="clip0_1_195">
<rect width="80" height="80" fill="white"/>
</clipPath>
</defs>
</svg>
