<svg width="72" height="78" viewBox="0 0 72 78" xmlns="http://www.w3.org/2000/svg">
<g clip-path="url(#clip0_1_55)">
<path d="M35.946 0.679993C35.946 0.679993 32.672 0.999993 32.456 4.08599C32.139 7.27399 35.096 47.447 35.096 47.447C35.096 47.447 28.535 20.027 14.79 16.52C10.982 16.201 10.348 19.39 10.348 19.39C10.348 19.39 9.81498 22.26 13.305 22.578C27.265 24.172 35.615 52.128 35.095 57.114C33.623 53.504 22.835 28.1 7.49198 27.998C0.41198 28.317 0.829979 32.143 0.829979 32.143C0.930979 35.867 5.37298 35.433 5.37298 35.433C34.36 38.52 35.096 72.1 35.096 72.1V77.2H36.784V72.1C36.784 72.1 37.52 38.52 66.505 35.434C66.505 35.434 70.947 35.855 71.049 32.144C71.049 32.144 71.467 28.318 64.386 27.999C49.056 27.999 38.269 53.506 36.784 57.115C36.264 52.115 44.614 24.173 58.574 22.579C62.064 22.26 61.531 19.391 61.531 19.391C61.531 19.391 60.896 16.202 57.089 16.521C43.345 19.926 36.784 47.448 36.784 47.448C36.784 47.448 39.741 7.17299 39.424 4.08699C39.22 0.998992 35.946 0.679993 35.946 0.679993Z"/>
</g>
<defs>
<clipPath id="clip0_1_55">
<rect width="72" height="78" fill="white"/>
</clipPath>
</defs>
</svg>
