<svg width="83" height="69" viewBox="0 0 83 69" xmlns="http://www.w3.org/2000/svg">
<g clip-path="url(#clip0_1_201)">
<path d="M13.755 26.12C13.673 26.12 12.989 24.93 13.245 24.34C13.5 23.832 14.265 23.496 14.858 22.896C15.45 22.306 16.472 20.353 16.982 19.926C17.319 19.59 17.922 19.336 17.922 19.336C17.922 19.336 17.492 17.81 18.862 17.22C20.393 16.539 20.312 18.827 21.415 18.827C21.925 18.827 22.354 17.556 22.609 17.383C22.865 17.21 23.457 17.047 24.223 17.383C25.755 18.227 25.581 20.607 25.581 20.607C25.581 20.607 27.542 22.215 28.727 25.103C30.003 27.982 29.064 31.461 30.432 33.831C31.79 36.292 35.283 39.761 42.687 39.761C48.477 39.761 55.116 35.265 59.875 35.265C61.835 35.265 63.531 36.028 63.531 36.028C63.531 36.028 68.381 33.912 68.381 27.301C68.126 21.371 63.704 19.845 59.875 18.909C56.045 18.064 44.811 17.637 40.215 15.939C39.113 15.603 34.855 13.823 34.855 8.645C34.855 3.468 38.265 0.772003 38.265 0.772003C38.265 0.772003 40.389 4.159 45.843 4.841C51.296 5.522 61.08 7.13 62.356 7.384C63.633 7.638 71.036 8.828 73.161 11.534C75.377 14.158 77.073 18.654 76.307 22.55C75.541 26.446 74.857 29.162 72.048 32.976C69.24 36.709 66.605 37.381 66.605 37.381C66.605 37.381 69.413 39.334 71.119 41.114C72.906 42.813 75.796 48.661 76.399 50.014C77.001 51.367 80.309 55.274 81.249 57.47C82.608 60.858 82.097 62.983 81.934 63.573C81.76 64.082 81.086 66.198 79.636 66.198C78.533 66.198 78.186 65.862 78.186 65.862C78.186 65.862 78.267 65.526 78.359 65.018C78.533 64.591 79.718 63.746 79.718 62.556C79.718 60.603 78.441 58.406 75.378 55.69C72.232 52.974 66.523 50.35 66.523 50.35C66.523 50.35 68.055 53.066 68.31 53.574C68.647 54.083 72.987 60.104 73.335 62.902C73.59 64.763 73.845 67.479 72.651 68.578C71.803 69.168 70.945 68.832 70.69 68.578C70.516 68.405 70.69 68.069 70.771 67.815C70.853 67.561 71.619 66.798 71.711 66.116C71.793 65.526 71.282 63.4 69.668 61.966C68.055 60.44 64.052 59.088 62.346 58.07C60.641 57.135 56.811 54.429 55.882 53.574C54.86 52.812 53.584 51.113 51.715 51.113C48.906 51.113 47.885 51.54 42.442 53.401C40.992 53.991 37.509 55.517 33.506 55.517C29.503 55.517 25.928 52.547 25.928 52.547C25.928 52.547 23.038 55.7 18.014 55.7C12.652 55.7 10.691 52.394 7.72 52.394C5.932 52.394 4.574 53.747 3.38 53.747C3.042 53.747 2.532 53.666 2.532 52.812C2.532 52.384 3.89 50.35 6.188 50.187C8.485 50.106 10.446 50.95 14.787 50.614C19.209 50.36 20.403 47.899 20.403 47.899C20.403 47.899 18.953 48.58 16.911 48.58C12.315 48.58 7.72 45.701 5.248 45.701C3.798 45.701 2.266 47.146 1.418 47.054C0.825999 46.973 0.570999 46.881 0.477999 46.627C0.397999 46.454 0.304999 46.118 0.651999 45.528C1.245 44.43 3.032 42.731 8.394 42.731C11.539 42.731 15.032 43.83 17.074 41.887C19.117 39.944 19.372 38.072 19.546 37.055C19.801 36.038 20.311 31.542 20.311 31.206C20.311 30.871 20.311 29.854 19.372 28.836C18.351 27.819 16.992 27.565 16.39 27.392C15.798 27.311 14.858 27.311 14.603 27.138C14.429 27.056 13.919 26.548 14.01 26.456C14.01 26.283 15.287 26.375 15.287 26.375C15.379 26.283 13.929 26.202 13.755 26.12Z"/>
</g>
<defs>
<clipPath id="clip0_1_201">
<rect width="83" height="69" fill="white"/>
</clipPath>
</defs>
</svg>
