<svg width="87" height="51" viewBox="0 0 87 51" xmlns="http://www.w3.org/2000/svg">
<g clip-path="url(#clip0_1_53)">
<path d="M86.014 41.669C85.455 39.109 83.476 38.819 81.919 37.402C79.246 34.979 80.092 30.44 80.362 27.3V26.737C82.054 26.873 80.921 25.747 80.65 25.03C79.804 23.46 79.516 21.908 78.958 20.474C76.978 16.771 72.748 14.074 68.518 12.658C64.576 11.378 59.635 12.368 55.405 11.378C54.559 11.242 53.003 10.952 52.021 10.815C47.368 9.82501 44.543 8.39201 40.736 6.12301C36.506 3.56301 34.256 4.55301 29.873 5.40601C28.317 5.69601 26.489 5.11601 25.085 5.26901C24.543 2.12901 20.449 -0.992991 18.198 2.41901H18.063C16.659 1.00301 13.275 1.56601 13.968 4.12601H13.833C12.852 4.84301 11.007 4.12601 9.73797 4.97901C9.17997 5.40601 9.17997 6.12301 8.89197 6.39601C8.04597 7.24901 4.37497 8.10201 3.10597 8.52901C2.12397 8.81901 -0.83703 8.81901 0.56797 10.525C0.00896981 13.512 4.79797 12.948 6.35397 13.375C10.449 14.791 3.10597 14.655 1.83697 15.082C2.68297 17.215 9.73797 16.225 12.547 17.932C13.393 18.358 15.643 21.635 16.912 21.481C17.894 21.481 18.469 22.624 19.586 23.324C20.567 24.041 21.701 24.314 22.124 25.747V25.884C20.854 28.154 21.142 33.136 21.278 36.686C21.278 38.392 21.701 42.232 21.142 43.376C19.45 46.498 15.779 43.376 13.241 44.228C11.549 44.791 10.567 47.078 12.107 47.931C12.53 47.931 13.089 47.931 13.512 47.795H13.647C17.741 47.368 22.665 50.065 25.779 46.379C26.066 47.522 26.625 46.942 27.047 46.805C29.45 45.525 32.547 39.263 33.527 36.566V36.703C34.661 37.419 38.468 43.393 37.757 45.099C36.912 46.805 32.969 44.536 31.277 45.389C30.144 45.952 29.585 46.959 29.585 48.239L29.721 48.375C29.163 49.365 30.279 50.082 30.99 49.365H31.125C32.53 49.655 34.086 50.218 35.643 50.218C39.315 50.218 41.565 50.082 43.968 47.522C46.641 44.536 47.064 41.686 47.351 37.71C48.908 37.846 50.601 38.136 52.005 37.283H52.14C52.563 38.426 52.85 38.989 53.273 39.706C53.832 40.696 56.793 42.556 56.234 44.109C55.676 45.952 51.869 43.972 50.448 44.672C50.025 44.962 49.738 45.525 49.738 46.242V46.379C48.891 47.095 49.027 48.939 50.296 48.222H50.431C54.238 48.785 58.181 50.492 61.987 48.938C65.507 47.368 64.948 43.528 66.776 38.989V39.126C68.045 40.406 69.601 41.123 71.429 41.822C73.831 42.675 78.061 42.812 78.619 44.092C80.447 48.068 72.139 45.082 73.121 48.785C72.41 49.928 73.679 50.201 74.39 49.638H74.525C78.197 51.054 79.736 49.501 81.716 47.215C83.611 45.082 86.86 44.945 86.014 41.669ZM14.56 7.11201C14.204 7.16401 13.798 7.12901 13.375 7.11201C13.02 7.09501 12.665 7.07801 12.343 7.09501C12.409 7.14541 12.463 7.20987 12.5011 7.28372C12.5391 7.35758 12.5603 7.43897 12.563 7.52201C12.563 7.94901 12.275 8.08501 12.005 8.08501C11.582 8.08501 11.446 7.94901 11.446 7.52201C11.446 7.45401 11.463 7.36801 11.48 7.30001C11.3348 7.38385 11.2173 7.50829 11.142 7.65801C11.1192 7.70696 11.0836 7.74876 11.0388 7.7789C10.994 7.80904 10.9419 7.82637 10.888 7.82901C10.838 7.82901 10.803 7.81201 10.753 7.79501C10.617 7.72701 10.549 7.53901 10.617 7.40201C11.107 6.43001 12.327 6.48101 13.409 6.53201C13.815 6.54901 14.204 6.56601 14.509 6.53201C14.585 6.52588 14.6605 6.54894 14.7201 6.59649C14.7798 6.64405 14.819 6.71253 14.83 6.78801C14.83 6.95801 14.729 7.09501 14.56 7.11201Z"/>
</g>
<defs>
<clipPath id="clip0_1_53">
<rect width="87" height="51" fill="white"/>
</clipPath>
</defs>
</svg>
