<svg width="68" height="63" viewBox="0 0 68 63" xmlns="http://www.w3.org/2000/svg">
<g clip-path="url(#clip0_1_180)">
<path d="M67.749 41.989C67.286 40.647 64.696 39.829 63.958 38.356C63.234 36.882 66.968 30.273 62.236 27.793C59.95 26.291 56.13 31.383 53.613 31.12C53.28 31.032 51.602 25.24 43.773 26.7C34.427 27.91 31.606 25.284 30.781 23.212C30.751 23.154 30.738 23.096 30.723 23.052C30.723 23.037 30.709 23.022 30.709 23.008C30.694 22.978 30.694 22.95 30.679 22.92C30.665 22.891 30.665 22.862 30.651 22.818C30.5245 22.3819 30.4612 21.93 30.463 21.476L31.128 18.748C30.795 20.046 30.491 20.922 30.477 21.053C30.491 20.893 30.897 19.769 31.273 18.15C31.287 18.106 31.287 18.062 31.302 18.018L31.272 18.15C31.316 17.975 31.345 17.814 31.389 17.639C31.475 17.259 31.548 16.851 31.62 16.413C31.634 16.297 31.663 16.18 31.678 16.063L31.663 16.151C31.663 16.121 31.678 16.093 31.678 16.063V16.034V16.078L31.721 15.742C32.069 13.131 32.025 10.009 30.593 7.46999C30.593 7.45599 30.578 7.45599 30.578 7.44099C30.506 7.30999 30.419 7.17799 30.347 7.04699C30.332 7.03299 30.332 7.01699 30.317 7.00299C30.317 7.00299 30.317 6.98899 30.303 6.98899L30.318 7.00299C30.303 6.98899 30.288 6.95999 30.274 6.94499C29.9476 6.45358 29.5695 5.99864 29.146 5.58799L29.045 5.45699C28.105 3.95399 26.7 2.85999 25.08 2.09999H25.051C23.344 1.31299 21.405 0.890986 19.51 0.759986H19.48H19.495H19.451H19.481H19.408C18.7338 0.71859 18.0578 0.713582 17.383 0.744986C17.31 0.744986 17.238 0.744986 17.166 0.759986C17.108 0.759986 17.05 0.759986 16.992 0.774986L16.327 0.817986C16.297 0.817986 16.269 0.817986 16.24 0.832986L16.327 0.817986C16.269 0.817986 16.225 0.832986 16.182 0.832986C15.6323 0.888726 15.0864 0.976543 14.547 1.09599L14.373 1.13899C14.33 1.12499 14.272 1.13899 14.214 1.15399C13.794 1.25599 13.389 1.37299 13.014 1.50399L13.057 1.48999C13.042 1.48999 13.027 1.50399 13.013 1.50399H13L13.014 1.48999C12.175 1.79599 11.495 2.15999 11.032 2.59799L10.902 2.72999C10.815 2.81699 10.728 2.91999 10.656 3.02099C10.641 3.03599 10.626 3.05099 10.626 3.06499C10.5542 3.1491 10.4867 3.23688 10.424 3.32799C10.4093 3.35568 10.3896 3.38042 10.366 3.40099L10.193 3.66299C10.178 3.69299 10.149 3.72199 10.135 3.76499C10.077 3.85299 10.034 3.92599 9.97499 4.01299C9.94699 4.07199 9.90299 4.12999 9.87499 4.18899C9.84499 4.24699 9.80199 4.30499 9.77299 4.36399C9.72999 4.43699 9.68599 4.50999 9.64299 4.59699C9.62899 4.64099 9.59999 4.66999 9.58499 4.71399C8.84699 6.14399 8.29699 7.85099 7.90699 9.26599C7.63391 10.2566 7.407 11.2593 7.22699 12.271L8.96299 11.177L8.38399 13.059C8.38399 13.059 10.019 12.271 10.149 12.227C10.583 13.687 11.915 15.612 12.725 16.779L13 17.188C13.029 17.231 13.072 17.275 13.101 17.319C13.202 17.465 13.275 17.567 13.318 17.655C13.361 17.742 13.419 17.845 13.448 17.946L13.564 18.326C13.738 19.056 13.781 19.946 13.969 20.193C14.143 20.441 14.519 20.981 15.3 21.054L14.65 21.754C14.0526 22.5343 13.6329 23.4356 13.42 24.395C7.06799 22.105 6.29999 18.588 4.15999 18.443C1.36699 18.253 2.63999 23.228 0.0939915 31.908C-0.0940085 32.273 1.49699 33.44 1.49699 33.44C1.49699 33.44 1.19299 34.228 1.19299 34.666C1.19299 34.856 1.67099 35.658 2.23499 36.46C2.91499 37.452 3.69599 38.46 3.86999 38.46C4.17399 38.46 4.72399 34.783 4.66599 34.55C4.63599 34.447 4.23199 34.214 3.75399 33.922C3.05999 33.455 2.20599 32.828 2.27799 32.157C2.39399 31.31 3.18999 32.405 3.18999 32.215C2.63999 29.647 3.49399 22.295 4.82499 22.907C6.71999 24.293 7.77699 26.744 8.91999 28.087C8.77499 28.115 8.62999 28.144 8.51399 28.174C7.60299 28.364 5.64999 27.736 4.80999 28.422C3.18999 29.706 3.84099 31.369 4.07299 31.967C4.33299 32.58 8.74599 36.811 9.10799 37.482C9.48399 38.167 10.019 39.392 10.511 40.356C10.945 40.546 12.522 40.473 12.522 40.473C12.522 40.473 13.246 40.589 13.607 41.392C13.824 41.508 14.62 41.625 15.373 41.64C16.067 41.654 16.747 41.567 16.892 41.333C17.196 40.837 15.011 37.846 14.707 37.905C14.519 37.949 14.374 38.285 14.099 38.59C13.926 38.78 13.723 38.94 13.419 38.999C13.116 39.072 12.855 38.882 12.638 38.634C12.942 38.561 13.202 38.314 13.217 38.299L13.014 38.094C13.014 38.094 12.71 38.401 12.45 38.357C12.349 38.211 12.276 38.051 12.218 37.934C12.566 37.934 12.869 37.73 12.884 37.715L12.71 37.482C12.71 37.482 12.276 37.802 11.93 37.569L11.871 37.657C11.712 37.627 11.495 37.526 11.235 37.307C11.394 37.336 11.582 37.365 11.77 37.365C12.074 37.365 12.421 37.307 12.783 37.132L12.653 36.869C12.3648 37.0032 12.0502 37.0715 11.7323 37.0689C11.4144 37.0663 11.101 36.9929 10.815 36.854C10.786 36.825 10.772 36.796 10.743 36.752C10.077 35.468 8.49999 31.734 7.34299 31.485C8.49999 30.129 13.723 33.63 15.185 33.075C15.271 33.046 15.503 33.032 15.807 32.988C16.14 33.455 16.516 33.936 16.935 34.432C20.552 38.663 24.951 39.772 28.713 39.874C28.597 41.012 28.51 43.026 29.263 44.354C30.666 46.804 33.14 48.701 32.967 49.795C32.721 51.269 25.487 55.733 24.821 56.477C24.155 57.207 24.213 58.199 24.039 58.564C23.924 58.797 22.65 59.628 21.753 60.562C21.233 61.102 20.842 61.671 20.871 62.182C20.929 62.372 24.879 62.488 25.111 62.43C25.255 62.007 25.298 61.642 25.269 61.35C25.211 60.504 24.676 60.125 24.806 59.804C24.893 59.614 25.501 59.147 26.196 58.636C26.196 58.943 26.253 59.483 26.571 59.847L26.789 59.643C26.412 59.235 26.485 58.447 26.485 58.447H26.455C26.585 58.345 26.731 58.257 26.861 58.155C26.861 58.535 26.904 59.22 27.281 59.483L27.44 59.235C27.136 59.03 27.136 58.228 27.15 57.936C27.28 57.849 27.396 57.761 27.512 57.673C27.498 58.14 27.526 58.928 27.874 59.103L28.004 58.841C27.83 58.753 27.758 58.053 27.801 57.441C27.961 57.323 28.105 57.207 28.206 57.119C28.091 57.499 28.047 58.053 28.366 58.651L28.626 58.52C28.4701 58.2429 28.3956 57.9275 28.4109 57.61C28.4263 57.2924 28.531 56.9857 28.713 56.725L28.669 56.696C29.292 56.069 29.957 55.281 30.97 54.362C31.635 53.734 36.729 50.802 37.105 50.189C37.466 49.576 36.193 48.599 35.759 47.739C35.441 45.549 36.931 43.332 38.059 42.019C39.304 43.989 40.982 45.477 41.402 45.71C42.198 46.148 44.137 46.819 43.962 49.401C43.109 53.443 36.729 57.294 35.759 57.907C34.992 58.388 35.455 58.637 35.209 59.191C35.108 59.424 34.544 59.774 33.936 60.183C33.024 60.708 32.286 61.7 32.416 62.255C32.663 62.692 36.786 62.692 36.786 62.138C36.786 61.861 36.627 61.584 36.555 61.146C36.483 60.737 36.497 60.168 36.786 59.336C36.844 59.206 37.09 59.074 37.438 58.957C37.394 59.687 37.38 60.475 37.524 60.635L37.756 60.445C37.683 60.315 37.698 59.555 37.741 58.855C37.871 58.811 38.016 58.782 38.146 58.738C38.046 59.41 37.973 60.27 38.219 60.46L38.407 60.241C38.32 60.139 38.349 59.439 38.465 58.666C38.6371 58.6215 38.8105 58.5825 38.985 58.549C38.826 59.337 38.725 60.169 38.942 60.329L39.116 60.095C39.13 60.095 39.13 60.11 39.13 60.11C39.058 59.979 39.145 59.205 39.304 58.476C39.4711 58.4385 39.64 58.4091 39.81 58.388C39.564 59.483 39.55 60.095 39.767 60.212L39.912 59.95C39.926 59.95 39.926 59.964 39.926 59.964C39.839 59.833 39.97 59.001 40.143 58.243C40.288 57.995 40.707 57.265 41.185 56.433C41.735 55.485 48.723 51.356 49.143 50.189C49.563 49.022 47.059 48.322 47.059 46.498C47.175 45.578 47.175 45.578 48.202 44.28C49.244 42.996 53.512 41.027 54.583 36.694C54.873 34.447 54.351 32.857 54.351 32.857C54.351 32.857 55.089 32.944 55.495 32.857C55.509 32.857 55.524 32.842 55.538 32.842L58.707 35.716C57.954 37.54 57.158 39.976 58.533 41.26C59.951 42.603 62.179 41.625 64.509 41.96C66.824 42.282 67.055 44.528 67.055 44.528C67.055 44.528 68.213 43.318 67.75 41.99L67.749 41.989ZM16.443 14.838C17.223 13.802 17.441 12.562 17.455 11.57L17.485 11.614C17.485 11.614 17.485 11.468 17.455 11.22C17.426 10.388 17.282 9.81999 17.282 9.81999C17.282 9.81999 20.088 9.86299 20.074 15.203C19.987 15.611 19.669 16.136 19.249 16.705L18.424 17.595C18.3261 17.2571 18.1748 16.9371 17.976 16.647L17.701 16.297C17.3966 15.9118 17.0524 15.5598 16.674 15.247C16.414 15.027 16.298 14.925 16.442 14.837L16.443 14.838Z"/>
<path d="M31.258 18.164L31.113 18.762C31.171 18.572 31.214 18.368 31.258 18.164Z"/>
</g>
<defs>
<clipPath id="clip0_1_180">
<rect width="68" height="63" fill="white"/>
</clipPath>
</defs>
</svg>
