<svg width="79" height="79" viewBox="0 0 79 79" xmlns="http://www.w3.org/2000/svg">
<g clip-path="url(#clip0_1_131)">
<path d="M20.367 5.354L19.306 5.968L23.997 14.074L25.058 13.46L20.367 5.354ZM25.354 4.134L24.222 4.604L27.408 12.292L28.54 11.822L25.354 4.134ZM34.92 1.739L33.705 1.899L34.788 10.151L36.003 9.991L34.92 1.74V1.739ZM29.787 1.626L28.603 1.942L31.023 10.989L32.207 10.672L29.787 1.626ZM39.843 0.460999H38.617V9.814H39.843V0.460999ZM43.553 1.743L42.471 9.996L43.686 10.156L44.769 1.903L43.553 1.743ZM12.243 11.385L11.376 12.252L17.998 18.874L18.865 18.007L12.243 11.385ZM5.95301 19.312L5.33901 20.373L13.444 25.064L14.058 24.004L5.95301 19.312ZM9.65301 15.792L8.90801 16.766L15.518 21.823L16.263 20.849L9.65301 15.792ZM1.92701 28.611L1.61001 29.795L10.657 32.215L10.974 31.031L1.92701 28.611ZM16.743 8.927L15.77 9.672L20.827 16.282L21.8 15.537L16.743 8.927ZM4.59001 24.236L4.12101 25.368L11.81 28.554L12.28 27.422L4.59001 24.236ZM53.11 4.142L49.924 11.831L51.056 12.3L54.242 4.611L53.11 4.141V4.142ZM68.486 42.479L68.326 43.694L76.579 44.777L76.738 43.562L68.486 42.479ZM72.52 19.314L64.414 24.006L65.028 25.066L73.134 20.375L72.52 19.314ZM73.87 24.237L66.18 27.423L66.65 28.556L74.339 25.37L73.87 24.237ZM48.683 1.632L46.263 10.679L47.447 10.995L49.867 1.949L48.683 1.632ZM76.577 33.719L68.324 34.8L68.484 36.016L76.736 34.933L76.576 33.718L76.577 33.719ZM76.543 28.616L67.496 31.036L67.813 32.22L76.859 29.8L76.543 28.616ZM58.112 5.346L53.42 13.452L54.48 14.066L59.173 5.96L58.112 5.346ZM1.88301 33.723L1.72301 34.938L9.97601 36.021L10.136 34.806L1.88301 33.723ZM61.716 8.918L56.659 15.528L57.633 16.273L62.69 9.663L61.716 8.918ZM68.807 15.772L62.197 20.85L62.944 21.822L69.554 16.744L68.807 15.772ZM66.233 11.386L59.611 18.008L60.478 18.875L67.1 12.253L66.233 11.386ZM62.947 56.679L62.202 57.652L68.812 62.709L69.557 61.736L62.947 56.679ZM51.05 66.196L49.918 66.665L53.104 74.354L54.236 73.884L51.05 66.196ZM54.472 64.428L53.412 65.042L58.103 73.147L59.163 72.533L54.472 64.428ZM9.98001 42.484L1.72801 43.567L1.88701 44.782L10.139 43.699L9.98001 42.484ZM57.63 62.212L56.656 62.957L61.713 69.567L62.687 68.823L57.63 62.212ZM43.685 68.336L42.47 68.496L43.553 76.748L44.768 76.588L43.685 68.336ZM65.016 53.422L64.403 54.483L72.502 59.161L73.115 58.099L65.016 53.422ZM78.014 38.632H68.66V39.858H78.013L78.014 38.632ZM67.802 46.272L67.485 47.456L76.532 49.876L76.849 48.692L67.802 46.272ZM60.477 59.62L59.61 60.487L66.232 67.109L67.099 66.242L60.477 59.62ZM66.647 49.947L66.177 51.079L73.867 54.265L74.336 53.133L66.647 49.947ZM39.843 68.676H38.617V78.029H39.843V68.676ZM47.43 67.506L46.247 67.824L48.679 76.881L49.863 76.563L47.43 67.506ZM13.436 53.43L5.33601 58.107L5.95001 59.169L14.05 54.491L13.436 53.43ZM15.52 56.682L8.91501 61.746L9.66101 62.718L16.266 57.655L15.52 56.682ZM17.997 59.62L11.375 66.242L12.242 67.109L18.864 60.486L17.997 59.62ZM34.785 68.346L33.702 76.598L34.917 76.758L36 68.506L34.785 68.346ZM9.80001 38.632H0.445007V39.858H9.80001V38.632ZM10.659 46.278L1.61201 48.698L1.92901 49.882L10.976 47.462L10.659 46.278ZM11.813 49.944L4.12401 53.13L4.59401 54.262L12.282 51.076L11.813 49.944ZM20.836 62.22L15.773 68.825L16.745 69.571L21.809 62.966L20.836 62.22ZM31.02 67.507L28.6 76.554L29.785 76.871L32.205 67.824L31.02 67.507ZM27.399 66.198L24.213 73.887L25.345 74.356L28.531 66.666L27.399 66.198ZM23.992 64.426L19.314 72.525L20.376 73.138L25.053 65.039L23.992 64.426ZM57.519 59.888L58.181 52.324L65.021 49.014L62.091 42.016L66.601 35.911L60.755 31.069L61.919 23.555L54.503 22.011L52.052 14.828L44.746 16.887L39.23 11.665L33.714 16.887L26.408 14.827L23.956 22.011L16.528 23.58L17.693 31.094L11.846 35.936L16.356 42.04L13.439 49.027L20.279 52.337L20.941 59.9L28.516 59.642L32.623 66.041L39.218 62.291L45.812 66.041L49.919 59.642L57.519 59.888ZM39.229 59.066C28.284 59.066 19.409 50.192 19.409 39.246C19.409 28.299 28.284 19.424 39.229 19.424C50.176 19.424 59.051 28.299 59.051 39.245C59.051 50.192 50.175 59.066 39.229 59.066Z"/>
</g>
<defs>
<clipPath id="clip0_1_131">
<rect width="79" height="79" fill="white"/>
</clipPath>
</defs>
</svg>
