<svg width="56" height="61" viewBox="0 0 56 61" xmlns="http://www.w3.org/2000/svg">
<g clip-path="url(#clip0_1_16)">
<path d="M53.73 28.326C53.715 28.287 53.707 28.248 53.691 28.209C54.064 27.911 54.165 27.589 53.722 27.44C53.334 27.377 53.14 27.181 53.59 26.985C54.623 26.122 54.499 24.86 53.823 24.397C54.779 23.965 54.724 22.357 53.202 21.761C52.752 21.628 52.876 21.431 53.264 21.236C53.621 20.985 53.489 20.734 53.109 20.561C54.724 20.201 54.825 18.82 54.491 17.973C54.258 17.149 53.287 16.004 51.633 16.89C51.952 16.42 51.975 16.012 51.454 16.082C51.066 16.145 50.81 16.02 51.128 15.69C52.122 13.949 50.499 12.333 49.288 13.635C49.606 12.686 48.876 12.075 48.053 12.223C48.813 11.4 47.959 9.88599 46.336 10.066C45.816 10.2 45.886 9.93299 46.08 9.61099C46.305 9.21899 46.072 9.06199 45.653 9.10099C46.864 8.01899 46.297 6.77999 45.629 6.21499V6.15199C45.039 5.55599 43.579 5.01499 42.593 6.66999C42.663 6.05799 42.507 5.64999 42.064 5.95599C41.738 6.21599 41.482 6.28599 41.614 5.75999C41.614 3.77599 39.463 3.17199 38.997 4.84199C38.725 3.46999 36.83 3.76799 36.627 5.50199C36.627 5.95599 36.434 5.83099 36.177 5.56399C35.548 5.04599 35.478 6.35599 35.913 7.39199C35.898 7.54799 35.836 7.61199 35.758 7.58799C35.788 7.22699 35.703 6.89799 35.533 6.64599C35.665 6.40299 35.618 6.21599 35.276 6.21599C34.888 6.21599 34.694 6.15199 35.02 5.82299C36.006 4.42699 34.88 2.95299 33.746 3.67299C34.406 2.16799 32.41 1.17899 31.136 2.62299C30.88 3.07799 30.748 2.88199 30.686 2.42699C30.546 1.90899 30.158 2.12099 29.816 2.63799C30.212 0.739994 28.791 0.143994 27.906 0.206994C27.059 0.151994 25.786 0.684994 25.964 2.36399C25.677 2.05799 25.397 2.00299 25.312 2.42699C25.249 2.81899 25.055 3.07699 24.792 2.62299C23.502 1.10899 21.467 2.13599 22.244 3.67299C21.071 2.73299 19.813 4.29299 20.846 5.68999C21.172 6.01899 20.978 6.14399 20.589 6.08199C20.5525 6.08265 20.5163 6.08768 20.481 6.09699C20.465 5.61899 20.286 5.33699 19.937 5.62699C19.681 5.95699 19.487 6.01899 19.487 5.56399C19.339 3.83799 17.437 3.49399 17.133 4.85799C16.66 3.24199 14.516 3.86199 14.57 5.82299C14.632 6.34799 14.376 6.27799 14.05 6.01899C13.607 5.70499 13.452 6.12899 13.537 6.74899C12.559 5.06899 11.145 5.61899 10.493 6.27799C9.82498 6.84299 9.24998 8.08199 10.508 9.16399C10.088 9.13299 9.84798 9.28199 10.042 9.67399C10.299 10.004 10.299 10.325 9.84798 10.129C8.36498 9.97199 7.54098 11.149 7.91398 12.004C7.19198 11.964 6.57798 12.529 6.81898 13.368C5.63098 12.121 4.00698 13.745 4.99398 15.424C5.31998 15.879 5.12598 15.949 4.66798 15.879C4.12398 15.808 4.18598 16.224 4.54298 16.709C2.90498 15.784 1.91798 16.937 1.62298 17.769C1.34298 18.616 1.45298 19.989 3.05298 20.357C2.66298 20.53 2.52398 20.789 2.91998 21.04C3.24598 21.236 3.43998 21.432 2.91998 21.565C1.45198 22.153 1.37498 23.73 2.29898 24.185C1.67698 24.687 1.59898 25.863 2.59398 26.664C3.04398 26.922 2.84998 27.118 2.46198 27.189C2.02698 27.307 2.11198 27.589 2.45398 27.872C2.42869 27.914 2.40791 27.9586 2.39198 28.005C0.691981 27.864 0.209981 29.22 0.325981 30.13C0.325981 30.969 0.900981 32.2 2.53998 31.95C2.24398 32.247 2.20598 32.53 2.65598 32.616C3.10598 32.679 3.30098 32.812 2.84998 33.142C1.45998 34.498 2.53198 36.475 4.00698 35.628C3.12198 36.859 4.74498 38.075 6.08098 36.93C6.40698 36.6 6.46998 36.797 6.46998 37.189C6.51598 37.801 7.10598 37.448 7.57198 36.797C7.63498 37.299 8.35698 36.883 8.87698 36.177C8.73698 37.165 9.03998 38.177 9.50698 37.644C9.70098 37.314 9.89498 37.189 9.95698 37.644C10.26 38.758 11.215 39.142 11.837 38.852C12.777 39.314 13.957 38.546 13.063 36.467C12.869 36.075 13.126 36.012 13.32 36.137C14.353 36.985 14.097 34.765 13.063 34.044C12.675 33.847 12.613 33.455 13.063 33.455C14.034 34.043 13.583 32.93 12.869 31.69C12.769 31.541 12.714 31.251 12.659 30.945C17.335 30.828 20.372 32.122 22.384 34.435C23.804 36.53 22.772 49.535 20.83 54.5C20.504 56.46 18.368 58.68 16.62 60.25C18.625 60.116 21.219 59.073 22.446 57.567C22.508 58.939 22.119 59.92 21.537 60.963C24.061 59.92 26.453 58.281 28.007 56.39C29.622 58.288 31.952 59.92 34.477 60.963C33.894 59.92 33.567 58.939 33.637 57.567C34.865 59.136 37.459 60.116 39.463 60.249C37.715 58.68 35.517 56.461 35.253 54.499C33.311 49.535 32.209 36.522 33.638 34.436C35.649 32.122 38.678 30.828 43.385 30.946C43.33 31.33 43.261 31.659 43.152 31.886C42.507 33.063 41.987 34.24 43.02 33.651C43.408 33.589 43.346 33.981 43.02 34.24C41.917 34.961 41.66 37.181 42.694 36.334C42.95 36.138 43.144 36.201 42.95 36.664C42.119 38.703 43.245 39.448 44.161 39.04C44.767 39.456 45.862 39.103 46.181 37.903C46.181 37.51 46.437 37.573 46.631 37.903C47.09 38.467 47.385 37.495 47.276 36.514C47.796 37.126 48.441 37.464 48.449 36.93C48.923 37.699 49.629 38.185 49.676 37.51C49.676 37.118 49.738 36.922 50.064 37.252C51.384 38.334 52.992 37.15 52.169 35.957C53.629 36.742 54.685 34.742 53.303 33.393C52.853 33.133 53.109 33 53.497 32.937C53.955 32.851 53.909 32.545 53.583 32.224C55.245 32.522 55.827 31.235 55.827 30.388C55.905 29.525 55.462 28.154 53.73 28.326ZM40.503 22.593C40.503 22.601 40.496 22.601 40.488 22.593H40.503ZM46.46 12.749C46.453 12.741 46.445 12.733 46.445 12.725H46.53L46.46 12.749ZM38.857 6.12899C38.88 6.04999 38.903 5.97899 38.919 5.90099L38.942 6.07399C38.919 6.08999 38.888 6.11399 38.857 6.12899ZM14.687 25.683C15.401 26.601 15.331 25.353 15.075 24.052C15.0449 23.8835 15.0422 23.7113 15.067 23.542C16.613 24.42 17.793 25.182 17.731 25.55C17.685 26.005 15.867 26.028 14.337 26.107C14.197 25.817 14.307 25.511 14.687 25.683ZM19.129 17.526L19.665 18.883L18.182 18.09C18.547 17.98 18.873 17.761 19.129 17.526ZM19.611 16.851C19.681 16.631 19.626 16.467 19.378 16.443L19.122 15.996C19.681 15.51 19.968 15.047 20.062 14.647L19.805 17.181L19.611 16.851ZM23.619 13.455C23.735 13.212 23.929 13.094 24.061 13.149C24.022 13.447 23.961 13.674 23.875 13.784C23.758 13.8 23.619 13.753 23.463 13.659C23.525 13.589 23.573 13.525 23.619 13.455ZM25.886 13.259C25.894 13.259 25.894 13.251 25.902 13.251C25.809 14.192 25.739 14.827 25.436 14.961C25.11 14.961 25.047 14.898 24.916 14.569L24.776 13.863C25.1589 13.6864 25.5298 13.4847 25.886 13.259ZM31.222 14.419L31.191 14.561C30.997 14.891 30.997 14.953 30.671 14.953C30.391 14.851 30.282 14.42 30.212 13.769C30.593 14.059 30.942 14.294 31.222 14.419ZM36.861 16.129L36.581 16.608C36.457 16.655 36.411 16.757 36.418 16.882L36.239 17.181L36.014 14.953C36.123 15.306 36.387 15.705 36.861 16.129ZM36.861 17.643C37.078 17.863 37.35 18.067 37.645 18.208L36.371 18.891L36.861 17.643ZM40.954 23.565C40.993 23.808 41.008 24.02 40.969 24.177C40.806 25.009 40.721 25.809 40.861 26.067C39.579 26.005 38.36 25.918 38.313 25.55C38.251 25.181 39.424 24.428 40.954 23.565ZM41.35 25.879C41.66 25.746 41.785 25.887 41.754 26.114C41.5518 26.1079 41.3498 26.0979 41.148 26.084C41.21 26.036 41.272 25.965 41.35 25.879ZM51.338 35.189C51.353 35.213 51.377 35.237 51.392 35.26C51.3463 35.2369 51.3022 35.2108 51.26 35.182C51.284 35.19 51.315 35.189 51.338 35.189ZM48.752 14.49C48.669 14.6838 48.5988 14.8829 48.542 15.086C48.519 15.165 48.503 15.227 48.48 15.282C48.154 15.345 48.03 15.149 48.348 14.89C48.495 14.757 48.635 14.623 48.752 14.49ZM23.75 31.3C23.533 32.342 19.13 30.201 14.702 28.436C14.951 27.966 14.959 26.876 14.43 26.264L14.415 26.248C16.108 26.311 18.073 26.397 18.632 26.397C20.186 26.53 23.812 30.516 23.75 31.3ZM24.916 27.573C24.659 28.553 22.842 25.479 20.193 24.765C19.168 24.616 17.576 22.789 16.023 21.149C16.123 20.961 16.209 20.742 16.263 20.499C16.38 20.365 16.512 20.247 16.636 20.185C17.801 19.4 18.71 18.616 17.607 18.679C17.5336 18.6482 17.4712 18.5959 17.428 18.529C17.452 18.451 17.475 18.373 17.498 18.287C17.522 18.271 17.553 18.247 17.584 18.232L20.325 20.177C20.705 22.867 25.429 26.271 24.916 27.573ZM26.205 24.177C25.56 25.291 21.607 21.236 20.83 19.079L20.41 14.443C20.419 14.443 20.434 14.435 20.442 14.435C20.752 14.372 21.055 14.302 21.327 14.223C21.42 14.569 22.29 14.483 22.974 14.059C24.566 15.886 27.082 17.361 26.787 19.4C27.051 20.451 26.725 23.197 26.205 24.177ZM27.175 16.726C26.725 16.726 26.399 16.271 26.399 15.879C26.267 15.196 26.251 14.216 26.197 13.133C26.422 13.055 26.687 13 26.982 13L27.595 13.157L27.634 13.329H27.797C27.634 15.055 27.417 16.726 27.176 16.726H27.175ZM28.279 13.439L28.349 13.455L28.41 13.282L28.93 13.196C29.304 13.251 29.638 13.392 29.847 13.518C29.793 14.443 29.785 15.274 29.707 15.878C29.645 16.271 29.381 16.726 28.931 16.726C28.691 16.726 28.457 15.126 28.279 13.439ZM29.832 24.177C29.312 23.197 28.993 20.451 29.249 19.408C29.024 17.573 31.051 16.2 32.62 14.608C33.436 15.368 34.841 15.62 34.298 14.631C34.166 14.435 34.236 14.176 34.624 14.435C34.981 14.655 35.3 14.796 35.587 14.875L35.207 19.079C34.43 21.236 30.477 25.291 29.832 24.177ZM31.129 27.573C30.609 26.263 35.401 22.93 35.727 20.185L38.297 18.365C38.3994 18.377 38.4978 18.4119 38.585 18.467C38.608 18.569 38.632 18.671 38.655 18.757C38.6138 18.8056 38.5636 18.8457 38.507 18.875C37.342 18.812 38.251 19.596 39.416 20.31C39.548 20.412 39.68 20.53 39.804 20.671C39.851 20.859 39.921 21.031 39.991 21.189C38.437 22.812 36.868 24.601 35.851 24.749C33.265 25.487 31.385 28.553 31.129 27.573ZM32.294 31.299C32.294 30.515 35.851 26.53 37.404 26.397C38.026 26.397 39.998 26.311 41.723 26.247C41.6962 26.3225 41.6595 26.3941 41.614 26.46C41.124 27.024 41.094 27.99 41.295 28.483C36.892 30.24 32.55 32.335 32.294 31.299Z"/>
</g>
<defs>
<clipPath id="clip0_1_16">
<rect width="56" height="61" fill="white"/>
</clipPath>
</defs>
</svg>
