<svg width="75" height="74" viewBox="0 0 75 74" xmlns="http://www.w3.org/2000/svg">
<g clip-path="url(#clip0_1_106)">
<path d="M37.34 25.585C31.036 25.585 25.91 30.711 25.91 37.016C25.91 43.321 31.036 48.448 37.34 48.448C43.646 48.448 48.772 43.321 48.772 37.016C48.772 30.711 43.645 25.585 37.34 25.585Z"/>
<path d="M58.372 39.09L74.035 37.016L58.372 34.943L73.325 29.859L57.562 30.882L71.238 22.972L55.972 27.047L67.844 16.624L53.671 23.597L63.285 11.086L50.746 20.7L57.719 6.527L47.295 18.4L51.371 3.134L43.475 16.81L44.498 1.047L39.414 16L37.34 0.335999L35.266 15.999L30.182 1.046L31.205 16.809L23.295 3.133L27.372 18.4L16.948 6.527L23.921 20.7L11.411 11.086L21.024 23.626L6.85197 16.652L18.724 27.076L3.45797 22.986L17.133 30.896L1.36997 29.859L16.323 34.943L0.659973 37.016L16.323 39.09L1.36997 44.173L17.133 43.151L3.45797 51.061L18.724 46.985L6.85197 57.41L21.024 50.437L11.41 62.962L23.95 53.348L16.977 67.52L27.4 55.648L23.31 70.913L31.22 57.238L30.198 73.001L35.282 58.048L37.355 73.711L39.428 58.048L44.512 73L43.489 57.237L51.399 70.912L47.324 55.647L57.747 67.518L50.774 53.346L63.285 62.96L53.671 50.42L67.844 57.393L55.972 46.97L71.238 51.06L57.562 43.15L73.325 44.172L58.372 39.09ZM37.34 53.276C28.379 53.276 21.08 45.977 21.08 37.016C21.08 28.056 28.379 20.756 37.34 20.756C46.3 20.756 53.6 28.056 53.6 37.016C53.6 45.977 46.314 53.276 37.34 53.276Z"/>
</g>
<defs>
<clipPath id="clip0_1_106">
<rect width="75" height="74" fill="white"/>
</clipPath>
</defs>
</svg>
