<svg width="70" height="59" viewBox="0 0 70 59" xmlns="http://www.w3.org/2000/svg">
<g clip-path="url(#clip0_1_14)">
<path d="M69.235 50.93C69.235 50.93 69.155 50.912 69.015 50.868V50.85C69.015 50.86 69.006 50.86 69.006 50.868C68.444 50.719 66.87 50.327 64.69 49.811C64.488 48.903 53.913 38.04 53.482 36.739C53.4707 36.7136 53.462 36.6871 53.456 36.66C59.214 38.922 63.837 40.284 63.961 40.162C64.049 40.075 58.537 33.622 52.146 26.592C52.155 26.574 52.164 26.566 52.172 26.548L52.093 26.522C47.672 21.667 42.837 16.558 39.136 13.082C38.8057 12.8306 38.456 12.6059 38.09 12.41L38.107 11.633C38.107 11.633 38.697 7.85199 37.887 4.42899C37.009 0.935986 34.741 0.498986 34.002 0.428986C33.342 0.358986 31.585 -0.156014 29.827 2.02699C27.26 2.53399 27.778 4.93499 27.778 4.93499C27.778 4.93499 27.814 4.84799 27.91 4.72499C27.893 4.79499 27.866 4.85699 27.849 4.93499L29.528 4.28899C29.923 4.34099 30.196 4.49899 30.398 4.69899L30.416 4.78699C30.416 4.77699 30.424 4.75999 30.433 4.73399C30.863 5.20599 30.881 5.89599 30.925 6.09699C31.075 6.38499 31.145 9.15299 30.705 10.175C28.218 10.978 27.04 13.379 26.899 13.668C23.453 22.4 32.763 28.801 32.983 29.019C33.044 29.08 33.422 29.386 33.914 29.788C33.958 30.329 33.976 30.975 33.932 31.708C33.782 34.11 32.982 37.533 33.272 38.258C33.413 38.59 33.792 38.966 34.266 39.341L34.081 39.926C34.081 39.926 33.641 43.052 32.323 43.856C32.1178 43.9944 31.8925 44.1003 31.655 44.17C31.462 44.109 31.207 44.074 30.855 44.074C30.688 44.074 30.539 44.092 30.407 44.127C30.064 44.022 29.757 43.908 29.467 43.934C28.991 43.934 28.631 44.24 28.464 44.406C28.165 44.266 27.734 44.109 27.339 44.153C26.504 44.258 26.372 45.061 26.372 45.515C25.722 45.524 25.361 45.541 25.361 45.541L25.159 45.742C25.238 45.594 25.335 45.392 25.291 45.392C24.332 45.349 22.917 45.008 21.388 44.537C21.502 44.275 21.66 43.899 21.704 43.716C21.774 43.498 21.854 42.555 21.044 42.258C20.236 41.891 19.067 41.97 18.627 41.673C18.187 41.454 17.819 41.088 17.458 40.948C17.089 40.878 15.99 41.236 15.63 41.166C15.19 41.096 14.68 40.581 14.162 40.441C13.572 40.293 12.843 40.878 12.694 41.096C12.544 41.315 12.474 42.118 12.844 42.476C13.134 42.764 13.212 42.328 13.652 42.764C14.022 43.131 13.652 43.568 14.162 43.856C14.452 44.004 14.821 43.707 15.19 43.926C15.63 44.214 15.85 45.017 16.29 45.306C16.658 45.594 17.168 45.236 17.678 45.524C18.267 45.742 18.118 46.397 18.926 46.685C19.656 47.052 20.316 46.318 20.535 46.03C20.623 45.847 20.887 45.41 21.071 45.105C22.249 45.559 23.331 45.899 24.121 46.03C24.289 46.091 24.429 46.109 24.561 46.1L18.047 47.558C18.047 47.558 17.942 47.768 17.775 47.881L17.907 47.558C17.907 47.558 16.184 47.174 13.924 46.528C14.039 46.423 14.171 46.248 14.241 46.03C14.311 45.593 14.531 44.72 13.581 44.214C13.071 43.847 12.043 44.144 11.314 43.847C10.584 43.559 10.724 43.192 10.065 43.044C9.40602 42.895 9.03702 43.41 8.37802 43.332C7.78802 43.183 7.34902 42.677 7.05802 42.528C6.76802 42.458 5.52102 42.162 5.23002 43.035C4.94002 43.978 5.38002 44.415 5.45002 44.415C5.45002 44.485 5.89002 44.563 6.11002 44.781C6.33002 45 6.25902 45.506 6.62002 45.803C6.98902 46.091 7.27902 45.655 7.78902 46.021C8.22902 46.388 8.29902 47.183 8.88702 47.401C9.39702 47.619 9.76702 47.331 10.206 47.55C10.646 47.768 10.356 48.135 11.454 48.79C12.377 49.34 13.362 47.715 13.644 47.2C14.935 47.672 16.096 48.03 16.852 48.126C14.6047 48.6994 12.3915 49.3991 10.223 50.222C9.92502 49.759 9.38802 48.947 9.17702 48.798C8.95702 48.58 8.22802 47.995 7.49002 48.292C6.83002 48.58 6.76002 49.383 6.17102 49.82C5.51102 50.187 4.92302 49.89 4.41302 50.187C3.82402 50.475 3.75302 51.567 3.16502 51.863C2.65502 52.23 2.35502 51.863 1.84602 52.152C1.40602 52.518 1.69602 53.095 1.25702 53.532C0.817017 53.898 0.817017 53.68 0.527017 53.898C0.299017 54.055 -0.210983 54.64 0.229017 55.583C0.598017 56.527 1.98702 56.308 2.27702 56.238C2.56702 56.168 3.37602 55.365 3.96502 55.217C4.55402 55.147 5.06302 55.584 5.94302 55.435C6.75102 55.287 7.26102 54.492 7.70102 54.343C8.07002 54.195 9.01902 54.195 9.82802 53.907C10.637 53.689 11.296 52.667 11.076 51.942C10.988 51.471 10.725 51.13 10.522 50.92C12.922 50.143 16.219 49.165 18.689 48.667C19.252 48.597 23.761 47.515 24.086 47.437C23.225 47.987 21.916 48.825 20.509 49.742C20.289 49.532 19.876 49.2 19.419 49.252C18.829 49.252 18.909 49.689 18.249 49.837C17.66 49.986 17.001 49.689 16.562 49.986C16.122 50.204 16.342 50.571 15.682 50.929C15.023 51.217 14.584 50.929 14.074 51.296C13.634 51.663 13.784 52.239 13.564 52.754C13.344 53.261 12.175 53.916 12.245 54.649C12.245 55.374 13.055 55.741 13.274 55.81C13.424 55.88 14.004 56.099 14.522 55.959C15.032 55.889 15.182 55.234 15.99 55.016C16.799 54.867 16.799 55.453 17.898 55.234C18.997 54.946 19.146 54.073 19.506 53.706C19.876 53.269 20.316 53.557 20.896 52.763C21.555 51.741 21.265 50.51 21.045 50.292C21.0014 50.2235 20.9481 50.1615 20.887 50.108C25.546 47.278 27.049 47.017 27.049 47.017C27.049 47.017 28.359 46.711 31.954 46.772C31.1127 47.4214 30.292 48.0971 29.493 48.798C29.018 48.545 28.209 48.091 28.007 47.89C27.717 47.672 27.198 47.384 26.469 47.89C25.739 48.327 26.099 49.27 25.589 49.855C25.079 50.44 24.491 50.003 24.051 50.658C23.611 51.243 23.981 52.038 23.611 52.553C23.242 53.06 22.583 52.92 22.442 53.357C22.293 53.724 22.662 54.16 22.372 54.667C22.152 55.103 21.712 55.173 21.642 55.47C21.572 55.758 21.572 56.273 22.012 56.78C22.891 57.505 24.429 56.71 24.719 56.413C25.009 56.046 25.379 55.391 25.599 55.103C25.819 54.815 27.066 54.736 27.647 54.378C28.235 54.012 28.235 53.435 28.675 52.998C29.185 52.492 30.363 52.492 30.873 51.322C31.383 50.23 30.363 49.575 30.363 49.575L29.976 49.34C31.716 47.995 33.106 47.008 33.22 46.956C33.264 46.912 33.308 46.868 33.343 46.825C35.127 46.895 37.36 47.043 40.112 47.323C41.07 47.41 42.019 47.523 42.969 47.637C42.441 48.082 41.43 48.921 40.419 49.767C39.707 49.174 39.488 48.982 39.083 48.851C38.573 48.632 37.914 48.414 37.395 48.781C36.877 49.148 37.026 50.161 36.587 50.676C36.147 51.182 35.487 50.894 35.048 51.549C34.608 52.204 34.898 53.007 34.608 53.365C34.318 53.802 33.58 53.872 33.361 54.169C33.211 54.457 33.361 55.33 33.291 55.627C33.22 55.845 32.781 55.845 32.631 56.212C32.411 56.5 32.411 57.155 33 57.67C34.029 58.325 34.758 57.959 35.567 57.382C36.446 56.797 35.787 56.579 36.595 56.072C37.325 55.487 37.695 55.854 38.503 55.418C39.312 54.981 39.092 54.614 39.673 53.889C40.261 53.165 41.43 53.671 41.8 52.361C42.186 51.217 41.73 50.851 40.973 50.248C42.203 49.288 43.197 48.563 43.408 48.432C43.742 48.17 44.076 47.96 44.19 47.82C55.258 49.287 64.717 52.387 67.679 53.418C67.6833 53.4359 67.6893 53.4533 67.697 53.47L67.714 53.427C68.321 53.637 68.646 53.758 68.646 53.758C68.646 53.758 69.016 52.955 68.936 52.3C68.936 51.654 69.235 50.93 69.235 50.93ZM24.851 46.039L24.842 46.048L24.807 46.056C24.825 46.056 24.834 46.048 24.851 46.039ZM32.007 45.393C32.016 45.401 32.016 45.393 32.007 45.393C32.157 45.401 32.473 45.453 32.851 45.523C32.411 45.515 31.981 45.506 31.567 45.506C31.6786 45.4383 31.8065 45.402 31.937 45.401C31.963 45.393 31.98 45.393 32.007 45.393ZM35.611 45.567L36.42 45.611L36.543 45.349C36.569 45.445 36.613 45.541 36.71 45.629C36.323 45.611 35.936 45.602 35.567 45.585C35.5826 45.5814 35.5974 45.5753 35.611 45.567ZM35.021 42.197L35.664 40.337C36.086 40.607 36.481 40.834 36.762 40.991C36.552 41.647 36.147 42.747 35.611 43.428C35.048 44.135 34.697 44.318 34.345 44.362L34.072 44.232L35.021 42.197ZM27.849 45.507C28.13 45.384 28.42 45.297 28.499 45.262C28.649 45.262 30.407 45.332 30.407 45.332L30.847 45.349C30.829 45.393 30.802 45.445 30.794 45.506C29.8124 45.4928 28.8306 45.4938 27.849 45.507ZM38.072 45.69C38.582 45.629 39.048 45.541 39.048 45.541L39.708 45.602V45.611L39.716 45.602L39.786 45.611C39.786 45.611 40.596 45.244 41.105 45.829C40.955 45.244 40.665 44.886 40.296 44.668C39.417 44.083 37.949 44.38 37.659 44.231C37.343 44.039 37.351 43.157 38.301 41.559C39.831 42.651 41.615 43.48 41.905 43.358C42.275 43.14 42.125 41.978 42.055 41.542V41.393C42.055 41.393 42.565 41.978 43.004 41.611C43.373 41.323 42.934 39.498 42.934 39.498C42.934 39.498 43.303 39.717 43.813 39.498C44.401 39.21 43.883 37.385 43.883 37.385C43.883 37.385 44.393 37.603 44.833 37.167C44.9301 37.0828 45.0026 36.974 45.043 36.852L45.201 37.018C45.201 37.018 46.889 38.546 48.788 41.603C49.359 42.503 51.302 45.383 52.586 47.279C50.696 46.947 48.788 46.641 46.951 46.406C44.023 46.056 40.947 45.829 38.072 45.69Z"/>
</g>
<defs>
<clipPath id="clip0_1_14">
<rect width="70" height="59" fill="white"/>
</clipPath>
</defs>
</svg>
