<svg width="42" height="65" viewBox="0 0 42 65" xmlns="http://www.w3.org/2000/svg">
<g clip-path="url(#clip0_1_35)">
<path d="M41.272 61.98C41.272 61.98 40.39 55.587 39.147 52.04C37.817 48.395 36.936 44.048 36.308 40.5C35.596 36.856 34.714 32.956 33.832 28.598C33.035 24.155 29.58 16.345 29.58 16.345C29.58 16.345 27.37 11.816 23.915 12.168C21.257 12.434 20.46 14.032 20.46 14.032L20.545 14.48C20.545 14.48 18.335 12.082 17.622 10.133C17.069 8.29999 17.728 6.53099 18.504 5.42299V5.41299C18.589 5.28499 18.674 5.17799 18.77 5.07199C18.93 4.87999 19.11 4.74199 19.323 4.62399H22.012C22.129 4.67699 22.235 4.74099 22.32 4.80499C22.5 4.98599 22.405 3.20699 21.704 2.40799C21.257 1.95999 20.375 1.78999 19.844 1.69399H19.578C19.578 1.69399 19.13 0.808988 18.78 0.627988C18.333 0.361988 17.802 0.0959875 15.506 0.447988C13.114 0.894988 11.435 3.19599 11.435 3.19599L9.31002 6.92599L10.022 6.65899L9.31002 7.72499L10.022 7.63899L8.24702 11.369L9.04402 11.017L7.62002 14.31C6.69502 14.032 5.31302 13.926 3.63402 14.842C0.530016 16.526 -0.0859838 21.235 0.710016 24.251C0.774016 24.517 0.837016 24.783 0.912016 25.05H0.892016C0.892016 25.05 0.902016 25.06 0.923016 25.071C2.10302 29.493 4.66502 35.012 5.50502 36.685C5.69602 37.069 6.00502 37.687 6.39802 38.454L6.38702 38.464C6.38702 38.464 6.39702 38.475 6.40802 38.496C7.84302 41.32 10.288 46.051 11.255 47.788C11.765 48.693 12.137 49.268 12.403 49.62C11.9983 51.0545 11.472 52.4519 10.83 53.797C10.532 53.85 10.224 53.957 9.91602 54.117C9.58602 54.117 9.14002 54.096 8.68302 54.01C7.80102 53.83 7.35402 53.126 6.73802 53.126C6.20602 53.041 5.05802 53.211 4.43102 53.925C4.34602 54.01 4.25102 54.191 4.16502 54.277C3.63402 55.342 4.25002 56.759 4.25002 56.759C4.25002 56.759 4.78202 55.342 5.76002 55.076C5.76002 55.076 5.76002 54.99 5.84502 54.99C6.82302 54.81 7.35502 55.342 7.97102 55.438C8.19402 55.47 8.50202 55.438 8.78902 55.374C8.47002 56.205 8.32102 57.303 8.32102 57.303C8.32102 57.303 9.38402 55.79 10.532 55.619C10.617 55.619 10.713 55.534 10.798 55.534C11.415 55.8 12.573 56.152 13.37 56.152C13.753 56.195 14.22 56.067 14.625 55.907C14.572 56.557 14.603 57.132 14.603 57.132C14.603 57.132 15.22 56.248 16.113 55.8C16.378 55.715 16.644 55.62 16.91 55.62C17.622 55.62 18.1 55.79 18.377 55.939C18.324 56.557 18.504 57.121 18.504 57.121C18.504 57.121 19.748 56.141 20.014 56.056C21.162 56.056 22.054 56.856 23.117 56.674C23.84 56.557 24.319 55.736 24.52 55.257H24.616C24.691 56.227 25.732 56.589 26.136 56.589C26.486 56.504 27.731 55.875 28.347 55.875H28.432C29.049 56.056 29.676 56.855 29.676 56.855C29.676 56.855 30.006 56.109 29.931 55.438C30.494 56.056 32.311 58.017 32.684 58.091C33.215 58.176 32.864 57.473 32.864 57.473C32.864 57.473 35.341 60.137 35.968 60.137C36.68 60.052 36.415 59.253 36.415 59.253C36.415 59.253 39.157 63.333 39.603 63.248C39.784 63.163 39.689 62.534 39.689 62.534C39.689 62.534 40.666 64.399 40.932 64.218C41.198 64.037 40.752 61.639 40.752 61.639L41.272 61.98Z"/>
</g>
<defs>
<clipPath id="clip0_1_35">
<rect width="42" height="65" fill="white"/>
</clipPath>
</defs>
</svg>
