<svg width="76" height="60" viewBox="0 0 76 60" xmlns="http://www.w3.org/2000/svg">
<g clip-path="url(#clip0_1_183)">
<path d="M75.505 30.815C75.505 27.163 68.437 24.005 57.719 22.205C63.783 12.238 66.216 4.122 63.307 1.705C60.081 -1.083 50.687 4.21 40.551 14.195C40.339 14.39 40.145 14.584 39.934 14.795C39.81 14.813 39.81 14.937 39.669 14.937C39.722 14.937 39.757 14.937 39.793 14.919L39.475 15.237C39.545 15.167 39.599 15.06 39.669 14.937L39.317 15.29C38.594 14.566 37.871 13.86 37.167 13.173C36.725 12.767 36.285 12.361 35.862 11.955C36.038 11.62 36.144 11.232 36.144 10.808C36.1487 10.4987 36.0913 10.1916 35.9751 9.90491C35.859 9.61821 35.6864 9.35775 35.4678 9.13897C35.2491 8.92019 34.9887 8.74754 34.702 8.63126C34.4154 8.51497 34.1083 8.45742 33.799 8.462C33.271 8.462 32.777 8.621 32.354 8.903C31.2985 8.02979 30.217 7.18841 29.111 6.38C24.616 3.08 20.738 1.158 18.058 1H17.953C16.913 0.947004 16.067 1.176 15.45 1.706C12.541 4.106 14.92 12.08 20.861 21.924C18.464 22.26 16.243 22.648 14.198 23.124C6.05401 24.94 0.890015 27.693 0.890015 30.815C0.890015 33.779 5.61401 36.461 13.105 38.313C13.158 38.755 13.352 39.16 13.669 39.496C14.409 40.519 16.014 40.678 17.054 39.796C17.23 39.654 17.371 39.46 17.494 39.266C18.376 39.425 19.292 39.584 20.227 39.725C16.102 46.747 13.881 52.692 14.216 56.239V56.292C14.233 56.432 14.251 56.574 14.269 56.697C14.269 56.733 14.286 56.767 14.286 56.803C14.304 56.927 14.339 57.033 14.356 57.138C14.374 57.191 14.374 57.227 14.392 57.262C14.427 57.368 14.445 57.456 14.48 57.544C14.498 57.597 14.515 57.632 14.533 57.685C14.568 57.773 14.603 57.862 14.656 57.932C14.674 57.968 14.709 58.02 14.726 58.056C14.78 58.144 14.816 58.215 14.868 58.286C14.886 58.32 14.921 58.356 14.938 58.391C14.991 58.461 15.062 58.55 15.115 58.621L15.168 58.673C15.238 58.761 15.326 58.832 15.414 58.903C18.094 61.213 24.651 58.126 32.477 51.599C32.777 51.757 33.112 51.846 33.482 51.846C34.804 51.846 35.985 50.663 35.985 49.34C35.985 49.093 35.95 48.864 35.862 48.634C37.0416 47.5523 38.1992 46.4467 39.334 45.318C49.964 55.938 59.87 61.849 63.307 58.903C65.881 56.768 64.365 50.346 59.835 42.142C59.325 41.2079 58.7959 40.2844 58.248 39.372C68.631 37.555 75.505 34.397 75.505 30.815ZM57.332 37.855C56.203 36.055 54.97 34.185 53.63 32.28C53.207 31.644 52.749 31.027 52.29 30.392V30.286C53.8417 28.1715 55.3232 26.0063 56.732 23.794C58.53 24.111 60.205 24.464 61.721 24.87C67.521 26.422 71.098 28.522 71.098 30.815C71.098 33.673 65.687 36.267 57.332 37.855ZM24.686 35.667C24.739 35.561 24.792 35.473 24.863 35.385C25.303 36.655 25.92 37.855 26.678 38.931C25.4239 38.8055 24.1721 38.6585 22.923 38.49C23.4932 37.5382 24.081 36.5971 24.686 35.667ZM24.686 23.017C25.321 22.947 25.956 22.894 26.608 22.823C26.008 23.67 25.515 24.587 25.109 25.575C24.5777 24.7789 24.0609 23.9731 23.559 23.158C23.929 23.123 24.299 23.069 24.686 23.017ZM51.268 23.017C52.555 23.158 53.788 23.317 54.97 23.511C54.0154 25.0145 53.0278 26.4969 52.008 27.957C51.6291 26.1337 50.8856 24.4057 49.822 22.877C50.316 22.929 50.792 22.964 51.268 23.017ZM52.149 32.862C52.343 33.162 52.555 33.462 52.749 33.744C53.746 35.188 54.7041 36.6585 55.622 38.154C53.771 38.454 51.814 38.719 49.734 38.931C51.0055 37.1259 51.833 35.0472 52.149 32.862ZM55.957 21.923C54.2061 21.6613 52.4489 21.4439 50.687 21.271L48.359 21.111C46.3988 19.1016 43.8816 17.7255 41.132 17.16C40.903 16.93 40.692 16.701 40.462 16.472C40.692 16.26 40.903 16.031 41.132 15.819L41.15 15.837C43.6 13.455 45.98 11.391 48.2 9.697C48.271 9.644 48.36 9.573 48.43 9.52C48.518 9.45 48.624 9.38 48.712 9.309C51.092 7.527 53.26 6.186 55.128 5.374C55.287 5.304 55.446 5.234 55.604 5.18C55.657 5.163 55.71 5.145 55.763 5.11C55.869 5.074 55.957 5.04 56.063 5.004C57.931 4.334 59.412 4.298 60.381 4.986C60.434 5.022 60.487 5.056 60.54 5.11C62.937 7.015 60.91 13.649 55.957 21.923ZM39.405 15.307L39.37 15.343C39.387 15.325 39.387 15.307 39.405 15.307ZM18.217 5.092C18.957 4.475 20.033 4.352 21.39 4.633C23.91 5.18 27.4 7.209 31.35 10.367C31.314 10.527 31.296 10.667 31.296 10.844C31.296 12.167 32.477 13.19 33.799 13.19C34.064 13.19 34.311 13.155 34.539 13.067C35.509 13.931 36.479 14.849 37.466 15.837L37.572 15.748C37.801 15.978 38.048 16.208 38.277 16.436L37.854 16.86C36.179 16.895 34.575 17.23 33.094 17.795L33.218 17.742C33.112 17.742 32.9 17.83 32.759 17.936C30.9567 18.6788 29.3298 19.7907 27.983 21.2C27.172 21.27 26.361 21.341 25.585 21.43C25.532 21.43 25.479 21.447 25.427 21.447V21.429C24.492 21.518 23.576 21.606 22.677 21.712C17.794 13.525 15.837 6.998 18.217 5.092ZM17.777 37.59C17.724 37.202 17.582 36.831 17.336 36.55C16.454 35.526 14.991 35.367 13.951 36.25C13.828 36.337 13.722 36.443 13.616 36.55C8.45201 35.014 5.29601 33.003 5.29601 30.815C5.29601 27.728 11.906 24.887 21.778 23.405C22.624 24.746 23.523 26.122 24.492 27.516C24.2366 28.5975 24.1067 29.7048 24.105 30.816C24.105 31.68 24.193 32.526 24.334 33.356C24.157 33.603 23.999 33.85 23.823 34.096L23.805 34.062C22.8809 35.4332 21.9817 36.8211 21.108 38.225C19.9927 38.0385 18.8817 37.8268 17.776 37.59H17.777ZM18.217 55.656C15.978 53.663 17.635 47.646 22.042 39.954C23.946 40.201 25.938 40.413 28 40.572C30.415 43.095 33.764 44.735 37.483 44.912C36.6096 45.7499 35.7225 46.5733 34.822 47.382C34.4141 47.1292 33.9439 46.9949 33.464 46.994C33.1548 46.9896 32.8478 47.0472 32.5613 47.1636C32.2748 47.2799 32.0145 47.4526 31.7959 47.6713C31.5773 47.8901 31.4049 48.1505 31.2888 48.4371C31.1727 48.7238 31.1153 49.0308 31.12 49.34C31.12 49.693 31.19 50.028 31.314 50.328C25.233 55.162 20.244 57.35 18.217 55.656ZM40.974 44.647C43.8012 44.08 46.3856 42.6574 48.377 40.572C51.233 40.342 53.965 40.042 56.503 39.654C56.785 40.131 57.05 40.607 57.314 41.066C61.263 48.229 62.673 53.769 60.522 55.674C57.825 57.914 49.84 53.257 40.974 44.647Z"/>
<path d="M52.75 26.033C52.714 25.927 52.679 25.804 52.608 25.663L52.75 26.033ZM52.748 26.033C52.783 26.139 52.818 26.245 52.888 26.403L52.748 26.033Z"/>
</g>
<defs>
<clipPath id="clip0_1_183">
<rect width="76" height="60" fill="white"/>
</clipPath>
</defs>
</svg>
