<svg width="70" height="67" viewBox="0 0 70 67" xmlns="http://www.w3.org/2000/svg">
<g clip-path="url(#clip0_1_113)">
<path d="M14.04 50.887C14.04 50.887 13.19 48.741 12.17 47.794C10.985 46.699 9.27197 46.16 9.27197 46.16C9.27197 46.16 9.43897 47.455 10.923 49.019C12.399 50.591 14.041 50.887 14.041 50.887H14.04ZM18.107 53.667C17.114 54.641 16.5 55.692 16.5 55.692C16.5 55.692 18.028 55.822 20.188 54.545C22.348 53.276 23.104 51.504 23.104 51.504C23.104 51.504 20.434 51.93 19.09 52.842C18.994 52.912 18.897 52.972 18.81 53.051C19.731 52.138 20.083 51.304 20.083 51.304C20.083 51.304 17.536 51.712 16.253 52.581C14.778 53.589 13.786 55.292 13.786 55.292C13.786 55.292 15.244 55.422 17.308 54.206C17.606 54.032 17.861 53.85 18.107 53.667ZM52.996 52.581C51.714 51.712 49.167 51.304 49.167 51.304C49.167 51.304 49.519 52.121 50.423 53.034C50.335 52.972 50.256 52.903 50.168 52.851C48.825 51.938 46.147 51.513 46.147 51.513C46.147 51.513 46.902 53.285 49.062 54.553C51.222 55.831 52.75 55.701 52.75 55.701C52.75 55.701 52.144 54.649 51.16 53.685C51.398 53.867 51.653 54.041 51.934 54.206C53.997 55.423 55.455 55.292 55.455 55.292C55.455 55.292 54.472 53.588 52.996 52.581ZM55.21 50.887C55.21 50.887 56.86 50.592 58.336 49.027C59.812 47.463 59.987 46.169 59.987 46.169C59.987 46.169 58.284 46.707 57.098 47.802C56.071 48.741 55.21 50.887 55.21 50.887Z"/>
<path d="M60.172 49.218C58.653 49.401 56.51 50.73 56.51 50.73C56.51 50.73 56.642 50.791 56.87 50.87L55.246 50.887C55.211 50.878 55.193 50.878 55.193 50.878V50.887L52.769 50.922C53.7988 50.5462 54.7255 49.9329 55.474 49.132C57.029 47.489 57.213 46.116 57.213 46.116C57.213 46.116 55.413 46.672 54.157 47.836C53.252 48.671 52.48 50.4 52.251 50.93L50.188 50.956C51.1099 50.5548 51.9402 49.9695 52.628 49.236C54.262 47.506 54.455 46.064 54.455 46.064C54.455 46.064 52.567 46.655 51.25 47.872C50.372 48.68 49.608 50.279 49.31 50.965L47.562 50.991C48.3919 50.5803 49.1414 50.0242 49.775 49.349C51.496 47.533 51.689 46.021 51.689 46.021C51.689 46.021 49.705 46.647 48.326 47.915C47.466 48.705 46.71 50.226 46.359 51.008L45.445 51.018C38.991 40.103 39.887 31.232 41.941 27.652C44.19 23.759 49.871 25.089 50.354 28.364C50.908 34.873 45.358 33.1 44.91 31.91C44.005 28.19 47.588 30.32 47.64 29.833C47.992 28.417 43.206 26.827 43.03 31.249C42.855 35.663 47.395 36.411 48.747 36.332C71.677 33.856 69.35 0.836991 68.98 0.749991C68.612 0.662991 61.49 16.504 40.809 19.25C40.809 19.25 38.411 15.418 37.612 9.90899C37.208 8.84899 37.024 6.36399 33.854 5.26899C30.227 4.24299 29.296 6.98899 29.296 6.98899C29.296 6.98899 27.461 7.91899 27.548 8.31899C27.645 8.71899 29.384 8.27499 29.656 8.67499C29.919 9.07499 31.219 9.61299 31.176 10.178C30.543 16.947 28.444 19.25 28.444 19.25C7.76398 16.504 0.640983 0.662991 0.280983 0.749991C-0.0960167 0.836991 -2.42402 33.856 20.488 36.332C21.84 36.411 26.38 35.663 26.205 31.249C26.029 26.827 21.243 28.408 21.603 29.833C21.647 30.32 25.23 28.199 24.325 31.91C23.878 33.109 18.328 34.881 18.881 28.364C19.364 25.089 25.046 23.768 27.294 27.652C29.349 31.232 30.244 40.103 23.79 51.017L22.876 51.008C22.526 50.226 21.77 48.706 20.909 47.915C19.531 46.647 17.546 46.021 17.546 46.021C17.546 46.021 17.748 47.524 19.46 49.349C20.0959 50.0254 20.8486 50.5817 21.682 50.991L19.935 50.965C19.636 50.278 18.872 48.68 17.994 47.872C16.685 46.655 14.789 46.064 14.789 46.064C14.789 46.064 14.982 47.507 16.615 49.236C17.3003 49.9691 18.1283 50.5544 19.048 50.956L16.984 50.93C16.756 50.4 15.974 48.671 15.078 47.828C13.823 46.672 12.022 46.108 12.022 46.108C12.022 46.108 12.207 47.481 13.761 49.123C14.5141 49.9248 15.4432 50.5407 16.475 50.922L14.051 50.887C14.051 50.878 14.06 50.878 14.06 50.878C14.06 50.878 14.042 50.878 13.998 50.887L12.374 50.869C12.611 50.791 12.742 50.73 12.742 50.73C12.742 50.73 10.6 49.4 9.07998 49.22C7.33298 49.01 5.48898 49.636 5.48898 49.636C5.48898 49.636 6.48098 50.662 8.79898 51.096C10.433 51.4 11.733 51.096 12.347 50.888L13.691 50.958C12.997 51.096 11.469 51.453 10.6 52.052C9.26498 52.965 8.37798 54.502 8.37798 54.502C8.37798 54.502 9.69498 54.615 11.557 53.521C13.155 52.573 13.857 51.313 14.024 50.975L16.931 51.122C16.387 51.218 14.481 51.609 13.436 52.312C12.031 53.269 11.091 54.893 11.091 54.893C11.091 54.893 12.479 55.015 14.446 53.868C16.246 52.808 16.966 51.366 17.072 51.131L20.014 51.287C20.0407 51.2911 20.0671 51.2972 20.093 51.305C20.093 51.305 20.093 51.296 20.083 51.296L22.78 51.436C22.982 51.496 23.105 51.513 23.105 51.513L23.078 51.443L23.544 51.47C21.638 54.607 19.127 57.909 15.86 61.306C15.131 61.662 22.025 65.911 34.644 66.798L35.154 66.763C47.465 65.798 54.157 61.653 53.437 61.306C50.17 57.917 47.658 54.606 45.753 51.47L46.218 51.444L46.192 51.514C46.192 51.514 46.315 51.487 46.526 51.427L49.213 51.287C49.213 51.297 49.204 51.305 49.204 51.305C49.204 51.305 49.239 51.296 49.301 51.287L52.216 51.131C52.313 51.348 53.042 52.799 54.842 53.868C56.8 55.024 58.196 54.894 58.196 54.894C58.196 54.894 57.248 53.269 55.843 52.313C54.789 51.6 52.84 51.209 52.321 51.123L55.246 50.966C55.404 51.287 56.106 52.565 57.722 53.512C59.584 54.607 60.902 54.494 60.902 54.494C60.902 54.494 60.005 52.956 58.679 52.044C57.792 51.444 56.239 51.079 55.562 50.949L56.914 50.879C57.529 51.079 58.837 51.4 60.488 51.088C62.798 50.662 63.799 49.628 63.799 49.628C63.799 49.628 61.929 49.011 60.172 49.219V49.218Z"/>
</g>
<defs>
<clipPath id="clip0_1_113">
<rect width="70" height="67" fill="white"/>
</clipPath>
</defs>
</svg>
