<svg width="81" height="49" viewBox="0 0 81 49" xmlns="http://www.w3.org/2000/svg">
<g clip-path="url(#clip0_1_171)">
<path d="M67.43 48.058C66.997 47.748 66.581 47.273 66.053 46.824C65.576 46.435 64.892 46.168 64.519 45.806C63.8 45.106 64.147 43.89 63.575 42.915C63.133 42.802 62.77 42.604 62.423 42.405C61.748 39.437 61.462 36.08 59.296 34.595C56.013 34.483 53.25 34.035 51.96 32.136C51.336 31.23 51.258 30.074 50.72 29.021C50.539 28.667 49.742 28.054 49.811 27.666C49.829 27.597 50.149 27.468 50.245 27.468C50.66 27.485 51.154 28.288 51.371 28.512C51.847 28.995 52.289 29.401 52.678 29.746C53.579 30.531 54.506 31.454 55.736 31.774C57.694 32.274 60.249 32.102 62.267 32.568C63.012 34.535 63.159 36.831 64.087 38.574C64.433 39.238 65.082 39.679 65.247 40.386C64.546 41.827 65.923 42.5 67.057 42.776C67.083 44.71 67.144 46.599 67.647 48.058H67.43ZM64.736 45.529C65.178 45.365 65.42 44.735 65.68 44.295C65.966 43.838 66.4 43.32 66.338 42.992C65.845 43.882 65.169 44.58 64.736 45.529ZM0.541992 38.582V38.151C0.654992 36.874 1.49499 36.235 1.40799 34.967C1.93699 34.527 2.42199 34.035 3.22799 33.879C3.51299 33.301 3.65199 32.568 3.87699 31.929C5.46199 31.308 6.24999 31.014 7.73099 30.186C8.50199 29.754 9.34299 29.314 9.83599 28.952C10.668 28.348 11.101 27.476 12.019 27.364C12.366 27.321 12.755 27.442 13.11 27.433C15.692 27.355 18.394 26.863 21.106 26.63C21.686 27.96 22.206 29.349 22.699 30.755C22.309 31.998 21.071 31.835 19.65 31.549C18.3539 31.2877 17.0683 30.9769 15.796 30.617C15.172 30.436 14.419 30.099 13.907 30.108C13.44 30.117 12.842 30.445 12.314 30.618C11.759 30.79 11.257 30.988 10.78 31.196C9.75799 31.644 8.51099 32.006 7.80999 32.498C6.90899 33.128 6.28499 34.319 4.89899 33.871C5.18499 34.803 4.78599 35.907 4.82899 36.623C3.61699 37.503 2.21399 38.176 0.541992 38.582ZM15.068 27.657C14.288 27.709 13.301 27.727 12.816 28.089C14.488 27.899 16.558 27.718 17.97 27.511C16.983 27.571 15.96 27.597 15.068 27.657ZM1.84999 35.977C2.62999 35.933 3.34799 35.821 4.17099 35.83C3.60799 35.545 2.64699 35.657 1.84999 35.614V35.977Z"/>
<path d="M75.269 22.523C75.641 22.376 76.23 22.463 76.36 22.083C74.325 20.555 72.047 20.072 70.262 18.251C68.573 16.525 67.69 12.823 64.597 12.745C61.921 12.685 58.82 14.014 56.169 13.833C55.199 13.773 54.324 13.462 53.415 13.333C52.435 13.194 51.475 13.03 50.357 13.116C47.464 13.349 45.723 14.791 43.393 15.429C42.379 15.705 41.071 15.662 39.833 15.714C38.516 15.783 37.329 15.904 36.125 15.644C33.977 15.187 32.635 13.746 30.53 12.901C30.53 12.901 25.28 4.56401 18.004 4.29701C17.8684 4.30749 17.732 4.30448 17.597 4.28801C16.333 4.29701 15.007 4.55601 13.639 5.14301C13.388 5.29801 13.102 5.41001 12.816 5.53101C12.591 5.65101 12.356 5.78101 12.132 5.91901C11.9213 6.08986 11.7746 6.3271 11.716 6.59201C11.577 6.51501 11.56 6.30801 11.43 6.23001C11.595 6.18701 11.76 6.11001 11.924 6.01401L12.149 5.70401C12.149 5.70401 14.939 3.58101 19.053 4.09001C19.313 4.07301 19.529 4.07301 19.642 4.14201C19.607 4.12401 19.512 4.12401 19.382 4.14201C19.632 4.18501 19.902 4.22801 20.162 4.29701C20.205 4.28801 20.292 4.28001 20.43 4.28801C20.612 4.30601 20.785 4.42601 20.94 4.35801C20.8458 4.40256 20.7421 4.42317 20.638 4.41801C22.778 5.02201 25.194 6.37701 27.706 9.04301C28.113 8.54301 29.871 8.68101 30.383 8.77601C29.352 8.72401 28.52 8.87901 27.723 9.06001C28.8122 10.2321 29.8086 11.4873 30.703 12.814C31.777 12.279 33.561 12.469 34.159 11.46C34.168 11.166 33.657 11.39 33.432 11.313C35.147 10.813 37.858 10.579 37.061 8.05901C36.065 7.90401 34.35 8.05901 33.571 7.47301C32.808 6.90301 32.254 5.38401 31.249 4.79701C30.365 4.28001 28.988 4.07301 27.767 3.77901C26.649 3.52001 25.021 3.32201 24.354 2.69201C23.99 2.35501 23.912 1.64801 23.548 1.38901C23.054 1.02601 21.842 1.00001 21.582 0.889008H19.624C15.311 1.17301 12.288 2.74401 10.252 5.29801C9.76233 5.27164 9.27152 5.32123 8.79701 5.44501C8.72701 6.29001 9.68901 6.48001 9.73201 6.97201C9.23001 6.95501 8.76201 6.96301 8.42401 7.11901C8.53701 7.83501 9.29101 7.90401 9.66301 8.35301C9.74101 9.05201 9.81901 9.74301 10.321 10.018C10.607 9.56101 10.651 8.85301 10.754 8.21501C11.006 8.62901 10.564 9.31901 10.607 10.096C10.633 10.493 10.807 12.219 11.049 12.556C11.291 12.901 11.673 12.806 11.984 13.065C12.357 13.807 12.444 14.592 12.79 15.377C13.11 16.119 13.5 16.542 13.154 17.621C13.31 17.915 13.847 17.854 14.098 18.053C14.462 18.639 14.661 18.795 15.042 18.7C15.882 18.501 15.189 17.026 15.986 17.034C16.446 17.043 16.272 17.759 16.706 17.759C17.146 17.75 16.887 17.474 16.991 17.034C17.086 16.664 17.311 16.422 17.285 16.163C17.242 15.705 16.454 15.446 16.341 14.86C16.203 14.187 16.61 13.78 16.558 13.056C16.315 12.936 16.125 13.488 15.614 13.341C16.289 12.659 17.251 11.969 17.433 10.812C17.675 9.27601 16.792 8.43101 16.125 7.48201C17.632 7.81801 18.23 10.484 17.216 11.822C17.684 12.754 18.429 13.402 19.243 13.997C19.659 16.404 20.127 18.769 20.993 20.719C22.206 19.468 23.479 18.277 24.986 17.319C23.556 18.941 20.915 19.804 20.638 22.393C20.308 25.276 22.136 27.821 22.734 30.273C23.124 30.117 23.323 29.746 23.392 29.253C23.452 28.84 23.098 28.123 23.609 27.951C23.989 27.847 23.713 28.451 23.679 28.607C23.479 29.642 23.964 30.013 24.189 30.635C23.921 30.747 23.817 30.143 23.6 29.979C22.812 30.919 22.041 31.843 21.2 32.654C20.387 33.448 19.425 34.363 18.446 34.898C17.831 35.226 16.948 35.312 16.48 35.838C16.116 36.252 15.83 37.107 15.83 38.013C15.83 38.824 16.246 39.437 16.48 40.403C16.688 41.293 16.497 42.242 16.627 43.01C16.757 43.743 17.398 44.64 17.935 44.89C18.732 45.253 19.615 44.692 20.551 45.176C21.149 45.486 21.253 46.599 22.154 46.763C22.604 46.841 22.934 46.625 23.314 46.617C23.964 46.6 24.432 46.815 25.203 46.979C24.414 45.478 23.488 44.106 22.587 42.716C21.582 42.509 21.504 43.226 20.551 43.079C20.196 42.345 19.581 41.879 18.879 41.491C19.209 40.551 18.602 39.721 18.732 38.962C18.767 38.729 19.538 37.478 19.754 37.297C20.04 37.037 20.802 36.813 21.348 36.58C22.812 35.933 24.873 35.191 25.922 34.268C27.23 34.587 27.611 33.258 28.104 32.171C28.477 31.325 28.728 30.289 29.412 30.143C29.386 30.747 28.702 31.316 28.538 32.024C36.914 33.129 44.285 29.987 50.106 27.468C49.629 26.846 49.006 26.19 48.296 25.724C47.576 25.276 46.624 25.051 46.26 24.421C47.481 25.025 48.39 25.361 49.092 25.949C50.244 26.907 51.067 28.374 52.436 29.495C53.466 30.333 54.983 31.403 56.36 31.731C58.032 32.136 59.98 31.877 61.592 32.171C62.527 32.335 63.8 32.758 64.346 33.258C64.779 33.646 65.108 34.458 65.506 35.139C66.105 36.132 66.598 36.719 66.746 37.969C67.161 39.092 68.322 38.496 69.145 39.273C69.405 39.514 69.509 40.033 69.734 40.36C70.141 40.956 70.904 41.741 71.622 41.732C71.96 41.724 72.185 41.43 72.497 41.362C73.337 41.197 74.195 41.586 75.329 41.439C74.472 40.075 73.077 38.617 71.995 37.236C71.51 37.383 71.059 37.521 70.461 37.383C70.306 36.287 69.751 35.588 68.721 35.355C68.105 33.172 66.572 31.903 66.399 29.28C65.541 28.719 64.251 28.624 62.909 28.417C61.895 28.261 59.919 28.253 59.349 27.614C58.595 26.777 59.279 23.955 59.279 22.626C59.253 19.968 58.491 17.5 57.313 16.258C59.478 15.774 61.02 17.466 62.103 18.941C62.995 20.132 63.644 21.487 64.424 22.488C66.009 24.498 68.564 26.751 71.683 26.967C71.917 26.993 72.125 26.984 72.341 26.967C74.914 26.803 76.664 25.526 80.181 26.035V25.888C78.855 24.448 77.374 23.17 75.269 22.523ZM26.762 7.82601C27.221 7.42101 28.234 7.41201 29.014 7.54201C29.092 7.53301 29.135 7.55901 29.161 7.61101C28.182 7.47301 27.334 7.81801 26.762 7.82601ZM32.271 7.47301C31.361 7.47301 30.504 6.62701 29.438 6.38501C28.702 6.22101 27.862 6.28201 27.186 6.38501C26.597 6.48001 25.904 6.98901 25.376 6.53201C27.619 5.13401 30.573 6.43801 32.271 7.47301ZM16.515 2.62301C16.645 2.59701 16.272 3.51201 16.515 3.85701C16.385 3.84801 16.359 3.94301 16.229 3.92601C16.142 3.50301 16.315 2.96801 16.515 2.62301ZM15.354 2.83801C15.363 2.88201 15.059 3.84001 14.921 4.21101C14.505 3.76101 15.189 3.19201 15.354 2.83801ZM14.194 3.20101C14.254 3.39901 13.951 3.70101 13.829 4.07301C13.751 4.30601 13.968 4.78901 13.544 4.72801C13.509 3.96001 13.934 3.66701 14.194 3.20101ZM13.032 3.84801C12.963 4.13301 12.79 4.96101 12.452 5.22001C12.357 4.77201 12.816 4.23601 13.032 3.84801ZM12.669 11.528C12.53 11.287 12.426 10.769 12.738 10.657C13.093 10.666 13.024 11.088 13.24 11.235C13.188 11.305 12.565 11.097 12.669 11.528ZM13.249 12.392C12.851 12.461 12.963 12.003 12.747 11.891C12.903 11.736 13.414 11.917 13.249 11.451C13.362 11.356 13.526 12.279 13.249 12.391V12.392ZM16.731 38.505C16.376 37.789 16.731 36.572 17.285 36.278C17.025 36.442 16.541 37.495 16.731 38.505ZM21.383 43.501C21.521 44.14 21.677 45.141 21.53 45.814C21.192 45.322 21.478 44.234 21.383 43.501ZM19.573 35.036C20.439 34.096 21.503 33.353 22.474 32.507C21.834 33.103 20.691 34.44 19.573 35.036ZM72.22 41.042C71.787 40.119 71.7 38.859 71.562 37.642C71.769 38.729 72.202 39.998 72.22 41.042ZM65.533 29.685C64.857 29.789 63.713 29.142 62.7 29.099C63.618 29.047 64.753 29.366 65.533 29.685ZM53.19 16.37C55.719 16.387 56.446 19.589 56.75 21.573C56.005 19.399 55.225 17.267 53.19 16.37ZM69.024 18.104C69.414 18.381 69.414 18.554 69.024 18.174C67.43 16.68 66.416 14.601 64.303 13.617C66.746 13.953 67.699 16.404 69.024 18.104ZM59.365 14.851C60.405 14.877 61.115 15.869 61.765 16.516C61.271 16.223 60.292 15.188 59.365 14.851ZM61.175 14.558C63.195 15.11 64.112 17.379 65.533 18.76C64.113 17.621 63.072 15.464 61.175 14.558ZM62.493 13.902C65.203 14.747 66.754 17.379 68.591 19.33C66.451 17.621 64.97 15.265 62.493 13.902ZM66.338 22.307C68.209 24.033 71.163 25.31 75.2 25.129C71.154 26.052 68.131 24.318 66.338 22.307ZM75.268 24.611C73.441 23.981 70.912 24.033 69.751 22.73C70.99 23.696 73.415 23.688 75.052 24.395C75.096 24.421 75.416 24.482 75.269 24.611H75.268Z"/>
</g>
<defs>
<clipPath id="clip0_1_171">
<rect width="81" height="49" fill="white"/>
</clipPath>
</defs>
</svg>
