<svg width="69" height="70" viewBox="0 0 69 70" xmlns="http://www.w3.org/2000/svg">
<g clip-path="url(#clip0_1_109)">
<path d="M62.078 14.337C58.16 16.241 55.076 16.801 54.948 16.778C55.695 16.569 56.4372 16.3433 57.174 16.101C57.1991 16.0877 57.2267 16.0795 57.255 16.077L57.568 15.972C57.626 15.949 57.684 15.937 57.742 15.914L57.951 15.844C58.044 15.809 58.136 15.774 58.229 15.75L58.334 15.715C65.464 13.088 67.724 9.736 68.559 7.81C68.373 7.623 62.646 11.488 57.673 14.057C58.5492 13.5643 59.4039 13.0345 60.235 12.469C60.246 12.457 60.258 12.446 60.281 12.434C60.351 12.387 60.431 12.329 60.501 12.282C60.559 12.235 60.629 12.2 60.687 12.154C60.71 12.13 60.745 12.119 60.768 12.095C64.872 9.211 68.397 5.615 67.736 4.657C67.341 4.295 55.992 14.197 54.322 14.407C55.632 13.812 58.02 11.967 60.269 9.888C60.281 9.877 60.293 9.865 60.316 9.853C60.386 9.795 60.443 9.736 60.513 9.666C60.548 9.631 60.583 9.596 60.629 9.561C60.675 9.526 60.71 9.48 60.757 9.445C60.814 9.386 60.872 9.328 60.942 9.269L61 9.211C63.817 6.491 66.228 3.571 65.59 2.66C65.568 2.637 65.556 2.613 65.521 2.59C65.347 2.438 58.565 9.398 54.137 13.006C54.148 13.006 54.148 12.995 54.16 12.995C54.1731 12.9806 54.1887 12.9688 54.206 12.96C54.229 12.936 54.264 12.913 54.299 12.878L54.311 12.866C55.0487 12.2012 55.7564 11.5039 56.432 10.776C56.49 10.717 56.548 10.647 56.606 10.589L56.652 10.542C56.699 10.496 56.734 10.449 56.78 10.402C56.815 10.367 56.838 10.332 56.873 10.297C56.896 10.262 56.931 10.239 56.953 10.204C57 10.157 57.047 10.098 57.093 10.052C57.1074 10.0386 57.1193 10.0227 57.128 10.005C59.922 6.91 63.156 2.613 62.553 0.791004C62.194 0.511004 59.806 4.961 55.586 10.133C56.583 8.603 57.418 6.793 58.009 5.147C58.0219 5.12143 58.0297 5.09357 58.032 5.065C58.044 5.019 58.067 4.972 58.078 4.925C58.102 4.867 58.113 4.809 58.136 4.75C58.136 4.738 58.148 4.715 58.148 4.703C58.82 2.742 59.122 1.095 58.913 0.535004C58.647 0.441004 58.218 1.515 58.218 1.515C58.136 1.691 58.044 1.865 57.962 2.041C57.928 2.111 57.892 2.181 57.87 2.239C57.823 2.345 57.765 2.449 57.719 2.555C57.684 2.625 57.649 2.707 57.603 2.777L57.464 3.057C57.429 3.139 57.383 3.22 57.348 3.29C57.302 3.372 57.267 3.454 57.221 3.536C57.186 3.617 57.139 3.699 57.105 3.781C57.07 3.851 57.035 3.921 57 3.979C56.92 4.155 56.826 4.319 56.745 4.493C56.722 4.552 56.687 4.61 56.664 4.657L56.524 4.937C56.502 4.995 56.467 5.042 56.444 5.1L56.304 5.38L56.235 5.52C56.189 5.614 56.131 5.708 56.085 5.801C56.073 5.836 56.05 5.86 56.038 5.895C55.864 6.222 55.702 6.537 55.54 6.852C55.528 6.875 55.505 6.91 55.493 6.934C55.447 7.027 55.4 7.109 55.354 7.202C55.331 7.237 55.319 7.272 55.296 7.308C55.2469 7.39199 55.2002 7.47736 55.156 7.564C55.134 7.599 55.122 7.634 55.099 7.67L54.959 7.915C54.949 7.938 54.937 7.961 54.925 7.985C54.821 8.16 54.728 8.347 54.624 8.51C54.612 8.522 54.612 8.534 54.6 8.545C54.566 8.615 54.52 8.674 54.484 8.744C54.4642 8.7906 54.4372 8.83379 54.404 8.872L54.299 9.047C54.276 9.094 54.241 9.141 54.218 9.199C54.183 9.258 54.148 9.304 54.125 9.363C54.09 9.421 54.055 9.468 54.032 9.526C54.009 9.573 53.974 9.62 53.952 9.666C53.905 9.748 53.847 9.842 53.801 9.923C53.789 9.947 53.777 9.97 53.766 9.982C53.708 10.075 53.661 10.157 53.603 10.25C53.592 10.274 53.569 10.309 53.557 10.332C53.511 10.402 53.464 10.472 53.429 10.542C53.418 10.566 53.395 10.589 53.383 10.624L53.244 10.834C53.232 10.858 53.221 10.869 53.209 10.893C53.151 10.986 53.093 11.068 53.047 11.149C52.931 11.336 52.815 11.511 52.699 11.687C52.699 11.687 52.699 11.698 52.688 11.698C52.629 11.78 52.583 11.862 52.525 11.932C52.514 11.943 52.514 11.955 52.502 11.955C52.479 11.99 52.456 12.014 52.432 12.049C52.421 12.06 52.432 12.049 52.386 12.119C50.264 15.189 48.699 16.323 46.462 18.448C42.612 22.103 40.236 27.183 35.645 30.686C35.587 30.733 35.495 30.814 35.402 30.896C35.46 30.814 35.495 30.698 35.448 30.593C35.413 30.499 35.332 30.429 35.182 30.347C35.147 30.324 35.089 30.312 35.031 30.289L34.881 30.23L34.591 30.125L34.312 30.02C34.219 29.985 34.115 29.95 34.022 29.915C33.952 29.892 33.883 29.857 33.814 29.834C33.454 29.694 33.094 29.541 32.782 29.401C32.747 29.39 32.712 29.366 32.677 29.355C32.6615 29.3404 32.6413 29.3318 32.62 29.331C32.608 29.32 32.596 29.32 32.585 29.308C32.573 29.296 32.55 29.296 32.527 29.285C32.469 29.25 32.411 29.215 32.341 29.168C32.33 29.156 32.318 29.156 32.306 29.145C32.283 29.133 32.272 29.121 32.249 29.11C32.1214 29.0336 31.9973 28.9515 31.877 28.864L31.75 28.782C31.6593 28.7264 31.5702 28.668 31.483 28.607C31.4199 28.5745 31.3582 28.5395 31.298 28.502C31.24 28.467 31.17 28.432 31.112 28.386C31.078 28.362 31.032 28.339 30.996 28.316C30.95 28.292 30.904 28.257 30.857 28.234C30.799 28.199 30.753 28.175 30.695 28.14C30.555 28.058 30.405 27.988 30.266 27.918C30.2038 27.8801 30.1378 27.8489 30.069 27.825C30.057 27.813 30.034 27.813 30.023 27.802C29.8732 27.7313 29.718 27.6724 29.559 27.626C29.5344 27.6115 29.5065 27.6036 29.478 27.603C29.385 27.568 29.281 27.545 29.188 27.521C29.084 27.498 28.991 27.475 28.898 27.463C28.8136 27.4496 28.7284 27.4419 28.643 27.44H28.075C27.971 27.44 27.878 27.44 27.797 27.451H27.692C27.612 27.463 27.53 27.463 27.46 27.475C27.1937 27.5026 26.9426 27.6127 26.742 27.79C26.7198 27.8251 26.7077 27.8655 26.707 27.907V27.918C26.707 27.953 26.695 27.977 26.707 28.012C26.637 28.058 26.452 28.164 26.162 28.245C25.791 28.339 24.33 27.977 24.249 29.74C25.014 29.32 26.974 30.242 27.403 30.359C27.437 30.324 27.449 30.289 27.46 30.23H27.472C27.472 30.289 27.46 30.347 27.449 30.406L27.519 30.441C27.5525 30.465 27.5833 30.4925 27.611 30.523C27.669 30.581 27.727 30.651 27.785 30.733C28.04 31.083 28.33 31.667 28.62 32.309C28.655 32.391 28.69 32.473 28.736 32.566C28.759 32.624 28.794 32.694 28.816 32.753C28.84 32.811 28.863 32.858 28.886 32.916L28.956 33.092C29.037 33.278 29.106 33.453 29.176 33.629C29.211 33.71 29.234 33.781 29.269 33.862C29.327 34.002 29.373 34.131 29.431 34.259C29.501 34.434 29.559 34.586 29.617 34.738C29.709 35.007 29.791 35.194 29.826 35.31L29.872 35.439C29.872 35.439 29.953 35.626 30.069 35.742C30.173 35.847 30.301 35.906 30.452 35.754C30.324 35.941 30.289 35.987 30.289 35.987C30.289 35.987 29.176 38.767 18.429 47.057C16.424 49.767 14.082 51.916 11.786 53.632L11.299 53.982C11.253 54.018 11.207 54.052 11.16 54.076C11.102 54.123 11.044 54.158 10.986 54.205C10.882 54.275 10.778 54.345 10.685 54.415C10.6591 54.4261 10.6354 54.4417 10.615 54.461C10.511 54.531 10.418 54.601 10.314 54.66C10.291 54.672 10.268 54.683 10.256 54.707C5.43299 57.953 1.08599 59.331 0.505988 59.927L0.493988 59.938L0.459988 59.973C0.459988 59.985 0.447988 59.985 0.447988 59.996C0.447988 59.996 0.447988 60.008 0.435988 60.008C0.435988 60.02 0.435988 60.02 0.424988 60.032V60.078C0.667988 60.405 3.53199 60.265 7.34599 58.175C7.34599 58.175 8.11099 58.21 12.25 54.461C7.41599 59.891 0.389988 63.056 0.714988 63.687C0.992988 64.247 6.70799 62.157 11.265 56.972C4.92299 64.842 2.02499 66.069 2.59299 66.722C3.07999 67.097 9.40999 63.78 13.931 55.477C13.838 57.907 4.14599 68.357 4.63299 68.883C4.89999 69.152 9.03899 67.026 12.586 60.989C12.273 61.596 11.914 62.262 11.508 63.021C9.74599 67.015 7.44999 69.128 7.85599 69.654C8.21599 70.331 14.059 64.901 15.96 58.023C15.693 59.144 15.45 59.705 14.244 62.881C13.653 67.155 12.053 68.159 12.227 68.311C12.389 68.463 16.331 68.404 17.884 56.528C17.455 61.374 15.566 67.412 15.67 67.552C15.774 67.692 19.136 67.05 19.74 56.505C19.658 62.963 18.174 65.765 18.916 65.859C20.516 65.765 21.966 59.611 21.374 56.505C22.104 59.95 21.026 62.998 21.467 63.278C21.907 63.558 24.006 60.58 23.078 56.178C24.191 59.529 22.962 61.234 23.635 61.48C24.307 61.725 25.513 58.455 25.049 55.43C25.768 57.042 25.165 59.693 25.501 59.786C26.637 59.681 26.985 55.793 26.753 54.391C27.472 54.951 26.788 58.116 27.403 58.327C28.017 58.537 28.77 55.676 28.411 53.27C28.805 53.247 28.84 56.773 29.315 56.832C29.988 56.925 30.138 54.134 29.849 52.289C30.324 52.849 30.347 55.886 30.799 55.886C30.799 55.886 32.051 55.653 31.252 51.296C32.446 52.955 31.588 55.127 32.272 55.127C33.373 55.08 33.06 51.939 32.608 50.619C33.663 51.647 33.164 54.391 33.79 54.181C34.069 54.029 34.753 53.574 34.022 49.942C35.077 51.355 34.544 53.352 35.228 53.609C35.24 53.609 35.251 53.621 35.274 53.621C35.704 53.691 35.866 52.184 35.727 50.818C35.924 51.484 36.155 52.161 36.364 52.488C36.422 52.616 36.492 52.686 36.596 52.675C37.593 52.581 36.353 48.575 36.353 48.575C36.353 48.575 37.57 51.881 37.999 51.682C38.81 51.075 37.431 47.852 37.431 47.852C37.431 47.852 38.88 50.806 39.181 50.678C39.901 50.292 38.497 47.186 38.497 47.186C38.497 47.186 39.935 49.674 40.155 49.486C40.885 49.148 39.657 46.451 39.657 46.451C39.657 46.451 40.642 48.237 40.851 48.097C40.967 48.015 40.886 47.385 40.793 46.836C41.257 49.113 42.706 55.641 43.981 55.676C44.364 55.571 44.584 53.527 44.248 52.791C44.097 52.57 43.679 51.531 43.228 50.339C44.271 52.919 45.616 55.746 46.566 55.839C46.891 55.816 46.694 53.621 46.323 52.827C47.401 54.508 48.398 55.757 48.885 55.536C49.279 55.384 48.468 52.78 47.992 52.138C47.8174 51.9037 47.6473 51.666 47.482 51.425C49.024 53.41 50.496 55.057 50.949 54.765C51.354 54.496 50.183 52.255 49.731 51.612C49.627 51.472 49.267 51.052 48.769 50.491C50.589 52.348 52.293 53.866 52.664 53.504C52.989 53.165 51.69 51.004 50.937 50.328C50.705 50.118 49.975 49.475 49.082 48.693C51.354 50.596 53.65 52.301 53.986 51.823C54.253 51.46 52.409 49.277 51.783 48.798C51.667 48.716 51.377 48.506 50.972 48.214C52.885 49.417 54.566 50.304 54.89 49.919C55.145 49.463 52.792 47.385 52.293 46.988C52.1921 46.9076 52.0836 46.8373 51.969 46.778C53.731 47.595 55.18 48.085 55.296 47.607C55.436 47.14 53.105 45.353 52.398 44.979C52.1611 44.8707 51.921 44.7697 51.678 44.676C53.488 45.213 54.995 45.493 55.145 44.979C54.635 43.356 49.673 42.049 47.076 41.476C47.343 41.499 47.54 41.476 47.586 41.371C47.691 41.079 45.824 39.958 45.824 39.958C45.824 39.958 48.56 41.464 48.989 40.6C49.059 40.367 46.578 38.919 46.578 38.919C46.578 38.919 49.858 40.519 50.148 39.561C50.288 39.071 47.215 38.124 47.146 37.786C47.216 37.622 50.914 39.654 51.18 38.346C51.261 37.716 47.656 36.992 47.9 36.676C48.062 36.49 51.876 38.124 52.108 36.91C52.201 36.466 48.421 36.233 48.479 35.614C48.491 35.567 50.149 36.093 51.459 36.186H51.47C51.517 36.186 51.563 36.186 51.598 36.198H52.108C52.143 36.198 52.189 36.186 52.224 36.186C52.235 36.186 52.259 36.186 52.27 36.174C52.305 36.174 52.34 36.163 52.386 36.151C52.398 36.151 52.409 36.151 52.432 36.139C52.467 36.128 52.502 36.128 52.537 36.116C52.548 36.116 52.56 36.104 52.572 36.104C52.606 36.093 52.629 36.081 52.664 36.069C52.676 36.069 52.687 36.058 52.699 36.058L52.769 36.023C52.78 36.011 52.792 36.011 52.803 35.999C52.8245 35.9863 52.8441 35.9705 52.861 35.952C52.873 35.941 52.885 35.941 52.896 35.929C52.9144 35.9121 52.9303 35.8926 52.943 35.871C52.954 35.859 52.966 35.847 52.966 35.836L53.001 35.766C53.001 35.754 53.012 35.742 53.012 35.731C53.024 35.696 53.035 35.661 53.047 35.614C53.082 34.994 49.639 35.112 49.244 34.318H49.256C49.267 34.318 49.267 34.318 49.279 34.329C49.592 34.376 51.377 34.726 52.549 34.633H52.56C52.606 34.633 52.664 34.621 52.71 34.621H52.734C52.78 34.621 52.815 34.61 52.861 34.598C52.873 34.598 52.885 34.598 52.896 34.586C52.931 34.575 52.966 34.575 53.001 34.563C53.012 34.563 53.035 34.551 53.047 34.551C53.07 34.539 53.105 34.539 53.128 34.528C53.14 34.528 53.163 34.516 53.174 34.516C53.198 34.505 53.221 34.493 53.244 34.493C53.256 34.481 53.279 34.481 53.29 34.469C53.314 34.458 53.325 34.446 53.337 34.446C53.348 34.434 53.371 34.423 53.383 34.411L53.418 34.376C53.429 34.364 53.453 34.353 53.464 34.341C53.476 34.329 53.476 34.318 53.487 34.306C53.499 34.294 53.511 34.271 53.522 34.259C53.534 34.248 53.534 34.236 53.534 34.224C53.5461 34.2113 53.5541 34.1953 53.557 34.178C53.569 34.143 53.569 34.119 53.58 34.084C53.603 33.64 49.94 33.699 49.859 32.998C49.859 32.998 49.882 33.01 49.905 33.01C49.917 33.01 49.917 33.021 49.928 33.021C50.044 33.056 50.276 33.103 50.566 33.161C51.505 33.337 53.116 33.535 53.963 33.173C53.974 33.173 53.974 33.173 53.986 33.162C54.021 33.15 54.056 33.127 54.09 33.115C54.102 33.103 54.113 33.103 54.125 33.092C54.148 33.08 54.172 33.057 54.206 33.045C54.2193 33.0305 54.2353 33.0186 54.253 33.01C54.276 32.998 54.287 32.975 54.311 32.963L54.357 32.916C54.368 32.905 54.38 32.893 54.392 32.87C54.403 32.846 54.415 32.823 54.438 32.8C54.45 32.788 54.45 32.776 54.461 32.765C54.4746 32.7344 54.4863 32.703 54.496 32.671C54.496 32.659 54.508 32.648 54.508 32.648C54.519 32.601 54.531 32.566 54.531 32.519C54.461 32.052 51.192 32.368 50.531 31.573C50.543 31.585 50.566 31.585 50.601 31.597C50.971 31.725 52.653 32.052 53.916 31.865H53.928C53.986 31.854 54.032 31.842 54.09 31.842H54.113C54.16 31.83 54.218 31.819 54.264 31.807H54.287L54.427 31.772C54.438 31.772 54.438 31.772 54.45 31.76C54.496 31.749 54.542 31.725 54.577 31.714C54.589 31.714 54.589 31.702 54.6 31.702C54.647 31.69 54.682 31.667 54.716 31.643C54.728 31.643 54.728 31.632 54.739 31.632C54.774 31.608 54.809 31.597 54.844 31.573C54.855 31.573 54.855 31.562 54.867 31.562C54.902 31.538 54.937 31.515 54.96 31.492L54.983 31.468C55.0124 31.4476 55.0396 31.4242 55.064 31.398L55.087 31.375C55.11 31.352 55.134 31.317 55.157 31.293C55.169 31.282 55.169 31.27 55.18 31.258C55.203 31.235 55.215 31.2 55.238 31.176C55.2642 31.1368 55.2838 31.0936 55.296 31.048C55.296 30.651 53.163 30.896 51.667 30.242C51.702 30.254 51.737 30.265 51.772 30.265H51.783C51.818 30.277 51.841 30.277 51.876 30.289C51.899 30.289 51.934 30.301 51.969 30.301C51.98 30.301 51.992 30.301 52.004 30.312C52.224 30.347 52.49 30.382 52.792 30.394H52.803C52.85 30.394 52.908 30.394 52.954 30.406H53.673C54.833 30.382 56.038 30.172 56.165 29.553C56.2 29.168 55.319 28.934 52.479 28.701C52.827 28.689 54.461 28.853 55.806 28.631H55.818L55.992 28.596H56.015C56.073 28.584 56.119 28.572 56.177 28.561C56.189 28.561 56.2 28.549 56.212 28.549L56.351 28.514C56.363 28.514 56.386 28.502 56.397 28.502C56.444 28.491 56.478 28.479 56.525 28.467C56.548 28.456 56.56 28.456 56.583 28.444C56.618 28.432 56.664 28.421 56.699 28.397C56.722 28.386 56.734 28.386 56.757 28.374C56.7937 28.3632 56.8287 28.3474 56.861 28.327C56.884 28.315 56.896 28.304 56.919 28.292C56.954 28.28 56.977 28.257 57.012 28.245C57.035 28.234 57.047 28.222 57.07 28.21C57.093 28.199 57.128 28.175 57.15 28.164C57.174 28.152 57.186 28.14 57.209 28.117C57.232 28.105 57.255 28.082 57.279 28.07C57.302 28.058 57.313 28.035 57.336 28.023C57.36 28.012 57.371 27.988 57.394 27.977C57.418 27.953 57.429 27.93 57.452 27.918C57.464 27.907 57.476 27.883 57.487 27.872C57.51 27.848 57.522 27.813 57.533 27.79C57.545 27.778 57.557 27.767 57.557 27.743C57.5812 27.6985 57.6007 27.6516 57.615 27.603C57.464 27.113 55.563 27.346 54.38 27.218H54.415C54.45 27.218 54.473 27.218 54.508 27.229C54.542 27.229 54.578 27.229 54.624 27.241H54.67C55.5081 27.2804 56.3476 27.1979 57.162 26.996C57.221 26.984 57.279 26.961 57.336 26.949C57.348 26.949 57.371 26.937 57.383 26.937C57.429 26.926 57.476 26.902 57.522 26.891C57.5471 26.8777 57.5747 26.8696 57.603 26.867C57.638 26.856 57.684 26.844 57.719 26.821L57.823 26.786C57.858 26.774 57.881 26.762 57.916 26.751C57.9569 26.7361 57.9959 26.7163 58.032 26.692L58.102 26.657C58.148 26.634 58.182 26.61 58.229 26.587C58.252 26.575 58.264 26.564 58.287 26.552C58.334 26.529 58.368 26.494 58.415 26.47C58.426 26.459 58.449 26.447 58.461 26.435C58.507 26.4 58.542 26.377 58.589 26.342C58.6 26.33 58.612 26.33 58.623 26.319C58.67 26.284 58.704 26.249 58.751 26.213L58.774 26.19C58.8186 26.1531 58.8576 26.11 58.89 26.062C58.89 26.05 58.901 26.05 58.901 26.038L59.006 25.898L59.017 25.887C59.052 25.828 59.087 25.781 59.122 25.723C59.075 25.233 56.884 26.167 54.566 25.303H54.624C54.821 25.291 55.099 25.291 55.424 25.291C57.058 25.314 59.91 25.373 60.664 24.018C60.675 24.006 60.675 23.983 60.687 23.971C60.7108 23.9348 60.7303 23.8958 60.745 23.855C60.7712 23.795 60.7907 23.7323 60.803 23.668C60.791 23.318 58.612 24.217 55.238 23.341C55.238 23.329 55.261 23.329 55.308 23.329H55.366C56.154 23.411 60.316 24.369 62.507 21.577C62.38 21.18 59.412 22.173 55.517 21.542C55.539 21.542 55.563 21.554 55.586 21.554C56.108 21.613 56.919 21.636 57.835 21.589H58.148C61.046 21.426 64.872 20.69 64.976 18.915C63.04 19.382 61.069 19.511 61.069 19.511L59.991 19.581C61.661 19.148 66.344 17.759 66.565 15.704C66.565 15.505 64.385 16.731 61.869 16.942C58.125 17.864 55.829 18.121 55.469 18.168H55.493C56.073 18.086 59.563 17.56 62.6 16.393H62.611C62.693 16.358 62.774 16.323 62.855 16.299C62.867 16.299 62.867 16.288 62.878 16.288C62.959 16.253 63.028 16.229 63.11 16.194C63.121 16.194 63.133 16.182 63.145 16.182C63.215 16.147 63.295 16.124 63.365 16.089C63.377 16.089 63.388 16.077 63.4 16.077C63.47 16.042 63.539 16.019 63.62 15.984C63.632 15.972 63.643 15.972 63.666 15.961L63.876 15.855C63.886 15.844 63.898 15.844 63.91 15.832C63.98 15.797 64.06 15.762 64.13 15.727C64.142 15.727 64.153 15.715 64.153 15.715C64.397 15.587 64.64 15.458 64.86 15.33C64.93 15.283 65 15.248 65.08 15.201C65.092 15.19 65.116 15.178 65.127 15.166C65.185 15.132 65.243 15.096 65.29 15.061C65.3116 15.0492 65.3309 15.0336 65.347 15.015L65.487 14.91C65.51 14.898 65.533 14.875 65.557 14.863C65.603 14.828 65.649 14.793 65.684 14.77C65.707 14.758 65.73 14.734 65.754 14.711C65.788 14.676 65.834 14.653 65.869 14.618C65.892 14.594 65.915 14.583 65.939 14.559C65.9747 14.5245 66.0135 14.4934 66.055 14.466C66.078 14.443 66.101 14.431 66.113 14.408C66.147 14.372 66.183 14.338 66.217 14.314L66.275 14.256L66.379 14.151L66.437 14.092C66.472 14.057 66.495 14.022 66.53 13.987C66.541 13.964 66.565 13.952 66.576 13.929C66.611 13.894 66.634 13.859 66.658 13.824C66.669 13.8 66.692 13.777 66.704 13.765C66.727 13.73 66.762 13.695 66.785 13.648C66.797 13.625 66.808 13.602 66.831 13.59C66.855 13.555 66.878 13.508 66.901 13.473C66.91 13.4522 66.9218 13.4327 66.936 13.415C66.959 13.38 66.982 13.333 67.006 13.298C67.016 13.275 67.028 13.263 67.04 13.24C67.063 13.193 67.075 13.158 67.098 13.111C67.11 13.088 67.121 13.076 67.121 13.053C67.144 13.006 67.156 12.959 67.168 12.924C67.179 12.901 67.179 12.889 67.191 12.866L67.225 12.726C67.225 12.702 67.237 12.691 67.237 12.667C67.249 12.621 67.26 12.562 67.272 12.516C67.272 12.504 67.272 12.492 67.283 12.469C67.295 12.399 67.307 12.341 67.307 12.271C67.121 11.943 65.66 14.057 62.078 14.337Z"/>
</g>
<defs>
<clipPath id="clip0_1_109">
<rect width="69" height="70" fill="white"/>
</clipPath>
</defs>
</svg>
