<svg width="48" height="62" viewBox="0 0 48 62" xmlns="http://www.w3.org/2000/svg">
<g clip-path="url(#clip0_1_22)">
<path d="M47.628 53.747C47.599 53.617 47.524 53.309 47.43 52.935C47.3986 52.6592 47.3512 52.3854 47.288 52.115C47.118 51.2 46.769 50.145 46.392 49.175C46.2768 48.8585 46.1477 48.5472 46.005 48.242C45.892 47.98 45.788 47.738 45.685 47.504L45.571 47.206C45.552 47.15 45.524 47.103 45.505 47.047C45.477 46.972 45.448 46.888 45.411 46.814C44.401 44.21 42.684 41.14 41.09 38.527C41.09 38.517 41.09 38.508 41.08 38.499H41.062C40.93 38.275 40.788 38.051 40.656 37.836C40.506 37.576 40.364 37.323 40.213 37.071C40.184 36.996 40.165 36.931 40.128 36.866H40.09C39.892 36.521 39.694 36.194 39.496 35.858V35.848C39.364 35.625 39.231 35.41 39.109 35.195C39.0875 35.1283 39.0621 35.0628 39.033 34.999L39.014 35.027C38.901 34.803 38.769 34.589 38.647 34.383C38.552 34.234 38.449 34.085 38.354 33.936C38.1029 33.5172 37.8482 33.1005 37.59 32.686C37.6 32.676 37.609 32.676 37.618 32.666L37.562 32.648C36.194 30.436 35.212 28.934 35.099 28.784C34.958 28.644 34.335 27.749 33.401 26.442C33.213 26.172 33.014 25.892 32.826 25.621V25.593L32.807 25.583C31.8667 24.2642 30.8883 22.973 29.873 21.711L29.845 21.627L29.798 21.617C29.5079 21.2611 29.2122 20.9097 28.911 20.563C28.666 20.264 28.421 19.975 28.166 19.676C28.307 19.658 28.146 19.602 28.015 19.499C27.8714 19.3417 27.7326 19.1799 27.599 19.014C26.986 18.192 25.119 16.298 24.316 15.626C24.175 15.496 24.024 15.365 23.883 15.234C23.109 14.32 21.835 13.312 20.571 12.332C19.722 11.595 19.099 11.054 18.599 10.615L18.864 10.998C17.835 10.176 17.005 9.43901 16.713 8.86101C16.6683 8.78196 16.6272 8.70087 16.59 8.61801C16.637 8.67401 16.675 8.73001 16.713 8.78601C16.713 8.74901 16.731 8.73001 16.741 8.71101C17.26 9.36401 17.713 9.82101 18.609 10.615L15.637 6.22001C15.477 5.65001 15.345 5.06201 15.222 4.43701C14.986 4.12901 14.75 3.89601 14.675 3.50401C14.515 3.42901 14.364 3.42901 14.203 3.34501C14.279 2.87901 13.732 2.87901 13.807 2.48701C13.592 2.42175 13.3809 2.34395 13.175 2.25401C12.939 1.71201 12.392 1.55401 11.76 1.32001V1.08701C10.977 0.854011 10.42 0.546011 9.63701 0.462011V0.322011C8.53301 0.163011 7.75001 0.0880106 6.64701 0.163011V0.322011C6.17501 0.322011 5.86401 0.480011 5.46701 0.480011V0.640011C5.23201 0.714011 5.15701 0.714011 4.99601 0.714011C4.89705 0.821042 4.84021 0.9603 4.83601 1.10601L4.70301 1.02201C4.62801 1.09601 4.62801 1.18001 4.62801 1.25501C3.92001 1.48801 3.60801 2.11401 3.52401 2.81301C3.55643 2.79509 3.59156 2.7826 3.62801 2.77601C3.60801 2.79501 3.60801 2.80401 3.60801 2.81301C1.79801 2.96301 0.533008 4.44701 0.458008 5.76301V5.83701C0.458008 6.38701 0.618008 6.85401 0.930008 7.16201C3.52401 4.36201 5.64701 6.38801 6.11801 9.10301C6.32601 10.493 6.21301 11.996 6.05201 13.517C5.95801 14.171 5.83501 14.767 5.72201 15.244C5.88201 15.552 5.79801 16.102 5.56201 16.335L5.72201 16.177C5.72201 16.392 5.75001 16.587 5.77901 16.793C5.76901 17.11 5.76901 17.427 5.76901 17.735C5.76901 17.707 5.76901 17.679 5.77901 17.661V17.781C5.77901 17.791 5.77901 17.801 5.76901 17.81V17.745C5.76901 17.782 5.75901 17.81 5.75901 17.847C5.75001 17.885 5.73201 17.931 5.72201 17.977C5.68896 18.1151 5.68896 18.259 5.72201 18.397V18.445C5.73201 18.454 5.74101 18.463 5.74101 18.472C5.76001 18.547 5.78801 18.632 5.81601 18.706C5.82601 18.846 5.83601 18.996 5.85401 19.144C5.81601 19.284 5.81601 19.359 5.88301 19.452C5.86216 19.5087 5.83356 19.5622 5.79801 19.611C5.88301 19.854 5.94801 20.106 6.00501 20.367C6.04301 20.591 6.08101 20.815 6.12801 21.039C6.16601 21.329 6.18401 21.599 6.18401 21.86C6.26001 21.935 6.34401 22.019 6.34401 22.168C6.42001 22.392 6.51401 22.625 6.61801 22.868C6.73201 23.195 6.85401 23.53 6.99601 23.858C7.06201 24.072 7.10901 24.286 7.13701 24.501C7.20301 24.52 7.29701 24.604 7.39201 24.706C7.87417 25.6681 8.4763 26.5653 9.18401 27.376C9.25001 27.459 9.30701 27.543 9.37401 27.627C10.052 28.579 10.779 29.475 11.694 30.175C11.986 30.427 12.165 30.557 12.25 30.641C12.354 30.837 12.467 31.061 12.59 31.313C12.665 31.565 12.722 31.808 12.807 32.041C13.024 32.629 13.213 33.021 13.401 33.357C13.401 33.357 13.401 33.367 13.411 33.385C13.411 33.413 13.43 33.441 13.448 33.469C13.798 34.122 16.033 37.631 16.666 38.816C17.373 40.216 17.373 41.224 17.062 43.174C17.533 43.174 17.533 43.333 18.005 43.174C18.0435 43.1012 18.0783 43.0264 18.109 42.95L18.864 42.885C18.864 42.96 18.873 43.062 18.873 43.193C18.873 43.277 18.835 43.93 18.75 44.779C18.741 44.761 18.722 44.742 18.713 44.723L18.723 44.658C18.723 44.658 18.647 44.602 18.515 44.518C18.3862 44.4239 18.2466 44.3456 18.099 44.285C17.703 44.089 17.203 43.912 16.835 44.033C16.7167 44.0708 16.6118 44.142 16.533 44.238C15.713 43.734 13.75 44.434 14.788 45.75C15.024 45.367 15.335 44.751 16.335 45.2C16.345 45.302 16.364 45.367 16.364 45.367C16.769 45.302 17.741 45.573 18.166 45.507C18.1113 45.5387 18.0545 45.5668 17.996 45.591C17.901 45.601 17.807 45.601 17.703 45.601C17.42 45.787 17.062 45.871 16.693 45.918C16.637 45.918 16.581 45.918 16.524 45.908C15.674 45.834 14.741 45.908 14.713 46.282C14.637 46.394 14.609 46.543 14.713 46.683V46.833C14.684 46.953 14.647 47.066 14.618 47.187C14.581 46.991 14.543 46.786 14.638 46.608C13.769 45.601 11.335 46.842 12.675 48.634C12.675 48.027 13.562 46.982 14.552 47.57C14.552 47.616 14.552 47.663 14.562 47.7C14.572 47.728 14.6 47.747 14.656 47.756C14.732 47.85 15.1 47.766 15.59 47.598C16.609 47.327 18.071 46.795 18.467 46.646C18.344 47.1364 18.2246 47.6278 18.109 48.12C18.033 48.335 17.949 48.522 17.854 48.69C17.704 48.83 17.486 49.063 17.335 49.221C17.307 49.231 17.269 49.249 17.241 49.249C15.751 49.557 14.411 49.091 12.835 49.557C12.718 49.6519 12.6078 49.7549 12.505 49.865C12.4568 49.8919 12.4199 49.9352 12.401 49.987C12.345 50.061 12.279 50.136 12.231 50.211C12.326 50.061 12.421 49.921 12.524 49.791C11.656 48.624 8.59001 49.716 10.09 51.891C10.25 51.265 10.722 50.099 11.901 50.798C11.986 50.64 12.09 50.453 12.203 50.267C12.033 50.537 11.948 50.845 12.062 51.107C12.222 51.573 13.477 51.881 13.637 50.798C13.741 50.827 13.845 50.836 13.948 50.854C14.175 50.92 14.42 50.929 14.675 50.91C15.6 50.91 16.298 50.687 16.533 50.799C16.543 50.808 16.553 50.817 16.553 50.827C16.533 50.855 16.43 50.901 16.288 50.967C16.184 50.957 16.108 50.947 16.184 51.013C16.156 51.023 16.128 51.041 16.09 51.051C15.741 51.106 15.533 51.228 15.401 51.377C15.203 51.498 15.071 51.62 15.118 51.741C15.269 52.189 14.203 51.788 13.835 52.618C13.722 52.768 13.637 52.954 13.571 53.206C13.552 53.234 13.524 53.262 13.505 53.29C13.325 53.309 12.685 53.42 12.147 53.58C11.694 53.626 11.194 53.775 11.194 54.233C11.204 54.345 11.222 54.466 11.26 54.606C10.496 54.951 9.24101 56.491 11.279 57.499C11.279 56.622 11.354 56.08 11.675 55.595C12.033 56.127 12.571 56.332 13.241 55.325C13.279 55.278 13.307 55.222 13.335 55.175C13.892 54.475 14.392 54.186 15.005 53.943C15.213 53.906 15.355 53.897 15.439 53.757C15.665 53.383 16.769 52.067 17.128 52.254C17.184 52.404 17.128 52.721 17.052 53.029C16.835 53.599 16.458 54.279 16.458 54.382C16.43 54.457 16.364 54.615 16.317 54.812C15.76 55.306 15.307 56.603 16.845 57.49C16.798 56.659 16.75 56.164 16.911 55.726C17.099 55.772 17.335 55.791 17.628 55.782L17.684 55.698C17.788 55.595 17.967 55.455 17.864 55.399C18.128 54.886 18.204 54.354 18.326 53.915C18.373 53.729 18.42 53.551 18.467 53.393C18.666 52.973 18.845 52.739 18.873 52.32C18.9142 52.2482 18.9685 52.1848 19.033 52.133C19.505 51.9 20.137 51.125 20.288 51.041C20.298 51.031 20.316 51.013 20.335 51.004C20.448 51.032 20.477 51.023 20.845 50.985C20.92 51.004 20.995 51.023 21.081 51.041C21.391 51.116 22.891 52.366 23.439 51.349C23.524 51.209 23.59 51.088 23.647 50.985C23.637 51.078 23.618 51.181 23.6 51.275C24.94 51.349 24.703 52.675 24.467 53.215C26.901 52.282 25.099 49.641 23.76 50.108C23.75 50.145 23.75 50.183 23.741 50.22C23.722 49.987 23.628 49.8 23.401 49.697C23.241 49.548 23.043 49.511 22.854 49.632C22.816 49.632 22.779 49.642 22.741 49.642V49.716C22.6865 49.7727 22.6183 49.8143 22.543 49.837C22.505 49.697 22.505 49.772 22.505 49.716C22.3371 49.7506 22.1664 49.7694 21.995 49.772C21.8811 49.7421 21.7645 49.7233 21.647 49.716H21.637C21.099 49.716 21.232 49.426 20.166 49.193C20.1448 49.0635 20.1351 48.9323 20.137 48.801C20.241 48.279 20.326 47.784 20.392 47.308C20.43 47.308 20.581 47.327 20.798 47.355C21.505 47.467 22.278 47.71 22.901 47.915C23.109 48.045 23.505 48.157 23.873 48.176C24.326 48.26 24.666 48.26 24.553 48.083C24.609 47.98 24.647 47.878 24.684 47.775C25.647 47.887 25.42 48.941 25.26 49.483C27.071 48.624 25.731 46.45 24.713 46.842V47.094C24.6841 46.9764 24.6328 46.8653 24.562 46.767C24.5267 46.6755 24.4722 46.5926 24.402 46.524C24.316 46.44 24.166 46.394 23.996 46.375C23.646 46.273 23.175 46.3 22.571 46.505C22.515 46.496 22.43 46.468 22.345 46.45C21.9321 46.2813 21.506 46.1468 21.071 46.048C20.816 45.964 20.637 45.899 20.637 45.899L20.627 45.983H20.552C20.59 45.339 20.572 44.695 20.486 44.043C20.486 43.93 20.496 43.818 20.515 43.697C20.543 43.575 20.571 43.454 20.59 43.314C20.562 43.604 20.562 43.855 20.562 44.191C20.562 44.201 20.572 44.201 20.572 44.211C20.609 45.162 20.816 45.815 20.873 45.591C20.883 45.563 20.892 45.535 20.901 45.498C20.967 45.423 21.043 45.115 21.109 45.05C21.109 44.966 21.119 44.882 21.137 44.789C21.184 44.649 21.232 44.499 21.279 44.35C21.289 44.462 21.307 44.565 21.345 44.667V44.789C21.312 44.876 21.312 44.972 21.345 45.059H21.364C21.42 45.759 21.581 46.226 21.741 45.909C21.967 45.526 22.147 44.443 22.175 43.762C22.185 43.865 22.203 43.986 22.222 44.108C22.175 44.77 22.212 45.311 22.599 45.983C22.628 46.039 22.656 46.077 22.684 46.067C22.779 46.039 22.816 45.843 22.844 45.591C22.958 45.246 22.92 44.845 22.92 44.509C22.92 44.509 23.316 45.601 23.392 45.909H23.618C23.694 46.02 23.769 46.123 23.864 46.217C24.231 44.733 24.09 43.977 23.939 43.622C23.9228 43.5508 23.8976 43.4819 23.864 43.417L24.099 43.65C24.411 43.883 24.571 44.275 24.967 44.35C24.977 44.35 24.977 44.34 24.987 44.34C25.09 44.36 25.194 44.322 25.288 44.191C25.468 43.939 25.448 43.622 25.364 43.268C25.307 42.96 25.184 42.642 25.09 42.344L25.232 42.334C25.1541 42.2395 25.0784 42.1431 25.005 42.045L24.977 41.933C25.024 41.998 25.147 42.148 25.307 42.325L25.232 42.334C25.609 42.8 25.967 43.184 26.269 43.37C26.2839 43.3837 26.2967 43.3996 26.307 43.417C26.666 43.65 26.797 43.575 26.883 43.352C26.996 43.202 27.062 42.932 27.09 42.512C27.09 42.502 27.1 42.493 27.1 42.484C27.137 42.484 27.118 42.418 27.1 42.362V42.176H27.09V42.12C27.128 42.194 27.166 42.27 27.213 42.353L27.184 42.334C27.184 42.334 27.364 43.193 27.873 44.07C28.015 44.34 28.175 44.602 28.288 44.826C28.524 44.901 28.835 46.067 30.722 45.918C31.194 45.852 31.599 45.788 31.712 45.722C37.373 59.402 43.93 66.112 43.93 59.272L40.845 53.048C40.967 52.917 41.062 52.768 40.958 52.534C40.975 52.4921 40.9877 52.4485 40.996 52.404C41.062 52.244 41.099 52.133 41.109 52.04L41.307 52.058C41.571 52.124 42.005 52.152 42.354 52.152L42.92 52.198L42.807 52.04H42.845C42.685 51.806 42.609 51.573 42.449 51.265C42.411 51.302 42.392 51.321 42.364 51.33C41.552 49.772 40.581 48.139 39.769 46.674C39.713 46.487 39.703 46.31 39.713 46.151C39.807 46.244 39.892 46.347 39.986 46.441C40.024 46.524 40.052 46.59 40.09 46.59C41.1 47.69 43.401 50.108 45.222 51.704C45.373 51.844 45.524 51.974 45.665 52.096C45.75 52.198 45.892 52.292 45.835 52.348C46.524 52.888 46.995 53.355 47.628 53.747ZM30.269 42.27L30.156 41.99C30.156 41.971 30.156 41.962 30.166 41.943C30.203 42.055 30.25 42.158 30.288 42.27H30.269ZM30.147 42.018L30.25 42.27C30.203 42.27 30.166 42.27 30.118 42.26C30.128 42.195 30.138 42.111 30.147 42.018ZM18.854 42.008C18.883 42.008 18.949 42.037 19.024 42.093C19.014 42.121 19.005 42.139 18.996 42.167C18.9438 42.2586 18.8803 42.3432 18.807 42.419C18.892 42.251 18.939 42.082 18.854 42.008ZM21.449 42.653V42.625L21.467 42.643L21.449 42.653Z"/>
</g>
<defs>
<clipPath id="clip0_1_22">
<rect width="48" height="62" fill="white"/>
</clipPath>
</defs>
</svg>
