<svg width="73" height="64" viewBox="0 0 73 64" xmlns="http://www.w3.org/2000/svg">
<g clip-path="url(#clip0_1_127)">
<path d="M26.49 43.433C26.49 43.433 26.96 47.633 22.166 50.587C22.166 51.52 18.156 58.146 18.156 58.146C18.156 58.146 18.876 58.146 19.409 58.706C19.942 59.266 21.132 59.421 21.132 59.421C21.132 59.421 22.48 58.55 23.419 60.291C24.359 62.034 23.514 63.091 23.514 63.091C23.514 63.091 23.67 60.043 21.79 60.291C21.696 60.385 22.354 62.158 20.38 61.225C18.407 60.292 17.247 60.136 17.247 60.136L16.37 60.043L15.023 61.225C15.023 61.225 13.926 62.407 15.023 63.091C14.615 62.842 13.801 61.909 14.521 60.914C14.772 60.758 15.963 59.048 15.963 59.048L14.615 58.954L11.482 59.204C11.482 59.204 10.135 59.67 11.482 60.758C11.326 60.758 9.35202 59.732 10.887 58.332C10.918 58.177 11.796 57.555 11.796 57.555C11.796 57.555 14.083 58.581 15.242 57.71C16.402 56.84 18.782 54.444 19.566 49.996C19.409 49.996 18.72 42.686 18.406 40.51C18.406 40.603 9.63402 37.399 8.22402 30.245C8.47402 30.245 2.36402 25.984 3.46102 18.052C3.52402 17.959 2.14602 16.342 2.14602 16.342C2.14602 16.342 1.58202 15.812 0.986023 16.342C1.20602 16.186 1.92602 12.049 6.21902 14.631C6.28102 14.537 7.31502 13.169 9.41402 14.413C10.5491 15.0906 11.6983 15.7441 12.861 16.373C12.861 16.373 10.511 10.836 6.75102 8.65901C2.99102 6.48001 5.75002 3.83701 5.75002 3.83701C5.75002 3.83701 6.06302 4.67701 6.75202 4.30401C7.44202 3.93101 9.94802 -0.454991 12.455 0.198009C12.955 0.572009 10.105 3.68201 10.105 3.68201C10.105 3.68201 13.551 0.882009 15.682 1.03801C15.682 1.10001 15.274 2.59301 12.455 4.36601C12.235 4.27301 16.371 2.34401 17.875 3.37101C17.781 3.21501 18.125 4.21101 14.335 5.79701C14.397 5.54801 18.408 4.70801 19.505 6.01501C19.567 6.01501 19.441 7.10301 16.998 7.32101C17.154 7.22801 21.321 7.53901 21.384 9.81001C21.447 9.81001 22.261 11.614 22.261 11.614L23.107 6.73001C23.107 6.73001 23.327 6.20101 25.927 6.10801C28.527 6.01501 40.183 5.01901 44.82 8.03701C44.412 8.13001 40.997 9.34301 40.997 9.34301C40.997 9.34301 51.086 14.009 54.313 18.612C57.133 20.105 72.266 29.902 72.266 29.902C72.266 29.902 71.859 31.925 64.12 28.099C64.34 28.006 68.757 32.236 68.757 32.236C68.757 32.236 67.127 33.2 64.371 31.583C64.621 31.831 64.841 32.298 65.06 33.418C65.122 33.511 59.984 32.671 58.26 31.583C58.355 31.676 60.297 33.791 60.297 33.791C60.297 33.791 54.814 34.258 52.777 32.858C50.741 31.458 46.042 29.188 46.042 29.188L47.044 31.583L43.598 30.307V32.08L40.715 30.307C40.715 30.307 41.875 32.547 41.436 32.577C40.966 32.671 39.023 31.334 39.023 31.334C39.023 31.334 39.4 32.827 38.867 33.138C38.334 33.448 36.83 31.831 36.83 31.831C36.83 31.831 37.457 33.853 36.58 33.853C36.172 33.604 34.104 31.551 34.104 31.551L34.261 34.289L32.381 32.671L34.574 36.497L41.311 43.029L63.149 54.289L60.235 55.471L52.559 51.334L58.449 55.439L54.469 55.502C54.469 55.502 47.42 50.587 47.639 50.618C47.859 50.681 53.185 55.378 53.185 55.378C53.185 55.378 41.969 54.693 40.089 52.796C39.525 52.329 35.483 46.886 35.483 46.886C35.483 46.886 34.387 49.778 33.07 50.712C32.851 50.462 30.627 57.306 30.627 57.306C30.627 57.306 31.473 57.555 31.88 58.083C32.256 58.083 33.196 57.679 33.666 58.146C33.446 57.99 35.17 57.523 36.611 58.83C36.956 59.359 36.611 59.98 36.611 59.98L34.011 58.737C34.011 58.737 34.387 59.825 33.447 59.763C32.507 59.701 29.749 59.234 29.342 59.701C28.903 60.167 28.182 61.007 28.182 61.007C28.182 61.007 27.619 61.723 28.496 62.096C28.716 62.096 28.809 62.718 28.809 62.718C28.809 62.718 27.243 63.247 27.18 62.158C27.118 61.069 28.183 58.892 28.183 58.892L26.553 59.607L25.676 59.545L24.799 59.856C24.799 59.856 24.109 60.106 24.549 60.727C24.956 61.349 23.609 60.665 23.985 59.327C24.392 58.487 24.298 58.457 24.987 58.394C25.677 58.332 27.087 58.177 27.87 57.399C28.653 56.621 29.843 53.293 29.843 53.293L30.721 51.023C30.721 51.023 29.373 50.245 29.687 47.974C30 45.704 27.117 43.402 27.117 43.402H26.491L26.49 43.433Z"/>
</g>
<defs>
<clipPath id="clip0_1_127">
<rect width="73" height="64" fill="white"/>
</clipPath>
</defs>
</svg>
