<svg width="65" height="57" viewBox="0 0 65 57" xmlns="http://www.w3.org/2000/svg">
<g clip-path="url(#clip0_1_65)">
<path d="M4.89401 26.82C2.67801 25.022 1.22001 25.535 0.370007 22.875H0.195007L0.277007 27.066C0.534007 35.716 9.60201 31.268 4.89401 26.82ZM6.52501 45.475H6.35001C5.92001 46.071 5.66301 46.327 4.98601 46.585V46.923C5.58101 47.519 5.58101 48.033 5.67301 48.721V56.508H7.29401V48.803C7.29401 47.951 7.46801 47.519 8.06401 46.923V46.584C7.29401 46.245 7.03801 46.081 6.52401 45.474L6.52501 45.475ZM4.29801 12.777V1.13699L3.19001 1.39399V14.924H3.27301C3.27301 14.914 3.52901 13.629 4.29801 12.777ZM7.97201 25.535C7.54101 25.453 7.02801 24.939 6.68901 24.425C6.60701 24.344 6.43301 24.344 6.35101 24.425C6.01201 24.857 5.58101 25.279 4.98601 25.535C4.90401 25.535 4.90401 25.71 4.98601 25.792L6.35101 26.984C6.43301 27.066 6.60701 27.066 6.68901 26.984L7.97201 25.782C8.14601 25.617 8.14601 25.535 7.97201 25.535Z"/>
<path d="M4.89401 34.01C2.67801 32.295 1.22001 32.81 0.370007 30.066H0.195007L0.277007 34.349C0.534007 42.907 9.60201 38.459 4.89401 34.01Z"/>
<path d="M4.89401 41.202C2.67801 39.486 1.22001 40 0.370007 37.257H0.195007V41.541C0.534007 50.098 9.60201 45.732 4.89401 41.202ZM8.14501 26.82C3.44701 31.268 12.505 35.726 12.762 27.076V22.885H12.587C11.736 25.535 10.371 25.023 8.14501 26.82Z"/>
<path d="M8.14497 34.01C3.44697 38.459 12.505 42.917 12.762 34.35V30.066H12.587C11.736 32.809 10.371 32.295 8.14497 34.01Z"/>
<path d="M8.14502 41.201C3.44702 45.742 12.505 50.108 12.762 41.541V37.349H12.587C11.736 39.999 10.371 39.486 8.14502 41.201ZM3.35502 19.197C2.32902 18.684 1.38502 17.738 1.38502 16.115L1.47802 1.815L0.278015 2.165V20.481C0.965015 29.645 11.141 23.306 3.35502 19.197ZM9.68502 14.913L9.76702 1.476L8.66002 1.22L8.57802 12.777C9.34802 13.723 9.60402 15.007 9.60402 15.007L9.68602 14.914L9.68502 14.913Z"/>
<path d="M9.17197 14.831C8.65897 13.373 7.11997 11.493 7.11997 10.291V0.963013H5.83797V10.291C5.75497 11.914 4.21697 13.455 3.61097 15.088C2.24697 21.252 10.967 20.656 9.17097 14.831H9.17197ZM7.97197 32.377C7.54097 32.202 7.02797 31.781 6.60697 31.267C6.60697 31.186 6.43297 31.186 6.35097 31.267C6.01197 31.699 5.58097 32.12 4.98597 32.377C4.90397 32.377 4.90397 32.552 4.98597 32.552L6.35097 33.836C6.43297 33.836 6.60697 33.836 6.68897 33.754L7.97197 32.552C8.14597 32.47 8.06397 32.377 7.97197 32.377ZM6.34997 38.633C6.01197 39.065 5.58097 39.486 4.98597 39.743C4.90397 39.743 4.90397 39.917 4.98597 39.917L6.35097 41.202C6.43297 41.202 6.52497 41.202 6.60697 41.119L7.97197 39.917C8.14597 39.835 8.05397 39.743 7.97197 39.743C7.54097 39.568 7.02797 39.147 6.60697 38.633C6.60697 38.541 6.34997 38.541 6.34997 38.633Z"/>
<path d="M12.762 2.16499L11.654 1.82499V16.125C11.654 17.749 10.802 18.694 9.68401 19.207C1.90801 23.317 12.074 29.655 12.844 20.492L12.762 16.896V2.16499ZM21.995 26.82C19.769 25.022 18.322 25.535 17.46 22.885H17.286L17.368 27.076C17.635 35.716 26.693 31.268 21.995 26.82ZM23.615 45.475H23.441C23.011 46.071 22.754 46.327 22.077 46.585V46.923C22.672 47.519 22.672 48.033 22.764 48.721V56.508H24.384V48.73C24.384 47.96 24.559 47.528 25.154 46.933V46.593C24.384 46.244 24.128 46.08 23.615 45.473V45.475ZM21.4 12.777V1.13699L20.292 1.39399V14.924H20.374C20.374 14.914 20.631 13.629 21.4 12.777ZM25.072 25.535C24.642 25.453 24.128 24.939 23.79 24.425C23.708 24.344 23.533 24.344 23.451 24.425C23.113 24.857 22.681 25.279 22.087 25.535C22.005 25.535 22.005 25.71 22.087 25.792L23.451 26.994C23.533 27.076 23.708 26.994 23.79 26.994L25.072 25.792C25.247 25.617 25.247 25.535 25.072 25.535Z"/>
<path d="M21.995 34.01C19.769 32.295 18.322 32.809 17.46 30.076H17.286L17.368 34.36C17.635 42.907 26.693 38.459 21.995 34.01Z"/>
<path d="M21.995 41.202C19.769 39.486 18.322 40 17.46 37.267H17.286V41.541C17.635 50.098 26.693 45.732 21.995 41.202ZM25.247 26.82C20.548 31.268 29.607 35.726 29.863 27.076V22.885H29.688C28.837 25.535 27.462 25.023 25.247 26.82Z"/>
<path d="M25.247 34.01C20.548 38.459 29.607 42.917 29.863 34.35V30.066H29.688C28.837 32.809 27.462 32.295 25.247 34.01Z"/>
<path d="M25.247 41.202C20.548 45.742 29.607 50.108 29.863 41.541V37.257H29.688C28.837 40 27.462 39.486 25.247 41.202ZM20.456 19.197C19.43 18.684 18.486 17.738 18.486 16.115L18.568 1.81499L17.368 2.15499V20.48C18.066 29.644 28.232 23.305 20.456 19.196V19.197ZM26.785 14.913L26.867 1.47599L25.759 1.21899L25.666 12.776C26.436 13.629 26.692 15.006 26.692 15.006L26.785 14.913Z"/>
<path d="M26.273 14.749C25.76 13.383 24.221 11.492 24.221 10.301V0.963013H22.939V10.291C22.857 11.831 21.318 13.455 20.712 15.088C19.348 21.252 28.068 20.656 26.272 14.749H26.273ZM25.072 32.377C24.642 32.202 24.128 31.689 23.708 31.267C23.708 31.186 23.533 31.186 23.451 31.267C23.113 31.699 22.681 32.12 22.087 32.377C22.005 32.377 22.005 32.552 22.087 32.552L23.451 33.836C23.533 33.836 23.708 33.836 23.79 33.754L25.072 32.552C25.247 32.47 25.154 32.377 25.072 32.377ZM23.451 38.633C23.113 39.065 22.681 39.486 22.087 39.743C22.005 39.743 22.005 39.917 22.087 39.917L23.451 41.202C23.533 41.202 23.626 41.202 23.708 41.119L25.072 39.917C25.247 39.835 25.154 39.743 25.072 39.743C24.642 39.568 24.128 39.054 23.708 38.633C23.708 38.541 23.451 38.541 23.451 38.633Z"/>
<path d="M29.863 2.16499L28.755 1.82499V16.125C28.755 17.749 27.903 18.694 26.785 19.207C19.009 23.317 29.175 29.655 29.945 20.492L29.863 16.896V2.16499ZM39.096 26.82C36.87 25.022 35.506 25.535 34.562 22.885H34.387L34.469 27.076C34.736 35.716 43.794 31.268 39.096 26.82ZM40.715 45.475H40.541C40.111 46.071 39.854 46.327 39.177 46.585V46.923C39.772 47.519 39.772 48.033 39.864 48.721V56.508H41.484V48.73C41.484 47.96 41.659 47.528 42.254 46.933L42.172 46.593C41.485 46.244 41.228 46.08 40.716 45.473L40.715 45.475ZM38.49 12.777V1.13699L37.382 1.39399V14.924H37.464C37.464 14.914 37.721 13.629 38.49 12.777ZM42.173 25.535C41.743 25.453 41.229 24.939 40.809 24.425C40.809 24.344 40.635 24.344 40.552 24.425C40.214 24.857 39.783 25.279 39.188 25.535C39.106 25.535 39.106 25.71 39.188 25.792L40.552 26.994C40.635 27.076 40.809 26.994 40.891 26.994L42.173 25.792C42.337 25.617 42.337 25.535 42.173 25.535Z"/>
<path d="M39.096 34.01C36.87 32.295 35.413 32.809 34.562 30.066H34.387V34.349C34.736 42.907 43.794 38.459 39.096 34.01Z"/>
<path d="M39.096 41.202C36.788 39.486 35.413 40 34.562 37.257H34.387V41.541C34.736 50.098 43.794 45.732 39.096 41.202ZM42.337 26.82C37.639 31.268 46.697 35.726 46.954 27.076V22.885H46.779C45.928 25.535 44.563 25.023 42.337 26.82Z"/>
<path d="M42.337 34.01C37.639 38.459 46.697 42.917 46.954 34.35V30.066H46.779C45.928 32.809 44.563 32.295 42.337 34.01Z"/>
<path d="M42.337 41.201C37.639 45.742 46.697 50.108 46.954 41.541V37.349H46.779C45.928 39.999 44.563 39.486 42.337 41.201ZM37.557 19.197C36.531 18.684 35.587 17.738 35.587 16.115L35.669 1.81499L34.469 2.15499V16.885L34.387 20.481C35.157 29.645 45.333 23.306 37.557 19.197ZM43.876 15.006L43.968 1.47599L42.86 1.21899L42.768 12.776C43.537 13.629 43.793 15.006 43.793 15.006H43.876Z"/>
<path d="M43.363 14.831C42.85 13.373 41.312 11.493 41.312 10.291V0.963013H40.029V10.291C39.947 11.831 38.409 13.455 37.803 15.088C36.439 21.252 45.159 20.656 43.363 14.831ZM42.173 32.377C41.743 32.202 41.229 31.781 40.809 31.267C40.809 31.186 40.552 31.186 40.552 31.267C40.214 31.699 39.783 32.12 39.188 32.377C39.106 32.377 39.106 32.552 39.188 32.552L40.552 33.836C40.635 33.836 40.809 33.836 40.809 33.754L42.173 32.552C42.337 32.47 42.337 32.377 42.173 32.377ZM40.542 38.633C40.204 39.065 39.772 39.486 39.178 39.743C39.003 39.743 39.096 39.917 39.178 39.917L40.542 41.202C40.624 41.202 40.799 41.202 40.799 41.119L42.163 39.917C42.337 39.835 42.245 39.743 42.163 39.743C41.65 39.568 41.219 39.147 40.799 38.633C40.799 38.541 40.542 38.541 40.542 38.633Z"/>
<path d="M46.954 2.16499L45.846 1.81499V16.115C45.846 17.738 44.994 18.684 43.876 19.197C36.1 23.307 46.266 29.645 47.036 20.481L46.954 16.886V2.16499ZM56.187 26.82C53.961 25.022 52.514 25.535 51.652 22.885H51.488L51.57 27.076C51.827 35.716 60.895 31.268 56.187 26.82ZM57.817 45.475H57.642C57.212 46.071 56.955 46.327 56.185 46.585L56.268 46.923C56.863 47.519 56.863 48.033 56.955 48.803V56.508H58.575V48.803C58.575 47.951 58.75 47.519 59.263 46.923V46.584C58.586 46.338 58.33 46.082 57.817 45.475ZM55.591 12.777L55.509 1.13699L54.483 1.39399V14.924H54.566C54.566 14.914 54.822 13.629 55.591 12.777ZM59.263 25.535C58.833 25.453 58.319 24.939 57.981 24.425C57.899 24.344 57.724 24.344 57.642 24.425C57.304 24.857 56.872 25.279 56.278 25.535C56.196 25.617 56.196 25.71 56.278 25.792L57.642 26.994C57.724 27.076 57.899 27.076 57.981 26.994L59.263 25.792C59.438 25.617 59.355 25.535 59.263 25.535Z"/>
<path d="M56.187 34.01C53.971 32.295 52.514 32.809 51.663 30.066H51.488L51.57 34.349C51.827 42.907 60.895 38.541 56.187 34.01Z"/>
<path d="M56.187 41.201C53.97 39.486 52.514 40 51.663 37.35H51.488V41.541C51.745 50.099 60.895 45.732 56.187 41.201ZM59.438 26.82C54.74 31.268 63.798 35.726 64.055 27.076V22.885H63.88C63.029 25.618 61.664 25.105 59.438 26.82Z"/>
<path d="M59.438 34.01C54.74 38.459 63.798 42.917 64.055 34.35V30.066H63.88C63.029 32.809 61.664 32.295 59.438 34.01Z"/>
<path d="M59.438 41.201C54.648 45.742 63.798 50.191 64.055 41.541V37.349H63.88C63.029 39.999 61.664 39.486 59.438 41.201ZM54.648 19.197C53.622 18.684 52.678 17.738 52.678 16.115L52.76 1.81499L51.56 2.15499V20.48C52.258 29.644 62.434 23.305 54.648 19.196V19.197ZM60.977 15.006L61.059 1.47599L59.951 1.21899L59.869 12.776C60.638 13.722 60.895 15.006 60.895 15.006H60.977Z"/>
<path d="M60.464 14.831C59.951 13.465 58.412 11.493 58.412 10.291V1.04501L57.13 0.963013V10.291C57.047 11.914 55.509 13.455 54.903 15.088C53.539 21.252 62.26 20.656 60.464 14.831ZM59.263 32.377C58.833 32.295 58.319 31.781 57.899 31.267C57.899 31.186 57.724 31.186 57.642 31.267C57.304 31.699 56.872 32.12 56.278 32.377C56.196 32.377 56.196 32.552 56.278 32.634L57.642 33.836C57.724 33.918 57.899 33.836 57.981 33.836L59.263 32.634C59.438 32.47 59.355 32.377 59.263 32.377ZM57.642 38.633C57.304 39.065 56.872 39.486 56.278 39.743C56.196 39.743 56.196 39.917 56.278 40L57.642 41.202H57.899L59.263 40C59.438 39.825 59.345 39.743 59.263 39.743C58.833 39.661 58.319 39.147 57.899 38.633C57.899 38.541 57.642 38.541 57.642 38.633Z"/>
<path d="M64.137 20.481L64.055 16.886V2.16501L62.947 1.82501V16.125C62.947 17.749 62.095 18.694 60.977 19.207C53.201 23.307 63.367 29.645 64.137 20.481Z"/>
</g>
<defs>
<clipPath id="clip0_1_65">
<rect width="65" height="57" fill="white"/>
</clipPath>
</defs>
</svg>
