<svg width="113" height="59" viewBox="0 0 113 59" xmlns="http://www.w3.org/2000/svg">
<g clip-path="url(#clip0_1_125)">
<path d="M110.11 16.697C110.277 16.6366 110.422 16.5276 110.526 16.384C110.598 16.2748 110.637 16.1469 110.637 16.016C110.637 15.921 110.623 15.826 110.596 15.716C110.332 14.886 108.488 13.743 106.74 12.749L106.297 12.491L105.617 12.259C105.118 12.096 104.133 11.783 103.62 11.565C104.022 11.633 104.646 11.783 105.048 11.878C106.047 12.123 106.102 12.123 106.172 12.001C106.38 11.619 106.019 11.251 105.908 11.129C105.326 10.517 89.752 4.11899 82.318 4.32299C80.238 4.22699 77.728 5.23499 74.844 6.37799C71.127 7.86199 66.91 9.54999 62.418 9.35999C62.26 9.34465 62.1028 9.32163 61.947 9.291L61.794 9.114C60.088 8.257 59.714 6.11999 59.45 4.71699C59.45 4.71699 59.325 4.064 59.312 4.037C59.007 2.947 58.23 1.51799 56.33 0.905995L56.275 0.877995C56.2584 0.853693 56.2397 0.830934 56.219 0.809995C56.247 0.837995 56.247 0.850995 56.261 0.864995C55.817 0.564995 55.013 0.278995 54.347 0.210995C53.681 0.142995 53.279 0.197995 52.821 0.455995C52.738 0.496995 52.571 0.565995 52.571 0.646995C52.571 0.660995 52.571 0.673995 52.586 0.686995C52.6 0.782995 52.738 0.809995 52.836 0.850995C52.988 0.891995 53.126 0.946995 53.251 1.01499L53.903 1.61399C54.056 1.96699 54.111 2.32099 54.097 2.55299C54.083 2.83899 54.042 3.424 54.042 3.424C54.042 5.276 53.584 8.502 51.088 9.251L50.713 9.34599C50.603 9.37299 50.478 9.38599 50.367 9.38599C45.874 9.56399 41.657 7.88899 37.941 6.40599C35.056 5.26199 32.546 4.25499 30.466 4.34999C23.019 4.13199 7.44599 10.53 6.86299 11.143C6.75199 11.265 6.39099 11.646 6.59899 12.014C6.66899 12.137 6.72399 12.123 7.72199 11.892C8.1947 11.7718 8.6713 11.6674 9.15099 11.579C8.62399 11.796 7.65299 12.109 7.15399 12.273L6.47399 12.504L6.03099 12.763C4.26899 13.757 2.42499 14.9 2.16099 15.73C2.11999 15.84 2.11999 15.935 2.11999 16.03C2.11999 16.166 2.16099 16.289 2.22999 16.398C2.34199 16.561 2.50799 16.643 2.64699 16.711C2.11999 17.146 0.898987 18.263 0.898987 18.889C0.898987 19.025 0.954987 19.134 1.05199 19.202C1.49599 19.556 2.45199 19.242 3.13199 18.943C2.54999 19.57 1.73199 20.536 1.73199 21.163V21.203C1.73816 21.2879 1.76396 21.3702 1.80734 21.4434C1.85072 21.5166 1.9105 21.5788 1.98199 21.625C2.61899 22.075 4.43599 21.189 5.61499 20.55C5.29499 20.917 5.00499 21.34 5.00499 21.68V21.693C5.00499 21.87 5.08799 22.02 5.22599 22.143C5.86399 22.646 7.00099 22.183 7.50099 21.911C7.48482 21.9917 7.47546 22.0737 7.47299 22.156C7.47299 22.333 7.50099 22.523 7.58299 22.673C7.68099 22.85 7.83299 22.959 8.02799 23.013C8.63799 23.191 10.178 22.523 10.773 22.251C10.76 22.292 10.76 22.319 10.76 22.374C10.76 22.769 10.884 23.245 11.411 23.368C12.216 23.613 13.561 22.809 14.13 22.428C14.1127 22.6135 14.1034 22.7997 14.102 22.986C14.102 23.504 14.199 24.089 14.615 24.293C15.211 24.579 15.918 24.116 16.251 23.858C16.362 24.238 16.64 25.028 17.167 25.205C18.013 25.382 19.469 24.825 19.704 24.743C19.996 24.92 20.994 25.491 21.382 25.464C21.757 25.424 22.755 24.756 23.088 24.538C23.324 24.77 24.142 25.505 24.614 25.546C25.016 25.573 25.321 25.26 25.487 25.069C25.709 25.328 26.181 25.859 26.68 26.077C27.263 26.349 27.9 26.172 28.095 26.185C28.275 26.458 28.635 27.465 29.287 27.506C29.662 27.546 30.369 27.561 30.549 27.506C30.729 27.628 31.756 28.227 32.13 28.296C32.463 28.336 32.92 28.173 33.101 28.091C33.351 28.336 33.628 28.772 33.975 28.813C34.252 28.853 35.167 29.044 35.348 28.949C35.542 29.194 36.055 29.779 36.332 29.889C36.623 29.997 37.206 30.065 37.483 30.052C37.691 30.31 38.454 30.828 38.745 30.882C39.023 30.937 40.007 30.896 40.243 30.882C40.354 30.977 40.95 31.386 41.38 31.495C41.838 31.604 42.74 31.413 42.906 31.385C43.128 31.481 44.334 31.957 44.653 31.998C44.973 32.039 45.832 31.59 46.151 31.413C46.331 31.603 46.775 32.053 47.441 31.998C48.051 31.944 48.342 31.563 48.481 31.345C48.758 31.576 49.424 32.066 49.951 31.998C50.45 31.944 50.866 31.495 51.061 31.25C51.157 31.386 51.31 31.563 51.531 31.644C51.823 31.754 52.156 31.699 52.35 31.644C52.3686 31.6973 52.3824 31.7522 52.391 31.808C52.531 32.393 52.807 33.918 53.057 35.306L53.196 36.028C53.39 37.185 53.584 38.519 53.792 40.003C54.097 42.358 54.305 46.933 54.472 50.934C54.555 55.985 54.722 58.272 54.985 58.504C55.262 58.749 55.955 58.884 56.663 58.884H56.691C56.912 58.884 57.134 58.871 57.342 58.844H57.37C57.398 58.844 57.412 58.844 57.44 58.83C57.467 58.83 57.495 58.816 57.509 58.816H57.523C57.842 58.748 58.119 58.653 58.285 58.503C58.41 58.395 58.521 57.795 58.618 56.843C58.66 56.421 58.701 55.944 58.743 55.413C58.757 55.113 58.785 54.801 58.798 54.473C58.84 53.793 58.882 53.045 58.923 52.241C58.937 52.051 58.937 51.861 58.951 51.67V51.547C58.979 50.88 59.007 50.172 59.034 49.451V49.355C59.062 48.62 59.09 47.845 59.118 47.068V46.987L59.159 45.83V45.761C59.159 45.666 59.159 45.557 59.173 45.461C59.187 45.19 59.187 44.917 59.201 44.645V44.536L59.242 43.406V43.243C59.256 42.943 59.256 42.644 59.256 42.358V42.127C59.256 42.113 59.256 42.099 59.27 42.086C59.27 41.718 59.284 41.364 59.298 40.996V40.766C59.312 40.411 59.325 40.044 59.325 39.703L59.339 39.526C59.353 38.846 59.436 37.934 59.533 36.967L59.853 35.307C60.13 33.754 60.449 32.026 60.56 31.644C60.754 31.699 61.087 31.754 61.378 31.644C61.5704 31.562 61.7343 31.4249 61.849 31.25C62.044 31.495 62.459 31.944 62.959 31.998C63.486 32.053 64.152 31.563 64.429 31.345C64.568 31.576 64.859 31.944 65.469 31.998C66.135 32.053 66.592 31.618 66.759 31.413C67.078 31.59 67.924 32.039 68.257 31.998C68.576 31.958 69.782 31.481 70.004 31.386C70.17 31.426 71.086 31.617 71.529 31.495C71.959 31.385 72.542 30.977 72.667 30.882C72.902 30.896 73.887 30.937 74.164 30.882C74.455 30.828 75.218 30.31 75.426 30.052C75.676 30.079 76.286 30.011 76.577 29.888C76.855 29.779 77.367 29.18 77.562 28.949C77.742 29.044 78.658 28.854 78.935 28.813C79.268 28.772 79.545 28.336 79.809 28.091C80.003 28.173 80.447 28.336 80.779 28.296C81.168 28.241 82.194 27.642 82.374 27.506C82.541 27.561 83.248 27.546 83.622 27.506C84.274 27.466 84.635 26.458 84.815 26.186C85.009 26.158 85.647 26.349 86.23 26.076C86.729 25.846 87.2 25.328 87.422 25.069C87.575 25.259 87.88 25.573 88.296 25.546C88.767 25.505 89.586 24.756 89.821 24.538C90.154 24.77 91.167 25.437 91.527 25.464C91.915 25.504 92.914 24.92 93.205 24.743C93.441 24.838 94.897 25.383 95.743 25.205C96.27 25.028 96.547 24.239 96.658 23.858C96.978 24.103 97.698 24.579 98.295 24.293C98.711 24.089 98.808 23.503 98.808 22.986C98.808 22.782 98.794 22.592 98.78 22.428C99.349 22.809 100.694 23.626 101.512 23.368C102.025 23.245 102.15 22.768 102.15 22.374C102.15 22.319 102.15 22.279 102.136 22.251C102.732 22.523 104.272 23.177 104.882 23.014C105.069 22.9627 105.228 22.8408 105.326 22.674C105.423 22.51 105.437 22.319 105.437 22.156C105.437 22.061 105.423 21.979 105.409 21.911C105.922 22.17 107.045 22.632 107.683 22.142C107.751 22.088 107.806 22.0198 107.844 21.9422C107.882 21.8646 107.903 21.7795 107.905 21.693V21.679C107.905 21.326 107.614 20.904 107.295 20.549C108.474 21.203 110.291 22.074 110.928 21.625C111 21.5789 111.059 21.5167 111.103 21.4435C111.146 21.3702 111.172 21.2879 111.178 21.203V21.163C111.178 20.523 110.36 19.556 109.777 18.943C110.457 19.243 111.414 19.556 111.858 19.202C111.906 19.1655 111.945 19.1181 111.971 19.0637C111.998 19.0093 112.011 18.9494 112.01 18.889C111.844 18.263 110.623 17.146 110.11 16.697Z"/>
</g>
<defs>
<clipPath id="clip0_1_125">
<rect width="113" height="59" fill="white"/>
</clipPath>
</defs>
</svg>
