<svg width="46" height="56" viewBox="0 0 46 56" xmlns="http://www.w3.org/2000/svg">
<g clip-path="url(#clip0_1_18)">
<path d="M27.164 10.39C28.329 9.03401 30.077 6.69701 31.429 6.11201C36.277 3.96201 39.189 9.806 37.652 12.728L37.069 13.499L40.961 17.777C42.522 16.024 42.895 15.439 43.478 13.102L43.664 10.18C43.478 6.67301 40.938 2.77001 37.651 1.22701C35.9255 0.363756 33.9766 0.0510309 32.0677 0.331094C30.1587 0.611157 28.3818 1.47051 26.977 2.793L23.085 6.29901V6.48601C21.337 4.54601 18.611 1.62401 16.28 0.853005C12.015 -0.712995 6.95799 0.853005 4.43999 4.75601C3.46199 5.92601 2.69299 8.26301 2.50699 9.82901C2.10999 13.125 3.06599 15.276 5.20999 17.8L9.10199 13.522C8.51899 12.751 8.51899 12.938 8.33199 11.769C7.35399 7.469 12.015 3.77501 15.697 6.69701C16.677 7.28101 19.007 10.39 19.193 10.39L0.549988 31.054L23.086 55.786L45.623 31.054L27.164 10.39ZM7.93699 30.657L23.085 14.294L38.235 30.844L23.085 47.604L7.93699 30.657Z"/>
</g>
<defs>
<clipPath id="clip0_1_18">
<rect width="46" height="56" fill="white"/>
</clipPath>
</defs>
</svg>
