<svg width="46" height="64" viewBox="0 0 46 64" xmlns="http://www.w3.org/2000/svg">
<g clip-path="url(#clip0_1_62)">
<path d="M17.882 3.79998C17.897 3.82941 17.9048 3.86195 17.905 3.89498C17.905 4.02898 17.772 4.15499 17.647 4.15499C17.452 4.15499 17.319 4.02098 17.319 3.89498C17.319 3.83998 17.342 3.78498 17.389 3.73798C17.2929 3.72852 17.1965 3.72318 17.1 3.72198C17.0752 3.77634 17.0619 3.83525 17.061 3.89498C17.061 4.15498 17.319 4.35199 17.647 4.35199C17.976 4.35199 18.171 4.15498 18.171 3.89498C18.171 3.87198 18.171 3.85498 18.163 3.83198C18.061 3.82398 17.975 3.80899 17.882 3.80099V3.79998Z"/>
<path d="M45.065 40.135C44.346 39.017 42.978 37.772 41.743 36.787C40.438 35.936 38.555 34.487 36.991 34.029C34.256 31.139 34.256 31.406 29.825 29.499C28.066 29.239 24.877 27.593 23.509 25.954C23.361 25.749 23.236 25.552 23.111 25.355C23.267 25.584 23.439 25.805 23.634 26.025C24.025 25.04 26.237 26.75 27.996 26.025C27.8302 25.8158 27.6763 25.5975 27.535 25.371C26.307 23.378 26.268 20.983 26.487 18.478C26.557 17.698 26.651 16.91 26.745 16.114C26.8 15.673 26.847 15.24 26.894 14.798H26.941L26.894 14.767C26.933 14.381 26.972 13.995 27.003 13.617C27.066 12.774 27.097 11.939 27.066 11.127H27.073L27.066 11.119C27.0468 10.6599 26.9997 10.2024 26.925 9.749H26.94L26.925 9.741C26.8642 9.34387 26.7753 8.95155 26.659 8.567H26.675L26.651 8.559C26.3055 7.35038 25.6665 6.24594 24.791 5.344L24.846 5.352C24.83 5.352 24.806 5.344 24.791 5.344C24.307 4.832 23.721 4.36 23.025 3.911L22.493 3.611L22.829 1.082C22.439 1.216 22.048 1.736 21.852 1.933L22.29 3.493L21.852 3.249L21.782 3.264C21.577 2.37603 21.3398 1.49579 21.071 0.625C20.758 1.035 20.469 1.382 20.328 1.855C19.68 1.468 18.906 1.145 17.82 0.822C17.757 1.279 17.687 1.744 17.687 2.138C18.601 2.201 19.445 2.398 20.227 2.595C17.491 1.941 16.843 2.201 15.537 2.532C14.818 2.532 9.28499 3.257 8.36999 3.454C8.23799 3.517 8.11199 3.651 7.97999 3.714C7.32999 3.911 7.52599 4.367 7.45599 4.761C7.36169 4.90484 7.30081 5.06797 7.27779 5.23842C7.25478 5.40886 7.27022 5.5823 7.32299 5.746C7.51799 5.746 8.04299 5.809 8.10499 5.809C8.88599 5.746 8.94899 5.675 9.72999 5.612C10.316 5.612 10.379 6.006 9.98799 6.14C9.01099 6.274 8.55799 6.14 8.03399 6.274C7.97199 6.337 8.03399 6.731 8.29199 6.802C8.87799 6.865 9.01199 7.59 10.051 7.392C11.028 7.33 11.418 7.062 11.871 7.062C13.693 7.322 14.803 9.559 16.624 9.292C17.171 9.212 17.554 9.087 17.851 8.929C17.671 9.055 17.484 9.158 17.273 9.229C17.351 9.481 17.405 9.725 17.437 9.969L15.67 13.955C13.857 16.035 10.527 19.085 10.371 21.44C10.261 21.566 10.043 21.81 9.77699 22.133L9.52699 22.031C8.02699 21.503 6.00999 19.667 4.44699 18.619C3.01699 17.501 1.96899 17.769 1.25799 19.344C1.25799 19.344 1.71099 23.48 0.999987 27.876C0.937987 28.467 0.671987 29.649 0.741987 30.106C0.804987 30.563 1.32799 31.288 1.32799 31.288L1.65699 30.831C1.71899 30.965 1.78999 31.161 1.85199 31.288C2.30499 32.076 2.82899 32.8 3.67299 33.391L4.32199 30.106C3.73599 30.106 3.60199 29.516 2.95399 29.381H2.75999C1.84499 29.318 2.36899 27.411 2.43099 26.561L2.62699 24.134C2.62699 23.149 2.62699 21.904 2.95499 21.117C3.08799 20.723 3.21299 20.392 3.67499 20.66C4.82299 21.542 6.42499 24.181 7.83999 26.01C7.83999 26.064 7.83999 26.12 7.84799 26.175C7.90999 27.885 8.56699 28.341 9.27799 29.783C6.99599 32.083 5.04199 33.588 2.63499 34.841C2.18099 35.298 1.98499 36.023 1.91499 36.551C2.04799 39.505 2.82999 38.457 3.22099 44.823C3.41599 45.413 3.47899 46.729 4.06499 47.517L4.32299 46.863L4.84599 47.588L5.26899 45.855L4.91699 47.462C5.30699 48.116 5.76099 48.707 6.54199 49.172L7.12899 45.886C6.54199 45.823 6.40899 45.296 5.82299 45.162C5.62799 45.162 5.49499 45.162 5.43299 45.099L5.42499 45.146C5.34572 44.9629 5.28281 44.7732 5.23699 44.579C4.12699 45.429 4.25999 42.609 3.80699 39.986V36.85C3.86999 36.125 4.84699 35.471 5.69799 34.88C8.17599 34.156 10.778 34.092 12.795 32.91L14.421 34.156C16.437 35.928 18.719 36.976 21.517 37.898C21.916 38.048 22.33 38.181 22.745 38.323L22.627 38.623C21.517 40.726 21.587 46.107 23.862 49.518C24.12 50.566 24.902 51.622 24.706 52.733C24.644 53.521 23.471 54.899 22.229 56.341L20.603 58.311L18.649 59.358C17.867 59.752 17.281 60.343 16.828 60.934C16.304 61.659 15.851 62.51 15.328 63.361H19.821C19.493 62.573 19.431 61.919 19.563 61.257C19.563 61.194 19.626 61.194 19.626 61.123C19.884 60.398 20.408 60.201 20.736 60.335C21.126 60.469 21.126 60.469 21.26 60.469L21.588 60.666L21.455 60.209V60.146L21.783 60.603V60.54L21.588 60.012C21.721 59.555 21.978 59.288 22.955 57.98C24.128 56.404 26.535 54.103 28.364 52.993C28.95 52.465 28.95 51.677 27.715 51.086C27.582 51.023 27.52 50.889 27.457 50.826C26.809 49.447 27.199 48.069 28.177 46.69L28.419 46.509C29.466 48.211 30.795 49.463 32.538 50.637C29.802 52.741 25.957 56.089 22.901 61.793H29.544C32.217 57.263 33.843 55.624 35.859 53.458C35.8281 53.2737 35.7619 53.0972 35.664 52.938C36.047 53.568 35.961 54.128 35.922 54.568C35.726 55.884 35.398 57.192 34.749 58.901C33.577 59.626 32.014 61.005 31.686 61.461C31.686 61.525 31.623 61.525 31.623 61.596C31.233 62.124 30.513 63.502 30.513 63.502H34.812C35.007 62.778 34.875 62.187 34.812 61.667L34.749 61.47C34.687 60.879 34.945 60.422 36.508 60.225C36.641 60.225 36.703 60.225 37.094 60.359V60.296C36.961 60.162 36.766 59.965 36.766 59.839C36.766 59.776 37.094 59.839 37.024 59.776C36.57 59.382 36.695 59.186 36.695 59.186C36.758 58.594 36.758 58.137 37.149 57.279L38.384 53.079C38.556 52.402 38.524 51.898 38.36 51.488L38.712 51.307C44.612 48.998 47.278 43.807 45.066 40.135H45.065ZM18.945 3.824L18.898 3.855C18.406 4.202 17.921 4.375 17.452 4.375C17.046 4.375 16.647 4.249 16.249 3.989L16.209 3.966L16.233 3.95C16.225 3.958 16.217 3.958 16.209 3.966C17.116 3.209 17.718 3.256 18.445 3.58C18.593 3.643 18.742 3.714 18.898 3.8L18.945 3.824ZM36.734 50.157C35.249 49.416 34.287 48.132 34.451 45.91C35.233 42.893 37.445 38.82 37.187 36.59C37.359 36.716 37.531 36.834 37.695 36.96L37.734 37.693L37.601 40.363L36.226 48.313C36.015 48.431 35.796 48.549 35.561 48.667L35.171 48.864C35.522 49.4 36.116 49.849 36.734 50.157ZM37.578 50.503C37.89 50.7 38.133 50.992 38.258 51.204C38.093 50.944 37.859 50.724 37.578 50.504V50.503Z"/>
</g>
<defs>
<clipPath id="clip0_1_62">
<rect width="46" height="64" fill="white"/>
</clipPath>
</defs>
</svg>
