<svg width="133" height="39" viewBox="0 0 133 39" xmlns="http://www.w3.org/2000/svg">
<g clip-path="url(#clip0_1_199)">
<path d="M131.799 12.386C131.185 11.4 127.297 8.34 126.434 7.722C125.455 7.104 118.147 2.823 109.742 3.426C101.221 4.044 88.797 16.049 78.2 15.814C74.297 15.564 66.024 9.929 56.275 9.929C48.718 9.929 35.447 15.814 31.909 15.446C23.753 14.593 25.449 7.972 21.064 4.044C20.932 3.956 20.815 3.721 20.494 3.471L20.815 3.544C20.45 2.691 20.815 1.587 19.354 0.970002C18.623 0.720002 18.009 0.970002 17.644 1.087C17.527 1.337 17.161 2.308 16.664 2.558H16.694H16.182C15.349 2.205 15.1 0.616002 13.77 1.234C12.309 1.97 12.922 3.441 12.922 3.441L13.083 3.397L12.805 3.559C12.557 3.677 12.192 3.809 12.075 4.044C11.461 4.53 10.496 6.501 9.999 7.104C9.385 7.722 8.537 8.09 8.42 8.694C8.172 9.179 9.034 10.282 9.151 10.414C9.268 10.414 9.4 10.532 9.4 10.664C9.283 10.782 9.882 11.15 10.13 11.283C10.38 11.4 11.344 11.283 11.958 11.4C12.688 11.518 14.033 11.65 15.129 12.504C15.743 12.989 16.474 13.239 17.322 14.71C18.17 16.181 18.302 17.035 18.302 17.285C18.184 21.948 15.626 23.655 14.896 24.273C14.165 24.891 10.993 27.583 4.299 26.848C3.451 26.48 2.954 26.112 2.589 25.994C2.34 25.994 1.244 25.994 1.127 27.098C1.01 28.201 2.705 28.686 3.437 28.937C4.284 29.054 7.207 30.29 11.592 29.304C13.902 28.687 15.246 27.716 15.977 26.98C14.267 29.069 10.131 32.982 3.071 32.13C2.34 31.761 0.877997 31.143 0.760997 32.247C0.643997 33.35 1.375 34.086 2.106 34.454C2.954 34.704 6.973 36.174 17.702 33.1C28.547 30.04 43.164 22.184 55.822 23.537C68.362 24.891 72.748 29.79 78.112 30.157C78.989 30.202 79.793 30.217 80.509 30.217C81.211 30.805 81.971 31.452 82.263 31.747C82.877 32.364 87.379 36.527 88.841 37.381C90.302 38.234 92.495 38.602 93.343 38.602C94.073 38.485 94.804 37.617 94.687 37.382C94.687 37.013 94.687 36.646 93.957 36.396C93.226 36.146 93.708 36.396 92.86 36.146C92.013 36.028 91.516 35.528 89.206 34.056C87.788 33.1 86.268 31.188 85.376 29.937C85.581 29.907 85.669 29.878 85.669 29.878C85.669 29.878 89.689 30.496 91.267 31.232C92.846 31.967 92.612 32.585 94.19 33.321C95.9 34.174 97.844 34.91 99.306 34.674C100.885 34.557 101.016 34.306 101.25 32.953C101.499 31.732 100.636 31.232 99.905 31.482C99.175 31.85 96.003 31.232 94.541 29.892C93.197 28.422 91.253 25.479 89.542 25.479C87.715 25.479 85.772 25.965 83.33 24.626C80.89 23.155 77.235 17.27 77.235 17.27C77.235 17.27 80.407 21.066 91.369 21.198C102.215 21.316 108.792 13.107 119.872 13.475C122.43 13.225 127.18 13.592 129.255 14.328C131.199 14.946 131.813 15.681 132.544 14.813C133.26 13.857 132.281 13.372 131.799 12.386Z"/>
</g>
<defs>
<clipPath id="clip0_1_199">
<rect width="133" height="39" fill="white"/>
</clipPath>
</defs>
</svg>
