<svg width="43" height="76" viewBox="0 0 43 76" xmlns="http://www.w3.org/2000/svg">
<g clip-path="url(#clip0_1_111)">
<path d="M35.48 72.929L26.554 35.423C26.7817 35.3428 26.9793 35.1948 27.1202 34.9988C27.2611 34.8028 27.3385 34.5684 27.342 34.327C27.342 33.897 27.123 33.542 26.787 33.334L31.564 24.269H32.076C32.646 24.269 33.128 23.78 33.128 23.187C33.128 22.61 32.645 22.121 32.076 22.121H27.78C28.4186 21.5108 28.9387 20.7876 29.314 19.988C30.424 17.618 29.81 12.374 30.234 9.67801C30.658 6.98201 31.783 5.23401 31.783 5.23401C31.783 5.23401 28.569 6.74501 24.317 12.804C27.971 7.44001 26.48 0.31601 26.48 0.31601C26.48 0.31601 26.48 0.790009 26.29 1.60601L24.61 5.48601C22.974 8.09301 21.835 7.67801 20.505 9.30801C19.76 10.241 19.175 11.293 18.811 12.048C20.184 8.41901 19.526 3.69401 19.526 3.69401C19.526 3.69401 19.541 3.79701 19.512 4.02001C19.512 3.91601 19.526 3.81201 19.526 3.69401L19.41 4.58301C19.19 5.47101 18.548 7.01201 16.75 9.05601C13.785 12.433 11.564 13.366 11.564 17.114C11.564 19.574 12.923 21.262 13.844 22.121H11.097C10.512 22.121 10.045 22.61 10.045 23.187C10.045 23.78 10.512 24.269 11.097 24.269H11.608L16.371 33.334C16.1997 33.4402 16.0586 33.5887 15.9614 33.7653C15.8642 33.9418 15.8141 34.1405 15.816 34.342C15.816 34.845 16.137 35.275 16.605 35.438L7.66399 72.929H0.606995V75.788H42.536V72.929H35.48ZM31.097 64.204H14.925L29.212 56.339L31.097 64.204ZM18.884 35.482H24.26L25.925 42.459H17.233L18.883 35.482H18.884ZM26.466 44.77L28.146 51.85L19.176 44.77H26.466ZM16.488 45.57L25.867 52.961H14.735L16.488 45.57ZM14.179 55.272H26.349L12.353 62.96L14.179 55.272ZM9.97199 72.93L11.506 66.516H31.637L33.157 72.93H9.97199Z"/>
</g>
<defs>
<clipPath id="clip0_1_111">
<rect width="43" height="76" fill="white"/>
</clipPath>
</defs>
</svg>
