<svg width="49" height="74" viewBox="0 0 49 74" xmlns="http://www.w3.org/2000/svg">
<g clip-path="url(#clip0_1_207)">
<path d="M46.996 41.04C46.632 39.974 45.122 37.886 43.676 35.87C42.374 34.064 41.146 32.352 40.937 31.662C40.8216 30.867 40.7661 30.0644 40.771 29.261C40.771 28.039 40.687 26.619 40.594 25.251C40.552 24.739 40.396 24.029 40.25 23.392C40.157 22.985 40.053 22.494 40.042 22.327L40.052 22.317C40.146 22.223 40.136 22.129 39.709 21.241C39.6614 21.1449 39.6164 21.0475 39.574 20.949C39.604 20.855 39.511 20.688 39.116 20.04C38.9951 19.851 38.8836 19.6561 38.782 19.456C38.814 19.341 38.699 19.132 38.002 18.098C37.846 17.858 37.648 17.576 37.575 17.451C37.595 17.346 37.408 17.138 36.336 16.062C36.305 15.989 36.201 15.885 35.982 15.655C35.702 15.352 35.17 14.799 35.129 14.611V14.601C34.91 14.005 34.941 13.211 34.973 12.564C34.983 12.199 35.003 11.896 34.963 11.666C34.8247 10.5213 34.5303 9.40086 34.088 8.336C33.036 5.328 31.329 4.2 31.028 4.023C30.944 3.835 30.601 3.041 30.444 2.446C30.33 1.642 29.664 0.483002 28.217 0.483002C27.665 0.483002 27.259 0.619002 26.999 0.869002C26.676 1.193 26.686 1.632 26.686 1.872V1.924C26.686 2.31 26.78 2.77 26.832 3.02C26.78 3.02 26.718 3.03 26.645 3.041C26.551 2.133 26.062 1.496 25.541 1.183C24.99 0.838002 24.365 0.817002 23.907 1.12C23.584 1.34 23.105 1.903 23.22 3.27C22.741 3.281 22.023 3.334 21.315 3.626C20.785 3.783 20.17 4.399 19.618 4.942C19.223 5.328 18.858 5.693 18.618 5.798C18.244 5.965 17.932 5.975 17.64 5.996C17.484 6.006 17.328 6.017 17.172 6.048H17.152C16.902 6.132 16.526 6.288 16.162 6.445C15.756 6.612 15.34 6.79 15.162 6.832C15.1 6.852 15.007 6.862 14.923 6.873C14.559 6.936 14.018 7.02 14.018 7.489C14.018 8.043 14.372 8.628 14.611 8.742L14.642 8.752C14.642 8.816 14.622 8.909 14.612 9.003C14.58 9.213 14.528 9.505 14.528 9.923V9.933C14.58 10.967 14.808 11.53 15.215 11.624C15.1345 11.6945 15.0698 11.7811 15.025 11.8783C14.9802 11.9755 14.9563 12.081 14.955 12.188C14.955 12.804 15.298 13.118 15.965 13.118C18.245 13.118 19.753 13.326 20.118 13.692C21.43 14.966 22.252 15.467 22.741 15.77C22.772 15.79 22.804 15.812 22.824 15.822C22.887 15.864 22.939 15.895 23.001 15.937C23.157 16.041 23.241 16.125 23.282 16.24C23.512 17.65 22.877 18.955 22.543 19.654C22.335 20.093 22.241 20.27 22.366 20.396C22.408 20.437 22.471 20.5 22.731 20.396C21.586 22.641 21.586 22.828 21.658 22.912C21.6877 22.9546 21.7323 22.9846 21.783 22.996C21.887 23.016 22.033 22.954 22.189 22.86C21.825 23.977 21.607 24.666 21.492 25.084C20.305 24.917 18.89 24.614 17.828 24.092C16.662 23.57 15.111 22.578 13.612 21.617C12.144 20.677 10.759 19.79 9.92703 19.477C9.40703 19.247 8.75003 19.122 8.09503 19.059C8.01103 17.514 7.97003 16.239 8.02203 15.707C8.02203 15.676 8.03203 15.655 8.03203 15.624C12.519 15.979 13.976 16.594 13.986 16.605L14.101 16.657L14.757 15.571L14.653 15.498C14.601 15.457 13.299 14.6 8.30303 13.765C8.42803 13.086 8.54303 12.7 8.55303 12.7L8.60503 12.522H7.36603V11.552L5.33603 11.76L5.34603 11.865C5.34603 11.875 5.41903 12.501 5.49203 13.358C1.50503 12.888 0.319029 13.013 0.267029 13.013L0.142029 13.023V15.665L0.308029 15.635C0.329029 15.635 1.88003 15.373 5.68003 15.477C5.74203 16.292 5.78403 17.096 5.78403 17.67C5.78403 17.983 5.79403 18.464 5.80403 19.049C5.43003 19.09 5.14903 19.142 5.02403 19.184L4.98203 19.194C4.70203 19.247 4.10803 19.362 3.74303 19.915C3.41003 20.416 3.33703 21.168 3.54603 22.139C4.02403 24.113 4.68003 25.115 5.50303 25.115C5.61703 25.115 5.75303 25.084 5.90903 25.053C5.91903 26.859 5.89903 28.394 5.79403 28.863L5.75203 29.041L8.85503 28.843L8.84503 28.697C8.84503 28.655 8.73003 27.339 8.58403 25.543C9.02103 26.139 9.56203 27.005 10 27.715C10.905 29.167 11.051 29.375 11.218 29.375C11.2544 29.376 11.2905 29.3681 11.3231 29.3519C11.3558 29.3356 11.3839 29.3117 11.405 29.282C11.467 29.198 11.499 29.062 11.499 28.916C12.383 30.242 12.529 30.242 12.602 30.242C12.665 30.242 12.717 30.222 12.758 30.169C12.8002 30.1059 12.8288 30.0347 12.842 29.96C13.602 31.286 13.747 31.286 13.82 31.286H13.851L13.882 31.276C13.986 31.224 14.028 31.119 14.039 31.005C14.819 31.903 14.882 31.903 14.955 31.903C14.9847 31.9018 15.0138 31.8947 15.0406 31.8819C15.0674 31.8692 15.0914 31.8512 15.111 31.829C15.1528 31.7699 15.1811 31.7023 15.194 31.631C15.871 32.623 16.318 33.124 16.516 33.124C16.568 33.124 16.631 33.104 16.662 33.051C16.724 32.978 16.756 32.821 16.766 32.654C16.922 32.864 17.089 33.082 17.245 33.26C14.174 34.732 12.04 36.006 10.759 37.134C9.43703 38.304 9.26103 39.118 9.26103 39.765V40.381C8.25103 41.008 7.61603 41.968 7.61603 43.075C7.61603 44.37 8.50103 45.477 9.83303 46.072H8.29303V47.805L4.47303 45.717V52.974L8.29303 50.969V55.669H15.943V46.072H14.372C15.735 45.487 16.641 44.38 16.641 43.075C16.641 42.052 16.079 41.144 15.173 40.517C15.465 40.267 15.892 40.037 16.464 39.807C17.255 39.504 18.827 39.787 19.764 39.964C20.118 40.026 20.368 40.078 20.493 40.078H20.523C20.826 40.016 21.482 39.838 21.877 39.723C21.763 40.005 21.846 40.089 21.877 40.12C21.95 40.193 22.023 40.266 23.303 39.64C23.147 40.005 23.22 40.078 23.262 40.12C23.303 40.162 23.355 40.214 23.845 40.047C24.115 42.334 24.375 42.334 24.48 42.334C24.625 42.334 24.76 42.24 24.865 42.125C24.885 43.169 25.021 44.516 25.52 44.516C25.656 44.516 25.77 44.422 25.854 44.307C25.874 44.6 25.916 44.976 25.968 45.352C26.176 46.834 26.426 47.043 26.645 47.043H26.676L26.707 47.033C26.791 46.991 26.874 46.876 26.937 46.751C27.019 47.022 27.144 47.263 27.227 47.398C26.53 47.91 22.751 50.771 21.648 54.175C20.42 57.945 20.17 60.994 20.17 61.443C20.17 62.821 20.565 63.813 20.961 64.773C21.315 65.651 21.648 66.476 21.648 67.541C21.648 68.418 21.44 69.065 21.013 69.472C20.659 69.807 20.18 69.963 19.577 69.932H19.524C18.577 69.932 16.964 69.942 16.641 70.015C16.214 70.025 14.351 70.454 14.351 72.333C14.351 73.691 14.809 73.847 14.903 73.868H26.738C26.759 73.868 29.122 73.66 29.122 71.644C29.122 70.966 28.622 69.921 28.508 69.681C28.425 69.347 28.342 68.846 28.425 67.906C28.487 65.024 29.33 64.043 29.747 63.729C29.727 63.896 29.737 64.095 29.82 64.199C29.8439 64.2282 29.874 64.2518 29.908 64.2681C29.9421 64.2843 29.9793 64.2928 30.017 64.293C30.07 64.293 30.226 64.293 32.12 62.716C32.13 62.926 32.162 63.176 32.287 63.312C32.3161 63.3476 32.3527 63.3763 32.3942 63.396C32.4357 63.4157 32.4811 63.426 32.527 63.426C32.651 63.426 32.807 63.353 33.005 63.239C33.755 65.88 35.565 66.998 37.055 67.927C38.803 68.982 38.803 69.295 38.803 69.723C38.803 70.162 38.231 70.475 37.283 70.537C36.586 70.59 36.107 70.443 35.712 70.318C35.493 70.245 35.295 70.193 35.118 70.193C33.598 70.193 32.984 71.049 32.734 71.759C32.443 72.469 32.381 72.991 32.537 73.325C32.641 73.545 32.807 73.597 32.828 73.597L32.849 73.607H44.498C44.82 73.607 46.028 73.211 46.028 71.289C46.028 69.451 45.434 68.209 44.862 66.998C44.414 66.068 43.956 65.108 43.769 63.865C43.352 61.557 43.499 60.21 43.571 59.803C43.591 59.783 43.623 59.761 43.644 59.73L43.654 59.72C43.852 59.49 43.862 59.302 43.884 59.104C43.904 58.811 43.946 58.424 44.612 57.548C45.362 56.566 46.173 55.334 46.611 54.676C46.684 54.572 46.736 54.478 46.788 54.405L46.84 54.3C48.807 50.75 48.86 46.291 46.996 41.04ZM10.01 43.126C10.53 43.419 11.072 43.606 11.624 43.68C11.7063 43.7179 11.7941 43.7425 11.884 43.753L11.894 43.701C11.977 43.701 12.061 43.711 12.144 43.711C12.5057 43.7115 12.8659 43.6658 13.216 43.575C13.279 43.586 13.341 43.586 13.383 43.586H13.477L13.467 43.502C13.477 43.502 13.497 43.492 13.507 43.492C14.747 43.012 14.819 42.396 14.767 41.873C15.007 42.239 15.132 42.657 15.132 43.106C15.132 44.536 13.778 45.664 12.061 45.664C10.395 45.664 8.99003 44.494 8.99003 43.106C8.99003 42.698 9.11503 42.312 9.32303 41.967C9.43703 42.5 9.63503 42.886 10.01 43.126Z"/>
</g>
<defs>
<clipPath id="clip0_1_207">
<rect width="49" height="74" fill="white"/>
</clipPath>
</defs>
</svg>
