<svg width="41" height="75" viewBox="0 0 41 75" xmlns="http://www.w3.org/2000/svg">
<g clip-path="url(#clip0_1_133)">
<path d="M34.556 54.857C30.99 55.224 29.346 55.101 27.131 55.077C23.819 55.052 21.311 57.437 20.995 57.902C20.678 58.379 20.593 58.795 20.593 58.795L20.8 62.195L20.593 62.891L20.374 62.255L20.593 58.795C20.593 58.795 20.508 58.379 20.192 57.902C19.875 57.437 17.355 55.052 14.056 55.077C11.828 55.101 10.185 55.224 6.63 54.857C3.075 54.49 0.932998 50.552 0.822998 50.747C4.001 56.727 6.167 56.96 7.799 57.058C9.418 57.168 17.805 56.226 19.741 58.636C20.35 59.663 20.386 61.473 20.386 62.231L20.313 62.023C20.313 62.023 20.07 60.556 18.536 60.005C18.438 59.993 16.332 59.223 15.396 60.775C14.385 62.488 15.322 64.102 16.284 64.285C18.999 64.359 17.732 61.754 17.696 62.121C17.976 63.051 16.089 64.42 15.967 62.17C16.016 61.754 16.369 60.519 17.805 60.592C18.255 60.702 19.558 61.412 19.815 63.747C19.875 65.46 19.12 71.244 16.965 74.117C16.868 74.154 20.605 74.167 20.605 74.167C20.605 74.167 24.318 74.142 24.221 74.117C22.054 71.244 21.311 65.46 21.384 63.747C21.64 61.399 22.943 60.702 23.394 60.592C24.83 60.519 25.171 61.754 25.219 62.17C25.097 64.408 23.211 63.05 23.491 62.12C23.454 61.754 22.201 64.359 24.903 64.286C25.864 64.102 26.814 62.488 25.791 60.776C24.841 59.223 22.761 60.006 22.651 60.006C21.117 60.556 20.873 62.023 20.873 62.023L20.837 62.158C20.825 61.363 20.885 59.626 21.482 58.636C23.418 56.214 31.805 57.168 33.424 57.058C35.044 56.96 37.222 56.728 40.4 50.748C40.254 50.552 38.111 54.49 34.556 54.857Z"/>
<path d="M5.59501 51.64C9.94101 52.644 13.398 52.423 15.285 52.9C17.172 53.365 20.471 56.85 20.471 56.85H20.739C20.739 56.85 24.038 53.377 25.925 52.9C27.812 52.423 31.269 52.631 35.615 51.64C39.961 50.638 40.752 46.529 40.485 46.847C40.472 46.859 40.435 46.908 40.387 46.969V16.702C40.387 16.702 38.573 19.148 35.152 19.747C31.719 20.334 29.492 20.273 27.191 20.909C26.534 21.08 25.73 21.52 24.914 22.046C25.244 20.297 24.768 18.976 24.391 18.402C24.707 17.497 24.634 16.763 24.634 16.47C24.634 15.516 24.427 14.427 24.16 13.571C24.768 12.336 24.768 11.431 24.78 10.954C24.805 10.343 24.55 8.887 24.55 8.887C24.55 8.887 23.953 9.352 23.38 9.78V0.779999H22.772V9.94H23.174C23.0323 10.0519 22.8858 10.1576 22.735 10.257C22.625 9.572 22.248 8.753 21.822 8.08H22.066V0.779999H21.457V7.53C21.177 7.139 20.909 6.845 20.739 6.723H20.921V0.779999H20.313V6.723H20.508C20.338 6.845 20.069 7.151 19.765 7.567V0.779999H19.156V8.08H19.424C19.01 8.765 18.621 9.572 18.511 10.27C18.377 10.184 18.231 10.074 18.061 9.951H18.438V0.779999H17.829V9.768C17.269 9.34 16.685 8.888 16.685 8.888C16.685 8.888 16.442 10.343 16.465 10.954C16.478 11.444 16.465 12.348 17.087 13.584C16.819 14.44 16.612 15.528 16.612 16.482C16.612 16.775 16.539 17.497 16.855 18.414C16.49 19.001 16.003 20.322 16.332 22.083C15.504 21.545 14.688 21.117 14.032 20.933C11.73 20.297 9.49001 20.358 6.08201 19.771C2.64901 19.172 0.83501 16.726 0.83501 16.726V46.994C0.78601 46.932 0.75001 46.884 0.73801 46.871C0.68801 46.811 0.67701 46.921 0.72501 47.153C0.92001 48.07 2.12501 50.845 5.59501 51.64Z"/>
<path d="M17.026 0.779999H16.418V8.838H17.026V0.779999ZM24.768 0.779999H24.159V8.838H24.768V0.779999Z"/>
</g>
<defs>
<clipPath id="clip0_1_133">
<rect width="41" height="75" fill="white"/>
</clipPath>
</defs>
</svg>
