<svg width="70" height="67" viewBox="0 0 70 67" xmlns="http://www.w3.org/2000/svg">
<g clip-path="url(#clip0_1_116)">
<path d="M36.913 59.1C35.949 58.223 34.921 58.902 34.313 56.864C33.826 55.232 33.471 52.638 33.387 51.355C32.994 45.365 32.657 41.545 33.125 35.092C33.209 33.922 34.051 32.942 35.08 32.177L35.697 32.073C36.623 32.753 37.932 34.413 38.783 34.535C38.811 34.535 38.83 34.535 38.858 34.545C38.961 34.677 39.708 34.535 39.708 34.337C40.56 33.951 41.486 33.177 42.15 33.262L42.28 33.29C42.318 33.479 42.888 34.035 43.103 34.007C43.627 34.658 44.169 35.497 44.88 35.46C45.077 35.45 45.245 35.394 45.395 35.318C45.591 35.432 45.815 35.46 46.077 35.205C46.349 34.941 46.349 34.677 46.255 34.46C46.377 34.3 46.498 34.149 46.629 34.035C46.853 33.979 47.069 33.894 47.284 33.951C47.751 34.073 48.284 34.347 48.35 34.3C49.014 34.63 49.743 34.988 50.276 34.847C51.183 34.592 51.604 33.497 52.212 33.196C52.717 32.941 53.577 33.083 54.073 32.319C54.185 32.243 54.27 32.12 54.326 31.922C54.3424 31.8512 54.3454 31.7779 54.335 31.706C54.55 30.838 53.923 30.706 53.409 30.498C53.39 30.479 53.362 30.46 53.334 30.441C53.2785 30.4126 53.2187 30.3937 53.157 30.385C53.017 30.3 52.895 30.205 52.829 30.055C52.53 29.347 53.007 28.489 52.661 27.705C52.324 26.913 51.221 26.866 51.109 26.281C51.015 25.81 51.549 25.31 51.726 24.621C51.7767 24.5412 51.8085 24.4509 51.819 24.357C51.866 24.093 51.81 23.904 51.698 23.772C51.361 22.932 50.014 22.244 49.874 21.565C49.753 20.951 50.388 20.366 50.342 19.244C50.519 19.14 50.379 18.244 50.117 18.197C49.481 16.584 47.545 16.716 47.33 16.065C47.115 15.385 48.696 14.715 48.172 13.207C47.648 11.687 43.356 11.669 42.776 11.093C42.234 10.546 42.739 9.669 42.28 8.905C42.271 8.82 42.224 8.725 42.121 8.622C42.0528 8.54925 41.9675 8.49468 41.8728 8.46325C41.7782 8.43182 41.6772 8.42451 41.579 8.442C40.298 8.075 37.642 8.235 37.193 7.867C36.641 7.414 37.23 5.575 36.463 4.971C35.687 4.377 33.377 5.282 32.807 5.047C32.536 4.933 32.321 4.358 32.097 3.754C32.106 3.707 32.115 3.669 32.115 3.622C32.105 3.481 32.031 3.405 31.937 3.33C31.8362 3.05673 31.7145 2.79162 31.573 2.537C31.591 2.339 31.573 2.16 31.236 2.075C31.142 2.056 31.058 2.047 30.993 2.056C30.338 1.906 29.59 2.566 28.804 2.339C28.066 2.103 27.42 1.103 26.597 0.915001C26.5001 0.846683 26.3832 0.812381 26.2647 0.817446C26.1462 0.822511 26.0328 0.866659 25.942 0.943001C24.989 1.263 24.549 2.632 23.811 2.915C23.1 3.188 21.669 2.509 20.621 2.877C20.528 2.82 20.407 2.802 20.211 2.905C19.901 3.075 19.827 3.292 19.836 3.509C19.238 4.405 19.172 5.915 18.826 6.141C18.386 6.433 16.114 6.264 15.431 6.848C14.749 7.424 15.085 9.226 14.234 9.868C13.374 10.508 12.037 9.943 11.139 10.368C10.746 10.556 10.484 11.376 10.241 12.291V12.301C10.213 12.367 10.204 12.424 10.194 12.471C9.89501 13.621 9.61401 14.876 9.13701 15.206C8.77301 15.461 8.28701 15.442 7.80001 15.366C7.78101 15.357 7.76301 15.339 7.74401 15.329C7.64101 15.273 7.55701 15.282 7.46401 15.31C7.13601 15.254 6.82801 15.197 6.55601 15.206C6.41601 15.103 6.26601 15.036 6.01401 15.273C5.79001 15.489 5.75201 15.697 5.79001 15.876C5.56501 16.669 5.74301 17.942 5.43401 18.423C5.3504 18.5389 5.24596 18.6383 5.12601 18.716H5.03201C4.93901 18.734 4.88201 18.791 4.83601 18.866C4.31201 19.112 3.65701 19.282 3.54601 19.725C3.37601 20.385 4.47101 21.885 4.24601 22.64C4.02201 23.404 2.22601 24.423 2.15201 24.96C1.98301 26.159 3.14201 27.772 2.85301 28.687C2.56301 29.602 0.768005 30.092 0.768005 31.102C0.768005 32.112 2.38501 32.752 2.55401 33.536C2.72201 34.309 2.14201 36.016 2.35701 36.658C2.57201 37.3 3.60101 38.648 4.47101 38.62C4.83601 38.61 5.65901 38.026 6.54701 37.356C6.60188 37.334 6.65011 37.2982 6.68701 37.252C7.00501 37.007 7.33301 36.762 7.64101 36.526C7.89401 36.488 8.13701 36.394 8.33301 36.036C8.34301 36.026 8.34301 36.016 8.35201 36.007C8.53901 35.866 8.71701 35.743 8.87601 35.639C8.88501 35.659 8.90401 35.677 8.92201 35.696C9.28701 35.998 9.63301 35.564 9.85801 35.413C10.877 35.837 13.29 37.743 14.131 37.724C14.795 37.714 15.562 37.167 16.264 36.913C16.3803 36.9163 16.4946 36.8831 16.591 36.818C16.769 36.781 16.937 36.781 17.096 36.808C17.975 37.007 19.153 38.894 19.696 38.969C20.201 39.045 22.866 37.752 23.446 36.979C23.717 38.243 24.035 39.526 24.222 40.761L24.232 41.309C24.259 44.912 24.185 48.809 23.68 52.214C23.418 53.921 23.062 57.911 21.36 58.959C20.65 59.402 19.93 59.1 19.34 59.449C18.695 59.817 18.63 60.355 18.218 61.062C17.881 61.657 17.368 61.675 16.853 61.713C17.096 62.147 17.554 62.421 17.993 62.185C18.527 61.902 18.648 61.185 19.05 60.817C20.21 59.742 21.183 61.836 23.567 58.685C23.736 59.308 23.427 60.1 23.165 60.525C22.408 61.741 20.977 61.279 20.556 61.543C20.098 61.826 19.986 62.563 19.434 62.864L18.994 63.1C19.462 63.968 20.098 62.94 20.612 62.581C21.136 62.204 21.594 62.298 22.165 62.317C23.698 62.392 24.475 61.081 25.419 59.987C25.634 60.609 25.475 61.572 24.951 62.072C24.568 62.43 24.269 62.289 23.969 62.534C23.521 62.93 23.577 63.987 22.511 64.874C23.249 65.514 23.586 63.609 25.017 63.317C26.625 62.987 26.822 61.827 27.523 60.619C28.589 62.505 25.953 62.769 26.326 64.553C26.71 64.289 26.691 63.845 27.084 63.581C27.43 63.345 27.832 63.317 28.056 63.053C28.458 62.581 28.608 61.789 28.936 61.081C29.113 61.487 29.263 61.761 29.384 62.109C29.73 63.147 28.617 63.081 30.104 64.789C30.432 64.138 30.067 63.694 29.889 62.798C29.814 62.421 30.132 60.874 30.207 60.43L30.609 61.562C31.105 62.326 31.899 61.949 32.573 62.402C33.396 62.949 33.518 64.685 34.425 64.052C33.658 63.77 33.976 63.204 33.742 62.609C33.48 61.968 33.022 61.987 32.517 61.76C30.946 61.053 31.601 58.515 31.975 59.676C32.293 60.676 32.517 60.968 33.686 61.204C34.219 61.307 34.752 61.279 35.286 61.562C35.828 61.855 36.062 62.581 36.772 62.477C36.155 61.892 36.342 61.223 35.557 60.798C34.687 60.345 33.181 60.638 33.265 59.138C34.219 60.138 35.528 59.421 36.566 60.232C37.016 60.582 37.24 61.43 37.763 61.685C38.306 61.968 38.848 61.647 39.232 61.09C38.848 61.015 38.53 61.015 38.212 60.76C37.614 60.298 37.456 59.6 36.913 59.1Z"/>
<path d="M68.97 48.13C67.596 46.545 64.594 48.535 64.594 48.535C64.594 48.535 63.996 47.025 61.471 46.781C58.946 46.535 56.87 47.941 55.851 47.856C55.111 47.781 55.008 47.479 54.924 47.215C54.849 46.95 54.709 45.894 56.262 45.225C57.823 44.555 59.376 44.686 60.292 43.064C59.273 43.422 58.179 43.064 58.179 43.064C58.179 43.064 61.227 43.074 62.05 40.96C60.938 41.555 59.33 41.507 59.33 41.507C59.33 41.507 62.761 41.14 62.92 38.47C61.33 39.715 59.9 39.63 59.9 39.63C59.9 39.63 63.734 38.545 63.407 36.3C61.826 37.65 60.62 37.527 60.62 37.527C60.62 37.527 63.753 36.894 63.407 33.697C61.835 35.753 59.647 36.036 59.264 36.177C58.871 36.31 53.615 37.64 52.801 38.63C51.988 39.62 51.931 41.611 52.025 42.78C52.109 43.941 52.717 47.535 51.062 47.601C50.407 47.611 50.118 47.291 49.996 46.761C50.333 46.752 51.016 46.696 51.333 46.271C50.969 46.196 50.258 45.63 49.903 45.337V45.205C50.202 45.234 50.782 45.205 51.446 44.677C51.016 44.677 50.258 44.215 49.893 43.979C49.893 43.932 49.893 43.885 49.883 43.847C50.258 43.847 51.053 43.819 51.389 43.536C50.519 43.224 50.697 42.432 49.584 42.215C49.584 42.205 49.584 42.205 49.575 42.196C50.043 42.224 49.958 42.234 50.819 41.894C50.099 41.545 50.033 40.781 49.079 40.847L49.051 40.791C49.388 40.724 49.931 40.631 50.548 40.385C49.631 40.281 49.444 39.338 48.35 39.545L48.284 39.451C48.892 39.149 49.772 39.036 49.659 38.923C48.687 38.47 47.911 38.46 47.434 38.526L47.414 38.508C47.677 38.423 48.004 38.3 48.275 38.149C47.162 37.951 46.91 37.357 46.021 37.734L45.825 37.677C46.227 37.376 46.919 37.083 46.583 37.13C46.171 37.187 44.693 36.62 44.011 37.536H43.955C44.198 37.13 44.778 36.593 44.778 36.593C44.778 36.593 43.028 36.536 42.393 37.809C42.374 37.819 42.355 37.819 42.346 37.829C42.506 37.385 43.076 36.574 43.076 36.574C43.076 36.574 41.972 36.678 41.271 38.31C41.2346 38.3286 41.2001 38.3507 41.168 38.376C41.28 37.81 41.776 36.923 41.776 36.923C40.513 37.677 40.336 38.064 40.139 39.281C39.699 39.762 38.624 40.432 38.652 40.507C38.764 40.791 39.802 40.479 39.802 40.479C39.802 40.479 39.784 40.621 39.765 40.819C39.391 40.96 39.12 41.149 38.774 41.413C38.774 41.413 39.307 41.63 39.69 41.583C39.6803 41.655 39.6803 41.728 39.69 41.8C39.718 42.064 39.877 42.338 39.924 42.498C40.092 43.092 40.289 46.564 40.514 46.941C40.681 47.252 41.224 47.384 41.411 47.384C41.822 47.356 41.57 45.969 41.785 45.988C42 46.008 41.476 47.054 41.953 47.064C42.523 47.074 42.168 44.894 42.393 43.79C42.477 43.328 43.758 42.158 43.263 41.102C46.115 42.026 42.87 48.375 42.907 50.186C42.926 50.931 42.907 52.196 43.197 52.526C41.907 52.582 37.997 50.667 37.577 50.686C37.118 50.705 36.726 50.978 36.651 51.252C36.567 51.572 37.24 56.148 37.324 56.61C37.362 56.874 37.24 57.11 37.38 57.431C37.605 57.931 37.726 57.506 38.306 58.516C38.503 58.846 39.569 59.346 39.877 59.506C39.419 57.261 39.531 57.572 38.979 57.497C38.97 57.497 38.97 57.497 38.961 57.487V57.459V57.479C38.83 57.422 38.446 57.119 38.437 56.988C38.418 56.837 38.643 56.771 38.643 56.686C38.643 56.61 38.269 56.336 38.203 56.139C38.0106 55.2955 37.8299 54.4495 37.661 53.601C37.483 52.346 38.306 52.281 39.251 52.894C39.503 53.064 42.019 55.176 43.16 55.374C43.524 55.431 43.861 55.403 44.151 55.327C44.338 55.865 44.553 56.62 44.619 57.44C44.675 58.054 44.572 59.12 44.572 59.12C44.572 59.12 44.329 59.6 44.357 59.921C44.385 60.233 44.516 60.581 44.516 60.827C44.516 61.063 44.675 62.412 44.646 62.95C44.619 63.487 44.441 64.072 44.432 64.176C44.422 64.27 44.506 64.704 44.488 64.968C44.469 65.242 43.898 66.836 43.898 66.836L45.245 66.572C44.778 63.864 45.348 65.195 45.507 65.034C45.591 64.94 45.414 64.827 45.386 64.61L45.264 60.855C45.404 60.214 45.572 60.705 45.666 59.072L46.788 55.516C47.49 55.79 48.444 56.035 49.659 56.044C52.549 56.064 54.017 55.167 54.606 54.922C55.13 54.686 55.607 54.507 56.046 54.365C56.084 54.582 56.112 54.78 56.14 54.912C56.42 56.507 58.048 57.563 58.263 59.987C58.347 60.912 57.225 63.837 56.598 65.374C56.365 65.959 56.196 66.346 56.196 66.346L57.711 65.94C57.711 65.94 57.636 64.836 57.889 64.657C57.992 64.582 58.179 64.987 58.207 64.977C58.235 64.968 58.217 63.893 58.235 63.714C58.245 63.534 58.983 60.836 59.105 60.487C59.226 60.138 60.04 58.647 60.002 58.346C59.965 58.044 59.366 57.865 59.179 57.252C58.992 56.582 59.235 55.733 59.479 55.12C60.507 56.667 61.667 56.695 62.125 57.865C62.668 59.299 62.125 60.299 62.125 60.299L60.208 66.081L61.686 65.855C61.686 65.855 61.321 64.43 61.62 64.27C61.742 64.195 61.9 64.827 62.172 64.676C62.322 64.591 62.135 63.808 62.2 63.326C62.275 62.846 62.761 61.789 62.93 60.987C63.304 58.761 64.173 58.327 64.145 57.601C64.08 57.157 62.939 56.582 63.388 54.733C63.538 54.063 64.576 52.62 64.781 51.931C65.445 50.365 64.66 48.922 64.66 48.922C64.66 48.922 65.53 48.63 66.221 49.007C67.353 49.62 66.998 51.487 66.913 51.96C66.839 52.431 65.857 55.016 65.96 56.176C66.062 57.666 67.493 57.987 67.493 57.987C67.493 57.987 66.53 57.063 66.857 55.94C67.026 57.799 68.279 57.752 68.279 57.752C68.279 57.752 67.166 56.846 67.783 55.356C67.811 56.997 68.709 57.346 68.709 57.346C68.709 57.346 67.829 56.186 68.391 54.893C68.597 56.44 69.083 56.761 69.083 56.761C69.083 56.761 68.587 54.799 69.149 53.629C69.719 52.479 70.346 49.705 68.971 48.129L68.97 48.13Z"/>
</g>
<defs>
<clipPath id="clip0_1_116">
<rect width="70" height="67" fill="white"/>
</clipPath>
</defs>
</svg>
