<svg width="51" height="65" viewBox="0 0 51 65" xmlns="http://www.w3.org/2000/svg">
<g clip-path="url(#clip0_1_100)">
<path d="M6.29799 17.197C3.71899 20.942 7.78599 23.984 9.41599 27.461C9.74899 28.176 10.968 30.951 10.532 31.576C9.95399 32.42 4.45099 32.266 2.76999 32.893C2.14099 33.123 1.13999 34.248 1.26899 35.423C1.26899 35.463 -0.591012 36.165 0.549988 38.53C1.10199 36.804 2.64199 37.11 2.73099 37.15C5.20799 38.402 8.06899 38.926 10.763 39.68C10.596 42.403 8.83799 44.767 7.33699 46.429C5.18199 48.832 5.23299 50.302 7.96599 52.475C8.74799 53.088 9.78799 53.817 11.006 54.354L11.045 54.379C16.203 57.664 22.438 60.31 29.609 62.956C30.687 63.365 32.189 64.132 33.291 64.286C33.625 64.323 34.292 64.566 34.305 63.799C35.242 63.863 36.294 64.515 36.999 64.566H37.615C37.795 63.314 36.011 62.802 35.447 61.844C35.87 60.451 33.779 59.722 33.022 58.725L32.996 58.687C33.817 56.987 30.828 56.207 29.815 55.147C31.444 53.817 26.543 51.989 26.055 51.261C27.454 49.957 23.708 48.73 22.964 47.924C24.093 47.63 24.734 46.339 23.631 45.534C24.567 45.189 25.131 44.09 24.118 43.349C24.862 42.927 24.811 42.109 24.106 41.649C24.644 41.278 24.593 40.6 24.118 40.217C26.235 39.744 28.391 39.079 30.508 38.773C30.52 38.773 39.09 39.309 43.273 39.974L43.324 39.987C45.249 40.498 50.522 42.377 49.021 38.568L49.008 38.542C50.188 38.185 50.586 36.817 49.623 35.999C50.919 35.194 50.637 34.299 49.636 33.379C50.56 32.586 50.124 31.359 49.149 30.784C49.816 29.902 49.226 28.637 48.122 28.611C48.597 25.249 44.197 28.215 42.606 28.675L42.554 28.688C38.5 29.915 34.305 31.091 30.174 32.024L23.45 31C24.053 30.387 23.835 29.556 23.22 29.045C24.04 28.405 23.77 27.345 22.988 26.808C23.861 25.862 23.373 24.494 22.18 24.034C23.194 22.909 22.475 21.439 21.23 20.967C22.052 19.867 25.362 18.065 23.617 16.812C24.348 16.007 25.772 14.832 26.581 13.758C27.004 13.195 27.671 12.378 26.645 11.904C27.517 10.626 30.198 9.309 29.095 7.635C29.545 6.408 31.571 5.219 30.763 3.903C31.289 2.701 32.97 1.436 32.443 0.770998C31.956 0.157998 30.173 1.653 29.416 1.832C29.416 0.451998 27.863 1.602 27.184 1.972C21.821 4.849 15.637 8.53 11.121 12.377C11.108 12.39 6.91299 16.314 6.29699 17.196L6.29799 17.197Z"/>
</g>
<defs>
<clipPath id="clip0_1_100">
<rect width="51" height="65" fill="white"/>
</clipPath>
</defs>
</svg>
