<svg width="60" height="65" viewBox="0 0 60 65" xmlns="http://www.w3.org/2000/svg">
<g clip-path="url(#clip0_1_96)">
<path d="M58.442 15.545L58.082 15.477L57.936 15.835C57.79 16.116 57.653 16.475 57.576 16.833C57.43 17.54 57.361 17.83 57.078 17.83H56.933C56.573 17.83 56.144 17.617 55.861 17.19C55.432 16.696 55.218 15.912 55.364 15.417C55.51 14.923 55.792 14.284 56.075 13.644C56.933 11.794 58.073 9.52601 56.718 7.25001C56.144 6.33001 54.789 5.69001 53.435 5.69001C52.217 5.69001 51.223 6.18401 50.648 7.11401L50.288 7.60801L50.863 7.82101C51.223 7.88901 51.506 7.96601 51.789 7.96601C52.003 7.96601 52.217 7.96601 52.363 7.89801H53.152C53.726 7.96601 54.224 8.32401 54.584 8.75001C55.012 9.24501 55.158 9.81601 55.081 10.524C55.012 11.521 54.009 12.442 53.083 12.442C52.938 12.442 52.723 12.442 52.586 12.374C52.157 12.229 52.157 11.879 52.089 11.027C52.089 10.456 52.02 9.81701 51.729 9.32201L51.446 8.82701L51.017 9.25301C50.443 9.82501 50.16 10.464 50.16 11.103C50.228 12.101 51.086 12.877 51.874 13.593C52.449 14.087 52.946 14.59 53.014 14.94C53.014 15.221 52.869 15.511 52.586 15.86C51.943 16.568 50.657 17.071 50.228 17.071H50.16C49.9009 17.071 49.645 17.0137 49.4107 16.903C49.1764 16.7923 48.9696 16.6311 48.805 16.431C48.445 16.151 48.308 15.724 48.308 15.366C48.308 15.008 48.454 14.514 48.668 13.942C48.882 13.303 49.165 12.664 49.097 11.956C49.097 11.104 48.522 10.183 47.597 9.33001C46.739 8.54601 45.667 8.12001 44.741 8.12001C43.738 8.12001 42.958 8.69001 42.529 9.75601L42.315 10.464L43.027 10.319C43.524 10.251 43.815 10.106 44.03 9.96101C44.313 9.89301 44.458 9.81601 44.818 9.74801H44.888C45.598 9.74801 46.173 10.174 46.456 10.532C47.03 11.24 47.313 12.306 47.168 13.235C46.808 15.435 44.527 16.432 42.452 16.432C40.377 16.432 38.594 15.434 38.02 14.019C37.737 13.379 37.737 12.382 37.951 11.888C38.097 11.53 38.526 11.18 38.954 10.89C39.597 10.464 40.309 9.97001 40.454 9.18501C40.737 7.83801 39.597 5.98801 38.809 5.56201C38.234 5.20401 37.454 4.99101 36.665 4.99101C35.808 4.99101 34.95 5.20401 34.307 5.63101C33.519 6.05601 33.09 6.69601 33.09 7.48101C33.021 8.40101 33.587 8.82701 34.016 9.04101L34.659 9.25301V8.58001C34.59 7.87201 34.728 7.30101 35.088 7.02001C35.233 6.80701 35.516 6.73801 35.799 6.73801C36.442 6.73801 37.017 7.09601 37.445 7.59101C37.874 8.16201 38.02 8.80101 37.805 9.50901C37.591 10.362 36.451 11.572 35.662 11.999C34.59 12.569 33.159 12.851 31.59 12.851C30.09 12.851 28.658 12.57 27.517 11.999C26.729 11.572 25.734 10.865 25.588 9.65401C25.52 8.87001 25.734 8.09401 26.231 7.52301C26.66 7.02801 27.157 6.73801 27.663 6.73801H27.732C27.946 6.73801 28.16 6.88301 28.375 6.95201C28.658 7.09601 29.018 7.23201 29.446 7.23201C29.661 7.23201 29.875 7.23201 30.089 7.16501L30.518 7.02001L30.372 6.52501C29.875 5.39101 28.297 4.96501 27.089 4.96501H26.66C25.734 5.03301 25.014 5.60501 24.517 6.67001C24.087 7.45501 23.874 8.52001 23.659 9.51001C23.445 10.788 23.162 12.212 22.442 12.425C22.227 12.493 22.013 12.57 21.799 12.57C21.087 12.57 20.367 12.144 19.801 11.786C19.733 11.786 19.733 11.786 19.656 11.717C18.866 11.291 18.086 10.797 17.512 10.08C16.869 9.37301 16.655 8.52001 16.8 7.59101C16.87 7.09601 17.512 6.38101 18.087 6.38101C18.087 6.38101 18.087 6.44901 18.155 6.44901C18.369 6.44901 18.438 6.59301 18.584 7.01901C18.73 7.30101 18.798 7.65901 19.158 8.01701L19.518 8.37501L19.801 7.94901C20.0044 7.64604 20.1187 7.29208 20.1308 6.92739C20.143 6.56269 20.0527 6.20189 19.87 5.88601C19.441 5.10201 18.73 4.67601 17.872 4.67601C17.589 4.67601 17.298 4.67601 17.015 4.82001C16.303 5.10201 16.012 5.95401 15.875 6.67001C15.66 7.37801 15.445 7.88001 15.163 7.94901C15.094 7.94901 14.949 8.01701 14.88 8.01701C14.237 8.01701 13.234 7.44601 12.24 6.59301C11.313 5.74101 10.593 4.74301 10.379 4.03601C10.233 3.61001 10.233 3.32801 10.379 3.18301C10.525 2.97001 10.876 2.75701 11.948 2.75701C12.445 2.75701 13.088 2.82501 13.517 2.90201L14.229 2.97001L14.014 2.26301C13.646 1.18801 12.788 0.480011 11.571 0.480011C10.645 0.480011 9.711 0.906011 9.067 1.54501C8.493 2.11701 8.21 2.82501 8.21 3.53201C8.279 4.45201 8.57 5.23701 9.213 6.02201C9.787 6.66101 10.499 7.23201 11.073 7.72601C11.571 8.15301 12.077 8.57901 12.428 8.93701L12.497 9.00501C12.711 9.21801 12.925 9.50001 12.78 10.003C12.711 10.216 12.205 10.216 11.99 10.216C11.348 10.216 10.636 10.071 10.062 10.003C9.419 9.85801 8.707 9.64501 8.63 9.29501C8.63 9.15001 8.63 9.08201 8.776 8.93701C8.922 8.65601 9.136 8.29701 8.922 7.80301L8.853 7.44501H8.493C7.138 7.59001 6.847 8.29801 6.71 8.72401C6.495 9.72101 7.353 11 8.21 11.494C9.35 12.066 10.928 12.066 12.497 12.134C13.354 12.134 14.066 12.134 14.709 12.279C15.206 12.347 15.926 12.637 16.423 12.987C16.921 13.345 17.213 13.694 17.213 14.052C17.213 14.12 17.066 14.41 16.14 14.692C15.566 14.837 14.854 14.973 13.928 15.05C13.354 15.118 12.711 15.195 11.999 15.195C11.356 15.195 10.713 15.126 10.07 15.126H10.002C9.359 15.126 8.647 15.058 8.004 15.058C7.215 15.058 6.572 15.127 5.929 15.203H5.432L5.072 15.561C5.072 15.63 4.926 15.706 4.858 15.774C4.575 16.056 4.215 16.346 4.146 17.054V17.411L4.498 17.531C4.926 17.599 5.355 17.599 5.784 17.599H6.135C7.138 17.599 7.49 17.667 7.635 17.88C7.421 17.88 7.138 17.812 6.847 17.735C6.564 17.667 6.204 17.59 5.921 17.59C5.346 17.59 4.995 17.803 4.703 18.162L4.42 18.588L4.918 18.869C5.415 19.082 5.989 19.082 6.418 19.082H7.207C7.421 19.082 7.704 19.082 7.996 19.151C8.424 19.295 8.853 19.721 9.35 20.148C9.633 20.429 9.925 20.719 10.208 20.932C10.491 21.077 10.782 21.29 11.133 21.504C10.8893 21.5794 10.6516 21.673 10.422 21.784C9.35 22.143 7.918 22.637 7.85 24.061L7.781 24.419L7.996 24.487H7.927C7.498 24.914 7.353 25.485 7.498 26.193V26.261L7.353 26.329L7.284 26.542C7.138 26.968 7.138 27.676 7.284 28.102V28.171H7.215L7.147 28.315C6.99315 28.597 6.90684 28.9109 6.89486 29.2319C6.88289 29.5529 6.94558 29.8723 7.078 30.165V30.31C6.96615 30.4399 6.87107 30.5834 6.795 30.737C6.65 31.095 6.727 31.521 7.01 32.016V32.084C6.864 32.229 6.65 32.51 6.65 32.724C6.581 33.149 6.718 33.576 7.147 34.002C6.933 34.215 6.864 34.428 6.787 34.71C6.718 35.068 6.855 35.494 7.215 35.843V35.912L7.147 35.98L7.078 36.193C7.044 36.662 7.138 37.003 7.301 37.259H7.224C6.152 36.832 5.724 36.193 4.866 35.409C4.369 34.837 3.366 33.559 2.363 33.704C1.651 33.848 1.437 34.982 1.291 36.116C0.784999 40.191 1.351 45.665 0.210999 48.649V49.356C0.845451 50.3518 1.56551 51.2903 2.363 52.161C2.663 52.511 2.972 52.826 3.297 53.141C3.555 53.397 3.812 53.653 4.069 53.901C4.429 52.69 4.712 50.132 3.855 49.356C3.426 48.862 2.637 49.075 2.423 48.649C1.926 47.583 2.852 46.875 3.777 46.586C3.632 46.159 3.28 45.665 3.134 45.238C2.706 43.892 2.131 38.205 3.992 38.205C4.781 38.137 5.209 39.697 5.492 40.481C6.281 42.186 7.062 43.184 8.279 44.105H8.313C8.09 44.198 7.876 44.335 7.704 44.531C7.275 44.957 7.13 45.451 7.207 45.955C7.275 46.952 8.347 47.66 9.067 48.086C9.213 48.154 9.282 48.299 9.427 48.367C10.997 49.578 12.428 50.993 13.928 52.562C14.426 53.056 15 53.628 15.498 54.199C15.78 54.412 15.995 54.77 16.286 55.051C16.86 55.759 17.503 56.475 18.146 56.756C18.858 56.97 19.578 57.038 20.29 57.038C20.933 57.038 21.507 57.106 22.005 57.319L22.142 57.37L22.15 57.387H22.185L22.725 57.6V57.592C23.068 57.754 23.325 57.873 23.582 58.027L24.371 58.453L24.302 57.6C24.157 56.603 24.019 55.043 22.871 54.617C22.441 54.548 22.013 54.472 21.731 54.472H20.942L20.967 54.54C20.539 54.531 20.007 54.506 19.587 54.403C18.798 54.258 18.661 54.045 18.584 53.977C18.515 53.764 18.652 53.483 18.798 53.337L19.081 52.843L18.584 52.63C17.152 52.059 15.944 51.283 15.009 50.286C14.006 49.22 13.294 48.009 13.011 46.73C13.157 46.585 13.371 46.517 13.8 46.517C14.297 46.517 14.94 46.662 15.583 46.799C15.797 46.867 16.012 46.944 16.157 46.944C17.084 47.157 18.155 47.37 19.158 47.514C19.587 47.583 20.084 47.66 20.59 47.66C22.236 47.66 24.088 47.233 24.945 46.313H25.305C25.88 46.381 26.308 46.381 26.805 46.381C29.163 46.381 30.81 45.741 32.233 45.034C32.661 44.821 33.159 44.539 33.587 44.25C34.11 43.977 34.607 43.712 35.105 43.474C35.276 45.068 35.902 45.767 36.88 46.73C36.948 46.799 37.025 46.875 37.094 47.012C37.24 47.08 37.377 47.225 37.522 47.37L38.38 48.222C38.663 48.649 38.663 48.862 38.663 48.93C38.663 48.93 38.594 49.075 38.088 49.501C37.805 49.714 37.445 49.996 36.948 50.286C36.451 50.576 35.876 50.856 35.379 51.138C35.096 51.283 34.805 51.419 34.522 51.564C34.239 51.709 33.947 51.846 33.596 52.059C31.666 53.056 29.309 54.259 28.452 55.75C28.306 55.964 28.237 56.245 28.169 56.458C28.169 56.526 28.169 56.671 28.1 56.671C28.032 56.739 27.886 56.884 27.74 56.953C27.483 57.149 27.106 57.336 26.883 57.788C26.711 57.942 26.514 58.103 26.317 58.299C25.888 58.871 25.391 59.579 25.674 60.644L25.743 61.002H26.171C27.097 60.857 27.955 60.218 28.743 59.655C28.812 59.587 28.889 59.51 29.026 59.442L29.172 59.374V59.161C29.241 59.016 29.241 58.879 29.241 58.734C29.309 58.521 29.309 58.376 29.386 58.24L29.412 58.103C29.489 57.89 29.618 57.583 29.746 57.387C29.892 57.174 29.961 57.106 30.029 57.106V57.174C30.098 57.319 30.175 57.6 30.527 57.814L31.101 58.24L31.247 57.532C31.607 55.546 32.893 54.693 34.393 53.909C37.068 52.409 40.275 51.232 42.863 50.329C42.753 50.507 42.633 50.661 42.538 50.789C41.398 52.212 39.323 53.414 37.394 54.557C36.965 54.77 36.605 54.983 36.254 55.197C33.176 57.012 30.87 58.768 29.044 60.661L29.034 60.67C28.589 61.079 28.152 61.514 27.809 62.017L27.68 62.162H27.715C27.373 62.6958 27.1639 63.3038 27.105 63.935V64.361L27.535 64.429H27.749C29.395 64.429 30.749 63.577 31.889 62.937L32.035 62.869L32.25 62.724V62.162C32.181 62.093 32.181 61.948 32.181 61.804V61.59C32.25 60.806 32.824 60.098 33.399 60.098C33.613 60.098 33.759 60.167 33.973 60.38L34.333 60.661L34.616 60.303C37.12 57.319 41.115 55.188 45.05 53.269C45.196 53.201 45.264 53.125 45.41 53.056C46.842 52.349 48.05 51.709 48.48 50.993C48.908 49.996 48.265 48.93 47.69 48.154C47.545 47.873 47.408 47.66 47.33 47.514C46.97 46.449 47.048 45.384 47.545 44.25C48.042 43.252 48.831 42.331 49.474 41.479C49.688 41.334 49.757 41.121 49.903 40.984C51.257 39.347 52.475 37.642 52.62 35.23C52.6727 34.78 52.6497 34.3244 52.552 33.882C52.483 33.524 52.483 33.312 52.483 33.03C52.552 33.03 52.629 33.03 52.698 33.098C53.195 33.243 53.769 33.456 54.266 33.456C54.909 33.456 55.338 33.175 55.552 32.604L55.698 32.109C56.127 31.896 56.341 31.469 56.41 30.975V30.481H56.264C56.547 30.055 56.693 29.483 56.547 28.776L56.333 27.991L56.187 28.205C56.187 27.565 55.904 26.994 55.398 26.568L54.969 26.286C54.755 25.716 54.326 25.366 53.683 25.289L53.323 25.221C52.895 24.649 52.397 24.581 51.969 24.581H51.223L51.369 25.153C51.514 25.579 51.797 26.005 52.08 26.431C52.509 27.071 53.006 27.778 52.869 28.563C52.8 28.989 52.372 29.27 51.729 29.483C50.803 28.273 49.869 27.352 48.874 26.713C47.442 25.792 45.942 25.289 44.158 25.289H44.09C41.8 25.289 39.657 26.209 37.377 27.275C36.948 27.42 36.451 27.633 36.022 27.847C35.876 27.915 35.739 27.991 35.594 28.06C33.236 29.057 30.595 30.191 27.946 30.472C27.449 30.541 27.02 30.541 26.591 30.541C24.877 30.541 23.231 30.114 21.945 29.33C20.7223 28.6322 19.7866 27.5235 19.304 26.201C18.515 24.07 19.021 21.444 20.444 20.446C21.302 21.154 22.802 21.657 24.234 21.657C25.948 21.657 27.234 21.017 27.809 19.952L27.955 19.739L27.809 19.526C27.097 18.102 25.169 17.326 22.665 17.326C21.876 17.326 21.095 17.394 20.375 17.539C19.587 17.113 19.518 16.473 19.518 16.115C19.518 15.476 19.947 14.905 20.444 14.623C21.302 14.265 22.871 14.053 24.731 14.053H25.588C26.806 14.053 28.803 14.479 29.661 15.05C30.158 15.331 30.372 15.757 30.304 15.97C30.235 16.115 29.944 16.252 29.592 16.252C29.378 16.252 29.232 16.252 29.018 16.184L28.443 16.115L28.512 16.687C28.512 17.327 28.795 17.607 29.009 17.821C29.292 18.034 29.652 18.179 30.081 18.179C30.5637 18.1677 31.0332 18.0197 31.435 17.752C31.864 17.394 32.147 16.968 32.147 16.542C32.216 16.26 32.001 15.971 31.864 15.757C31.718 15.544 31.581 15.331 31.581 15.118C31.65 14.905 31.727 14.837 31.941 14.837C32.37 14.837 33.081 15.195 33.587 15.407L33.656 15.476C34.728 15.971 35.799 16.61 36.871 17.181C37.514 17.539 38.088 17.889 38.654 18.179C40.086 18.963 41.372 19.526 42.658 19.952C44.304 20.523 45.873 20.872 47.228 20.872C48.728 20.872 50.083 20.515 51.154 19.807C51.514 19.526 51.866 19.313 52.226 19.023C52.655 18.665 53.152 18.238 53.443 18.238C53.512 18.238 53.589 18.238 53.658 18.17H53.803C53.872 18.17 53.872 18.17 53.872 18.238C53.872 18.307 53.872 18.383 53.803 18.383C54.018 18.451 54.233 18.665 54.447 18.954C54.944 19.381 55.587 20.02 56.521 20.088H56.804C57.516 20.088 58.236 19.807 58.879 19.304C59.453 18.81 59.882 18.17 59.951 17.599C60.079 16.609 59.513 15.894 58.441 15.544L58.442 15.545ZM12.788 17.25C13.148 17.182 13.431 17.037 13.928 17.037C13.5 18.103 15.712 18.674 15.498 17.319C16.209 17.464 16.638 17.889 16.998 18.452C15.214 19.024 13.431 18.452 12.788 17.25ZM25.434 19.731C25.434 21.291 21.001 20.089 21.001 19.091C21.576 17.89 25.434 18.597 25.434 19.731Z"/>
</g>
<defs>
<clipPath id="clip0_1_96">
<rect width="60" height="65" fill="white"/>
</clipPath>
</defs>
</svg>
