<svg width="78" height="69" viewBox="0 0 78 69" xmlns="http://www.w3.org/2000/svg">
<g clip-path="url(#clip0_1_119)">
<path d="M71.839 17.272C71.893 17.245 71.934 17.217 71.988 17.19L71.853 17.204C72.719 16.509 78.596 11.712 76.998 9.77699C76.05 9.06799 73.301 10.99 72.516 11.562L72.638 11.44C73.748 10.486 77.201 7.25599 76.849 4.63999C76.646 4.01299 68.779 10.745 62.428 13.184C56.091 15.609 51.46 15.269 48.427 15.746C46.097 16.1 43.999 17.762 42.591 19.152C42.631 18.022 42.726 16.304 43.011 15.392C43.444 13.947 44.879 12.734 44.744 9.42199C44.622 6.15199 41.318 5.11699 41.034 4.97999C40.356 3.72699 38.393 0.687988 38.393 0.687988C38.393 0.687988 37.96 3.97199 37.851 5.36199C37.824 5.37599 37.784 5.38899 37.77 5.40199C37.54 5.57999 36.822 7.56999 36.118 9.32699C35.698 10.377 35.238 11.207 35.075 11.862C34.696 13.347 34.425 13.007 34.06 17.926C32.8 16.918 31.257 16.005 29.605 15.746C26.572 15.255 21.941 15.609 15.604 13.184C9.239 10.772 1.372 4.03999 1.169 4.66699C0.817 7.28299 4.269 10.513 5.38 11.467L5.502 11.589C4.717 11.004 1.968 9.09599 1.02 9.80399C-0.578 11.739 5.299 16.536 6.166 17.217L6.03 17.204C6.07 17.231 6.125 17.258 6.18 17.285C5.57 17.122 2.05 16.222 1.86 17.176C1.21 19.248 6.599 20.951 7.303 21.169L7.1 21.155C7.168 21.169 7.249 21.183 7.317 21.21C6.87 21.305 4.351 21.891 4.351 22.586C4.419 25.012 10.621 25.053 10.621 25.053C10.621 25.053 6.571 26.047 6.707 27.165C6.91 28.705 11.541 28.419 11.541 28.419C11.541 28.419 11.528 28.432 11.487 28.446L11.406 28.459H11.446C10.986 28.691 8.969 29.768 9.47 30.503C10.092 31.962 15.13 31.485 15.13 31.485C15.13 31.485 13.396 32.52 13.6 33.705C14.087 35.232 17.648 34.51 18.515 34.305L18.475 34.333C18.528 34.319 18.596 34.305 18.65 34.292C18.312 34.455 16.646 35.3 17.96 36.417C19.287 37.562 23.58 36.077 24.283 35.831C24.31 35.831 24.337 35.818 24.378 35.804C24.283 35.94 23.538 37.154 24.31 37.862C25.556 39.184 28.698 36.772 29.036 36.499C29.05 36.499 29.05 36.499 29.063 36.486C29.009 36.649 28.616 37.916 29.971 37.78C31.162 37.671 33.654 36.254 34.466 35.777C28.643 56.857 21.25 61.613 21.453 62.24C21.656 62.853 29.036 68.836 39.003 68.836C48.968 68.836 56.348 62.867 56.551 62.24C56.768 61.613 49.361 56.858 43.566 35.79C44.378 36.267 46.869 37.671 48.061 37.794C49.415 37.916 49.023 36.649 48.968 36.499C48.982 36.499 48.982 36.499 48.995 36.513C49.347 36.785 52.475 39.197 53.721 37.876C54.493 37.153 53.748 35.954 53.654 35.818C53.681 35.832 53.721 35.832 53.748 35.845C54.452 36.104 58.745 37.575 60.072 36.431C61.385 35.3 59.72 34.455 59.382 34.305C59.435 34.319 59.503 34.333 59.557 34.346L59.517 34.319C60.383 34.523 63.958 35.245 64.432 33.719C64.635 32.534 62.902 31.499 62.902 31.499C62.902 31.499 67.939 31.975 68.562 30.517C69.036 29.781 67.032 28.705 66.585 28.473H66.625L66.545 28.459C66.525 28.454 66.5062 28.4448 66.49 28.432C66.49 28.432 71.121 28.718 71.324 27.179C71.46 26.061 67.411 25.066 67.411 25.066C67.411 25.066 73.599 25.026 73.667 22.6C73.667 21.891 71.121 21.305 70.701 21.21L70.905 21.17L70.715 21.183C71.433 20.965 76.795 19.248 76.159 17.19C75.969 16.209 72.449 17.108 71.839 17.272Z"/>
</g>
<defs>
<clipPath id="clip0_1_119">
<rect width="78" height="69" fill="white"/>
</clipPath>
</defs>
</svg>
