<svg width="73" height="70" viewBox="0 0 73 70" xmlns="http://www.w3.org/2000/svg">
<g clip-path="url(#clip0_1_121)">
<path d="M72.034 35.424C71.965 35.228 71.254 35.205 70.611 35.367C69.957 35.517 66.629 36.277 63.541 36.67C60.466 37.073 54.659 37.488 54.659 37.488C54.659 37.488 47.257 38.226 42.357 38.065C42.644 37.903 42.839 37.695 42.816 37.465C42.804 37.154 42.552 36.923 41.416 36.715C41.714 36.67 42.001 36.6 42.265 36.508C42.529 36.416 42.873 36.243 43.16 36.047C43.504 35.793 43.745 35.517 43.665 35.24C43.63 34.928 43.263 34.836 42.242 34.675C42.253 34.675 42.265 34.663 42.276 34.663C42.552 34.571 43.034 34.306 43.436 34.018C43.871 33.683 44.204 33.291 44.078 32.945C44.044 32.761 43.86 32.703 43.528 32.657C44.755 32.242 46.293 31.689 47.36 31.181C49.403 30.213 51.021 29.186 51.423 28.875C51.836 28.564 52.123 28.322 52.031 27.941C51.928 27.561 51.021 27.63 50.677 27.803C50.527 27.872 50.069 28.079 49.575 28.287C50.849 27.537 51.721 26.903 51.997 26.684C52.375 26.361 52.651 26.096 52.547 25.75C52.444 25.393 51.652 25.462 51.308 25.635C51.182 25.693 50.768 25.9 50.298 26.131C51.538 25.347 52.341 24.701 52.582 24.482C52.72 24.355 52.846 24.228 52.938 24.102C54.3389 23.4542 55.6893 22.7024 56.978 21.853C59.915 19.893 60.994 18.705 61.132 18.533C61.258 18.383 61.533 18.071 61.327 17.76C61.12 17.448 60.73 17.333 60.283 17.506C60.133 17.552 59.835 17.714 59.479 17.898C59.548 17.852 59.605 17.794 59.674 17.748C61.005 16.722 61.66 15.996 61.82 15.742C61.935 15.546 62.187 15.246 62.004 14.923C61.9475 14.8371 61.8677 14.7691 61.774 14.727C61.579 14.635 61.304 14.635 60.948 14.797C60.822 14.854 60.615 14.969 60.363 15.107L60.374 15.097C61.568 14.139 62.291 13.367 62.509 12.952C62.624 12.732 62.83 12.41 62.693 12.098C62.635 12.006 62.543 11.971 62.44 11.937C62.268 11.867 61.992 11.902 61.614 12.098C61.522 12.156 61.373 12.237 61.212 12.329C62.21 11.499 62.933 10.715 63.197 10.184C63.324 9.93101 63.496 9.60801 63.369 9.28501C63.3432 9.23821 63.305 9.19943 63.2586 9.17296C63.2122 9.14649 63.1594 9.13336 63.106 9.13501C62.991 9.06501 62.693 9.17001 62.302 9.41201L61.969 9.61901C62.842 8.86901 63.599 8.06301 63.886 7.40601C64.012 7.12901 64.15 6.79401 64.058 6.46001C64.012 6.36801 63.908 6.32201 63.771 6.33301C63.679 6.28701 63.392 6.42501 62.968 6.71301C62.945 6.73701 62.91 6.74801 62.876 6.77101C63.576 6.12601 64.265 5.36501 64.563 4.65001C64.701 4.32701 64.793 3.99301 64.723 3.65801C64.678 3.56601 64.575 3.53101 64.425 3.55401C64.368 3.53101 64.115 3.69301 63.737 3.95801C64.597 3.10501 65.539 1.94001 65.412 0.856008C65.366 0.752008 65.24 0.729008 65.091 0.764008C65.011 0.787008 62.566 2.70101 60.156 4.62701C58.7875 5.70717 57.4219 6.79084 56.059 7.87801C55.933 7.72801 55.922 7.77401 55.692 7.92401C55.508 8.05101 51.469 11.014 49.851 12.202C38.822 17.979 33.991 18.175 32.028 21.588C31.156 23.468 30.594 29.936 29.997 31.619C29.744 32.346 29.067 33.383 28.356 34.375C27.851 33.453 27.392 32.507 27.208 31.838C26.749 30.201 26.29 23.986 25.636 22.176C24.166 18.832 20.575 18.475 12.358 12.514C10.9205 11.0864 9.47785 9.66405 8.02997 8.24701C7.85797 8.08601 7.84697 8.04001 7.75497 8.19001L4.71497 4.92601C2.86697 3.06001 1.05397 1.13301 0.995972 1.11001C0.892972 1.07501 0.789972 1.07501 0.765972 1.19001C0.675972 2.21701 1.37597 3.35801 2.01797 4.20001C1.73097 3.92301 1.54797 3.77301 1.51297 3.78501C1.40997 3.76201 1.31797 3.78501 1.29497 3.87701C1.24897 4.20001 1.32897 4.52301 1.42097 4.82301C1.63897 5.52601 2.15597 6.27601 2.68297 6.93301C2.66329 6.91043 2.64037 6.89089 2.61497 6.87501C2.30497 6.58701 2.07497 6.43701 2.01797 6.48301C1.92597 6.47201 1.84597 6.50601 1.81097 6.59801C1.73097 6.91001 1.84597 7.23301 1.93797 7.49801C2.15597 8.13201 2.71797 8.92801 3.36097 9.66501C3.26897 9.58501 3.18797 9.52701 3.13097 9.46901C2.83297 9.21601 2.61497 9.11201 2.53397 9.16901C2.44197 9.18101 2.37397 9.21601 2.33897 9.30801C2.24697 9.61901 2.37397 9.93101 2.47697 10.173C2.67197 10.703 3.21097 11.487 3.96897 12.317C3.85961 12.2353 3.75224 12.1509 3.64697 12.064C3.37197 11.856 3.16497 11.81 3.03897 11.868C2.95897 11.902 2.88997 11.937 2.85597 12.018C2.75197 12.318 2.90197 12.628 3.00497 12.848C3.16497 13.24 3.70497 14.012 4.58897 14.958L4.61097 14.981C4.46482 14.8639 4.31152 14.7561 4.15197 14.658C3.88797 14.485 3.68197 14.474 3.54397 14.566C3.47497 14.612 3.40597 14.658 3.37197 14.739C3.23397 15.039 3.41797 15.349 3.52197 15.523C3.63597 15.777 4.12897 16.491 5.10497 17.518C5.15097 17.564 5.19697 17.61 5.24297 17.668C4.98997 17.483 4.76097 17.322 4.65697 17.276C4.32497 17.091 4.03697 17.183 3.88797 17.483C3.73897 17.771 3.93397 18.083 4.03797 18.233C4.12897 18.383 4.94397 19.558 7.12497 21.553C8.06456 22.3969 9.0701 23.1643 10.132 23.848C10.2 23.963 10.292 24.078 10.396 24.205C10.579 24.425 11.164 25.059 12.071 25.843C11.727 25.612 11.428 25.404 11.336 25.347C11.084 25.174 10.499 25.082 10.418 25.416C10.338 25.739 10.545 26.016 10.832 26.326C11.038 26.546 11.692 27.192 12.656 27.953C12.289 27.733 11.933 27.515 11.818 27.433C11.555 27.261 10.888 27.169 10.808 27.526C10.74 27.883 10.958 28.137 11.256 28.436C11.555 28.736 12.76 29.797 14.274 30.789C15.066 31.308 16.214 31.896 17.121 32.334C16.88 32.369 16.741 32.414 16.719 32.588C16.627 32.911 16.868 33.291 17.212 33.626C17.499 33.926 17.866 34.179 18.062 34.294C18.073 34.294 18.073 34.306 18.084 34.306C17.339 34.421 17.064 34.502 17.04 34.79C17.0248 34.8789 17.0327 34.9701 17.063 35.055C14.47 34.536 11.555 33.891 11.05 33.925C10.235 33.983 9.75297 34.145 9.20197 34.721C8.90397 35.044 8.86897 35.274 8.90397 35.436H8.87997C8.59297 35.459 6.64197 35.632 6.15997 36.658C5.63197 37.776 6.30897 39.045 6.30897 39.045V38.918L7.37597 37.776C7.47997 37.765 7.58297 37.753 7.70897 37.753C8.92597 37.765 9.20097 37.915 9.71697 38.261C9.83197 38.341 9.96997 38.434 10.131 38.537C10.98 39.091 12.805 40.647 13.321 41.132C13.378 41.19 13.471 41.27 13.561 41.362H13.551C13.551 41.362 15.823 43.772 16.362 43.53L16.431 43.495C17.062 44.107 18.291 45.283 18.681 45.121C19.139 44.948 19.174 44.741 19.174 44.602C20.034 45.467 20.275 46.528 20.918 46.332C20.987 46.309 21.056 46.286 21.102 46.262C21.652 46.759 22.662 47.692 23.03 47.623C23.328 47.566 23.42 47.451 23.466 47.37C23.73 47.635 24.109 47.923 24.671 48.177C25.245 48.523 25.554 48.603 25.715 48.546C26.128 48.915 26.565 49.272 26.817 49.341C27.677 49.595 27.873 49.411 27.953 49.191C28.32 49.503 28.665 49.78 28.906 49.849C29.112 49.906 29.226 49.895 29.342 49.918C29.502 49.953 29.594 49.848 29.686 49.86C29.926 49.86 30.088 49.803 30.133 49.71C30.1565 49.6763 30.1687 49.6361 30.168 49.595C30.788 49.999 31.224 50.195 31.534 50.287C32.601 51.97 35.045 57.632 35.321 57.62C35.332 57.62 35.344 57.62 35.355 57.609C35.803 58.6 36.377 59.903 36.525 60.157C36.939 60.86 36.721 61.114 36.721 61.114C36.721 61.114 35.768 61.218 35.539 61.322C35.309 61.414 35.079 61.632 35.079 61.632C35.079 61.632 35.034 61.667 34.977 61.748C34.54 61.76 34.265 61.771 34.265 61.771C33.9595 61.741 33.6512 61.7722 33.358 61.863C33.335 61.806 33.301 61.76 33.255 61.691C33.117 61.529 32.417 60.964 32.417 60.964C32.417 60.964 32.303 60.872 32.13 60.722C32.486 60.422 32.865 60.076 32.945 59.926C33.117 59.615 33.496 58.439 33.037 58.046C32.577 57.666 32.28 57.689 32.085 57.782C31.878 57.885 31.809 58.232 31.58 58.335C31.35 58.427 30.971 58.381 30.948 58.231C30.834 57.712 31.27 57.563 31.373 57.505C31.465 57.435 32.073 56.732 31.281 55.971C30.489 55.199 30.168 56.387 29.731 56.26C29.284 56.133 29.479 55.614 29.456 55.349C29.422 55.084 29.204 54.738 28.917 54.68C28.619 54.634 28.481 54.807 28.389 55.003C28.286 55.199 28.286 55.603 28.01 55.556C27.746 55.51 27.632 55.429 27.517 55.268C27.402 55.107 27.15 54.645 26.886 54.611C26.622 54.576 26.564 54.691 26.473 54.865C26.45 54.922 26.427 54.98 26.415 55.049C26.392 55.037 26.381 55.026 26.381 55.026L26.415 55.06C26.3755 55.2434 26.4002 55.4347 26.485 55.602C26.656 55.948 27.299 56.156 27.275 56.479C27.241 56.802 26.702 56.444 26.415 56.732C26.163 56.974 26.175 57.182 26.278 57.424C25.796 57.344 25.05 57.954 24.9 57.747C24.717 57.47 25.532 56.917 25.382 56.202C25.233 55.476 25.222 55.441 24.9 55.314C24.59 55.176 24.258 55.337 24.132 55.499C23.994 55.66 23.913 56.329 23.558 56.052C23.213 55.787 23.707 55.429 23.89 55.21C24.074 54.991 24.109 54.484 23.753 54.126C23.408 53.746 22.983 54.092 22.777 54.196C22.571 54.311 22.41 54.922 22.112 54.691C21.825 54.472 22.261 54.023 22.089 53.642C21.928 53.262 21.526 52.997 21.148 52.997C20.78 52.997 20.539 53.031 20.378 53.285C20.2961 53.4147 20.2481 53.5628 20.2381 53.7158C20.2282 53.8688 20.2566 54.0218 20.321 54.161C20.459 54.415 20.964 54.726 20.907 54.991C20.861 55.257 20.482 55.141 20.321 55.049C20.161 54.957 20.046 54.784 19.828 54.888C19.426 55.038 19.529 55.418 19.61 55.775C19.69 56.121 19.885 56.421 20.126 56.536C20.367 56.64 20.884 56.502 21.079 56.536C21.285 56.571 21.503 56.64 21.503 56.802C21.503 56.974 20.78 56.732 20.551 56.882C20.31 57.032 20.493 57.724 20.631 57.932C20.758 58.162 21.033 58.542 21.389 58.6C21.733 58.646 21.71 58.335 21.974 58.266C22.238 58.186 22.295 58.243 22.376 58.358C22.467 58.462 22.49 58.6 22.353 58.738C22.226 58.888 21.733 58.762 21.653 59.062C21.583 59.35 21.973 59.869 22.203 60.076C22.444 60.284 22.743 60.596 23.225 60.63C23.718 60.664 24.075 60.468 24.465 60.226C24.74 60.053 25.256 59.892 25.543 59.8L25.554 59.811C25.796 60.019 26.737 60.871 26.909 61.091C26.966 61.161 27.012 61.241 27.058 61.321C26.6971 61.266 26.333 61.2352 25.968 61.229C25.5571 61.2344 25.147 61.2655 24.74 61.322C24.7255 61.2508 24.6953 61.1838 24.6515 61.1258C24.6077 61.0678 24.5515 61.0204 24.487 60.987C24.304 60.895 22.559 60.78 21.871 60.549C21.251 60.341 20.471 60.065 19.748 59.684C19.828 59.35 19.885 58.554 19.839 57.897C19.793 57.113 19.071 56.652 18.921 56.547C18.761 56.444 18.6 56.444 18.554 56.547C18.497 56.652 18.761 57.447 18.084 57.378C17.682 57.286 17.774 56.559 17.544 56.133C17.314 55.706 16.534 55.429 16.282 55.429C16.029 55.441 15.892 55.556 15.869 55.718C15.857 55.891 16.293 56.41 16.282 56.606C16.282 56.928 15.926 56.663 15.754 56.467C15.582 56.26 15.421 55.66 15.1 55.407C14.778 55.153 14.285 55.372 14.216 55.533C14.044 55.937 14.709 56.352 14.48 56.617C14.239 56.882 13.814 56.087 13.562 56.006C13.298 55.914 12.667 56.064 12.552 56.283C12.437 56.502 12.449 57.159 12.782 57.367C13.102 57.574 13.849 57.39 13.906 57.551C13.975 57.701 13.08 57.816 12.976 58.093C12.885 58.381 13.137 58.727 13.309 58.9C13.493 59.073 13.779 59.246 14.089 59.211C14.399 59.177 14.698 58.681 14.836 58.611C14.985 58.543 15.042 58.474 15.169 58.611C15.283 58.751 15.283 58.831 15.215 58.946C15.145 59.062 14.652 58.969 14.549 59.234C14.446 59.5 14.721 59.788 15.146 60.111C15.57 60.434 16.121 60.249 16.305 60.031C16.488 59.822 16.351 59.741 16.431 59.591C16.523 59.442 16.718 59.373 16.798 59.419C16.878 59.454 17.005 59.557 16.924 59.799C16.867 60.042 16.649 59.949 16.569 60.111C16.489 60.261 16.477 60.422 16.695 60.664C16.913 60.894 17.635 61.056 18.083 60.941C18.543 60.837 18.531 60.676 18.657 60.445C18.772 60.226 18.807 60.238 18.99 60.111C19.105 60.031 19.334 60.019 19.507 59.949C20.344 60.319 21.412 60.849 21.733 60.987C22.066 61.137 23.799 61.667 24.223 61.76V61.806H24.132C24.189 61.794 22.399 62.059 21.481 62.359C21.401 62.382 21.297 62.417 21.194 62.463C21.0659 62.3249 20.9469 62.1786 20.838 62.025C20.275 61.264 18.99 61.333 18.99 61.333C18.99 61.333 18.267 61.298 18.175 61.541C18.072 61.841 18.107 61.841 18.21 61.91C18.302 61.979 18.577 62.06 18.68 62.232C18.795 62.394 18.898 62.521 18.68 62.648C18.462 62.774 18.325 62.636 18.175 62.498C18.026 62.348 17.521 62.036 17.085 62.002C16.649 61.967 16.305 62.14 16.144 62.382C15.994 62.636 15.994 62.752 16.167 62.912C16.327 63.086 16.488 63.12 16.488 63.12C16.488 63.12 16.924 63.42 16.672 63.605C16.408 63.789 16.339 63.408 15.8 63.328C15.26 63.248 15.077 63.293 14.985 63.501C14.893 63.697 14.916 63.847 15.042 63.985C15.169 64.123 15.536 64.055 15.49 64.319C15.456 64.585 14.985 64.596 14.985 64.596C14.985 64.596 14.365 64.688 14.17 64.826C13.987 64.954 13.952 65.196 14.044 65.449C14.021 65.461 14.01 65.461 14.01 65.461C14.01 65.461 14.02 65.461 14.044 65.449C14.055 65.461 14.055 65.484 14.067 65.496C14.193 65.772 14.331 66.014 14.583 66.096C14.836 66.187 15.077 65.946 15.169 65.806C15.26 65.668 15.547 65.622 15.674 65.646C15.823 65.656 15.96 65.784 15.949 65.956C15.938 66.118 15.742 66.026 15.708 66.279C15.685 66.545 15.96 66.879 16.351 66.868C16.729 66.845 17.016 66.314 17.016 66.118C17.016 65.911 16.879 65.968 16.89 65.738C16.913 65.496 17.338 65.358 17.418 65.346C17.4595 65.3422 17.5014 65.3466 17.5412 65.359C17.581 65.3714 17.618 65.3916 17.65 65.4184C17.6819 65.4451 17.7083 65.478 17.7275 65.515C17.7467 65.552 17.7585 65.5925 17.762 65.634C17.797 65.899 17.51 66.026 17.602 66.36C17.693 66.695 17.854 66.833 18.325 66.637C18.818 66.441 19.208 66.072 19.277 65.737C19.346 65.403 19.105 65.357 19.127 65.15C19.139 64.942 19.277 64.746 19.472 64.746C19.667 64.746 19.828 64.907 19.828 65.115C19.828 65.311 19.564 65.611 19.736 65.738C19.896 65.865 20.677 65.772 21.182 65.299C21.699 64.827 22.02 63.777 21.928 63.259C21.9126 63.1537 21.8762 63.0526 21.8211 62.9615C21.766 62.8705 21.6932 62.7914 21.607 62.729L21.744 62.694C22.789 62.405 23.179 62.371 23.374 62.371C23.569 62.348 24.2 62.382 24.372 62.313C24.4268 62.2919 24.4746 62.2559 24.51 62.209C24.832 62.279 25.417 62.163 26.874 62.29C27.85 62.37 28.894 62.705 29.606 62.97C29.307 63.109 28.458 63.558 28.033 63.904C27.838 63.72 27.448 63.351 27.103 63.212C26.61 63.005 26.323 62.947 25.864 63.039C25.394 63.132 24.946 63.605 24.889 63.824C24.843 64.043 24.866 64.204 25.268 64.204C25.658 64.204 25.991 64.296 25.933 64.492C25.887 64.7 25.463 64.815 25.027 64.665C24.6276 64.5371 24.1983 64.5371 23.799 64.665C23.512 64.757 23.339 65.207 23.317 65.507C23.305 65.818 23.374 65.968 23.73 66.083C24.086 66.21 24.407 66.026 24.453 66.233C24.51 66.441 24.315 66.613 23.983 66.683C23.638 66.763 23.523 66.476 23.283 66.453C23.041 66.429 22.583 66.66 22.559 66.96C22.548 67.271 22.639 67.387 22.972 67.456C23.305 67.525 23.466 67.236 23.523 67.606C23.569 67.963 22.961 68.147 22.789 68.159C22.629 68.182 22.169 68.655 22.525 69.243C22.881 69.854 23.363 69.404 23.65 69.45C23.936 69.496 24.292 69.093 24.602 69.093C24.912 69.093 24.625 69.877 24.969 69.958C25.302 70.05 25.658 69.958 25.829 69.381C26.002 68.805 25.52 68.367 25.853 68.078C26.174 67.79 26.542 68.782 26.92 68.805C27.287 68.839 27.93 68.032 27.93 67.617C27.93 67.202 27.574 66.983 27.54 66.752C27.505 66.51 27.597 66.464 27.815 66.429C28.022 66.395 28.194 67.144 28.481 67.156C28.791 67.179 28.997 67.086 29.353 66.533C29.709 65.968 29.789 65.715 29.64 65.253C29.525 64.896 28.699 64.354 28.343 64.123C28.768 63.766 29.56 63.489 29.56 63.489L29.938 63.397H30.443C30.443 63.397 30.478 63.374 30.523 63.317C30.523 63.317 31.557 62.993 32.945 62.993C32.934 63.086 32.853 63.443 32.647 63.685C32.187 63.351 31.442 63.455 30.868 63.962C30.248 64.527 30.088 65.38 30.535 65.865C30.971 66.36 31.832 66.291 32.452 65.715C33.048 65.173 33.209 64.389 32.853 63.881C33.221 63.535 33.485 63.109 33.542 63.005C33.794 63.016 34.047 63.051 34.311 63.085L34.678 63.063C34.701 63.247 34.735 63.455 34.804 63.673C35.229 65.08 36.904 64.4 36.904 64.4C36.904 64.4 35.894 64.342 35.665 63.674C35.55 63.351 35.527 63.154 35.539 63.004L36.079 62.97C36.101 63.2 36.17 63.478 36.388 63.766C37.513 65.126 38.328 64.273 38.328 64.273C38.328 64.273 37.318 64.757 36.881 63.443C36.8279 63.2737 36.7897 63.1 36.767 62.924L37.111 62.901C37.168 63.086 37.249 63.271 37.375 63.443C37.903 64.17 38.155 64.204 38.764 64.17C38.924 64.17 39.05 64.112 39.165 64.043C39.785 64.573 40.749 64.169 40.749 64.169C40.749 64.169 39.877 64.112 39.567 63.559C39.613 63.478 39.636 63.397 39.659 63.351C39.705 63.201 39.659 62.867 39.647 62.717L39.923 62.694C39.934 62.947 40.015 63.235 40.233 63.535C41.357 64.954 42.183 64.043 42.183 64.043C42.183 64.043 41.265 64.377 40.726 63.097C40.682 62.9456 40.6476 62.7917 40.623 62.636L40.978 62.613C41.024 62.82 41.105 63.039 41.22 63.224C41.61 63.835 42.023 63.95 42.631 63.927C43.239 63.904 43.457 63.282 43.526 63.086C43.584 62.924 43.538 62.532 43.515 62.382C44.192 62.302 44.926 62.186 45.455 62.048C46.717 61.702 46.453 61.598 46.877 61.494C46.774 61.714 46.705 61.956 46.647 62.129C46.625 62.209 46.567 62.325 46.499 62.486C46.281 62.336 45.959 62.163 45.695 62.175C45.236 62.198 45.053 62.313 44.961 62.532C44.869 62.752 45.201 63.086 45.098 63.201C44.984 63.305 44.662 63.121 44.376 63.293C44.1 63.466 43.756 63.731 43.882 64.089C44.008 64.458 44.422 64.55 44.432 64.734C44.444 64.919 44.215 65.092 43.825 65.069C43.7352 65.0631 43.6451 65.0763 43.5608 65.1077C43.4765 65.1391 43.3997 65.188 43.3357 65.2512C43.2716 65.3144 43.2217 65.3905 43.1892 65.4744C43.1566 65.5583 43.1423 65.6481 43.147 65.738C43.17 66.107 43.17 66.257 43.572 66.464C43.985 66.672 44.203 66.349 44.272 66.684C44.352 67.006 43.722 67.467 43.664 68.182C43.607 68.897 44.089 69.174 44.467 69.232C44.857 69.289 45.259 69.139 45.362 68.666C45.454 68.182 45.042 68.171 45.42 67.975C45.787 67.79 45.844 68.378 46.372 68.309C46.912 68.229 47.187 67.813 47.13 67.548C47.113 67.4806 47.0802 67.4182 47.0343 67.3661C46.9884 67.3139 46.9307 67.2734 46.866 67.248C46.751 67.144 46.579 66.937 46.728 66.775C46.969 66.522 47.153 66.81 47.256 66.914C47.371 67.006 47.945 67.237 48.106 66.648C48.266 66.084 48.082 65.841 47.922 65.599C47.75 65.357 47.302 65.323 47.405 65.023C47.52 64.723 47.991 65 48.197 64.93C48.404 64.85 48.725 64.723 48.725 64.089C48.725 63.466 47.623 62.705 47.623 62.705L46.889 62.717L47.061 62.475C47.486 61.886 47.727 61.933 47.876 61.737C47.9426 61.643 47.9748 61.5289 47.967 61.414C48.082 61.264 48.3 61.022 48.622 60.837C49.138 60.514 52.282 59.684 52.672 59.592C53.052 59.488 54.142 59.062 56.311 58.658C57.791 58.393 58.296 58.785 58.675 59.004C58.927 59.177 59.145 59.234 59.26 59.142C59.2955 59.1175 59.3202 59.0802 59.329 59.038C59.421 58.946 59.375 58.773 59.272 58.578C59.174 58.3386 59.0383 58.1164 58.87 57.92C58.6847 57.686 58.4592 57.4869 58.204 57.332C58.17 57.309 58.158 57.286 58.158 57.286H58.101C57.975 57.24 57.86 57.228 57.791 57.274C57.114 57.274 55.531 57.367 53.522 58.104C51.514 58.843 49.643 59.534 48.622 59.926L48.036 59.396C48.14 58.935 47.887 58.336 47.359 57.897C46.694 57.344 45.844 57.251 45.477 57.701C45.098 58.151 45.328 58.969 45.994 59.523C46.659 60.076 47.497 60.18 47.876 59.719C47.8899 59.7013 47.9013 59.6818 47.91 59.661C48.025 59.776 48.151 59.915 48.277 60.041C48.094 60.111 47.956 60.169 47.887 60.203C47.44 60.399 46.533 60.641 46.533 60.641C46.533 60.641 44.353 61.021 43.963 61.195C43.939 61.206 43.916 61.206 43.893 61.218C43.9204 61.0148 43.8804 60.8082 43.779 60.63C43.607 60.353 43.228 60.11 42.975 60.03C42.723 59.95 41.862 60.065 41.782 60.03C41.69 59.995 41.541 59.892 41.392 59.304C41.242 58.693 40.818 56.94 40.818 56.94V56.928C41.048 57.09 41.265 57.217 41.392 57.171C41.713 57.044 41.426 56.098 41.426 56.098C41.426 56.098 42.459 56.64 42.895 56.536C43.331 56.433 42.895 55.222 42.895 55.222C42.895 55.222 43.171 55.36 43.412 55.429C43.664 55.499 44.157 55.533 44.238 55.464C44.318 55.394 44.238 55.003 44.146 54.772C44.0252 54.5173 43.8951 54.2672 43.756 54.022C43.756 54.022 44.479 54.346 44.559 54.253C44.639 54.173 44.697 53.585 44.651 53.319C44.616 53.054 44.181 52.339 44.181 52.339C44.181 52.339 45.018 52.628 45.121 52.478C45.236 52.328 45.121 51.993 44.972 51.705C44.823 51.405 44.042 50.287 44.042 50.287C44.042 50.287 44.754 50.437 44.869 50.367C44.995 50.298 44.938 49.768 44.812 49.526C44.5964 49.1759 44.3743 48.8299 44.146 48.488L44.915 48.823C44.915 48.823 44.949 48.523 44.765 47.981C44.662 47.647 44.421 46.978 44.203 46.332C47.509 47.024 50.699 48.177 51.078 48.212C53.212 48.822 57.378 50.322 57.918 50.437C60.373 51.337 63.564 53.354 65.113 53.377C65.343 53.389 65.663 53.342 65.744 53.043C65.836 52.743 64.975 51.982 64.562 51.683C64.3477 51.5385 64.1297 51.3998 63.908 51.267C64.458 51.417 64.941 51.497 65.319 51.497C65.652 51.487 66.099 51.417 66.203 51.187C66.307 50.956 65.653 50.367 65.251 50.079C65.239 50.079 65.239 50.068 65.228 50.068C65.331 50.079 65.423 50.079 65.515 50.079C65.962 50.033 66.536 49.941 66.651 49.733C66.765 49.538 66.398 49.042 66.031 48.719C66.513 48.639 66.984 48.534 67.098 48.361C67.224 48.177 67.052 47.716 66.743 47.347C67.293 47.254 67.844 47.139 67.971 47.012C68.131 46.839 68.097 46.355 67.73 45.963C67.615 45.836 67.408 45.709 67.19 45.617C67.753 45.525 68.246 45.41 68.36 45.306C68.544 45.156 68.705 44.718 68.36 44.291C68.2678 44.1898 68.1597 44.1043 68.04 44.038C68.384 43.968 68.648 43.899 68.728 43.83C68.935 43.692 69.302 43.288 68.968 42.827C68.8584 42.691 68.7168 42.5841 68.556 42.516C68.705 42.481 68.82 42.435 68.866 42.412C69.072 42.285 69.646 41.892 69.336 41.351C69.3208 41.3218 69.3016 41.2949 69.279 41.271H69.29C69.531 41.166 70.3 40.786 70.002 40.198C69.9519 40.0897 69.8721 39.9979 69.772 39.933C70.059 39.829 70.977 39.46 70.69 38.78C70.599 38.549 70.38 38.364 70.151 38.238C70.564 38.111 71.401 37.776 71.172 37.131C71.069 36.843 70.805 36.658 70.53 36.52C71.804 36.197 72.091 35.609 72.034 35.424ZM51.17 23.836V23.859C51.136 23.882 51.101 23.894 51.056 23.917C51.102 23.894 51.136 23.858 51.17 23.836ZM11.405 23.652V23.64L11.475 23.71C11.4547 23.6873 11.4311 23.6677 11.405 23.652ZM29.262 61.16C29.274 61.46 29.492 61.679 29.744 61.829C29.4236 61.7795 29.1058 61.7141 28.792 61.633C28.5765 61.5787 28.3581 61.5363 28.138 61.506L28.023 61.356C27.839 61.114 26.21 59.949 25.923 59.696L25.911 59.684C26.071 59.615 26.313 59.477 26.485 59.269C26.703 58.992 26.875 58.75 26.749 58.174C26.829 58.254 26.921 58.324 27.025 58.358C27.345 58.462 28.321 58.082 28.379 58.462C28.436 58.842 27.77 58.669 27.541 59.108C27.3 59.546 28.115 60.411 28.654 60.514C29.194 60.618 29.4 59.684 29.836 60.064C30.249 60.434 29.228 60.584 29.262 61.16ZM31.971 62.048C31.501 62.036 31.053 62.002 30.64 61.944C30.995 61.771 31.397 61.333 31.397 61.333C31.397 61.333 31.592 61.183 31.833 60.976C31.925 61.068 31.993 61.137 32.017 61.172C32.143 61.322 32.567 61.91 32.694 62.013L32.705 62.025C32.51 62.048 32.281 62.059 31.971 62.048ZM38.535 63.616C38.111 63.432 37.927 63.247 37.858 62.866L38.593 62.82C38.615 62.993 38.65 63.19 38.707 63.397C38.742 63.501 38.777 63.605 38.822 63.685C38.7226 63.6816 38.625 63.6581 38.535 63.616ZM38.891 61.621C38.673 61.633 38.443 61.644 38.225 61.644C38.328 61.564 38.443 61.506 38.569 61.46C38.7274 61.4173 38.8947 61.4211 39.051 61.471C38.9918 61.5144 38.9381 61.5648 38.891 61.621ZM39.453 63.328C39.442 63.339 39.442 63.362 39.43 63.374C39.338 63.086 39.316 62.901 39.338 62.763L39.499 62.751C39.511 62.901 39.522 63.178 39.453 63.328ZM40.44 60.261C40.371 60.318 40.084 60.572 39.786 60.826C39.591 60.63 39.316 60.468 39.109 60.422C38.937 60.376 38.501 60.399 38.202 60.422C38.053 60.422 37.881 60.134 37.881 60.134C37.881 60.134 37.663 59.696 37.548 59.35C37.491 59.154 37.204 58.278 36.974 57.551C37.02 57.563 37.054 57.563 37.078 57.563C37.364 57.516 36.94 56.536 36.94 56.536C36.94 56.536 38.237 57.286 38.352 57.194C38.466 57.101 38.156 56.606 38.156 56.606C38.156 56.606 38.536 56.998 38.834 57.044C39.074 57.078 39.109 56.859 39.12 56.767C39.132 56.778 39.132 56.802 39.143 56.813L39.132 56.778L39.12 56.767V56.721C39.12 56.721 39.281 57.09 39.453 57.263C39.901 58.335 40.452 59.776 40.452 59.776C40.452 59.776 40.589 60.134 40.44 60.261ZM42.403 61.137C42.781 61.022 43.194 61.252 43.343 61.345C42.873 61.414 42.288 61.471 41.921 61.483C42.0399 61.3185 42.2091 61.1971 42.403 61.137ZM43.355 62.44C43.367 62.59 43.367 62.901 43.298 63.063C43.218 63.293 42.862 63.523 42.357 63.305C41.944 63.12 41.794 62.97 41.737 62.601C41.989 62.578 42.632 62.532 43.355 62.44Z"/>
</g>
<defs>
<clipPath id="clip0_1_121">
<rect width="73" height="70" fill="white"/>
</clipPath>
</defs>
</svg>
