<svg width="81" height="62" viewBox="0 0 81 62" xmlns="http://www.w3.org/2000/svg">
<g clip-path="url(#clip0_1_203)">
<path d="M51.367 36.495L51.337 36.737C51.307 36.999 51.267 37.272 51.165 37.554C51.327 37.484 51.478 37.423 51.619 37.373C52.465 36.858 52.757 36.374 52.878 35.911C52.888 35.84 52.908 35.769 52.918 35.699C52.938 35.609 52.948 35.507 52.968 35.407C52.968 35.387 52.978 35.357 52.978 35.336C52.998 35.195 53.018 35.054 53.038 34.902C51.961 35.548 51.568 36.042 51.367 36.495ZM53.563 35.517C53.543 35.709 53.513 35.91 53.453 36.122C53.4216 36.256 53.3809 36.3877 53.331 36.516C54.036 36.142 54.449 35.8 54.681 35.466C54.822 35.195 54.842 34.953 54.862 34.67C54.882 34.398 54.902 34.106 55.023 33.783V33.753C53.916 34.499 53.674 35.033 53.563 35.517ZM56.785 32.553C56.091 33.118 55.768 33.562 55.617 33.935C55.617 34.015 55.607 34.105 55.607 34.197C55.597 34.58 55.587 34.983 55.406 35.407C56.03 34.993 56.393 34.63 56.584 34.297C56.705 34.015 56.705 33.763 56.694 33.481C56.694 33.209 56.694 32.916 56.775 32.594C56.785 32.574 56.785 32.563 56.785 32.553ZM65.326 22.592C65.336 22.602 65.346 22.622 65.356 22.632C65.568 22.945 65.78 23.267 65.88 23.711C66.283 22.672 66.303 22.027 66.162 21.563C66.082 21.352 65.971 21.19 65.85 20.999C65.79 20.908 65.73 20.807 65.669 20.706C65.589 20.596 65.498 20.484 65.427 20.374C65.095 21.533 65.155 22.148 65.327 22.592H65.326ZM64.782 22.864C64.732 22.784 64.671 22.703 64.621 22.612C64.298 23.459 64.238 23.993 64.298 24.397C64.338 24.467 64.378 24.547 64.419 24.629C64.6 24.961 64.802 25.314 64.852 25.778C65.245 24.991 65.356 24.458 65.305 24.034C65.255 23.782 65.145 23.58 65.023 23.358C64.943 23.197 64.853 23.035 64.782 22.864ZM63.705 24.558C63.695 24.548 63.695 24.538 63.685 24.518C63.292 25.334 63.191 25.868 63.211 26.272C63.241 26.352 63.271 26.423 63.312 26.504C63.463 26.857 63.634 27.23 63.645 27.684C64.047 27.028 64.219 26.534 64.249 26.141C64.229 25.849 64.128 25.637 64.007 25.385C63.897 25.153 63.765 24.901 63.705 24.558ZM53.865 45.882C53.976 45.942 54.077 46.023 54.167 46.114C55.789 45.307 55.93 44.602 56.061 43.916L56.121 43.614C55.91 43.704 55.708 43.784 55.517 43.856C54.187 44.632 54.057 45.156 53.926 45.66C53.906 45.73 53.885 45.812 53.865 45.882ZM52.384 38.441C52.515 38.501 52.636 38.562 52.787 38.612C53.291 38.764 53.875 38.733 55.033 38.058C54.761 37.978 54.55 37.867 54.358 37.776C53.855 37.524 53.432 37.312 51.871 37.906C51.75 37.977 51.619 38.058 51.468 38.129C51.538 38.149 51.608 38.159 51.669 38.179C51.931 38.239 52.153 38.34 52.384 38.441ZM63.594 43.382C63.503 43.352 63.402 43.322 63.312 43.281C63.181 43.231 63.05 43.18 62.909 43.14C62.546 43.059 62.083 43.1 61.257 43.442C61.247 43.442 61.247 43.452 61.237 43.452C60.904 43.593 60.502 43.795 60.028 44.047C59.998 44.067 59.978 44.087 59.948 44.107C60.159 44.157 60.34 44.228 60.512 44.299C60.662 44.349 60.804 44.42 60.955 44.501C60.985 44.511 61.005 44.531 61.035 44.541C61.7 44.833 62.315 44.944 64.188 43.543C63.9834 43.5174 63.7835 43.4632 63.594 43.382ZM66.173 20.374C66.385 20.646 66.596 20.938 66.727 21.311C66.959 20.495 67.009 19.921 66.939 19.486C66.848 19.144 66.677 18.932 66.485 18.69C66.2876 18.4591 66.1187 18.2053 65.982 17.934C65.73 19.325 65.912 19.92 66.173 20.374ZM52.214 41.95C53.151 41.557 53.514 41.123 53.684 40.68C53.704 40.579 53.714 40.478 53.724 40.367C53.755 40.095 53.795 39.843 53.906 39.591C53.916 39.551 53.916 39.521 53.926 39.48C52.123 40.246 52.003 40.8 51.882 41.395L51.852 41.557C52.002 41.667 52.134 41.799 52.214 41.95ZM55.265 43.311C55.446 43.201 55.648 43.099 55.879 42.978C55.618 42.898 55.376 42.756 55.124 42.595C54.902 42.454 54.681 42.313 54.389 42.202C53.946 42.192 53.321 42.282 52.334 42.565C52.3266 42.6232 52.3132 42.6806 52.294 42.736C52.516 42.867 52.697 42.998 52.858 43.119C53.372 43.533 53.785 43.845 55.265 43.311ZM61.428 45.358C61.146 45.277 60.935 45.176 60.743 45.086C60.693 45.066 60.633 45.036 60.583 45.015C60.482 44.965 60.371 44.915 60.27 44.874C59.756 44.692 59.051 44.712 57.218 45.519C57.198 45.529 57.168 45.549 57.148 45.559C57.319 45.619 57.48 45.69 57.621 45.761C57.792 45.831 57.954 45.932 58.115 46.033C58.155 46.063 58.195 46.083 58.235 46.113C58.86 46.437 59.485 46.568 61.428 45.358ZM69.93 13.568L69.869 13.598C69.704 13.8273 69.4866 14.0138 69.235 14.142C68.993 14.486 68.771 15.06 68.56 16.129C68.832 15.816 69.124 15.655 69.456 15.504C69.496 15.484 69.526 15.474 69.566 15.454C70.04 15.121 70.393 14.687 70.523 13.185C70.302 13.356 70.102 13.467 69.93 13.568ZM71.248 19.194C71.047 19.013 70.856 18.831 70.704 18.589L70.634 18.519C70.372 19.739 70.433 20.354 70.624 20.747L70.805 20.959C70.976 21.15 71.138 21.352 71.268 21.563C71.349 21.664 71.42 21.775 71.49 21.896C71.54 21.745 71.58 21.604 71.631 21.473C71.883 20.414 71.762 19.839 71.491 19.436C71.42 19.346 71.339 19.275 71.248 19.194ZM56.06 39.58C56.07 39.48 56.07 39.379 56.08 39.268C56.09 38.996 56.11 38.734 56.191 38.471C56.191 38.441 56.201 38.401 56.201 38.371C55.103 38.945 54.681 39.389 54.489 39.782C54.469 39.872 54.459 39.974 54.439 40.075C54.399 40.337 54.359 40.619 54.258 40.891C54.238 40.992 54.208 41.093 54.157 41.204C54.287 41.154 54.409 41.103 54.529 41.053C55.567 40.538 55.919 40.053 56.06 39.58ZM73.1 19.718C72.829 20.081 72.547 20.666 72.204 21.664C72.194 21.694 72.194 21.714 72.184 21.745C72.516 21.453 72.839 21.332 73.211 21.231C73.443 21.161 73.675 21.1 73.936 20.948C74.148 20.686 74.339 20.283 74.521 19.628C74.541 19.416 74.561 19.184 74.601 18.942C74.38 19.113 74.128 19.224 73.856 19.345C73.5876 19.4321 73.3322 19.5577 73.1 19.718ZM74.057 27.966C74.662 26.201 74.269 25.596 73.877 25.012C73.816 24.921 73.765 24.84 73.705 24.75C73.615 24.971 73.534 25.163 73.453 25.344C73.06 26.837 73.333 27.3 73.594 27.754C73.694 27.925 73.806 28.117 73.886 28.349C73.936 28.208 73.997 28.087 74.057 27.966ZM56.464 42.454C56.807 42.454 57.25 42.344 57.874 42.041C58.045 41.92 58.237 41.799 58.438 41.668C58.166 41.608 57.914 41.486 57.642 41.355C57.3995 41.22 57.143 41.1121 56.877 41.033C56.424 41.063 55.779 41.214 54.762 41.617C54.752 41.627 54.732 41.627 54.722 41.637C55.165 41.708 55.457 41.879 55.789 42.101C55.981 42.212 56.182 42.353 56.464 42.454ZM69.617 16.14C69.3506 16.295 69.1036 16.481 68.881 16.694C68.64 17.036 68.388 17.601 68.106 18.579C68.418 18.256 68.73 18.115 69.083 17.974C69.173 17.944 69.264 17.904 69.355 17.864C69.758 17.561 70.09 17.047 70.312 15.706C70.1661 15.808 70.0107 15.8957 69.848 15.968C69.778 16.038 69.698 16.089 69.617 16.14ZM71.097 16.089C71.067 16.069 71.037 16.039 71.017 16.019C70.865 17.249 70.976 17.853 71.197 18.226C71.268 18.296 71.339 18.357 71.409 18.428C71.61 18.619 71.792 18.801 71.953 19.023C72.033 19.103 72.114 19.204 72.185 19.315C72.215 19.174 72.245 19.043 72.275 18.922C72.446 17.792 72.265 17.228 71.953 16.835C71.873 16.765 71.792 16.704 71.701 16.633C71.4705 16.4869 71.2663 16.303 71.097 16.089ZM74.572 13.417C74.038 13.75 73.605 14.012 73.272 16.26C73.272 16.3 73.262 16.34 73.262 16.381C73.534 16.038 73.836 15.867 74.179 15.695C74.36 15.605 74.551 15.514 74.753 15.363C74.995 14.96 75.145 14.294 75.156 12.993C74.944 13.185 74.744 13.306 74.572 13.417ZM75.478 19.315C75.4051 19.24 75.3348 19.1626 75.267 19.083C75.217 19.315 75.176 19.527 75.126 19.718C74.995 21.261 75.347 21.674 75.68 22.068C75.81 22.218 75.941 22.38 76.062 22.592C76.102 22.451 76.142 22.309 76.183 22.178C76.465 20.343 75.962 19.819 75.478 19.315ZM73.595 16.966C73.353 17.349 73.111 17.974 72.849 19.053C72.849 19.063 72.849 19.073 72.839 19.083C73.141 18.771 73.454 18.619 73.816 18.488C74.038 18.408 74.259 18.317 74.511 18.145C74.703 17.863 74.864 17.45 74.975 16.765C74.975 16.542 74.985 16.3 74.995 16.038C74.783 16.25 74.531 16.401 74.249 16.542C74.038 16.663 73.816 16.774 73.595 16.966ZM76.818 16.099C76.948 16.219 77.09 16.341 77.231 16.502C77.241 16.351 77.261 16.21 77.271 16.069C77.211 14.264 76.657 13.841 76.123 13.427C76.033 13.357 75.931 13.286 75.841 13.205C75.931 15.333 76.375 15.715 76.818 16.099ZM68.328 9.05101L68.59 8.67801L68.831 9.06101C68.841 9.08101 68.871 9.13101 68.911 9.19201V5.15001H68.308V9.08301C68.318 9.06301 68.328 9.05301 68.328 9.05301V9.05101ZM72.355 9.77701V5.15001H71.751V10.857C71.942 10.474 72.154 10.09 72.355 9.77701ZM75.196 12.026L75.719 11.259L75.749 12.187V12.217L75.79 12.207C75.79 12.217 75.8 12.217 75.8 12.227V5.15001H75.196V12.027V12.026ZM73.162 8.52701L73.403 8.95001C73.423 8.98001 73.453 9.04101 73.504 9.12201V5.14901H72.9V8.93001L73.162 8.52701ZM66.101 41.385C66.021 41.365 65.951 41.345 65.87 41.325C65.739 41.295 65.608 41.255 65.477 41.224C65.094 41.174 64.631 41.244 63.815 41.688C63.4177 41.9043 63.0312 42.1399 62.657 42.394C62.637 42.414 62.607 42.434 62.587 42.454C62.757 42.484 62.919 42.524 63.06 42.564C63.251 42.605 63.432 42.676 63.614 42.746C63.684 42.776 63.744 42.796 63.815 42.827C64.46 43.029 65.115 42.988 66.756 41.527C66.504 41.497 66.293 41.436 66.101 41.385ZM76.948 9.86801V5.14901H76.344V10.816C76.536 10.483 76.756 10.16 76.948 9.86801ZM77.562 9.03101L77.834 8.67801L78.066 9.05101C78.076 9.06101 78.086 9.08101 78.096 9.11101V5.15001H77.492V9.13301C77.512 9.09301 77.542 9.06301 77.562 9.03301V9.03101ZM67.763 9.92801V5.15001H67.159V11.038C67.34 10.655 67.562 10.261 67.763 9.92801ZM70.614 12.217L70.654 12.167L70.684 11.774L70.794 11.975L71.177 11.471L71.147 12.419C71.147 12.479 71.147 12.529 71.137 12.59L71.147 12.62C71.157 12.63 71.167 12.65 71.167 12.66C71.167 12.63 71.157 12.6 71.157 12.57C71.157 12.49 71.157 12.409 71.177 12.318V5.14901H70.573V12.237C70.603 12.227 70.614 12.227 70.614 12.217ZM66.082 11.673L66.566 12.61C66.576 12.64 66.596 12.66 66.606 12.68V5.15001H66V12.64L66.082 11.673ZM79.244 11.673V5.14901H78.64V10.12C78.902 10.634 79.164 11.23 79.244 11.673ZM70.05 11.37V5.15001H69.446V10.11C69.667 10.503 69.889 10.957 70.05 11.37ZM66.705 38.26C66.816 38.149 66.927 38.038 67.038 37.937C68.176 36.516 68.004 35.82 67.843 35.134C67.813 35.034 67.793 34.923 67.773 34.812C67.6402 34.9642 67.5025 35.1119 67.36 35.255C66.453 36.556 66.554 37.08 66.645 37.605C66.675 37.816 66.705 38.018 66.705 38.26ZM74.653 11.703V5.14901H74.048V10.191C74.2919 10.6771 74.4943 11.1829 74.653 11.703ZM74.37 31.474C74.29 31.484 74.22 31.494 74.139 31.494C74.008 31.504 73.867 31.514 73.736 31.534C73.363 31.616 72.96 31.837 72.346 32.513C72.336 32.523 72.336 32.533 72.326 32.543H72.316C72.074 32.815 71.802 33.148 71.49 33.582C71.47 33.612 71.45 33.652 71.43 33.682C71.6 33.652 71.762 33.632 71.913 33.622C72.105 33.602 72.296 33.602 72.497 33.602H72.719C73.394 33.572 73.998 33.309 75.035 31.364C74.783 31.434 74.571 31.454 74.37 31.474ZM79.85 11.481L80.343 10.725L80.393 11.511V5.15001H79.789V11.573L79.849 11.483L79.85 11.481ZM75.882 28.59C75.801 28.611 75.72 28.621 75.63 28.641C75.499 28.661 75.368 28.691 75.227 28.721C74.713 28.883 74.159 29.337 73.152 30.991C73.142 31.011 73.132 31.031 73.122 31.061C73.303 31.011 73.465 30.981 73.626 30.951C73.806 30.91 73.988 30.9 74.18 30.89C74.23 30.89 74.28 30.88 74.34 30.88C75.036 30.799 75.62 30.537 76.516 28.45C76.284 28.51 76.073 28.56 75.882 28.59ZM73.302 34.166C73.071 34.206 72.869 34.206 72.688 34.206H72.386C72.245 34.206 72.114 34.206 71.963 34.216C71.59 34.267 71.167 34.459 70.503 35.074C70.503 35.084 70.493 35.084 70.493 35.084C70.231 35.336 69.918 35.648 69.566 36.052L69.506 36.142C69.636 36.132 69.757 36.122 69.878 36.122H70.008C70.2 36.112 70.392 36.132 70.583 36.152C70.663 36.162 70.744 36.172 70.825 36.172C71.489 36.213 72.114 36.002 73.302 34.166ZM71.339 36.808C71.117 36.828 70.926 36.818 70.744 36.798C70.644 36.798 70.533 36.788 70.422 36.778L70.009 36.748C69.475 36.778 68.831 37.06 67.461 38.371C67.441 38.401 67.411 38.431 67.391 38.461H67.451C67.602 38.461 67.743 38.471 67.884 38.491C68.076 38.501 68.267 38.531 68.458 38.572C68.518 38.582 68.579 38.592 68.639 38.612C69.324 38.693 69.959 38.572 71.339 36.808ZM69.143 39.268C68.901 39.268 68.689 39.228 68.498 39.198C68.418 39.188 68.327 39.168 68.246 39.158C68.116 39.137 67.974 39.107 67.833 39.097C67.451 39.087 66.997 39.197 66.232 39.702C65.93 39.903 65.577 40.155 65.154 40.498C65.134 40.528 65.104 40.548 65.074 40.578C65.255 40.588 65.426 40.619 65.577 40.649C65.759 40.679 65.94 40.729 66.121 40.78C66.171 40.79 66.221 40.81 66.272 40.82C66.957 40.962 67.593 40.911 69.143 39.268ZM77.14 25.576C77.06 25.606 76.969 25.626 76.878 25.646C76.748 25.677 76.606 25.717 76.475 25.758C75.982 25.969 75.458 26.474 74.612 28.208C74.602 28.228 74.602 28.248 74.592 28.268C74.763 28.198 74.924 28.158 75.085 28.117C75.267 28.067 75.448 28.037 75.639 28.007L75.82 27.976C76.495 27.835 77.05 27.502 77.744 25.365C77.513 25.475 77.321 25.535 77.14 25.576ZM53.593 47.142C53.543 47.132 53.482 47.112 53.422 47.102L53.271 47.162C53.311 47.182 53.361 47.192 53.411 47.192C53.482 47.182 53.542 47.162 53.593 47.142ZM49.494 38.31C50.361 37.766 50.471 37.362 50.612 36.848C50.662 36.677 50.713 36.495 50.783 36.304C50.783 36.294 50.783 36.274 50.793 36.264C49.283 37.12 49.112 37.695 48.95 38.26C48.95 38.27 48.94 38.28 48.94 38.29C49.092 38.35 49.233 38.451 49.333 38.582C49.353 38.572 49.363 38.572 49.383 38.562C49.444 38.532 49.504 38.492 49.555 38.462L49.494 38.31ZM79.275 16.048L78.973 16.23C78.842 16.3 78.721 16.371 78.59 16.462C78.318 16.684 78.056 17.047 77.805 17.822C77.805 17.863 77.795 17.894 77.795 17.934H77.775C77.663 18.287 77.563 18.73 77.452 19.264C77.452 19.294 77.442 19.325 77.442 19.355C77.593 19.245 77.744 19.154 77.885 19.083C78.046 18.993 78.207 18.912 78.378 18.841C78.418 18.821 78.469 18.801 78.51 18.781C79.144 18.468 79.607 18.025 79.728 15.736C79.5875 15.8545 79.4358 15.959 79.275 16.048ZM40.299 32.856C36.814 27.583 33.269 31.212 33.269 31.212C33.269 31.212 40.239 30.95 40.299 37.04H40.823C40.893 30.95 47.853 31.212 47.853 31.212C47.853 31.212 44.297 27.592 40.823 32.856C40.753 21.826 50.32 24.296 50.32 24.296C50.32 24.296 45.697 19.476 40.823 26.514C40.188 17.51 47.732 17.45 47.732 17.45C47.732 17.45 45.012 14.234 40.862 19.366V11.42C41.487 11.54 42.132 11.601 42.786 11.601C44.539 11.601 46.231 11.157 47.732 10.311C47.8972 10.4471 48.1039 10.5229 48.318 10.5259C48.532 10.5289 48.7407 10.4588 48.9097 10.3273C49.0786 10.1958 49.1977 10.0106 49.2473 9.80237C49.2969 9.59412 49.2742 9.37516 49.1827 9.18159C49.0913 8.98801 48.9366 8.83137 48.7442 8.73745C48.5518 8.64354 48.3332 8.61797 48.1243 8.66495C47.9154 8.71192 47.7288 8.82865 47.5951 8.99589C47.4614 9.16314 47.3887 9.37092 47.389 9.58501C47.389 9.65501 47.399 9.72501 47.419 9.79601C46.0063 10.5847 44.4149 10.9978 42.797 10.996C42.4975 10.9978 42.1981 10.9845 41.9 10.956C44.0546 10.1374 45.8711 8.61749 47.057 6.64101C47.127 6.66101 47.197 6.67101 47.278 6.67101C47.5263 6.6697 47.764 6.57042 47.9394 6.39476C48.1149 6.21911 48.2139 5.98129 48.215 5.73301C48.207 5.48862 48.1043 5.2569 47.9286 5.08684C47.7529 4.91678 47.518 4.8217 47.2735 4.8217C47.029 4.8217 46.794 4.91678 46.6183 5.08684C46.4426 5.2569 46.3399 5.48862 46.332 5.73301C46.332 5.95501 46.412 6.16701 46.543 6.32801C45.4312 8.19478 43.7204 9.63032 41.689 10.401C43.507 8.56118 44.5457 6.09122 44.589 3.50501C44.7759 3.44039 44.9383 3.31947 45.0538 3.15886C45.1693 2.99825 45.2322 2.80582 45.234 2.60801C45.2329 2.35974 45.1339 2.12191 44.9584 1.94626C44.783 1.77061 44.5453 1.67133 44.297 1.67001C44.0489 1.67159 43.8114 1.77098 43.6362 1.94661C43.4609 2.12223 43.362 2.35991 43.361 2.60801C43.3608 2.80477 43.4216 2.99675 43.5352 3.15743C43.6488 3.31811 43.8094 3.43956 43.995 3.50501C43.9688 4.79869 43.6783 6.07334 43.1415 7.25064C42.6046 8.42794 41.8326 9.48301 40.873 10.351V2.57801C41.0587 2.51273 41.2196 2.39135 41.3334 2.23066C41.4471 2.06996 41.5081 1.87789 41.508 1.68101C41.5069 1.43274 41.4079 1.19491 41.2324 1.01926C41.057 0.843606 40.8193 0.744327 40.571 0.743011C40.3227 0.744327 40.085 0.843606 39.9095 1.01926C39.7341 1.19491 39.635 1.43274 39.634 1.68101C39.634 2.09401 39.906 2.44701 40.269 2.57801V10.332C39.3094 9.46401 38.5374 8.40894 38.0005 7.23164C37.4636 6.05434 37.1732 4.77969 37.147 3.48601C37.3327 3.42051 37.4935 3.2989 37.6071 3.13802C37.7206 2.97715 37.7814 2.78494 37.781 2.58801C37.7797 2.33991 37.6805 2.10234 37.5051 1.9269C37.3297 1.75147 37.0921 1.65232 36.844 1.65101C36.6211 1.65285 36.4062 1.73362 36.2373 1.87898C36.0684 2.02434 35.9565 2.22487 35.9214 2.44494C35.8864 2.66502 35.9306 2.89038 36.046 3.08098C36.1614 3.27159 36.3407 3.4151 36.552 3.48601C36.5972 6.07181 37.6356 8.54107 39.452 10.382C37.4215 9.61112 35.7114 8.176 34.6 6.31001C34.736 6.14149 34.8105 5.93158 34.811 5.71501C34.803 5.47062 34.7003 5.2389 34.5246 5.06884C34.3489 4.89878 34.114 4.8037 33.8695 4.8037C33.625 4.8037 33.39 4.89878 33.2143 5.06884C33.0386 5.2389 32.9359 5.47062 32.928 5.71501C32.928 6.22901 33.351 6.65301 33.864 6.65301C33.944 6.65301 34.015 6.64301 34.086 6.62301C35.2685 8.60194 37.0856 10.1227 39.242 10.938C38.95 10.968 38.648 10.978 38.346 10.978C36.7277 10.98 35.136 10.5668 33.723 9.77801C33.743 9.70801 33.753 9.63701 33.753 9.56601C33.7538 9.31651 33.6558 9.07683 33.4804 8.89938C33.305 8.72193 33.0665 8.62113 32.817 8.61901C32.6926 8.61888 32.5694 8.64328 32.4544 8.69083C32.3395 8.73837 32.235 8.80812 32.1471 8.89609C32.0591 8.98405 31.9893 9.0885 31.9418 9.20345C31.8943 9.31841 31.8699 9.44161 31.87 9.56601C31.871 9.74418 31.9224 9.91843 32.0182 10.0686C32.1141 10.2188 32.2505 10.3388 32.4116 10.4147C32.5728 10.4907 32.7522 10.5195 32.929 10.4977C33.1059 10.476 33.273 10.4047 33.411 10.292C34.921 11.139 36.614 11.582 38.356 11.582C39.001 11.582 39.646 11.522 40.28 11.402V19.346C36.13 14.225 33.411 17.431 33.411 17.431C33.411 17.431 40.955 17.491 40.321 26.495C35.445 19.457 30.823 24.277 30.823 24.277C30.823 24.277 40.37 21.827 40.3 32.857L40.299 32.856ZM78.127 22.47C78.037 22.511 77.946 22.541 77.845 22.582C77.715 22.632 77.573 22.682 77.432 22.743C76.969 22.995 76.496 23.56 75.801 25.344C75.801 25.364 75.791 25.374 75.791 25.394C75.951 25.314 76.113 25.254 76.254 25.204C76.435 25.133 76.616 25.082 76.808 25.032C76.868 25.012 76.938 25.002 76.999 24.982C77.644 24.78 78.167 24.387 78.671 22.219C78.48 22.339 78.298 22.41 78.127 22.471V22.47ZM78.751 19.335C78.681 19.365 78.62 19.405 78.549 19.436C78.429 19.496 78.308 19.547 78.187 19.608C77.734 19.9 77.311 20.465 76.767 22.33C76.767 22.36 76.757 22.38 76.757 22.41C76.897 22.32 77.039 22.25 77.18 22.199C77.361 22.108 77.542 22.037 77.744 21.977C77.814 21.957 77.874 21.937 77.945 21.907C78.57 21.644 79.043 21.201 79.355 19.013C79.134 19.153 78.932 19.245 78.751 19.335ZM72.699 27.734C72.649 27.643 72.598 27.552 72.548 27.451C72.447 27.663 72.336 27.855 72.246 28.026C71.732 29.478 71.953 29.962 72.185 30.426C72.275 30.607 72.356 30.799 72.417 31.041C72.487 30.91 72.567 30.789 72.638 30.678C73.384 28.984 73.032 28.348 72.699 27.734ZM74.794 22.199C74.724 22.118 74.663 22.037 74.592 21.946C74.532 22.158 74.462 22.36 74.402 22.541C74.129 24.094 74.442 24.528 74.743 24.961C74.864 25.123 74.985 25.304 75.086 25.526C75.136 25.395 75.186 25.264 75.226 25.143C75.7 23.308 75.237 22.743 74.794 22.199ZM69.113 35.679C70.13 34.156 69.899 33.481 69.677 32.815C69.647 32.715 69.607 32.614 69.577 32.503C69.4568 32.6675 69.3324 32.8289 69.204 32.987C68.408 34.358 68.559 34.882 68.69 35.387C68.74 35.578 68.8 35.78 68.81 36.022C68.912 35.901 69.012 35.79 69.113 35.679ZM71.298 30.335C71.258 30.245 71.218 30.143 71.177 30.043C71.057 30.244 70.935 30.426 70.824 30.587C70.18 31.999 70.361 32.493 70.542 32.987C70.612 33.168 70.683 33.37 70.724 33.612C70.814 33.481 70.905 33.36 70.996 33.239C71.862 31.636 71.58 30.98 71.298 30.335ZM71.54 15.675C71.61 15.735 71.691 15.796 71.761 15.857C71.963 16.018 72.164 16.179 72.326 16.371C72.416 16.451 72.506 16.542 72.598 16.653C72.618 16.472 72.648 16.31 72.668 16.149C72.718 15.019 72.456 14.496 72.084 14.153C71.9296 14.0728 71.79 13.9669 71.671 13.84L71.571 13.77C71.429 13.679 71.288 13.588 71.157 13.477C71.117 14.727 71.288 15.322 71.54 15.675ZM75.911 16.38C75.831 16.31 75.75 16.24 75.68 16.17C75.65 16.401 75.62 16.613 75.589 16.804C75.599 18.357 75.972 18.73 76.344 19.094C76.485 19.234 76.636 19.385 76.777 19.587C76.807 19.436 76.827 19.295 76.857 19.154C76.979 17.319 76.435 16.844 75.911 16.381V16.38ZM69.768 29.8C69.506 29.81 69.224 29.831 68.922 29.912C68.54 30.164 68.066 30.628 67.402 31.464C67.392 31.474 67.392 31.484 67.382 31.494C67.794 31.334 68.137 31.334 68.519 31.364C68.761 31.384 69.003 31.394 69.305 31.344C69.587 31.172 69.909 30.859 70.292 30.305C70.39 30.097 70.4941 29.892 70.604 29.69C70.342 29.76 70.06 29.78 69.768 29.8ZM64.46 36.374C64.1896 36.305 63.9128 36.2648 63.634 36.254C63.211 36.394 62.637 36.707 61.781 37.332C61.761 37.352 61.741 37.362 61.721 37.382C62.154 37.332 62.486 37.423 62.859 37.554C63.08 37.634 63.312 37.705 63.614 37.735C63.947 37.645 64.339 37.413 64.873 36.959C65.004 36.808 65.145 36.647 65.306 36.465C65.034 36.485 64.762 36.434 64.46 36.374ZM58.71 42.595C58.72 42.495 58.73 42.383 58.75 42.282C58.549 42.393 58.358 42.484 58.186 42.575C56.907 43.472 56.816 44.007 56.736 44.521C56.706 44.722 56.666 44.924 56.585 45.156C56.715 45.096 56.847 45.035 56.968 44.984C58.548 44.007 58.629 43.291 58.71 42.595ZM66.414 34.338C66.152 34.308 65.89 34.268 65.578 34.298C65.165 34.479 64.621 34.842 63.825 35.538C63.805 35.558 63.795 35.578 63.775 35.588C64.208 35.508 64.54 35.568 64.913 35.658C65.145 35.719 65.376 35.77 65.689 35.77C66.011 35.649 66.383 35.386 66.877 34.882C66.987 34.721 67.119 34.55 67.27 34.358C66.998 34.398 66.716 34.378 66.414 34.338ZM72.407 22.38C72.105 22.713 71.762 23.288 71.329 24.276C71.319 24.296 71.319 24.306 71.309 24.326C71.662 24.074 71.994 23.983 72.377 23.913C72.608 23.873 72.84 23.822 73.122 23.701C73.364 23.459 73.595 23.066 73.827 22.401C73.867 22.199 73.907 21.987 73.957 21.755C73.727 21.906 73.464 21.997 73.172 22.088C72.9049 22.1503 72.6476 22.2485 72.407 22.38ZM67.079 15.565C67.361 15.817 67.653 16.089 67.854 16.492V16.502C68.096 14.657 67.512 14.234 66.907 13.79C66.7906 13.7059 66.6765 13.6185 66.565 13.528C66.555 14.556 66.716 15.091 66.948 15.443C66.988 15.483 67.029 15.524 67.079 15.565ZM68.338 13.77C68.528 13.77 68.7 13.73 68.841 13.68C69.033 13.447 69.234 13.296 69.456 13.155C69.616 12.893 69.707 12.57 69.687 12.258C69.647 11.713 69.002 10.513 68.579 9.78801C68.025 10.634 67.371 11.834 67.401 12.328C67.461 13.367 67.723 13.77 68.338 13.77ZM62.335 38.23C62.0711 38.1355 61.7973 38.0711 61.519 38.038C61.076 38.138 60.481 38.411 59.565 38.965C59.545 38.975 59.535 38.985 59.515 38.995C59.958 38.985 60.28 39.107 60.633 39.268C60.844 39.358 61.066 39.459 61.358 39.51C61.7 39.45 62.123 39.248 62.708 38.834C62.848 38.694 62.999 38.552 63.17 38.401C62.899 38.391 62.627 38.322 62.335 38.23ZM72.093 13.387C72.214 13.467 72.325 13.548 72.436 13.649C72.566 13.699 72.698 13.729 72.839 13.719C73.463 13.679 74.179 12.983 74.138 12.227C74.098 11.673 73.513 10.453 73.111 9.69701C72.496 10.654 71.761 12.005 71.781 12.51C71.811 12.873 71.922 13.175 72.093 13.387ZM77.874 16.109V16.239C77.995 16.139 78.116 16.049 78.227 15.967C78.3901 15.839 78.5656 15.7278 78.751 15.635C78.831 15.595 78.911 15.555 78.982 15.504C79.526 15.141 79.899 14.586 79.828 12.439C79.597 12.671 79.375 12.812 79.174 12.943C78.61 13.326 78.146 13.628 77.874 16.109ZM76.415 12.227C76.435 12.57 76.555 12.862 76.757 13.044C76.938 13.205 77.18 13.276 77.452 13.256C77.754 13.236 78.066 13.074 78.308 12.802C78.55 12.53 78.68 12.197 78.66 11.884C78.63 11.411 78.117 10.402 77.764 9.75701C77.12 10.644 76.395 11.814 76.415 12.227ZM50.34 42.575C50.34 42.555 50.34 42.545 50.33 42.525C50.209 42.585 50.088 42.635 49.967 42.696L50.339 42.576L50.34 42.575ZM52.757 39.248C52.677 39.228 52.597 39.198 52.526 39.168C52.3686 39.1144 52.2138 39.0537 52.062 38.986C51.892 38.916 51.73 38.845 51.539 38.784C51.156 38.714 50.622 38.764 49.625 39.127L49.565 39.157V39.227C49.565 39.278 49.555 39.339 49.555 39.389C49.736 39.449 49.897 39.51 50.048 39.581C50.733 39.853 51.246 40.065 52.757 39.248ZM59.968 29.71C59.374 30.396 59.132 30.89 59.052 31.283C59.062 31.363 59.072 31.454 59.092 31.535C59.152 31.918 59.212 32.321 59.102 32.765C59.646 32.251 59.928 31.837 60.069 31.475C60.139 31.172 60.099 30.92 60.039 30.637C59.989 30.365 59.938 30.073 59.969 29.73V29.71H59.968ZM61.368 28.137C61.368 28.127 61.358 28.107 61.358 28.097C60.834 28.823 60.643 29.327 60.592 29.72C60.612 29.81 60.632 29.891 60.652 29.992C60.743 30.365 60.844 30.748 60.774 31.202C61.277 30.637 61.529 30.194 61.63 29.811C61.66 29.518 61.6 29.276 61.529 29.014C61.4255 28.7331 61.371 28.4364 61.368 28.137ZM63.02 28.047C63.03 27.754 62.94 27.522 62.849 27.27C62.758 27.018 62.657 26.746 62.627 26.413C62.617 26.403 62.617 26.383 62.607 26.373C62.144 27.149 61.993 27.673 61.982 28.077C62.002 28.157 62.032 28.238 62.063 28.319C62.183 28.682 62.315 29.065 62.285 29.519C62.738 28.904 62.949 28.429 63.02 28.047ZM58.397 32.936C58.477 32.654 58.457 32.412 58.427 32.14C58.3865 31.842 58.3865 31.54 58.427 31.242V31.202C57.783 31.837 57.501 32.302 57.38 32.684C57.38 32.764 57.39 32.856 57.4 32.946C57.43 33.33 57.45 33.733 57.31 34.166C57.914 33.693 58.236 33.289 58.397 32.936ZM55.093 47.233C55.758 47.707 56.262 48.06 58.538 46.91C58.3217 46.8308 58.1155 46.726 57.924 46.598C57.864 46.568 57.803 46.528 57.732 46.487C57.612 46.417 57.501 46.356 57.37 46.285C57.017 46.144 56.554 46.084 55.658 46.295H55.648C55.305 46.375 54.902 46.487 54.408 46.658C54.408 46.698 54.418 46.738 54.418 46.769V46.799C54.681 46.951 54.902 47.102 55.093 47.233ZM66.717 17.843C66.969 18.125 67.22 18.418 67.391 18.831C67.593 17.782 67.502 17.168 67.281 16.734C67.1802 16.5978 67.0652 16.4728 66.938 16.361C66.778 16.2 66.606 16.038 66.455 15.816C66.415 15.776 66.375 15.746 66.344 15.706C66.254 16.623 66.334 17.178 66.475 17.561C66.555 17.661 66.636 17.752 66.717 17.843ZM67.593 33.632C67.905 33.481 68.257 33.188 68.7 32.644C68.801 32.472 68.912 32.291 69.043 32.089C68.771 32.149 68.489 32.149 68.187 32.139C67.9047 32.1199 67.6211 32.1303 67.341 32.17C66.948 32.382 66.444 32.795 65.719 33.551C65.699 33.571 65.689 33.591 65.669 33.611C66.092 33.491 66.434 33.521 66.817 33.581C67.049 33.621 67.29 33.663 67.593 33.632ZM59.908 32.916C60.3 32.866 60.613 32.936 60.955 33.037C61.065 33.067 61.187 33.097 61.318 33.127C61.801 33.107 62.335 32.886 63.211 31.999C63.141 31.999 63.071 31.989 63 31.989C62.798 32.009 62.587 32.009 62.365 31.999C61.992 31.979 61.61 31.959 61.116 32.119C60.794 32.271 60.401 32.523 59.908 32.916ZM61.58 31.283C61.962 31.203 62.274 31.243 62.616 31.313C62.737 31.333 62.868 31.363 62.999 31.373C63.483 31.313 63.986 31.041 64.772 30.083C64.692 30.093 64.621 30.093 64.55 30.093C64.349 30.133 64.147 30.143 63.926 30.153C63.553 30.163 63.18 30.183 62.697 30.386C62.2984 30.6512 61.9243 30.9514 61.579 31.283H61.58ZM66.726 25.243C66.876 25.233 67.028 25.213 67.189 25.183C67.602 24.951 68.005 24.497 68.509 23.388C68.458 23.408 68.408 23.418 68.357 23.438C68.126 23.59 67.884 23.671 67.642 23.761C67.249 23.902 66.857 24.054 66.383 24.507C66.1358 24.8239 65.9106 25.1574 65.709 25.505C66.061 25.314 66.373 25.274 66.726 25.243ZM57.511 35.104C57.169 35.204 56.746 35.396 56.181 35.689C56.574 35.709 56.867 35.83 57.179 35.981C57.289 36.031 57.4 36.092 57.531 36.142C58.015 36.203 58.569 36.072 59.576 35.356C59.506 35.346 59.445 35.326 59.374 35.306C59.1605 35.2828 58.9487 35.2458 58.74 35.195C58.387 35.125 58.015 35.044 57.511 35.104ZM65.507 27.472H65.648C66.202 27.351 66.716 27.068 67.471 25.737C67.451 25.747 67.431 25.747 67.411 25.747C67.1612 25.8676 66.8971 25.956 66.625 26.01C66.212 26.11 65.799 26.211 65.285 26.605C64.9841 26.9287 64.7051 27.2722 64.45 27.633C64.812 27.482 65.145 27.472 65.507 27.472ZM66 31.222C65.97 31.122 65.92 31.021 65.88 30.91C65.769 30.658 65.678 30.416 65.648 30.143L65.618 30.043C64.862 31.041 64.661 31.626 64.671 32.069C64.691 32.16 64.721 32.241 64.751 32.342C64.821 32.584 64.882 32.825 64.912 33.067C64.942 33.199 64.972 33.33 64.972 33.481C65.074 33.37 65.184 33.259 65.275 33.158C65.95 32.281 66.081 31.706 66 31.222ZM59.394 33.682C59.062 33.814 58.649 34.035 58.115 34.388C58.508 34.378 58.81 34.468 59.142 34.6C59.263 34.64 59.374 34.69 59.505 34.731C59.988 34.751 60.532 34.57 61.469 33.773L61.237 33.743C61.0314 33.7409 60.8262 33.7242 60.623 33.693C60.26 33.622 59.888 33.571 59.394 33.682ZM62.305 41.9C63.695 40.69 63.645 39.964 63.595 39.268C63.585 39.158 63.585 39.046 63.575 38.935C63.403 39.066 63.242 39.187 63.101 39.298C61.973 40.418 61.973 40.962 61.983 41.496C61.983 41.698 61.983 41.91 61.943 42.152C62.063 42.061 62.185 41.98 62.305 41.9ZM59.324 43.755C59.455 43.674 59.586 43.603 59.707 43.533C61.187 42.443 61.207 41.728 61.217 41.023C61.217 40.921 61.227 40.81 61.227 40.71C61.05 40.8306 60.8689 40.945 60.684 41.053C59.506 42.051 59.465 42.585 59.414 43.109C59.404 43.311 59.384 43.523 59.324 43.755ZM58.327 38.28C58.327 38.169 58.327 38.068 58.317 37.957C58.297 37.685 58.297 37.423 58.357 37.161V37.05C57.31 37.725 56.927 38.2 56.777 38.613C56.767 38.703 56.767 38.804 56.757 38.905C56.747 39.157 56.716 39.409 56.666 39.641C56.656 39.772 56.626 39.903 56.585 40.044C56.715 39.974 56.847 39.914 56.968 39.853C57.914 39.268 58.226 38.763 58.327 38.28ZM55.507 36.364C55.134 36.445 54.641 36.606 53.986 36.899C54.338 36.969 54.62 37.09 54.872 37.191C55.537 37.473 56.04 37.685 57.572 36.788C57.501 36.768 57.44 36.748 57.37 36.728C57.161 36.6918 56.9556 36.6376 56.756 36.566C56.393 36.456 56.031 36.344 55.507 36.364ZM58.981 41.093C59.314 41.063 59.737 40.911 60.331 40.568C60.492 40.438 60.673 40.286 60.875 40.145C60.593 40.105 60.341 40.014 60.059 39.903C59.8004 39.7872 59.5302 39.6994 59.253 39.641C58.81 39.711 58.186 39.923 57.239 40.387L57.179 40.417C57.622 40.447 57.934 40.599 58.276 40.78C58.488 40.901 58.689 41.012 58.981 41.093ZM63.11 29.518C63.482 29.408 63.804 29.418 64.157 29.458L64.529 29.488C65.003 29.378 65.486 29.065 66.191 28.046C66.01 28.076 65.849 28.076 65.698 28.076C65.597 28.096 65.486 28.117 65.375 28.127C65.033 28.177 64.67 28.227 64.257 28.44C63.945 28.661 63.584 28.994 63.11 29.518ZM62.475 35.084C62.455 34.983 62.435 34.872 62.405 34.761C62.345 34.489 62.294 34.237 62.304 33.965C62.294 33.925 62.294 33.894 62.284 33.864C61.377 34.701 61.075 35.235 60.994 35.669L61.024 35.971C61.055 36.233 61.075 36.485 61.055 36.747C61.065 36.868 61.065 36.999 61.045 37.13C61.175 37.03 61.307 36.939 61.428 36.848C62.244 36.112 62.465 35.568 62.475 35.084ZM64.32 33.208C64.299 33.108 64.259 33.017 64.229 32.916C64.142 32.6683 64.0843 32.4112 64.057 32.15L64.027 32.029C63.201 32.946 62.949 33.501 62.909 33.944C62.929 34.035 62.949 34.136 62.969 34.237C63.03 34.509 63.08 34.781 63.08 35.084C63.09 35.184 63.1 35.285 63.09 35.396C63.201 35.296 63.312 35.195 63.423 35.104C64.198 34.267 64.36 33.703 64.32 33.208ZM67.673 21.725C67.411 22.037 67.098 22.521 66.716 23.338C67.058 23.106 67.371 23.025 67.733 22.965C67.843 22.945 67.965 22.925 68.085 22.895C68.478 22.622 68.851 22.118 69.264 20.898C69.174 20.938 69.093 20.978 69.012 21.008C68.851 21.1 68.69 21.17 68.529 21.251C68.247 21.361 67.965 21.483 67.673 21.725ZM68.327 19.275C68.075 19.628 67.803 20.172 67.461 21.069C67.793 20.777 68.106 20.656 68.458 20.545C68.548 20.515 68.629 20.495 68.72 20.465C69.173 20.182 69.576 19.708 69.928 18.266C69.828 18.326 69.738 18.367 69.646 18.408C69.496 18.518 69.334 18.609 69.153 18.7C68.891 18.851 68.609 19.002 68.327 19.275ZM67.492 29.045C67.452 28.954 67.402 28.863 67.351 28.772C67.2171 28.5417 67.1155 28.294 67.049 28.036C67.029 27.996 67.019 27.966 66.999 27.936C66.344 28.984 66.193 29.579 66.223 30.012C66.253 30.103 66.293 30.194 66.323 30.285C66.424 30.537 66.505 30.779 66.555 31.031C66.595 31.141 66.625 31.273 66.645 31.404C66.737 31.293 66.817 31.182 66.898 31.081C67.552 30.134 67.623 29.539 67.492 29.045ZM68.811 26.796C68.761 26.706 68.701 26.615 68.64 26.514C68.4861 26.2884 68.3608 26.0445 68.267 25.788C68.247 25.758 68.237 25.738 68.217 25.708C67.643 26.816 67.552 27.431 67.633 27.855C67.673 27.935 67.713 28.026 67.763 28.117C67.874 28.339 67.975 28.571 68.046 28.803C68.096 28.923 68.146 29.055 68.176 29.206C68.247 29.085 68.318 28.984 68.388 28.873C68.952 27.865 68.972 27.27 68.811 26.796ZM69.718 24.155C69.5433 23.9489 69.4007 23.7177 69.295 23.469L69.235 23.379C68.771 24.518 68.721 25.133 68.831 25.556C68.881 25.636 68.932 25.728 68.993 25.818C69.133 26.04 69.254 26.272 69.345 26.504C69.405 26.614 69.455 26.726 69.496 26.857C69.566 26.716 69.637 26.585 69.708 26.453C70.141 25.445 70.11 24.86 69.919 24.417C69.859 24.327 69.789 24.245 69.718 24.155ZM70.594 21.705C70.4081 21.5196 70.2489 21.3092 70.121 21.08C70.091 21.05 70.071 21.019 70.041 20.989C69.678 22.169 69.688 22.783 69.829 23.197C69.879 23.277 69.939 23.358 69.999 23.439C70.171 23.661 70.342 23.892 70.473 24.175C70.523 24.255 70.563 24.346 70.604 24.437C70.664 24.296 70.715 24.175 70.775 24.044C71.138 22.975 71.047 22.38 70.805 21.947L70.594 21.705ZM60.461 36.778C60.451 36.667 60.441 36.566 60.421 36.455C60.3756 36.1851 60.3655 35.9105 60.391 35.638C60.391 35.608 60.381 35.578 60.381 35.548C59.394 36.314 59.051 36.818 58.941 37.241C58.941 37.332 58.941 37.433 58.951 37.534C58.961 37.796 58.961 38.048 58.921 38.3C58.921 38.421 58.911 38.552 58.88 38.693C59 38.613 59.122 38.543 59.242 38.472C60.139 37.796 60.411 37.262 60.462 36.778H60.461ZM72.87 25.143C72.92 24.941 72.99 24.719 73.07 24.477C72.8153 24.6017 72.5443 24.6899 72.265 24.739C72.003 24.799 71.741 24.86 71.459 24.991C71.127 25.304 70.744 25.838 70.231 26.776C70.221 26.796 70.211 26.806 70.211 26.826C70.583 26.595 70.926 26.544 71.308 26.504C71.54 26.484 71.782 26.454 72.064 26.353C72.325 26.131 72.588 25.768 72.87 25.143ZM65.81 37.292C65.79 37.191 65.78 37.08 65.77 36.969C65.6207 37.1129 65.4659 37.251 65.306 37.383C64.299 38.593 64.35 39.127 64.4 39.651C64.42 39.853 64.44 40.064 64.41 40.306L64.763 40.014C66.021 38.704 65.921 37.987 65.81 37.292ZM71.69 27.774C71.761 27.573 71.852 27.361 71.943 27.129C71.681 27.229 71.419 27.28 71.117 27.32C70.855 27.36 70.593 27.391 70.291 27.502C69.939 27.784 69.495 28.288 68.901 29.196C68.901 29.206 68.891 29.216 68.891 29.216C69.284 29.024 69.626 28.994 70.019 28.984C70.251 28.984 70.493 28.974 70.795 28.904C71.067 28.702 71.347 28.369 71.69 27.774ZM10.316 21.946C10.074 22.38 9.98398 22.975 10.346 24.044C10.396 24.164 10.457 24.296 10.517 24.437C10.577 24.306 10.638 24.185 10.709 24.074C10.819 23.852 10.961 23.64 11.122 23.428C11.182 23.348 11.242 23.278 11.293 23.197C11.444 22.783 11.454 22.168 11.092 20.979C11.072 21.009 11.042 21.039 11.011 21.069C10.881 21.311 10.719 21.503 10.538 21.694L10.316 21.946ZM9.19898 16.825C8.88598 17.208 8.69498 17.772 8.85598 18.871C8.88598 19.013 8.92598 19.154 8.95698 19.305C9.02698 19.194 9.09798 19.103 9.17898 19.023C9.32898 18.811 9.52098 18.619 9.72198 18.428C9.79198 18.358 9.86298 18.287 9.93398 18.226C10.155 17.843 10.266 17.238 10.115 16.018C10.085 16.048 10.055 16.068 10.025 16.098C9.85521 16.305 9.65846 16.4883 9.43998 16.643C9.35998 16.693 9.26998 16.754 9.19898 16.825ZM6.54998 13.417C6.37798 13.306 6.17698 13.185 5.96498 12.993C5.97498 14.294 6.12598 14.969 6.36798 15.363C6.56998 15.514 6.76098 15.605 6.94198 15.695C7.28498 15.867 7.58698 16.038 7.85898 16.381C7.85898 16.341 7.84898 16.301 7.84898 16.261C7.51598 14.011 7.08298 13.74 6.54898 13.417H6.54998ZM11.395 13.77C11.345 13.72 11.294 13.659 11.254 13.598L11.193 13.568C11.022 13.468 10.82 13.356 10.609 13.195C10.729 14.687 11.082 15.131 11.566 15.464C11.606 15.484 11.636 15.504 11.676 15.514C12.009 15.665 12.291 15.827 12.573 16.139C12.351 15.07 12.13 14.506 11.898 14.153C11.708 14.0577 11.5374 13.9278 11.395 13.77ZM14.556 13.528C14.446 13.618 14.325 13.709 14.214 13.79C13.61 14.234 13.036 14.657 13.267 16.502V16.492C13.469 16.089 13.761 15.816 14.043 15.564C14.083 15.524 14.123 15.484 14.163 15.454C14.405 15.091 14.577 14.556 14.556 13.528ZM6.14698 16.754C6.26798 17.43 6.41898 17.854 6.61098 18.135C6.86198 18.307 7.08398 18.387 7.30598 18.478C7.66798 18.619 7.97998 18.761 8.29298 19.083C8.29298 19.063 8.29298 19.053 8.28298 19.033C8.02098 17.964 7.77898 17.349 7.53698 16.966C7.32956 16.7984 7.10298 16.6561 6.86198 16.542C6.57998 16.392 6.32898 16.24 6.11698 16.038C6.13698 16.3 6.13698 16.532 6.14698 16.754ZM14.636 18.7C14.446 18.942 14.274 19.144 14.183 19.476C14.113 19.91 14.163 20.485 14.395 21.301C14.525 20.918 14.747 20.626 14.959 20.344C15.211 19.9 15.382 19.295 15.13 17.934C15 18.256 14.818 18.488 14.636 18.7ZM15.483 20.676C15.423 20.787 15.352 20.888 15.281 20.989C15.131 21.211 14.999 21.412 14.929 21.685C14.828 22.138 14.879 22.753 15.251 23.701C15.341 23.267 15.563 22.935 15.775 22.622C15.785 22.612 15.795 22.592 15.805 22.582C15.976 22.138 16.037 21.533 15.715 20.364C15.634 20.474 15.553 20.576 15.483 20.676ZM5.31998 27.986L5.50198 28.016C5.69298 28.046 5.87398 28.076 6.04598 28.127C6.19598 28.167 6.36798 28.207 6.53898 28.279C6.52898 28.249 6.50898 28.208 6.49898 28.178C5.66298 26.474 5.14898 25.98 4.65598 25.768C4.51498 25.718 4.38398 25.688 4.24298 25.647C4.15298 25.627 4.06098 25.597 3.98098 25.577C3.79998 25.526 3.59798 25.476 3.38698 25.375C4.09198 27.512 4.64598 27.845 5.31998 27.986ZM6.78098 30.87C6.83098 30.87 6.88198 30.88 6.94298 30.88C7.13298 30.89 7.31498 30.91 7.49598 30.94C7.65798 30.96 7.81898 30.99 7.99998 31.05C7.99071 31.0215 7.97722 30.9945 7.95998 30.97C6.96298 29.317 6.39898 28.873 5.89498 28.712C5.75498 28.682 5.62298 28.662 5.49198 28.632C5.41198 28.621 5.32098 28.601 5.23998 28.581C5.02445 28.5498 4.81224 28.4989 4.60598 28.429C5.50198 30.527 6.08598 30.789 6.78098 30.869V30.87ZM3.18598 21.896C3.25598 21.916 3.31598 21.946 3.38698 21.966C3.58898 22.027 3.76998 22.098 3.95098 22.189C4.08198 22.249 4.22298 22.319 4.37398 22.4C4.37398 22.37 4.36398 22.34 4.36398 22.32C3.81998 20.464 3.39698 19.89 2.94398 19.597C2.82529 19.5359 2.70456 19.4789 2.58198 19.426C2.51198 19.396 2.44098 19.366 2.37998 19.326C2.16973 19.2355 1.96765 19.1271 1.77598 19.002C2.08798 21.19 2.56098 21.634 3.18598 21.896ZM4.99898 13.427C4.46498 13.841 3.91098 14.274 3.85098 16.059C3.87098 16.199 3.88098 16.351 3.89098 16.502C4.01582 16.3551 4.15408 16.2202 4.30398 16.099C4.73698 15.726 5.18998 15.333 5.27098 13.205C5.19098 13.286 5.08898 13.357 4.99898 13.427ZM4.11298 24.991C4.18298 25.011 4.24298 25.021 4.30398 25.042C4.49498 25.092 4.68698 25.132 4.86798 25.213C5.01898 25.263 5.16998 25.324 5.33098 25.405C5.33098 25.385 5.32098 25.375 5.32098 25.355C4.62598 23.56 4.15298 23.005 3.68998 22.743C3.55406 22.685 3.41632 22.6313 3.27698 22.582C3.17698 22.552 3.08498 22.512 2.99498 22.471C2.8038 22.4062 2.61847 22.3252 2.44098 22.229C2.95498 24.387 3.46798 24.779 4.11298 24.991ZM25.515 33.945C25.363 33.572 25.051 33.128 24.346 32.553V32.593C24.436 32.926 24.426 33.209 24.426 33.481C24.426 33.763 24.426 34.015 24.538 34.297C24.739 34.63 25.091 35.003 25.716 35.407C25.535 34.983 25.524 34.58 25.515 34.197V33.945ZM5.44198 22.067C5.78398 21.674 6.12598 21.261 5.99598 19.718C5.94598 19.527 5.89498 19.315 5.85498 19.083C5.78498 19.163 5.71398 19.234 5.64298 19.315C5.15998 19.819 4.65598 20.343 4.94798 22.178C4.98798 22.309 5.02798 22.451 5.06898 22.592C5.17898 22.38 5.31098 22.219 5.44198 22.067ZM7.26498 19.325C6.98298 19.205 6.73098 19.093 6.50898 18.922C6.53898 19.174 6.56898 19.396 6.58898 19.608C6.76098 20.263 6.95198 20.666 7.17398 20.928C7.43598 21.079 7.66698 21.15 7.89898 21.21C8.27198 21.321 8.59398 21.432 8.92598 21.725C8.91598 21.695 8.91598 21.675 8.90598 21.645C8.56398 20.635 8.27198 20.051 8.00998 19.688C7.75798 19.527 7.50598 19.426 7.26498 19.325ZM5.20998 16.38C4.67598 16.845 4.14198 17.319 4.26298 19.164C4.29298 19.304 4.31298 19.446 4.34298 19.597C4.48398 19.395 4.63598 19.244 4.77698 19.103C5.14898 18.74 5.53198 18.367 5.53198 16.804C5.50198 16.613 5.47198 16.401 5.44198 16.169C5.37098 16.239 5.28998 16.31 5.20998 16.381V16.38ZM9.87398 19.194C9.78298 19.274 9.70198 19.345 9.62198 19.436C9.35998 19.839 9.22898 20.414 9.48098 21.473C9.53098 21.603 9.57098 21.745 9.62098 21.896C9.69198 21.766 9.76298 21.664 9.84298 21.563C9.97982 21.3486 10.1351 21.1465 10.307 20.959C10.367 20.888 10.437 20.817 10.487 20.747C10.679 20.354 10.74 19.738 10.477 18.519C10.457 18.549 10.427 18.569 10.407 18.589C10.2655 18.8199 10.0851 19.0245 9.87398 19.194ZM11.505 16.14C11.425 16.089 11.345 16.038 11.274 15.988C11.1136 15.9117 10.9589 15.8242 10.811 15.726C11.032 17.066 11.364 17.581 11.767 17.883C11.858 17.923 11.949 17.964 12.039 17.994C12.392 18.125 12.704 18.277 13.016 18.599C12.734 17.621 12.482 17.057 12.241 16.714C11.999 16.452 11.747 16.291 11.505 16.14ZM24.547 40.044C24.5069 39.9127 24.4801 39.7777 24.467 39.641C24.4117 39.3994 24.3815 39.1528 24.377 38.905C24.367 38.805 24.367 38.703 24.357 38.613C24.205 38.199 23.822 37.725 22.775 37.05V37.15C22.835 37.423 22.835 37.685 22.815 37.967C22.805 38.088 22.805 38.189 22.805 38.3C22.905 38.784 23.218 39.278 24.165 39.863C24.285 39.913 24.406 39.973 24.547 40.044ZM17.417 24.568C17.357 24.901 17.237 25.163 17.115 25.405C16.995 25.647 16.894 25.868 16.874 26.161C16.904 26.554 17.075 27.048 17.478 27.703C17.488 27.24 17.649 26.877 17.81 26.523C17.84 26.443 17.88 26.373 17.91 26.292C17.931 25.889 17.83 25.354 17.437 24.538C17.427 24.538 17.417 24.548 17.417 24.568ZM16.34 22.864C16.269 23.046 16.178 23.207 16.088 23.358C15.967 23.58 15.856 23.782 15.806 24.034C15.766 24.457 15.876 24.991 16.259 25.778C16.309 25.324 16.501 24.971 16.692 24.628C16.732 24.548 16.772 24.478 16.812 24.397C16.873 23.993 16.812 23.459 16.49 22.612C16.45 22.692 16.4 22.773 16.34 22.864ZM8.40398 33.602H8.61498C8.81698 33.592 9.00798 33.592 9.20898 33.622C9.35998 33.632 9.52198 33.652 9.68298 33.682C9.66298 33.652 9.64298 33.612 9.62298 33.582C9.36286 33.2236 9.08692 32.8769 8.79598 32.543H8.78598C8.77598 32.533 8.77598 32.523 8.76598 32.513C8.15198 31.837 7.74898 31.616 7.37598 31.535C7.24213 31.5172 7.10772 31.5038 6.97298 31.495C6.89298 31.485 6.81298 31.485 6.74198 31.475C6.51759 31.4621 6.29493 31.4279 6.07698 31.373C7.13498 33.319 7.72898 33.571 8.40398 33.602ZM26.098 33.753V33.793C26.208 34.116 26.238 34.398 26.258 34.67C26.278 34.943 26.299 35.195 26.43 35.457C26.662 35.79 27.064 36.142 27.78 36.516C27.7146 36.3641 27.6673 36.205 27.639 36.042C27.599 35.88 27.579 35.719 27.548 35.568C27.468 35.064 27.236 34.529 26.098 33.753ZM26.39 41.627C26.38 41.617 26.36 41.617 26.35 41.607C25.332 41.214 24.688 41.053 24.235 41.023C23.942 41.103 23.701 41.224 23.469 41.345C23.2232 41.4854 22.9589 41.5907 22.684 41.658C22.895 41.788 23.086 41.92 23.258 42.041C23.882 42.333 24.315 42.444 24.658 42.444C24.94 42.334 25.141 42.202 25.332 42.071C25.655 41.869 25.957 41.698 26.39 41.627ZM26.955 41.204C26.915 41.093 26.885 40.992 26.854 40.891C26.754 40.619 26.713 40.337 26.673 40.075C26.663 39.974 26.643 39.883 26.623 39.782C26.441 39.379 26.008 38.945 24.91 38.371C24.92 38.401 24.92 38.441 24.92 38.471C25 38.734 25.02 38.996 25.031 39.268C25.031 39.378 25.041 39.48 25.051 39.581C25.182 40.064 25.545 40.548 26.571 41.052C26.703 41.092 26.824 41.143 26.955 41.204ZM9.36998 10.846V5.14901H8.76498V9.77701C8.96698 10.09 9.17898 10.473 9.36998 10.846ZM12.29 9.06101L12.532 8.67801L12.794 9.05101C12.804 9.06101 12.814 9.08101 12.824 9.09101V5.15001H12.22V9.18301C12.25 9.12301 12.28 9.08301 12.29 9.06301V9.06101ZM7.71698 8.95001L7.95898 8.52701L8.22098 8.92001V5.15001H7.61698V9.13201C7.66698 9.04201 7.69698 8.98101 7.71698 8.95001ZM5.33198 12.217L5.37198 12.227V12.187L5.40198 11.259L5.92598 12.026V5.14901H5.32198V12.237C5.32198 12.227 5.33198 12.217 5.33198 12.217ZM7.07398 10.19V5.15001H6.46898V11.703C6.59998 11.239 6.84198 10.685 7.07398 10.191V10.19ZM11.676 10.11V5.15001H11.071V11.37C11.232 10.957 11.454 10.503 11.676 10.11ZM9.93298 12.54C9.93298 12.57 9.92298 12.6 9.92298 12.64C9.93298 12.63 9.94298 12.62 9.94298 12.6L9.95298 12.57C9.95298 12.52 9.95298 12.46 9.94298 12.399L9.91298 11.451L10.296 11.955L10.406 11.753L10.436 12.147L10.477 12.197C10.487 12.207 10.487 12.217 10.497 12.217V5.15001H9.89298V12.289C9.93298 12.379 9.94298 12.46 9.93298 12.541V12.54ZM23.933 40.417L23.873 40.387C22.915 39.913 22.301 39.701 21.858 39.641C21.546 39.701 21.294 39.802 21.052 39.903C20.77 40.013 20.518 40.115 20.236 40.145C20.438 40.296 20.619 40.437 20.78 40.568C21.374 40.911 21.797 41.063 22.13 41.093C22.422 41.013 22.633 40.891 22.835 40.78C23.187 40.599 23.499 40.447 23.933 40.417ZM0.77898 10.725L1.27198 11.491C1.29198 11.521 1.31198 11.551 1.33198 11.571V5.15001H0.72998V11.512L0.77998 10.726L0.77898 10.725Z"/>
<path d="M49.192 48.977C50.3043 48.4013 51.4257 47.8436 52.556 47.304C52.506 47.213 52.466 47.122 52.436 47.011C51.186 47.606 50.018 48.191 48.93 48.755C48.749 48.605 48.558 48.443 48.356 48.282C49.656 47.606 51.076 46.9 52.606 46.164C52.7628 45.9571 52.9943 45.8197 53.251 45.781C53.281 45.691 53.311 45.59 53.331 45.499V45.489C51.567 46.3113 49.8209 47.1715 48.094 48.069C47.8974 47.9129 47.6993 47.7586 47.5 47.606C49.5482 46.5347 51.6236 45.516 53.724 44.551C53.8153 44.4256 53.9163 44.3076 54.026 44.198H53.946C53.886 44.198 53.825 44.198 53.765 44.188C51.5555 45.1933 49.3756 46.2624 47.228 47.394C47.037 47.244 46.825 47.102 46.624 46.941C48.6677 45.8545 50.7433 44.8291 52.848 43.866C52.748 43.806 52.657 43.734 52.556 43.664C50.4552 44.6352 48.3798 45.6605 46.332 46.739C46.13 46.598 45.919 46.447 45.708 46.306C47.5989 45.2942 49.5163 44.3325 51.458 43.422C51.418 43.432 51.368 43.432 51.328 43.432C51.1849 43.4346 51.0431 43.4038 50.914 43.342C49.0611 44.2157 47.2308 45.1367 45.425 46.104L44.791 45.68C46.6423 44.6798 48.5196 43.7285 50.421 42.827C50.421 42.817 50.411 42.817 50.411 42.807L49.937 42.717C48.0993 43.5943 46.2828 44.5152 44.489 45.479C44.277 45.338 44.066 45.196 43.844 45.065C45.969 43.895 48.437 42.645 51.297 41.325C51.297 41.315 51.307 41.295 51.307 41.285C51.327 41.164 51.357 41.053 51.387 40.942C48.7251 42.1601 46.1052 43.4682 43.532 44.864C43.321 44.733 43.099 44.592 42.867 44.45C45.4857 43.008 48.1565 41.6628 50.874 40.417C50.7002 40.4034 50.528 40.3733 50.36 40.327C47.35 41.728 44.77 43.039 42.555 44.269C42.3311 44.1384 42.1094 44.004 41.89 43.866C44.036 42.656 46.543 41.366 49.474 39.994L49.293 39.934C49.199 40.0275 49.0874 40.1014 48.9647 40.1516C48.842 40.2017 48.7105 40.227 48.578 40.226C48.488 40.226 48.407 40.216 48.326 40.196C45.748 41.426 43.512 42.596 41.568 43.684C41.3443 43.5508 41.1193 43.4198 40.893 43.291C42.777 42.212 44.953 41.073 47.46 39.853L47.339 39.581C45.0477 40.6815 42.7938 41.8581 40.581 43.109C38.3682 41.8581 36.1143 40.6815 33.823 39.581L33.703 39.853C36.21 41.063 38.386 42.213 40.269 43.291C40.037 43.421 39.816 43.553 39.594 43.684C37.3801 42.4477 35.1262 41.2844 32.836 40.196C32.6675 40.2378 32.491 40.2357 32.3236 40.1896C32.1561 40.1435 32.0034 40.0552 31.88 39.933C31.809 39.953 31.749 39.973 31.688 39.993C34.2619 41.1921 36.7915 42.4839 39.272 43.866C39.04 43.996 38.819 44.138 38.607 44.269C36.0506 42.8672 33.4474 41.5524 30.802 40.327C30.641 40.377 30.47 40.407 30.288 40.417C33.0055 41.6628 35.6763 43.0081 38.295 44.45C38.073 44.592 37.852 44.723 37.63 44.864C35.0567 43.4682 32.4369 42.1602 29.775 40.942C29.805 41.052 29.835 41.163 29.855 41.285C29.855 41.295 29.865 41.315 29.865 41.325C32.3914 42.486 34.8772 43.7334 37.318 45.065C37.097 45.207 36.885 45.348 36.673 45.479C34.8791 44.5149 33.0626 43.5937 31.225 42.716L30.762 42.806C30.762 42.817 30.752 42.817 30.752 42.827C32.6533 43.7285 34.5306 44.6798 36.382 45.68C36.16 45.822 35.948 45.963 35.747 46.104C33.938 45.1424 32.1079 44.2211 30.258 43.341C30.1285 43.4009 29.9876 43.4319 29.845 43.432C29.795 43.432 29.755 43.432 29.715 43.422C31.6557 44.3346 33.573 45.2962 35.465 46.306C35.253 46.456 35.042 46.598 34.84 46.739C32.7942 45.6565 30.7187 44.6312 28.616 43.664C28.516 43.734 28.426 43.805 28.324 43.866C30.4248 44.8372 32.5001 45.8626 34.548 46.941C34.337 47.091 34.135 47.243 33.944 47.394C31.7916 46.2725 29.6123 45.2036 27.408 44.188C27.348 44.188 27.287 44.198 27.227 44.198H27.146C27.266 44.319 27.368 44.43 27.438 44.551C29.5416 45.5161 31.6203 46.5348 33.672 47.606C33.471 47.767 33.269 47.919 33.078 48.07C31.351 47.1721 29.605 46.3116 27.841 45.489V45.499C27.871 45.599 27.891 45.69 27.921 45.781C28.183 45.821 28.415 45.963 28.566 46.164C30.096 46.89 31.517 47.596 32.816 48.282C32.615 48.442 32.423 48.604 32.242 48.756C31.0837 48.1544 29.9152 47.5726 28.737 47.011C28.717 47.112 28.677 47.213 28.617 47.293C29.815 47.868 30.933 48.423 31.98 48.967C28.616 51.881 28.324 53.484 28.324 53.484C28.324 53.484 28.404 53.958 28.687 53.928C28.767 53.928 28.949 52.234 32.383 49.178C32.564 49.27 32.746 49.371 32.927 49.461C29.18 52.597 28.868 54.331 28.868 54.331C28.868 54.331 28.948 54.795 29.231 54.775C29.311 54.775 29.503 52.95 33.33 49.673C33.511 49.773 33.692 49.875 33.874 49.965C29.744 53.313 29.402 55.168 29.402 55.168C29.402 55.168 29.482 55.642 29.765 55.612C29.845 55.612 30.057 53.666 34.266 50.177C34.458 50.277 34.639 50.379 34.82 50.49C30.308 54.049 29.946 56.025 29.946 56.025C29.946 56.025 30.026 56.489 30.308 56.469C30.389 56.469 30.61 54.402 35.203 50.701C35.394 50.812 35.576 50.913 35.757 51.024C30.862 54.774 30.47 56.862 30.47 56.862C30.47 56.862 30.55 57.336 30.832 57.305C30.922 57.295 31.144 55.127 36.12 51.235C36.31 51.347 36.502 51.458 36.684 51.569C31.406 55.511 31.004 57.719 31.004 57.719C31.004 57.719 31.084 58.182 31.366 58.162C31.456 58.152 31.688 55.864 37.046 51.79C37.237 51.901 37.429 52.022 37.61 52.133C31.97 56.257 31.537 58.566 31.537 58.566C31.537 58.566 31.617 59.039 31.9 59.009C31.99 58.999 32.232 56.609 37.953 52.355C38.143 52.475 38.335 52.597 38.516 52.708C32.514 57.003 32.071 59.413 32.071 59.413C32.071 59.413 32.151 59.876 32.434 59.856C32.524 59.846 32.776 57.346 38.859 52.919C39.05 53.041 39.232 53.161 39.413 53.282C33.058 57.739 32.595 60.249 32.595 60.249C32.595 60.249 32.675 60.723 32.957 60.693C33.047 60.683 33.31 58.092 39.745 53.504C39.937 53.635 40.118 53.756 40.299 53.887C33.612 58.505 33.139 61.097 33.139 61.097C33.139 61.097 33.219 61.56 33.501 61.54C33.601 61.53 33.864 58.848 40.631 54.11C47.389 58.848 47.661 61.54 47.752 61.54C48.034 61.56 48.125 61.096 48.125 61.096C48.125 61.096 47.641 58.495 40.954 53.887C41.135 53.767 41.316 53.635 41.508 53.504C47.933 58.092 48.195 60.683 48.296 60.693C48.578 60.723 48.658 60.249 48.658 60.249C48.658 60.249 48.195 57.739 41.84 53.282C42.021 53.162 42.213 53.041 42.404 52.92C48.477 57.346 48.729 59.846 48.83 59.856C49.112 59.876 49.192 59.412 49.192 59.412C49.192 59.412 48.749 57.002 42.746 52.708C42.928 52.587 43.119 52.476 43.31 52.355C49.031 56.61 49.273 59.009 49.363 59.009C49.645 59.039 49.726 58.566 49.726 58.566C49.726 58.566 49.303 56.256 43.663 52.133C43.844 52.023 44.036 51.911 44.227 51.79C49.575 55.864 49.807 58.162 49.897 58.162C50.179 58.182 50.26 57.719 50.26 57.719C50.26 57.719 49.857 55.521 44.59 51.579C44.77 51.468 44.962 51.357 45.154 51.246C50.129 55.138 50.35 57.316 50.441 57.316C50.723 57.346 50.804 56.872 50.804 56.872C50.804 56.872 50.421 54.785 45.526 51.034C45.707 50.934 45.899 50.822 46.08 50.712C50.673 54.402 50.884 56.468 50.975 56.478C51.257 56.498 51.337 56.035 51.337 56.035C51.337 56.035 50.975 54.059 46.463 50.51C46.644 50.409 46.825 50.308 47.017 50.197C51.227 53.686 51.428 55.632 51.509 55.632C51.791 55.662 51.871 55.188 51.871 55.188C51.871 55.188 51.529 53.333 47.4 49.985C47.58 49.885 47.762 49.794 47.943 49.693C51.76 52.97 51.962 54.785 52.043 54.795C52.324 54.815 52.405 54.351 52.405 54.351C52.405 54.351 52.093 52.627 48.346 49.481C48.528 49.391 48.699 49.29 48.89 49.199C52.324 52.254 52.506 53.938 52.586 53.948C52.868 53.978 52.949 53.504 52.949 53.504C52.949 53.504 52.556 51.891 49.192 48.977ZM47.712 48.272L47.138 48.574C46.9415 48.4202 46.7432 48.2689 46.543 48.12C46.735 48.02 46.936 47.909 47.127 47.808C47.339 47.969 47.53 48.12 47.712 48.272ZM40.883 47.929C41.085 47.808 41.296 47.677 41.508 47.546C41.719 47.676 41.931 47.818 42.132 47.949C41.921 48.069 41.709 48.201 41.508 48.322C41.306 48.191 41.095 48.06 40.883 47.929ZM41.185 48.513C40.974 48.645 40.763 48.766 40.561 48.897C40.36 48.766 40.148 48.645 39.937 48.514C40.138 48.382 40.35 48.251 40.561 48.12C40.773 48.261 40.984 48.392 41.185 48.513ZM40.561 47.727C40.349 47.596 40.138 47.475 39.926 47.344L40.561 46.951C40.773 47.081 40.984 47.213 41.196 47.344C40.984 47.475 40.773 47.606 40.561 47.727ZM40.239 47.929C40.0273 48.06 39.8157 48.191 39.604 48.322C39.403 48.201 39.191 48.08 38.98 47.949C39.181 47.818 39.393 47.687 39.604 47.546C39.826 47.676 40.037 47.798 40.239 47.929ZM39.292 48.524C39.08 48.654 38.869 48.796 38.668 48.927C38.466 48.806 38.265 48.685 38.053 48.564C38.255 48.433 38.456 48.292 38.668 48.151C38.879 48.271 39.091 48.403 39.292 48.524ZM39.624 48.725C39.836 48.856 40.037 48.977 40.239 49.108C40.0325 49.237 39.8275 49.3683 39.624 49.502C39.423 49.381 39.221 49.26 39.01 49.129C39.212 48.987 39.413 48.856 39.624 48.725ZM40.561 49.31C40.773 49.441 40.974 49.572 41.165 49.703C40.954 49.834 40.752 49.955 40.561 50.086C40.36 49.966 40.158 49.834 39.957 49.703C40.148 49.573 40.349 49.441 40.561 49.31ZM40.883 49.098C41.085 48.968 41.286 48.846 41.498 48.715C41.709 48.846 41.911 48.987 42.112 49.118C41.9 49.239 41.699 49.37 41.498 49.491C41.2899 49.3649 41.0848 49.2338 40.883 49.098ZM41.83 48.524C42.031 48.403 42.243 48.282 42.444 48.151C42.656 48.291 42.857 48.423 43.059 48.564C42.847 48.684 42.646 48.806 42.444 48.927C42.253 48.786 42.041 48.655 41.83 48.524ZM42.787 47.949C42.988 47.828 43.2 47.707 43.411 47.586C43.623 47.727 43.834 47.868 44.026 48.009C43.814 48.13 43.613 48.241 43.411 48.362C43.21 48.232 42.998 48.09 42.787 47.949ZM42.475 47.747C42.263 47.617 42.052 47.485 41.84 47.344C42.052 47.223 42.263 47.092 42.475 46.971C42.686 47.112 42.898 47.243 43.109 47.384L42.475 47.747ZM41.528 47.152C41.3144 47.0187 41.0993 46.8877 40.883 46.759C41.095 46.629 41.306 46.507 41.528 46.376C41.749 46.507 41.961 46.648 42.162 46.779C41.951 46.9 41.739 47.031 41.528 47.152ZM40.561 46.557C40.349 46.427 40.138 46.305 39.916 46.174C40.128 46.044 40.34 45.912 40.561 45.781C40.783 45.912 40.994 46.043 41.206 46.174C40.984 46.306 40.772 46.437 40.561 46.557ZM40.239 46.759C40.017 46.89 39.806 47.021 39.594 47.152C39.383 47.032 39.171 46.9 38.95 46.779C39.1636 46.6483 39.3749 46.5139 39.584 46.376C39.816 46.507 40.027 46.628 40.239 46.759ZM39.282 47.344C39.071 47.475 38.849 47.616 38.648 47.747C38.4388 47.6217 38.2271 47.5007 38.013 47.384C38.214 47.254 38.426 47.112 38.648 46.971C38.859 47.102 39.07 47.223 39.282 47.344ZM38.335 47.949C38.124 48.09 37.912 48.221 37.711 48.362C37.509 48.242 37.298 48.13 37.097 48.009C37.297 47.869 37.499 47.727 37.711 47.586C37.922 47.706 38.134 47.828 38.335 47.949ZM37.409 48.564C37.197 48.705 36.996 48.846 36.794 48.987C36.593 48.877 36.392 48.766 36.19 48.645C36.381 48.503 36.593 48.362 36.794 48.211C37.006 48.332 37.207 48.443 37.409 48.564ZM37.761 48.766C37.963 48.886 38.174 49.008 38.365 49.129C38.154 49.269 37.953 49.401 37.751 49.542C37.55 49.431 37.358 49.31 37.147 49.189C37.348 49.048 37.55 48.907 37.761 48.766ZM38.698 49.33C38.899 49.451 39.111 49.582 39.302 49.703C39.091 49.834 38.889 49.975 38.688 50.106L38.083 49.744C38.295 49.602 38.496 49.471 38.698 49.33ZM39.645 49.905C39.846 50.035 40.047 50.157 40.249 50.288L39.644 50.681C39.454 50.561 39.252 50.439 39.05 50.308C39.232 50.178 39.433 50.036 39.645 49.905ZM40.561 50.49C40.763 50.62 40.964 50.752 41.155 50.883C40.954 51.013 40.752 51.135 40.561 51.266C40.37 51.145 40.168 51.014 39.967 50.883C40.158 50.752 40.36 50.621 40.561 50.49ZM40.883 50.288C41.075 50.167 41.276 50.036 41.488 49.905C41.689 50.035 41.89 50.177 42.092 50.308C41.89 50.429 41.689 50.56 41.498 50.681C41.2915 50.5523 41.0865 50.4213 40.883 50.288ZM41.81 49.693C42.011 49.573 42.213 49.451 42.414 49.32C42.626 49.461 42.827 49.602 43.018 49.733C42.817 49.855 42.616 49.975 42.414 50.096C42.223 49.966 42.021 49.834 41.81 49.693ZM42.757 49.129L43.361 48.766C43.572 48.906 43.774 49.048 43.965 49.189C43.764 49.31 43.562 49.421 43.361 49.542C43.1653 49.3963 42.9638 49.2585 42.757 49.129ZM43.713 48.564C43.915 48.453 44.116 48.332 44.328 48.211C44.539 48.362 44.741 48.503 44.932 48.645C44.731 48.755 44.529 48.876 44.328 48.987C44.1246 48.8436 43.9196 48.7026 43.713 48.564ZM44.68 48.009L45.285 47.677C45.496 47.827 45.697 47.969 45.889 48.12C45.687 48.231 45.486 48.342 45.295 48.443C45.0893 48.2993 44.8843 48.1547 44.68 48.009ZM44.388 47.808C44.1816 47.6643 43.9736 47.523 43.764 47.384C43.965 47.274 44.177 47.152 44.388 47.031C44.6 47.173 44.811 47.324 45.002 47.465C44.791 47.585 44.59 47.697 44.388 47.808ZM43.452 47.193C43.24 47.062 43.029 46.92 42.817 46.779C43.029 46.659 43.24 46.537 43.452 46.416L44.086 46.84C43.864 46.96 43.653 47.072 43.452 47.193ZM42.505 46.588C42.293 46.457 42.082 46.326 41.86 46.184C42.072 46.064 42.283 45.943 42.505 45.811C42.726 45.953 42.938 46.084 43.149 46.225C42.928 46.345 42.716 46.467 42.505 46.588ZM41.538 45.983C41.327 45.852 41.105 45.721 40.883 45.59C41.095 45.459 41.316 45.338 41.538 45.206C41.76 45.338 41.981 45.479 42.193 45.61C41.971 45.74 41.749 45.862 41.538 45.983ZM40.561 45.398C40.349 45.267 40.128 45.146 39.906 45.015C40.118 44.884 40.34 44.753 40.561 44.622C40.783 44.752 41.004 44.884 41.216 45.015C40.994 45.146 40.772 45.277 40.561 45.398ZM40.239 45.59C40.017 45.72 39.796 45.852 39.584 45.983C39.373 45.862 39.151 45.731 38.929 45.61C39.141 45.479 39.362 45.348 39.584 45.206C39.806 45.338 40.027 45.469 40.239 45.59ZM39.262 46.184C39.04 46.316 38.829 46.457 38.617 46.588C38.406 46.467 38.194 46.346 37.973 46.225C38.184 46.094 38.396 45.953 38.617 45.811C38.839 45.932 39.05 46.063 39.262 46.184ZM38.305 46.779C38.084 46.92 37.872 47.052 37.671 47.193C37.469 47.072 37.258 46.961 37.046 46.84C37.248 46.699 37.459 46.557 37.681 46.416C37.892 46.537 38.104 46.658 38.305 46.779ZM37.368 47.394C37.157 47.536 36.945 47.677 36.744 47.818C36.543 47.707 36.341 47.596 36.13 47.475C36.331 47.334 36.532 47.193 36.744 47.041C36.956 47.163 37.157 47.273 37.368 47.394ZM36.442 48.009C36.23 48.151 36.029 48.302 35.828 48.443C35.636 48.332 35.435 48.221 35.233 48.12C35.425 47.98 35.626 47.828 35.838 47.677C36.039 47.787 36.251 47.898 36.442 48.009ZM35.545 48.655C35.334 48.805 35.143 48.957 34.941 49.098C34.75 48.998 34.558 48.887 34.367 48.786C34.559 48.635 34.75 48.483 34.961 48.332C35.153 48.432 35.344 48.544 35.545 48.655ZM35.908 48.856C36.109 48.967 36.311 49.078 36.502 49.189C36.291 49.34 36.089 49.481 35.898 49.623C35.707 49.512 35.515 49.411 35.314 49.3C35.505 49.159 35.697 49.008 35.908 48.856ZM36.855 49.401C37.056 49.521 37.258 49.633 37.449 49.744C37.237 49.884 37.046 50.026 36.845 50.167C36.653 50.057 36.462 49.945 36.261 49.834C36.451 49.694 36.653 49.542 36.855 49.401ZM37.802 49.945C38.002 50.066 38.204 50.187 38.396 50.308C38.194 50.449 37.993 50.59 37.791 50.721C37.601 50.611 37.399 50.49 37.207 50.379C37.399 50.238 37.591 50.096 37.802 49.945ZM38.728 50.52C38.929 50.64 39.121 50.762 39.322 50.883C39.121 51.013 38.919 51.155 38.728 51.286C38.537 51.166 38.345 51.054 38.144 50.933C38.335 50.793 38.527 50.661 38.728 50.52ZM39.655 51.095C39.856 51.225 40.047 51.347 40.239 51.478C40.037 51.608 39.846 51.74 39.645 51.871C39.453 51.75 39.262 51.629 39.06 51.498C39.252 51.367 39.453 51.226 39.655 51.095ZM40.561 51.689C40.763 51.821 40.954 51.952 41.135 52.083C40.934 52.213 40.742 52.335 40.551 52.466C40.36 52.345 40.168 52.214 39.967 52.083C40.168 51.952 40.36 51.821 40.561 51.689ZM40.883 51.478C41.075 51.357 41.266 51.226 41.467 51.095C41.669 51.225 41.86 51.367 42.052 51.498C41.85 51.618 41.659 51.75 41.467 51.871C41.277 51.74 41.085 51.609 40.883 51.478ZM41.8 50.883C41.991 50.762 42.193 50.641 42.394 50.52C42.595 50.661 42.797 50.802 42.988 50.933C42.787 51.054 42.595 51.175 42.404 51.286C42.2003 51.1552 41.999 51.0208 41.8 50.883ZM42.736 50.308C42.928 50.188 43.129 50.066 43.331 49.945C43.532 50.086 43.733 50.227 43.925 50.369C43.723 50.489 43.532 50.6 43.341 50.712C43.139 50.59 42.938 50.449 42.736 50.308ZM43.673 49.744C43.864 49.633 44.066 49.512 44.267 49.401C44.469 49.552 44.67 49.693 44.861 49.834C44.661 49.945 44.469 50.056 44.277 50.167L43.673 49.744ZM44.62 49.199C44.811 49.089 45.013 48.977 45.214 48.866C45.415 49.018 45.617 49.169 45.808 49.31C45.607 49.42 45.415 49.532 45.224 49.633C45.0285 49.4803 44.827 49.3355 44.62 49.199ZM45.587 48.655C45.778 48.544 45.979 48.443 46.171 48.332C46.372 48.483 46.574 48.635 46.755 48.786C46.563 48.886 46.372 48.998 46.181 49.098C45.99 48.958 45.788 48.806 45.587 48.655ZM46.856 47.596C46.654 47.706 46.453 47.808 46.261 47.919C46.06 47.778 45.859 47.626 45.647 47.475C45.849 47.365 46.05 47.253 46.251 47.142C46.463 47.304 46.664 47.455 46.856 47.596ZM45.979 46.941C45.768 47.051 45.566 47.162 45.365 47.273C45.164 47.133 44.952 46.991 44.741 46.84C44.942 46.729 45.154 46.618 45.365 46.497C45.566 46.648 45.778 46.8 45.979 46.941ZM45.063 46.295C44.851 46.406 44.64 46.527 44.428 46.638L43.794 46.215C44.005 46.094 44.217 45.983 44.428 45.862C44.65 46.013 44.862 46.154 45.063 46.295ZM44.136 45.67C43.915 45.791 43.703 45.912 43.492 46.023C43.28 45.893 43.069 45.751 42.847 45.61C43.059 45.489 43.28 45.368 43.492 45.247C43.713 45.398 43.925 45.539 44.136 45.67ZM43.18 45.055C42.958 45.176 42.736 45.297 42.525 45.418C42.313 45.288 42.092 45.156 41.87 45.015C42.082 44.894 42.303 44.763 42.525 44.642C42.757 44.783 42.968 44.924 43.18 45.055ZM42.213 44.45C41.991 44.571 41.77 44.702 41.548 44.823C41.326 44.693 41.115 44.561 40.883 44.43C41.105 44.3 41.326 44.178 41.548 44.047C41.78 44.188 42.001 44.319 42.213 44.45ZM40.561 43.472C40.793 43.603 41.014 43.734 41.236 43.866C41.004 43.996 40.783 44.118 40.561 44.249C40.34 44.118 40.118 43.997 39.886 43.866C40.108 43.734 40.329 43.603 40.561 43.472ZM39.564 44.057C39.785 44.188 40.007 44.309 40.229 44.44L39.564 44.834C39.342 44.712 39.121 44.581 38.899 44.46C39.121 44.32 39.342 44.188 39.564 44.057ZM38.597 44.642C38.819 44.762 39.04 44.894 39.252 45.015C39.03 45.146 38.809 45.287 38.597 45.418C38.386 45.298 38.164 45.176 37.943 45.055C38.154 44.925 38.365 44.783 38.597 44.642ZM37.63 45.257C37.852 45.377 38.063 45.499 38.275 45.62C38.053 45.761 37.842 45.892 37.63 46.033C37.419 45.913 37.207 45.801 36.986 45.68C37.197 45.54 37.409 45.398 37.63 45.257ZM36.694 45.872C36.905 45.992 37.127 46.104 37.328 46.225C37.107 46.366 36.895 46.507 36.694 46.648C36.482 46.538 36.281 46.416 36.059 46.305C36.261 46.155 36.472 46.013 36.694 45.872ZM35.767 46.507C35.979 46.618 36.19 46.739 36.391 46.85C36.18 46.991 35.969 47.142 35.767 47.283C35.566 47.173 35.364 47.062 35.153 46.951C35.344 46.8 35.556 46.648 35.767 46.507ZM34.871 47.152C35.072 47.263 35.284 47.374 35.475 47.485C35.263 47.636 35.062 47.778 34.861 47.929C34.669 47.828 34.468 47.717 34.266 47.606C34.458 47.455 34.659 47.304 34.871 47.152ZM33.994 47.808C34.196 47.908 34.387 48.02 34.579 48.12C34.367 48.272 34.176 48.423 33.984 48.574L33.41 48.272C33.592 48.12 33.782 47.969 33.994 47.808ZM33.138 49.249C32.958 49.159 32.776 49.058 32.585 48.957C32.765 48.806 32.947 48.645 33.148 48.483C33.34 48.584 33.531 48.685 33.712 48.786C33.512 48.947 33.32 49.098 33.138 49.249ZM34.085 49.764C33.904 49.663 33.723 49.562 33.531 49.461C33.712 49.31 33.904 49.149 34.095 48.998C34.287 49.098 34.478 49.209 34.659 49.31C34.458 49.461 34.266 49.612 34.085 49.764ZM35.032 50.278C34.851 50.178 34.659 50.066 34.468 49.965C34.649 49.815 34.84 49.663 35.042 49.512C35.233 49.622 35.425 49.723 35.616 49.834C35.415 49.985 35.213 50.137 35.032 50.278ZM35.969 50.812C35.787 50.702 35.596 50.6 35.404 50.49C35.586 50.338 35.787 50.197 35.979 50.046L36.553 50.379C36.361 50.53 36.16 50.671 35.969 50.812ZM36.905 51.357L36.331 51.024C36.522 50.883 36.714 50.732 36.915 50.59C37.117 50.711 37.308 50.822 37.499 50.933C37.298 51.074 37.096 51.216 36.905 51.357ZM37.842 51.911C37.65 51.801 37.469 51.679 37.268 51.568L37.842 51.145C38.033 51.266 38.234 51.387 38.416 51.498C38.225 51.639 38.023 51.78 37.842 51.911ZM38.758 52.486C38.567 52.365 38.375 52.254 38.184 52.133C38.376 51.992 38.567 51.861 38.758 51.72C38.96 51.84 39.151 51.962 39.332 52.093C39.136 52.2171 38.9446 52.3482 38.758 52.486ZM39.665 53.061C39.483 52.94 39.292 52.819 39.101 52.698C39.282 52.567 39.473 52.425 39.675 52.294C39.866 52.425 40.058 52.546 40.249 52.667C40.047 52.809 39.856 52.94 39.665 53.061ZM40.561 53.656C40.38 53.535 40.188 53.403 39.997 53.272C40.178 53.142 40.37 53.01 40.561 52.879C40.752 53.01 40.944 53.141 41.125 53.272C40.934 53.414 40.742 53.535 40.561 53.656ZM41.457 53.061L40.883 52.667C41.065 52.547 41.256 52.415 41.457 52.284C41.649 52.425 41.84 52.557 42.031 52.688C41.83 52.818 41.639 52.94 41.457 53.061ZM42.364 52.486C42.172 52.355 41.981 52.214 41.78 52.083C41.971 51.962 42.162 51.841 42.354 51.71C42.555 51.85 42.746 51.992 42.928 52.123C42.747 52.244 42.555 52.365 42.364 52.486ZM43.29 51.911C43.099 51.771 42.908 51.639 42.706 51.498C42.898 51.377 43.089 51.266 43.28 51.145C43.482 51.286 43.673 51.427 43.864 51.568C43.663 51.689 43.472 51.8 43.29 51.911ZM44.217 51.357C44.026 51.216 43.834 51.074 43.633 50.933C43.824 50.823 44.016 50.701 44.217 50.59C44.418 50.742 44.61 50.883 44.801 51.024C44.59 51.134 44.398 51.246 44.217 51.357ZM45.154 50.812C44.962 50.672 44.771 50.52 44.569 50.379L45.144 50.046C45.344 50.197 45.536 50.349 45.718 50.49C45.526 50.6 45.335 50.711 45.154 50.812ZM46.09 50.278C45.899 50.137 45.707 49.986 45.506 49.834C45.697 49.724 45.889 49.623 46.08 49.512C46.282 49.662 46.473 49.814 46.654 49.965C46.463 50.076 46.282 50.177 46.09 50.278ZM47.037 49.764C46.846 49.612 46.654 49.461 46.453 49.31C46.644 49.21 46.825 49.108 47.017 48.997C47.218 49.159 47.4 49.31 47.581 49.461C47.409 49.562 47.218 49.663 47.037 49.764ZM47.984 49.249C47.802 49.099 47.611 48.947 47.409 48.786C47.591 48.685 47.782 48.584 47.974 48.483C48.164 48.645 48.356 48.806 48.538 48.957C48.356 49.058 48.165 49.159 47.984 49.249ZM4.77698 10.816V5.14899H4.17298V9.86799C4.36398 10.16 4.58598 10.483 4.77698 10.816ZM2.47998 10.12V5.14999H1.87598V11.673C1.95598 11.229 2.21798 10.634 2.47998 10.12ZM3.06498 9.06099L3.29698 8.68799L3.56798 9.04099C3.58798 9.06099 3.60798 9.10099 3.63798 9.13099V5.14999H3.03498V9.12299L3.06498 9.06299V9.06099Z"/>
<path d="M29.27 41.577C29.26 41.517 29.25 41.467 29.24 41.416C29.12 40.821 28.999 40.256 27.196 39.5C27.206 39.54 27.206 39.57 27.216 39.61C27.316 39.863 27.367 40.115 27.397 40.387C27.407 40.498 27.417 40.599 27.437 40.7C27.609 41.143 27.971 41.567 28.907 41.97C28.9862 41.8058 29.1126 41.6689 29.27 41.577ZM28.273 43.13C28.435 43.008 28.616 42.867 28.837 42.746C28.817 42.686 28.807 42.636 28.797 42.575C27.81 42.293 27.176 42.192 26.742 42.212C26.45 42.322 26.229 42.464 26.007 42.605C25.755 42.767 25.514 42.908 25.252 42.988C25.474 43.099 25.675 43.21 25.866 43.321C27.336 43.845 27.75 43.533 28.273 43.13ZM17.296 42.827C17.366 42.797 17.437 42.777 17.508 42.747C17.699 42.676 17.87 42.605 18.062 42.565C18.202 42.525 18.364 42.485 18.535 42.454C18.515 42.434 18.485 42.414 18.465 42.394C18.0904 42.1399 17.7036 41.9043 17.306 41.688C16.491 41.254 16.027 41.184 15.645 41.224C15.514 41.254 15.383 41.284 15.252 41.324C15.172 41.344 15.091 41.365 15.02 41.385C14.829 41.435 14.617 41.496 14.355 41.516C16.007 42.988 16.652 43.029 17.296 42.827ZM22.885 46.104C22.925 46.084 22.965 46.054 23.005 46.034C23.167 45.932 23.328 45.842 23.499 45.761C23.64 45.691 23.791 45.62 23.973 45.559C23.953 45.549 23.923 45.529 23.903 45.519C22.069 44.712 21.364 44.692 20.851 44.874C20.74 44.924 20.639 44.964 20.538 45.014C20.488 45.045 20.428 45.065 20.378 45.086C20.186 45.176 19.964 45.287 19.692 45.358C21.636 46.568 22.261 46.437 22.885 46.104ZM20.095 44.551C20.125 44.541 20.155 44.521 20.176 44.511C20.327 44.441 20.468 44.37 20.619 44.309C20.79 44.239 20.972 44.169 21.183 44.118C21.153 44.098 21.133 44.078 21.103 44.058C20.7106 43.8385 20.3071 43.6395 19.894 43.462C19.884 43.462 19.884 43.452 19.874 43.452C19.048 43.109 18.584 43.069 18.222 43.15C18.082 43.19 17.95 43.24 17.819 43.291C17.719 43.331 17.628 43.361 17.537 43.391C17.366 43.452 17.175 43.513 16.953 43.563C18.816 44.955 19.431 44.843 20.095 44.551ZM12.482 38.602C12.542 38.592 12.602 38.582 12.663 38.562C12.854 38.522 13.046 38.492 13.237 38.482C13.388 38.462 13.549 38.452 13.731 38.452C13.711 38.422 13.681 38.391 13.661 38.361C12.291 37.05 11.636 36.768 11.112 36.737L10.699 36.767C10.589 36.777 10.488 36.787 10.377 36.787C10.1799 36.811 9.98081 36.8144 9.783 36.797C11.163 38.572 11.797 38.692 12.482 38.602ZM14.849 40.8C14.899 40.79 14.949 40.77 14.999 40.76C15.181 40.7 15.363 40.66 15.544 40.629C15.694 40.599 15.866 40.569 16.057 40.559L15.977 40.478C15.6279 40.1988 15.2683 39.9329 14.899 39.681C14.124 39.177 13.671 39.066 13.298 39.076L12.885 39.136C12.795 39.157 12.714 39.167 12.623 39.177C12.432 39.217 12.23 39.247 11.979 39.247C13.529 40.921 14.164 40.962 14.849 40.8ZM13.962 11.037V5.14999H13.357V9.91999C13.559 10.262 13.78 10.655 13.962 11.038V11.037ZM31.788 38.582C31.889 38.452 32.03 38.361 32.181 38.29C32.181 38.28 32.171 38.27 32.171 38.26C32.01 37.705 31.839 37.13 30.328 36.263C30.328 36.273 30.328 36.293 30.338 36.303C30.418 36.495 30.469 36.667 30.509 36.848C30.65 37.362 30.761 37.766 31.627 38.31L31.557 38.451C31.607 38.481 31.667 38.521 31.728 38.552C31.748 38.572 31.768 38.572 31.788 38.582ZM14.556 12.61L15.04 11.673L15.12 12.63V5.14999H14.516V12.691C14.526 12.661 14.536 12.641 14.556 12.611V12.61ZM29.442 38.189C29.502 38.169 29.572 38.149 29.643 38.139C29.503 38.068 29.371 37.987 29.241 37.917C27.68 37.322 27.256 37.534 26.753 37.786C26.561 37.876 26.35 37.987 26.078 38.068C27.246 38.744 27.82 38.774 28.324 38.623C28.475 38.573 28.606 38.512 28.727 38.451C28.969 38.341 29.19 38.239 29.442 38.189ZM10.297 36.193C10.377 36.183 10.457 36.173 10.528 36.173C10.73 36.153 10.911 36.133 11.102 36.143C11.254 36.143 11.425 36.143 11.606 36.163L11.546 36.072C11.254 35.7335 10.9446 35.4104 10.619 35.104C10.619 35.094 10.609 35.094 10.609 35.094C9.944 34.479 9.52101 34.287 9.14901 34.237C9.00801 34.227 8.86701 34.227 8.72601 34.227H8.41301C8.23301 34.227 8.04101 34.227 7.80901 34.187C9.00801 36.001 9.632 36.213 10.297 36.193ZM30.782 42.525C30.782 42.545 30.782 42.555 30.772 42.575L31.144 42.696C31.034 42.646 30.913 42.586 30.782 42.525ZM7.95001 22.068C7.65801 21.977 7.40601 21.886 7.16401 21.735C7.21401 21.967 7.26401 22.179 7.29501 22.38C7.53701 23.046 7.75801 23.439 8.00001 23.68C8.27201 23.802 8.51401 23.852 8.74501 23.892C9.11801 23.963 9.45 24.054 9.813 24.306C9.803 24.286 9.803 24.276 9.793 24.256C9.36 23.267 9.01701 22.703 8.71501 22.36C8.44301 22.229 8.19101 22.148 7.95001 22.068ZM22.382 42.282C22.392 42.383 22.412 42.494 22.422 42.595C22.492 43.301 22.573 44.017 24.164 44.975C24.285 45.025 24.416 45.085 24.547 45.145C24.457 44.924 24.427 44.712 24.397 44.511C24.306 43.996 24.225 43.472 22.966 42.575C22.775 42.485 22.583 42.393 22.382 42.282ZM11.546 32.503C11.516 32.603 11.485 32.715 11.445 32.816C11.223 33.481 10.991 34.156 12.009 35.679C12.099 35.789 12.2 35.901 12.301 36.022C12.321 35.78 12.371 35.578 12.421 35.386C12.563 34.882 12.704 34.358 11.908 32.986C11.808 32.846 11.676 32.684 11.546 32.503ZM10.297 30.587C10.186 30.426 10.065 30.244 9.94401 30.043C9.90401 30.143 9.86401 30.234 9.82401 30.335C9.54101 30.97 9.249 31.625 10.125 33.229C10.216 33.349 10.297 33.471 10.397 33.602C10.437 33.37 10.508 33.168 10.579 32.977C10.759 32.503 10.951 31.999 10.297 30.587ZM28.082 34.902C28.112 35.054 28.132 35.195 28.142 35.336C28.153 35.376 28.153 35.416 28.163 35.456C28.183 35.537 28.193 35.618 28.203 35.689L28.233 35.84C28.354 36.324 28.626 36.818 29.503 37.362C29.643 37.422 29.795 37.483 29.956 37.544C29.8674 37.2792 29.81 37.0051 29.785 36.727L29.755 36.485C29.553 36.042 29.159 35.548 28.082 34.902ZM22.724 32.936C22.886 33.289 23.208 33.693 23.812 34.166C23.672 33.733 23.692 33.33 23.722 32.946C23.732 32.856 23.732 32.765 23.742 32.684C23.621 32.291 23.349 31.827 22.694 31.202V31.232C22.754 31.575 22.724 31.858 22.694 32.13C22.664 32.412 22.634 32.654 22.724 32.936ZM8.87601 28.036C8.76709 27.8491 8.66633 27.6576 8.57401 27.462C8.52401 27.552 8.47401 27.653 8.42301 27.744C8.08001 28.359 7.73801 28.994 8.48301 30.678C8.55301 30.798 8.63401 30.92 8.70501 31.051C8.76501 30.819 8.85501 30.617 8.93601 30.436C9.16801 29.962 9.40001 29.488 8.87601 28.036ZM20.488 39.268C20.841 39.107 21.163 38.996 21.606 38.996C21.586 38.986 21.576 38.976 21.556 38.966C20.639 38.411 20.035 38.139 19.602 38.038C19.29 38.068 19.038 38.148 18.786 38.229C18.494 38.32 18.222 38.391 17.95 38.401C18.121 38.552 18.273 38.703 18.413 38.834C19.008 39.258 19.421 39.449 19.763 39.51C20.055 39.46 20.277 39.369 20.488 39.268ZM16.198 35.659C16.571 35.568 16.913 35.507 17.336 35.589L17.286 35.538C16.49 34.832 15.946 34.468 15.533 34.298C15.221 34.278 14.959 34.308 14.697 34.338C14.395 34.378 14.123 34.398 13.841 34.368C13.982 34.55 14.113 34.721 14.234 34.892C14.728 35.397 15.1 35.659 15.422 35.78C15.735 35.77 15.966 35.71 16.198 35.659ZM6.71001 22.531C6.65001 22.35 6.58001 22.158 6.52001 21.947C6.46001 22.037 6.38901 22.117 6.31801 22.199C5.87501 22.753 5.42201 23.318 5.87501 25.132C5.92501 25.253 5.96501 25.385 6.01601 25.516C6.11601 25.294 6.23801 25.112 6.35801 24.951C6.67101 24.528 6.98201 24.084 6.71001 22.531ZM12.602 31.353C12.985 31.323 13.338 31.323 13.751 31.484C13.066 30.627 12.592 30.154 12.21 29.902C11.908 29.821 11.626 29.811 11.364 29.791C11.0812 29.7883 10.8 29.7476 10.528 29.67C10.648 29.891 10.749 30.093 10.84 30.285C11.223 30.839 11.545 31.152 11.827 31.323C12.119 31.383 12.361 31.373 12.602 31.353ZM18.263 37.554C18.626 37.433 18.958 37.342 19.401 37.382L19.341 37.322C18.495 36.697 17.921 36.384 17.498 36.243C17.186 36.243 16.924 36.303 16.662 36.364C16.37 36.424 16.098 36.475 15.816 36.465C15.977 36.636 16.118 36.798 16.249 36.959C16.783 37.413 17.176 37.635 17.508 37.735C17.81 37.715 18.042 37.635 18.263 37.554ZM21.052 31.474C21.194 31.837 21.476 32.261 22.019 32.775C21.909 32.321 21.969 31.928 22.029 31.545C22.039 31.455 22.059 31.363 22.069 31.283C21.989 30.89 21.747 30.396 21.163 29.71C21.163 29.72 21.153 29.74 21.153 29.75C21.183 30.093 21.133 30.375 21.083 30.648C21.023 30.92 20.981 31.172 21.052 31.474ZM20.358 31.202C20.288 30.749 20.388 30.355 20.478 29.982C20.498 29.892 20.518 29.811 20.539 29.73C20.489 29.327 20.297 28.823 19.774 28.087C19.774 28.097 19.764 28.117 19.764 28.127C19.764 28.47 19.683 28.742 19.613 29.004C19.542 29.266 19.471 29.509 19.512 29.801C19.602 30.194 19.854 30.638 20.358 31.202ZM11.676 13.145C11.898 13.285 12.109 13.437 12.29 13.669C12.431 13.729 12.593 13.759 12.794 13.759C13.408 13.759 13.68 13.346 13.741 12.318C13.771 11.824 13.116 10.624 12.562 9.77799C12.129 10.503 11.485 11.693 11.455 12.248C11.425 12.56 11.505 12.883 11.676 13.145ZM8.27201 13.72C8.4103 13.7336 8.54969 13.7091 8.67501 13.649C8.78501 13.559 8.89601 13.467 9.01701 13.387C9.18801 13.175 9.29901 12.873 9.32901 12.499C9.35901 11.995 8.61401 10.644 7.99901 9.68699C7.59701 10.443 7.01301 11.663 6.97301 12.217C6.94301 12.983 7.65701 13.68 8.27201 13.72ZM25.604 43.855C25.413 43.785 25.222 43.705 25 43.614L25.06 43.916C25.191 44.602 25.332 45.307 26.954 46.114C27.034 46.024 27.135 45.943 27.256 45.882C27.236 45.802 27.216 45.731 27.196 45.66C27.065 45.156 26.934 44.641 25.604 43.855ZM27.851 47.152L27.7 47.092C27.64 47.102 27.58 47.122 27.529 47.132C27.579 47.162 27.639 47.172 27.7 47.172C27.75 47.182 27.8 47.172 27.851 47.152ZM3.66901 13.266C3.79315 13.2791 3.91866 13.2671 4.03807 13.2307C4.15747 13.1943 4.26832 13.1342 4.36401 13.054C4.56501 12.872 4.68601 12.58 4.70601 12.237C4.72601 11.824 4.00101 10.654 3.35601 9.77699C3.00401 10.412 2.49101 11.431 2.46001 11.905C2.42001 12.54 3.03401 13.226 3.66901 13.266ZM2.15901 15.524L2.37001 15.644C2.55201 15.746 2.72301 15.847 2.88401 15.967C3.00501 16.048 3.12601 16.139 3.24701 16.24V16.099C2.97501 13.629 2.51101 13.316 1.93701 12.943C1.74701 12.812 1.51401 12.671 1.28301 12.439C1.22301 14.627 1.59501 15.161 2.15901 15.524ZM25.474 46.316H25.464C24.568 46.114 24.104 46.164 23.752 46.306C23.631 46.366 23.51 46.436 23.389 46.507C23.329 46.547 23.269 46.577 23.198 46.618C23.027 46.719 22.825 46.83 22.584 46.931C24.86 48.081 25.354 47.727 26.028 47.253C26.219 47.113 26.431 46.961 26.703 46.83V46.8C26.703 46.76 26.703 46.719 26.713 46.689C26.3086 46.5377 25.8947 46.4131 25.474 46.316ZM19.149 28.067C19.139 27.663 18.988 27.139 18.525 26.363C18.515 26.373 18.515 26.393 18.505 26.403C18.475 26.736 18.374 27.008 18.283 27.26C18.183 27.522 18.102 27.744 18.112 28.036C18.182 28.43 18.384 28.893 18.847 29.509C18.817 29.045 18.947 28.672 19.068 28.309C19.098 28.228 19.118 28.147 19.149 28.067ZM14.173 16.371C14.0511 16.4879 13.9369 16.6125 13.831 16.744C13.609 17.168 13.518 17.782 13.72 18.841C13.881 18.418 14.143 18.125 14.395 17.843C14.475 17.753 14.555 17.662 14.626 17.571C14.777 17.178 14.848 16.623 14.757 15.706C14.717 15.746 14.677 15.786 14.637 15.816C14.505 16.048 14.334 16.21 14.173 16.371ZM2.61301 18.77C2.65301 18.79 2.70301 18.811 2.74301 18.831C2.91501 18.901 3.08601 18.982 3.23701 19.073C3.37801 19.153 3.52901 19.235 3.68001 19.345C3.68001 19.315 3.67001 19.285 3.67001 19.255C3.56001 18.71 3.45901 18.277 3.34801 17.924H3.32801C3.32801 17.884 3.31801 17.854 3.31801 17.813C3.06601 17.037 2.80401 16.673 2.53201 16.452C2.40201 16.372 2.28001 16.3 2.15901 16.22C2.05901 16.16 1.96901 16.109 1.86701 16.049C1.69735 15.96 1.53861 15.8516 1.39401 15.726C1.51401 18.015 1.97801 18.457 2.61301 18.77ZM8.45301 16.15C8.47301 16.31 8.50301 16.472 8.52301 16.653C8.59401 16.563 8.66501 16.482 8.74501 16.421C8.93701 16.2 9.148 16.028 9.36 15.857C9.44 15.797 9.51001 15.736 9.58101 15.675C9.83301 15.312 10.004 14.727 9.964 13.477C9.833 13.578 9.692 13.679 9.551 13.77C9.511 13.79 9.481 13.82 9.441 13.84C9.319 13.971 9.18801 14.072 9.02701 14.153C8.66501 14.506 8.39301 15.021 8.45301 16.15ZM9.058 26.353C9.34 26.453 9.582 26.473 9.813 26.503C10.196 26.544 10.539 26.605 10.911 26.826C10.901 26.796 10.891 26.776 10.881 26.746C10.377 25.818 9.995 25.294 9.672 24.991C9.41363 24.878 9.1437 24.7935 8.867 24.739C8.575 24.669 8.30301 24.599 8.06101 24.477C8.14101 24.719 8.20201 24.941 8.26201 25.143C8.53401 25.768 8.796 26.131 9.058 26.353ZM13.529 33.632C13.7884 33.6479 14.0488 33.6311 14.304 33.582C14.687 33.522 15.03 33.491 15.453 33.612C15.433 33.592 15.423 33.572 15.403 33.552C14.677 32.795 14.173 32.382 13.781 32.17C13.5008 32.1306 13.2173 32.1206 12.935 32.14C12.632 32.15 12.35 32.15 12.079 32.09C12.209 32.28 12.32 32.472 12.421 32.644C12.874 33.188 13.217 33.481 13.529 33.632ZM16.874 28.45C16.451 28.238 16.098 28.188 15.756 28.137C15.645 28.117 15.534 28.107 15.433 28.087C15.283 28.087 15.121 28.077 14.94 28.057C15.655 29.075 16.128 29.387 16.602 29.498C16.732 29.498 16.854 29.478 16.974 29.468C17.327 29.428 17.639 29.418 18.022 29.528C17.538 28.994 17.176 28.661 16.874 28.45ZM14.496 26.02C14.214 25.95 13.952 25.879 13.71 25.758C13.69 25.758 13.67 25.748 13.65 25.748C14.405 27.078 14.919 27.371 15.473 27.482H15.613C15.976 27.472 16.309 27.492 16.681 27.653C16.4224 27.2945 16.1433 26.9513 15.845 26.625C15.332 26.221 14.909 26.121 14.495 26.02H14.496ZM13.478 23.761C13.2267 23.6768 12.984 23.569 12.753 23.439C12.703 23.429 12.652 23.409 12.602 23.389C13.095 24.497 13.508 24.961 13.921 25.183C14.092 25.213 14.243 25.233 14.384 25.243C14.737 25.273 15.049 25.324 15.401 25.506C15.1993 25.158 14.9742 24.8243 14.727 24.507C14.273 24.054 13.871 23.902 13.478 23.761ZM17.185 30.154C16.9758 30.1499 16.7672 30.1299 16.561 30.094C16.491 30.094 16.42 30.094 16.339 30.083C17.135 31.031 17.639 31.303 18.112 31.373C18.242 31.363 18.374 31.333 18.495 31.313C18.837 31.243 19.159 31.203 19.532 31.283C19.069 30.849 18.706 30.567 18.404 30.375C17.941 30.184 17.558 30.164 17.185 30.154ZM18.765 31.988C18.544 31.998 18.332 31.998 18.131 31.978C18.061 31.988 18 31.988 17.919 31.988C18.796 32.876 19.329 33.098 19.813 33.118C19.943 33.088 20.055 33.058 20.165 33.027C20.508 32.927 20.82 32.866 21.213 32.906C20.709 32.513 20.326 32.261 20.004 32.099C19.521 31.949 19.138 31.968 18.765 31.988ZM11.959 18.7C11.7896 18.6106 11.6247 18.5128 11.465 18.407C11.375 18.367 11.284 18.317 11.183 18.267C11.546 19.708 11.938 20.192 12.392 20.464C12.482 20.494 12.573 20.524 12.653 20.545C13.006 20.655 13.318 20.767 13.651 21.069C13.318 20.172 13.036 19.628 12.784 19.275C12.512 19.002 12.23 18.851 11.959 18.7ZM7.25501 28.329C7.33501 28.097 7.43601 27.915 7.53701 27.744C7.79901 27.3 8.07101 26.836 7.67701 25.334C7.59701 25.153 7.50701 24.951 7.42701 24.739C7.36601 24.83 7.31501 24.921 7.25501 25.001C6.86201 25.586 6.46901 26.181 7.05401 27.915C7.11401 28.056 7.18501 28.187 7.25501 28.329ZM16.721 40.316C16.7039 40.0978 16.7073 39.8785 16.731 39.661C16.781 39.137 16.832 38.602 15.825 37.393C15.6676 37.2585 15.5132 37.1204 15.362 36.979C15.352 37.09 15.332 37.191 15.322 37.302C15.211 37.998 15.11 38.703 16.369 40.024C16.479 40.114 16.59 40.206 16.721 40.316ZM19.18 42.152C19.14 41.91 19.14 41.698 19.14 41.496C19.14 40.972 19.15 40.427 18.022 39.298C17.871 39.188 17.709 39.066 17.548 38.935C17.548 39.046 17.538 39.157 17.528 39.268C17.478 39.964 17.438 40.69 18.818 41.9C18.938 41.98 19.059 42.06 19.18 42.152ZM20.499 33.672C20.287 33.702 20.086 33.722 19.885 33.722C19.814 33.732 19.733 33.753 19.653 33.753C20.59 34.55 21.133 34.731 21.617 34.711C21.747 34.671 21.869 34.631 21.979 34.58C22.312 34.449 22.614 34.358 23.007 34.368C22.6004 34.0979 22.1723 33.8618 21.727 33.662C21.234 33.572 20.861 33.622 20.499 33.672ZM14.114 27.936C14.104 27.966 14.084 27.996 14.074 28.026C14.013 28.299 13.902 28.53 13.771 28.772C13.721 28.873 13.671 28.964 13.621 29.065C13.499 29.549 13.57 30.144 14.204 31.091C14.285 31.192 14.366 31.303 14.456 31.414C14.476 31.283 14.506 31.152 14.546 31.041C14.597 30.789 14.678 30.547 14.778 30.295C14.818 30.205 14.849 30.113 14.879 30.023C14.919 29.579 14.769 28.984 14.114 27.936ZM31.557 39.157C31.5328 39.1453 31.5094 39.132 31.487 39.117C30.5 38.754 29.966 38.704 29.573 38.784C29.382 38.844 29.211 38.915 29.049 38.986C28.8975 39.0533 28.743 39.1137 28.586 39.167C28.516 39.197 28.436 39.217 28.355 39.247C29.865 40.065 30.379 39.853 31.054 39.581C31.204 39.521 31.376 39.45 31.557 39.389C31.547 39.339 31.547 39.289 31.547 39.228C31.557 39.198 31.557 39.177 31.557 39.157ZM14.415 38.26C14.415 38.018 14.445 37.806 14.485 37.615C14.576 37.1 14.677 36.566 13.77 35.265C13.6275 35.1219 13.4898 34.9741 13.357 34.822C13.337 34.932 13.307 35.033 13.287 35.144C13.116 35.82 12.944 36.526 14.093 37.947C14.193 38.048 14.304 38.149 14.415 38.26ZM20.066 37.12C20.0477 36.9932 20.0443 36.8646 20.056 36.737C20.036 36.485 20.056 36.223 20.086 35.961L20.116 35.658C20.036 35.225 19.733 34.691 18.837 33.854C18.837 33.894 18.827 33.934 18.817 33.974C18.827 34.247 18.777 34.499 18.717 34.761C18.696 34.862 18.666 34.963 18.656 35.064C18.656 35.558 18.867 36.102 19.683 36.838C19.793 36.918 19.925 37.02 20.066 37.12ZM11.414 26.463C11.484 26.594 11.554 26.725 11.625 26.867C11.665 26.735 11.715 26.614 11.776 26.514C11.866 26.272 11.998 26.05 12.129 25.828C12.189 25.738 12.239 25.657 12.289 25.566C12.401 25.142 12.35 24.528 11.887 23.388C11.867 23.418 11.847 23.448 11.827 23.489C11.716 23.741 11.575 23.953 11.404 24.164C11.334 24.255 11.273 24.336 11.212 24.427C11.011 24.86 10.97 25.445 11.414 26.463ZM22.372 35.205C22.151 35.255 21.939 35.295 21.738 35.315C21.678 35.335 21.607 35.345 21.536 35.366C22.543 36.082 23.107 36.213 23.581 36.153C23.711 36.103 23.822 36.052 23.933 35.991C24.245 35.84 24.547 35.719 24.93 35.699C24.366 35.396 23.943 35.215 23.6 35.114C23.107 35.044 22.735 35.124 22.372 35.204V35.205ZM18.03 35.386C18.03 35.266 18.03 35.154 18.051 35.053C18.051 34.761 18.111 34.489 18.161 34.237C18.182 34.136 18.202 34.045 18.212 33.955C18.182 33.521 17.93 32.956 17.094 32.029L17.064 32.139C17.054 32.412 16.984 32.664 16.893 32.926C16.853 33.037 16.823 33.138 16.803 33.239C16.772 33.733 16.933 34.297 17.699 35.104C17.799 35.184 17.909 35.275 18.03 35.386ZM15.473 30.143C15.4312 30.4081 15.3531 30.6662 15.241 30.91C15.191 31.02 15.151 31.121 15.121 31.222C15.05 31.706 15.171 32.281 15.845 33.138C15.946 33.238 16.047 33.35 16.157 33.471C16.167 33.329 16.187 33.198 16.218 33.077C16.248 32.825 16.308 32.583 16.389 32.331C16.419 32.231 16.449 32.14 16.469 32.049C16.469 31.605 16.269 31.031 15.513 30.032C15.503 30.072 15.483 30.113 15.473 30.143ZM12.724 28.863C12.794 28.974 12.864 29.085 12.945 29.196C12.965 29.085 12.995 28.994 13.035 28.893C13.117 28.601 13.237 28.349 13.358 28.107C13.408 28.017 13.448 27.926 13.489 27.835C13.569 27.401 13.469 26.796 12.905 25.687C12.8943 25.717 12.8773 25.7443 12.855 25.767C12.7696 26.0274 12.6437 26.2727 12.482 26.494C12.422 26.594 12.362 26.685 12.311 26.776C12.15 27.27 12.17 27.865 12.724 28.863ZM13.398 22.955C13.751 23.015 14.063 23.095 14.406 23.328C14.023 22.521 13.721 22.028 13.449 21.715C13.157 21.473 12.875 21.352 12.593 21.231C12.4259 21.1625 12.2641 21.0816 12.109 20.989C12.029 20.959 11.949 20.929 11.857 20.878C12.27 22.098 12.643 22.602 13.036 22.874C13.166 22.914 13.278 22.935 13.398 22.955ZM21.799 43.755C21.739 43.523 21.719 43.311 21.698 43.109C21.658 42.585 21.618 42.051 20.428 41.053C20.258 40.952 20.076 40.841 19.875 40.71C19.885 40.82 19.885 40.921 19.885 41.022C19.895 41.728 19.915 42.444 21.395 43.532C21.537 43.614 21.668 43.684 21.799 43.755ZM11.101 28.984C11.484 28.994 11.837 29.024 12.229 29.216C12.229 29.206 12.219 29.206 12.219 29.196C11.615 28.288 11.182 27.784 10.829 27.502C10.537 27.402 10.265 27.361 10.004 27.321C9.72197 27.2904 9.44464 27.2259 9.17801 27.129C9.27801 27.361 9.35901 27.573 9.43001 27.774C9.77201 28.359 10.054 28.702 10.326 28.894C10.628 28.974 10.86 28.984 11.101 28.984ZM26.25 37.191C26.5 37.091 26.783 36.969 27.135 36.899C26.471 36.617 25.987 36.445 25.615 36.364C25.101 36.344 24.728 36.455 24.375 36.566C24.165 36.636 23.963 36.687 23.762 36.727C23.702 36.747 23.631 36.767 23.56 36.798C25.08 37.685 25.584 37.473 26.25 37.191ZM22.24 38.683C22.2123 38.5572 22.1989 38.4288 22.2 38.3C22.1646 38.0396 22.1546 37.7763 22.17 37.514C22.17 37.413 22.18 37.312 22.18 37.211C22.069 36.788 21.716 36.283 20.74 35.527C20.74 35.557 20.74 35.587 20.73 35.618C20.77 35.89 20.74 36.162 20.699 36.435C20.679 36.545 20.669 36.657 20.659 36.757C20.709 37.251 20.981 37.776 21.887 38.441C21.998 38.531 22.119 38.602 22.24 38.683Z"/>
</g>
<defs>
<clipPath id="clip0_1_203">
<rect width="81" height="62" fill="white"/>
</clipPath>
</defs>
</svg>
