<svg width="91" height="69" viewBox="0 0 91 69" xmlns="http://www.w3.org/2000/svg">
<g clip-path="url(#clip0_1_137)">
<path d="M88.81 62.165C88.423 61.779 87.398 60.563 86.726 60.647C86.146 60.723 85.978 61.712 85.373 61.679C84.593 61.645 84.651 60.714 84.726 60.085C82.164 59.624 80.442 58.575 78.989 56.907C78.392 56.211 76.989 53.535 76.032 53.401C75.2 53.284 74.201 53.963 73.159 54.038C72.479 54.098 71.899 54.055 71.403 53.888C69.261 53.149 68.194 51.405 67.497 49.342C66.808 47.329 65.892 45.425 64.54 43.765C66.077 43.102 67.304 42.624 69.093 42.733C71.756 42.884 72.798 44.31 74.285 45.685C76.065 47.329 77.46 48.361 80.745 48.151C83.727 47.958 86.373 46.624 89.045 45.995C89.011 45.618 89.154 45.425 89.204 45.123C87.591 44.092 86.037 42.23 83.382 42.096C82.299 42.037 81.257 42.18 80.19 42.096C76.51 41.794 74.881 38.606 71.26 38.749C67.85 38.883 65.817 41.316 63.28 42.733C61.13 40.527 55.434 40.343 52.032 41.106L52.351 40.746C52.291 40.678 52.291 40.636 52.334 40.594L51.141 41.567L52.317 40.594C52.359 40.553 52.452 40.527 52.561 40.502C52.46 40.527 52.376 40.552 52.334 40.594L52.351 40.746C54.006 40.428 54.518 38.985 55.543 38.036C55.182 37.953 54.93 38.187 54.745 38.036C54.795 37.869 55.148 37.735 54.821 37.634C54.753 37.776 54.644 37.944 54.501 37.794C54.627 37.676 54.577 37.382 54.585 37.148C54.199 37.08 54.333 37.542 53.947 37.466C53.796 37.131 54.518 36.988 54.107 36.904C53.955 36.938 54.039 37.214 53.787 37.139C53.72 36.82 53.72 36.736 53.787 36.426C53.56 36.51 53.451 36.51 53.224 36.426C53.25 36.284 53.644 36.107 53.384 35.948C53.359 36.066 53.09 36.326 52.981 36.099C53.048 35.873 53.141 35.679 53.216 35.462C53.023 35.487 52.913 35.587 52.653 35.546C52.846 35.185 52.309 35.176 52.502 34.59C51.511 35.252 50.906 36.292 50.024 37.055C50.116 37.298 49.898 37.517 49.948 37.675L49.234 38.129C49.242 37.894 49.251 37.659 49.15 37.525C48.789 37.625 48.646 38.347 48.352 38.246C48.226 36.938 48.05 35.68 47.789 34.497C48.1 34.095 48.369 33.063 48.024 32.51C49.15 30.681 50.083 28.66 51.536 27.167C52.696 29.163 54.19 31.26 57.198 31.151C57.114 29.859 55.904 29.339 55.198 28.601C54.451 27.813 53.871 26.941 53.283 25.976C53.611 25.993 53.779 25.834 54.157 25.901C54.947 26.547 55.778 27.628 56.87 28.367C57.895 29.063 59.323 29.901 60.466 29.96C60.97 29.985 61.449 29.985 61.583 29.482C61.129 28.853 60.172 28.367 59.264 27.729C58.315 27.067 56.753 26.253 57.349 25.02C58.777 24.274 60.138 25.146 61.415 25.104C63.205 25.037 64.665 24.014 66.682 24.073C66.959 24.081 66.732 23.586 67.002 23.586C68.622 23.318 70.479 23.293 71.706 22.63C71.47 22.051 71.748 22.194 71.941 21.758C71.596 21.422 72.084 21.439 72.025 20.961C71.765 20.844 71.664 20.936 71.378 20.961C71.378 20.693 71.798 20.601 71.538 20.324C70.428 20.399 69.664 21.624 68.589 21.196C68.942 20.751 70.025 21.045 69.866 20.08C69.336 20.055 68.53 20.382 67.866 20.483C67.153 22.983 64.019 21.053 61.163 21.439C60.13 21.573 59.743 22.236 58.533 21.993C58.315 22.018 58.601 21.548 58.298 21.673C56.753 21.892 55.837 20.793 54.073 21.188C53.628 17.564 52.166 14.965 50.083 12.985C50.175 11.073 50.251 8.51499 48.411 8.27999C48.1 9.60499 48.411 11.25 47.126 11.543C46.68 11.652 45.924 11.367 45.529 11.627C46.101 9.26999 45.051 6.48599 45.21 4.05299C47.68 4.24599 48.982 3.32299 51.191 3.57499C52.552 3.72599 53.745 4.72499 54.703 5.48699C55.929 6.46899 57.231 7.97799 59.172 7.72699C60.894 7.49199 61.339 4.53999 59.248 5.09299C59.08 5.41199 59.231 5.70599 59.408 5.88999C59.802 5.96599 59.558 5.41199 59.97 5.48699C60.508 6.51099 59.55 6.99699 58.61 6.92999C57.181 6.81299 55.535 4.85799 54.3 3.90199C52.88 2.79499 51.04 1.67999 49.108 1.74699C48.168 1.78099 47.596 2.25899 46.311 2.22499C46.336 1.85599 46.243 1.59599 46.151 1.35299C45.353 1.44499 44.647 0.312986 44.076 0.949986C43.001 0.958986 42.337 1.31999 41.917 2.14099C40.464 1.94799 39.54 1.18499 38.33 1.57899C35.34 2.56099 33.45 7.00499 29.627 6.83799C28.812 6.80399 27.661 6.52799 27.956 5.47899C28.35 5.41999 28.342 6.04899 28.753 5.72199C28.644 4.38899 27.3 4.96799 27.241 5.79799C27.141 6.98799 28.359 7.76799 29.392 7.86899C33.492 8.27199 35.911 3.23899 40.246 3.40799C40.926 3.43299 41.648 3.64199 42.564 3.72599C43.446 5.76399 41.741 7.91099 41.606 10.251C41.522 11.618 42.278 12.566 41.842 14H40.968C41.203 15.007 41.212 16.038 41.288 17.103C41.405 18.973 42.178 20.726 42.32 22.362C42.404 23.267 42.152 24.132 42.085 25.071C41.976 26.538 42.169 28.131 42.085 29.608C41.976 31.47 41.514 33.038 41.052 34.464C40.178 34.975 39.498 35.68 38.582 36.141C38.473 35.948 38.347 35.781 38.347 35.504C38.1148 35.5836 37.8675 35.6093 37.624 35.579V34.782H36.827C36.86 34.296 36.574 34.128 36.264 33.986C36.171 33.659 36.432 33.676 36.424 33.424C35.726 33.357 35.424 32.887 34.667 32.862C34.609 32.627 34.81 32.627 34.751 32.384C33.828 32.274 33.223 31.83 32.122 31.906C31.962 31.503 31.685 31.218 31.635 30.706C31.467 30.698 31.122 30.924 31.08 30.782C30.904 30.488 31.173 30.061 30.92 29.985C30.669 30.295 30.039 30.22 29.484 30.22C29.417 29.935 29.627 29.8 29.484 29.667C28.955 29.708 28.577 29.617 28.124 29.583C27.981 29.189 27.351 29.298 27.325 28.786H26.527C26.418 28.652 26.553 28.283 26.292 28.308C25.78 28.333 25.419 28.232 25.015 28.148C25.041 27.729 25.007 27.36 24.855 27.117C22.613 27.192 20.345 26.966 18.866 27.914C18.202 27.301 17.329 26.907 16.312 26.639C16.212 27.083 16.749 27.319 16.556 27.587C16.026 27.343 15.649 26.949 14.96 26.874C14.783 27.436 15.27 27.989 15.439 28.467C14.876 28.459 14.414 28.903 13.842 29.021C13.044 29.197 12.112 29.054 11.213 29.181C10.314 29.306 9.17197 29.96 8.18097 30.211C7.60097 30.363 6.86997 30.363 6.50897 30.614C6.08897 30.891 6.06397 31.453 5.78597 31.897C5.50897 32.325 4.87897 32.551 5.14797 33.097C5.42497 33.399 6.07997 33.331 6.26497 33.734C7.11397 33.759 8.12197 33.365 8.73497 33.65C8.04597 34.237 6.23197 33.7 5.61797 34.371C6.14797 35.017 6.95397 35.906 7.93697 35.889C8.60897 35.873 8.97897 35.269 9.69297 35.244C11.709 40.435 15.657 44.092 23.167 43.53C24.057 45.266 22.587 46.608 22.529 48.537C19.975 47.841 17.429 48.436 15.027 48.621C14.246 48.679 13.473 48.52 12.717 48.621C11.969 48.721 11.415 49.468 10.717 50.131C9.48297 51.313 8.29797 51.992 6.88697 52.68C6.13897 53.04 5.15697 53.225 4.65197 53.636C4.29197 53.921 4.23197 54.491 3.92997 54.836C3.63597 55.162 3.16497 55.263 2.81297 55.548C1.66997 56.613 0.862972 58.014 0.258972 59.297C1.82097 59.003 3.34997 58.677 4.64397 58.097C5.18997 57.074 5.18197 55.507 6.47497 55.229C6.70997 55.339 6.64297 55.808 6.55897 56.026C6.96197 55.876 7.26497 55.959 7.67597 55.548C7.65097 55.758 7.70197 55.892 7.91197 55.867C8.08797 55.615 8.14697 55.171 8.39897 54.835C8.98697 54.03 11.541 52.311 12.54 52.042C12.902 51.95 13.305 52.051 13.658 51.967C14.145 51.849 14.565 51.313 15.094 51.254C16.648 51.061 18.606 52.202 19.723 52.529C18.547 53.191 16.758 52.512 15.253 53.007C14.758 53.175 14.094 53.997 13.338 54.525C11.81 55.59 10.642 56.227 9.11297 57.15C8.43297 57.552 7.36597 58.047 7.03797 58.508C6.80297 58.844 6.86197 59.356 6.63497 59.699C6.33197 60.178 5.67697 60.32 5.27397 60.739C4.38397 61.687 3.99697 62.937 3.35897 64.002C5.05597 63.834 6.62597 63.549 7.82797 62.886C8.11297 62.14 7.55797 60.555 8.30697 60.261C8.65097 60.211 8.45697 60.697 8.86897 60.581C8.93697 60.387 8.93697 60.119 9.18897 60.094C9.12897 60.337 9.26397 60.387 9.26397 60.58C9.69297 60.605 9.50797 60.018 9.90297 60.018C9.90297 60.228 9.87697 60.471 9.98697 60.58C11.104 59.087 12.834 57.183 14.851 56.756C15.346 56.646 15.867 56.798 16.363 56.672C16.867 56.546 17.363 55.959 17.959 55.875C18.933 55.749 20.513 56.235 21.789 56.437C24.805 56.907 29.476 57.594 31.366 55.8C36.188 57.846 44.068 58.35 49.234 56.278C52.409 59.247 57.324 61.729 63.355 61.218C67.648 60.857 70.311 63.507 72.369 65.352C73.445 66.317 73.865 67.39 75.965 67.105C77.099 68.707 80.065 68.489 82.349 68.933C82.299 68.263 81.652 67.751 81.148 67.105C80.778 66.635 80.198 65.595 79.552 65.511C78.678 65.402 77.561 66.811 76.922 65.595C76.922 65.142 77.166 64.933 77.074 64.396C76.343 63.784 75.788 64.128 75.083 63.91C73.89 63.549 72.52 62.148 71.487 61.2C71.017 60.765 70.462 60.286 69.816 59.683C69.303 59.221 68.614 58.249 68.06 58.249C67.698 58.249 67.237 58.794 66.859 58.886C65.825 59.146 64.943 58.701 64.229 58.014C67.74 57.972 70.664 56.705 73.797 57.141C75.629 57.393 77.149 58.886 78.51 59.934C79.132 60.412 79.947 60.966 80.66 61.528C81.811 62.434 82.492 63.373 84.332 63.197C85.424 64.522 88.238 64.103 90.405 63.993C90.17 63.23 89.466 62.819 88.81 62.165ZM10.305 35.168C11.1522 35.0616 12.0051 35.0082 12.859 35.008C13.472 36.552 16.63 37.76 18.764 36.602C20.831 38.02 22.166 40.158 22.99 42.817C15.866 43.152 12.649 39.597 10.305 35.168ZM51.316 40.259C51.308 40.259 51.308 40.259 51.3 40.267C51.325 40.167 51.375 40.117 51.442 40.1C51.375 40.116 51.333 40.167 51.316 40.259ZM50.88 39.219C51.988 38.691 52.526 37.609 53.383 36.829C52.534 37.609 51.997 38.699 50.88 39.219ZM52.257 40.259C52.081 40.133 51.687 40.167 51.426 40.225C51.678 40.167 52.073 40.133 52.257 40.259ZM55.055 38.271C54.483 39.085 53.786 39.764 53.055 40.427C53.039 40.427 53.03 40.435 53.013 40.435C53.022 40.435 53.039 40.427 53.047 40.427C53.787 39.764 54.483 39.085 55.055 38.271C54.8404 38.2437 54.6225 38.2758 54.425 38.364C54.609 38.28 54.82 38.238 55.055 38.271ZM54.425 37.55C54.257 38.875 53.097 39.21 52.509 40.1C52.5635 40.091 52.6171 40.0769 52.669 40.058C52.6124 40.0824 52.5529 40.0992 52.492 40.108C53.089 39.211 54.248 38.875 54.425 37.55C54.231 37.718 54.038 37.877 53.845 38.053C54.038 37.877 54.231 37.709 54.425 37.55ZM53.937 37.634C53.484 38.523 52.459 38.858 52.19 39.94L52.14 39.99C52.157 39.974 52.173 39.965 52.182 39.949C52.451 38.875 53.467 38.531 53.937 37.634ZM53.618 37.004C53.618 36.996 53.618 36.996 53.618 37.004C53.349 38.33 52.123 38.724 51.56 39.781C51.56 39.781 51.552 39.781 51.552 39.789C52.106 38.733 53.332 38.338 53.618 37.004ZM52.912 36.116C52.593 37.382 51.4 37.793 50.838 38.825H50.829C51.392 37.802 52.577 37.391 52.904 36.125C52.896 36.125 52.904 36.126 52.912 36.116ZM52.342 35.017C52.35 35.009 52.342 35.009 52.342 35.017C52.165 36.367 50.955 36.703 50.359 37.634H50.35C50.947 36.703 52.157 36.367 52.342 35.017ZM49.258 38.313L49.989 37.751L50.023 37.785V37.793C50.006 37.785 49.997 37.768 49.981 37.76L49.258 38.313ZM50.426 39.06V39.068C50.292 38.959 50.552 38.556 50.51 38.271C50.493 38.087 50.166 38.238 50.023 38.187C51.182 37.852 51.972 36.611 52.82 35.722C52.61 35.713 52.417 35.772 52.249 35.872C52.425 35.772 52.61 35.713 52.829 35.713C51.98 36.611 51.199 37.843 50.031 38.187C50.174 38.229 50.501 38.087 50.518 38.263C50.552 38.557 50.308 38.943 50.426 39.06ZM51.224 39.387C51.19 39.211 50.829 39.353 50.661 39.311C50.67 39.311 50.67 39.303 50.678 39.303C50.838 39.353 51.19 39.211 51.224 39.387C51.334 39.63 51.006 39.823 51.224 39.94V39.949C50.98 39.831 51.324 39.63 51.224 39.387Z"/>
</g>
<defs>
<clipPath id="clip0_1_137">
<rect width="91" height="69" fill="white"/>
</clipPath>
</defs>
</svg>
