<svg width="82" height="68" viewBox="0 0 82 68" xmlns="http://www.w3.org/2000/svg">
<g clip-path="url(#clip0_1_162)">
<path d="M81.659 8.63C81.385 4.216 71.776 2.326 66.215 2.78C65.5083 2.82898 64.8071 2.93838 64.119 3.107C59.379 4.397 47.472 9.811 45.63 18.059C43.789 26.307 44.482 32.229 43.789 35.536C43.3652 37.4776 42.4625 39.2824 41.163 40.786C37.262 36.408 30.424 35.681 27.945 34.882C25.155 33.992 19.922 31.031 18.318 27.779C17.625 26.579 17.716 23.527 18.117 22.347C18.482 21.275 22.256 19.149 23.623 18.767C23.313 19.277 22.93 19.404 22.93 19.404C22.93 19.404 23.259 19.422 23.678 19.404C23.295 20.112 22.074 22.474 22.402 23.419L23.732 19.404C23.86 19.404 23.988 19.385 24.134 19.367C23.879 20.257 23.222 22.747 23.696 23.945L24.206 19.367C24.353 19.349 24.499 19.331 24.644 19.294C24.608 20.184 24.59 22.546 25.52 23.909L24.717 19.276C24.79 19.258 24.882 19.24 24.954 19.204C25.757 18.931 25.848 18.568 25.848 17.714C25.848 17.532 25.757 17.369 25.611 17.205C26.522 16.442 28.364 14.735 28.692 12.9L25.502 17.078C25.3488 16.9426 25.1838 16.8211 25.009 16.715C25.921 15.425 27.744 12.791 27.926 12.155L24.973 16.697C24.837 16.6111 24.6968 16.532 24.553 16.46C25.283 15.189 26.158 12.7 26.103 12.137L24.463 16.406C24.097 16.242 23.823 16.133 23.823 16.133C23.823 16.133 23.97 16.479 23.988 17.06C23.258 15.952 19.412 12.282 19.412 12.282C19.412 12.282 20.196 5.687 19.12 5.179H19.102L20.05 0.509003C19.284 1.509 19.12 4.506 19.083 5.179C18.956 5.142 18.81 5.197 18.646 5.324V0.673003C18.044 2.671 18.463 4.779 18.609 5.36C17.406 6.432 15.583 11.5 15.163 11.5C14.653 11.5 12.373 3.998 11.9 5.687C10.405 8.648 10.915 13.19 10.915 13.19C10.915 13.19 9.73002 14.28 8.52702 15.77C4.69702 20.512 4.86202 27.815 4.86202 27.815C4.86202 27.815 4.51502 34.446 7.99802 39.969C7.56002 43.475 6.61202 50.106 5.57302 51.632C4.13302 53.74 1.59802 54.939 1.06902 56.102C0.541021 57.264 2.12702 57.646 3.42102 56.973C4.73402 56.283 9.20102 51.996 10.186 50.651C10.806 49.815 12.082 47.091 12.957 45.201L12.975 45.219C12.592 48.253 12.228 51.505 11.845 52.214C10.185 56.174 8.72702 57.991 6.68502 58.935C3.36702 60.752 4.53402 62.787 6.79502 61.825C8.30802 61.497 11.735 59.898 15.692 55.829C17.442 54.03 18.262 51.541 18.609 49.343C18.846 49.453 19.029 49.525 19.193 49.597C19.576 49.761 20.651 50.361 22.146 50.96C22.128 52.123 22.146 53.721 22.42 54.666C22.912 56.265 25.428 57.991 25.92 58.936C26.395 59.898 20.597 63.169 20.396 64.386C20.196 65.603 21.089 65.712 22.657 65.076C24.207 64.422 27.689 60.68 30.206 59.771C30.844 59.535 31.446 59.335 31.992 59.171C32.502 59.826 32.776 60.298 32.576 60.752C32.066 61.842 30.005 62.133 29.312 62.532C28.619 62.932 25.246 65.112 25.738 66.384C26.121 67.347 26.377 67.42 28.127 66.984C29.713 66.584 31.573 65.004 34.071 63.932C36.988 62.696 39.869 61.697 39.814 61.17C39.704 60.19 38.228 59.008 38.228 58.118C38.228 57.228 41.054 56.447 42.768 54.466C43.625 53.486 44.391 51.996 44.518 50.033C46.87 50.106 49.988 50.015 51.866 49.18C55.166 47.745 60.399 44.456 61.84 40.132C63.28 35.809 60.4 29.087 63.134 24.527C65.906 19.93 71.138 17.205 73.946 16.479C74.6146 16.313 75.2724 16.1066 75.916 15.861C78.669 14.789 81.914 12.644 81.659 8.63Z"/>
<path d="M21.254 0.945998L19.431 5.269C19.431 5.269 21.254 1.545 21.254 0.945998ZM14.233 0.636998L12.938 6.032C12.938 6.014 14.507 3.452 14.233 0.636998ZM22.44 1.69L19.65 5.487C19.631 5.487 22.33 2.235 22.44 1.69ZM11.772 0.563998C11.608 1.364 11.882 4.47 12.1 5.16L11.772 0.563998ZM10.532 1.272C10.313 1.962 11.279 5.178 11.662 5.705L10.532 1.272ZM13.048 0.309998L12.574 5.742C12.574 5.742 13.158 0.726998 13.048 0.309998Z"/>
</g>
<defs>
<clipPath id="clip0_1_162">
<rect width="82" height="68" fill="white"/>
</clipPath>
</defs>
</svg>
