<svg width="54" height="66" viewBox="0 0 54 66" xmlns="http://www.w3.org/2000/svg">
<g clip-path="url(#clip0_1_24)">
<path d="M53.62 27.531C53.572 27.418 53.434 27.37 53.32 27.418L48.484 29.62H48.306C48.1644 29.5832 48.0237 29.5432 47.884 29.5L53.036 27.095C53.0628 27.0827 53.0868 27.0651 53.1067 27.0433C53.1265 27.0216 53.1418 26.996 53.1516 26.9682C53.1614 26.9404 53.1655 26.9109 53.1637 26.8815C53.1619 26.8521 53.1541 26.8234 53.141 26.797C53.1285 26.7702 53.1107 26.7461 53.0888 26.7262C53.0668 26.7063 53.0411 26.691 53.0131 26.6813C52.9852 26.6715 52.9555 26.6674 52.926 26.6692C52.8964 26.6711 52.8675 26.6788 52.841 26.692L47.275 29.29C47.1228 29.2277 46.974 29.1576 46.829 29.08L52.695 26.361C52.7489 26.3357 52.7908 26.2905 52.8121 26.235C52.8333 26.1794 52.8322 26.1178 52.809 26.063C52.76 25.95 52.622 25.901 52.509 25.95L47.21 28.402C47.389 28.201 47.535 27.991 47.673 27.765L52.363 25.611C52.476 25.563 52.525 25.425 52.476 25.312C52.4504 25.258 52.4047 25.2161 52.3487 25.1952C52.2927 25.1743 52.2308 25.176 52.176 25.2L48.03 27.103C48.087 26.983 48.143 26.861 48.2 26.748C48.24 26.668 48.281 26.588 48.314 26.506L52.03 24.812C52.144 24.764 52.192 24.627 52.144 24.514C52.1185 24.4598 52.0729 24.4177 52.0169 24.3966C51.9609 24.3755 51.8989 24.3771 51.844 24.401L48.663 25.853C48.866 25.523 49.101 25.256 49.409 25.103C49.425 25.095 49.449 25.087 49.466 25.079L51.632 24.07C51.67 24.0517 51.7023 24.0232 51.7252 23.9877C51.7481 23.9523 51.7609 23.9112 51.762 23.869C51.7618 23.8352 51.7536 23.802 51.738 23.772C51.7255 23.7451 51.7077 23.7211 51.6858 23.7012C51.6638 23.6813 51.6381 23.666 51.6101 23.6563C51.5822 23.6465 51.5525 23.6424 51.523 23.6442C51.4934 23.6461 51.4645 23.6538 51.438 23.667L49.263 24.659C49.247 24.667 49.223 24.675 49.206 24.683C48.874 24.82 48.516 24.828 48.119 24.764L51.283 23.32C51.397 23.271 51.446 23.134 51.397 23.021C51.3715 22.9668 51.3259 22.9247 51.2699 22.9036C51.2139 22.8825 51.1519 22.8841 51.097 22.908L47.389 24.595C47.308 24.57 47.226 24.555 47.145 24.53L46.861 24.457L50.951 22.577C51.0052 22.5521 51.0474 22.5069 51.0686 22.4512C51.0897 22.3954 51.0881 22.3336 51.064 22.279C51.0385 22.2248 50.9929 22.1827 50.9369 22.1616C50.8809 22.1405 50.8189 22.1421 50.764 22.166L46.139 24.288C45.8744 24.2366 45.6056 24.2099 45.336 24.208L50.546 21.771C50.5729 21.7587 50.597 21.7411 50.617 21.7192C50.6369 21.6974 50.6523 21.6717 50.6621 21.6438C50.6719 21.6159 50.6759 21.5863 50.674 21.5568C50.6721 21.5273 50.6643 21.4984 50.651 21.472C50.6384 21.4452 50.6206 21.4213 50.5986 21.4015C50.5766 21.3817 50.5508 21.3665 50.5229 21.3569C50.4949 21.3472 50.4653 21.3432 50.4358 21.3451C50.4063 21.347 50.3775 21.3548 50.351 21.368L44.476 24.118C44.508 23.99 44.549 23.828 44.606 23.651L50.204 21.045C50.231 21.0328 50.2552 21.0152 50.2753 20.9934C50.2953 20.9716 50.3108 20.946 50.3207 20.9181C50.3306 20.8901 50.3347 20.8605 50.3329 20.8309C50.3311 20.8014 50.3233 20.7725 50.31 20.746C50.2974 20.7192 50.2796 20.6953 50.2576 20.6755C50.2356 20.6557 50.2098 20.6405 50.1819 20.6309C50.1539 20.6212 50.1243 20.6172 50.0948 20.6191C50.0653 20.621 50.0365 20.6288 50.01 20.642L44.825 23.062C44.89 22.908 44.955 22.739 45.044 22.562L45.068 22.505L49.864 20.311C49.977 20.262 50.026 20.125 49.977 20.012C49.929 19.899 49.791 19.851 49.677 19.899L44.841 22.109C44.825 22.118 44.809 22.118 44.792 22.126L44.744 22.15L43.048 22.925C42.9973 22.9497 42.9572 22.9917 42.9348 23.0434C42.9124 23.0951 42.9093 23.1532 42.926 23.207C42.374 23.562 42.099 23.787 41.976 23.949C41.214 24.046 38.553 25.506 38.171 26.055C38.123 26.063 38.074 26.087 38.009 26.119C37.555 26.345 36.703 27.087 36.111 27.66C35.356 28.386 35.039 28.781 34.918 29.015C34.731 29.064 34.342 29.241 33.498 29.879C32.962 30.282 32.224 30.895 31.916 31.29C31.876 31.339 31.834 31.395 31.802 31.452C31.624 31.532 31.275 31.822 30.415 32.815C29.839 33.477 29.295 34.155 29.295 34.162C29.279 34.186 29.262 34.202 29.255 34.227C29.255 34.227 29.246 34.259 29.23 34.299C29.084 34.412 28.905 34.622 28.605 34.961C28.435 35.155 28.191 35.437 28.013 35.614C28.143 34.606 29.27 33.041 30.106 31.864C30.901 30.75 31.316 30.161 31.316 29.79C31.316 29.572 31.331 29.282 31.34 28.983C31.388 27.926 31.396 27.346 31.25 27.071C31.364 26.797 31.453 26.241 31.453 25.095C31.453 24.611 31.429 24.167 31.38 23.852C31.3627 23.6719 31.3189 23.4953 31.25 23.328C31.323 23.158 31.38 22.876 31.429 22.457C31.486 21.924 31.519 21.214 31.519 20.504C31.519 19.899 31.494 19.343 31.453 18.948C31.421 18.665 31.38 18.448 31.315 18.294C31.388 18.133 31.421 17.891 31.453 17.657C31.493 17.262 31.518 16.713 31.518 16.116C31.518 15.414 31.486 14.712 31.428 14.196C31.38 13.768 31.331 13.486 31.25 13.316C31.34 13.099 31.429 12.518 31.396 10.719C31.38 9.58899 31.316 8.49199 31.316 8.40399V1.06999C31.3145 1.0102 31.2899 0.953302 31.2474 0.911191C31.2049 0.86908 31.1478 0.845006 31.088 0.843994C31.0284 0.84526 30.9715 0.869447 30.9292 0.911531C30.887 0.953616 30.8625 1.01037 30.861 1.06999V8.36199L30.821 8.49199C30.715 8.61999 30.609 8.73299 30.504 8.84599V1.07099C30.5025 1.01137 30.478 0.954616 30.4358 0.912531C30.3935 0.870447 30.3366 0.84626 30.277 0.844994C30.2172 0.846006 30.1601 0.87008 30.1176 0.912191C30.0751 0.954302 30.0505 1.0112 30.049 1.07099V9.27499C29.887 9.41199 29.749 9.52499 29.628 9.60499V1.07199C29.6267 1.01202 29.6022 0.954876 29.5597 0.912552C29.5172 0.870228 29.46 0.846015 29.4 0.844994C29.3404 0.84626 29.2835 0.870447 29.2412 0.912531C29.199 0.954616 29.1745 1.01137 29.173 1.07099V8.83099C29.0667 8.62208 28.9475 8.42002 28.816 8.22599V1.07099C28.8147 1.01129 28.7904 0.954395 28.748 0.912259C28.7057 0.870122 28.6487 0.846015 28.589 0.844994C28.5293 0.846015 28.4723 0.870122 28.43 0.912259C28.3876 0.954395 28.3633 1.01129 28.362 1.07099V7.62899C28.289 7.53199 28.208 7.44399 28.135 7.35499C28.07 7.27499 28.005 7.20199 27.94 7.12099V1.07099C27.9387 1.01129 27.9144 0.954395 27.872 0.912259C27.8297 0.870122 27.7727 0.846015 27.713 0.844994C27.6531 0.845758 27.5959 0.869752 27.5533 0.911916C27.5108 0.954079 27.4863 1.01112 27.485 1.07099V6.51599C27.275 6.18599 27.128 5.85399 27.128 5.50799V1.06999C27.1265 1.01037 27.102 0.953616 27.0598 0.911531C27.0175 0.869447 26.9606 0.84526 26.901 0.843994C26.8414 0.84526 26.7845 0.869447 26.7422 0.911531C26.7 0.953616 26.6755 1.01037 26.674 1.06999V5.50699C26.674 5.89399 26.496 6.25699 26.252 6.61999V1.06999C26.2507 1.01029 26.2264 0.953395 26.184 0.911259C26.1417 0.869122 26.0847 0.845014 26.025 0.843994C25.9654 0.84526 25.9085 0.869447 25.8662 0.911531C25.824 0.953616 25.7995 1.01037 25.798 1.06999V7.19999C25.758 7.24999 25.717 7.30599 25.668 7.35399L25.441 7.62799V1.07099C25.4395 1.01137 25.415 0.954616 25.3728 0.912531C25.3305 0.870447 25.2736 0.84626 25.214 0.844994C25.1542 0.846006 25.0971 0.87008 25.0546 0.912191C25.0121 0.954302 24.9875 1.0112 24.986 1.07099V8.22599C24.856 8.41999 24.735 8.62099 24.629 8.83099V1.07099C24.6275 1.01137 24.603 0.954616 24.5608 0.912531C24.5185 0.870447 24.4616 0.84626 24.402 0.844994C24.3424 0.84626 24.2855 0.870447 24.2432 0.912531C24.201 0.954616 24.1765 1.01137 24.175 1.07099V9.61399C24.0269 9.51349 23.8859 9.4029 23.753 9.28299V1.07099C23.7515 1.01137 23.727 0.954616 23.6848 0.912531C23.6425 0.870447 23.5856 0.84626 23.526 0.844994C23.4664 0.84626 23.4095 0.870447 23.3672 0.912531C23.325 0.954616 23.3005 1.01137 23.299 1.07099V8.83899C23.201 8.73399 23.096 8.61299 22.982 8.48399L22.942 8.35499V1.07099C22.9405 1.01137 22.916 0.954616 22.8738 0.912531C22.8315 0.870447 22.7746 0.84626 22.715 0.844994C22.6552 0.846006 22.5981 0.87008 22.5556 0.912191C22.5131 0.954302 22.4885 1.0112 22.487 1.07099V8.39599C22.4444 9.16703 22.4177 9.93886 22.407 10.711C22.374 12.51 22.463 13.091 22.552 13.309C22.472 13.478 22.414 13.76 22.374 14.188C22.317 14.712 22.284 15.414 22.284 16.108C22.284 16.705 22.309 17.253 22.349 17.648C22.374 17.891 22.406 18.125 22.487 18.286C22.422 18.439 22.382 18.657 22.349 18.939C22.309 19.335 22.285 19.891 22.285 20.496C22.285 21.206 22.317 21.916 22.374 22.449C22.422 22.869 22.471 23.15 22.552 23.319C22.479 23.457 22.447 23.643 22.422 23.844C22.3684 24.2561 22.344 24.6715 22.349 25.087C22.349 26.24 22.447 26.797 22.552 27.063C22.406 27.337 22.414 27.918 22.463 28.975C22.479 29.273 22.487 29.564 22.487 29.782C22.487 30.152 22.901 30.75 23.697 31.855C24.532 33.025 25.66 34.59 25.79 35.598C25.5622 35.3606 25.3453 35.113 25.14 34.856C24.848 34.501 24.686 34.307 24.556 34.226C24.548 34.211 24.548 34.211 24.548 34.203C24.5396 34.1787 24.5259 34.1565 24.508 34.138C24.5 34.13 23.956 33.452 23.388 32.791C22.528 31.799 22.179 31.508 22 31.428C21.887 31.218 21.579 30.878 20.84 30.274C20.232 29.774 19.428 29.193 19.015 29.032C18.965 29.015 18.925 28.999 18.885 28.992C18.763 28.757 18.447 28.362 17.692 27.636C17.1 27.063 16.248 26.321 15.793 26.095C15.737 26.063 15.68 26.047 15.631 26.031C15.258 25.481 12.597 24.021 11.826 23.925C11.704 23.764 11.428 23.538 10.876 23.183C10.8961 23.1293 10.8947 23.07 10.8721 23.0173C10.8496 22.9646 10.8077 22.9226 10.755 22.9L9.059 22.126C9.035 22.11 9.01 22.102 9.01 22.102C8.99509 22.093 8.97833 22.0876 8.961 22.086L4.15 19.89C4.09512 19.8661 4.03309 19.8645 3.97707 19.8856C3.92105 19.9067 3.87547 19.9488 3.85 20.003C3.801 20.116 3.85 20.253 3.963 20.302L8.759 22.496L8.783 22.553C8.864 22.73 8.937 22.899 9.002 23.053L3.817 20.633C3.79059 20.6195 3.76172 20.6115 3.73213 20.6094C3.70255 20.6074 3.67285 20.6113 3.64482 20.621C3.6168 20.6307 3.59103 20.646 3.56907 20.666C3.5471 20.6859 3.52939 20.71 3.517 20.737C3.50344 20.7634 3.49542 20.7923 3.49344 20.822C3.49146 20.8516 3.49556 20.8814 3.50548 20.9094C3.51541 20.9374 3.53095 20.963 3.55116 20.9848C3.57137 21.0066 3.59582 21.024 3.623 21.036L9.221 23.642C9.278 23.819 9.318 23.98 9.351 24.109L3.476 21.359C3.44953 21.3455 3.4206 21.3376 3.39097 21.3356C3.36134 21.3336 3.33161 21.3376 3.30358 21.3474C3.27555 21.3572 3.24979 21.3726 3.22786 21.3927C3.20594 21.4127 3.1883 21.437 3.176 21.464C3.1626 21.4904 3.15471 21.5192 3.15282 21.5487C3.15092 21.5783 3.15506 21.6079 3.16498 21.6358C3.17489 21.6636 3.19038 21.6892 3.2105 21.7109C3.23062 21.7326 3.25495 21.75 3.282 21.762L8.491 24.198C8.22148 24.2007 7.95275 24.2274 7.688 24.278L3.063 22.158C3.00824 22.134 2.9463 22.1323 2.89031 22.1532C2.83431 22.1741 2.78865 22.216 2.763 22.27C2.713 22.383 2.763 22.52 2.876 22.569L6.966 24.449C6.868 24.473 6.771 24.497 6.681 24.521C6.601 24.545 6.519 24.561 6.438 24.586L2.73 22.9C2.67512 22.8761 2.61309 22.8745 2.55707 22.8956C2.50105 22.9167 2.45547 22.9588 2.43 23.013C2.381 23.126 2.43 23.263 2.543 23.312L5.708 24.756C5.31 24.82 4.945 24.82 4.621 24.676C4.604 24.667 4.58 24.659 4.564 24.651L2.397 23.643C2.37059 23.6295 2.34172 23.6215 2.31213 23.6194C2.28255 23.6174 2.25285 23.6213 2.22482 23.631C2.1968 23.6407 2.17103 23.656 2.14907 23.676C2.1271 23.6959 2.10939 23.72 2.097 23.747C2.08146 23.777 2.07323 23.8102 2.073 23.844C2.073 23.933 2.121 24.014 2.203 24.046L4.369 25.054L4.426 25.079C4.734 25.224 4.961 25.482 5.156 25.805L2.056 24.377C2.02896 24.3642 1.99963 24.357 1.96974 24.3558C1.93986 24.3545 1.91003 24.3594 1.88204 24.3699C1.85405 24.3804 1.82847 24.3965 1.80682 24.4171C1.78516 24.4378 1.76788 24.4625 1.756 24.49C1.74313 24.5169 1.73587 24.5462 1.73467 24.576C1.73347 24.6058 1.73835 24.6356 1.74901 24.6635C1.75968 24.6913 1.7759 24.7168 1.7967 24.7382C1.8175 24.7596 1.84244 24.7765 1.87 24.788L5.513 26.466C5.553 26.546 5.594 26.636 5.635 26.724L5.805 27.079L1.659 25.175C1.60412 25.1511 1.54209 25.1495 1.48607 25.1706C1.43005 25.1917 1.38447 25.2338 1.359 25.288C1.31 25.401 1.359 25.538 1.472 25.587L6.162 27.741C6.3 27.967 6.446 28.176 6.625 28.378L1.31 25.942C1.28296 25.9292 1.25363 25.922 1.22374 25.9208C1.19386 25.9195 1.16403 25.9244 1.13604 25.9349C1.10805 25.9454 1.08247 25.9615 1.06082 25.9821C1.03916 26.0028 1.02188 26.0275 1.01 26.055C0.997099 26.0819 0.989793 26.1111 0.988524 26.1408C0.987255 26.1706 0.99205 26.2004 1.00262 26.2282C1.01318 26.2561 1.0293 26.2815 1.05 26.303C1.07069 26.3244 1.09553 26.3414 1.123 26.353L6.99 29.072C6.84506 29.1497 6.69619 29.2197 6.544 29.282L0.968999 26.684C0.942527 26.6705 0.913604 26.6626 0.883971 26.6606C0.854338 26.6586 0.82461 26.6626 0.796578 26.6724C0.768546 26.6822 0.742791 26.6976 0.720865 26.7177C0.698939 26.7377 0.681296 26.762 0.668999 26.789C0.655599 26.8154 0.647711 26.8442 0.645816 26.8737C0.643921 26.9033 0.648058 26.9329 0.657975 26.9608C0.667893 26.9886 0.683383 27.0142 0.703502 27.0359C0.72362 27.0576 0.747947 27.075 0.774999 27.087L5.935 29.499C5.805 29.539 5.667 29.58 5.513 29.62H5.335L0.498999 27.418C0.444121 27.3941 0.382085 27.3925 0.326069 27.4136C0.270052 27.4347 0.224468 27.4768 0.198999 27.531C0.148999 27.644 0.198999 27.781 0.311999 27.83L5.424 30.153C5.708 30.323 6.268 30.645 6.844 30.96C8.077 31.63 8.564 31.79 8.799 31.799C8.937 31.968 9.221 32.194 9.813 32.533C10.422 32.88 11.177 33.234 11.72 33.436C11.923 33.509 12.126 33.581 12.304 33.597C12.337 33.687 12.386 33.783 12.467 33.888C13.018 34.638 14.86 35.824 15.542 35.752C15.558 35.752 15.566 35.752 15.582 35.743C15.72 35.945 16.004 36.243 16.556 36.711C17.059 37.139 17.83 37.72 18.333 37.978C18.39 38.002 18.495 38.058 18.609 38.083C18.958 38.744 21.124 40.18 21.814 40.463C21.838 40.471 21.854 40.479 21.879 40.487C23.129 41.317 26.341 43.77 26.341 47.11C26.341 48.538 25.433 48.7 24.743 48.7C24.386 48.7 23.818 48.248 23.818 47.715V47.691C23.802 47.546 23.826 47.441 23.883 47.376C23.973 47.28 24.134 47.271 24.191 47.271C24.231 47.279 24.345 47.392 24.411 47.457C24.589 47.635 24.808 47.86 25.1 47.812C25.1943 47.8099 25.2871 47.788 25.3724 47.7477C25.4577 47.7074 25.5335 47.6496 25.595 47.578C25.757 47.384 25.822 47.11 25.773 46.812C25.773 46.804 25.773 46.795 25.765 46.779C25.498 45.909 24.759 45.819 24.402 45.779C24.345 45.771 24.289 45.763 24.256 45.755C24.24 45.747 24.224 45.747 24.199 45.747C23.631 45.747 22.082 46.247 22.082 47.852C22.049 48.756 22.99 49.514 23.899 50.256C24.759 50.95 25.652 51.676 25.595 52.41C25.433 53.725 24.922 53.766 24.378 53.806C24.305 53.814 24.24 53.814 24.175 53.822C23.955 53.846 23.688 53.749 23.453 53.564C23.201 53.362 23.031 53.08 23.007 52.814C23.007 52.806 23.007 52.797 22.998 52.789C22.966 52.66 22.958 52.483 23.048 52.362C23.0715 52.3322 23.1008 52.3075 23.1341 52.2894C23.1675 52.2714 23.2042 52.2603 23.242 52.257C23.51 52.281 23.582 52.418 23.68 52.604C23.777 52.781 23.915 53.039 24.28 52.999C24.54 52.991 24.743 52.829 24.832 52.555C24.897 52.37 24.897 52.168 24.897 52.095C24.897 51.983 24.848 50.999 23.25 50.999C21.903 50.999 21.303 52.088 21.197 53.015V53.023C21.124 54.282 22.074 54.855 22.99 55.411C23.891 55.951 24.743 56.468 24.71 57.597C24.694 58.106 24.467 58.541 24.037 58.888C23.039 59.687 21.019 59.937 18.763 59.534C13.927 58.679 11.023 56.412 9.433 54.653C7.323 52.33 6.576 49.893 6.576 48.393C6.576 47.231 6.86 46.36 7.412 45.811C7.874 45.351 8.507 45.126 9.302 45.126H9.327C9.57 45.126 10.357 45.239 10.827 45.722C11.087 45.997 11.217 46.344 11.193 46.772C11.136 48.102 10.528 48.102 10.203 48.102H10.187C10.041 48.11 9.927 48.078 9.846 48.006C9.626 47.796 9.626 47.288 9.626 47.013C9.626 46.843 9.626 46.755 9.586 46.683C9.481 46.481 9.091 46.408 8.799 46.481C8.58 46.529 8.069 46.739 8.069 47.594C8.069 48.434 8.418 49.272 8.986 49.797C9.22078 50.0115 9.4982 50.174 9.8001 50.274C10.102 50.3739 10.4216 50.409 10.738 50.377C11.858 50.321 12.783 49.917 13.408 49.224C14.098 48.457 14.3 47.497 14.26 46.852C14.26 46.062 13.822 44.408 12.661 43.27C11.809 42.44 10.746 42.036 9.505 42.06C6.025 42.06 3.875 45.15 3.801 48.135C3.801 49.515 4.986 53.919 8.515 58.025C10.4709 60.3119 12.884 62.164 15.599 63.462C18.893 65.035 22.69 65.834 26.885 65.834C31.08 65.834 34.877 65.035 38.171 63.462C40.8876 62.1667 43.3013 60.3143 45.255 58.025C48.776 53.911 49.969 49.506 49.969 48.127C49.896 45.142 47.746 42.06 44.273 42.06C43.023 42.036 41.961 42.44 41.109 43.27C39.949 44.4 39.51 46.061 39.51 46.852C39.47 47.497 39.68 48.457 40.362 49.224C40.995 49.926 41.92 50.321 43.032 50.377C43.705 50.434 44.322 50.232 44.792 49.797C45.36 49.28 45.709 48.433 45.709 47.594C45.709 46.747 45.199 46.537 44.987 46.481C44.695 46.416 44.306 46.481 44.2 46.682C44.16 46.755 44.16 46.844 44.16 47.013C44.16 47.288 44.16 47.803 43.94 48.006C43.86 48.078 43.754 48.11 43.6 48.102H43.583C43.259 48.102 42.65 48.102 42.593 46.772C42.577 46.344 42.699 45.997 42.959 45.722C43.429 45.23 44.224 45.126 44.459 45.126H44.492C45.279 45.126 45.912 45.359 46.367 45.811C46.927 46.36 47.202 47.231 47.202 48.393C47.202 49.893 46.448 52.33 44.346 54.653C42.756 56.403 39.851 58.679 35.016 59.533C32.76 59.937 30.739 59.687 29.741 58.888C29.311 58.541 29.084 58.106 29.068 57.598C29.035 56.468 29.888 55.952 30.788 55.411C31.705 54.855 32.662 54.281 32.581 53.023V53.015C32.475 52.088 31.875 50.998 30.528 50.998C28.93 50.998 28.881 51.983 28.881 52.096C28.881 52.886 29.303 52.991 29.498 52.991C29.863 53.031 30.001 52.773 30.098 52.596C30.196 52.41 30.268 52.281 30.536 52.249C30.585 52.249 30.666 52.281 30.731 52.354C30.828 52.474 30.812 52.652 30.78 52.781C30.78 52.789 30.78 52.798 30.772 52.806C30.747 53.072 30.577 53.354 30.325 53.556C30.098 53.741 29.83 53.838 29.603 53.814C29.5357 53.8047 29.4679 53.7993 29.4 53.798C28.857 53.758 28.346 53.718 28.183 52.402C28.127 51.668 29.019 50.95 29.879 50.248C30.788 49.514 31.729 48.748 31.697 47.844C31.697 46.239 30.139 45.739 29.579 45.739C29.563 45.739 29.539 45.739 29.522 45.747C29.4737 45.757 29.425 45.765 29.376 45.771C29.019 45.811 28.281 45.908 28.013 46.771C28.013 46.779 28.005 46.787 28.005 46.803C27.956 47.094 28.021 47.376 28.183 47.57C28.313 47.715 28.483 47.804 28.678 47.812C28.97 47.86 29.189 47.635 29.368 47.457C29.433 47.392 29.538 47.287 29.578 47.271C29.644 47.271 29.814 47.279 29.895 47.376C29.952 47.441 29.976 47.546 29.96 47.691V47.715C29.96 48.248 29.392 48.699 29.035 48.699C28.345 48.699 27.437 48.538 27.437 47.11C27.437 45.384 28.175 43.754 29.627 42.278C30.3518 41.5507 31.1707 40.9238 32.062 40.414C32.142 40.374 32.232 40.326 32.338 40.269C32.354 40.261 32.362 40.261 32.378 40.253C32.3961 40.2452 32.4126 40.2344 32.427 40.221C33.336 39.704 34.885 38.623 35.177 38.075C35.291 38.051 35.397 37.995 35.461 37.97C35.883 37.76 36.581 37.268 37.238 36.703C37.79 36.235 38.074 35.937 38.212 35.735C38.415 35.768 38.699 35.703 39.056 35.542C39.786 35.219 41.23 34.283 41.482 33.589C41.652 33.573 41.863 33.501 42.074 33.429C42.7317 33.1765 43.3692 32.8743 43.981 32.525C44.565 32.185 44.857 31.96 44.995 31.791C45.231 31.782 45.709 31.621 46.951 30.951C47.4288 30.6903 47.9022 30.4216 48.371 30.145L53.482 27.821C53.5116 27.8132 53.5391 27.7991 53.5627 27.7796C53.5863 27.7601 53.6053 27.7357 53.6184 27.7081C53.6316 27.6805 53.6385 27.6503 53.6388 27.6197C53.6391 27.5891 53.6326 27.5588 53.62 27.531Z"/>
</g>
<defs>
<clipPath id="clip0_1_24">
<rect width="54" height="66" fill="white"/>
</clipPath>
</defs>
</svg>
