<svg width="39" height="62" viewBox="0 0 39 62" xmlns="http://www.w3.org/2000/svg">
<g clip-path="url(#clip0_1_91)">
<path d="M24.352 0.817993H14.782L19.568 6.39599L24.352 0.817993Z"/>
<path d="M37.68 0.817993H28.246L19.566 10.439L10.889 0.819993H1.45398L19.567 20.076L37.68 0.817993Z"/>
<path d="M29.001 24.878L33.786 29.696L38.435 24.878L29.001 15.258L19.567 24.878L10.133 15.258L0.700012 24.877L5.22901 29.695L10.134 24.877L14.784 29.695L1.45401 43.253L19.568 61.613L37.681 43.253L24.353 29.695L29.002 24.877L29.001 24.878ZM28.246 43.254L19.567 51.994L10.887 43.254L19.567 34.514L28.246 43.254Z"/>
<path d="M19.57 37.664L14.031 43.242L19.571 48.82L25.11 43.242L19.57 37.664Z"/>
</g>
<defs>
<clipPath id="clip0_1_91">
<rect width="39" height="62" fill="white"/>
</clipPath>
</defs>
</svg>
