<svg width="53" height="65" viewBox="0 0 53 65" xmlns="http://www.w3.org/2000/svg">
<g clip-path="url(#clip0_1_197)">
<path d="M7.34203 61.084C-1.74897 52.682 -1.07997 44.02 2.32403 35.766C4.63803 30.21 9.11803 25.61 12.1 20.33L12.23 19.923C13.99 16.673 15.619 13.147 15.619 10.71C16.026 6.647 11.676 6.111 11.676 6.111C10.177 5.981 8.41703 6.111 7.47203 5.835C7.34203 5.022 8.56403 4.486 9.37903 4.21C10.063 3.934 11.415 3.674 12.099 3.397C12.914 2.991 14.006 0.684 16.449 0.684C20.93 0.814 21.207 5.152 21.207 5.152C22.152 8.808 17.411 18.965 17.411 18.965C17.281 19.241 16.727 20.46 16.727 20.46C14.413 26.96 10.34 34.808 12.247 40.902L12.377 41.308C18.209 38.595 13.321 32.778 18.079 28.991C21.207 26.553 30.429 20.053 33.149 16.527L33.426 16.121C37.776 11.115 41.98 5.557 45.516 0C47.275 2.308 46.053 5.411 46.2 7.995L46.33 8.531C47.552 7.995 49.181 5.411 49.181 5.411C49.865 8.531 47.829 11.635 47.421 14.755L49.181 12.724V14.219C49.311 17.063 46.607 19.5 46.053 22.214L48.367 19.906V21.255C48.644 23.823 45.923 25.724 45.385 28.031L46.737 26.943V28.161C47.014 30.469 44.293 32.224 43.348 34.255L42.257 35.344L44.163 34.661L43.626 35.75C43.088 37.651 40.644 38.594 39.683 40.349L41.589 39.536L41.182 40.625C40.905 42.526 37.792 44.688 37.792 44.818C37.923 44.948 39.015 44.135 39.015 44.135C46.884 39.536 52.456 33.166 52.863 33.296C53.401 33.426 52.179 36.416 52.179 36.416C52.586 36.693 50.549 40.609 50.827 41.015C51.104 41.421 48.92 44.671 49.067 44.947C49.197 45.354 47.307 48.474 45.939 50.099C41.866 56.063 35.072 61.75 24.352 64.594C23.944 64.594 22.315 65 20.278 65H19.464C15.1596 64.728 10.992 63.3817 7.34203 61.084Z"/>
</g>
<defs>
<clipPath id="clip0_1_197">
<rect width="53" height="65" fill="white"/>
</clipPath>
</defs>
</svg>
