<svg width="74" height="54" viewBox="0 0 74 54" xmlns="http://www.w3.org/2000/svg">
<g clip-path="url(#clip0_1_102)">
<path d="M72.833 37.544V37.454C72.553 37.364 70.4 35.853 70.03 33.226C69.559 30.408 68.628 27.026 67.137 24.579C65.735 22.415 63.963 22.133 63.021 22.133H62.741C61.182 22.234 60.173 22.697 59.579 23.069C59.1709 22.5362 58.6918 22.0618 58.155 21.659C57.033 20.724 55.262 19.879 52.739 19.777H52.369C49.935 19.777 48.253 20.532 46.571 21.186C44.799 21.941 43.207 22.596 40.875 22.596H40.505C38.071 22.505 36.58 22.031 35.649 21.468C35.4544 21.3676 35.2736 21.2425 35.111 21.096H35.279C35.559 21.096 35.75 21.096 35.929 21.186C36.019 21.276 36.209 21.378 36.49 21.378H36.68C38.172 21.096 38.643 20.442 38.643 20.34L38.833 20.058L38.463 20.148C38.463 20.148 38.273 20.238 37.993 20.34C37.803 20.34 37.522 20.43 37.343 20.43H37.253C37.063 20.34 36.603 20.058 36.131 19.867C35.851 19.675 35.661 19.585 35.481 19.495C35.201 19.405 35.011 19.405 34.831 19.405C34.5801 19.4462 34.3327 19.5064 34.091 19.585C34.0247 19.4307 33.9682 19.2724 33.922 19.111C34.1577 19.0584 34.3985 19.0322 34.64 19.033H34.73C35.1 19.033 35.29 19.123 35.57 19.314C35.761 19.404 36.131 19.506 36.501 19.506H36.692C37.163 19.506 37.533 19.224 37.813 19.033C38.093 18.841 38.183 18.661 38.284 18.559L38.004 18.469V18.379C38.004 18.469 37.814 18.57 37.164 18.661C36.793 18.661 36.513 18.379 36.131 18.187C35.761 17.905 35.381 17.623 34.921 17.533H34.73C34.382 17.533 34 17.613 33.71 17.703C33.71 17.578 33.698 17.454 33.698 17.342V17.274C33.978 17.172 34.326 17.06 34.628 17.06C34.909 17.06 35.19 17.15 35.38 17.342C35.66 17.432 35.94 17.533 36.412 17.533H36.502C36.872 17.533 37.342 17.342 37.622 17.161C37.903 16.97 38.094 16.789 38.094 16.789L38.004 16.507C37.914 16.597 37.534 16.699 37.164 16.699C37.074 16.699 36.883 16.609 36.793 16.507C36.323 16.225 35.582 15.572 34.741 15.572C34.326 15.572 33.967 15.639 33.676 15.718C33.6626 15.6242 33.6513 15.5302 33.642 15.436C33.934 15.357 34.282 15.29 34.562 15.29C34.932 15.29 35.122 15.38 35.402 15.482C35.682 15.572 35.963 15.673 36.434 15.673H36.524C37.275 15.583 37.734 15.391 38.015 15.2C38.205 15.008 38.295 14.828 38.385 14.726L38.475 14.444L38.105 14.534L38.015 14.624C37.825 14.624 37.455 14.816 37.175 14.816H37.085C36.805 14.726 36.333 14.444 35.873 14.162C35.313 13.971 34.842 13.689 34.472 13.689H34.382C34.057 13.723 33.754 13.847 33.485 13.982C33.474 13.915 33.474 13.847 33.463 13.779C33.8221 13.6644 34.1961 13.6038 34.573 13.599C35.133 13.599 35.604 13.689 36.064 13.689C36.344 13.689 36.624 13.689 36.905 13.599C37.657 13.407 38.116 12.844 38.116 12.844L38.396 12.37L37.926 12.562L37.836 12.652C37.746 12.652 37.365 12.742 37.085 12.742C36.995 12.742 36.805 12.742 36.524 12.652C36.244 12.562 35.773 12.46 35.403 12.28C35.033 12.19 34.651 12.088 34.371 12.088C34.001 12.088 33.62 12.178 33.25 12.28C33.238 12.28 33.238 12.28 33.227 12.291L33.16 11.987C33.451 11.874 33.821 11.717 34.09 11.717H34.18C34.37 11.717 34.46 11.807 34.651 11.807C34.841 11.897 35.122 11.897 35.492 11.897H35.682C36.524 11.897 36.995 11.615 37.275 11.423C37.555 11.141 37.645 10.95 37.645 10.859L37.735 10.578L37.455 10.668C37.365 10.758 36.984 10.859 36.524 10.859C36.334 10.859 36.154 10.859 35.964 10.769C35.683 10.679 35.212 10.487 34.842 10.397C34.4964 10.2142 34.1119 10.1175 33.721 10.115H33.631C33.272 10.16 32.991 10.262 32.767 10.375C32.722 10.217 32.677 10.048 32.633 9.88999C32.823 9.79999 33.07 9.73199 33.35 9.73199H34C34.09 9.82199 34.281 9.82199 34.472 9.82199H34.562C35.492 9.73199 36.052 9.34899 36.434 8.97699C36.658 8.75099 36.782 8.55999 36.849 8.43599C36.8681 8.42952 36.8868 8.42184 36.905 8.41299L36.883 8.36799C36.893 8.33399 36.905 8.31199 36.905 8.31199L37.095 7.93999L36.725 8.13099H36.636C36.356 8.32299 35.885 8.50299 35.515 8.60499H35.425C35.235 8.60499 34.865 8.51499 34.495 8.32299C34.125 8.23299 33.653 8.04099 33.283 8.04099H33.193C32.8151 8.0894 32.4431 8.17652 32.083 8.30099C32.027 8.17599 31.96 8.05199 31.903 7.92799C32.005 7.90599 32.128 7.87199 32.263 7.86099H32.453C32.733 7.86099 33.014 7.95099 33.294 7.95099C33.574 7.95099 33.944 7.86099 34.416 7.66899C34.8968 7.51397 35.2987 7.17842 35.537 6.73299C35.817 6.36099 35.907 6.07899 35.907 5.97799L36.097 5.60599L35.727 5.88799H35.548C35.458 5.97799 34.708 6.36099 34.057 6.45099C33.967 6.54099 33.867 6.54099 33.777 6.54099C33.497 6.54099 33.306 6.45099 33.025 6.34999C32.745 6.25999 32.465 6.15799 32.095 6.15799H32.005C31.567 6.15799 31.209 6.32799 30.94 6.49599C30.884 6.41799 30.816 6.33899 30.749 6.25999C30.839 6.22599 30.939 6.19199 31.063 6.14699C31.433 5.95499 31.713 5.95499 31.993 5.95499C32.363 5.86499 32.644 5.86499 33.115 5.76399C33.6405 5.54755 34.095 5.18833 34.427 4.72699C34.707 4.35499 34.707 4.07299 34.707 4.07299L34.897 3.59899L34.527 3.88099H34.427C34.337 3.97099 34.147 4.16299 33.867 4.35499C33.497 4.54599 33.216 4.72699 32.835 4.72699H32.555C31.994 4.72699 31.713 4.63699 31.343 4.63699C31.153 4.63699 30.873 4.63699 30.592 4.72699C30.402 4.72699 30.222 4.72699 30.121 4.81699C30.031 4.81699 29.841 4.90699 29.841 5.00799C29.751 5.05299 29.661 5.09799 29.561 5.14399C29.403 5.03099 29.246 4.91799 29.089 4.81699C29.067 4.80499 29.056 4.79399 29.033 4.78299C29.168 4.70399 29.493 4.61299 29.74 4.53499C30.11 4.44499 30.491 4.34299 30.861 4.34299C31.141 4.25299 31.421 4.15199 31.612 3.97099C32.173 3.31699 32.364 2.47099 32.364 2.47099L32.274 2.38099L32.184 2.31399C32.174 2.32499 32.139 2.35899 32.106 2.40399H32.095V2.41499C31.904 2.64099 31.489 3.09199 30.884 3.24999H30.413C30.043 3.24999 29.572 3.15999 29.101 3.15999C28.63 3.15999 28.17 3.24999 27.789 3.53199C27.519 3.76799 27.351 3.98199 27.262 4.17399C27.0018 4.11785 26.74 4.06917 26.477 4.02799C26.645 3.76799 26.892 3.56499 27.127 3.44099C27.598 3.15999 28.057 3.06899 28.338 2.87799C28.528 2.87799 28.708 2.68599 28.809 2.50599C29.123 2.03199 29.369 1.43499 29.437 1.19799H29.459L29.449 1.18699C29.459 1.15299 29.459 1.11899 29.459 1.10699L29.65 0.63399L29.18 1.00599C28.988 1.19799 28.618 1.47999 28.248 1.65999C27.778 1.94199 27.318 2.22399 27.038 2.22399C26.566 2.31399 26.006 2.41499 25.636 2.59599C25.165 2.78799 24.795 3.06899 24.604 3.44099C24.526 3.63299 24.481 3.79099 24.458 3.92599C24.1615 3.94885 23.8659 3.98288 23.572 4.02799C23.606 3.95999 23.64 3.89199 23.673 3.81299C24.055 3.35099 24.896 2.59599 25.456 2.31399C25.736 2.12199 25.826 1.84099 25.927 1.55899C26.017 1.36699 26.117 1.08499 26.117 0.90499C26.117 0.62299 26.028 0.43099 26.028 0.43099L25.928 0.0589905L25.736 0.43099C25.736 0.52099 25.266 1.46899 24.144 2.12199C24.054 2.21199 23.864 2.31399 23.584 2.40399C23.214 2.49399 22.832 2.68599 22.462 2.87799C21.992 3.15999 21.711 3.53199 21.431 4.09499C21.3804 4.24838 21.3502 4.40774 21.341 4.56899C21.117 4.63599 20.892 4.71499 20.679 4.79399V4.74999C20.589 4.65999 20.679 4.55799 20.769 4.37799C21.049 3.90499 21.699 3.16099 22.081 2.87799C22.271 2.78799 22.361 2.59699 22.451 2.31499C22.731 1.75099 22.821 0.81499 22.821 0.81499V0.34199L22.541 0.71399C22.541 0.71399 22.451 0.80399 22.351 0.99599C22.159 1.18799 21.879 1.55999 21.599 1.93199C21.319 2.21399 21.039 2.49499 20.949 2.68699C20.669 2.87899 20.107 3.16099 19.547 3.62299C19.076 3.99499 18.515 4.55799 18.425 5.22299C18.358 5.49399 18.291 5.70799 18.257 5.88899C18.111 5.94499 17.988 6.01299 17.865 6.06899C17.809 6.06899 17.753 6.10299 17.708 6.12499C17.718 6.03499 17.741 5.92299 17.775 5.78699C17.775 5.41499 17.965 5.22399 18.055 4.94199C18.335 4.56999 18.705 4.28799 19.087 3.90499C19.367 3.53299 19.647 2.96899 19.647 2.21399H19.367C19.367 2.30399 19.277 2.40499 19.177 2.49499C19.087 2.77699 18.807 2.96899 18.425 3.14899C17.955 3.52099 17.394 3.90499 16.833 4.27699C16.643 4.46799 16.363 4.64899 16.183 4.92999C16.093 5.12199 15.992 5.30299 15.992 5.58399C15.992 5.89999 16.037 6.17099 16.093 6.38399C16.026 6.39599 15.958 6.40699 15.903 6.42999C15.431 6.42999 15.151 6.42999 14.871 6.51999C14.781 6.51999 14.591 6.71199 14.4 6.80199C13.929 7.17399 13.278 7.83899 13.278 7.83899H13.188V8.14299C13.278 8.14299 13.379 8.23299 13.558 8.33499C13.648 8.33499 13.928 8.42499 14.209 8.42499H14.321C14.0752 8.5501 13.8486 8.70972 13.648 8.89899L13.368 9.18099C13.278 9.37199 13.178 9.46199 13.178 9.55299V9.64299L13.458 9.92499H13.738C14.108 9.92499 14.579 9.83499 15.05 9.64299C15.072 9.63199 15.095 9.63199 15.117 9.61999L14.209 15.742C14.209 15.742 14.019 16.587 13.839 17.432C13.749 17.906 13.649 18.368 13.559 18.65C13.559 18.842 13.559 19.022 13.469 19.124V19.315C13.279 19.597 12.998 19.879 12.998 20.353V20.443C12.998 20.635 13.088 20.725 13.188 20.916C13.469 21.288 13.94 21.57 13.94 21.57L14.22 21.852C14.31 22.044 14.5 22.224 14.691 22.224H14.781C14.971 22.224 15.151 22.134 15.341 22.032C15.532 21.931 15.622 21.751 15.711 21.559C15.711 21.469 15.801 21.367 15.801 21.277C15.891 20.995 15.891 20.804 15.992 20.522C16.082 20.33 16.082 20.15 16.182 20.048C16.182 19.958 16.272 19.857 16.373 19.766C16.373 19.766 16.463 19.676 16.563 19.676V19.856C16.474 19.946 16.474 20.048 16.373 20.138C16.373 20.228 16.283 20.42 16.283 20.612C16.283 20.804 16.193 21.085 16.193 21.266C16.193 21.457 16.193 21.548 16.283 21.739C16.283 21.829 16.373 21.931 16.563 22.021C16.653 22.111 16.755 22.111 16.755 22.111C16.945 22.111 17.035 22.021 17.125 22.021C17.405 21.829 17.495 21.457 17.595 21.367C17.595 21.277 17.685 21.176 17.685 21.085C17.775 20.713 17.965 19.868 18.245 19.022C18.437 18.65 18.526 18.267 18.616 17.895C18.806 17.613 18.896 17.422 18.986 17.331C19.266 17.05 19.546 16.959 19.916 16.768C20.286 16.486 20.758 16.114 21.318 15.268C21.879 14.513 21.968 13.668 21.968 12.923C21.968 12.585 21.935 12.293 21.901 12.044C22.171 12.495 22.529 13.273 22.529 14.242V15.933C22.439 16.215 22.439 16.407 22.339 16.689C22.249 17.162 21.498 19.699 21.218 20.353C21.128 20.635 20.938 21.108 20.747 21.48C20.724 21.525 20.713 21.57 20.691 21.615C20.59 21.695 20.477 21.773 20.377 21.852C18.784 23.07 17.102 25.234 17.102 28.526C17.102 29.214 17.169 29.958 17.315 30.746L17.293 30.781L17.315 30.791C17.147 30.814 16.687 30.893 16.171 30.972C15.421 31.164 14.681 31.344 14.299 31.536C13.929 31.626 12.987 32.1 12.146 32.573C11.675 32.765 11.305 33.047 10.935 33.137C10.845 33.227 10.655 33.328 10.565 33.328C10.475 33.418 10.375 33.418 10.375 33.418C10.184 33.508 10.004 33.61 9.72399 33.61H9.35399C8.98399 33.61 8.23199 33.7 7.39099 34.456C6.63999 35.11 6.26999 36.146 6.07899 36.902C5.98899 37.274 5.60899 38.12 5.23899 38.965C4.86899 39.811 4.39699 40.566 4.11699 40.848C3.83699 41.22 3.36599 41.693 2.99599 42.167C2.80499 42.449 2.62599 42.64 2.43499 42.922C2.24499 43.114 2.15499 43.294 2.15499 43.486V43.576C2.15499 43.768 2.24499 43.948 2.24499 44.049C2.33399 44.139 2.33399 44.241 2.33399 44.331C2.33399 44.421 2.33399 44.421 2.24399 44.523C2.15399 44.715 1.96399 44.895 1.77399 45.278C1.58299 45.56 1.30199 46.034 1.21299 46.688C1.12299 46.947 1.12299 47.218 1.04399 47.477C1.03399 47.499 1.03399 47.533 1.03399 47.533C0.842991 48.853 0.752991 49.788 0.752991 49.788C0.752991 49.878 0.842991 49.878 0.842991 49.979H1.03299L4.48699 47.071C4.57699 46.981 4.57699 46.879 4.48699 46.879L4.20699 46.225L4.16199 46.18L4.11699 46.034L4.10599 46.044C4.08299 45.944 4.02699 45.786 4.02699 45.572C4.02699 45.29 4.11699 45.008 4.30699 44.726L4.67699 44.354H5.03699L5.12699 44.444C5.31699 44.534 5.40699 44.726 5.49699 44.816C5.58599 44.816 5.58599 44.906 5.58599 44.906L5.67599 44.996L5.95599 45.369L5.86599 44.151L5.95599 44.433L6.23599 44.343V43.587L6.42599 43.869H6.70699V43.689C6.70699 43.215 6.79699 41.806 7.73899 39.935C8.85999 37.59 10.262 36.835 10.542 36.643C10.732 36.553 11.013 36.361 11.574 36.169C12.224 35.887 13.065 35.696 14.187 35.696H14.377C17.181 35.696 18.493 35.222 18.582 35.222L18.572 35.212L18.627 35.2C18.549 35.38 18.47 35.538 18.392 35.696C18.302 35.887 18.202 35.978 18.112 36.068V36.248H18.022V36.338C18.032 36.35 18.044 36.361 18.055 36.372C17.955 36.575 17.797 36.88 17.652 37.184C17.461 37.556 17.282 37.939 17.091 38.03C17.001 38.311 16.62 38.875 16.34 39.439C15.97 39.912 15.69 40.476 15.69 40.476C15.69 40.476 15.6 40.566 15.6 40.758C15.51 41.04 15.409 41.321 15.409 41.603V41.795C15.499 42.077 15.689 42.268 15.969 42.449C16.339 42.731 16.721 42.922 17.181 43.012C17.551 43.102 17.932 43.102 18.111 43.102C18.111 43.102 18.391 43.102 18.761 43.192C19.233 43.192 19.883 43.282 20.444 43.384C21.004 43.474 21.565 43.576 21.654 43.576C21.935 43.666 23.146 44.049 24.268 44.422C24.828 44.512 25.388 44.703 25.86 44.794C26.05 44.884 26.23 44.985 26.42 44.985C26.51 44.985 26.7 45.075 26.7 45.075C26.892 45.075 27.07 44.985 27.172 44.884C27.362 44.794 27.642 44.692 27.822 44.512C28.102 44.422 28.293 44.32 28.472 44.32C28.652 44.32 28.842 44.41 28.944 44.512C29.134 44.602 29.314 44.703 29.594 44.703H29.684C29.874 44.703 30.154 44.512 30.334 44.422C30.614 44.23 30.894 43.948 31.175 43.768C31.545 43.396 32.016 43.012 32.207 42.922C32.397 42.731 32.857 42.55 33.137 42.449C33.328 42.359 33.417 42.257 33.608 42.257C33.698 42.167 33.799 42.167 33.799 42.167L33.889 42.077C33.889 41.987 33.799 41.885 33.799 41.885L30.031 40.645C30.031 40.555 29.941 40.645 29.841 40.645C29.841 40.645 29.751 40.837 29.65 41.118C29.516 41.254 29.38 41.434 29.28 41.592L29.269 41.581L29.179 41.772C29.089 41.772 29.089 41.862 29.089 41.862L28.999 41.952C28.91 41.952 28.719 42.144 28.529 42.144C28.439 42.144 28.339 42.054 28.339 42.054C28.339 41.964 28.339 41.863 28.428 41.772C28.428 41.581 28.618 41.4 28.708 41.209C28.708 41.119 28.798 41.017 28.798 41.017V40.927L28.708 40.837L28.618 40.747L27.688 41.4L27.968 40.837L27.878 40.747L27.788 40.657L27.755 40.69L27.699 40.645L27.632 40.78C27.4799 40.9069 27.3142 41.0166 27.138 41.107C27.048 41.299 26.858 41.389 26.668 41.479C26.578 41.569 26.387 41.671 26.387 41.761C26.297 41.761 26.197 41.851 26.107 41.851C26.017 41.851 25.827 41.941 25.546 41.941C25.266 41.941 24.896 41.851 24.335 41.75C23.494 41.66 22.283 41.558 21.251 41.276C20.691 41.186 20.219 41.085 19.849 40.904C19.759 40.814 19.569 40.814 19.479 40.713C19.389 40.623 19.389 40.623 19.389 40.521L19.58 40.329C19.86 39.856 20.511 39.292 21.173 38.639C21.924 37.984 22.664 37.421 23.045 36.947C23.348 36.643 23.729 36.215 24.122 35.718C25.804 36.372 28.349 37.116 31.646 37.409C31.926 37.499 32.117 37.499 32.397 37.499C34.36 37.499 36.232 37.026 36.232 37.026C36.232 37.026 36.703 36.835 37.544 36.654C38.755 36.282 40.718 35.718 42.4 35.335C42.456 35.324 42.5 35.313 42.557 35.301L42.59 35.335C42.781 35.527 43.24 36.09 43.622 36.835C44.093 37.488 44.373 38.435 44.373 39.179V39.551C44.283 40.487 43.903 41.152 43.533 41.615L42.972 42.178C42.882 42.268 42.692 42.37 42.602 42.46C41.2 44.06 39.608 45.368 38.486 46.315C37.926 46.789 37.365 47.251 36.995 47.533L36.625 47.905C36.435 47.995 36.435 48.097 36.345 48.187C36.255 48.379 36.255 48.66 36.154 48.942C36.154 49.224 36.154 49.416 35.964 49.698C35.874 49.788 35.773 49.979 35.594 50.171C35.313 50.363 34.943 50.645 34.663 50.825C34.472 51.017 34.383 51.017 34.293 51.107L34.203 51.197H34.113L34.079 51.332L32.891 53.08C32.801 53.17 32.801 53.271 32.891 53.271C32.891 53.361 32.891 53.361 32.981 53.361L36.905 52.708C36.995 52.708 37.095 52.618 37.095 52.618C37.095 52.618 37.095 52.336 37.185 52.054C37.185 51.772 37.275 51.4 37.275 51.118C37.275 51.028 37.365 50.836 37.365 50.746V50.554C37.455 50.464 37.455 50.273 37.555 50.182C37.657 50.092 37.746 49.991 37.925 49.991C37.925 49.991 38.015 49.991 38.015 50.081C38.105 50.171 38.205 50.453 38.295 50.645V50.926H38.676V49.799L38.867 50.453L39.147 50.363C39.147 50.363 39.237 49.991 39.339 49.607C39.339 49.235 39.429 48.762 39.529 48.57C39.529 48.379 39.719 48.198 39.899 48.006C40.089 47.916 40.269 47.725 40.37 47.634C40.37 47.634 40.46 47.544 40.56 47.544C41.032 47.071 43.084 45.662 44.956 44.444C45.887 43.79 46.829 43.125 47.479 42.663C48.129 42.189 48.601 41.908 48.601 41.908C48.601 41.908 48.881 41.716 49.161 41.536C49.251 41.446 49.441 41.344 49.531 41.254C49.621 41.164 49.722 41.164 49.722 41.062C49.812 40.972 49.812 40.972 49.812 40.87L49.902 40.78C49.902 40.69 49.812 40.69 49.812 40.589C49.722 40.307 49.442 39.833 49.252 39.269C48.9555 38.7541 48.7932 38.173 48.78 37.579V37.489C48.8656 36.8356 49.0546 36.2 49.34 35.606C49.43 35.414 49.531 35.234 49.621 35.042C49.621 34.952 49.711 34.952 49.711 34.862C50.406 35.358 51.101 35.832 51.763 36.26C53.165 37.015 54.376 37.759 55.407 38.323C56.439 38.886 57.179 39.258 57.459 39.642C57.829 40.014 58.109 40.397 58.211 40.577C58.301 40.859 58.301 41.051 58.301 41.333V41.524C58.301 41.524 58.301 41.614 58.211 41.806C58.121 42.46 57.841 43.689 57.651 44.816C57.459 45.38 57.37 45.944 57.28 46.417C57.19 46.891 57.09 47.263 57.09 47.544C57.09 47.634 57.09 47.736 57.18 47.826L57.19 47.815C57.303 48.322 57.65 48.593 57.92 48.773C58.11 48.965 58.29 49.055 58.39 49.145C58.48 49.235 58.58 49.337 58.58 49.427C58.771 49.709 58.771 50.081 58.861 50.363C58.861 50.735 58.951 51.017 59.141 51.298C59.141 51.388 59.231 51.49 59.332 51.49C59.522 51.772 59.982 52.054 60.453 52.336C61.1651 52.7222 61.8828 53.0979 62.606 53.463H62.797V53.271L62.237 48.953C62.237 48.863 62.147 48.863 62.046 48.863H61.856C61.766 48.863 61.486 48.863 61.205 48.773C60.925 48.773 60.645 48.683 60.364 48.582C60.174 48.39 60.084 48.3 59.994 48.018C59.994 47.928 60.084 47.928 60.084 47.826C60.084 47.736 60.274 47.736 60.364 47.634H61.486L61.575 47.443L61.485 47.363V47.409H61.474L60.924 46.936L61.44 47.014C61.53 47.037 61.575 47.037 61.575 47.037V46.755L61.507 46.744C61.3207 46.7017 61.1499 46.6082 61.014 46.474C60.824 46.192 60.544 45.718 60.454 44.782V44.692C60.454 43.655 60.734 42.437 61.104 41.4C61.294 40.927 61.384 40.465 61.574 40.081C61.664 39.799 61.765 39.518 61.765 39.427C61.855 39.236 62.045 38.773 62.045 38.39C62.045 38.199 62.045 38.108 61.956 37.917C61.866 37.827 61.766 37.725 61.586 37.635C61.396 37.635 61.115 37.545 60.835 37.545H60.364C60.174 37.455 59.893 37.455 59.612 37.263C59.332 36.981 59.052 36.508 58.962 35.662V35.47C58.962 34.625 59.433 33.497 59.892 32.088C60.262 30.769 60.734 29.18 60.734 27.488V27.015C60.644 25.888 60.544 25.235 60.454 24.851C60.4243 24.7258 60.3903 24.6018 60.352 24.479H60.554C61.025 24.479 61.586 24.479 62.046 24.761C62.696 24.952 63.167 25.516 63.537 26.17C63.907 26.824 64.187 27.579 64.187 28.233C64.187 28.887 64.378 30.488 64.659 32.269C64.939 33.959 65.409 35.651 65.869 36.688C66.341 37.534 66.8 38.007 67.271 38.188C67.742 38.469 68.201 38.559 68.673 38.559C68.863 38.559 69.143 38.469 69.323 38.469C69.794 38.469 70.635 38.277 71.375 38.097C72.216 37.906 72.867 37.815 72.867 37.725H73.147L72.833 37.544Z"/>
</g>
<defs>
<clipPath id="clip0_1_102">
<rect width="74" height="54" fill="white"/>
</clipPath>
</defs>
</svg>
