<svg width="75" height="67" viewBox="0 0 75 67" xmlns="http://www.w3.org/2000/svg">
<g clip-path="url(#clip0_1_104)">
<path d="M64.695 37.136C64.38 37.241 63.117 37.452 61.998 37.624C62.038 37.268 61.814 36.99 61.275 36.766C60.906 36.581 60.183 37.136 59.657 37.136C59.485 37.136 60.025 36.581 59.841 36.039C59.591 35.669 58.854 35.802 58.288 36.039C58.38 35.696 58.315 35.313 57.854 35.313C57.67 35.313 57.67 35.313 57.486 35.498C57.301 35.128 57.117 34.402 56.591 34.402C56.038 34.402 56.223 35.498 56.038 35.498C55.67 35.128 55.328 35.128 55.328 35.854C55.328 35.974 55.368 36.105 55.433 36.224C55.131 36.634 54.881 37.136 54.42 37.479C54.512 37.703 54.591 37.941 54.683 38.205H54.604C54.381 38.205 54.144 38.219 53.907 38.245C53.7675 38.1903 53.635 38.1195 53.512 38.034C53.331 38.1275 53.1592 38.238 52.999 38.364H52.986C52.526 37.545 51.434 36.37 51.17 35.854C51.078 35.59 50.723 34.864 50.381 34.137L51.171 34.243L51.894 33.873L52.618 33.319H53.341L53.881 33.147L53.71 32.777L53.341 32.407L54.065 32.236L54.42 31.866L54.788 31.496L54.42 31.126H53.525L53.894 30.954L55.157 30.584L55.881 30.4L56.775 30.228V30.043L56.235 29.871L55.683 30.043H54.788L54.973 29.686L54.42 29.502L54.973 29.33L55.513 29.145C55.143 28.973 54.789 28.775 54.789 28.775L55.512 28.419L56.407 28.049L55.275 27.719C55.288 27.705 55.315 27.692 55.328 27.679C55.683 27.851 56.223 27.494 56.407 27.309C56.591 27.124 56.947 26.768 57.301 26.583C58.393 26.213 58.209 26.583 58.393 27.309C58.762 27.851 57.499 29.845 57.13 30.202C56.59 30.743 58.025 31.642 59.117 31.298C60.012 31.113 61.275 30.017 61.275 28.748C61.275 28.036 60.906 25.5 60.38 25.5C61.459 25.5 60.551 25.671 61.275 26.041C61.815 26.411 61.998 26.768 61.998 27.481C61.998 27.111 62.538 26.939 62.538 26.583C62.538 25.685 62.906 26.411 62.906 27.124C62.906 27.851 62.366 29.674 62.011 29.845C61.459 30.571 60.919 31.655 61.288 32.195C61.828 33.464 64.893 32.909 65.261 31.469C65.261 30.928 65.971 30.017 65.971 29.303V27.481L66.156 26.939C66.326 26.939 66.156 27.481 66.156 27.666C66.326 28.207 66.879 28.934 66.524 29.66C66.156 30.202 66.156 31.1 66.156 31.641C66.156 32.737 67.958 32.011 67.958 32.011C68.511 32.011 69.406 31.298 69.406 30.928C69.406 30.017 70.129 30.373 70.129 29.832C70.669 25.843 67.235 21.142 63.275 21.142C62.551 21.142 61.288 20.6 60.933 20.415C60.564 19.873 59.13 20.785 59.13 19.688C59.13 19.332 56.96 18.248 56.604 18.248C56.38 18.248 56.184 18.222 56.012 18.183L56.604 15.356L56.236 14.088L56.052 13.547L55.512 14.088L55.144 14.815V13.903L55.328 12.094V10.998C55.144 10.826 54.959 10.641 54.959 10.641L54.591 10.998L54.223 11.368L54.052 12.094L53.683 12.992L53.499 13.89L53.131 13.349L53.499 11.909V10.641L53.157 8.898V8.528H52.617L52.078 8.713L51.71 9.083L51.157 9.981L50.987 11.064L50.617 11.619L50.249 12.517L49.71 12.887V10.892C49.71 10.892 49.342 9.624 49.539 9.452C49.71 9.082 49.539 7.63 49.539 7.63L49.171 6.534C49.171 6.534 49.341 6.177 48.986 6.177H48.092L47.552 6.719L47 7.445L46.684 8.898L46.5 9.994V10.892L46.329 9.452L45.776 8.356L45.408 7.088L45.237 6.534H44.868L44.328 6.719L43.605 6.89L43.065 7.075L42.513 7.617C42.513 7.617 42.343 8.343 42.343 8.713V9.347L41.803 8.158L41.079 7.987L40.539 8.528L40.671 10.734C39.698 10.919 38.921 12.2 39.093 12.886V13.058C37.658 13.243 37.829 14.155 36.211 14.155C34.948 14.155 32.961 14.881 32.251 14.155C31.698 13.613 30.804 13.058 30.264 12.53C29.896 11.988 28.449 10.364 28.094 10.179C27.554 9.637 27.014 8.911 26.659 8.369C26.475 7.829 26.291 6.917 26.12 6.547C25.936 6.005 25.212 5.107 25.396 4.922C25.212 4.738 24.502 3.47 24.304 3.47C24.304 3.1 23.581 2.571 23.41 2.571C23.3581 2.52077 23.3007 2.47649 23.239 2.439V1.673L23.068 1.475V1.304C22.897 1.119 22.344 0.748996 21.976 0.576996H20.173C19.989 0.669996 19.805 0.708996 19.647 0.774996V0.749996H19.279C18.199 0.577996 17.489 1.305 17.489 1.846V2.097C17.4203 2.12394 17.3577 2.16441 17.305 2.216C17.134 2.216 16.765 2.388 16.581 2.586C16.411 2.757 16.041 2.956 16.041 2.956C15.871 3.127 15.674 3.497 15.674 3.669C15.503 3.669 15.503 3.854 15.503 3.854C15.673 3.854 16.042 3.669 16.397 3.669H17.292C17.476 3.854 17.647 3.854 17.832 4.039V4.409L17.66 4.593H16.937C16.765 4.765 16.568 4.765 16.568 4.765C16.398 4.765 16.2 4.95 16.028 5.135C15.858 5.135 15.66 5.505 15.66 5.505H16.752C16.923 5.32 16.923 5.505 16.923 5.676C16.923 5.861 16.753 7.301 16.555 7.301V8.027C16.555 8.027 16.739 8.027 16.739 7.855H16.91V8.027H17.094V8.199H17.634V8.384H17.804C18.358 8.384 18.358 8.754 18.529 8.754C18.529 8.925 18.713 8.925 18.713 9.124C18.713 9.124 18.883 9.837 18.713 9.837H18.883V10.021C18.344 10.748 18.883 11.646 18.713 12.557C18.529 13.654 18.16 14.367 17.805 15.82V17.629C17.805 17.814 17.634 20.349 17.805 20.891L18.358 24.325C18.528 25.778 19.976 26.505 20.515 27.218C21.778 29.212 22.318 31.206 24.12 32.831C26.646 34.825 29.343 37.361 32.777 38.088C32.975 38.167 33.211 38.18 33.461 38.167L33.501 38.272L33.133 39.54L31.869 40.808H32.383C31.896 41.02 31.501 41.667 31.501 41.535C31.133 40.993 30.606 40.808 30.238 41.535C29.87 41.905 30.238 42.631 30.054 43.159C30.054 43.331 29.685 42.618 29.33 42.789C28.79 42.974 28.975 44.414 29.16 44.955C28.988 45.14 28.79 44.784 28.436 44.955C28.186 45.087 28.199 45.536 28.226 45.867C28.12 45.92 28.001 45.959 27.896 46.012C27.449 45.748 26.976 45.523 26.633 45.867C26.436 46.052 26.554 46.342 26.646 46.554C26.548 46.595 26.4513 46.639 26.356 46.686L25.541 46.408C25.173 46.408 24.646 46.58 24.646 47.135C24.6856 47.229 24.7438 47.314 24.817 47.385C23.6074 47.94 22.4101 48.5215 21.226 49.129L18.173 50.542C18.476 50.278 18.818 49.961 18.713 49.486C18.529 49.314 17.805 49.67 17.989 49.314L18.358 48.772C18.528 48.402 18.528 47.861 17.989 47.861C17.621 47.861 17.621 47.861 17.449 48.046C17.265 47.676 17.265 46.95 16.542 46.95C16.002 47.135 16.002 48.046 15.832 48.046C15.582 47.914 15.239 47.874 15.055 48.112C14.687 48.31 14.542 48.892 14.385 48.587L14.213 47.689C14.029 47.148 13.49 46.791 12.95 47.319C12.766 47.504 12.95 47.504 12.766 47.861C12.398 47.689 11.503 47.148 11.148 47.689C10.608 48.231 11.688 48.957 11.516 48.957C10.976 49.142 10.621 49.499 11.345 50.053C11.516 50.423 12.24 50.423 12.779 50.595C12.858 50.595 12.753 50.635 12.621 50.701C12.4384 50.6385 12.2478 50.6028 12.055 50.595C11.661 50.595 11.319 50.819 11.213 51.11C11.0667 51.167 10.9261 51.2376 10.793 51.321C10.6465 51.3961 10.5132 51.4944 10.398 51.612C9.964 51.532 9.543 51.572 9.358 52.035C8.99 52.589 10.082 52.945 9.529 52.945L8.63499 53.118C8.09499 53.118 7.54299 53.659 7.91099 54.214C8.09499 54.584 8.27899 54.386 8.46399 54.584C8.42399 54.65 8.37199 54.742 8.30599 54.848C7.79299 54.412 7.20099 53.976 6.84599 53.858C6.12199 53.488 5.58199 53.858 5.93799 54.584C5.39799 54.214 4.50299 53.316 3.77999 53.672C3.23999 53.857 4.14799 54.768 3.60899 54.584L2.51699 54.214C1.97699 54.029 1.43799 54.029 1.43799 54.755C1.60899 55.125 1.793 54.94 1.978 55.297C1.609 55.482 0.529995 55.667 0.713995 56.393C1.08299 57.119 2.51699 56.935 2.33299 57.119C2.14799 57.661 2.503 58.018 3.22699 58.018C3.767 58.018 4.12199 57.476 4.66099 57.291C4.84599 57.291 4.49099 57.846 4.84599 58.189C4.92499 58.242 5.00299 58.269 5.09599 58.269C5.17399 58.585 5.46399 58.849 5.92399 58.902V58.916L6.00399 59.035C5.52999 59.51 4.34599 59.893 4.84599 60.897C5.01599 61.267 5.92399 60.897 5.73999 61.267L5.19999 62.165C4.83199 62.706 5.01699 63.433 5.73999 63.433C6.10899 63.618 6.10899 63.433 6.46399 63.261C6.46399 63.802 6.83199 64.886 7.54299 64.886C8.44999 65.057 8.44999 63.433 8.63499 63.433C9.35799 63.974 9.89799 63.974 9.89799 63.063C9.89799 62.521 9.358 61.98 9.174 61.253C9.174 61.069 9.898 61.795 10.266 61.425C10.49 61.267 10.463 60.923 10.319 60.553C10.5055 60.5735 10.6938 60.5369 10.859 60.448C10.7 61.028 10.542 61.728 11.161 61.98C11.529 62.152 11.884 61.069 12.055 61.61V62.072C11.635 62.323 11.227 62.627 11.345 63.05C11.345 63.604 12.424 63.235 12.055 63.42L11.345 64.146C10.977 64.516 10.977 65.229 11.516 65.229C11.884 65.414 11.884 65.229 12.24 65.229C12.24 65.599 12.24 66.51 12.963 66.682C13.673 66.682 14.043 65.414 14.043 65.586C14.595 65.956 15.134 65.956 15.305 65.216C15.489 64.859 15.135 64.318 15.135 63.776C15.135 63.604 15.502 64.146 16.029 63.948C16.0661 63.9256 16.0973 63.8947 16.1201 63.8578C16.1429 63.821 16.1566 63.7792 16.16 63.736L16.2 63.776C16.568 63.948 16.752 63.235 16.923 63.604V64.318C16.923 64.502 17.292 64.872 17.647 64.688C17.818 64.688 17.818 64.516 18.015 64.318C18.186 64.502 18.739 65.044 19.095 64.872C19.647 64.502 19.095 63.776 19.095 63.604C19.634 63.604 19.818 63.42 19.647 62.904C19.778 62.733 19.805 62.494 19.778 62.257C19.7935 62.2229 19.8069 62.1878 19.818 62.152C20.002 62.522 19.818 63.419 20.37 63.604C20.726 63.776 20.91 63.05 21.081 63.234L21.265 63.948C21.436 64.318 21.805 64.502 22.16 64.318C22.33 64.146 22.16 64.146 22.33 63.948C22.515 63.948 23.239 64.318 23.594 63.948C23.962 63.591 23.054 63.05 23.239 63.05C23.779 62.878 23.949 62.508 23.409 62.152C23.239 61.98 22.686 61.98 22.318 61.782C22.147 61.782 22.686 61.61 22.686 61.412C22.87 61.042 21.791 60.87 21.423 60.87C21.252 60.699 21.607 60.5 21.423 60.329C21.423 59.959 20.883 59.959 20.699 59.959C20.463 59.959 20.265 59.999 20.094 60.052C19.792 59.827 19.357 59.629 19.094 59.246C19.239 59.272 19.844 59.299 19.989 58.863C20.16 58.321 18.726 57.78 18.173 57.595C18.173 57.436 18.265 57.357 18.383 57.278C18.779 57.688 19.383 58.268 19.976 57.965C20.686 57.595 19.792 56.34 19.976 56.34C20.686 56.34 21.055 56.168 20.686 55.244C20.516 54.887 19.792 54.531 19.423 54.161C19.253 53.976 19.976 54.161 20.147 53.791C20.331 53.25 19.055 52.338 18.529 52.167C18.529 51.797 18.897 51.982 18.897 51.625C18.95 51.467 18.91 51.335 18.831 51.203C19.463 50.873 20.226 50.529 20.515 50.529C20.555 50.529 20.595 50.529 20.647 50.516C20.857 50.846 21.16 51.07 21.055 51.07C20.515 51.255 20.345 51.625 20.884 52.167C21.226 52.338 21.884 52.338 22.41 52.497C22.41 52.523 22.41 52.563 22.423 52.602C22.252 52.682 21.963 52.84 21.963 53.065C21.963 53.408 22.554 53.527 23.068 53.58C23.0157 53.6709 22.9586 53.7591 22.897 53.844C22.752 53.87 22.594 53.87 22.502 53.963C22.489 53.976 22.489 54.003 22.476 54.016C22.4178 54.0026 22.3606 53.9848 22.305 53.963C21.936 54.148 21.225 54.689 21.041 55.059C20.871 55.429 21.226 55.786 21.765 55.786C21.595 56.156 20.673 56.499 21.041 57.053C21.226 57.423 21.936 56.869 21.765 57.225L21.397 57.78C21.397 58.136 21.397 58.678 21.937 58.678C22.12 58.678 22.12 58.493 22.304 58.493C22.489 58.678 22.673 59.391 23.212 59.391C23.752 59.391 23.568 58.308 23.752 58.493C24.081 58.665 24.422 58.52 24.462 58.07C24.462 58.084 24.475 58.097 24.475 58.123V59.219C24.475 59.761 25.015 60.487 25.555 60.316C25.923 60.131 25.738 59.946 26.107 59.761C26.277 60.131 27.002 61.029 27.725 60.672C28.449 60.302 27.725 59.048 27.725 59.048C28.633 59.048 29.001 58.863 28.633 57.952C28.265 57.582 27.541 57.225 27.186 56.855C27.015 56.684 27.909 56.855 28.08 56.485C28.265 55.944 26.817 55.045 26.278 55.045C26.278 54.505 26.646 54.676 26.818 54.32C26.8135 54.2042 26.7816 54.0911 26.725 53.99C26.751 53.976 26.791 53.963 26.817 53.95C27.001 53.237 27.001 52.14 26.817 51.784C26.725 51.494 26.462 51.242 26.186 51.203C26.265 50.873 26.186 50.516 25.752 50.516C25.607 50.516 25.581 50.621 25.41 50.661C25.344 50.371 25.238 50.093 25.002 49.921C24.883 49.737 24.725 49.604 24.502 49.604C24.16 49.684 23.989 49.934 23.883 50.159L23.593 49.406C23.5704 49.3572 23.5396 49.3125 23.502 49.274C23.739 49.155 24.028 49.024 24.318 48.891C24.528 49.591 25.752 49.235 25.752 49.406C25.752 50.133 25.922 50.502 26.646 50.318C27.015 50.318 27.37 49.763 27.726 49.406C27.909 49.406 27.726 49.961 28.093 50.318C28.462 50.674 29.186 49.591 29.357 49.221C29.725 49.221 29.725 49.591 30.08 49.763C30.12 49.776 30.146 49.789 30.185 49.789C30.435 50.199 30.804 50.609 31.172 50.846C31.712 51.216 32.264 51.018 32.067 50.476C32.607 50.648 32.962 51.572 33.685 51.374C34.225 51.203 33.685 50.476 34.053 50.833L34.948 51.203C35.316 51.374 35.843 51.374 35.843 51.018C36.027 50.648 35.843 50.648 35.672 50.476C36.04 50.476 36.935 50.304 37.106 49.75C37.106 49.208 35.843 49.208 35.843 49.036C36.211 48.666 36.027 48.31 35.303 48.126C34.935 48.126 34.409 48.31 34.04 48.495C33.856 48.495 34.211 48.125 34.04 47.769C33.672 47.412 32.593 47.953 32.422 48.139C32.132 48.139 32.198 47.901 32.132 47.716C32.593 47.359 32.725 46.738 31.975 46.527C32.856 46.223 33.738 45.88 34.58 45.602C34.909 45.47 35.527 45.312 36.33 45.14C36.474 45.312 36.672 45.43 36.566 45.43L35.672 45.602C35.303 45.602 34.948 45.972 35.303 46.329C35.474 46.699 35.474 46.501 35.672 46.699C35.488 47.069 34.948 47.597 35.303 47.967C35.672 48.508 36.566 47.782 36.566 47.967C36.737 48.508 36.935 48.865 37.461 48.508C37.83 48.337 37.83 47.782 38.014 47.425C38.184 47.24 38.184 47.782 38.554 47.967C38.777 47.967 39 47.623 39.145 47.227C39.29 47.703 39.737 47.835 40.185 47.24C40.185 47.716 39.75 48.786 40.171 49.261C40.1432 49.37 40.148 49.4848 40.185 49.591C40.185 49.961 40.355 49.961 40.553 50.133C40.185 50.318 39.461 50.859 39.645 51.401C39.75 51.625 39.948 51.757 40.158 51.837C39.921 52.047 39.882 52.352 40.198 52.669C39.645 52.669 38.579 51.942 37.856 52.669C37.487 53.039 38.579 53.395 38.04 53.395H36.948C36.408 53.395 35.685 53.765 36.053 54.293C36.224 54.663 36.422 54.478 36.593 54.663C36.224 55.033 35.501 55.561 35.698 56.116C36.238 56.829 37.501 56.116 37.501 56.287C37.501 56.829 37.869 57.185 38.764 56.829C39.132 56.657 39.487 56.116 39.856 55.746C40.026 55.746 39.856 56.287 40.224 56.459C40.764 56.644 41.487 55.561 41.658 55.019C41.868 55.019 41.961 55.152 42.066 55.244C41.724 55.694 41.408 56.195 41.29 56.644C41.119 57.37 41.658 57.912 42.553 57.37C42.382 58.084 41.29 58.995 42.013 59.721C42.553 60.091 43.276 59.18 43.105 59.721L42.921 60.818C42.921 61.359 43.289 61.914 44.013 61.716C44.382 61.716 44.184 61.544 44.553 61.346C44.921 61.716 45.447 62.614 46.171 62.244C46.961 61.94 46.645 60.778 46.552 60.619C46.973 60.619 47.316 60.579 47.512 60.435C47.644 60.527 47.802 60.593 47.973 60.619C48.328 60.619 48.144 59.339 48.513 59.709L49.236 60.804C49.605 61.346 50.131 61.531 50.499 60.976C50.67 60.619 50.499 60.435 50.499 60.078C50.868 60.263 51.933 60.448 52.118 59.708C52.486 58.995 51.026 58.268 51.026 58.084C51.526 57.754 51.723 57.094 51.012 56.724C51.144 56.42 51.144 55.984 51.381 56.103L52.276 56.816C52.539 57.001 52.854 57.093 53.157 57.04L52.815 57.727C52.644 58.084 52.644 58.625 53.183 58.625C53.552 58.625 53.367 58.625 53.736 58.44C53.736 58.81 53.907 59.708 54.631 59.708C55.17 59.708 55.17 58.625 55.354 58.625C55.709 58.995 56.249 58.797 56.249 58.255C56.249 57.885 55.88 57.357 55.696 56.987C55.696 56.803 56.065 57.357 56.42 56.987C56.644 56.869 56.446 56.393 56.17 56.01C56.551 56.42 57.196 57.133 57.683 56.802C58.051 56.631 57.512 55.904 57.867 56.089L58.762 56.631C59.13 56.802 59.657 56.802 59.657 56.261C59.657 55.891 59.485 55.891 59.288 55.72C59.657 55.535 60.551 55.535 60.38 54.993C60.38 54.267 59.117 54.267 59.117 54.267C59.288 53.725 59.288 53.369 58.577 53.184C58.025 53.184 57.67 53.54 57.301 53.725C57.131 53.725 57.486 53.355 57.131 52.999C57.065 52.879 56.907 52.879 56.709 52.946C56.512 52.761 56.341 52.642 56.407 52.642C56.947 52.47 56.947 52.101 56.407 51.559C56.038 51.374 55.512 51.374 55.144 51.189C54.973 51.189 55.512 51.004 55.512 50.635C55.342 50.278 54.078 50.093 53.71 50.278C53.539 49.948 53.815 49.921 53.75 49.644C53.96 49.737 54.183 49.789 54.42 49.724C54.788 49.552 54.25 48.825 54.604 49.01L55.499 49.367C55.867 49.552 56.394 49.552 56.394 49.01C56.394 48.825 56.394 48.825 56.223 48.64C56.341 48.587 56.499 48.521 56.67 48.455C56.749 48.693 56.828 48.891 56.933 48.997C57.301 49.71 58.025 49.71 58.209 48.812C58.578 49.353 58.38 50.806 59.289 50.806C59.841 50.806 59.841 49.71 60.012 50.08L60.552 50.806C60.919 51.348 61.446 51.533 61.814 50.978C61.998 50.608 61.814 50.437 61.814 50.265C62.367 50.265 63.261 50.436 63.63 49.71C63.998 48.997 62.735 48.442 62.735 48.27C63.275 47.716 63.445 47.372 62.735 46.818C62.367 46.646 61.643 47.002 61.117 46.818C60.933 46.818 61.657 46.448 61.472 45.92C61.472 45.893 61.472 45.867 61.459 45.854C62.129 45.906 62.893 45.88 63.275 45.748C63.814 45.378 64.169 44.652 63.275 44.295C63.814 44.123 65.077 44.48 65.261 43.397C65.367 43.093 65.064 42.961 64.841 42.869L71.195 43.397C73.537 43.569 73.011 43.027 73.905 41.772C74.076 41.588 74.076 40.504 74.076 40.319C73.892 36.939 66.682 36.582 64.696 37.137L64.695 37.136ZM52.447 52.866C52.354 52.866 52.499 52.72 52.631 52.522C52.657 52.602 52.683 52.694 52.71 52.786C52.6229 52.8145 52.5352 52.8412 52.447 52.866ZM34.067 42.736C33.698 42.366 33.698 42.564 33.343 42.564C33.343 42.419 33.369 42.168 33.369 41.89C33.409 41.93 33.461 41.97 33.527 42.01C33.698 42.194 34.237 42.194 34.607 42.379C34.79 42.379 34.277 42.551 34.251 42.894C34.1994 42.8309 34.1371 42.7774 34.067 42.736ZM46.894 44.176H46.855C46.7739 44.0032 46.6624 43.8464 46.526 43.713C46.842 43.713 47.131 43.7 47.329 43.647C47.131 43.885 46.986 44.11 46.894 44.176ZM50.276 46.896C50.276 46.856 50.289 46.843 50.328 46.843C50.328 46.883 50.315 46.923 50.315 46.962C50.302 46.935 50.29 46.909 50.276 46.896ZM48.486 43.409C48.446 43.369 48.408 43.343 48.355 43.303C48.513 43.29 48.657 43.277 48.789 43.277C48.684 43.317 48.579 43.357 48.486 43.409ZM45.816 43.687C45.736 43.766 45.671 43.858 45.606 43.99C45.421 44.545 45.606 45.258 45.606 45.813C45.421 45.985 45.236 45.258 44.71 45.258C44.197 45.43 44.329 46.685 44.632 47.305C44.355 47.2 44.013 47.107 43.816 46.895C43.632 46.895 44.356 46.895 44.356 46.355C44.447 46.051 44.106 45.813 43.697 45.655C43.811 45.611 43.9143 45.5431 44 45.456C44.421 44.876 43.724 44.201 43.408 43.937C44.066 43.845 44.724 43.753 45.328 43.673C45.473 43.673 45.645 43.673 45.816 43.687ZM49.013 49.247C49.039 49.22 49.079 49.207 49.118 49.181C49.197 49.221 49.276 49.247 49.368 49.247H49.394C49.407 49.273 49.42 49.287 49.42 49.313C49.2895 49.2664 49.1515 49.2441 49.013 49.247ZM51.263 46.46C51.197 46.38 51.105 46.262 50.986 46.21C50.973 46.17 50.946 46.13 50.934 46.09C51.381 45.734 51.486 45.1 50.881 44.915C50.855 44.73 50.657 44.505 50.657 44.36C50.315 44.017 49.973 43.819 49.684 43.62C49.6352 43.5328 49.5693 43.4563 49.4903 43.3951C49.4112 43.3339 49.3207 43.2893 49.224 43.264C50.065 43.264 50.907 43.237 51.749 43.198C51.7503 43.2432 51.7594 43.2879 51.776 43.33L51.552 43.435C51.184 43.435 50.842 43.977 51.184 44.334C51.368 44.518 51.552 44.334 51.736 44.518C51.552 44.69 51.184 45.417 51.552 45.786C51.565 45.8 51.578 45.813 51.605 45.826C51.552 45.985 51.513 46.143 51.46 46.301C51.368 46.368 51.315 46.421 51.263 46.46ZM44.96 40.596C44.816 40.556 44.697 40.437 44.342 40.556C44.2588 40.555 44.1769 40.5766 44.105 40.6185C44.0332 40.6604 43.974 40.7211 43.934 40.794C43.658 40.847 43.394 40.874 43.132 40.913C42.908 40.609 42.645 40.293 42.526 39.83C42.066 39.949 41.369 40.068 40.79 40.24C40.816 39.883 40.606 39.658 40.185 39.658C40.355 39.288 41.079 38.932 40.724 38.39V37.875C40.829 37.928 41.184 38.034 41.448 38.034L42.711 38.575L43.803 38.76C43.973 38.76 44.158 37.664 43.618 37.136C42.895 36.409 43.25 36.581 43.448 36.224C43.987 36.224 43.987 36.224 44.342 36.053C44.671 36.277 46.171 37.123 47.434 37.809L47.394 37.849C46.855 38.219 47.026 38.76 46.684 39.302C46.684 39.473 46.5 38.76 45.96 38.76C45.42 38.76 45.25 40.12 45.237 40.53C45.145 40.556 45.053 40.583 44.96 40.596ZM41.263 49.076V49.115L41.119 49.088C41.211 48.983 41.263 48.931 41.263 49.076ZM49.381 51.056C49.276 51.056 49.421 50.924 49.486 50.739C49.513 50.726 49.539 50.699 49.566 50.686C49.763 50.488 49.881 50.237 49.907 50.013C50.289 50.093 50.723 50.118 51.144 50.105C51.104 50.303 51.091 50.555 51.118 50.792C51.0262 50.7445 50.9288 50.7089 50.828 50.686C50.276 50.686 49.92 51.056 49.381 51.056ZM51.236 51.532C51.249 51.585 51.263 51.637 51.276 51.677C51.21 51.651 51.17 51.624 51.17 51.597C51.1979 51.5823 51.2209 51.5597 51.236 51.532ZM35.856 38.76L35.961 37.836C36.514 38.046 37.671 38.311 37.671 38.034C37.671 37.744 37.645 37.532 37.619 37.386C37.645 37.4 37.659 37.426 37.685 37.439C37.751 37.756 38.053 38.073 38.211 38.403C38.211 38.403 37.843 38.219 37.487 38.403C37.33 38.562 37.869 39.275 38.119 39.566L36.948 40.741H37.751C37.685 40.781 37.632 40.821 37.566 40.86C37.303 40.741 37.053 40.847 36.948 41.296C36.764 40.926 36.948 39.843 36.224 39.671C35.856 39.671 35.856 40.569 35.684 40.213L35.317 39.486C35.303 39.473 35.303 39.46 35.29 39.446L35.856 38.76ZM57.13 43.634C57.17 43.594 57.21 43.594 57.236 43.62C57.17 43.74 57.078 43.858 56.986 43.99C57.038 43.832 57.091 43.713 57.13 43.634ZM33.356 40.74C33.488 40.899 33.593 41.03 33.527 41.11C33.4443 41.1507 33.3687 41.2044 33.303 41.269C33.251 41.057 33.146 40.859 32.975 40.753H33.356V40.74ZM15.99 62.613C15.95 62.533 15.924 62.454 15.885 62.375C15.9437 62.3441 15.9971 62.3039 16.043 62.256C16.043 62.362 16.017 62.481 15.99 62.613ZM8.56999 56.59C8.6465 56.5908 8.72248 56.5772 8.79399 56.55C8.77999 56.63 8.754 56.71 8.741 56.788C8.67369 56.7478 8.6035 56.7127 8.53099 56.683C8.54399 56.656 8.55699 56.617 8.56999 56.59ZM10.043 57.105C10.123 57.145 10.214 57.171 10.307 57.171C10.201 57.409 10.109 57.673 10.017 57.937C9.93488 57.8066 9.84259 57.6829 9.741 57.567C9.833 57.475 9.911 57.357 9.911 57.224C9.951 57.184 9.99 57.144 10.043 57.105ZM14.925 59.047C15.0723 59.022 15.2066 58.9475 15.306 58.836C15.306 59.046 15.175 59.337 15.056 59.654C14.819 59.549 14.569 59.469 14.412 59.377C14.28 59.245 14.662 59.205 14.925 59.047ZM15.872 55.771C16.359 55.93 16.688 55.798 16.609 55.361C16.701 55.296 16.753 55.283 16.753 55.401V55.864C16.477 55.877 16.188 55.904 15.872 55.917C15.885 55.851 15.885 55.797 15.872 55.771ZM11.622 56.643C11.649 56.59 11.688 56.537 11.714 56.484C11.7949 56.4087 11.854 56.313 11.885 56.207C11.938 56.273 11.991 56.313 12.07 56.313C12.438 56.432 12.806 55.824 13.004 55.243C13.109 55.084 13.162 54.847 13.174 54.596C13.214 54.583 13.254 54.556 13.306 54.543C13.516 54.623 13.57 54.847 13.819 54.873L13.701 55.058C13.53 55.428 13.701 55.956 14.069 55.956C14.438 55.956 14.438 55.784 14.622 55.784C14.622 55.89 14.754 56.22 14.951 56.444C14.596 56.96 14.306 57.62 14.267 58.043C13.925 57.937 13.57 57.885 13.346 57.963C13.346 57.594 13.714 57.423 13.714 57.066C13.714 56.709 13.004 56.511 12.635 56.511C12.28 56.484 11.951 56.551 11.622 56.643ZM34.383 43.356C34.3984 43.2681 34.394 43.1779 34.37 43.092C34.462 43.145 34.607 43.185 34.765 43.211C34.633 43.264 34.502 43.303 34.383 43.356ZM49.211 56.406C49.224 56.432 49.251 56.471 49.277 56.498C49.25 56.498 49.224 56.484 49.211 56.484C49.158 56.484 49.171 56.459 49.211 56.406ZM52.658 49.246C52.6711 49.1675 52.6711 49.0875 52.658 49.009H52.803C52.908 49.089 53.013 49.181 53.119 49.273C52.961 49.247 52.789 49.247 52.659 49.247L52.658 49.246ZM56.237 47.252C56.407 46.711 56.407 46.354 55.684 46.354C55.316 46.354 55.026 46.526 54.71 46.632C54.618 46.552 54.579 46.526 54.408 46.526C54.4254 46.442 54.4163 46.3546 54.382 46.276C54.434 46.169 54.487 46.051 54.526 45.945C54.658 45.958 54.803 45.919 54.974 45.8C55.184 45.588 55.329 45.324 55.447 45.073C55.5468 44.9668 55.6309 44.8469 55.697 44.717C55.7268 44.6539 55.749 44.5874 55.763 44.519C55.842 44.571 55.763 45.086 56.066 45.086C56.236 45.139 56.395 45.046 56.526 44.888C56.526 45.008 56.539 45.126 56.606 45.258C56.776 45.628 57.5 45.086 57.316 45.443L57.131 45.919C56.921 46.117 56.697 46.315 56.421 46.526C56.421 46.724 56.434 46.988 56.461 47.266C56.276 47.252 56.171 47.252 56.237 47.252ZM59.907 45.892C59.857 45.7634 59.8046 45.6357 59.75 45.509C59.8178 45.3834 59.8496 45.2415 59.842 45.099C59.921 45.126 59.999 45.139 60.078 45.139C60.197 45.179 60.342 45.232 60.473 45.271C60.539 45.417 60.618 45.575 60.697 45.721C60.4287 45.752 60.1641 45.8093 59.907 45.892Z"/>
</g>
<defs>
<clipPath id="clip0_1_104">
<rect width="75" height="67" fill="white"/>
</clipPath>
</defs>
</svg>
