<svg width="62" height="66" viewBox="0 0 62 66" xmlns="http://www.w3.org/2000/svg">
<g clip-path="url(#clip0_1_33)">
<path d="M36.298 17.436C36.59 16.968 37.568 16.477 38.814 16.477H38.822C39.138 16.461 39.848 16.525 40.755 16.612C43.563 16.873 48.263 17.317 50.725 16.263C53.658 15.138 54.708 13.497 55.725 11.904C56.348 10.929 56.987 9.92301 58.075 9.02701L58.083 9.01901C58.383 8.73401 58.753 8.40101 59.148 8.04401C60.883 6.48301 61.696 5.69801 61.696 5.30201V5.27001C61.68 5.16001 61.616 5.00901 61.412 4.89801C61.01 4.67601 60.221 4.73901 59.503 5.04801C58.801 5.35001 57.997 6.05501 57.145 6.80001C55.812 7.96501 54.305 9.28001 53.477 8.64701C52.807 7.98901 53.942 6.04701 54.692 4.75501C55.023 4.19201 55.283 3.74901 55.378 3.45501C55.686 2.52001 55.654 2.07601 55.236 1.76701L55.228 1.75901C55.086 1.66401 54.865 1.64001 54.628 1.70401C54.408 1.75901 53.982 1.93401 53.682 2.48801C53.422 2.93201 53.201 3.50301 52.964 4.11301C52.223 6.03101 51.45 8.01301 49.194 7.41801C47.83 6.94301 48.295 4.92201 48.697 3.13801C48.973 1.91001 49.194 0.943007 48.831 0.491007L48.737 0.372007L48.603 0.420007C47.601 0.808007 47.246 1.86201 46.867 2.98001C46.544 3.94701 46.205 4.94501 45.44 5.68201C43.65 7.41001 42.75 7.10901 42.159 6.65701C41.985 6.46701 42.167 5.10401 42.237 4.58901C42.285 4.25601 42.317 3.99401 42.317 3.85901C42.317 3.39201 42.08 2.88501 41.559 2.79801C41.401 2.76601 41.173 2.74201 40.968 2.90101C40.747 3.06701 40.628 3.38401 40.589 3.90701C40.557 4.09701 40.542 4.28001 40.526 4.46201C40.471 5.12001 40.408 5.79301 39.761 6.99001C38.735 8.39301 36.976 9.15401 34.547 9.27301C32.891 9.14601 31.447 8.96301 30.517 8.02801C29.515 7.02201 29.152 5.18301 29.365 2.23501V2.21901C29.365 1.44201 29.018 0.879007 29.002 0.856007L28.908 0.697007L28.742 0.777007C28.71 0.792007 27.922 1.16501 27.701 2.17901C27.677 2.29901 27.654 2.48101 27.614 2.71001C27.385 4.32001 26.857 8.07601 24.112 7.69601C22.022 7.43401 22.416 3.73301 22.55 2.51201C22.574 2.30601 22.59 2.17201 22.59 2.09201V2.06801C22.519 1.49801 22.314 1.20501 22.29 1.17301L22.22 1.07801L22.1 1.09401C21.848 1.12501 21.399 1.29201 21.328 1.72801C21.233 2.29801 20.326 7.27501 17.55 6.96601C15.76 6.76001 15.262 4.46201 14.868 2.62301C14.608 1.40301 14.395 0.443007 13.85 0.230007L13.74 0.182007L13.645 0.246007C13.093 0.650007 13.038 1.63301 12.975 2.77401C12.896 4.28001 12.802 5.99201 11.437 6.28401C10.207 6.34801 9.48098 5.46101 8.56598 4.33501C7.90298 3.51901 7.14598 2.59101 6.05798 1.89401L6.04998 1.88601C5.16598 1.37101 4.86698 1.64801 4.78798 1.74301L4.77198 1.78301L4.76398 1.82301C4.75598 1.84601 4.61398 2.44101 5.04798 3.17001C5.21398 3.45501 5.51298 3.76401 5.83698 4.09701C6.29398 4.58101 6.82298 5.12701 7.00398 5.64301C7.06698 5.82501 7.15398 6.10301 7.24898 6.42001C7.65098 7.72701 8.31398 9.91501 9.33098 11.302C10.333 12.784 11.8 13.767 13.709 14.234C15.231 14.607 16.603 14.544 17.258 14.511C17.368 14.504 17.463 14.504 17.518 14.504C17.715 14.519 18.22 14.496 18.985 14.456C21.588 14.337 27.015 14.091 29.491 14.956C31.495 15.606 32.118 16.683 32.173 17.222C32.205 17.476 32.22 17.753 32.228 17.991C32.236 18.07 32.236 18.149 32.244 18.229C32.1024 18.2945 31.9542 18.3447 31.802 18.379C31.432 18.466 30.982 18.442 30.501 18.419C29.941 18.395 29.357 18.363 28.829 18.514C28.277 18.672 27.937 18.902 27.622 19.124C27.3796 19.3032 27.118 19.4548 26.842 19.576C25.303 20.154 23.623 20.178 21.998 20.202C20.91 20.218 19.876 20.234 18.978 20.424C16.848 20.954 13.196 24.101 13.038 24.236C13.0125 24.2584 12.9928 24.2867 12.9806 24.3184C12.9684 24.3501 12.9641 24.3843 12.968 24.418L13.148 25.901C13.117 25.924 13.093 25.956 13.07 25.98C11.626 27.715 12.928 30.26 12.983 30.37C12.9976 30.3974 13.0178 30.4214 13.0423 30.4405C13.0667 30.4596 13.0949 30.4734 13.125 30.481L13.716 30.616C13.7324 30.6147 13.7489 30.6174 13.764 30.624C13.8014 30.8683 13.8949 31.1007 14.0372 31.3028C14.1794 31.5049 14.3666 31.6714 14.584 31.789C15.184 32.114 15.31 32.122 15.728 32.019C15.815 31.995 15.909 31.971 16.043 31.948C16.051 31.948 16.059 31.948 16.067 31.94C16.414 31.82 16.73 31.448 17.053 31.044C17.353 30.672 17.668 30.291 17.991 30.148C17.999 30.148 17.999 30.141 18.007 30.141C18.654 29.791 20.894 29.784 21.336 29.998C22.125 30.783 22.376 31.821 22.621 32.819C22.953 34.175 23.291 35.577 25.011 36.101C26.021 36.418 26.999 36.227 28.064 35.918C27.48 41.569 24.924 44.2 22.456 46.752C20.752 48.512 19.127 50.184 18.394 52.72C13.48 49.273 10.128 43.717 9.71798 37.33L9.63098 35.982L0.906982 36.544L1.00198 37.892C1.4925 45.2655 4.7558 52.1801 10.136 57.246C15.522 62.3439 22.659 65.1805 30.075 65.171C37.513 65.171 44.595 62.342 50.007 57.206C55.3816 52.1288 58.6265 45.1993 59.085 37.82L59.172 36.481L50.448 35.911L50.361 37.258C50.1507 40.6474 49.096 43.9303 47.293 46.808C46.15 44.946 44.225 40.475 43.823 31.123V31.108C43.342 27.272 41.093 23.626 40.195 22.485C42.245 21.938 44.43 20.907 45.266 18.055L45.314 17.888L45.156 17.808C45.093 17.777 43.618 17.056 40.952 17.523C38.902 17.88 37.805 18.886 37.118 19.592C36.898 19.417 36.685 19.267 36.503 19.14C36.283 18.99 36.085 18.847 35.888 18.704C35.848 18.672 35.801 18.641 35.762 18.609C35.778 18.569 35.793 18.529 35.817 18.482C35.959 18.125 36.117 17.729 36.298 17.436ZM14.9 24.64C14.986 24.79 15.018 24.918 14.978 24.989C14.939 25.069 14.821 25.108 14.75 25.108C14.726 25.108 14.702 25.108 14.687 25.116C14.671 25.124 14.577 25.156 14.45 25.211C14.6147 25.0331 14.7652 24.8425 14.9 24.641V24.64ZM16.493 28.746C16.501 28.746 16.509 28.738 16.517 28.73C16.682 28.619 16.919 28.532 17.124 28.468C16.998 28.595 16.793 28.746 16.454 28.888C16.264 28.96 16.067 29.055 15.854 29.158C16.154 28.952 16.398 28.793 16.493 28.746ZM52.917 38.772L56.293 38.993C54.779 52.261 43.507 62.477 30.075 62.477C16.666 62.477 5.37198 52.293 3.80198 39.057L7.16998 38.835C8.05298 46.023 12.234 52.158 18.11 55.74C21.344 57.721 24.87 58.562 26.202 58.768C27.464 58.982 28.758 59.093 30.075 59.093C35.945 59.0998 41.5929 56.8496 45.85 52.808C49.7717 49.0976 52.2718 44.1321 52.917 38.772Z"/>
</g>
<defs>
<clipPath id="clip0_1_33">
<rect width="62" height="66" fill="white"/>
</clipPath>
</defs>
</svg>
