<svg width="68" height="62" viewBox="0 0 68 62" xmlns="http://www.w3.org/2000/svg">
<g clip-path="url(#clip0_1_57)">
<path d="M66.158 35.464C67.403 30.979 69.475 23.483 65.996 20.794C62.395 17.972 56.426 21.024 55.275 21.673L55.465 22.024C51.958 18.391 49.008 18.782 47.532 18.782C44.825 18.782 36.257 22.942 31.627 23.172C25.766 24.077 23.275 21.592 22.043 20.025C18.998 16.202 21.813 10.232 21.813 10.232C21.813 10.232 21.38 9.84 21.191 9.017C21.367 9.557 21.651 9.962 21.813 10.232C23.613 12.596 27.905 12.826 28.135 13.042C28.92 13.272 29.488 15.635 30.395 16.311C31.519 17.094 31.857 16.541 31.979 16.311C32.101 16.081 30.057 14.284 30.625 13.947C31.194 13.717 32.209 15.973 32.995 15.635C33.671 15.405 34.348 13.839 34.24 13.501C34.24 13.055 33.793 12.488 33.116 11.921C31.871 11.016 29.84 6.288 28.378 4.6C28.27 4.492 29.732 3.14 29.732 2.006C27.905 3.141 27.228 2.803 27.228 2.803C27.228 2.803 28.69 1.453 28.473 0.547001C28.473 0.439001 25.197 2.344 20.92 2.127C17.982 2.02 15.505 1.115 14.49 0.885001C13.367 0.655001 9.98297 0.102001 7.95197 1.56C7.61397 1.79 7.50497 2.465 7.50497 2.465C7.50497 2.465 7.05897 2.574 6.82897 2.803C6.59897 3.033 6.59897 3.478 6.59897 3.478C6.59897 3.478 6.24697 3.708 6.13897 3.924C6.02997 4.032 6.13897 4.492 6.13897 4.492C6.13897 4.492 5.67797 4.6 5.56897 4.829C5.46097 4.937 5.33897 5.505 5.23097 5.734C5.12297 5.842 4.66297 6.072 4.55497 6.41C4.44597 6.855 4.66297 7.085 4.66297 7.085C4.66297 7.085 3.98597 7.085 3.87797 7.423C3.76897 7.653 3.87797 8.206 3.87797 8.206C3.87797 8.206 3.43097 8.314 3.30897 8.544C3.20097 8.774 3.07897 9.327 3.07897 9.327C3.07897 9.327 2.74097 9.435 2.51097 9.773C2.28097 10.219 2.51097 10.786 2.51097 10.786C2.51097 10.786 2.06397 11.016 1.94197 11.232C1.83397 11.799 2.17197 12.137 2.17197 12.137C2.17197 12.137 1.60397 12.137 1.49497 12.812C1.38697 13.379 1.72497 13.825 1.72497 13.825C1.72497 13.825 1.04897 13.933 0.93997 14.392C0.93997 15.068 1.38697 15.068 1.38697 15.068C1.38697 15.068 0.83197 15.298 0.83197 15.635C0.93997 16.419 1.27897 16.419 1.27897 16.419C1.27897 16.419 0.83197 16.864 0.83197 17.094C0.93997 17.661 1.40097 17.769 1.40097 17.769C1.40097 17.769 0.95397 18.337 0.95397 18.553C1.06197 19.228 1.63097 19.336 1.63097 19.336C1.63097 19.336 1.29197 20.012 1.40097 20.349C1.73897 20.795 2.30697 20.687 2.30697 20.687C2.30697 20.687 1.96897 21.254 2.07697 21.47C2.41597 21.916 2.86197 21.808 2.86197 21.808C2.86197 21.808 2.63197 22.713 2.75397 22.821C2.86197 23.159 3.43097 23.051 3.43097 23.051C3.43097 23.051 3.09297 23.618 3.20097 23.956C3.43097 24.523 3.76897 24.186 3.76897 24.186C3.76897 24.186 3.66097 24.631 3.76897 24.861C3.99897 25.306 4.33797 25.198 4.33797 25.198C4.33797 25.198 4.22997 25.982 4.33797 26.441C4.78497 27.008 5.24497 26.671 5.35297 27.008C5.46097 27.576 7.15297 28.359 7.38297 29.034C6.92297 38.03 7.82997 39.502 7.59997 41.069C7.15297 42.529 6.47697 43.541 6.24697 44.892C5.90797 46.351 7.03197 50.525 4.89297 56.265C4.32397 57.845 1.16997 60.763 1.40097 60.993C2.86197 60.885 5.23097 60.993 5.56997 60.763C6.01597 60.655 5.46097 59.413 5.56997 59.183C5.56997 58.845 5.79997 58.737 6.35497 58.278C7.03197 57.832 7.59997 56.589 7.81697 56.022C7.92497 55.455 7.47797 53.429 7.58697 51.97C7.81697 50.511 9.16997 46.904 9.61697 45.446C10.064 44.095 10.064 42.636 10.294 41.164C11.16 38.8 11.904 37.395 12.527 36.558C12.636 36.693 12.717 36.828 12.771 37.004C13.448 37.571 14.355 40.948 14.571 41.502C14.91 42.069 15.14 42.622 15.248 43.19C15.478 43.757 15.018 45.554 15.248 46.23C15.478 47.688 16.94 49.16 17.17 52.537C17.509 55.009 17.279 55.806 17.17 56.697C17.17 57.373 16.385 58.386 15.708 59.291C15.14 60.196 14.693 60.871 15.032 61.209C15.938 61.317 18.416 61.209 18.524 60.641C18.524 60.411 18.416 60.074 18.294 59.858V59.75C18.524 58.967 19.647 56.71 19.647 56.035C19.417 55.252 18.741 52.996 18.524 50.633C18.186 48.161 18.971 46.918 18.971 45.797C19.079 44.784 18.186 44.217 18.186 42.987C18.118 42.109 18.375 39.746 18.564 37.895C20.487 38.462 23.234 38.868 27.106 38.705C29.989 38.395 34.673 36.207 37.176 35.235C37.502 36.261 37.84 37.247 38.166 37.922C39.41 40.286 42.226 42.42 43.011 44.338C43.918 46.256 39.397 52.672 37.596 54.468C36.3313 55.6086 35.1251 56.8125 33.982 58.075C33.644 58.413 33.306 58.75 33.075 59.088C32.29 60.101 31.722 60.885 31.952 61.114C32.29 61.452 36.012 61.452 35.904 60.884C35.904 60.655 35.904 60.317 36.013 59.872C36.013 59.642 36.121 59.426 36.243 59.196C36.69 58.751 37.488 58.521 37.705 58.413C37.813 58.305 38.828 56.833 39.059 56.495C39.167 56.157 38.95 56.157 39.505 55.252C45.258 47.148 47.627 46.918 47.735 45.459C47.843 44 46.72 44.446 46.273 42.649C45.908 41.218 46.313 39.57 46.991 38.044C50.063 39.814 54.097 42.272 54.395 44.676C54.503 48.728 49.995 54.806 49.765 55.144C49.535 55.482 49.319 56.941 48.98 57.4C48.75 57.846 48.304 58.075 47.965 58.305C47.18 58.872 45.827 60.669 46.043 60.898C46.273 61.128 50.104 61.006 50.551 60.668C50.659 60.56 50.212 58.197 50.781 57.629C51.228 57.062 52.026 57.062 52.365 56.724C55.857 47.607 59.363 44.338 59.025 43.447C58.916 42.879 54.964 41.421 54.734 39.287C54.164 37.827 57.671 34.897 57.549 27.022C57.414 25.968 57.089 24.834 56.764 23.996L56.954 24.226C57.806 23.483 59.552 22.429 61.786 23.699C63.749 24.82 62.084 31.601 61.096 35.653C60.5 38.057 60.175 39.449 60.283 40.029C60.513 41.759 61.203 42.906 61.231 42.947L61.759 42.623C61.759 42.609 61.109 41.529 60.892 39.921V39.908C60.798 39.448 61.231 37.666 61.692 35.788C62.855 31.02 64.466 24.496 62.097 23.145C59.539 21.686 57.481 22.97 56.629 23.672C56.574 23.55 56.52 23.442 56.479 23.334C58.104 22.456 60.486 21.578 62.625 22.362L62.652 22.375C63.139 22.51 63.505 22.78 63.776 23.24C65.007 25.333 63.626 30.534 62.612 34.343C61.975 36.733 61.474 38.625 61.637 39.475C62.057 41.758 62.395 41.961 62.53 42.042C62.598 42.082 62.666 42.096 62.733 42.096C62.774 42.096 62.801 42.096 62.842 42.082L62.639 41.488C62.747 41.448 62.842 41.488 62.869 41.515C62.855 41.502 62.598 41.231 62.259 39.367C62.124 38.652 62.666 36.639 63.221 34.505C64.317 30.385 65.671 25.252 64.317 22.942C64.1587 22.6604 63.9453 22.4135 63.6895 22.2163C63.4336 22.019 63.1406 21.8754 62.828 21.794C60.459 20.944 57.888 21.889 56.155 22.834L56.168 22.848L56.088 22.767C57.265 22.078 60.933 20.201 63.952 21.7C66.93 23.145 64.602 32.1 63.6 35.937C63.342 36.937 63.153 37.666 63.099 38.03C62.747 39.935 64.006 41.677 64.059 41.758L64.561 41.394C64.547 41.38 63.411 39.786 63.708 38.138V38.125C63.748 37.801 63.938 37.045 64.195 36.099C65.4 31.452 67.647 22.808 64.222 21.146C60.865 19.471 56.845 21.592 55.695 22.281L55.775 22.402C55.7244 22.3406 55.6703 22.2821 55.613 22.227C56.818 21.565 62.354 18.782 65.603 21.322C68.743 23.753 66.74 31.006 65.549 35.342C65.021 37.247 64.75 38.273 64.818 38.787C65.048 40.651 65.968 41.826 66.009 41.867L66.496 41.475C66.483 41.461 65.644 40.394 65.427 38.705C65.387 38.26 65.738 36.963 66.158 35.464ZM27.607 6.099C27.58 6.112 27.567 6.139 27.567 6.18C27.336 6.518 27.336 6.963 27.674 7.193C27.891 7.409 28.216 7.315 28.541 7.207C28.771 7.733 28.92 8.314 28.92 8.314C28.92 8.314 27.566 7.639 27.228 7.193C26.781 6.747 26.443 5.505 26.443 5.505C26.443 5.505 27.093 5.775 27.607 6.099Z"/>
</g>
<defs>
<clipPath id="clip0_1_57">
<rect width="68" height="62" fill="white"/>
</clipPath>
</defs>
</svg>
