<svg width="116" height="46" viewBox="0 0 116 46" xmlns="http://www.w3.org/2000/svg">
<g clip-path="url(#clip0_1_167)">
<path d="M114.732 9.958C113.963 9.974 112.933 11.008 111.949 10.976C111.826 10.976 111.718 10.946 111.595 10.915C113.041 9.172 114.87 7.799 115.946 5.685C115.823 5.639 115.777 5.562 115.808 5.392C113.84 4.899 113.24 7.752 111.457 7.429C112.518 5.299 114.716 4.297 114.793 1.181C114.631 1.11468 114.484 1.01484 114.363 0.888C112.087 1.212 111.718 2.816 110.304 4.235C108.813 5.732 107.491 7.228 105.999 8.493C105.661 8.786 105.308 9.063 104.954 9.326C102.402 11.176 99.942 12.889 97.052 14.2C94.331 15.434 91.21 16.314 87.259 16.607C87.213 16.637 87.166 16.653 87.12 16.684C86.874 16.792 86.644 16.93 86.398 17.038C83.784 17.362 80.94 17.748 78.127 18.211C73.699 18.951 68.964 19.028 64.936 20.262C63.844 21.419 62.046 22.561 60.293 22.299C59.14 22.113 56.788 20.324 54.789 19.676C53.221 19.167 52.391 18.982 50.761 18.828C50.654 18.812 50.546 18.812 50.423 18.797C49.408 19.291 48.378 19.769 46.795 19.677C45.872 20.154 44.981 21.928 45.78 23.177C45.888 23.131 46.01 23.085 46.118 23.054C47.886 22.53 50.269 23.856 50.7 25.646C48.44 25.615 47.656 25.013 46.503 23.918H46.487C40.553 23.888 34.987 25.09 29.084 25.075C18.276 24.998 8.76 21.265 0.643005 18.195C0.965005 20.494 3.53301 20.525 4.56301 22.129H4.39301C4.28601 22.129 4.16301 22.129 4.05601 22.113C3.77901 22.113 3.51701 22.129 3.39401 22.268C4.00901 24.504 6.90001 24.488 8.32901 25.908C8.31401 26.278 7.71501 26.062 7.89901 26.648C9.05201 28.16 10.974 28.901 12.696 29.857C12.542 30.057 12.296 30.134 12.266 30.443C13.664 31.569 15.724 32.016 17.769 32.495C18.753 34.022 21.182 34.099 23.135 34.67C23.135 35.024 22.873 35.101 22.981 35.549C23.749 36.336 25.056 36.521 26.44 36.521C27.5 36.521 28.608 36.428 29.53 36.428C29.668 36.428 29.807 36.428 29.945 36.444C29.945 36.474 29.93 36.49 29.93 36.521C29.807 36.844 29.346 36.844 29.36 37.323C30.483 37.755 31.944 38.033 33.435 38.048C34.327 38.048 35.218 37.971 36.033 37.77C36.294 38.526 36.863 38.742 37.555 38.742C38.477 38.742 39.615 38.356 40.615 38.341C40.737 38.341 40.845 38.341 40.968 38.356C41.168 38.556 41.06 39.05 41.26 39.236C41.383 39.282 41.49 39.313 41.614 39.343C41.906 39.421 42.183 39.451 42.474 39.451C43.889 39.451 45.257 38.711 46.503 38.665H46.779C47.364 38.665 47.917 38.742 48.455 38.742C49.193 38.742 49.87 38.588 50.454 37.924C50.4852 37.8793 50.5211 37.8381 50.561 37.801C50.577 37.878 50.608 37.94 50.623 38.001C50.915 38.741 51.361 38.958 51.883 38.958C52.637 38.958 53.559 38.511 54.451 38.511C54.559 38.511 54.651 38.511 54.758 38.526H54.774C55.512 38.094 56.065 37.138 57.095 36.922C58.833 36.567 62.445 37.801 63.475 38.819C64.136 39.482 64.029 40.639 64.921 40.87L65.028 40.901C65.136 42.706 66.504 43.863 67.688 44.804C68.103 44.789 67.872 44.125 68.426 44.218C68.964 44.696 69.071 45.606 69.717 45.961H69.733C70.209 45.976 70.363 45.652 70.809 45.621H70.916C70.962 45.621 70.993 45.621 71.039 45.637C71.085 45.637 71.132 45.652 71.178 45.667C71.439 45.437 71.378 44.897 71.608 44.65C72.653 44.68 72.761 45.668 73.838 45.668C73.914 45.668 73.991 45.668 74.068 45.652C74.421 45.375 74.683 45.004 74.868 44.557C74.96 44.357 75.037 44.141 75.083 43.909C75.759 44.557 76.605 45.344 77.619 45.282C78.0095 45.2583 78.3865 45.1305 78.711 44.912C78.972 44.079 78.526 43.462 78.557 43.045V43.03C79.234 43.184 80.079 43.678 80.817 43.6C81.109 43.57 81.371 43.447 81.601 43.184C81.509 42.644 81.324 42.213 81.309 41.58C82.816 42.012 83.615 41.426 83.354 39.683H84.23C84.2601 39.656 84.2861 39.6246 84.307 39.59C84.691 39.081 84.937 38.294 84.66 37.508C83.692 37.107 82.77 36.69 82.477 35.61C80.479 35.055 78.865 34.099 77.25 33.142C77.312 32.788 76.989 32.818 77.112 32.402C78.465 32.448 79.464 32.849 80.74 32.988C80.7676 32.8406 80.773 32.69 80.756 32.541V32.51C80.756 32.464 80.74 32.417 80.74 32.356C80.74 32.34 80.74 32.309 80.725 32.294C80.725 32.264 80.709 32.217 80.709 32.186C80.663 31.939 80.586 31.708 80.602 31.384C80.709 31.384 80.802 31.369 80.909 31.369C82.124 31.369 83.185 31.8 84.276 31.785C84.553 31.785 84.83 31.755 85.106 31.677C85.245 30.998 84.522 31.183 84.676 30.505C84.7945 30.4632 84.9194 30.4422 85.045 30.443C85.783 30.428 86.382 30.998 87.335 30.998C87.412 30.998 87.505 30.998 87.582 30.983C87.658 30.968 87.751 30.968 87.842 30.937L87.889 30.844C88.073 30.412 87.566 30.458 87.705 29.764C87.935 29.734 88.165 29.718 88.365 29.718C89.826 29.703 90.672 30.288 92.04 30.351C92.501 29.811 91.517 29.795 91.748 29.039C93.362 29.086 96.052 29.656 96.544 28.16C96.344 27.774 95.868 27.666 95.807 27.142C97.867 26.679 101.249 27.558 102.048 25.831C101.464 25.692 101.157 25.276 100.742 24.951C103.14 24.288 105.707 23.826 107.414 22.468C107.429 22.422 107.429 22.391 107.429 22.36C107.429 21.867 106.553 22.237 106.691 21.604C107.383 20.956 108.966 21.172 109.612 20.463C109.658 20.417 109.689 20.37 109.735 20.309C109.843 19.769 109.12 20.046 109.013 19.722C109.689 18.812 111.334 18.89 111.949 17.902C111.994 17.8348 112.03 17.7623 112.057 17.686C111.964 17.455 111.703 17.393 111.38 17.378C111.119 17.378 110.811 17.408 110.535 17.408C110.258 17.408 110.027 17.378 109.889 17.239C110.611 15.681 112.795 15.589 113.517 14.03C113.333 13.984 113.425 13.86 113.517 13.738C113.363 13.398 112.718 13.552 112.487 13.306C113.21 12.086 114.809 11.748 115.101 10.097C115.053 10.0494 114.995 10.0124 114.931 9.98848C114.868 9.96455 114.8 9.95416 114.732 9.958Z"/>
</g>
<defs>
<clipPath id="clip0_1_167">
<rect width="116" height="46" fill="white"/>
</clipPath>
</defs>
</svg>
