<svg width="32" height="67" viewBox="0 0 32 67" xmlns="http://www.w3.org/2000/svg">
<g clip-path="url(#clip0_1_41)">
<path d="M18.387 0.259003H16.916V1.646C17.423 1.697 17.908 1.786 18.386 1.917V0.260003L18.387 0.259003ZM15.202 0.259003H13.731V1.917C14.209 1.785 14.694 1.697 15.202 1.646V0.259003ZM21.637 0.259003H20.167V2.629C20.6882 2.91012 21.1805 3.24171 21.637 3.619V0.259003ZM11.95 0.259003H10.48V3.619C10.9364 3.24171 11.4288 2.91012 11.95 2.629V0.259003Z"/>
<path d="M29.787 0.260003V12.043C29.331 12.469 28.764 12.983 28.073 13.555V0.259003H26.602V14.722C26.028 15.169 25.432 15.595 24.822 15.998V0.260003H23.351V5.55C24.2759 6.95753 24.7669 8.60579 24.763 10.29C24.7693 11.9886 24.2784 13.6519 23.351 15.075V16.938C22.77 17.298 22.196 17.65 21.637 18.002V17.012C21.1808 17.3919 20.6884 17.7261 20.167 18.01V18.97C19.504 19.433 18.901 19.91 18.387 20.416V18.714C17.908 18.846 17.423 18.934 16.915 18.986V22.442C16.4188 23.4222 16.1262 24.4927 16.055 25.589C15.9874 24.4921 15.6946 23.4209 15.195 22.442V18.986C14.6975 18.9372 14.2051 18.8462 13.723 18.714V20.416C13.1707 19.8859 12.5753 19.4026 11.943 18.971V18.01C11.42 17.7287 10.9274 17.3943 10.473 17.012V18C9.91301 17.648 9.34001 17.296 8.75901 16.936V15.073C7.83465 13.6488 7.34377 11.9869 7.34601 10.289C7.34601 8.542 7.86101 6.913 8.75901 5.549V0.260003H7.28801V15.998C6.67655 15.5985 6.08266 15.1728 5.50801 14.722V0.259003H4.03701V13.555C3.44878 13.0705 2.87712 12.5662 2.32301 12.043V0.260003H0.859009V10.958H0.867009C0.881009 12.066 0.970009 15.031 1.41101 16.461C2.02101 18.237 2.20501 20.621 5.39701 23.124C2.20501 20.62 0.860009 18.97 0.860009 18.97C0.860009 18.97 0.860009 23.189 1.41201 24.899C2.02201 26.674 2.20601 29.118 5.39801 31.561C2.20501 29.118 0.860009 27.467 0.860009 27.467C0.860009 27.467 0.860009 31.627 1.41201 33.395C2.02201 35.105 2.20601 37.555 5.39801 39.999C2.20501 37.556 0.860009 35.905 0.860009 35.905C0.860009 35.905 0.860009 40.065 1.41201 41.834C2.02201 43.544 2.20601 45.994 5.39801 48.437C2.20501 45.994 0.860009 44.343 0.860009 44.343C0.860009 44.343 0.860009 48.503 1.41201 50.272C2.02201 52.047 2.20601 54.432 5.39801 56.876C8.52401 59.319 12.511 60.97 14.408 63.42C14.474 63.523 14.541 63.619 14.607 63.714C14.445 63.964 14.342 64.264 14.342 64.587C14.342 65.563 15.136 66.297 16.056 66.297C16.976 66.297 17.769 65.563 17.769 64.587C17.769 64.272 17.674 63.978 17.512 63.729C17.578 63.626 17.645 63.531 17.703 63.428C19.601 60.984 23.587 59.334 26.713 56.883C29.898 54.439 30.082 52.055 30.7 50.279C31.251 48.503 31.251 44.35 31.251 44.35C31.251 44.35 29.905 46.001 26.713 48.445C29.897 46 30.081 43.55 30.7 41.84C31.251 40.064 31.251 35.911 31.251 35.911C31.251 35.911 29.905 37.562 26.713 40.006C29.898 37.562 30.082 35.111 30.7 33.402C31.251 31.626 31.251 27.473 31.251 27.473C31.251 27.473 29.905 29.124 26.713 31.567C29.898 29.124 30.082 26.673 30.7 24.905C31.251 23.195 31.251 18.976 31.251 18.976C31.251 18.976 29.905 20.627 26.713 23.136C29.898 20.627 30.082 18.243 30.7 16.474C31.14 15.051 31.23 12.086 31.244 10.971H31.251V0.259003H29.788L29.787 0.260003Z"/>
<path d="M9.627 6.922C9.627 6.922 9.384 7.289 10.487 7.78C10.487 7.78 10.428 8.39 11.59 8.639C11.59 8.639 11.774 9.314 12.878 9.497C12.878 9.497 13.613 10.29 15.025 10.231C15.025 10.231 14.349 16.71 13.555 18.177C14.783 18.603 16.07 18.544 16.07 18.544C16.07 18.544 17.357 18.603 18.585 18.177C17.791 16.71 17.115 10.231 17.115 10.231C18.526 10.29 19.262 9.497 19.262 9.497C20.365 9.314 20.549 8.639 20.549 8.639C21.711 8.397 21.652 7.78 21.652 7.78C22.755 7.289 22.512 6.922 22.512 6.922C22.512 6.922 23.005 6.614 23.123 6.247C23.241 5.88 22.88 6.005 22.88 6.005C22.88 6.005 19.755 7.715 16.813 7.78L16.673 6.07V5.946C16.916 5.762 17.041 5.52 17.041 5.153C17.041 4.713 16.761 4.346 16.364 4.222L16.054 2.952L15.996 3.077L15.739 4.222C15.5453 4.28653 15.377 4.41064 15.2581 4.5766C15.1392 4.74255 15.0758 4.94185 15.077 5.146C15.077 5.513 15.202 5.756 15.444 5.939C15.504 5.939 15.444 6.063 15.444 6.063L15.319 7.773C12.377 7.714 9.252 5.997 9.252 5.997C9.252 5.997 8.884 5.872 9.009 6.239C9.134 6.621 9.627 6.922 9.627 6.922ZM16.062 5.454C16.0209 5.4563 15.9798 5.44992 15.9413 5.43527C15.9028 5.42062 15.8679 5.39803 15.8387 5.36897C15.8096 5.33991 15.7869 5.30504 15.7721 5.26662C15.7573 5.2282 15.7508 5.1871 15.753 5.146C15.753 5.021 15.878 4.904 16.063 4.904C16.246 4.904 16.371 5.029 16.371 5.146C16.364 5.336 16.246 5.454 16.062 5.454Z"/>
</g>
<defs>
<clipPath id="clip0_1_41">
<rect width="32" height="67" fill="white"/>
</clipPath>
</defs>
</svg>
