<svg width="94" height="61" viewBox="0 0 94 61" xmlns="http://www.w3.org/2000/svg">
<g clip-path="url(#clip0_1_50)">
<path d="M23.038 14.168C23.038 14.618 23.378 14.958 23.829 14.958C24.279 14.958 24.621 14.618 24.621 14.168C24.621 13.718 24.28 13.255 23.829 13.255C23.379 13.268 23.038 13.718 23.038 14.168Z"/>
<path d="M76.944 27.35C72.058 27.459 63.406 30.526 63.406 30.526C63.406 30.526 62.041 29.504 60.444 29.163C56.801 28.481 48.504 30.185 47.48 30.294C46.347 30.404 44.641 30.744 42.471 30.526C37.695 30.294 28.715 26.777 27.118 19.73C29.056 19.048 30.871 16.09 30.871 16.09L26.846 15.872L29.288 13.268L26.545 12.941C26.4955 12.6627 26.4225 12.3891 26.327 12.123C25.986 10.992 24.389 8.82401 23.939 7.46101C23.598 6.09801 23.489 0.877015 23.147 0.536015C22.697 0.196015 19.517 1.00001 19.517 1.00001L20.431 1.91301L19.981 2.70301L20.663 3.61701L19.981 4.74801L20.663 5.77101L19.981 6.90201L20.773 7.81501L19.858 9.17901L20.882 10.651L18.384 10.883L19.067 9.51901L18.494 8.38801L19.626 7.70601L18.493 6.68401L19.285 5.77101L18.494 4.85701L19.285 3.60301L18.494 2.58101L19.067 1.32701C19.067 1.32701 17.252 1.21701 16.787 1.55801C15.997 2.24001 16.897 11.782 16.679 13.595C16.337 15.408 15.764 17.235 15.546 18.707C15.327 20.18 15.314 25.864 15.314 25.864C15.314 25.864 15.546 31.317 12.244 39.046C8.59899 47.675 6.33399 50.06 4.62799 51.656C3.03099 53.25 -0.380007 53.467 0.533993 55.062C1.10699 56.085 3.49499 55.976 5.54199 54.722C7.58999 53.467 14.754 44.839 15.327 44.157C15.777 43.475 16.583 42.453 17.825 43.025C18.507 43.366 19.08 44.048 18.848 46.325C16.01 58.02 9.18599 57.911 8.72199 58.143C8.27199 58.375 7.93099 58.825 8.27199 59.397C8.50399 60.079 9.40499 61.101 14.304 58.716C19.189 56.33 23.174 50.086 23.624 49.282C24.198 48.601 24.88 47.006 26.245 46.556C27.61 46.106 28.633 47.579 29.998 47.579C31.813 47.579 32.045 45.875 33.983 45.983C35.238 45.983 35.348 47.115 37.053 47.115C38.869 47.005 39.1 45.752 40.697 45.752C42.171 45.642 42.062 47.006 44.109 47.006C46.265 46.896 45.706 45.411 48.312 45.411C50.81 45.411 49.909 46.324 52.174 47.115C52.748 47.347 62.301 50.073 64.116 51.436C64.907 52.009 66.613 53.249 66.272 55.185C66.04 55.758 65.139 56.548 65.016 56.889C65.016 57.339 65.126 57.679 65.466 57.911C65.808 58.252 66.599 58.021 66.831 57.802C67.172 57.693 68.196 57.012 68.428 55.417C68.538 49.514 61.495 43.039 61.495 43.039C61.495 43.039 70.365 45.316 73.205 50.305C73.545 51.095 73.778 51.559 73.545 52.581C73.205 53.713 71.499 55.54 72.631 56.098C74.446 56.889 74.911 55.185 75.019 54.626C75.129 54.286 76.152 48.833 74.228 46.106C72.522 44.293 71.048 44.062 69.561 42.248C68.087 40.435 67.404 36.687 66.599 35.323C65.917 34.069 64.32 32.938 64.32 32.938C64.32 32.938 68.182 35.214 72.058 35.896C78.772 36.918 81.952 36.236 86.838 34.765C90.482 33.742 93.661 31.357 93.661 31.357C93.661 31.357 88.653 26.436 76.944 27.35ZM24.06 17.017C22.928 16.104 22.587 13.037 23.487 11.564C24.975 12.587 24.975 15.422 24.06 17.017ZM26.79 17.126L28.264 17.016L27.008 18.612L26.79 17.126Z"/>
</g>
<defs>
<clipPath id="clip0_1_50">
<rect width="94" height="61" fill="white"/>
</clipPath>
</defs>
</svg>
