<svg width="70" height="71" viewBox="0 0 70 71" xmlns="http://www.w3.org/2000/svg">
<g clip-path="url(#clip0_1_129)">
<path d="M62.723 26.453C62.683 26.122 62.543 24.225 61.697 22.71C61.3953 22.1675 61.0696 21.6386 60.721 21.125C60.087 20.182 59.484 19.63 58.951 19.259C59.181 19.029 59.242 18.767 58.951 18.416L58.981 18.376C59.0246 18.2998 59.0507 18.2148 59.0572 18.1272C59.0637 18.0396 59.0505 17.9517 59.0185 17.8698C58.9866 17.788 58.9367 17.7144 58.8726 17.6544C58.8085 17.5944 58.7317 17.5495 58.648 17.523C58.628 17.523 58.618 17.513 58.608 17.513L58.628 17.453C58.688 17.223 58.608 16.961 58.387 16.861C58.377 16.861 58.357 16.851 58.357 16.851L58.287 16.821C58.277 16.329 57.642 16.259 57.039 16.309C57.109 15.969 57.209 15.677 57.129 15.186C56.969 14.222 55.852 12.436 55.549 12.026C50.4 4.97101 43.065 0.557007 34.936 0.557007C26.977 0.557007 19.803 4.78001 14.672 11.573C14.24 12.155 13.234 13.76 13.234 13.76C13.234 13.76 12.912 14.232 12.751 15.195C12.661 15.696 12.771 15.987 12.851 16.348C12.197 16.288 11.594 16.288 11.382 16.418C11.252 16.498 11.222 16.649 11.222 16.75L11.232 16.78C11.1662 16.8129 11.1079 16.8591 11.061 16.9158C11.0142 16.9725 10.9796 17.0383 10.9597 17.1091C10.9397 17.1799 10.9348 17.2541 10.9451 17.3269C10.9555 17.3998 10.981 17.4696 11.02 17.532L11.01 17.552C10.829 17.773 10.88 18.044 11.02 18.275L11 18.295C10.688 18.706 10.9 18.927 11.221 19.067C10.618 19.439 9.90297 20 9.13897 21.124C8.77237 21.6674 8.42971 22.2266 8.11197 22.8C7.32797 24.254 7.18697 26.06 7.14697 26.371C6.73397 29.722 4.15797 32.391 0.857971 32.973L4.10797 41.27C7.08597 40.467 9.31997 37.147 9.31997 33.174L9.29997 31.849C9.55097 27.405 10.708 23.231 12.56 19.559C14.713 20.683 16.262 23.442 17.188 25.499L17.198 25.539C17.318 26.09 17.439 26.702 17.821 27.134L17.851 27.164C17.972 27.806 18.133 28.498 18.556 29.01V29.04C18.656 29.512 18.706 30.043 19.059 30.385L19.079 30.415C19.139 31.037 19.361 31.679 19.753 32.15L19.763 32.18V32.19C19.863 32.692 19.964 33.274 20.377 33.615L20.397 33.635C20.618 34.237 20.749 35.12 21.413 35.371L21.423 35.391C21.625 35.792 22.027 36.053 22.46 36.153L22.47 36.163C22.751 36.464 23.154 36.725 23.577 36.745L23.597 36.765C23.908 37.046 24.381 37.197 24.794 37.197H24.814C25.146 37.427 25.609 37.437 26.001 37.417L26.021 37.487C26.655 40.317 24.804 44.611 25.257 47.521C25.337 48.042 25.76 48.654 25.177 48.965L25.116 48.995C24.814 49.126 24.482 49.317 24.301 49.597L24.251 49.677C23.748 49.878 23.275 50.33 23.023 50.832L22.973 50.862C22.4785 51.1991 22.1187 51.6998 21.957 52.276L21.937 52.346C21.373 52.828 21.132 53.651 21.051 54.383L21.001 54.443C20.528 55.085 20.588 56.009 20.548 56.801V56.861C20.176 57.754 20.367 58.848 20.518 59.801L20.498 59.861C20.317 60.644 20.538 61.517 20.749 62.299L20.779 62.429C20.508 63.312 21.262 64.958 20.769 65.971C19.341 68.861 15.155 66.232 13.948 69.081C13.868 69.262 14.028 69.774 14.532 69.704L14.542 69.774C14.602 70.154 14.884 70.376 15.266 70.305L15.356 70.285C15.487 71.168 16.745 70.365 17.167 70.315C18.837 70.125 20.629 70.476 21.947 70.476C23.868 70.476 25.237 70.175 25.709 68.289C26.031 67.015 26.142 65.039 27.199 63.744C27.5693 63.2785 28.0025 62.8666 28.486 62.52C30.026 61.426 31.988 60.844 33.849 59.79L33.939 59.831C34.302 60.011 34.734 60.493 35.046 60.764C36.867 62.339 39.816 63.152 40.308 65.941C40.368 66.272 40.398 66.533 40.358 66.774C40.067 68.7 37.159 67.516 36.042 67.877C35.71 67.987 33.457 69.362 34.342 69.824C34.362 69.834 34.472 69.834 34.664 69.854L34.674 69.914C34.704 70.195 34.925 70.366 35.207 70.335L35.287 70.315C35.368 71.198 36.394 70.596 37.008 70.496C38.849 70.206 41.113 71.018 42.743 70.807C46.274 70.356 44.313 65.51 44.846 62.991C44.896 62.751 44.966 62.339 44.866 62.209L44.876 62.149C45.158 61.045 45.5 59.861 45.278 58.748L45.258 58.668C45.368 58.025 45.54 57.283 45.328 56.661L45.308 56.611C45.308 56.591 45.429 54.283 44.976 53.31L44.966 53.25C44.836 52.487 44.896 51.614 44.473 50.972L44.433 50.912C44.403 50.601 44.333 50.23 44.253 49.929C43.709 47.751 42.159 45.735 41.727 43.899C41.334 42.233 41.757 39.575 43.236 37.839L43.286 37.829C43.799 37.699 44.323 37.518 44.746 37.217L44.816 37.177C45.47 37.097 46.093 36.725 46.556 36.274L46.596 36.254C47.28 36.003 47.884 35.461 48.286 34.849L48.326 34.799C49.172 34.257 49.736 33.294 50.118 32.371L50.188 32.291C50.912 31.508 51.275 30.384 51.567 29.351L51.587 29.271C52.18 28.538 52.462 27.555 52.794 26.672L52.854 26.622C53.166 26.352 53.337 25.89 53.589 25.438C54.454 23.843 56.014 21.275 57.161 20.392C57.291 20.292 57.432 20.202 57.583 20.121C59.283 23.662 60.34 27.645 60.581 31.879L60.561 33.204C60.561 37.177 62.795 40.498 65.773 41.3L69.023 33.003C65.733 32.391 63.167 29.773 62.724 26.452L62.723 26.453ZM52.974 18.175C50.529 20.252 50.358 23.292 47.048 24.707C42.842 26.503 40.74 24.677 39.663 20.463C39.15 18.456 38.526 15.898 37.198 14.183C36.967 13.891 36.584 13.61 36.484 13.289C36.283 12.597 36.444 11.955 36.242 11.413C35.639 9.85801 34.069 10.902 33.777 11.583C33.777 11.503 33.767 11.443 33.767 11.443C33.647 9.90801 31.584 10.681 31.745 12.005L31.605 12.125C31.393 12.145 31.071 12.135 30.82 12.205C29.522 12.527 28.596 14.092 26.996 14.463C26.161 14.643 23.314 14.173 24.149 15.778C24.069 16.098 23.907 16.771 24.059 17.072C24.471 17.874 26.352 16.801 27.107 17.142C27.57 17.352 26.865 17.624 26.725 17.664C25.698 17.994 24.058 17.464 24.169 18.326C24.279 19.159 25.447 18.908 26.02 18.978C27.127 19.108 28.375 19.53 28.717 21.065C28.948 22.058 28.747 23.272 28.647 23.643C28.485 24.275 28.012 25.349 26.946 25.58C26.181 25.75 25.326 25.309 24.642 24.797C22.559 23.212 20.788 20.453 18.394 18.457C17.3864 17.606 16.1947 17.001 14.913 16.69C14.823 16.67 14.601 16.63 14.329 16.58C19.008 9.52701 26.503 4.96201 34.944 4.96201C43.436 4.96201 50.962 9.57701 55.64 16.701C54.644 17.031 53.628 17.614 52.974 18.175Z"/>
</g>
<defs>
<clipPath id="clip0_1_129">
<rect width="70" height="71" fill="white"/>
</clipPath>
</defs>
</svg>
