<svg width="75" height="57" viewBox="0 0 75 57" xmlns="http://www.w3.org/2000/svg">
<g clip-path="url(#clip0_1_45)">
<path d="M21.528 5.80501C22.261 3.60601 20.226 1.73001 20.06 1.73001C19.816 1.73001 18.514 4.41701 18.182 5.47301C17.937 6.61601 19.571 8.89301 19.571 8.89301C19.571 8.89301 20.881 8.00301 21.528 5.80501ZM27.24 9.14701C28.386 7.19301 26.752 4.91601 26.585 4.82701C26.419 4.82701 24.55 7.10501 24.061 8.17001C23.494 9.14701 24.629 11.756 24.629 11.756C24.629 11.756 26.095 11.18 27.24 9.14701Z"/>
<path d="M73.711 1.984C73.467 1.906 67.519 3.284 62.382 3.861C61.072 4.017 50.554 5.317 44.762 7.926C38.971 10.613 39.871 14.444 39.792 15.499C40.448 19.574 42.894 22.506 42.894 22.506C42.894 22.506 41.182 23.161 38.814 20.718C36.534 18.275 36.447 14.532 33.756 14.532C31.633 14.532 29.921 16.164 29.921 16.164C29.921 16.164 29.657 16.34 28.258 16.731L28.043 16.164C27.632 14.776 25.92 11.444 18.015 8.268C17.379 8.004 16.009 7.76 14.512 7.545C14.904 7.135 15.647 6.167 16.058 4.525C16.626 2.326 14.424 0.615997 14.268 0.615997C14.101 0.615997 12.967 3.304 12.722 4.446C12.536 5.326 13.554 6.831 14.033 7.476C11.47 7.125 8.72097 6.89 8.72097 6.89V7.046C8.01597 6.88 6.66597 6.704 5.30597 7.271C3.27097 8.092 0.659973 10.535 0.659973 10.535C0.659973 10.535 3.67297 11.102 5.87497 9.968C6.93102 9.48026 7.87633 8.78199 8.65297 7.916L8.64297 8.014C8.64297 8.014 10.669 7.965 13.32 8.366C12.615 8.542 11.686 8.893 10.845 9.568C9.21097 10.868 7.41997 13.555 7.41997 13.555C7.41997 13.555 10.356 12.9 12.146 11.355C13.486 10.193 14.073 9.079 14.298 8.532C15.502 8.757 16.793 9.069 18.055 9.519C17.3057 9.60535 16.5755 9.81306 15.893 10.134C14.014 11.034 11.735 13.31 11.735 13.31C11.735 13.31 14.748 13.31 16.871 12.167C18.172 11.415 18.955 10.574 19.356 10.037C19.699 10.193 20.041 10.359 20.374 10.535C21.4569 11.053 22.4775 11.6924 23.416 12.441C22.731 12.284 21.391 12.069 19.972 12.411C18.016 12.978 15.247 14.776 15.247 14.776C15.247 14.776 18.182 15.343 20.55 14.61C22.36 14.034 23.397 13.086 23.759 12.724C25.119 13.926 26.097 15.363 26.743 17.122C26.615 17.151 26.488 17.18 26.341 17.219C26.508 17.288 26.684 17.356 26.851 17.434C27.408 18.724 27.643 20.337 27.887 22.105C27.662 24.275 27.134 25.721 26.577 26.796C26.39 25.995 25.911 24.324 25.118 23.894C24.14 23.327 21.283 22.506 21.127 22.594C21.049 22.76 20.961 25.526 23.084 26.503C24.541 27.255 25.744 27.304 26.312 27.275C25.931 27.94 25.549 28.457 25.285 28.946C24.551 30.246 21.782 33.344 21.782 33.344L22.35 33.588C22.35 33.588 25.148 31.79 27.515 27.265C28.015 27.324 29.413 27.382 31.233 26.669C31.713 26.454 32.173 26.18 32.593 25.878C32.945 27.871 33.503 30.099 34.569 31.468C35.019 32.073 35.597 32.591 36.213 33.05C35.577 33.881 34.873 34.839 34.158 35.953C31.713 39.695 33.503 42.715 34.403 44.337C38.238 48.813 42.396 49.546 46.71 51.1C51.113 52.566 64.731 56.064 65.22 56.152C65.631 56.23 65.71 55.986 65.22 54.931C64.731 54.119 63.753 53.787 63.753 53.787C63.753 53.787 64.163 53.299 63.185 52.077C62.775 51.588 61.718 50.934 61.718 50.934C61.718 50.934 62.285 50.445 60.818 48.901C60.495 48.578 59.184 47.679 59.184 47.679C59.184 47.679 59.595 47.513 58.939 46.379C58.206 45.324 51.113 41.659 51.113 41.659C51.113 41.659 51.299 39.129 50.516 36.5C52.15 36.324 53.989 36.549 54.86 36.608C58.206 36.93 62.931 41.005 63.665 41.494C64.32 41.982 65.055 42.959 66.111 41.816C66.6 41.249 65.944 40.028 65.944 40.028C65.944 40.028 66.678 39.95 67.001 39.295C67.324 38.64 66.591 37.829 66.591 37.829C66.591 37.829 67.491 37.751 67.735 36.852C68.058 35.952 67.079 35.464 67.079 35.464C67.079 35.464 68.136 34.897 68.136 34.164C68.136 33.354 67.236 32.62 67.236 32.62C67.236 32.62 68.38 32.21 68.292 31.233C68.292 30.256 67.148 29.767 67.148 29.767C67.148 29.767 68.126 29.112 68.048 28.223C67.97 27.323 66.903 26.923 66.903 26.923C66.903 26.923 67.637 26.268 67.393 25.457C67.226 24.558 66.169 24.48 66.169 24.48C66.169 24.48 67.314 23.425 66.737 22.526C66.414 21.793 65.347 22.116 65.103 22.281C64.693 22.526 59.478 25.291 57.032 25.946C54.586 26.513 52.385 26.435 52.385 26.435C52.385 26.435 53.363 25.624 53.685 25.291C56.455 22.526 56.132 17.229 56.132 17.229C56.132 17.229 57.599 16.819 59.634 15.763C61.669 14.62 61.757 13.809 61.757 13.809C61.757 13.809 63.88 12.909 64.77 12.509C67.216 11.61 66.649 10.555 66.649 10.555C66.649 10.555 69.173 9.167 69.584 8.6C70.885 7.134 69.662 7.379 69.662 7.379C69.662 7.379 70.64 6.89 71.296 6.323C71.951 5.756 71.951 4.936 71.951 4.936C71.951 4.936 72.851 4.124 73.585 3.392C74.28 2.552 74.034 2.062 73.711 1.984ZM30.254 24.617C29.207 25.115 28.414 25.877 27.916 26.444L27.974 26.327C29.735 22.662 29.304 19.789 28.835 18.392C29.393 18.695 29.765 18.91 29.765 18.91C29.765 18.91 31.799 20.62 32.132 22.74C32.182 23.083 32.24 23.493 32.308 23.943C31.584 24.138 30.851 24.363 30.254 24.617ZM32.778 18.265C32.288 18.265 31.966 17.855 31.966 17.365C31.966 16.877 32.289 16.555 32.778 16.555C33.267 16.555 33.678 16.877 33.678 17.365C33.6754 17.6029 33.5797 17.8303 33.4115 17.9985C33.2433 18.1667 33.0159 18.2624 32.778 18.265Z"/>
</g>
<defs>
<clipPath id="clip0_1_45">
<rect width="75" height="57" fill="white"/>
</clipPath>
</defs>
</svg>
