<svg width="64" height="86" viewBox="0 0 64 86" xmlns="http://www.w3.org/2000/svg">
<g clip-path="url(#clip0_1_176)">
<path d="M62.627 23.752C62.5281 23.6215 62.3981 23.5177 62.249 23.45C64.049 20.88 63.595 19.127 63.202 18.673C63.1019 18.5543 62.9712 18.4654 62.824 18.416C63.293 17.313 63.444 16.451 63.444 15.953C63.444 14.593 62.944 14.093 62.537 14.078C61.932 14.078 59.815 19.973 55.567 23.148C51.317 26.307 48.535 27.032 48.535 27.032C46.736 27.562 41.868 29.285 39.161 32.792C37.301 35.331 35.063 40.092 34.322 40.772C33.566 41.438 32.614 41.438 32.614 41.438C32.614 41.438 30.044 38.384 30.044 35.361C30.044 28.589 41.55 19.505 41.55 16.119C41.55 14.562 39.917 13.821 39.917 13.821C39.917 13.821 35.487 1.48699 34.58 0.730988C36.152 6.59599 37.105 14.819 37.105 14.819C37.105 14.819 37.875 19.127 34.761 22.589C32.599 25.823 26.188 28.272 24.918 35.785C24.721 36.964 24.842 39.715 24.842 39.715C24.842 39.715 24.056 39.73 23.572 38.324C23.088 36.918 22.227 31.386 21.939 30.584C21.682 29.829 20.321 26.231 15.589 23.586L15.604 23.556C15.604 23.556 13.472 22.709 9.586 18.628C5.686 14.547 4.506 8.00199 4.476 7.78999C4.43 7.56299 4.355 7.15499 4.037 7.15499C3.719 7.15499 2.177 9.22599 2.616 11.508C2.419 11.493 2.207 11.508 2.056 11.599C1.618 11.917 1.27 12.038 1.24 14.486C1.24 15.136 1.436 15.922 1.769 16.754C1.61524 16.7315 1.45827 16.7555 1.31823 16.8229C1.17819 16.8902 1.06146 16.9979 0.983001 17.132C0.423001 17.993 0.695001 19.338 1.103 20.562C1.225 20.91 1.467 21.455 1.875 22.105C1.013 23.193 1.165 24.13 1.648 25.279C1.905 25.899 2.283 26.534 3.084 27.229C2.948 27.305 2.827 27.441 2.722 27.652C2.344 28.453 2.646 29.421 3.16 30.116C3.311 30.328 3.462 30.494 3.674 30.646C3.55451 30.8377 3.48188 31.0549 3.462 31.28C3.432 31.854 3.856 32.383 4.128 32.761C4.324 33.048 4.551 33.321 5.851 33.699C5.609 33.895 5.352 34.212 5.368 34.666C5.383 35.331 5.73 36.193 7.454 36.54C7.364 36.737 7.303 36.994 7.364 37.311C7.439 37.734 7.772 38.415 8.875 38.611C9.238 38.641 9.631 38.641 10.025 38.626C9.783 38.838 9.465 39.246 9.45 39.896C9.435 41.922 10.796 42.073 11.567 41.997C11.431 42.087 11.34 42.148 11.325 42.178C11.128 42.405 10.236 43.615 11.235 44.778C12.096 45.776 12.535 45.64 12.867 45.549L12.777 45.625C12.777 45.625 11.99 46.97 13.018 48.179C13.895 49.222 14.455 49.056 14.878 48.889C14.848 49.404 14.938 50.371 15.816 51.218C16.98 52.336 17.494 51.943 17.811 51.838L17.781 51.898C17.781 51.898 17.433 53.077 19.233 53.999C20.593 54.679 21.108 54.135 21.304 53.742C21.622 54.332 22.272 55.118 23.481 55.072C24.767 55.042 24.933 54.543 25.024 54.135C25.114 54.195 25.22 54.256 25.326 54.316C25.553 54.679 26.686 56.674 26.747 60.408C26.807 62.041 26.777 63.038 26.717 63.643H26.687C26.687 63.643 26.672 63.855 26.641 64.248C26.626 64.368 26.596 64.414 26.596 64.414C26.596 64.414 26.596 64.429 26.611 64.459C26.384 66.606 25.538 72.591 22.605 77.534H23.542C24.162 77.534 24.752 77.594 25.326 77.716L27.76 78.623C28.5379 79.0534 29.2465 79.5985 29.862 80.24L32.221 85.259C32.236 85.379 32.251 85.515 32.251 85.636H32.296C32.4295 83.7751 33.1557 82.006 34.368 80.588L36.47 78.788C37.8434 77.9447 39.4244 77.5001 41.036 77.504H42.261C40.401 72.561 36.575 64.958 35.653 63.144L33.294 58.474C33.294 58.474 33.688 54.951 33.688 54.982C33.4 54.982 33.188 54.876 33.022 54.74C33.2114 54.8916 33.4455 54.9773 33.688 54.982C34.882 55.058 35.487 54.377 35.623 54.135C35.653 54.362 35.743 55.315 36.969 55.284C38.193 55.254 39.055 54.301 39.176 53.515C39.176 53.485 39.191 53.455 39.191 53.425C39.342 53.682 39.63 53.939 40.219 53.863C41.989 53.697 42.306 52.155 42.351 51.853C42.366 51.732 42.381 51.55 42.397 51.369C42.563 51.565 42.865 51.807 43.334 51.747C44.619 51.55 45.118 50.371 45.224 49.615C45.27 49.283 45.239 48.965 45.209 48.708C45.375 48.814 45.557 48.89 45.753 48.86C47.16 48.814 47.523 47.152 47.523 46.804C47.523 46.607 47.356 46.139 47.205 45.746C47.568 45.896 48.233 45.988 48.974 45.186C49.957 44.144 49.579 43.373 49.443 43.01C49.391 42.8945 49.3301 42.7831 49.261 42.677C50.546 43.191 52.693 43.781 53.056 42.073C53.094 41.924 53.094 41.7679 53.056 41.619C53.873 41.695 54.901 41.649 55.128 40.032C55.1599 39.7692 55.0893 39.5042 54.931 39.292C56.776 39.034 57.366 37.674 57.471 37.281C57.531 36.994 57.517 36.767 57.471 36.586C57.804 36.48 57.91 36.359 58.137 36.162C58.484 35.845 59.029 34.908 59.029 34.122C59.029 33.834 58.878 33.638 58.666 33.487C59.0447 33.2723 59.4038 33.0247 59.739 32.747C60.435 32.142 61.448 30.917 61.115 29.3C61.0808 29.1089 61.0145 28.925 60.919 28.756C63.081 26.534 63.172 24.372 62.627 23.752ZM26.641 54.59C26.4 54.62 26.173 54.59 25.961 54.544C26.127 54.574 26.309 54.59 26.505 54.59C27.352 54.574 27.836 54.06 28.063 53.501C27.881 53.985 27.502 54.529 26.641 54.59Z"/>
</g>
<defs>
<clipPath id="clip0_1_176">
<rect width="64" height="86" fill="white"/>
</clipPath>
</defs>
</svg>
