<svg width="62" height="54" viewBox="0 0 62 54" xmlns="http://www.w3.org/2000/svg">
<g clip-path="url(#clip0_1_11)">
<path d="M17.855 0.89001C17.847 0.84701 17.847 0.80401 17.83 0.76001L17.856 0.89001H17.855ZM24.813 5.80301C24.865 5.75894 24.9041 5.70156 24.926 5.63701C24.891 5.69801 24.847 5.75101 24.813 5.80301ZM8.30798 6.57201C7.00398 5.89901 10.934 3.15501 9.34298 1.70401C9.99498 3.38201 4.92498 5.48801 7.16898 7.60401C5.57798 7.75201 6.52498 5.27001 6.22898 4.61401C6.15998 5.70701 5.35998 5.99501 4.99498 6.94801C4.70798 7.82201 5.64698 7.97001 5.64698 7.97001H6.95098C6.96098 7.97001 7.36898 7.31501 8.30798 6.57201Z"/>
<path d="M58.478 22.46C57.243 21.079 53.331 17.723 47.896 22.748C47.957 22.835 48.009 22.905 48.053 22.958C46.653 21.385 44.462 20.24 41.818 20.196C37.697 20.126 33.288 22.154 28.063 21.201C28.376 21.122 29.558 20.755 30.732 19.252C27.906 20.345 27.323 19.252 25.584 19.978C25.802 18.448 28.341 19.471 29.714 18.16C26.88 18.798 26.889 17.635 24.314 18.256C24.289 18.212 24.254 18.168 24.228 18.125C24.915 17.408 28.732 18.203 29.201 16.849C28.584 17.819 24.958 16.622 23.419 16.56C23.402 16.517 23.376 16.473 23.359 16.43C24.645 15.608 27.741 17.058 28.993 15.32C26.689 16.726 24.115 13.799 22.706 14.882C22.698 14.848 22.689 14.822 22.68 14.786C23.75 13.248 28.01 15.249 28.567 13.86C27.245 14.769 23.854 11.859 22.045 12.715C22.0351 12.6864 22.0265 12.6573 22.019 12.628C23.202 11.631 26.619 12.986 27.984 11.824C25.054 12.453 23.602 10.111 21.48 10.924L21.428 10.766C22.393 9.805 25.506 10.723 27.254 9.648C25.35 10.286 23.314 8.24 20.872 9.193C20.854 9.158 20.846 9.114 20.828 9.079C21.985 7.943 25.488 8.975 26.384 7.384C25.176 8.599 21.889 6.528 20.124 7.602C20.115 7.594 20.115 7.585 20.106 7.576C21.576 6.178 23.602 7.401 24.819 5.793C23.993 6.571 20.376 4.771 19.072 6.283C18.985 6.204 18.907 6.126 18.811 6.047C18.5863 5.80356 18.332 5.58922 18.054 5.409C18.002 5.374 17.941 5.339 17.872 5.295L17.767 5.217C18.272 5.505 18.707 5.863 19.072 6.274C19.942 4.674 23.202 5.182 23.124 3.731C22.619 4.971 18.706 3.294 17.62 5.111C17.55 4.019 20.81 3.512 20.663 1.765C19.107 3.041 17.35 2.595 16.393 4.526C16.376 4.517 16.359 4.517 16.341 4.509C16.567 3.477 18.246 2.909 17.863 0.873C17.976 1.974 15.507 3.346 14.872 4.325H14.785C14.802 3.451 16.907 1.555 15.594 0.375C16.464 1.685 13.133 3.871 12.985 4.526C12.481 4.378 14.794 2.123 13.568 0.524C14.272 2.647 11.228 3.303 10.794 5.129C9.85398 4.325 13.116 2.796 11.594 0.978C12.029 2.28 7.59398 5.523 8.31598 6.563C8.67198 6.283 8.68098 6.292 8.32398 6.571L8.31598 6.563L8.30698 6.571L8.31598 6.58C7.37598 7.323 6.95098 7.97 6.95098 7.97C6.95098 7.97 4.41098 8.337 4.41098 8.476C4.41098 8.983 6.22098 8.983 6.22098 8.983C6.22098 8.983 4.76798 9.35 4.19398 9.787C4.41198 10.443 6.00298 10.224 6.00298 10.224C6.00298 10.224 5.63798 10.591 5.56798 11.387C5.49798 12.191 5.49798 13.065 5.41998 13.641C5.34998 14.297 5.34998 14.515 4.98598 15.459C4.69898 16.403 3.75098 17.863 4.33298 18.229C4.55098 18.396 4.74298 18.352 4.89898 18.239C4.84598 18.588 4.92498 19.007 5.41998 19.322C6.50698 19.829 6.57698 17.067 7.22898 17.137C7.88098 17.286 6.79398 19.104 7.01198 19.322C7.29798 19.541 8.02898 19.541 8.38498 18.667C8.75098 17.723 8.09798 17.207 8.88998 15.677C9.27198 14.804 11.794 13.965 12.498 12.261L12.516 12.321C12.516 12.321 14.402 14.795 13.533 19.681C12.376 24.417 11.576 22.154 11.29 26.741C11.229 27.834 11.324 28.665 11.394 29.075C10.368 29.215 5.68098 29.067 3.81998 28.778C2.88098 28.63 1.71598 27.468 0.629978 28.848C-0.0920216 30.089 0.629978 30.308 1.71598 32.999C2.73298 35.184 3.38598 38.749 3.95998 39.047C4.89898 39.484 4.97698 39.047 5.33298 39.335C5.76798 39.624 5.48098 39.842 6.13298 40.498C6.78498 41.223 8.37698 41.302 8.37698 41.302L8.35098 41.232H8.37698L7.21998 37.885C7.21998 37.885 6.89798 38.007 6.61198 38.095C6.10698 38.217 5.46398 38.243 5.33298 37.587C5.04598 36.565 6.27298 36.644 6.13298 36.425C6.06298 36.137 5.04598 36.207 4.89898 36.137C4.75098 35.988 4.68098 35.848 4.61198 35.77C4.54198 35.691 2.53398 30.692 3.69898 30.543C4.93298 30.325 11.446 34.398 14.707 33.095C15.159 34.432 15.654 35.979 15.941 37.247C15.071 40.672 16.594 41.617 16.594 41.617C16.594 41.617 16.881 44.527 16.959 45.767C16.959 47.882 16.594 49.412 16.307 50.137C15.872 50.723 15.507 50.574 15.002 51.011C14.498 51.448 13.116 53.266 13.116 53.266L16.959 53.196C16.959 53.196 17.029 52.541 17.107 52.104C17.107 52.104 17.097 52.094 17.081 52.086C17.176 51.431 17.341 50.723 17.611 50.644C17.976 50.574 17.898 51.667 18.263 51.588C18.55 51.518 18.193 51.151 18.55 47.585C18.55 45.33 18.185 41.538 18.185 41.538C18.185 41.538 19.124 40.227 18.037 38.112C18.619 36.652 18.689 33.156 18.689 33.156C21.88 35.123 32.384 32.501 32.384 32.501H32.454C34.123 36.652 35.427 37.745 35.644 40.367C35.792 43.355 29.993 48.817 29.845 49.543C29.775 50.198 29.915 50.05 29.628 50.487C29.341 50.994 28.828 50.994 28.393 51.431C28.306 51.518 28.149 51.693 27.958 51.911C27.498 52.235 26.576 53.546 26.576 53.546H30.358C30.358 53.546 30.506 50.994 31.08 51.072C31.445 51.142 31.367 51.876 31.662 51.946C31.88 51.946 31.158 50.784 34.706 46.336C37.166 42.77 38.984 41.459 38.906 40.585C38.906 39.93 37.749 39.641 37.749 37.745C37.749 35.927 40.723 34.905 40.723 34.905C44.705 37.815 48.113 36.652 49.566 40.515C50.148 42.263 46.67 47.358 46.453 49.185L46.087 50.645C46.087 50.645 45.514 50.871 44.54 52.06C44.418 52.191 44.253 52.41 44.07 52.663C43.818 53.003 43.548 53.397 43.262 53.852L47.105 53.782C47.105 53.782 47.079 53.432 47.079 53.004L47.105 52.689C47.096 52.68 47.087 52.68 47.079 52.672C47.087 52.086 47.139 51.457 47.322 51.308C47.687 51.09 48.044 52.182 48.044 52.182C48.044 52.182 47.679 50.802 48.914 47.446C50.07 44.168 53.261 38.995 53.114 38.051C52.965 37.107 48.548 36.014 48.261 34.625C47.974 33.314 50.218 28.945 49.635 26.034C49.4429 25.1336 49.0607 24.2847 48.514 23.544C53.696 21.891 53.914 24.732 53.183 29.311C52.461 33.532 54.053 37.177 61.156 35.936C56.374 30.762 61.521 25.957 58.478 22.46ZM13.62 30.105C13.62 30.105 14.08 31.285 14.602 32.815L13.62 30.105ZM37.392 31.635C37.227 31.425 37.062 31.189 36.888 30.945C37.175 31.346 37.488 31.757 37.836 32.168C37.6761 32.0005 37.5278 31.8225 37.392 31.635Z"/>
</g>
<defs>
<clipPath id="clip0_1_11">
<rect width="62" height="54" fill="white"/>
</clipPath>
</defs>
</svg>
