<svg width="94" height="55" viewBox="0 0 94 55" xmlns="http://www.w3.org/2000/svg">
<g clip-path="url(#clip0_1_178)">
<path d="M39.63 54.588C39.63 54.588 44.184 48.868 44.184 44.042C44.184 43.06 43.996 38.521 40.458 38.521C38.362 38.521 37.547 39.255 37.547 40.038C37.547 41.543 40.27 39.852 40.27 41.878C40.27 43.906 37.923 44.204 37.07 44.204C36.217 44.204 33.72 43.57 33.72 39.665C33.72 33.982 42.415 34.131 42.415 30.263C42.415 29.629 42.076 27.9 40.408 27.9C38.738 27.9 38.475 28.423 38.475 28.933C38.475 29.965 40.408 29.082 40.408 30.923C40.408 32.763 38.111 32.539 37.773 32.539C37.433 32.539 35.05 32.203 35.05 28.709C35.05 24.02 43.532 24.319 43.532 21.185C43.532 19.009 41.888 18.971 41.186 18.971C40.47 18.971 39.516 19.233 39.516 20.078C39.516 20.924 40.144 20.998 40.144 21.807C40.144 22.615 39.065 23.349 38.061 23.349C37.057 23.349 35.865 22.615 35.865 20.215C35.865 15.675 43.055 15.825 43.055 12.505C43.055 11.062 42.051 10.54 41.525 10.54C40.997 10.54 39.993 10.701 39.993 11.435C39.993 12.169 41.6 11.982 41.6 12.903C41.6 13.823 40.86 14.557 39.48 14.557C38.111 14.557 37.02 13.462 37.02 11.647C37.02 7.38099 43.946 7.55499 43.946 5.11699C43.946 3.97399 43.13 3.42699 42.24 3.42699C41.336 3.42699 40.822 3.71199 40.822 4.19699C40.822 4.68199 41.349 4.79399 41.349 5.53999C41.349 6.27399 41.123 7.04499 39.529 7.04499C37.936 7.04499 37.496 5.82699 37.496 4.89399C37.496 3.96099 38.362 0.0809866 41.675 0.0809866C44.975 0.0809866 46.644 2.21999 46.644 2.21999L46.744 2.33199L46.844 2.21999C46.844 2.21999 48.514 0.0809866 51.826 0.0809866C55.126 0.0809866 56.004 3.96099 56.004 4.90599C56.004 5.85099 55.578 7.05799 53.972 7.05799C52.365 7.05799 52.152 6.28699 52.152 5.55299C52.152 4.80699 52.679 4.70699 52.679 4.20999C52.679 3.73699 52.152 3.43899 51.261 3.43899C50.358 3.43899 49.542 3.98599 49.542 5.12999C49.542 7.56799 56.468 7.39299 56.468 11.659C56.468 13.475 55.377 14.569 54.009 14.569C52.629 14.569 51.889 13.835 51.889 12.915C51.889 11.995 53.495 12.181 53.495 11.448C53.495 10.714 52.491 10.552 51.964 10.552C51.437 10.552 50.434 11.075 50.434 12.517C50.434 15.85 57.623 15.688 57.623 20.227C57.623 22.627 56.431 23.361 55.427 23.361C54.423 23.361 53.344 22.628 53.344 21.819C53.344 21.011 53.971 20.924 53.971 20.091C53.971 19.245 53.005 18.984 52.303 18.984C51.588 18.984 49.956 19.021 49.956 21.197C49.956 24.344 58.438 24.033 58.438 28.721C58.438 32.228 56.067 32.551 55.728 32.551C55.377 32.551 53.081 32.775 53.081 30.935C53.081 29.095 55.013 29.965 55.013 28.945C55.013 28.423 54.749 27.913 53.081 27.913C51.411 27.913 51.073 29.642 51.073 30.276C51.073 34.143 59.769 33.994 59.769 39.677C59.769 43.582 57.284 44.217 56.419 44.217C55.553 44.217 53.219 43.918 53.219 41.891C53.219 39.864 55.941 41.543 55.941 40.051C55.941 39.267 55.126 38.533 53.031 38.533C49.492 38.533 49.316 43.073 49.316 44.055C49.316 48.88 53.859 54.601 53.859 54.601H39.629L39.63 54.588ZM87.462 54.588C87.462 54.588 82.92 48.868 82.92 44.042C82.92 43.06 83.108 38.521 86.647 38.521C88.73 38.521 89.545 39.255 89.545 40.038C89.545 41.543 86.835 39.852 86.835 41.878C86.835 43.906 89.181 44.204 90.035 44.204C90.888 44.204 93.385 43.57 93.385 39.665C93.385 33.982 84.677 34.131 84.677 30.263C84.677 29.629 85.016 27.9 86.684 27.9C88.366 27.9 88.629 28.423 88.629 28.933C88.629 29.965 86.684 29.082 86.684 30.923C86.684 32.763 88.994 32.539 89.332 32.539C89.671 32.539 92.055 32.203 92.055 28.709C92.055 24.02 83.573 24.319 83.573 21.185C83.573 19.009 85.203 18.971 85.919 18.971C86.622 18.971 87.588 19.233 87.588 20.078C87.588 20.924 86.948 20.998 86.948 21.807C86.948 22.615 88.04 23.349 89.043 23.349C90.047 23.349 91.239 22.615 91.239 20.215C91.239 15.675 84.049 15.825 84.049 12.505C84.049 11.062 85.053 10.54 85.58 10.54C86.107 10.54 87.111 10.701 87.111 11.435C87.111 12.169 85.505 11.982 85.505 12.903C85.505 13.823 86.245 14.557 87.613 14.557C88.993 14.557 90.073 13.462 90.073 11.647C90.073 7.38099 83.146 7.55499 83.146 5.11699C83.146 3.97399 83.974 3.42699 84.865 3.42699C85.755 3.42699 86.283 3.71199 86.283 4.19699C86.283 4.68199 85.756 4.79399 85.756 5.53999C85.756 6.27399 85.982 7.04499 87.588 7.04499C89.194 7.04499 89.621 5.82699 89.621 4.89399C89.62 3.95999 88.73 0.0799866 85.43 0.0799866C82.13 0.0799866 80.46 2.21999 80.46 2.21999L80.36 2.33199L80.26 2.21999C80.26 2.21999 78.591 0.0809866 75.291 0.0809866C71.991 0.0809866 71.113 3.96099 71.113 4.90599C71.113 5.85099 71.54 7.05799 73.146 7.05799C74.752 7.05799 74.978 6.28699 74.978 5.55299C74.978 4.80699 74.451 4.70699 74.451 4.20999C74.451 3.73699 74.978 3.43899 75.868 3.43899C76.772 3.43899 77.588 3.98599 77.588 5.12999C77.588 7.56799 70.661 7.39299 70.661 11.659C70.661 13.475 71.741 14.569 73.121 14.569C74.488 14.569 75.241 13.835 75.241 12.915C75.241 11.995 73.635 12.181 73.635 11.448C73.635 10.714 74.639 10.552 75.165 10.552C75.68 10.552 76.697 11.075 76.697 12.517C76.697 15.85 69.507 15.688 69.507 20.227C69.507 22.627 70.699 23.361 71.703 23.361C72.706 23.361 73.785 22.628 73.785 21.819C73.785 21.011 73.145 20.924 73.145 20.091C73.145 19.245 74.125 18.984 74.827 18.984C75.53 18.984 77.173 19.021 77.173 21.197C77.173 24.344 68.679 24.033 68.679 28.721C68.679 32.228 71.063 32.551 71.401 32.551C71.741 32.551 74.049 32.775 74.049 30.935C74.049 29.095 72.117 29.965 72.117 28.945C72.117 28.423 72.38 27.913 74.049 27.913C75.718 27.913 76.057 29.642 76.057 30.276C76.057 34.143 67.349 33.994 67.349 39.677C67.349 43.582 69.846 44.217 70.711 44.217C71.565 44.217 73.911 43.918 73.911 41.891C73.911 39.864 71.188 41.543 71.188 40.051C71.188 39.267 72.004 38.533 74.087 38.533C77.625 38.533 77.813 43.073 77.813 44.055C77.813 48.88 73.271 54.601 73.271 54.601H87.462V54.588ZM6.01502 54.588C6.01502 54.588 10.557 48.868 10.557 44.042C10.557 43.06 10.369 38.521 6.83102 38.521C4.74802 38.521 3.93202 39.255 3.93202 40.038C3.93202 41.543 6.64202 39.852 6.64202 41.878C6.64202 43.906 4.29602 44.204 3.44302 44.204C2.59002 44.204 0.0930176 43.57 0.0930176 39.665C0.0930176 33.982 8.80102 34.131 8.80102 30.263C8.80102 29.629 8.46202 27.9 6.79302 27.9C5.11202 27.9 4.86102 28.41 4.86102 28.933C4.86102 29.965 6.79302 29.082 6.79302 30.923C6.79302 32.763 4.48402 32.539 4.14602 32.539C3.80602 32.539 1.42302 32.203 1.42302 28.709C1.42302 24.02 9.90502 24.319 9.90502 21.185C9.90502 19.009 8.27402 18.971 7.55902 18.971C6.85602 18.971 5.88902 19.233 5.88902 20.078C5.88902 20.924 6.52902 20.998 6.52902 21.807C6.52902 22.615 5.43802 23.349 4.43402 23.349C3.43002 23.349 2.23802 22.615 2.23802 20.215C2.23802 15.675 9.42802 15.825 9.42802 12.505C9.42802 11.062 8.42402 10.54 7.89802 10.54C7.37002 10.54 6.36702 10.701 6.36702 11.435C6.36702 12.169 7.97302 11.982 7.97302 12.903C7.97302 13.823 7.23302 14.557 5.86502 14.557C4.48502 14.557 3.40502 13.462 3.40502 11.647C3.40502 7.38099 10.332 7.55499 10.332 5.11699C10.332 3.97399 9.50302 3.42699 8.61202 3.42699C7.72202 3.42699 7.19502 3.71199 7.19502 4.19699C7.19502 4.68199 7.72202 4.79399 7.72202 5.53999C7.72202 6.27399 7.49602 7.04499 5.89002 7.04499C4.28402 7.04499 3.85702 5.82699 3.85702 4.89399C3.85702 3.96099 4.74702 0.0809866 8.04702 0.0809866C11.347 0.0809866 13.017 2.21999 13.017 2.21999L13.117 2.33199L13.217 2.21999C13.217 2.21999 14.887 0.0809866 18.187 0.0809866C21.487 0.0809866 22.365 3.96099 22.365 4.90599C22.365 5.85099 21.938 7.05799 20.332 7.05799C18.726 7.05799 18.5 6.28699 18.5 5.55299C18.5 4.80699 19.027 4.70699 19.027 4.20999C19.027 3.73699 18.5 3.43899 17.609 3.43899C16.719 3.43899 15.903 3.99899 15.903 5.14299C15.903 7.57999 22.829 7.40599 22.829 11.671C22.829 13.487 21.749 14.581 20.369 14.581C19.002 14.581 18.249 13.848 18.249 12.928C18.249 12.008 19.855 12.194 19.855 11.46C19.855 10.726 18.851 10.565 18.337 10.565C17.81 10.565 16.807 11.087 16.807 12.53C16.807 15.862 23.983 15.7 23.983 20.24C23.983 22.64 22.791 23.374 21.788 23.374C20.784 23.374 19.705 22.64 19.705 21.832C19.705 21.023 20.345 20.936 20.345 20.103C20.345 19.257 19.365 18.996 18.675 18.996C17.96 18.996 16.317 19.034 16.317 21.21C16.317 24.356 24.811 24.045 24.811 28.734C24.811 32.241 22.427 32.564 22.089 32.564C21.749 32.564 19.441 32.788 19.441 30.947C19.441 29.107 21.373 29.977 21.373 28.957C21.373 28.435 21.11 27.925 19.441 27.925C17.772 27.925 17.433 29.654 17.433 30.288C17.433 34.156 26.142 34.007 26.142 39.69C26.142 43.595 23.645 44.229 22.779 44.229C21.925 44.229 19.579 43.931 19.579 41.904C19.579 39.876 22.302 41.555 22.302 40.063C22.302 39.279 21.486 38.546 19.404 38.546C15.865 38.546 15.677 43.085 15.677 44.067C15.677 48.892 20.219 54.613 20.219 54.613H6.01502V54.588Z"/>
</g>
<defs>
<clipPath id="clip0_1_178">
<rect width="94" height="55" fill="white"/>
</clipPath>
</defs>
</svg>
