<svg width="64" height="65" viewBox="0 0 64 65" xmlns="http://www.w3.org/2000/svg">
<g clip-path="url(#clip0_1_188)">
<path d="M0.762024 37.408L8.84702 50.511H22.15L27.54 41.352H15.682L10.637 32.732L15.682 24.306H27.54L22.15 14.953H8.84702L0.762024 28.25V37.408ZM48.196 0.772003L32.736 1.139L26.096 12.625L31.314 21.957L37.416 11.72L47.291 11.548L52.141 20.34L46.212 30.577L56.992 30.404L63.655 18.918L56.109 5.448L48.196 0.772003ZM56.109 60.037L63.655 46.567L56.993 35.081L46.213 34.887L52.142 45.317L47.29 53.937H37.416L31.314 43.507L26.096 52.86L32.736 64.347L48.196 64.713L56.109 60.037Z"/>
</g>
<defs>
<clipPath id="clip0_1_188">
<rect width="64" height="65" fill="white"/>
</clipPath>
</defs>
</svg>
