<svg width="39" height="71" viewBox="0 0 39 71" xmlns="http://www.w3.org/2000/svg">
<g clip-path="url(#clip0_1_186)">
<path d="M38.185 68.968C35.522 65.476 32.761 61.952 30.09 58.543C26.595 54.08 22.977 49.469 19.523 44.858C20.38 44.751 20.908 44.331 21.353 43.886L21.403 43.836L21.361 43.779C21.246 43.631 21.023 43.507 20.834 43.4C20.7671 43.3661 20.701 43.3304 20.636 43.293C21.518 43.268 22.268 43.03 22.993 42.799L23.381 42.676L23.421 42.659L23.43 42.618C23.529 42.28 23.232 42.132 23.05 42.041C23.021 42.0229 22.9909 42.0066 22.96 41.992C24.312 42.033 25.062 41.473 25.672 40.864L25.689 40.847V40.823C25.738 40.502 25.392 40.403 25.145 40.329C25.054 40.304 24.897 40.255 24.889 40.222C24.889 40.222 24.889 40.213 24.897 40.205C26.109 40.189 26.801 39.595 27.321 39.011L27.387 38.937L27.296 38.887C27.0923 38.7744 26.8799 38.6781 26.661 38.599C26.422 38.501 26.175 38.402 25.969 38.27C27.873 38.089 29.249 37.463 30.065 36.401L30.123 36.327L30.041 36.277C29.859 36.17 29.604 36.113 29.365 36.063C29.216 36.03 29.06 35.997 28.928 35.956C30.576 35.437 32.011 34.301 32.612 33.025L32.654 32.935L32.563 32.91C32.2978 32.8479 32.0272 32.8121 31.755 32.803C31.5979 32.7945 31.4411 32.7805 31.285 32.761C32.983 31.996 34.154 30.851 34.953 29.179L35.003 29.072L34.888 29.056C34.566 29.023 34.294 29.072 34.038 29.122C33.848 29.163 33.659 29.196 33.453 29.196C35.044 27.928 35.967 26.38 36.264 24.478L36.281 24.378H36.181C35.835 24.378 35.596 24.478 35.341 24.585C36.445 23.432 37.501 21.999 37.501 20.072V20.006L37.435 19.99C37.072 19.9 36.759 20.072 36.421 20.254C36.2754 20.3369 36.1236 20.4084 35.967 20.468C36.849 19.15 37.418 17.478 37.698 15.346L37.707 15.264L37.624 15.255C37.261 15.215 36.989 15.412 36.767 15.568C36.635 15.658 36.537 15.733 36.445 15.749C36.998 14.835 37.492 13.378 37.278 11.896L37.27 11.863L37.245 11.846C36.973 11.616 36.734 11.854 36.569 12.019C36.421 12.167 36.346 12.233 36.272 12.217C36.684 11.344 36.808 10.257 36.66 8.81599L36.652 8.73399L36.569 8.74199C36.017 8.82399 35.621 9.19499 35.267 9.53199C35.052 9.73799 34.863 9.91899 34.673 10.002C35.291 8.69199 35.852 5.91799 34.854 4.65799L34.805 4.59199L34.739 4.64199C34.385 4.90499 34.03 5.26699 33.692 5.62199C33.272 6.04899 32.876 6.46099 32.497 6.68299C32.621 5.95899 32.727 4.58299 32.39 4.04799L32.357 3.99099L32.291 4.01499C31.904 4.17199 31.656 4.46799 31.426 4.76499C31.286 4.93799 31.154 5.10199 30.989 5.24199C31.442 4.00699 31.763 1.31499 30.717 0.531995L30.675 0.481995L30.626 0.556995C26.736 6.64199 22.259 11.789 17.52 17.232L16.695 18.187C16.448 18.483 16.119 18.829 15.781 19.191C14.421 20.641 12.558 22.633 12.286 24.411C12.22 25.087 12.352 25.845 12.476 26.586C12.624 27.434 12.772 28.315 12.632 29.072C12.467 29.781 12.03 30.464 11.288 31.164C11.305 30.316 11.428 29.344 11.56 28.314C11.873 25.844 12.228 23.054 11.066 21.357C10.142 20.007 7.645 19.381 5.799 20.583L5.79 20.591L5.782 20.599C5.634 20.797 5.527 20.986 5.395 21.209C5.345 21.291 5.295 21.382 5.238 21.472C3.985 21.933 3.301 23.317 3.565 24.848L3.598 25.062L3.713 24.882C4.076 24.297 4.471 23.951 4.859 23.877C5.114 23.827 5.369 23.885 5.617 24.057C5.84 26.503 4.637 28.487 3.672 30.077C3.515 30.34 3.359 30.587 3.218 30.835C3.111 31.057 2.996 31.279 2.881 31.501C2.081 33.05 1.257 34.663 1.009 36.961C0.390999 43.391 3.729 46.537 7.439 48.983C7.793 49.189 8.205 49.387 8.642 49.593C9.615 50.053 10.72 50.564 11.338 51.371C13.596 54.121 11.643 58.411 10.348 61.244C10.208 61.557 10.068 61.854 9.953 62.124C9.78 62.479 9.573 62.94 9.335 63.475C8.568 65.213 7.513 67.601 6.475 68.268C5.881 68.638 5.081 68.572 4.232 68.498C3.548 68.441 2.848 68.383 2.172 68.531C1.314 68.721 1.002 69.461 0.637999 70.326C0.603855 70.4054 0.571183 70.4854 0.539999 70.566L0.473999 70.713L0.629999 70.673C2.213 70.285 3.985 70.359 5.864 70.433C6.961 70.474 8.09 70.523 9.194 70.466C10.571 70.416 11.997 70.335 13.374 70.252C15.714 70.12 18.13 69.981 20.454 69.981C20.561 69.981 20.611 70.055 20.685 70.178C20.767 70.318 20.875 70.508 21.155 70.458L21.18 70.45L21.196 70.433C21.633 69.997 21.79 69.626 21.674 69.322C21.378 68.532 19.358 68.416 17.734 68.325C17.305 68.301 16.934 68.276 16.646 68.251C16.687 68.111 16.728 67.963 16.77 67.823C17.553 65.032 18.36 62.141 22.16 62.775L22.227 62.784L22.251 62.718C22.358 62.413 22.416 62.043 22.474 61.688C22.548 61.186 22.63 60.668 22.853 60.305C23.339 61.137 24.287 62.71 25.54 64.661C25.738 64.957 25.969 65.377 26.216 65.814C27.056 67.329 28.104 69.214 29.373 69.363C29.859 69.421 30.346 69.215 30.807 68.737C31.055 69.19 31.566 69.519 32.151 69.593C32.703 69.659 33.206 69.486 33.527 69.124C33.791 69.314 34.071 69.503 34.533 69.577H34.55L34.566 69.569C34.796 69.495 34.92 69.346 35.052 69.199C35.152 69.083 35.242 68.976 35.382 68.91C35.588 69.478 36.272 69.8 36.866 69.824C37.517 69.849 38.011 69.552 38.193 69.034L38.209 68.992L38.185 68.968ZM10.579 66.127C10.653 66.003 10.719 65.88 10.785 65.765C11.89 63.755 13.159 62.001 16.391 62.57C16.069 64.752 15.344 66.637 14.165 68.334C13.638 68.457 13.077 68.441 12.549 68.424C11.989 68.408 11.461 68.391 10.975 68.531C10.695 68.597 10.464 68.745 10.266 68.885C10.019 69.05 9.805 69.198 9.549 69.157C9.343 68.276 9.994 67.131 10.579 66.127Z"/>
</g>
<defs>
<clipPath id="clip0_1_186">
<rect width="39" height="71" fill="white"/>
</clipPath>
</defs>
</svg>
