<svg width="48" height="48" viewBox="0 0 48 48" fill="none" xmlns="http://www.w3.org/2000/svg">
<g id="Icon" clip-path="url(#clip0_142_2101)">
<g id="Vector">
<path d="M43.0585 22.9644C42.9704 22.3874 42.6755 21.8613 42.228 21.4825C41.7805 21.1037 41.2103 20.8977 40.622 20.9021H20.8728L17.2861 16.6912C16.526 15.8058 15.4102 15.2479 14.2365 15.2479H1.4047C0.490349 15.2479 -0.378647 15.6726 -0.970073 16.3672C-1.26185 16.7177 -1.47425 17.1263 -1.59288 17.5653C-1.71151 18.0044 -1.7336 18.4636 -1.65765 18.9118L-1.31658 20.9021H-1.54154C-1.89468 20.8976 -2.24454 20.9696 -2.56673 21.1131C-2.88892 21.2565 -3.17567 21.468 -3.40696 21.7327C-3.63826 21.9975 -3.80854 22.3091 -3.90591 22.6458C-4.00328 22.9825 -4.02541 23.3363 -3.97074 23.6824L0.0132174 49.3223C0.130132 50.0684 0.512242 50.7485 1.0905 51.2396C1.66876 51.7306 2.40504 52.0004 3.16628 52H44.5244C44.877 51.9992 45.2253 51.9233 45.5458 51.7774C45.8664 51.6316 46.1516 51.4192 46.3822 51.1546C46.6128 50.89 46.7835 50.5793 46.8827 50.2437C46.9819 49.908 47.0073 49.5551 46.9572 49.2089L43.0585 22.9644ZM33.2256 3.82982H17.7778C16.7128 3.82982 15.8493 4.78358 15.8493 5.84171C15.8493 6.89985 16.7146 7.8536 17.7778 7.8536H33.2256C34.2941 7.8536 35.1559 6.89985 35.1559 5.84171C35.1559 4.78358 34.2905 3.82982 33.2256 3.82982ZM51.4255 17.9292C51.2063 17.6719 50.934 17.4642 50.627 17.3202C50.32 17.1762 49.9854 17.0991 49.6458 17.0943H45.2627L46.2605 26.2629L48.6426 42.2807L51.9771 19.8008C52.0239 19.4679 51.9989 19.1289 51.9038 18.8063C51.8087 18.4837 51.6457 18.1847 51.4255 17.9292Z" fill="#73E2F7"/>
<path d="M12.1416 -0.301939H39.1077V17.8573H42.8377V-1.648C42.8306 -2.27208 42.5765 -2.86839 42.1302 -3.30837C41.6839 -3.74834 41.0812 -3.99674 40.452 -4H10.6304C9.20444 -4 8.0869 -2.8357 8.0869 -1.42125V12.6368H12.1416V-0.301939Z" fill="#73E2F7"/>
<path d="M33.2246 11.2241H17.7768C16.8497 11.2241 16.0769 11.9512 15.89 12.8419C17.2254 13.1732 18.4242 13.9076 19.3206 14.9438L19.6018 15.2461H33.2246C34.2931 15.2461 35.1549 14.2924 35.1549 13.2342C35.1549 12.1761 34.2895 11.2241 33.2246 11.2241Z" fill="#73E2F7"/>
</g>
</g>
<defs>
<clipPath id="clip0_142_2101">
<rect width="48" height="48" fill="white"/>
</clipPath>
</defs>
</svg>
