<svg width="48" height="48" viewBox="0 0 48 48" fill="none" xmlns="http://www.w3.org/2000/svg">
<g id="Icon">
<g id="Vector">
<path d="M27.9392 3H7.81282C5.15483 3 3 5.15468 3 7.81249V34.9374C3 37.5952 5.15483 39.7499 7.81282 39.7499H20.7309L21.1137 37.5952C21.2887 36.6109 21.7481 35.7359 22.4482 35.0249L32.752 24.7328V7.81249C32.752 5.15468 30.5971 3 27.9392 3ZM10.0005 9.99998H17.0009C17.9635 9.99998 18.751 10.7875 18.751 11.75C18.751 12.7125 17.9635 13.5 17.0009 13.5H10.0005C9.0379 13.5 8.25035 12.7125 8.25035 11.75C8.25035 10.7875 9.0379 9.99998 10.0005 9.99998ZM18.751 27.4999H10.0005C9.0379 27.4999 8.25035 26.7124 8.25035 25.7499C8.25035 24.7874 9.0379 23.9999 10.0005 23.9999H18.751C19.7136 23.9999 20.5012 24.7874 20.5012 25.7499C20.5012 26.7124 19.7136 27.4999 18.751 27.4999ZM25.7515 20.5H10.0005C9.0379 20.5 8.25035 19.7125 8.25035 18.75C8.25035 17.7875 9.0379 17 10.0005 17H25.7515C26.7141 17 27.5016 17.7875 27.5016 18.75C27.5016 19.7125 26.7141 20.5 25.7515 20.5Z" fill="#FF8E4F"/>
<path d="M24.9202 45C24.5701 45 24.242 44.8688 23.9904 44.6172C23.6841 44.3109 23.5529 43.8844 23.6294 43.4578L24.5592 38.1969C24.6029 37.9344 24.7342 37.6828 24.9202 37.4969L37.9148 24.5032C39.5117 22.9063 41.0759 23.3329 41.94 24.1969L44.1058 26.3625C45.2981 27.5547 45.2981 29.5016 44.1058 30.6938L31.1112 43.6875C30.9252 43.8734 30.6737 44.0047 30.4111 44.0484L25.1499 44.9781C25.0733 44.9891 24.9967 45 24.9202 45Z" fill="#FF8E4F"/>
</g>
</g>
</svg>
