<svg width="48" height="48" viewBox="0 0 48 48" fill="none" xmlns="http://www.w3.org/2000/svg">
<g id="Icon">
<g id="Vector">
<path d="M30.2615 14.9941C28.6285 14.9941 27.3 13.6602 27.3 12.0205V2.25H12.1538C9.58772 2.25 7.5 4.34624 7.5 6.92285V41.0771C7.5 43.6538 9.58772 45.75 12.1538 45.75H35.8462C38.4123 45.75 40.5 43.6538 40.5 41.0771V14.9941H30.2615ZM14.4385 32.8359H20.5917C21.2926 32.8359 21.8609 33.4065 21.8609 34.1104C21.8609 34.8142 21.2926 35.3848 20.5917 35.3848H14.4385C13.7375 35.3848 13.1692 34.8142 13.1692 34.1104C13.1692 33.4065 13.7375 32.8359 14.4385 32.8359ZM13.1692 27.3135C13.1692 26.6097 13.7375 26.0391 14.4385 26.0391H33.0538C33.7548 26.0391 34.3231 26.6097 34.3231 27.3135C34.3231 28.0173 33.7548 28.5879 33.0538 28.5879H14.4385C13.7375 28.5879 13.1692 28.0173 13.1692 27.3135ZM33.0538 19.2422C33.7548 19.2422 34.3231 19.8128 34.3231 20.5166C34.3231 21.2204 33.7548 21.791 33.0538 21.791H14.4385C13.7375 21.791 13.1692 21.2204 13.1692 20.5166C13.1692 19.8128 13.7375 19.2422 14.4385 19.2422H33.0538Z" fill="#73E2F7"/>
<path d="M29.8385 12.0205C29.8385 12.2548 30.0283 12.4453 30.2615 12.4453H39.9343C39.701 12.0117 39.4007 11.6179 39.0445 11.2787L30.8857 3.52835C30.5728 3.23109 30.2204 2.97876 29.8385 2.77857L29.8385 12.0205Z" fill="#73E2F7"/>
</g>
</g>
</svg>
