<svg width="48" height="48" viewBox="0 0 48 48" fill="none" xmlns="http://www.w3.org/2000/svg">
<g id="Icon">
<g id="Group">
<g id="Open Folder">
<path id="Vector" d="M43.889 19.4021C43.6709 19.0083 43.3512 18.6802 42.9631 18.4521C42.575 18.224 42.1328 18.1042 41.6827 18.1053H17.7433C16.9362 18.1054 16.1509 18.3673 15.5053 18.8517C14.8597 19.3361 14.3886 20.0167 14.1627 20.7916L9.42417 37.0358C9.17475 37.8909 8.65473 38.642 7.94216 39.1765C7.22959 39.711 6.3629 39.9999 5.47217 40H35.5757C36.4666 40 37.3334 39.7111 38.0461 39.1766C38.7588 38.6421 39.279 37.891 39.5286 37.0358L44.0776 21.44C44.1833 21.1049 44.2211 20.7521 44.1889 20.4021C44.1567 20.0522 44.0541 19.7123 43.889 19.4021Z" fill="#1CCF4E"/>
<path id="Vector_2" d="M7.80493 36.5642L12.546 20.32C12.8763 19.197 13.5605 18.2108 14.4968 17.5082C15.433 16.8056 16.5712 16.4243 17.7418 16.4211H39.1565V15.5789C39.1565 14.6856 38.8016 13.8288 38.1699 13.1971C37.5382 12.5654 36.6814 12.2105 35.7881 12.2105H22.951C22.7 12.2106 22.4522 12.1547 22.2255 12.0469C21.9989 11.9391 21.7991 11.7821 21.6407 11.5874L19.9851 9.552C19.5908 9.06717 19.0934 8.67631 18.5291 8.40785C17.9648 8.13938 17.3477 8.00005 16.7228 8H7.15651C6.26315 8 5.40638 8.35489 4.77467 8.98659C4.14297 9.61829 3.78809 10.4751 3.78809 11.3684L3.78809 36.6316C3.78809 37.0783 3.96553 37.5066 4.28138 37.8225C4.59723 38.1383 5.02562 38.3158 5.4723 38.3158C5.99798 38.3144 6.50912 38.143 6.92949 37.8274C7.34986 37.5117 7.65694 37.0686 7.80493 36.5642Z" fill="#1CCF4E"/>
</g>
</g>
</g>
</svg>
