<svg width="48" height="48" viewBox="0 0 48 48" fill="none" xmlns="http://www.w3.org/2000/svg">
<g id="Icon">
<path id="fire 1 (Traced)" fill-rule="evenodd" clip-rule="evenodd" d="M27.2661 4.16152C26.3024 4.78797 25.6044 5.37169 24.8842 6.15357C21.7972 9.50488 20.0654 14.8546 20.0593 21.0581L20.0576 22.7444L19.5449 22.4826C18.5647 21.9819 17.4708 20.8171 16.9341 19.7024C16.4766 18.7523 16.1172 17.1708 16.1165 16.1049L16.1162 15.7662L15.6441 16.0534C14.1747 16.9477 12.4692 18.4694 11.4482 19.7972C5.94272 26.9566 7.73109 36.9469 15.3832 41.7791C19.9789 44.6813 25.8603 45.0535 30.8021 42.7549C36.5623 40.0756 40.0029 34.5141 39.7355 28.3143C39.5793 24.6941 38.462 21.7005 36.0434 18.4221C35.7224 17.9868 34.7931 16.8339 33.9785 15.86C30.9767 12.2714 30.2481 11.2748 29.372 9.5587C28.5324 7.91382 28.104 6.39486 27.9616 4.5572L27.8991 3.75L27.2661 4.16152ZM31.4209 23.4473C31.7723 25.513 31.8369 26.2615 31.8376 28.2747C31.8382 29.7454 31.8031 30.4334 31.692 31.1237C31.0851 34.8945 29.5906 37.2243 26.9959 38.4446C24.5739 39.5837 22.1872 39.3938 20.2416 37.9071C18.8408 36.8368 18.062 35.2408 18.0705 33.4582C18.0786 31.7415 18.8339 30.1908 20.1851 29.1167C20.8939 28.5531 21.6615 28.2016 22.9451 27.8527C25.7539 27.0892 27.8471 26.0369 29.3024 24.6569C29.9924 24.0025 30.6805 23.0875 30.9434 22.475C31.0298 22.2736 31.1257 22.1341 31.1564 22.1648C31.1872 22.1955 31.3062 22.7727 31.4209 23.4473Z" fill="#FF5656"/>
</g>
</svg>
