<svg width="48" height="48" viewBox="0 0 48 48" fill="none" xmlns="http://www.w3.org/2000/svg">
<g id="Icon">
<g id="Vector">
<path d="M7.5 22.7C7.5 21.5954 8.39543 20.7 9.5 20.7H38.5C39.6046 20.7 40.5 21.5954 40.5 22.7V25.3C40.5 26.4046 39.6046 27.3 38.5 27.3H9.5C8.39543 27.3 7.5 26.4046 7.5 25.3V22.7Z" fill="#F5FDFE"/>
<path d="M22.7 40.5C21.5954 40.5 20.7 39.6046 20.7 38.5L20.7 9.5C20.7 8.39543 21.5954 7.5 22.7 7.5L25.3 7.5C26.4046 7.5 27.3 8.39543 27.3 9.5L27.3 38.5C27.3 39.6046 26.4046 40.5 25.3 40.5H22.7Z" fill="#F5FDFE"/>
</g>
</g>
</svg>
