<svg width="48" height="48" viewBox="0 0 48 48" fill="none" xmlns="http://www.w3.org/2000/svg">
<g id="Icon">
<path id="police 1 (Traced)" fill-rule="evenodd" clip-rule="evenodd" d="M21.9804 4.5847C19.9281 4.81907 17.873 5.52647 16.4323 6.49437C15.7931 6.92374 14.8391 7.85355 14.4668 8.4099C13.4327 9.95548 13.2305 11.6369 13.8994 13.127L14.1302 13.6411H17.6055C19.5169 13.6411 21.0807 13.6275 21.0807 13.6109C21.0807 13.5942 20.9831 13.38 20.8638 13.1348C20.4455 12.2747 20.3185 11.7121 20.2821 10.5562L20.2485 9.48985L21.9519 8.63964L23.6554 7.78934L25.3379 8.63964L27.0205 9.48985L26.9822 10.5562C26.9408 11.7125 26.8081 12.2932 26.3953 13.1248C26.2763 13.3645 26.179 13.5788 26.179 13.6009C26.179 13.623 27.7429 13.6411 29.6543 13.6411H33.1295L33.3604 13.127C34.7098 10.1213 32.4922 6.68266 28.2874 5.26063C26.3427 4.6029 24.0097 4.35291 21.9804 4.5847ZM23.0676 10.6451C22.7789 10.7947 22.5316 10.9271 22.518 10.9395C22.5043 10.9519 22.5478 11.1792 22.6145 11.4446C22.7469 11.9715 23.0972 12.6179 23.4211 12.9333C23.6255 13.1322 23.6287 13.1326 23.7872 12.9877C24.182 12.6267 24.597 11.8166 24.7097 11.1871L24.7603 10.904L24.2345 10.6348C23.9452 10.4869 23.6824 10.3675 23.6505 10.3695C23.6186 10.3716 23.3562 10.4956 23.0676 10.6451ZM15.793 16.2092C15.8703 16.6278 16.0326 16.9018 16.4441 17.3091C17.3289 18.1846 19.1899 18.9023 21.3806 19.2131C22.3029 19.3439 25.0213 19.3421 25.9541 19.2101C28.0631 18.9117 29.9889 18.1565 30.8361 17.2958C31.2321 16.8936 31.3908 16.6199 31.4667 16.2092L31.519 15.9263H23.6299H15.7408L15.793 16.2092ZM15.7769 21.2673C15.8183 23.0327 15.9128 23.5889 16.3623 24.711C17.0438 26.4122 18.52 28.0304 20.1435 28.856C22.3938 30.0002 24.9244 29.9879 27.1688 28.8218C28.7813 27.9839 30.116 26.5335 30.8343 24.8382C31.3399 23.6449 31.44 23.0936 31.4828 21.2673L31.521 19.6386L31.193 19.8447C29.9587 20.6202 28.1429 21.2102 26.104 21.4984C25.0213 21.6514 22.0091 21.6298 20.9308 21.4613C18.922 21.1476 17.2565 20.5941 16.0668 19.8452L15.7388 19.6386L15.7769 21.2673ZM15.7575 34.2834V36.5685H16.8821H18.0067V34.2834V31.9982H16.8821H15.7575V34.2834ZM20.256 35.4259V38.8536H19.1314H18.0067V41.1768V43.5H20.256H22.5052V37.7491V31.9982H21.3806H20.256V35.4259ZM24.7545 37.7491V43.5H31.5022H38.25V40.3357C38.25 37.7386 38.2286 37.0662 38.1306 36.5845C37.674 34.3384 35.9465 32.5834 33.7354 32.1194C33.2477 32.0171 32.5056 31.9982 28.9562 31.9982H24.7545V37.7491ZM12.6757 32.3734C11.3292 32.882 10.0396 34.1055 9.49828 35.3878C9.05736 36.4324 9.05863 36.4199 9.02827 40.0914L9 43.5H12.3787H15.7575V41.1768V38.8536H14.6329H13.5082V35.5021C13.5082 31.6539 13.6062 32.0219 12.6757 32.3734Z" fill="#27B1FE"/>
</g>
</svg>
