<svg width="48" height="48" viewBox="0 0 48 48" fill="none" xmlns="http://www.w3.org/2000/svg">
<g id="Icon">
<path id="Vector (Stroke)" fill-rule="evenodd" clip-rule="evenodd" d="M23.288 5.46434C23.7466 5.28964 24.2534 5.28964 24.712 5.46434L38.712 10.7977C39.4875 11.0931 40 11.8368 40 12.6666V26C40 33.2313 33.6987 39.775 24.5882 42.5782C24.2049 42.6961 23.7951 42.6961 23.4118 42.5782C14.3615 39.7935 8 33.9428 8 26V12.6666C8 11.8368 8.5125 11.0931 9.28801 10.7977L23.288 5.46434ZM12 14.045V26C12 31.2611 16.1009 35.9748 23.9983 38.5676C31.842 35.963 36 30.654 36 26V14.045L24 9.47352L12 14.045Z" fill="#65C339"/>
</g>
</svg>
