<svg width="48" height="48" viewBox="0 0 48 48" fill="none" xmlns="http://www.w3.org/2000/svg">
<g id="Icon">
<g id="Group">
<path id="Vector" d="M37.8164 6.70332L37.7233 6.69074L37.8164 6.67817C38.5661 6.57692 39.0902 5.89809 38.987 5.162C38.8839 4.42591 38.1925 3.91122 37.4426 4.0127L28.3061 5.24708C28.2546 4.5502 27.6638 4.0002 26.9408 4.0002C26.184 4.0002 25.5704 4.60255 25.5704 5.34551H20.7619C18.7953 5.34551 17.0498 6.42246 16.1859 8.09691L15.8785 7.9773C15.2213 7.72144 14.4738 7.99847 14.1525 8.61675L5.14953 25.9514C4.97429 26.2888 4.95201 26.6831 5.08833 27.0375C5.22465 27.3919 5.50668 27.6734 5.86518 27.813L12.2344 30.2925C12.4118 30.3615 12.6019 30.3934 12.7925 30.3861C12.9832 30.3789 13.1702 30.3326 13.3416 30.2504C13.513 30.1681 13.665 30.0515 13.7878 29.9082C13.9107 29.765 14.0018 29.5981 14.0552 29.4183L19.5999 10.7372C19.7976 10.0709 19.4466 9.36621 18.7894 9.11035L18.7592 9.09863C19.1927 8.4455 19.9348 8.03605 20.7619 8.03605H25.5705V9.86698C22.143 10.4999 19.5411 13.4587 19.5411 17.0046V37.1839H34.3406V17.0045C34.3406 13.4586 31.7386 10.4999 28.3112 9.86691V8.13512L37.4426 9.36871C37.5061 9.3773 37.569 9.38144 37.6312 9.38144C38.3051 9.38144 38.8925 8.89316 38.987 8.21941C39.0903 7.4834 38.5662 6.80465 37.8164 6.70332ZM19.5412 38.9775V42.6546C19.5412 43.3976 20.1547 43.9999 20.9115 43.9999H32.9704C33.7272 43.9999 34.3408 43.3976 34.3408 42.6546V38.9775H19.5412Z" fill="#FF8E4F"/>
</g>
</g>
</svg>
