<svg width="48" height="48" viewBox="0 0 48 48" fill="none" xmlns="http://www.w3.org/2000/svg">
<g id="Icon">
<path id="Vector" d="M32.5387 17.4869L32.4975 17.5071C32.9719 18.0542 33.3844 18.7025 33.6938 19.371L33.8794 19.756C35.3438 23.1799 34.3125 27.1305 31.6106 29.6022C29.1562 31.8105 25.7325 32.3981 22.5563 31.9929C19.545 31.6282 16.7812 29.7643 15.1931 27.1913C14.7188 26.4012 14.3062 25.5097 14.1 24.5981C13.8319 23.8484 13.7494 23.1191 13.6875 22.3695C13.5019 19.1279 14.8219 15.6838 17.3175 13.6578C16.1831 16.1092 16.4512 19.1684 18.1219 21.2957L18.3488 21.5591C18.6375 21.8022 18.9881 21.8832 19.3181 21.7414C19.6275 21.6199 19.875 21.316 19.875 20.9513L19.7306 20.5056C17.9156 15.8053 19.4419 10.3149 23.2987 7.21519C24.3506 6.36429 25.65 5.59442 27.0112 5.25C25.6087 8.00532 26.0625 11.6116 28.3106 13.7794C29.2594 14.7316 30.3937 15.3596 31.3837 16.251L32.5387 17.4869ZM27.8362 26.8874L27.8156 26.8671C28.7438 26.077 29.2594 24.7196 29.2181 23.504L29.1562 22.8557C28.7437 20.8297 26.9494 20.1612 25.7944 18.6822C25.4438 18.2365 25.1344 17.6692 24.9075 17.1019C24.4537 18.1149 24.4125 19.0671 24.5981 20.1612C24.8044 21.316 25.2787 22.3087 25.0312 23.504C24.7013 24.8209 23.6494 26.1378 21.8137 26.5632C22.845 27.556 24.5156 28.3461 26.1863 27.7788C26.7225 27.637 27.4031 27.2521 27.8362 26.8874ZM21.9375 36.1461V38.1721C21.9375 39.2864 22.8656 40.1981 24 40.1981C25.1344 40.1981 26.0625 39.2864 26.0625 38.1721V36.1461H30.1875V38.1721C30.1875 39.2864 31.1156 40.1981 32.25 40.1981C33.3844 40.1981 34.3125 39.2864 34.3125 38.1721V36.1461C36.6019 36.1461 40.5 37.9695 40.5 40.1981V44.25H7.5V40.1981C7.5 37.9695 11.4188 36.1461 13.6875 36.1461V38.1721C13.6875 39.2864 14.6156 40.1981 15.75 40.1981C16.8844 40.1981 17.8125 39.2864 17.8125 38.1721V36.1461H21.9375Z" fill="#73E2F7"/>
</g>
</svg>
