<svg width="46" height="42" viewBox="0 0 46 42" fill="none" xmlns="http://www.w3.org/2000/svg">
<g id="Frame 1">
<g id="Vector">
<path d="M43.25 21.495C43.25 9.1425 33.665 0.75 23 0.75C12.4475 0.75 2.75 8.9625 2.75 21.63C1.4 22.395 0.5 23.835 0.5 25.5V30C0.5 32.475 2.525 34.5 5 34.5H7.25V20.775C7.25 12.0675 14.2925 5.025 23 5.025C31.7075 5.025 38.75 12.0675 38.75 20.775V36.75H20.75V41.25H38.75C41.225 41.25 43.25 39.225 43.25 36.75V34.005C44.5775 33.3075 45.5 31.935 45.5 30.315V25.14C45.5 23.565 44.5775 22.1925 43.25 21.495Z" fill="#94CCF5"/>
<path d="M16.25 25.5C17.4926 25.5 18.5 24.4926 18.5 23.25C18.5 22.0074 17.4926 21 16.25 21C15.0074 21 14 22.0074 14 23.25C14 24.4926 15.0074 25.5 16.25 25.5Z" fill="#94CCF5"/>
<path d="M29.75 25.5C30.9926 25.5 32 24.4926 32 23.25C32 22.0074 30.9926 21 29.75 21C28.5074 21 27.5 22.0074 27.5 23.25C27.5 24.4926 28.5074 25.5 29.75 25.5Z" fill="#94CCF5"/>
<path d="M36.5 18.8175C35.42 12.405 29.84 7.5 23.1125 7.5C16.295 7.5 8.96 13.1475 9.545 22.0125C15.1025 19.74 19.2875 14.79 20.48 8.76C23.4275 14.6775 29.48 18.75 36.5 18.8175Z" fill="#94CCF5"/>
</g>
</g>
</svg>
