<svg width="46" height="14" viewBox="0 0 46 14" fill="none" xmlns="http://www.w3.org/2000/svg">
<g id="&#208;&#160;&#208;&#147;&#208;&#159;&#208;&#163;">
<path d="M9.95105 4.36517C9.95105 6.74438 8.25684 8.73034 5.37473 8.73034H2.70684V14H0V0H5.37473C8.25684 0 9.95105 1.98596 9.95105 4.36517ZM7.2442 4.36517C7.2442 3.22472 6.46526 2.4382 5.23842 2.4382H2.70684V6.27247H5.23842C6.46526 6.27247 7.2442 5.50562 7.2442 4.36517Z" fill="#1CCF4E"/>
<path d="M20.9156 2.4382H14.8983V14H12.1914V0H20.9156V2.4382Z" fill="#1CCF4E"/>
<path d="M33.1557 14H30.4489V2.4382H25.7558V14H23.0489V0H33.1557V14Z" fill="#1CCF4E"/>
<path d="M46 0L41.0926 11.6404C40.5668 12.8989 39.6126 14 37.9963 14H36.3411V11.5618H37.4316C38.1716 11.5618 38.6195 11.2472 38.8726 10.677L39.2816 9.71348L34.8416 0H37.6653L40.5668 6.74438L43.1958 0H46Z" fill="#1CCF4E"/>
</g>
</svg>
