<svg width="44" height="14" viewBox="0 0 44 14" fill="none" xmlns="http://www.w3.org/2000/svg">
<g id="&#208;&#160;&#208;&#147;&#208;&#144;&#208;&#163;">
<path d="M10.1031 4.36517C10.1031 6.74438 8.38304 8.73034 5.45689 8.73034H2.74821V14H0V0H5.45689C8.38304 0 10.1031 1.98596 10.1031 4.36517ZM7.35493 4.36517C7.35493 3.22472 6.56408 2.4382 5.31849 2.4382H2.74821V6.27247H5.31849C6.56408 6.27247 7.35493 5.50562 7.35493 4.36517Z" fill="#73E2F7"/>
<path d="M21.2353 2.4382H15.126V14H12.3778V0H21.2353V2.4382Z" fill="#73E2F7"/>
<path d="M32.6922 14H29.8254L28.995 11.5225H23.9928L23.1426 14H20.2758L25.3966 0H27.5516L32.6922 14ZM28.2634 9.22191L26.5433 4.12921L24.7639 9.22191H28.2634Z" fill="#73E2F7"/>
<path d="M44 0L39.0176 11.6404C38.4838 12.8989 37.515 14 35.874 14H34.1934V11.5618H35.3006C36.0519 11.5618 36.5067 11.2472 36.7637 10.677L37.1789 9.71348L32.671 0H35.5379L38.4838 6.74438L41.1529 0H44Z" fill="#73E2F7"/>
</g>
</svg>
