<svg width="48" height="48" viewBox="0 0 48 48" fill="none" xmlns="http://www.w3.org/2000/svg">
<g id="Icon">
<path id="Subtract" fill-rule="evenodd" clip-rule="evenodd" d="M32.4606 12.4228H40.6259C43.4501 12.4228 45.75 14.7889 45.75 17.6949V38.228C45.75 41.1339 43.4501 43.5 40.6259 43.5H6.62409C3.79989 43.5 1.5 41.1339 1.5 38.228V17.6949C1.5 14.7889 3.79989 12.4228 6.62409 12.4381H14.7894V7.40596C14.7894 5.80254 16.056 4.5 17.6136 4.5H29.6364C31.194 4.5 32.4606 5.80254 32.4606 7.40596V12.4228ZM28.2248 8.85798H19.0252V12.3476H28.2248V8.85798ZM15.2667 28.5656L20.5108 33.75L31 23.3802L28.6675 21.075L20.5108 29.1473L17.5992 26.2594L15.2667 28.5656Z" fill="#73E2F7"/>
</g>
</svg>
