<svg width="48" height="14" viewBox="0 0 48 14" fill="none" xmlns="http://www.w3.org/2000/svg">
<g id="&#208;&#149;&#208;&#159;&#208;&#147;&#208;&#163;">
<path d="M10.0295 14H0V0H10.0295V2.4382H2.97249V5.72191H8.98161V8.16011H2.97249V11.5618H10.0295V14Z" fill="#F36792"/>
<path d="M23.3337 14H20.3612V2.4382H15.2075V14H12.235V0H23.3337V14Z" fill="#F36792"/>
<path d="M35.8061 2.4382H29.1982V14H26.2257V0H35.8061V2.4382Z" fill="#F36792"/>
<path d="M48 0L42.611 11.6404C42.0336 12.8989 40.9858 14 39.2109 14H37.3931V11.5618H38.5907C39.4033 11.5618 39.8952 11.2472 40.1732 10.677L40.6222 9.71348L35.7465 0H38.8473L42.0336 6.74438L44.9206 0H48Z" fill="#F36792"/>
</g>
</svg>
