<svg width="48" height="48" viewBox="0 0 48 48" fill="none" xmlns="http://www.w3.org/2000/svg">
<g id="Icon">
<g id="Vector">
<path d="M46.1207 40.0261L26.4335 5.90631C25.3489 4.03123 22.6472 4.03123 21.5626 5.90631L1.88197 40.0261C0.797366 41.9012 2.15148 44.25 4.32069 44.25H43.6885C45.8512 44.25 47.1987 41.9012 46.1207 40.0261ZM21.9504 17.9002C23.2914 17.9002 24.3826 18.9924 24.3826 20.3345C24.3826 21.6767 23.2914 22.7689 21.9504 22.7689C20.6095 22.7689 19.5183 21.6767 19.5183 20.3345C19.5183 18.9924 20.6095 17.9002 21.9504 17.9002ZM19.7812 31.4534L15.9621 38.3353C15.7452 38.6445 15.3902 38.8287 15.009 38.8287C14.7723 38.8287 14.5423 38.7563 14.3516 38.6182C14.0953 38.4405 13.9309 38.1774 13.8718 37.8747C13.8192 37.5721 13.8849 37.2629 14.0624 37.0063L17.6909 30.506L17.7829 30.1047C17.7895 30.0718 17.8158 30.0455 17.8421 30.0323C17.875 30.0191 17.9078 30.0191 17.9341 30.0389C17.9341 30.0389 18.3745 30.4205 18.4534 30.4863C18.5323 30.5521 18.6243 30.6113 18.8149 30.5718L18.9793 30.5455L19.7549 31.3153C19.8009 31.3547 19.8141 31.4074 19.7812 31.4534ZM23.929 35.4733L23.2848 38.3024C23.1599 38.8287 22.6998 39.1972 22.1608 39.1972C22.0753 39.1972 21.9833 39.184 21.8979 39.1643C21.5955 39.0919 21.3391 38.9077 21.1814 38.6445C21.017 38.3813 20.9644 38.0721 21.0367 37.7695L21.9767 33.6706C21.9833 33.6311 22.0162 33.6048 22.049 33.5917C22.0885 33.5785 22.1279 33.5917 22.1542 33.618L23.9027 35.3681C23.929 35.401 23.9356 35.4404 23.929 35.4733ZM28.6355 38.5524C28.4515 38.7366 28.0965 38.8287 27.5641 38.8287C26.9988 38.8287 26.4203 38.7235 26.3086 38.7037C26.2889 38.6971 26.2691 38.6906 26.256 38.6774L24.4549 36.8747C24.4154 36.8352 24.4154 36.7694 24.4549 36.7234L25.3489 35.8286L19.0319 29.506L18.9464 29.5257C18.8741 29.5389 18.8084 29.552 18.7426 29.552C18.506 29.552 18.2825 29.4599 18.1116 29.2889L15.2522 26.4269C15.0616 26.2361 14.963 25.9664 14.9958 25.6966C15.0287 25.4269 15.1733 25.1834 15.4034 25.0387L18.8741 22.8346C19.0187 22.7425 19.1831 22.6965 19.354 22.6965C19.4197 22.6965 19.4789 22.7031 19.538 22.7162H19.5446L23.344 23.532C23.5741 23.5781 23.7778 23.7097 23.9159 23.9071L25.947 26.8677C26.1968 27.2361 26.1442 27.723 25.8221 28.0256L22.1411 31.4995L25.9076 35.2694L26.8016 34.3746C26.841 34.3351 26.9067 34.3351 26.9528 34.3746L28.7539 36.1773C28.767 36.1905 28.7802 36.2102 28.7802 36.2299C28.7933 36.3089 28.8722 36.7168 28.8985 37.1839C28.9379 37.8813 28.8525 38.3353 28.6355 38.5524ZM24.731 33.2166C24.7244 33.2627 24.6915 33.289 24.6587 33.3022C24.6521 33.3022 24.6389 33.3088 24.6324 33.3088C24.6061 33.3088 24.5798 33.2956 24.5601 33.2759L22.8641 31.5784C22.8444 31.5587 22.8313 31.5324 22.8313 31.4995C22.8313 31.4732 22.8444 31.4468 22.8641 31.4271L23.2322 31.0784C23.2717 31.0389 23.3308 31.0389 23.3703 31.0718L24.2445 31.789C24.6652 32.1311 24.8493 32.6903 24.731 33.2166ZM38.2852 38.7432C38.2524 38.7958 38.1998 38.8287 38.1406 38.8287H29.6215C29.5821 38.8287 29.5427 38.809 29.5164 38.7761C29.4901 38.7432 29.4835 38.7037 29.4901 38.6642L29.8976 37.0063C29.9042 36.9865 29.9108 36.9668 29.9239 36.9536L30.5287 36.2234L30.8573 35.1444C30.8639 35.1115 30.8902 35.0851 30.9165 35.072L32.0734 34.4009C32.126 34.3746 32.1852 34.3812 32.2312 34.4206L33.0791 35.2233L33.6116 35.243L34.407 34.822C34.4464 34.8022 34.4924 34.8022 34.5318 34.822L35.4324 35.3154C35.4653 35.3352 35.4916 35.3615 35.4981 35.401L35.6559 36.0655L36.2475 36.2168C36.2869 36.2299 36.3198 36.2562 36.3329 36.2957L36.5104 36.7168L36.7142 36.6247C36.7734 36.5984 36.8391 36.6115 36.8851 36.6444C36.8983 36.6576 36.9114 36.6707 36.9245 36.6905L37.365 37.5984C37.411 37.5853 37.457 37.5918 37.503 37.6181L37.8711 37.8484C37.8974 37.8616 37.9171 37.8879 37.9303 37.9142L38.2852 38.5787C38.3181 38.6313 38.3181 38.6971 38.2852 38.7432Z" fill="#FF8E4F"/>
<path d="M23.2131 26.0374L23.0093 27.215C23.0027 27.2348 22.9961 27.2611 22.9764 27.2743L20.965 29.1691C20.9255 29.2085 20.8598 29.2085 20.8204 29.1691L20.3865 28.7348C20.3668 28.7151 20.3536 28.6888 20.3536 28.6625C20.3536 28.2348 20.1893 27.8269 19.8869 27.5243L17.9215 25.5637L17.3036 25.9518L19.3742 28.0243C19.5977 28.248 19.6832 28.5572 19.6109 28.8664L19.5911 28.952L20.8729 30.2349L20.9913 30.1231L20.9978 30.1165L24.0413 27.2479L23.2131 26.0374Z" fill="#FF8E4F"/>
</g>
</g>
</svg>
