<svg width="240" height="240" viewBox="0 0 240 240" fill="none" xmlns="http://www.w3.org/2000/svg">
<g id="Icon">
<g id="Vector">
<path d="M189.366 133.39C187.997 133.492 155.261 136.339 141.873 150.32C128.436 164.3 125.749 198.312 125.603 199.735C125.358 202.989 128.046 205.836 131.222 205.582C132.59 205.48 165.326 202.633 178.714 188.652C192.151 174.672 194.838 140.66 194.985 139.237C195.229 135.983 192.493 133.136 189.366 133.39Z" fill="#1CCF4E"/>
<path d="M125.603 133.288C125.358 136.542 128.046 139.389 131.222 139.135C132.59 139.033 165.326 136.186 178.714 122.205C192.151 108.225 194.838 74.213 194.985 72.7895C195.229 69.5357 192.542 66.6887 189.366 66.9429C187.997 67.0446 155.261 69.8916 141.873 83.8725C128.436 97.8533 125.7 131.865 125.603 133.288Z" fill="#1CCF4E"/>
<path d="M126.482 95.7179C127.361 94.5994 148.567 68.5696 148.567 48.7931C148.567 29.0674 127.361 2.98681 126.482 1.86835C124.43 -0.622783 120.619 -0.622783 118.567 1.86835C117.638 2.98681 96.4327 29.0674 96.4327 48.844C96.4327 68.5696 117.638 94.6503 118.518 95.7687C120.57 98.209 124.43 98.209 126.482 95.7179Z" fill="#1CCF4E"/>
<path d="M119.397 199.736C119.299 198.312 116.563 164.25 103.127 150.32C89.69 136.339 57.0023 133.543 55.6342 133.39C52.5071 133.136 49.7709 135.932 50.0152 139.237C50.1129 140.66 52.8491 174.723 66.2858 188.653C79.7224 202.634 112.41 205.43 113.778 205.582C116.954 205.836 119.641 203.04 119.397 199.736Z" fill="#1CCF4E"/>
<path d="M113.778 139.135C116.905 139.389 119.641 136.593 119.397 133.288C119.299 131.865 116.563 97.8021 103.127 83.8721C89.69 69.8913 57.0023 67.0951 55.6342 66.9426C52.5071 66.6884 49.7709 69.4846 50.0152 72.7892C50.1129 74.2127 52.8491 108.275 66.2858 122.205C79.7224 136.186 112.41 139.033 113.778 139.135Z" fill="#1CCF4E"/>
<path d="M132.932 211.53H112.068V240H132.932V211.53Z" fill="#1CCF4E"/>
</g>
</g>
</svg>
