<svg width="48" height="48" viewBox="0 0 48 48" fill="none" xmlns="http://www.w3.org/2000/svg">
<g id="Icon" clip-path="url(#clip0_175_2043)">
<g id="Group">
<path id="Vector" d="M9.34862 37.9224C2.85504 28.3393 7.43776 20.8548 7.43776 20.8548C6.37303 20.5396 2.96777 22.7713 2.96777 22.7713C4.88303 15.7524 15.4174 9.78928 15.4174 9.78928C14.248 9.36133 10.9489 10.2114 10.9489 10.2114C19.5673 1.91672 30.1029 5.00114 30.1029 5.00114C30.4208 3.19079 35.6374 0 35.6374 0C35.1038 0.528456 34.8886 3.4055 34.8886 3.4055C35.4207 2.4464 37.1262 1.48902 37.1262 1.48902C36.1693 3.72071 37.1262 8.50812 37.1262 8.50812C39.8925 11.2768 42.9774 20.8551 42.9774 20.8551L44.1512 22.5571C45.6414 24.6883 45.0936 28.039 43.6176 28.8337C38.086 31.8201 37.551 26.3881 37.551 26.3881C32.9748 25.856 29.5693 20.7465 29.5693 20.7465C23.3995 23.938 26.8358 32.9416 29.4999 36.3989C32.9227 40.8307 30.4164 48 30.4164 48C30.4164 48 15.7605 47.393 9.34862 37.9224Z" fill="#73E2F7"/>
</g>
</g>
<defs>
<clipPath id="clip0_175_2043">
<rect width="48" height="48" fill="white"/>
</clipPath>
</defs>
</svg>
