<svg width="48" height="48" viewBox="0 0 48 48" fill="none" xmlns="http://www.w3.org/2000/svg">
<g id="Icon">
<g id="Group">
<path id="Vector" d="M23.1299 24.375C23.1299 24.9717 22.8928 25.544 22.4709 25.966C22.0489 26.3879 21.4766 26.625 20.8799 26.625C20.2831 26.625 19.7108 26.3879 19.2889 25.966C18.8669 25.544 18.6299 24.9717 18.6299 24.375C18.6299 23.7783 18.8669 23.206 19.2889 22.784C19.7108 22.3621 20.2831 22.125 20.8799 22.125C21.4766 22.125 22.0489 22.3621 22.4709 22.784C22.8928 23.206 23.1299 23.7783 23.1299 24.375Z" fill="#73E2F7"/>
<path id="Vector_2" d="M30.2938 4.5C34.7806 4.60354 36.9782 9.92455 34.1538 13.2433C36.7031 15.3075 38.4417 18.2053 39.0629 21.4258L42.6216 37.3808C42.6983 37.7277 42.7306 38.08 42.7467 38.3866L42.748 38.4203V38.4539C42.7493 39.4531 42.4534 40.4302 41.898 41.2609C41.3425 42.0916 40.5527 42.7386 39.6287 43.1195C38.7048 43.5004 37.6884 43.5981 36.7088 43.4002C35.7292 43.2022 34.8305 42.7176 34.1269 42.0079C33.6579 42.4792 33.1005 42.8533 32.4865 43.1087C31.8726 43.3642 31.2143 43.496 30.5494 43.4965C29.8842 43.4972 29.2256 43.366 28.6115 43.1105C27.9974 42.855 27.4401 42.4802 26.9718 42.0079C26.5028 42.4792 25.9453 42.8533 25.3314 43.1087C24.7175 43.3642 24.0592 43.496 23.3943 43.4965C22.729 43.497 22.0703 43.3656 21.4562 43.1099C20.8421 42.8541 20.2849 42.4791 19.8167 42.0066C19.3442 42.4846 18.7805 42.8628 18.159 43.1188C17.5375 43.3747 16.8709 43.5032 16.1988 43.4965C13.6515 43.479 11.6152 41.5601 11.2521 39.1558C10.885 39.3577 10.4727 39.4632 10.0537 39.4624C8.28244 39.4624 7.08678 37.6605 7.75388 36.0146L8.95088 33.1557C9.10286 32.7953 9.33553 32.4847 9.62335 32.2454C8.10356 31.8393 6.62681 31.1077 5.33163 29.8007C4.65108 29.1189 4.41975 28.3296 4.52062 27.5268C4.58787 26.9956 4.81786 26.4443 4.96984 26.0812L5.03708 25.9172L5.0586 25.8634L5.0855 25.8136C5.92878 24.1408 6.94691 22.7921 8.21519 21.8024C9.28718 20.9684 10.5373 20.3932 11.8681 20.1215C11.895 20.0368 11.9232 19.9507 11.9528 19.866C11.504 19.1267 11.2482 18.2865 11.209 17.4226C11.1565 16.2619 11.4931 15.1168 12.1656 14.1691C12.8381 13.2215 13.8079 12.5255 14.9211 12.1917C15.3649 12.0573 15.6608 11.6538 15.6608 11.1966V11.1832C15.6608 8.30552 17.9876 5.97918 20.8658 5.97918C21.6189 5.97918 22.3318 6.14054 22.9773 6.42293C23.9995 6.88013 25.2099 6.70532 26.0707 5.97918C27.2027 5.03211 28.6295 4.50906 30.1055 4.5H30.2938ZM11.1956 28.0324H7.37057C8.45459 29.0705 9.73364 29.5869 11.1956 29.8383V28.0324ZM11.1956 26.6877V24.4824C11.1956 24.0211 11.2171 23.5639 11.2602 23.1121C10.7624 23.3176 10.295 23.5899 9.87082 23.9216C9.0652 24.5509 8.3322 25.4452 7.66242 26.6877H11.1956ZM36.4241 21.9503C35.9183 19.3002 34.474 16.9212 32.3559 15.2496C30.2379 13.578 27.5881 12.7258 24.8925 12.8493C18.7327 13.1142 13.8855 18.2846 13.8855 24.4824V38.3866C13.8855 39.7246 14.948 40.799 16.2217 40.8071H16.227C16.6111 40.8089 16.9898 40.717 17.3304 40.5394C17.6709 40.3618 17.963 40.1038 18.1812 39.7878L18.1839 39.7838C18.9734 38.6811 20.6533 38.6273 21.4589 39.7972C21.8946 40.4131 22.5967 40.8071 23.3943 40.8071C23.7753 40.8052 24.1503 40.7119 24.4878 40.535C24.8253 40.3581 25.1154 40.1028 25.3337 39.7905L25.3391 39.7838C26.1272 38.6811 27.8084 38.6273 28.614 39.7972C29.0498 40.4131 29.7518 40.8071 30.5494 40.8071C30.9304 40.8052 31.3055 40.7119 31.6429 40.535C31.9804 40.3581 32.2705 40.1028 32.4888 39.7905L32.4942 39.7838C33.2823 38.6811 34.9635 38.6273 35.7691 39.7972C36.2049 40.4131 36.9069 40.8071 37.7045 40.8071C38.9956 40.8071 40.0407 39.7717 40.0582 38.4848C40.0511 38.3109 40.0304 38.1378 39.9963 37.9671L36.4281 21.9718L36.4241 21.9503Z" fill="#73E2F7"/>
</g>
</g>
</svg>
