<svg width="48" height="48" viewBox="0 0 48 48" fill="none" xmlns="http://www.w3.org/2000/svg">
<g id="Icon" clip-path="url(#clip0_175_1404)">
<g id="Group">
<path id="Vector" d="M43.3029 43.2556C43.3029 43.2556 44.0602 40.5164 43.7642 39.5307C43.5268 38.7434 41.3991 33.9381 40.137 30.8593C39.7553 29.8015 39.4683 28.8744 39.4593 28.3906C39.4292 26.861 41.4322 22.9678 40.9874 20.3668C40.5366 17.7688 35.8786 14.361 36.5067 13.8245C37.1348 13.2866 42.9949 13.5496 43.4532 12.9275C43.9145 12.3054 44.7093 11.5812 44.1729 10.6421C43.6365 9.70296 38.433 7.23272 38.1626 6.96526C37.8936 6.6963 37.4909 2.03679 34.3535 2.48606C35.3377 8.71577 34.1311 11.0012 28.7955 12.9726C28.0337 13.7374 28.25 16.6224 28.5926 17.9116C29.8473 24.8204 19.9377 21.7627 16.8064 21.8093C13.5999 21.6275 11.9094 21.2518 8.97941 23.1886C6.8202 24.6116 5.20793 23.6424 4.08099 22.7033C2.1081 25.8016 7.57149 25.6469 7.27398 26.5048C6.39497 28.2148 6.91336 31.5565 7.17932 32.0945C7.50838 32.7526 7.62558 33.7563 7.52341 34.0899C7.12072 35.3881 3.93975 38.5045 3.93975 40.1273C3.93975 41.7516 4.16964 45.7079 4.16964 45.7079C4.16964 45.7079 3.92773 48.0008 4.41156 48.0008C4.89389 48.0008 7.5189 47.9106 8.14548 47.9106C8.77205 47.9106 7.83144 45.8311 6.54523 45.6988C6.54523 45.2045 6.83973 40.3316 6.83973 40.3316L10.6217 35.7863C10.6217 35.7863 11.0575 40.246 11.66 41.1325C12.2641 42.0175 14.3662 46.0324 14.3662 46.0324C14.3662 46.0324 14.2339 47.7153 14.6306 47.7153C15.0273 47.7153 17.2106 47.6582 18.0024 47.6582C18.7928 47.6582 17.8251 45.484 16.6035 45.6147C16.1407 44.8889 15.1009 40.8695 14.7929 39.983C14.4849 39.0965 14.4022 36.0072 14.4443 34.6834C14.4834 33.3566 15.8132 35.6631 22.0519 35.6225C28.2876 35.5819 30.3161 34.6834 30.3161 34.6834C30.3161 34.6834 31.6744 45.1218 31.7691 45.8776C31.8953 46.7011 31.6338 47.5921 32.0591 47.5921C32.4858 47.5921 35.0147 47.6101 35.7449 47.6101C36.4767 47.6101 35.8862 45.2 34.1807 45.203C33.8487 44.4006 33.5857 39.4511 33.5857 39.4511L36.3084 34.452C36.3084 34.452 40.5156 38.7284 41.1091 39.8508C41.7042 40.9717 41.4232 43.9919 41.4232 43.9919C41.4232 43.9919 40.8627 44.65 40.7004 45.0813C41.1076 45.7364 42.1354 46.5192 43.04 47.4268C44.2285 47.1609 44.3156 45.6057 44.0317 44.7192C43.7477 43.8251 43.3029 43.2556 43.3029 43.2556Z" fill="#73E2F7"/>
<path id="Vector_2" d="M27.9943 10.0095C31.3841 8.18232 28.989 4.31016 28.2737 4.75793C28.6629 6.28456 28.4495 8.70221 26.2137 8.55196C23.9718 8.40019 23.8967 3.93602 27.6306 2.94883C31.3631 1.96463 34.4569 9.14998 27.0191 11.5691C31.889 11.9283 34.4313 9.68641 33.9235 3.79929C33.4156 -2.08783 21.132 -0.891776 20.9246 5.74213C20.7112 12.376 26.5908 10.6375 27.9943 10.0095Z" fill="#73E2F7"/>
</g>
</g>
<defs>
<clipPath id="clip0_175_1404">
<rect width="48" height="48" fill="white"/>
</clipPath>
</defs>
</svg>
