<svg width="48" height="48" viewBox="0 0 48 48" fill="none" xmlns="http://www.w3.org/2000/svg">
<g id="Icon" clip-path="url(#clip0_175_881)">
<g id="Group">
<path id="Vector" d="M48 12.0006C48 9.15743 45.6869 6.84435 42.8438 6.84435C42.0672 6.84435 41.4375 7.47397 41.4375 8.25059C41.4375 9.02721 42.0672 9.65683 42.8438 9.65683C44.1361 9.65683 45.1875 10.7082 45.1875 12.0006C45.1875 12.8517 44.7171 13.6221 44.0061 14.0322C41.7402 11.9017 38.692 10.5943 35.3438 10.5943H26.2502C23.7458 10.5943 21.5195 10.9654 20.2461 11.2311C19.391 9.79586 17.4816 7.34535 13.9449 6.16655C13.0355 5.86355 12.094 6.54107 12.094 7.5006V12.2425C7.74498 13.1964 6.84283 18.1694 5.006 20.0061C4.01179 21.0003 1.83034 21.6989 1.07529 21.8838C0.309917 22.0694 -0.155173 22.8488 0.0475124 23.6115L1.64125 29.6115C1.72086 29.9111 1.89728 30.1761 2.14308 30.3651C2.38887 30.5542 2.69026 30.6567 3.00033 30.6567H10.5003C12.6374 30.6567 13.594 32.2105 13.594 33.7504V40.5003C13.594 41.277 14.2236 41.9066 15.0002 41.9066H19.594C20.3164 41.9066 20.9213 41.3592 20.9933 40.6403L21.5991 34.5824C23.4524 34.809 28.1287 35.1566 30.7501 35.1566C33.2728 35.1566 37.4838 34.8354 39.1538 34.6078L39.7571 40.6403C39.829 41.3592 40.4339 41.9066 41.1564 41.9066H45.7501C46.4906 41.9066 47.1043 41.3322 47.1533 40.5932C47.1878 40.0707 48.0001 27.7622 48.0001 24.7505V23.2505C48.0001 20.6374 47.204 18.2068 45.8417 16.1883C47.1572 15.2389 48 13.691 48 12.0006ZM10.594 21.4697C9.8174 21.4697 9.18778 20.8401 9.18778 20.0635C9.18778 19.2868 9.8174 18.6572 10.594 18.6572C11.3706 18.6572 12.0003 19.2868 12.0003 20.0635C12.0003 20.8401 11.3706 21.4697 10.594 21.4697Z" fill="#73E2F7"/>
</g>
</g>
<defs>
<clipPath id="clip0_175_881">
<rect width="48" height="48" fill="white"/>
</clipPath>
</defs>
</svg>
