<svg width="48" height="48" viewBox="0 0 48 48" fill="none" xmlns="http://www.w3.org/2000/svg">
<g id="Icon">
<path id="Vector" fill-rule="evenodd" clip-rule="evenodd" d="M46.7341 16.8547L41.7788 11.5605L43.9301 10.1504L44.051 9.04948L43.0599 9L40.4614 10.9049H37.2223L35.2401 9.66796L34.5271 9.81639L34.5392 10.6204L35.8203 12.0676L35.6511 12.8222L20.628 14.4921L5.04887 14.0468L3.36889 14.7642L2.1361 16.3722L1.49553 20.1326L1.38676 22.8415L1 25.3649L1.10878 27.8759L1.54388 27.9625L2.17236 27.2574L2.67998 24.8949L2.26905 21.6169L2.41408 21.5922L3.39306 26.5771L2.72832 30.8941L3.33263 39.528L3.39306 40.4805L3.98529 41H6.5959L7.44193 40.7402L5.09722 36.8438L6.25749 31.896H6.8618L8.98897 38.4766L10.0888 40.1712L10.6327 40.5052H13.5213L13.896 40.0352L11.3941 38.4642L9.70205 33.1206L10.1251 32.2547L11.1161 32.3537L11.7446 33.9246L12.6511 32.4032L13.5334 33.937L14.2706 32.2671L16.4582 30.5477L24.2055 29.7808L25.5108 31.4136L26.6106 39.3796L27.1908 40.53H29.8376L30.1277 40.097L28.5202 37.8087L28.3269 33.4422L29.1971 33.937L30.1156 36.8315L31.2759 40.5918L31.7956 41H34.1645L34.3579 40.4557L33.6689 39.8002L31.4209 35.3471L31.9406 30.6714L34.4425 28.7789L38.0804 21.852L42.2743 19.8728L46.1298 19.4275L46.4561 19.0564L47 17.4979L46.7341 16.8547Z" fill="#27B1FE"/>
</g>
</svg>
