<svg width="48" height="48" viewBox="0 0 48 48" fill="none" xmlns="http://www.w3.org/2000/svg">
<g id="Icon">
<g id="Vector">
<path d="M26.8931 9.17761L27.0622 8.9243C27.4622 8.32518 27.2932 7.52026 26.6847 7.1265C26.0766 6.73283 25.259 6.89907 24.859 7.49811L24.8264 7.54674C21.6176 5.48603 17.953 5.48422 14.743 7.5425L14.7411 7.53965C14.341 6.94061 13.5236 6.77419 12.9153 7.16804C12.3069 7.5618 12.1378 8.36672 12.5378 8.96584L12.6756 9.17224C11.1069 10.6589 9.65898 12.6367 8.35775 15.0683C7.9894 14.6887 7.40801 14.552 6.88831 14.7699C6.21849 15.051 5.90692 15.8135 6.19239 16.473L6.40781 16.971L5.8621 17.0361C4.12933 17.3175 4.44381 19.7358 6.17974 19.6134L6.30753 19.5981C5.42273 21.9104 4.6652 24.444 4.0468 27.1414L3.53273 26.8151C2.92084 26.4267 2.10495 26.6003 1.71041 27.2028C1.31595 27.8054 1.49226 28.6088 2.10416 28.9972L3.47903 29.8699C2.84042 33.2779 2.41432 36.9008 2.22492 40.6371C2.21601 40.8128 2.24346 40.9884 2.30561 41.1534C2.36776 41.3183 2.46331 41.4691 2.58645 41.5965C2.70959 41.724 2.85776 41.8254 3.02196 41.8948C3.18615 41.9641 3.36295 41.9999 3.54161 41.9998H36.021C36.1996 41.9998 36.3764 41.964 36.5406 41.8947C36.7048 41.8253 36.8529 41.7238 36.976 41.5964C37.0992 41.469 37.1947 41.3182 37.2569 41.1533C37.3191 40.9884 37.3465 40.8128 37.3377 40.6371C36.4747 28.4325 34.2307 16.8822 26.8931 9.17761ZM15.8322 30.3265C14.2188 31.9031 10.7617 32.0199 9.24615 30.239C8.77858 29.6894 8.85179 28.8707 9.40981 28.4103C9.96791 27.9497 10.7994 28.022 11.267 28.5714C11.3761 28.6995 11.7638 28.9003 12.3851 28.9283C13.034 28.9575 13.6727 28.779 13.9748 28.4838C14.4916 27.9789 15.3263 27.9818 15.8392 28.4908C16.3521 28.9996 16.349 29.8216 15.8322 30.3265ZM23.518 19.3259C22.3224 19.3259 21.2322 18.8595 20.5964 18.0743C20.1424 17.5137 20.2358 16.697 20.8052 16.25C21.3746 15.803 22.2039 15.8952 22.6579 16.4556C22.7676 16.591 23.1126 16.7356 23.5336 16.7296C23.9334 16.7264 24.218 16.594 24.3132 16.4724C24.7576 15.9046 25.5856 15.7991 26.1622 16.2368C26.7389 16.6745 26.8459 17.4897 26.4014 18.0575C25.778 18.8539 24.7406 19.3162 23.5553 19.3258L23.518 19.3259ZM30.9827 34.168C28.7999 36.6532 22.2644 34.9349 24.2574 32.3798C24.7655 31.8665 25.6003 31.8563 26.1216 32.357C26.2755 32.5047 26.9314 32.7719 27.8117 32.7492C28.4569 32.7331 28.8974 32.5644 29.0477 32.4045C29.5422 31.8784 30.3762 31.8465 30.9107 32.3337C31.4451 32.8206 31.4773 33.6418 30.9827 34.168Z" fill="#E3D08A"/>
<path d="M43.2441 23.4086L44.0191 23.5012C44.7332 23.5867 45.4002 23.0709 45.4867 22.369C45.5744 21.6573 45.0596 21.0103 44.3368 20.9239L43.404 20.8125L43.7723 19.9614C44.0577 19.3018 43.7462 18.5393 43.0763 18.2582C42.4065 17.9773 41.632 18.284 41.3466 18.9435L41.3029 19.0445C39.2155 15.1989 36.2542 11.7259 32.0707 11.383C32.8443 12.5604 33.5754 13.8581 34.2588 15.2754C35.0442 16.9041 35.7586 18.6746 36.3975 20.5611L36.5872 20.4314C38.0595 19.5023 39.4887 21.531 38.0914 22.5636L37.2098 23.1666C38.2258 26.7095 38.992 30.5879 39.4769 34.6638L40.6683 35.0635C41.3575 35.2946 41.7258 36.0322 41.491 36.7109C41.2575 37.3959 40.4886 37.7515 39.8179 37.521L39.7664 37.5037C39.8518 38.5038 39.92 39.5054 39.9711 40.5078C39.997 41.0178 39.9179 41.525 39.7471 42H45.1817C45.3603 42 45.5371 41.9643 45.7013 41.8949C45.8655 41.8256 46.0137 41.7241 46.1368 41.5967C46.26 41.4692 46.3555 41.3184 46.4177 41.1535C46.4798 40.9886 46.5073 40.8129 46.4984 40.6372C46.1757 34.2684 45.0372 28.2872 43.2441 23.4086Z" fill="#E3D08A"/>
</g>
</g>
</svg>
