<svg width="48" height="48" viewBox="0 0 48 48" fill="none" xmlns="http://www.w3.org/2000/svg">
<g id="Icon">
<g id="Vector">
<path d="M33.7664 12.5612C34.7578 12.118 35.7598 11.8964 36.7617 11.8964C38.059 11.8964 39.3984 12.2869 40.6852 13.0466C44.25 8.97342 44.25 3.75 44.25 3.75C44.25 3.75 36.941 7.92874 32.3426 9.14226C33.0914 10.1131 33.5976 11.2844 33.7664 12.5612Z" fill="#73E2F7"/>
<path d="M7.3043 13.0466C8.60157 12.2869 9.93047 11.8964 11.2383 11.8964C12.2402 11.8964 13.2422 12.118 14.2336 12.5612C14.4024 11.2844 14.9086 10.1131 15.6574 9.14226C11.059 7.92874 3.75 3.75 3.75 3.75C3.75 3.75 3.75 8.97342 7.3043 13.0466Z" fill="#73E2F7"/>
<path d="M36.7617 14.2707C36.0656 14.2707 35.4117 14.4395 34.7894 14.7034C35.8757 16.9088 36.4769 19.2936 36.5824 21.6996C36.6457 21.6996 36.6984 21.6996 36.7617 21.6996C40.0101 21.6996 42.6363 17.9851 42.6363 17.9851C42.6363 17.9851 40.0101 14.2707 36.7617 14.2707Z" fill="#73E2F7"/>
<path d="M13.1999 14.7034C12.5882 14.4395 11.9237 14.2707 11.2277 14.2707C7.97921 14.2707 5.35304 17.9851 5.35304 17.9851C5.35304 17.9851 7.97921 21.6996 11.2277 21.6996C11.2909 21.6996 11.3437 21.6996 11.4069 21.6996C11.523 19.2936 12.1136 16.9088 13.1999 14.7034Z" fill="#73E2F7"/>
<path d="M31.636 39.0688L31.4673 38.1824C31.3723 37.7075 31.309 37.2221 31.2669 36.7473L29.0626 30.6797C28.3243 28.6325 28.2505 26.4481 28.8727 24.3588C29.495 22.2694 30.7395 20.4755 32.4798 19.167L33.6399 18.2912C33.3446 17.2465 32.9227 16.2229 32.3954 15.2415L31.4462 13.4793C31.4462 10.8834 29.3368 8.77292 26.7422 8.77292H21.2579C18.6633 8.77292 16.554 10.8834 16.554 13.4793L15.6047 15.2415C15.0774 16.2229 14.6661 17.2359 14.3602 18.2912L15.5204 19.167C17.2606 20.4755 18.5051 22.28 19.1274 24.3588C19.7497 26.4481 19.6864 28.6325 18.9376 30.6797L16.7333 36.7473C16.6911 37.2327 16.6278 37.7075 16.5329 38.1824L16.3641 39.0688C15.8473 41.7596 17.904 44.25 20.6461 44.25H27.3645C30.0962 44.2394 32.1528 41.7491 31.636 39.0688ZM22.6712 40.4617H20.2981V37.9397H22.6712V40.4617ZM27.702 40.4617H25.329V37.9397H27.702V40.4617Z" fill="#73E2F7"/>
<path d="M16.8492 25.0236C16.3746 23.4302 15.4254 22.0478 14.086 21.0453L13.8434 20.8659C13.5375 23.7151 14.0438 26.6275 15.341 29.2551C15.3832 29.3395 15.4254 29.4345 15.4676 29.5189C15.7418 30.0993 15.9738 30.7008 16.1637 31.3128L16.691 29.8566C17.2711 28.2948 17.3238 26.6275 16.8492 25.0236Z" fill="#73E2F7"/>
<path d="M34.1568 20.8765L33.9142 21.0559C32.5853 22.0584 31.6255 23.4302 31.1509 25.0341C30.6763 26.6276 30.729 28.3054 31.2986 29.8671L31.8259 31.3234C32.0157 30.7113 32.2478 30.1204 32.522 29.5295C32.5642 29.445 32.6064 29.3501 32.6486 29.2656C33.9564 26.6381 34.4521 23.7151 34.1568 20.8765Z" fill="#73E2F7"/>
</g>
</g>
</svg>
