<svg width="48" height="48" viewBox="0 0 48 48" fill="none" xmlns="http://www.w3.org/2000/svg">
<g id="Icon" clip-path="url(#clip0_175_920)">
<g id="Group">
<path id="Vector" d="M41.8803 29.1163C41.1119 28.961 40.8573 27.8468 40.8765 26.9408C40.8973 25.8906 41.2703 25.2294 41.9043 25.1238C42.4482 25.0424 43.0011 25.0419 43.5452 25.1222C43.4366 24.6182 43.2639 24.1303 43.0313 23.6702C42.3093 22.3415 41.1022 22.5096 39.7143 20.976C36.4294 17.3404 31.5756 11.6622 28.1465 11.8239C23.2767 12.0512 6.98005 19.7369 6.15401 20.0651C5.32957 20.3933 2.23832 18.698 2.1935 17.6974C2.14707 16.6937 4.15134 14.0075 5.56329 13.7817C6.97525 13.5528 9.84238 13.873 10.6172 13.4616C11.392 13.0517 12.439 11.3676 12.439 10.6841C12.439 10.0021 10.6172 8.59017 10.6172 8.59017C10.6172 8.59017 9.93363 7.45036 9.02274 7.49518C8.11185 7.54321 6.8824 8.67982 6.06276 8.59017C6.29008 9.45463 8.11185 10.3655 8.87546 10.3271C9.63747 10.2919 10.4331 9.5939 10.4331 9.5939C10.4331 9.5939 11.1167 9.86445 11.4817 10.4135C11.7362 10.7945 11.2992 11.7342 10.5708 12.1425C9.83918 12.5539 6.42775 11.9167 5.10385 12.2353C3.78154 12.5523 -0.177368 16.3351 0.00512948 17.8799C0.186026 19.4295 4.23779 22.9818 5.73939 23.2572C4.73885 25.3927 5.78581 30.5843 5.33277 30.9493C4.87653 31.3143 3.146 30.4002 2.7714 31.3191C2.3952 32.238 4.87653 36.73 4.51153 37.3239C4.14654 37.9146 4.21057 39.2625 4.21057 39.2625L8.06223 39.2353C8.0174 38.0523 6.98325 37.2791 6.98325 37.2791L6.44056 34.9066C6.44056 34.9066 9.29168 33.405 10.2026 31.945C10.4763 32.675 11.7522 33.9957 12.2981 34.1798C12.844 34.3639 11.2063 34.5448 11.464 35.2796C11.7202 36.0176 17.7186 38.1867 17.8162 38.6094C17.1279 39.6899 17.6241 40.4199 17.6241 40.4199L21.0436 40.508C20.6337 38.1435 18.876 37.3863 18.876 37.3863L16.0665 34.3079C16.0665 34.3079 18.812 31.1782 19.0777 27.9957C20.8915 30.3218 24.828 30.7204 24.828 30.7204C24.828 30.7204 21.8584 37.8538 21.6599 38.3244C21.4646 38.7935 22.0905 40.508 22.0905 40.508H25.8237C25.598 39.6163 23.6818 38.3196 23.6818 38.3196L28.8749 30.6595L30.1972 30.6387C30.1972 30.6387 31.654 36.9157 31.3819 37.5064C31.1081 38.0971 31.1513 39.7828 31.1513 39.7828L34.9774 39.6899C34.8845 38.4605 33.7031 37.6873 33.7031 37.6873L33.7911 30.5827C33.7911 30.5827 35.8899 31.2695 37.0329 30.5347C36.6151 31.817 36.3445 34.8234 36.5734 35.4557C36.8024 36.088 37.6172 36.5059 38.2575 36.4146C38.8947 36.3218 42.6743 32.2268 43.4059 30.9333C43.6428 30.5155 43.7885 29.8015 43.8477 28.9658C43.6043 28.984 43.3618 29.0128 43.1209 29.0523C42.6215 29.1275 42.2004 29.1803 41.8803 29.1163Z" fill="#73E2F7"/>
<path id="Vector_2" d="M46.3167 26.8031C45.1337 25.9835 43.6129 25.4055 41.9912 25.6665C41.1651 25.7962 41.3076 28.4424 41.9912 28.58C42.6748 28.7177 43.9955 28.1222 45.1801 28.5352C46.3615 28.9434 48.0024 30.8116 48.0024 30.2209C48.0008 29.6318 47.4997 27.6259 46.3167 26.8031Z" fill="#73E2F7"/>
</g>
</g>
<defs>
<clipPath id="clip0_175_920">
<rect width="48" height="48" fill="white"/>
</clipPath>
</defs>
</svg>
