<svg width="48" height="48" viewBox="0 0 48 48" fill="none" xmlns="http://www.w3.org/2000/svg">
<g id="Icon">
<g id="Vector">
<path d="M24.3419 10.5809C26.8331 10.5809 28.8508 8.43714 28.8508 5.79043C28.8508 3.14372 26.8331 1 24.3419 1C21.8508 1 19.8331 3.14372 19.8331 5.79043C19.8331 8.43714 21.8508 10.5809 24.3419 10.5809Z" fill="#FF8E4F"/>
<path d="M37.1244 12.4971C39.6155 12.4971 41.6332 10.3534 41.6332 7.70667C41.6332 5.05996 39.6155 2.91624 37.1244 2.91624C34.6333 2.91624 32.6156 5.05996 32.6156 7.70667C32.6156 10.3534 34.6333 12.4971 37.1244 12.4971Z" fill="#FF8E4F"/>
<path d="M11.8753 12.4971C14.3664 12.4971 16.3841 10.3534 16.3841 7.70667C16.3841 5.05996 14.3664 2.91624 11.8753 2.91624C9.38416 2.91624 7.36647 5.05996 7.36647 7.70667C7.36647 10.3534 9.38416 12.4971 11.8753 12.4971Z" fill="#FF8E4F"/>
<path d="M44.9812 28.4253L43.8202 18.6049C43.5384 16.2097 41.6109 14.4133 39.3452 14.4133H34.8927C34.3968 14.4133 33.8895 14.5091 33.3935 14.7007C32.9539 14.8684 32.706 15.3714 32.8187 15.8504C32.9089 16.2097 32.9878 16.569 33.0328 16.9402L34.2277 28.066C34.3855 29.539 33.9572 31.0121 33.0441 32.09C32.8412 32.3295 32.6045 32.545 32.2776 32.7965C32.0184 32.9882 31.8831 33.3115 31.9056 33.6468L32.6158 44.1858C32.6496 44.6888 33.0441 45.072 33.5175 45.072H40.7316C41.2051 45.072 41.5996 44.6888 41.6334 44.1858L42.4788 31.6588C43.1889 31.6109 43.854 31.2636 44.3274 30.6888C44.8347 30.066 45.0714 29.2516 44.9812 28.4253Z" fill="#FF8E4F"/>
<path d="M16.6547 32.9762C16.2715 32.7127 15.9333 32.4133 15.6515 32.0899C14.7385 31.0001 14.3102 29.539 14.468 28.066L15.6628 16.9402C15.7079 16.533 15.7868 16.1498 15.8882 15.7785C15.9559 15.527 15.9221 15.2635 15.7981 15.048C15.6741 14.8204 15.4825 14.6647 15.2457 14.6049C14.8287 14.4851 14.468 14.4372 14.1073 14.4372H9.64355C7.37787 14.4372 5.45035 16.2456 5.16855 18.6288L4.01881 28.4252C3.92863 29.2396 4.16534 30.066 4.67259 30.6887C5.14601 31.2636 5.81106 31.5989 6.5212 31.6588L7.3666 44.1858C7.40041 44.6888 7.79494 45.072 8.26836 45.072H15.4825C15.9559 45.072 16.3504 44.6888 16.3842 44.1858L17.0831 33.8624C17.0944 33.5031 16.9365 33.1678 16.6547 32.9762Z" fill="#FF8E4F"/>
<path d="M32.4355 28.2814L31.2406 17.1556C30.9588 14.5089 28.975 12.5089 26.6416 12.5089H22.0427C19.7094 12.5089 17.7255 14.5089 17.4437 17.1556L16.2488 28.2814C16.1474 29.2155 16.4179 30.1377 16.9928 30.8203C17.4888 31.4072 18.1425 31.7425 18.8414 31.7904L19.8333 46.1138C19.8672 46.6168 20.2617 47 20.7351 47H27.9492C28.4226 47 28.8171 46.6168 28.851 46.1138L29.8429 31.7904C30.553 31.7425 31.2068 31.4072 31.6915 30.8203C32.2664 30.1377 32.5369 29.2155 32.4355 28.2814Z" fill="#FF8E4F"/>
</g>
</g>
</svg>
