<svg width="48" height="48" viewBox="0 0 48 48" fill="none" xmlns="http://www.w3.org/2000/svg">
<g id="Icon">
<g id="Group">
<path id="Vector" d="M34.9091 4H13.0909C10.6807 4.00289 8.37011 4.9616 6.66585 6.66584C4.9616 8.37008 4.00289 10.6807 4 13.0908V27.6362C4.00264 29.7311 4.72744 31.761 6.05221 33.3839C7.37699 35.0067 9.22075 36.1232 11.2727 36.5452V42.1816C11.2727 42.5107 11.362 42.8337 11.5311 43.1161C11.7003 43.3985 11.9429 43.6297 12.2332 43.785C12.5234 43.9402 12.8503 44.0138 13.1791 43.9979C13.5079 43.9819 13.8262 43.877 14.1 43.6943L24.5455 36.727H34.9091C37.3193 36.7242 39.6299 35.7655 41.3341 34.0612C43.0384 32.357 43.9971 30.0464 44 27.6362V13.0908C43.9971 10.6807 43.0384 8.37008 41.3341 6.66584C39.6299 4.9616 37.3193 4.00289 34.9091 4ZM31.2727 25.818H16.7273C16.2451 25.818 15.7826 25.6265 15.4416 25.2855C15.1006 24.9445 14.9091 24.4821 14.9091 23.9999C14.9091 23.5177 15.1006 23.0552 15.4416 22.7142C15.7826 22.3733 16.2451 22.1817 16.7273 22.1817H31.2727C31.7549 22.1817 32.2174 22.3733 32.5584 22.7142C32.8994 23.0552 33.0909 23.5177 33.0909 23.9999C33.0909 24.4821 32.8994 24.9445 32.5584 25.2855C32.2174 25.6265 31.7549 25.818 31.2727 25.818ZM34.9091 18.5454H13.0909C12.6087 18.5454 12.1462 18.3538 11.8053 18.0128C11.4643 17.6719 11.2727 17.2094 11.2727 16.7272C11.2727 16.245 11.4643 15.7825 11.8053 15.4415C12.1462 15.1006 12.6087 14.909 13.0909 14.909H34.9091C35.3913 14.909 35.8538 15.1006 36.1947 15.4415C36.5357 15.7825 36.7273 16.245 36.7273 16.7272C36.7273 17.2094 36.5357 17.6719 36.1947 18.0128C35.8538 18.3538 35.3913 18.5454 34.9091 18.5454Z" fill="#94CCF5"/>
</g>
</g>
</svg>
