<svg width="48" height="48" viewBox="0 0 48 48" fill="none" xmlns="http://www.w3.org/2000/svg">
<g id="Icon">
<g id="Vector">
<path d="M34.4039 38.0828C29.431 38.0828 25.3748 33.9797 25.3748 28.9234C25.3748 23.8671 29.4196 19.7639 34.4039 19.7639H43.4331V15.8468C29.0185 15.8468 19.0498 15.8468 4.58937 15.8468C3.64979 15.8468 2.7675 15.5678 2.01125 15.1145V35.4559C2.01125 39.0592 4.89875 42 8.45083 42H43.4331V38.0712H34.4039V38.0828Z" fill="#27B1FE"/>
<path d="M34.4042 22.3899C30.8521 22.3899 27.9531 25.319 27.9531 28.934C27.9531 32.549 30.8406 35.4781 34.4042 35.4781H46V22.3899H34.4042ZM35.6875 30.2359H33.1094V27.6205H35.6875V30.2359Z" fill="#27B1FE"/>
<path d="M4.57812 13.2306C3.15729 13.2306 2 12.0567 2 10.6153C2 9.17399 3.15729 8 4.57812 8H38.2656V13.2306H4.57812Z" fill="#27B1FE"/>
</g>
</g>
</svg>
