<svg width="48" height="48" viewBox="0 0 48 48" fill="none" xmlns="http://www.w3.org/2000/svg">
<g id="Icon">
<g id="Vector">
<path d="M13.7357 32.5325C13.1493 31.8329 11.9764 31.8329 11.2922 32.3326L9.63067 34.0316C9.23971 34.4314 9.04423 34.8311 9.04423 35.4308C9.04423 36.4302 9.92389 37.3296 10.9013 37.3296C11.4877 37.3296 11.9764 37.0298 12.3674 36.6301L13.638 35.3308C13.9312 35.031 14.0289 34.7312 14.1267 34.3314C14.3222 33.6318 14.2244 32.9323 13.7357 32.5325Z" fill="#1CCF4E"/>
<path d="M9.24039 26.9358C8.55622 26.2362 7.28561 26.2362 6.60143 26.9358C6.40596 27.0358 5.33082 28.1351 5.13535 28.335C3.47378 30.2338 6.015 32.7324 7.87204 31.0334C7.87204 31.0334 9.14266 29.7341 9.24039 29.6342C9.92457 28.8347 9.92457 27.6354 9.24039 26.9358Z" fill="#1CCF4E"/>
<path d="M17.5492 36.8298C17.0605 36.8298 16.5718 37.0297 16.1808 37.4295L14.8125 38.8286C14.1283 39.5282 14.1283 40.8274 14.8125 41.527C15.4966 42.2266 16.7672 42.2266 17.4514 41.527L18.8198 40.1278C20.0904 38.9286 19.2107 36.8298 17.5492 36.8298Z" fill="#1CCF4E"/>
<path d="M30.1573 15.6427C27.2251 17.5415 23.4133 17.1418 20.8721 14.5433L17.5489 11.2453L21.654 7.0478C17.2557 2.05078 9.53433 1.65102 4.84285 6.54809C0.151361 11.2453 0.44458 19.1406 5.42928 23.6379C9.04563 21.6391 13.4439 24.4374 13.1507 28.6349C15.4964 28.9347 17.5489 31.1334 17.6467 33.532C19.8947 33.532 22.045 35.231 22.6314 37.4297C24.4884 36.93 26.541 37.5296 27.8116 39.0287C29.6686 40.128 31.6234 37.8294 30.2551 36.1304L22.8269 28.535C23.4133 27.9353 24.5862 26.736 25.1726 26.1364L32.5031 33.6319C34.3601 35.3309 36.8036 32.8324 35.142 30.9335L27.8116 23.438C28.398 22.8384 29.5709 21.6391 30.1573 21.0394C31.8189 22.7384 35.8262 26.836 37.4878 28.535C38.1719 29.2345 39.4425 29.2345 40.1267 28.535C40.8109 27.8354 40.8109 26.5362 40.1267 25.8366L30.1573 15.6427Z" fill="#1CCF4E"/>
<path d="M43.1572 6.44794C38.6611 1.85069 31.4284 1.85069 26.9324 6.44794C25.955 7.3474 23.0229 10.3456 22.241 11.2451L23.2183 12.2445C24.8799 13.9435 27.5189 13.9435 29.0827 12.2445L30.2556 11.0452C30.842 11.6448 42.2775 23.2379 42.5707 23.6377C47.5554 19.1404 47.8486 11.2451 43.1572 6.44794Z" fill="#1CCF4E"/>
<path d="M25.1718 41.1278C24.4877 40.4282 23.217 40.4282 22.5329 41.1278L21.1645 42.5269C20.4803 43.2265 20.4803 44.5257 21.1645 45.2253C21.8487 45.9249 23.1193 45.9249 23.8035 45.2253L25.1718 43.8261C25.9537 43.1266 25.9537 41.9273 25.1718 41.1278Z" fill="#1CCF4E"/>
</g>
</g>
</svg>
