<svg width="48" height="48" viewBox="0 0 48 48" fill="none" xmlns="http://www.w3.org/2000/svg">
<g id="Icon">
<path id="Vector" fill-rule="evenodd" clip-rule="evenodd" d="M20.0455 2.25C19.521 2.25 19.0181 2.45832 18.6473 2.82913C18.2765 3.19994 18.0682 3.70287 18.0682 4.22727C18.0682 4.75168 18.2765 5.25461 18.6473 5.62542C19.0181 5.99623 19.521 6.20455 20.0455 6.20455H22.0227V8.30441C19.207 8.65514 16.5385 9.76054 14.2995 11.5036L11.9663 9.17045L13.5343 7.60248C13.8945 7.22956 14.0938 6.7301 14.0893 6.21166C14.0848 5.69323 13.8768 5.1973 13.5102 4.8307C13.1436 4.4641 12.6477 4.25615 12.1292 4.25164C11.6108 4.24714 11.1114 4.44644 10.7384 4.80661L4.80661 10.7384C4.44644 11.1114 4.24714 11.6108 4.25164 12.1292C4.25615 12.6477 4.4641 13.1436 4.8307 13.5102C5.1973 13.8768 5.69323 14.0848 6.21166 14.0893C6.7301 14.0938 7.22956 13.8945 7.60248 13.5343L9.17045 11.9663L11.5036 14.2995C9.76054 16.5385 8.65514 19.207 8.30441 22.0227H6.20455V20.0455C6.20455 19.521 5.99623 19.0181 5.62542 18.6473C5.25461 18.2765 4.75168 18.0682 4.22727 18.0682C3.70287 18.0682 3.19994 18.2765 2.82913 18.6473C2.45832 19.0181 2.25 19.521 2.25 20.0455V27.9545C2.25 28.479 2.45832 28.9819 2.82913 29.3527C3.19994 29.7235 3.70287 29.9318 4.22727 29.9318C4.75168 29.9318 5.25461 29.7235 5.62542 29.3527C5.99623 28.9819 6.20455 28.479 6.20455 27.9545V25.9773H8.30441C8.66427 28.8641 9.80516 31.5136 11.5036 33.7005L9.17045 36.0337L7.60248 34.4657C7.22956 34.1055 6.7301 33.9062 6.21166 33.9107C5.69323 33.9152 5.1973 34.1232 4.8307 34.4898C4.4641 34.8564 4.25615 35.3523 4.25164 35.8708C4.24714 36.3892 4.44644 36.8887 4.80661 37.2616L10.7384 43.1934C11.1114 43.5536 11.6108 43.7529 12.1292 43.7484C12.6477 43.7439 13.1436 43.5359 13.5102 43.1693C13.8768 42.8027 14.0848 42.3068 14.0893 41.7883C14.0938 41.2699 13.8945 40.7704 13.5343 40.3975L11.9663 38.8295L14.2995 36.4964C16.5387 38.239 19.2071 39.3444 22.0227 39.6956V41.7955H20.0455C19.521 41.7955 19.0181 42.0038 18.6473 42.3746C18.2765 42.7454 18.0682 43.2483 18.0682 43.7727C18.0682 44.2971 18.2765 44.8001 18.6473 45.1709C19.0181 45.5417 19.521 45.75 20.0455 45.75H27.9545C28.479 45.75 28.9819 45.5417 29.3527 45.1709C29.7235 44.8001 29.9318 44.2971 29.9318 43.7727C29.9318 43.2483 29.7235 42.7454 29.3527 42.3746C28.9819 42.0038 28.479 41.7955 27.9545 41.7955H25.9773V39.6956C28.7929 39.3444 31.4613 38.239 33.7005 36.4964L36.0337 38.8295L34.4657 40.3975C34.1055 40.7704 33.9062 41.2699 33.9107 41.7883C33.9152 42.3068 34.1232 42.8027 34.4898 43.1693C34.8564 43.5359 35.3523 43.7439 35.8708 43.7484C36.3892 43.7529 36.8887 43.5536 37.2616 43.1934L43.1934 37.2616C43.5536 36.8887 43.7529 36.3892 43.7484 35.8708C43.7439 35.3523 43.5359 34.8564 43.1693 34.4898C42.8027 34.1232 42.3068 33.9152 41.7883 33.9107C41.2699 33.9062 40.7704 34.1055 40.3975 34.4657L38.8295 36.0337L36.4964 33.7005C38.239 31.4613 39.3444 28.7929 39.6956 25.9773H41.7955V27.9545C41.7955 28.479 42.0038 28.9819 42.3746 29.3527C42.7454 29.7235 43.2483 29.9318 43.7727 29.9318C44.2971 29.9318 44.8001 29.7235 45.1709 29.3527C45.5417 28.9819 45.75 28.479 45.75 27.9545V20.0455C45.75 19.521 45.5417 19.0181 45.1709 18.6473C44.8001 18.2765 44.2971 18.0682 43.7727 18.0682C43.2483 18.0682 42.7454 18.2765 42.3746 18.6473C42.0038 19.0181 41.7955 19.521 41.7955 20.0455V22.0227H39.6956C39.3444 19.2071 38.239 16.5387 36.4964 14.2995L38.8295 11.9663L40.3975 13.5343C40.5799 13.7231 40.7981 13.8738 41.0393 13.9774C41.2806 14.081 41.54 14.1356 41.8026 14.1379C42.0651 14.1401 42.3255 14.0901 42.5685 13.9907C42.8115 13.8913 43.0322 13.7445 43.2179 13.5588C43.4035 13.3732 43.5504 13.1524 43.6498 12.9094C43.7492 12.6664 43.7992 12.406 43.797 12.1435C43.7947 11.8809 43.7401 11.6215 43.6365 11.3802C43.5329 11.139 43.3822 10.9208 43.1934 10.7384L37.2616 4.80661C37.0792 4.61776 36.861 4.46713 36.6198 4.3635C36.3785 4.25988 36.1191 4.20533 35.8565 4.20305C35.594 4.20077 35.3336 4.2508 35.0906 4.35022C34.8476 4.44964 34.6268 4.59645 34.4412 4.78211C34.2555 4.96776 34.1087 5.18852 34.0093 5.43152C33.9099 5.67452 33.8599 5.93489 33.8621 6.19743C33.8644 6.45997 33.919 6.71943 34.0226 6.96066C34.1262 7.2019 34.2769 7.42008 34.4657 7.60248L36.0337 9.17045L33.7005 11.5036C31.4612 9.76105 28.7928 8.65571 25.9773 8.30441V6.20455H27.9545C28.479 6.20455 28.9819 5.99623 29.3527 5.62542C29.7235 5.25461 29.9318 4.75168 29.9318 4.22727C29.9318 3.70287 29.7235 3.19994 29.3527 2.82913C28.9819 2.45832 28.479 2.25 27.9545 2.25H20.0455ZM25.9773 27.9545C25.9773 27.4301 26.1856 26.9272 26.5564 26.5564C26.9272 26.1856 27.4301 25.9773 27.9545 25.9773H27.9565C28.4809 25.9773 28.9839 26.1856 29.3547 26.5564C29.7255 26.9272 29.9338 27.4301 29.9338 27.9545C29.9338 28.479 29.7255 28.9819 29.3547 29.3527C28.9839 29.7235 28.4809 29.9318 27.9565 29.9318H27.9545C27.4301 29.9318 26.9272 29.7235 26.5564 29.3527C26.1856 28.9819 25.9773 28.479 25.9773 27.9545ZM20.0455 21.0341C20.0455 20.7719 20.1496 20.5204 20.335 20.335C20.5204 20.1496 20.7719 20.0455 21.0341 20.0455C21.2963 20.0455 21.5478 20.1496 21.7332 20.335C21.9186 20.5204 22.0227 20.7719 22.0227 21.0341C22.0227 21.2963 21.9186 21.5478 21.7332 21.7332C21.5478 21.9186 21.2963 22.0227 21.0341 22.0227C20.7719 22.0227 20.5204 21.9186 20.335 21.7332C20.1496 21.5478 20.0455 21.2963 20.0455 21.0341ZM21.0341 16.0909C19.7231 16.0909 18.4658 16.6117 17.5387 17.5387C16.6117 18.4658 16.0909 19.7231 16.0909 21.0341C16.0909 22.3451 16.6117 23.6024 17.5387 24.5294C18.4658 25.4565 19.7231 25.9773 21.0341 25.9773C22.3451 25.9773 23.6024 25.4565 24.5294 24.5294C25.4565 23.6024 25.9773 22.3451 25.9773 21.0341C25.9773 19.7231 25.4565 18.4658 24.5294 17.5387C23.6024 16.6117 22.3451 16.0909 21.0341 16.0909Z" fill="#F36792"/>
</g>
</svg>
