<svg width="48" height="48" viewBox="0 0 48 48" fill="none" xmlns="http://www.w3.org/2000/svg">
<g id="Icon">
<g id="Vector">
<path d="M37.6427 17.1938H31.7086V24.001H24.8845V29.9202H31.7086V36.7274H37.6427V29.9202H44.4669V24.001H37.6427V17.1938Z" fill="#73E2F7"/>
<path d="M21.9176 21.0404H28.7418V14.2332H40.6099V21.0404H44.0467C45.283 19.0673 46 16.8352 46 14.3812C46 7.537 40.4492 2 33.6003 2C29.4341 2 25.75 4.04708 23.5 7.17937C21.25 4.03475 17.5659 2 13.3997 2C6.55082 2 1 7.537 1 14.3812C1 17.3531 2.05082 20.0785 3.79396 22.2119L23.5 46L28.7418 39.6738V32.8789H21.9176V21.0404Z" fill="#73E2F7"/>
</g>
</g>
</svg>
