<svg width="45" height="36" viewBox="0 0 45 36" fill="none" xmlns="http://www.w3.org/2000/svg">
<g id="Vector">
<path d="M6.9046 19.4718H10.2816C9.93222 20.3774 9.81578 21.3963 9.81578 22.4151V34.7547C9.81578 35.2075 9.81578 35.6604 10.0487 36H4.34276C2.24671 36 0.5 34.3019 0.5 32.3774V25.5849C0.5 22.1887 3.41118 19.4718 6.9046 19.4718Z" fill="#73E2F7"/>
<path d="M35.5507 34.7547V22.4151C35.5507 21.3963 35.3178 20.3774 34.9684 19.4718H38.3454C41.8388 19.4718 44.75 22.1887 44.75 25.5849V32.3774C44.75 34.4151 43.0033 36 40.9072 36H35.2013C35.4342 35.6604 35.5507 35.2075 35.5507 34.7547Z" fill="#73E2F7"/>
<path d="M31.7078 35.9995H13.6585C12.9598 35.9995 12.3776 35.4334 12.3776 34.7542V22.4146C12.3776 19.0184 15.2887 16.3014 18.7822 16.3014H26.5841C30.0775 16.3014 32.9887 19.0184 32.9887 22.4146V34.7542C32.9887 35.4334 32.4065 35.9995 31.7078 35.9995Z" fill="#73E2F7"/>
<path d="M18.8985 13.8113C16.5695 12.566 14.9393 10.1886 14.9393 7.35847C14.9393 3.28301 18.4327 0 22.6248 0C26.8169 0 30.3103 3.28301 30.3103 7.35847C30.3103 10.0754 28.6801 12.4528 26.3511 13.8113C25.1866 14.3773 23.9057 14.7169 22.6248 14.7169C21.3439 14.8301 19.9465 14.4905 18.8985 13.8113Z" fill="#73E2F7"/>
<path d="M31.1249 15.0567C30.6591 14.2642 30.4262 13.3586 30.4262 12.4529C30.4262 9.39634 32.988 6.90578 36.1321 6.90578C39.2762 6.90578 41.838 9.39634 41.838 12.4529C41.838 15.5095 39.2762 18.0001 36.1321 18.0001C35.317 18.0001 34.5018 17.8869 33.9196 17.5473C32.6387 16.9812 31.7071 16.0756 31.1249 15.0567Z" fill="#73E2F7"/>
<path d="M11.4447 17.5473C10.746 17.8869 9.9309 18.0001 9.23222 18.0001C6.08815 18.0001 3.52631 15.5095 3.52631 12.4529C3.52631 9.39634 5.9717 6.90578 9.11577 6.90578C12.2598 6.90578 14.8217 9.39634 14.8217 12.4529C14.8217 13.3586 14.5888 14.2642 14.123 15.0567C13.6572 16.0756 12.6092 16.9812 11.4447 17.5473Z" fill="#73E2F7"/>
</g>
</svg>
