<svg width="48" height="48" viewBox="0 0 48 48" fill="none" xmlns="http://www.w3.org/2000/svg">
<g id="Icon" clip-path="url(#clip0_301_2594)">
<g id="Group">
<path id="Vector" d="M26.7205 18.5858C26.7204 18.0944 26.6545 17.6052 26.5244 17.1313H48V14.5454H24.9485C24.2082 13.8629 23.2727 13.3821 22.1414 13.1879V11.9651C22.1414 11.9376 22.1952 11.9298 22.1946 11.9027C22.1511 10.4006 20.9702 9.2121 19.4579 9.2121H8.08081V13.737C6.30303 14.6621 5.19855 16.4861 5.19855 18.5858C5.19855 18.6067 5.21358 18.627 5.21374 18.6479C5.55736 18.6073 5.90304 18.5866 6.24905 18.5858H26.7205ZM42.6667 33.5757V33.5316C45.5758 33.0502 47.8384 30.5328 47.8384 27.4603V27.4067C47.8384 23.9848 45.1185 21.1717 41.697 21.1717H6.24905C2.82747 21.1717 0 23.9848 0 27.4065V27.4602C0 30.5328 2.26263 33.05 5.17172 33.5314V33.5756C5.17172 34.5302 5.45648 35.4243 5.90465 36.1939C6.80776 37.7448 8.51378 38.7879 10.4377 38.7879H37.5084C39.4322 38.7879 41.0844 37.7448 41.9876 36.1941C42.4357 35.4245 42.6667 34.5304 42.6667 33.5757ZM28.3528 36.0808C26.9017 36.0808 25.7256 34.9047 25.7256 33.4535C25.7256 32.0024 26.9017 30.8263 28.3528 30.8263C29.804 30.8263 30.9807 32.0024 30.9807 33.4535C30.9805 34.9047 29.804 36.0808 28.3528 36.0808ZM16.8367 33.4535C16.8367 32.0024 18.0128 30.8263 19.4639 30.8263C20.9151 30.8263 22.0918 32.0024 22.0918 33.4535C22.0918 34.9047 20.9152 36.0808 19.4639 36.0808C18.0128 36.0808 16.8367 34.9047 16.8367 33.4535ZM7.9478 33.4535C7.9478 32.0024 9.12388 30.8263 10.575 30.8263C12.0262 30.8263 13.2029 32.0024 13.2029 33.4535C13.2029 34.9047 12.0263 36.0808 10.575 36.0808C9.12388 36.0808 7.9478 34.9047 7.9478 33.4535ZM37.2417 36.0808C35.7905 36.0808 34.6145 34.9047 34.6145 33.4535C34.6145 32.0024 35.7905 30.8263 37.2417 30.8263C38.6928 30.8263 39.8696 32.0024 39.8696 33.4535C39.8694 34.9047 38.6928 36.0808 37.2417 36.0808Z" fill="#65C339"/>
</g>
</g>
<defs>
<clipPath id="clip0_301_2594">
<rect width="48" height="48" fill="white"/>
</clipPath>
</defs>
</svg>
